<?xml version="1.0" encoding="UTF-8"?><svg id="Livello_2" xmlns="http://www.w3.org/2000/svg" xmlns:xlink="http://www.w3.org/1999/xlink" viewBox="0 0 253.37 298.6"><defs><style>.cls-1{fill:url(#Sfumatura_senza_nome_27);}.cls-2{fill:#5a4419;}.cls-3{fill:#ffdc85;}.cls-4{fill:url(#Sfumatura_senza_nome_6);}.cls-5{fill:url(#Sfumatura_senza_nome_25);}.cls-6{fill:url(#Sfumatura_senza_nome_28);}</style><linearGradient id="Sfumatura_senza_nome_28" x1="222.3" y1="42.43" x2="205.89" y2="229.95" gradientUnits="userSpaceOnUse"><stop offset=".04" stop-color="#c09657"/><stop offset=".12" stop-color="#d1b27f"/><stop offset=".29" stop-color="#f1e6c9"/><stop offset=".37" stop-color="#fefbe6"/><stop offset=".39" stop-color="#d6c4a0"/><stop offset=".4" stop-color="#b39564"/><stop offset=".41" stop-color="#9a7339"/><stop offset=".41" stop-color="#8b5e1e"/><stop offset=".42" stop-color="#865715"/><stop offset=".46" stop-color="#8a5a17"/><stop offset=".51" stop-color="#96661e"/><stop offset=".56" stop-color="#ab7929"/><stop offset=".59" stop-color="#c08b35"/><stop offset=".6" stop-color="#c99740"/><stop offset=".65" stop-color="#e6bc61"/><stop offset=".68" stop-color="#f8d376"/><stop offset=".7" stop-color="#ffdc7e"/><stop offset=".87" stop-color="#d09f47"/><stop offset=".92" stop-color="#c08b35"/></linearGradient><linearGradient id="Sfumatura_senza_nome_27" x1="192.9" y1="30.61" x2="174.7" y2="238.67" gradientUnits="userSpaceOnUse"><stop offset=".04" stop-color="#c09657"/><stop offset=".13" stop-color="#d1b27f"/><stop offset=".3" stop-color="#f1e6c9"/><stop offset=".38" stop-color="#fefbe6"/><stop offset=".39" stop-color="#d6c4a0"/><stop offset=".4" stop-color="#b39564"/><stop offset=".41" stop-color="#9a7339"/><stop offset=".42" stop-color="#8b5e1e"/><stop offset=".42" stop-color="#865715"/><stop offset=".47" stop-color="#8a5a17"/><stop offset=".51" stop-color="#96661e"/><stop offset=".56" stop-color="#ab7929"/><stop offset=".59" stop-color="#c08b35"/><stop offset=".6" stop-color="#c99740"/><stop offset=".65" stop-color="#e6bc61"/><stop offset=".68" stop-color="#f8d376"/><stop offset=".7" stop-color="#ffdc7e"/><stop offset=".87" stop-color="#d09f47"/><stop offset=".92" stop-color="#c08b35"/></linearGradient><linearGradient id="Sfumatura_senza_nome_25" x1="93.12" y1="69.73" x2="76.97" y2="254.42" gradientUnits="userSpaceOnUse"><stop offset=".04" stop-color="#c09657"/><stop offset=".07" stop-color="#d1b27f"/><stop offset=".14" stop-color="#f1e6c9"/><stop offset=".18" stop-color="#fefbe6"/><stop offset=".19" stop-color="#d6c4a0"/><stop offset=".2" stop-color="#b39564"/><stop offset=".21" stop-color="#9a7339"/><stop offset=".22" stop-color="#8b5e1e"/><stop offset=".22" stop-color="#865715"/><stop offset=".32" stop-color="#8a5a17"/><stop offset=".42" stop-color="#96661e"/><stop offset=".52" stop-color="#ab7929"/><stop offset=".59" stop-color="#c08b35"/><stop offset=".6" stop-color="#c99740"/><stop offset=".65" stop-color="#e6bc61"/><stop offset=".68" stop-color="#f8d376"/><stop offset=".7" stop-color="#ffdc7e"/><stop offset=".87" stop-color="#d09f47"/><stop offset=".92" stop-color="#c08b35"/></linearGradient><linearGradient id="Sfumatura_senza_nome_6" x1="112.88" y1="-2.24" x2="87.44" y2="288.64" gradientUnits="userSpaceOnUse"><stop offset=".04" stop-color="#c09657"/><stop offset=".12" stop-color="#d1b27f"/><stop offset=".29" stop-color="#f1e6c9"/><stop offset=".36" stop-color="#fefbe6"/><stop offset=".37" stop-color="#ece9d6"/><stop offset=".38" stop-color="#b0afa4"/><stop offset=".38" stop-color="#85847f"/><stop offset=".39" stop-color="#6a6a68"/><stop offset=".39" stop-color="#616160"/><stop offset=".43" stop-color="#65625e"/><stop offset=".47" stop-color="#716858"/><stop offset=".52" stop-color="#87714e"/><stop offset=".56" stop-color="#a47e41"/><stop offset=".59" stop-color="#c08b35"/><stop offset=".6" stop-color="#c99740"/><stop offset=".65" stop-color="#e6bc61"/><stop offset=".68" stop-color="#f8d376"/><stop offset=".7" stop-color="#ffdc7e"/><stop offset=".87" stop-color="#d09f47"/><stop offset=".92" stop-color="#c08b35"/></linearGradient></defs><g id="Livello_1-2"><g id="logo_aladia"><g id="_A_di_Aladia_sottofondo"><path id="Terzo_Foglio_Libro" class="cls-3" d="m232.04,41.85c-24.19,3.46-38.02,20.87-38.02,20.87,0,0,.55,93.89,36.69,145.27-29.87.74-71.96,16.4-71.96,16.4,55.73-12.59,93.59-7.5,93.59-7.5,0,0-40.25-91.21-20.29-175.04Z"/><path id="Secondo_foglio_Libro" class="cls-3" d="m185.21,28.5s-17.46,2.7-28.77,13.68c-5.05,29.72,13.64,122.48,32.27,154.6-41.8,9.78-54.9,36.88-54.9,36.88,16.15-16.1,50.95-27.48,83.4-35.1-39.29-57.73-32-170.06-32-170.06Z"/><path id="Lettera_A_Iniziale" class="cls-3" d="m138.1,196.31l12.53-21.2-115.82,19.48-30.42,51.66H0L55.55,78.33l61.74-7.92,41.21,113.14-20.4,12.75Zm-34.32-121.93l-49.09,79.11,90.54,13.42-41.45-92.54Z"/><path id="Primo_Foglio_Testa_uccello" class="cls-3" d="m124.22,234.01c16.89-32.09,46.42-43.52,46.42-43.52,0,0-36.46-102.17-15.78-190.5-35.68,5.76-71.06,68.04-71.06,68.04l-23.96-22.93-22.34,11.96s1.16,7.02-1.58,9.32c-2.75,2.3-7.39,15.69-7.39,15.69,0,0,13.3-11.57,18.74-10.25,5.44,1.32,32.11,33.34,33.1,63.58,1,30.24,19.71,125.71,43.07,154.94-3.25-11.45-2.28-22.69-2.28-22.69l9.9,8.4s-8.04-17.37-6.85-42.05Z"/></g><g id="_A_di_Aladia"><path id="Terzo_Foglio_Libro-2" class="cls-2" d="m232.04,50.1c-24.19,3.46-38.02,20.87-38.02,20.87,0,0,.55,93.89,36.69,145.27-29.87.74-71.96,16.4-71.96,16.4,55.73-12.59,93.59-7.5,93.59-7.5,0,0-40.25-91.21-20.29-175.04Z"/><path id="Secondo_foglio_Libro-2" class="cls-2" d="m185.21,36.75s-17.46,2.7-28.77,13.68c-5.05,29.72,13.64,122.48,32.27,154.6-41.8,9.78-54.9,36.88-54.9,36.88,16.15-16.1,50.95-27.48,83.4-35.1-39.29-57.73-32-170.06-32-170.06Z"/><path id="Lettera_A_Iniziale-2" class="cls-2" d="m138.1,204.56l12.53-21.2-115.82,19.48-30.42,51.66H0L55.55,86.58l61.74-7.92,41.21,113.14-20.4,12.75Zm-34.32-121.93l-49.09,79.11,90.54,13.42-41.45-92.54Z"/><path id="Primo_Foglio_Testa_uccello-2" class="cls-2" d="m124.22,242.26c16.89-32.09,46.42-43.52,46.42-43.52,0,0-36.46-102.17-15.78-190.5-35.68,5.76-71.06,68.04-71.06,68.04l-23.96-22.93-22.34,11.96s1.16,7.02-1.58,9.32c-2.75,2.3-7.39,15.69-7.39,15.69,0,0,13.3-11.57,18.74-10.25,5.44,1.32,32.11,33.34,33.1,63.58,1,30.24,19.71,125.71,43.07,154.94-3.25-11.45-2.28-22.69-2.28-22.69l9.9,8.4s-8.04-17.37-6.85-42.05Z"/></g><g id="_A_di_Aladia-2"><path id="Terzo_Foglio_Libro-3" class="cls-6" d="m233.08,43.37c-24.19,3.46-38.02,20.87-38.02,20.87,0,0,.55,93.89,36.69,145.27-29.87.74-71.96,16.4-71.96,16.4,55.73-12.59,93.59-7.5,93.59-7.5,0,0-40.25-91.21-20.29-175.04Z"/><path id="Secondo_foglio_Libro-3" class="cls-1" d="m186.25,30.03s-17.46,2.7-28.77,13.68c-5.05,29.72,13.64,122.48,32.27,154.6-41.8,9.78-54.9,36.88-54.9,36.88,16.15-16.1,50.95-27.48,83.4-35.1-39.29-57.73-32-170.06-32-170.06Z"/><path id="Lettera_A_Iniziale-3" class="cls-5" d="m139.14,197.84l12.53-21.2-115.82,19.48-30.42,51.66H1.04L56.59,79.86l61.74-7.92,41.21,113.14-20.4,12.75Zm-34.32-121.93l-49.09,79.11,90.54,13.42-41.45-92.54Z"/><path id="Primo_Foglio_Testa_uccello-3" class="cls-4" d="m125.26,235.53c16.89-32.09,46.42-43.52,46.42-43.52,0,0-36.46-102.17-15.78-190.5-35.68,5.76-71.06,68.04-71.06,68.04l-23.96-22.93-22.34,11.96s1.16,7.02-1.58,9.32c-2.75,2.3-7.39,15.69-7.39,15.69,0,0,13.3-11.57,18.74-10.25,5.44,1.32,32.11,33.34,33.1,63.58,1,30.24,19.71,125.71,43.07,154.94-3.25-11.45-2.28-22.69-2.28-22.69l9.9,8.4s-8.04-17.37-6.85-42.05Z"/></g></g></g></svg>