<?xml version="1.0" encoding="UTF-8"?><svg id="Livello_2" xmlns="http://www.w3.org/2000/svg" xmlns:xlink="http://www.w3.org/1999/xlink" viewBox="0 0 619 202.24"><defs><style>.cls-1{fill:url(#Sfumatura_senza_nome_39);}</style><linearGradient id="Sfumatura_senza_nome_39" x1="312.79" y1="-2.97" x2="305.37" y2="209.41" gradientUnits="userSpaceOnUse"><stop offset=".04" stop-color="#c09657"/><stop offset=".16" stop-color="#d1b27f"/><stop offset=".4" stop-color="#f1e6c9"/><stop offset=".51" stop-color="#fefbe6"/><stop offset=".52" stop-color="#d6c4a0"/><stop offset=".53" stop-color="#b39564"/><stop offset=".54" stop-color="#9a7339"/><stop offset=".54" stop-color="#8b5e1e"/><stop offset=".54" stop-color="#865715"/><stop offset=".57" stop-color="#8a5a17"/><stop offset=".6" stop-color="#96661e"/><stop offset=".63" stop-color="#ab7929"/><stop offset=".65" stop-color="#c08b35"/><stop offset=".65" stop-color="#c99740"/><stop offset=".67" stop-color="#e6bc61"/><stop offset=".69" stop-color="#f8d376"/><stop offset=".7" stop-color="#ffdc7e"/><stop offset=".87" stop-color="#d09f47"/><stop offset=".92" stop-color="#c08b35"/></linearGradient></defs><g id="Livello_1-2"><path id="_ladia_di_Aladia" class="cls-1" d="m38.09,198.98H6.77L0,3.51h44.86l-6.77,195.48h0Zm159.64-3.01c-5.85,4.17-11.11,6.27-15.79,6.27-3.68,0-6.98-1.46-9.9-4.39-2.92-2.92-5.64-7.64-8.15-14.16-5.18,4.51-11.53,8.31-19.05,11.4-7.52,3.09-15.62,5.14-24.31,6.14-2.67.33-5.26.58-7.77.75-2.51.16-4.93.25-7.27.25-23.56,0-35.34-8.43-35.34-25.31,0-2.01.16-4.09.5-6.27.33-2.17.83-4.51,1.5-7.02,1.5-5.51,4.55-10.48,9.15-14.91,4.59-4.43,10.15-8.44,16.67-12.03,6.52-3.59,13.2-6.93,20.05-10.02,6.85-3.09,13.24-6.02,19.17-8.77,5.93-2.76,10.78-5.47,14.53-8.14,3.76-2.67,5.64-5.35,5.64-8.02,0-7.35-.92-12.32-2.76-14.91-1.84-2.59-5.35-3.89-10.53-3.89-3.68,0-9.36.34-17.04,1-7.69.67-16.13,1.67-25.31,3.01-9.19,1.34-17.96,3.09-26.31,5.26l-1.25-2.51c4.51-4.34,10.32-8.52,17.42-12.53,7.1-4.01,14.7-7.6,22.81-10.78,8.1-3.17,16.16-5.68,24.18-7.52,8.02-1.84,15.29-2.76,21.8-2.76,10.36,0,18.08,1.05,23.18,3.13,5.09,2.09,8.52,6.18,10.27,12.28,1.75,6.1,2.63,15.25,2.63,27.44v63.4c0,6.01.54,10.32,1.63,12.9,1.08,2.59,3.64,3.89,7.65,3.89,1.34,0,2.96-.16,4.89-.5,1.92-.33,4.05-.75,6.39-1.25l1,1.5c-7.69,7.18-14.45,12.87-20.3,17.04h0Zm-38.34-72.43c-3.68,3.18-8.56,6.56-14.66,10.15-6.1,3.59-11.99,7.44-17.67,11.53-5.68,4.1-9.86,8.65-12.53,13.66-2.34,4.68-3.51,8.77-3.51,12.28s1.04,6.1,3.13,8.27c2.09,2.17,5.05,3.26,8.89,3.26.84,0,1.71-.04,2.63-.12.92-.08,1.79-.21,2.63-.38,3.34-.84,7.22-2.01,11.65-3.51,4.43-1.5,8.6-3.26,12.53-5.26,3.92-2.01,6.72-4.01,8.4-6.02l-1.5-43.86h0Zm205.12,72.05c-6.43,4.43-12.15,6.64-17.17,6.64-4.01,0-7.39-1.75-10.15-5.26-2.76-3.51-4.72-9.53-5.89-18.04-6.18,6.68-14.12,12.24-23.81,16.66-9.69,4.43-20.72,6.64-33.08,6.64-15.87,0-27.69-4.97-35.46-14.91-7.77-9.94-11.65-23.76-11.65-41.48,0-45.94,32.74-74.93,98.24-86.96l-2.51-55.39h43.86l-3.51,152.12v6.77c0,6.01.54,10.32,1.63,12.9,1.09,2.59,3.63,3.89,7.64,3.89,1.34,0,2.97-.16,4.89-.5,1.92-.33,4.05-.75,6.39-1.25l1,1.5c-7.19,6.68-14,12.24-20.43,16.66h0Zm-38.47-124.93c-21.72,9.19-37.34,19.97-46.86,32.33-9.52,12.37-14.28,25.98-14.28,40.85,0,11.36,1.92,19.63,5.76,24.81,3.84,5.18,9.44,7.77,16.79,7.77s14.41-.96,21.18-2.88c6.77-1.92,13.99-4.8,21.68-8.64l-4.26-94.23h0Zm91.72-19.05L397.71,0l60.9,10.52-40.85,41.1h0Zm21.8,147.36h-31.08l-6.52-139.59h44.11l-6.52,139.59h0Zm159.13-3.01c-5.85,4.17-11.11,6.27-15.79,6.27-3.68,0-6.98-1.46-9.9-4.39-2.93-2.92-5.64-7.64-8.15-14.16-5.18,4.51-11.53,8.31-19.05,11.4-7.52,3.09-15.62,5.14-24.31,6.14-2.67.33-5.26.58-7.77.75-2.51.16-4.93.25-7.27.25-23.56,0-35.34-8.43-35.34-25.31,0-2.01.16-4.09.5-6.27.33-2.17.84-4.51,1.5-7.02,1.5-5.51,4.55-10.48,9.15-14.91,4.59-4.43,10.15-8.44,16.67-12.03,6.52-3.59,13.19-6.93,20.05-10.02,6.85-3.09,13.24-6.02,19.17-8.77,5.93-2.76,10.78-5.47,14.54-8.14,3.76-2.67,5.64-5.35,5.64-8.02,0-7.35-.92-12.32-2.76-14.91-1.84-2.59-5.35-3.89-10.53-3.89-3.68,0-9.36.34-17.04,1-7.69.67-16.13,1.67-25.31,3.01-9.19,1.34-17.96,3.09-26.32,5.26l-1.25-2.51c4.51-4.34,10.31-8.52,17.42-12.53,7.1-4.01,14.7-7.6,22.81-10.78,8.1-3.17,16.16-5.68,24.18-7.52,8.02-1.84,15.29-2.76,21.8-2.76,10.36,0,18.08,1.05,23.18,3.13,5.09,2.09,8.52,6.18,10.27,12.28,1.76,6.1,2.63,15.25,2.63,27.44v63.4c0,6.01.54,10.32,1.63,12.9,1.08,2.59,3.63,3.89,7.64,3.89,1.34,0,2.97-.16,4.89-.5,1.92-.33,4.05-.75,6.39-1.25l1,1.5c-7.69,7.18-14.45,12.87-20.3,17.04h0Zm-38.34-72.43c-3.68,3.18-8.56,6.56-14.66,10.15-6.1,3.59-11.99,7.44-17.67,11.53-5.68,4.1-9.86,8.65-12.53,13.66-2.34,4.68-3.51,8.77-3.51,12.28s1.04,6.1,3.13,8.27c2.09,2.17,5.05,3.26,8.9,3.26.83,0,1.71-.04,2.63-.12.92-.08,1.79-.21,2.63-.38,3.34-.84,7.22-2.01,11.65-3.51,4.42-1.5,8.6-3.26,12.53-5.26,3.92-2.01,6.72-4.01,8.4-6.02l-1.5-43.86h0Z"/></g></svg>