<svg width="153" height="118" viewBox="0 0 153 118" fill="none" xmlns="http://www.w3.org/2000/svg">
<path d="M140.006 145.992C143.727 138.856 126.249 142.793 137.343 126.985C148.437 111.178 122.795 114.818 140.637 94.1623C158.479 73.5063 164.694 84.6992 175.208 73.9915" stroke="#707070" stroke-width="0.0459698"/>
<path d="M141.847 146.259C153.057 141.631 158.635 138.173 163.037 131.326C167.44 124.479 171.737 102.267 173.445 101.068C175.153 99.869 186.175 89.2155 186.813 85.4025C187.324 82.352 181.463 73.8656 178.469 70.0037" stroke="#707070" stroke-width="0.0459698"/>
<path d="M139.479 145.539C141.785 141.92 138.775 140.994 136.587 138.874C134.399 136.754 133.083 132.87 138.447 125.285C149.094 110.173 125.199 113.133 142.221 93.2794C159.237 73.4617 164.878 83.7176 174.749 73.3359" stroke="#707070" stroke-width="0.0459698"/>
<path d="M138.952 145.086C141.703 141.417 139.123 140.364 137.264 138.008C135.405 135.651 134.371 130.851 139.552 123.586C149.752 109.169 127.602 111.449 143.806 92.3968C159.997 73.4175 165.062 82.7362 174.289 72.6805" stroke="#707070" stroke-width="0.0459698"/>
<path d="M138.434 144.634C141.63 140.914 139.479 139.735 137.95 137.142C136.421 134.549 135.666 128.832 140.665 121.886C150.418 108.166 130.014 109.764 145.398 91.5145C160.764 73.3736 165.254 81.7551 173.839 72.0254" stroke="#707070" stroke-width="0.0459698"/>
<path d="M137.908 144.182C141.549 140.412 139.828 139.105 138.628 136.276C137.429 133.447 136.955 126.814 141.771 120.187C151.077 107.162 132.419 108.08 146.984 90.6326C161.524 73.33 165.439 80.7745 173.38 71.3708" stroke="#707070" stroke-width="0.0459698"/>
<path d="M137.383 143.73C141.47 139.91 140.177 138.477 139.307 135.411C138.437 132.346 138.244 124.796 142.877 118.489C151.736 106.16 134.824 106.397 148.57 89.7513C162.285 73.287 165.625 79.7944 172.923 70.7167" stroke="#707070" stroke-width="0.0459698"/>
<path d="M136.859 143.279C141.391 139.408 140.528 137.849 139.987 134.547C139.447 131.245 139.534 122.779 143.984 116.791C152.397 105.158 137.23 104.714 150.157 88.8705C163.047 73.2447 165.812 78.8149 172.466 70.0632" stroke="#707070" stroke-width="0.0459698"/>
<path d="M136.343 142.829C141.32 138.908 140.887 137.222 140.676 133.684C140.465 130.146 140.833 120.763 145.101 115.094C153.066 104.156 139.645 103.032 151.753 87.9906C163.817 73.2031 166.007 77.8362 172.019 69.4105" stroke="#707070" stroke-width="0.0459698"/>
<path d="M135.822 142.38C141.244 138.408 141.24 136.596 141.358 132.821C141.477 129.047 142.126 118.748 146.21 113.398C153.729 103.156 142.054 101.351 153.342 87.1117C164.581 73.1626 166.196 76.8586 171.564 68.7589" stroke="#707070" stroke-width="0.0459698"/>
<path d="M135.294 141.933C141.161 137.91 141.586 135.971 142.035 131.96C142.483 127.95 143.412 116.734 147.314 111.704C154.385 102.157 144.457 99.6719 154.925 86.2343C165.34 73.1235 166.379 75.8824 171.104 68.1087" stroke="#707070" stroke-width="0.0459698"/>
<path d="M134.777 141.487C141.089 137.414 141.944 135.348 142.721 131.101C143.499 126.854 144.709 114.722 148.428 110.011C155.053 101.16 146.87 97.9944 156.519 85.3588C166.108 73.0864 166.573 74.9082 170.655 67.4604" stroke="#707070" stroke-width="0.0459698"/>
<path d="M135.112 141.684C141.87 137.56 143.154 135.368 144.261 130.884C145.369 126.401 146.86 113.353 150.396 108.961C156.573 100.806 150.136 96.9589 158.966 85.1254C167.73 73.6913 167.62 74.576 171.058 67.4542" stroke="#707070" stroke-width="0.0459698"/>
<path d="M135.784 142.141C142.987 137.967 144.701 135.648 146.137 130.928C147.574 126.209 149.346 112.244 152.699 108.172C158.429 100.712 153.738 96.1846 161.749 85.1531C169.688 74.5574 169.002 74.505 171.798 67.7092" stroke="#707070" stroke-width="0.0459698"/>
<path d="M136.456 142.599C144.104 138.374 146.247 135.929 148.014 130.973C149.78 126.016 151.832 111.135 155.002 107.382C160.286 100.618 157.341 95.4103 164.533 85.1808C171.646 75.4235 170.385 74.434 172.537 67.9641" stroke="#707070" stroke-width="0.0459698"/>
<path d="M137.136 143.056C145.229 138.781 147.802 136.209 149.897 131.017C151.993 125.824 154.326 110.027 157.314 106.593C162.15 100.525 160.951 94.6359 167.323 85.2085C173.611 76.2896 171.776 74.3629 173.284 68.2191" stroke="#707070" stroke-width="0.0459698"/>
<path d="M137.8 143.514C146.339 139.188 149.34 136.49 151.766 131.061C154.191 125.632 156.804 108.918 159.609 105.804C163.999 100.431 164.545 93.8616 170.099 85.2362C175.561 77.1556 173.151 74.2919 174.016 68.474" stroke="#707070" stroke-width="0.0459698"/>
<path d="M138.48 143.971C147.464 139.595 150.895 136.77 153.649 131.105C156.404 125.44 159.298 107.81 161.92 105.014C165.863 100.337 168.155 93.0872 172.89 85.264C177.527 78.0217 174.541 74.2208 174.763 68.729" stroke="#707070" stroke-width="0.0459698"/>
<path d="M139.152 144.429C148.581 140.003 152.441 137.051 155.525 131.149C158.61 125.248 161.785 106.701 164.224 104.225C167.719 100.244 171.758 92.3129 175.673 85.2916C179.485 78.8878 175.924 74.1498 175.503 68.9839" stroke="#707070" stroke-width="0.0459698"/>
<path d="M139.824 144.885C149.698 140.408 153.988 137.329 157.402 131.191C160.815 125.054 164.271 105.59 166.527 103.434C169.576 100.148 175.36 91.5366 178.456 85.3174C181.442 79.7519 177.307 74.0768 176.242 69.2369" stroke="#707070" stroke-width="0.0459698"/>
<path d="M140.496 145.344C150.815 140.817 155.534 137.612 159.278 131.237C163.021 124.863 166.757 104.484 168.831 102.646C171.432 100.056 178.962 90.7642 181.239 85.3471C183.4 80.6199 178.69 74.0077 176.982 69.4938" stroke="#707070" stroke-width="0.0459698"/>
<path d="M141.167 145.802C151.932 141.224 157.081 137.892 161.154 131.282C165.227 124.671 169.243 103.375 171.134 101.857C173.289 99.9627 182.565 89.9899 184.022 85.3748C185.358 81.486 180.072 73.9367 177.721 69.7488" stroke="#707070" stroke-width="0.0459698"/>
<path d="M28.924 -18.3344C25.523 -12.7641 39.9129 -14.9533 30.0668 -2.77796C20.2206 9.39736 41.2168 7.91661 25.6373 23.6345C10.0577 39.3523 5.61492 29.9247 -3.48765 38" stroke="#707070" stroke-width="0.0459698"/>
<path d="M27.4462 -18.6559C18.1048 -15.5474 13.3946 -13.0644 9.45659 -7.76775C5.51858 -2.47114 0.843306 15.2845 -0.606326 16.1581C-2.05596 17.0317 -11.5675 25.034 -12.2894 28.0877C-12.8669 30.5306 -8.56694 37.7444 -6.34476 41.0459" stroke="#707070" stroke-width="0.0459698"/>
<path d="M29.3213 -17.9375C27.257 -15.137 29.6491 -14.2137 31.3107 -12.3702C32.9723 -10.5266 33.8316 -7.30344 29.0739 -1.46407C19.6276 10.1731 39.171 9.14389 24.299 24.2587C9.43381 39.3444 5.40733 30.7093 -3.15596 38.5572" stroke="#707070" stroke-width="0.0459698"/>
<path d="M29.7262 -17.5409C27.2981 -14.725 29.3351 -13.7237 30.7167 -11.7075C32.0983 -9.69131 32.6808 -5.74152 28.0885 -0.150433C19.0421 10.9485 37.1327 10.3709 22.9682 24.8827C8.81743 39.3362 5.20726 31.4936 -2.81675 39.1142" stroke="#707070" stroke-width="0.0459698"/>
<path d="M30.1308 -17.1427C27.3387 -14.3113 29.0206 -13.2321 30.1223 -11.0432C31.2239 -8.85435 31.5297 -4.17793 27.1028 1.16486C18.4562 11.7257 35.0941 11.5996 21.6371 25.5083C8.2007 39.3297 5.00686 32.2795 -2.47789 39.6728" stroke="#707070" stroke-width="0.0459698"/>
<path d="M30.5349 -16.7467C27.379 -13.9 28.7058 -12.7427 29.5275 -10.3812C30.3491 -8.0197 30.3782 -2.61667 26.1167 2.47784C17.8699 12.5005 33.0551 12.826 20.3056 26.1316C7.58356 39.3209 4.80604 33.0631 -2.13943 40.2291" stroke="#707070" stroke-width="0.0459698"/>
<path d="M30.9308 -16.3512C27.411 -13.4891 28.3827 -12.2539 28.9243 -9.71968C29.466 -7.18551 29.2183 -1.05585 25.1223 3.79037C17.2753 13.2748 31.0077 14.0519 18.9657 26.7545C6.95809 39.3116 4.5969 33.8463 -1.8093 40.785" stroke="#707070" stroke-width="0.0459698"/>
<path d="M31.3337 -15.9543C27.4501 -13.0768 28.0667 -11.7636 28.3284 -9.05675C28.5901 -6.34992 28.0657 0.506358 24.135 5.10429C16.6879 14.0506 28.9676 15.2792 17.6331 27.3788C6.3398 39.3038 4.39493 34.6309 -1.47199 41.3422" stroke="#707070" stroke-width="0.0459698"/>
<path d="M31.7281 -15.5601C27.4806 -12.6672 27.7421 -11.276 27.7238 -8.39648C27.7055 -5.517 26.9044 2.0659 23.1391 6.41555C16.0918 14.8236 26.9187 16.5039 16.2917 28.0003C5.71286 39.2932 4.18432 35.4128 -1.14333 41.8968" stroke="#707070" stroke-width="0.0459698"/>
<path d="M32.1292 -15.1668C27.5178 -12.2585 27.4242 -10.7893 27.1259 -7.73716C26.8276 -4.68503 25.7498 3.6245 22.1499 7.72586C15.5025 15.5958 24.8767 17.7276 14.9572 28.621C5.09266 39.2817 3.98044 36.1937 -0.807934 42.4504" stroke="#707070" stroke-width="0.0459698"/>
<path d="M32.5288 -14.7748C27.5536 -11.8511 27.1048 -10.3039 26.5266 -7.0791C25.9483 -3.85431 24.5938 5.18183 21.1593 9.0349C14.9117 16.3666 22.8331 18.95 13.6211 29.2404C4.47103 39.269 3.77513 36.9734 -0.473969 43.0028" stroke="#707070" stroke-width="0.0459698"/>
<path d="M32.9186 -14.3845C27.5796 -11.4454 26.7757 -9.82023 25.9175 -6.42279C25.0592 -3.02535 23.4279 6.73741 20.1589 10.3422C14.3111 17.1358 20.7798 20.1707 12.2753 29.858C3.83956 39.2545 3.55999 37.7514 -0.149842 43.5534" stroke="#707070" stroke-width="0.0459698"/>
<path d="M32.6648 -14.5611C26.9619 -11.6066 25.8029 -9.90342 24.6647 -6.33333C23.5265 -2.76323 21.6185 7.72615 18.5148 11.0827C13.0669 17.338 18.0828 20.8246 10.2858 29.9088C2.56449 38.6732 2.70124 37.9625 -0.469313 43.5372" stroke="#707070" stroke-width="0.0459698"/>
<path d="M32.1461 -14.971C26.0794 -12.001 24.5652 -10.2199 23.147 -6.47716C21.7288 -2.73442 19.5441 8.48159 16.6058 11.5898C11.5577 17.307 15.1209 21.2451 8.03145 29.7263C1.02448 37.8585 1.57755 37.9403 -1.05373 43.2877" stroke="#707070" stroke-width="0.0459698"/>
<path d="M31.6196 -15.3808C25.1889 -12.3955 23.3197 -10.5364 21.6215 -6.62099C19.9234 -2.7056 17.4619 9.23704 14.689 12.097C10.0407 17.276 12.1512 21.6657 5.76923 29.5438C-0.523353 37.0439 0.446046 37.9181 -1.64596 43.0382" stroke="#707070" stroke-width="0.0459698"/>
<path d="M31.1008 -15.7887C24.3064 -12.788 22.082 -10.8509 20.1038 -6.76287C18.1257 -2.67482 15.3875 9.99443 12.7801 12.6061C8.53158 17.2469 9.18929 22.0882 3.51483 29.3633C-2.06337 36.2312 -0.677647 37.8978 -2.23038 42.7906" stroke="#707070" stroke-width="0.0459698"/>
<path d="M30.5743 -16.1986C23.4159 -13.1825 20.8365 -11.1674 18.5783 -6.90671C16.3202 -2.64601 13.3053 10.7499 10.8632 13.1132C7.01461 17.2159 6.21957 22.5087 1.25262 29.1808C-3.6112 35.4165 -1.80915 37.8756 -2.82261 42.5411" stroke="#707070" stroke-width="0.0459698"/>
<path d="M30.0555 -16.6085C22.5334 -13.577 19.5988 -11.4839 17.0607 -7.05054C14.5225 -2.61718 11.2309 11.5053 8.95425 13.6204C5.50545 17.1849 3.25766 22.9293 -1.00178 28.9983C-5.15122 34.6019 -2.93285 37.8534 -3.40704 42.2915" stroke="#707070" stroke-width="0.0459698"/>
<path d="M29.529 -17.0184C21.6429 -13.9714 18.3533 -11.8004 15.5352 -7.19437C12.7171 -2.58837 9.14869 12.2608 7.03745 14.1275C3.98848 17.1539 0.287944 23.3499 -3.26399 28.8158C-6.69905 33.7873 -4.06436 37.8312 -3.99927 42.042" stroke="#707070" stroke-width="0.0459698"/>
<path d="M29.0102 -17.4282C20.7604 -14.3659 17.1155 -12.1169 14.0175 -7.3382C10.9194 -2.55954 7.0743 13.0162 5.12846 14.6347C2.47932 17.1229 -2.67396 23.7704 -5.5184 28.6333C-8.23907 32.9726 -5.18806 37.809 -4.58369 41.7925" stroke="#707070" stroke-width="0.0459698"/>
<path d="M28.4915 -17.8381C19.8778 -14.7604 15.8778 -12.4333 12.4998 -7.48204C9.12173 -2.53073 4.9999 13.7716 3.21947 15.1418C0.970166 17.0918 -5.63587 24.1909 -7.77279 28.4507C-9.77909 32.158 -6.31175 37.7868 -5.16811 41.543" stroke="#707070" stroke-width="0.0459698"/>
<path d="M27.9728 -18.246C18.9952 -15.1529 14.6401 -12.7479 10.9821 -7.62392C7.32406 -2.49995 2.92551 14.529 1.31048 15.651C-0.53899 17.0628 -8.59777 24.6135 -10.0272 28.2702C-11.3191 31.3453 -7.43544 37.7666 -5.75253 41.2954" stroke="#707070" stroke-width="0.0459698"/>
</svg>
