<svg width="162" height="104" viewBox="0 0 162 104" fill="none" xmlns="http://www.w3.org/2000/svg">
<rect x="0.350647" y="0.350342" width="35.5608" height="102.881" rx="2.53837" fill="#202020"/>
<rect x="6.44275" y="8.47314" width="23.3766" height="2.33766" rx="1.16883" fill="white" fill-opacity="0.2"/>
<rect x="6.44275" y="16.9028" width="23.3766" height="2.33766" rx="1.16883" fill="white" fill-opacity="0.2"/>
<rect x="6.44275" y="25.3325" width="23.3766" height="2.33766" rx="1.16883" fill="white" fill-opacity="0.2"/>
<rect x="6.44275" y="33.7625" width="23.3766" height="2.33766" rx="1.16883" fill="white" fill-opacity="0.2"/>
<rect x="6.44275" y="42.1921" width="23.3766" height="2.33766" rx="1.16883" fill="white" fill-opacity="0.2"/>
<rect x="6.44275" y="50.6218" width="23.3766" height="2.33766" rx="1.16883" fill="white" fill-opacity="0.2"/>
<rect x="6.44275" y="59.0518" width="23.3766" height="2.33766" rx="1.16883" fill="white" fill-opacity="0.2"/>
<rect x="6.44275" y="67.4814" width="23.3766" height="2.33766" rx="1.16883" fill="white" fill-opacity="0.2"/>
<rect x="6.44275" y="75.9111" width="23.3766" height="2.33766" rx="1.16883" fill="white" fill-opacity="0.2"/>
<rect x="6.44275" y="84.3408" width="23.3766" height="2.33766" rx="1.16883" fill="white" fill-opacity="0.2"/>
<rect x="6.44275" y="92.7708" width="23.3766" height="2.33766" rx="1.16883" fill="white" fill-opacity="0.2"/>
<rect x="44.7657" y="27.6238" width="116.6" height="75.915" rx="2.86305" fill="#202020"/>
<rect x="51.637" y="36.7856" width="24.0496" height="2.33766" rx="1.16883" fill="white" fill-opacity="0.2"/>
<rect x="51.637" y="45.9944" width="102.857" height="2.33766" rx="1.16883" fill="white" fill-opacity="0.2"/>
<rect x="51.6369" y="55.2036" width="102.857" height="2.33766" rx="1.16883" fill="white" fill-opacity="0.2"/>
<rect x="51.637" y="64.4124" width="102.857" height="2.33766" rx="1.16883" fill="white" fill-opacity="0.2"/>
<rect x="51.637" y="73.6213" width="102.857" height="2.33766" rx="1.16883" fill="white" fill-opacity="0.2"/>
<rect x="51.637" y="82.8303" width="102.857" height="2.33766" rx="1.16883" fill="white" fill-opacity="0.2"/>
<rect x="51.637" y="92.0393" width="102.857" height="2.33766" rx="1.16883" fill="white" fill-opacity="0.2"/>
<rect x="44.7657" y="0.571045" width="33.5065" height="20.7002" rx="1.82101" fill="#202020"/>
<rect x="49.1361" y="6.39819" width="15.2964" height="2.33766" rx="1.16883" fill="white" fill-opacity="0.2"/>
<rect x="49.1361" y="13.1064" width="24.7657" height="2.33766" rx="1.16883" fill="white" fill-opacity="0.2"/>
<rect x="128.143" y="0.350342" width="33.5065" height="20.7002" rx="1.82101" fill="#202020"/>
<rect x="132.513" y="6.17749" width="15.2964" height="2.33766" rx="1.16883" fill="white" fill-opacity="0.2"/>
<rect x="132.513" y="12.8857" width="24.7657" height="2.33766" rx="1.16883" fill="white" fill-opacity="0.2"/>
<rect x="86.8438" y="0.350342" width="33.5065" height="20.7002" rx="1.82101" fill="#202020"/>
<rect x="91.2142" y="6.17749" width="15.2964" height="2.33766" rx="1.16883" fill="white" fill-opacity="0.2"/>
<rect x="91.2142" y="12.8857" width="24.7657" height="2.33766" rx="1.16883" fill="white" fill-opacity="0.2"/>
</svg>
