<svg width="162" height="104" viewBox="0 0 162 104" fill="none" xmlns="http://www.w3.org/2000/svg">
<rect x="0.350647" y="0.350586" width="35.5608" height="102.881" rx="2.53837" fill="#B0B0B0"/>
<rect x="6.44275" y="8.47339" width="23.3766" height="2.33766" rx="1.16883" fill="#D9D9D9"/>
<rect x="6.44275" y="16.9031" width="23.3766" height="2.33766" rx="1.16883" fill="#D9D9D9"/>
<rect x="6.44275" y="25.3328" width="23.3766" height="2.33766" rx="1.16883" fill="#D9D9D9"/>
<rect x="6.44275" y="33.7627" width="23.3766" height="2.33766" rx="1.16883" fill="#D9D9D9"/>
<rect x="6.44275" y="42.1924" width="23.3766" height="2.33766" rx="1.16883" fill="#D9D9D9"/>
<rect x="6.44275" y="50.6221" width="23.3766" height="2.33766" rx="1.16883" fill="#D9D9D9"/>
<rect x="6.44275" y="59.052" width="23.3766" height="2.33766" rx="1.16883" fill="#D9D9D9"/>
<rect x="6.44275" y="67.4817" width="23.3766" height="2.33766" rx="1.16883" fill="#D9D9D9"/>
<rect x="6.44275" y="75.9114" width="23.3766" height="2.33766" rx="1.16883" fill="#D9D9D9"/>
<rect x="6.44275" y="84.3411" width="23.3766" height="2.33766" rx="1.16883" fill="#D9D9D9"/>
<rect x="6.44275" y="92.771" width="23.3766" height="2.33766" rx="1.16883" fill="#D9D9D9"/>
<rect x="44.7657" y="27.6238" width="116.6" height="75.915" rx="2.86305" fill="#B0B0B0"/>
<rect x="51.6368" y="36.7856" width="24.0496" height="2.33766" rx="1.16883" fill="#D9D9D9"/>
<rect x="51.637" y="45.9944" width="102.857" height="2.33766" rx="1.16883" fill="#D9D9D9"/>
<rect x="51.637" y="55.2034" width="102.857" height="2.33766" rx="1.16883" fill="#D9D9D9"/>
<rect x="51.637" y="64.4124" width="102.857" height="2.33766" rx="1.16883" fill="#D9D9D9"/>
<rect x="51.637" y="73.6213" width="102.857" height="2.33766" rx="1.16883" fill="#D9D9D9"/>
<rect x="51.637" y="82.8303" width="102.857" height="2.33766" rx="1.16883" fill="#D9D9D9"/>
<rect x="51.637" y="92.0393" width="102.857" height="2.33766" rx="1.16883" fill="#D9D9D9"/>
<rect x="44.7657" y="0.569092" width="33.5065" height="20.7002" rx="1.82101" fill="#B0B0B0"/>
<rect x="49.1361" y="6.39624" width="15.2964" height="2.33766" rx="1.16883" fill="#D9D9D9"/>
<rect x="49.1361" y="13.1045" width="24.7657" height="2.33766" rx="1.16883" fill="#D9D9D9"/>
<rect x="128.143" y="0.350586" width="33.5065" height="20.7002" rx="1.82101" fill="#B0B0B0"/>
<rect x="132.514" y="6.17773" width="15.2964" height="2.33766" rx="1.16883" fill="#D9D9D9"/>
<rect x="132.514" y="12.886" width="24.7657" height="2.33766" rx="1.16883" fill="#D9D9D9"/>
<rect x="86.8448" y="0.350586" width="33.5065" height="20.7002" rx="1.82101" fill="#B0B0B0"/>
<rect x="91.2152" y="6.17773" width="15.2964" height="2.33766" rx="1.16883" fill="#D9D9D9"/>
<rect x="91.2152" y="12.886" width="24.7657" height="2.33766" rx="1.16883" fill="#D9D9D9"/>
</svg>
