<svg width="45" height="9" viewBox="0 0 45 9" fill="none" xmlns="http://www.w3.org/2000/svg">
<path d="M2.8125 0.705078C4.97461 0.705078 6.75 2.46289 6.75 4.64258C6.75 6.80469 4.97461 8.58008 2.8125 8.58008H0.5625C0.246094 8.58008 0 8.31641 0 8.01758V1.26758C0 0.951172 0.246094 0.705078 0.5625 0.705078H2.8125ZM2.8125 7.4375C4.35938 7.4375 5.625 6.1543 5.625 4.625C5.625 3.07812 4.35938 1.8125 2.8125 1.8125H1.125V7.4375H2.8125ZM12.555 8C12.555 8.31641 12.2913 8.5625 11.9925 8.5625H7.4925C7.17609 8.5625 6.93 8.31641 6.93 8V1.25C6.93 0.951172 7.17609 0.705078 7.4925 0.705078H11.9925C12.2913 0.705078 12.555 0.951172 12.555 1.26758C12.555 1.56641 12.2913 1.83008 11.9925 1.83008H8.055V4.08008H10.8675C11.1663 4.08008 11.43 4.32617 11.43 4.625C11.43 4.94141 11.1663 5.20508 10.8675 5.20508H8.055V7.45508H11.9925C12.2913 7.4375 12.555 7.70117 12.555 8ZM18.36 1.26758C18.36 1.56641 18.0963 1.83008 17.7975 1.83008H13.86V4.08008H16.6725C16.9713 4.08008 17.235 4.32617 17.235 4.625C17.235 4.90625 16.9713 5.1875 16.6725 5.1875H13.86V8C13.86 8.29883 13.5963 8.5625 13.2975 8.5625C12.9811 8.5625 12.735 8.29883 12.735 8V1.25C12.735 0.951172 12.9811 0.705078 13.2975 0.705078H17.7975C18.0963 0.705078 18.36 0.951172 18.36 1.26758ZM25.2373 7.78906C25.3603 8.07031 25.2197 8.4043 24.9384 8.52734C24.8681 8.5625 24.7978 8.58008 24.7275 8.58008C24.499 8.58008 24.288 8.43945 24.2002 8.22852L23.6377 6.89258H20.1748L19.6123 8.22852C19.4892 8.50977 19.1728 8.65039 18.874 8.52734C18.5927 8.4043 18.4521 8.08789 18.5752 7.78906L21.3877 1.03906C21.4755 0.828125 21.6865 0.705078 21.915 0.705078C22.1259 0.705078 22.3369 0.828125 22.4248 1.03906L25.2373 7.78906ZM20.6318 5.75H23.1806L21.915 2.72656L20.6318 5.75ZM32.22 1.26758V5.22266C32.22 7.05078 30.6907 8.58008 28.845 8.58008C26.9817 8.58008 25.47 7.06836 25.47 5.22266V1.26758C25.47 0.951172 25.7161 0.705078 26.0325 0.705078C26.3313 0.705078 26.595 0.951172 26.595 1.26758V5.22266C26.595 6.45312 27.597 7.45508 28.845 7.45508C30.0755 7.45508 31.095 6.45312 31.095 5.22266V1.26758C31.095 0.951172 31.3411 0.705078 31.6575 0.705078C31.9563 0.705078 32.22 0.951172 32.22 1.26758ZM38.025 8C38.025 8.31641 37.7613 8.5625 37.4625 8.5625H33.525C33.2086 8.5625 32.9625 8.31641 32.9625 8V1.25C32.9625 0.951172 33.2086 0.705078 33.525 0.705078C33.8238 0.705078 34.0875 0.951172 34.0875 1.26758V7.45508H37.4625C37.7613 7.4375 38.025 7.70117 38.025 8ZM44.955 1.26758C44.955 1.56641 44.6913 1.83008 44.3925 1.83008H42.1425V8.01758C42.1425 8.31641 41.8788 8.5625 41.58 8.5625C41.2636 8.5625 41.0175 8.31641 41.0175 8.01758V1.83008H38.7675C38.4511 1.83008 38.205 1.56641 38.205 1.26758C38.205 0.951172 38.4511 0.705078 38.7675 0.705078H44.3925C44.6913 0.705078 44.955 0.951172 44.955 1.26758Z" fill="#707070"/>
</svg>
