<svg xmlns="http://www.w3.org/2000/svg" width="60.819" height="24.17" viewBox="0 0 60.819 24.17">
  <defs>
    <style>
      .cls-1 {
        fill: #fff;
      }
    </style>
  </defs>
  <g id="Apple_pay_logo" data-name="Apple pay logo" transform="translate(0)">
    <path id="XMLID_34_" class="cls-1" d="M11.171,3.116A3.786,3.786,0,0,1,8.178,4.484a4.02,4.02,0,0,1,1.069-3A4.517,4.517,0,0,1,12.217,0a4.275,4.275,0,0,1-1.045,3.116M12.205,4.7c-1.651-.092-3.065.908-3.849.908s-2-.862-3.3-.839A4.9,4.9,0,0,0,.907,7.209c-1.782,2.967-.463,7.359,1.259,9.774.843,1.2,1.853,2.507,3.184,2.461,1.259-.046,1.758-.793,3.279-.793s1.972.793,3.3.77c1.378-.023,2.245-1.2,3.089-2.392A10.335,10.335,0,0,0,16.4,14.281a4.355,4.355,0,0,1-2.685-3.944,4.417,4.417,0,0,1,2.174-3.7A4.763,4.763,0,0,0,12.205,4.7m9.54-3.335V19.294H24.62V13.166H28.6c3.635,0,6.19-2.415,6.19-5.91a5.718,5.718,0,0,0-6.094-5.887h-6.95ZM24.62,3.714h3.315c2.495,0,3.92,1.288,3.92,3.553s-1.426,3.564-3.932,3.564h-3.3ZM40.04,19.432a4.791,4.791,0,0,0,4.241-2.288h.059v2.15H47V10.372c0-2.587-2.138-4.254-5.429-4.254-3.053,0-5.31,1.69-5.394,4.013h2.59A2.517,2.517,0,0,1,41.489,8.3c1.758,0,2.744.793,2.744,2.254v.989l-3.588.207c-3.338.2-5.144,1.518-5.144,3.817C35.5,17.891,37.367,19.432,40.04,19.432Zm.772-2.127c-1.533,0-2.507-.713-2.507-1.805,0-1.127.939-1.782,2.732-1.886l3.2-.2V14.43C44.234,16.109,42.761,17.3,40.812,17.3Zm9.742,6.865c2.8,0,4.122-1.035,5.275-4.174L60.878,6.29H57.955L54.569,16.88H54.51L51.124,6.29H48.118L52.989,19.34l-.261.793A2.272,2.272,0,0,1,50.3,22c-.226,0-.665-.023-.843-.046V24.1A8.179,8.179,0,0,0,50.554,24.17Z" transform="translate(-0.059)"/>
  </g>
</svg>
