<svg xmlns="http://www.w3.org/2000/svg" width="61.697" height="24.521" viewBox="0 0 61.697 24.521">
  <defs>
    <style>
      .cls-1 {
        fill: #fff;
      }

      .cls-2 {
        fill: #4285f4;
      }

      .cls-3 {
        fill: #34a853;
      }

      .cls-4 {
        fill: #fbbc04;
      }

      .cls-5 {
        fill: #ea4335;
      }
    </style>
  </defs>
  <g id="Google_Pay_Logo" data-name="Google Pay Logo" transform="translate(0)">
    <path id="Tracciato_3618" data-name="Tracciato 3618" class="cls-1" d="M17.968,13.261v7.17H15.655V2.7h6.014A5.739,5.739,0,0,1,25.6,4.241,4.9,4.9,0,0,1,27.22,8.019,5.015,5.015,0,0,1,25.6,11.8a5.6,5.6,0,0,1-3.932,1.542l-3.7-.077Zm0-8.4v6.168h3.855a2.966,2.966,0,0,0,2.236-.925,2.957,2.957,0,0,0,.077-4.24l-.077-.077a2.811,2.811,0,0,0-2.236-.925Z" transform="translate(11.194 -1.307)"/>
    <path id="Tracciato_3619" data-name="Tracciato 3619" class="cls-1" d="M27.723,5.758a5.635,5.635,0,0,1,4.009,1.388,4.767,4.767,0,0,1,1.465,3.7v7.4H31.038v-1.7h-.077a4.38,4.38,0,0,1-3.778,2.082,5.17,5.17,0,0,1-3.392-1.156A4.1,4.1,0,0,1,22.4,14.47a3.729,3.729,0,0,1,1.388-3.007,5.792,5.792,0,0,1,3.778-1.079,6.036,6.036,0,0,1,3.315.771v-.54a2.486,2.486,0,0,0-.925-2,3.507,3.507,0,0,0-5.243.771l-2-1.234A5.872,5.872,0,0,1,27.723,5.758Zm-2.93,8.789a1.754,1.754,0,0,0,.771,1.465,3.089,3.089,0,0,0,1.773.617,3.628,3.628,0,0,0,2.544-1.079,3.254,3.254,0,0,0,1.156-2.467,4.814,4.814,0,0,0-3.007-.848,3.747,3.747,0,0,0-2.313.694A1.812,1.812,0,0,0,24.793,14.547Z" transform="translate(16.011 0.876)"/>
    <path id="Tracciato_3620" data-name="Tracciato 3620" class="cls-1" d="M41.03,5.983,33.4,23.484H31.085l2.853-6.091L28.926,6.06h2.467l3.624,8.712h.077L38.64,6.06h2.39Z" transform="translate(20.667 1.037)"/>
    <path id="Tracciato_3621" data-name="Tracciato 3621" class="cls-2" d="M15.729,8.83a18.9,18.9,0,0,0-.154-2.082H5.938V10.68h5.474a4.675,4.675,0,0,1-2,3.084v2.544h3.315A9.918,9.918,0,0,0,15.729,8.83Z" transform="translate(4.258 1.583)"/>
    <path id="Tracciato_3622" data-name="Tracciato 3622" class="cls-3" d="M9.727,17.2a9.874,9.874,0,0,0,6.785-2.467L13.2,12.19a6.146,6.146,0,0,1-3.469,1,6.04,6.04,0,0,1-5.705-4.24H.63v2.621A10.188,10.188,0,0,0,9.727,17.2Z" transform="translate(0.469 3.156)"/>
    <path id="Tracciato_3623" data-name="Tracciato 3623" class="cls-4" d="M4.48,11.682a5.743,5.743,0,0,1,0-3.932V5.128H1.087a10.126,10.126,0,0,0,0,9.175Z" transform="translate(0.011 0.427)"/>
    <path id="Tracciato_3624" data-name="Tracciato 3624" class="cls-5" d="M9.7,5.9a5.739,5.739,0,0,1,3.932,1.542h0l2.93-2.93A9.749,9.749,0,0,0,9.772,1.891a10.1,10.1,0,0,0-9.1,5.628l3.392,2.621A5.874,5.874,0,0,1,9.7,5.9Z" transform="translate(0.501 -1.887)"/>
  </g>
</svg>
