<?xml version="1.0" encoding="utf-8"?>
<!-- Generator: Adobe Illustrator 27.8.1, SVG Export Plug-In . SVG Version: 6.00 Build 0)  -->
<svg version="1.1" id="Livello_1" xmlns="http://www.w3.org/2000/svg" xmlns:xlink="http://www.w3.org/1999/xlink" x="0px" y="0px"
	 viewBox="0 0 74 28" style="enable-background:new 0 0 74 28;" xml:space="preserve">
<style type="text/css">
	.st0{opacity:0.49;fill:#FFFFFF;enable-background:new    ;}
	.st1{fill:#C6C6C6;}
	.st2{fill:#FF5A00;}
	.st3{fill:#EB001B;}
	.st4{fill:#F79E1B;}
	.st5{fill:#FFFFFF;}
	.st6{fill:#5F6368;}
	.st7{fill:#4285F4;}
	.st8{fill:#34A853;}
	.st9{fill:#FBBC04;}
	.st10{fill:#EA4335;}
</style>
<g id="Raggruppa_2142" transform="translate(-41 -11)">
	<g transform="matrix(1, 0, 0, 1, 41, 11)">
		<path id="Rettangolo_2260-2" class="st0" d="M3,0h22c1.7,0,3,1.3,3,3v22c0,1.7-1.3,3-3,3H3c-1.7,0-3-1.3-3-3V3C0,1.3,1.3,0,3,0z"
			/>
	</g>
	<g id="Raggruppa_2138" transform="translate(56.182 16.708)">
		<g transform="matrix(1, 0, 0, 1, -15.18, -5.71)">
			<path id="Rettangolo_2253-2" class="st1" d="M18,0h22c1.7,0,3,1.3,3,3v22c0,1.7-1.3,3-3,3H18c-1.7,0-3-1.3-3-3V3
				C15,1.3,16.3,0,18,0z"/>
		</g>
		<g id="Mastercard-logo" transform="translate(12.34 6.155)">
			<path id="XMLID_1775_" d="M-5.2,10.2V9.2c0-0.3-0.2-0.7-0.6-0.7c0,0-0.1,0-0.1,0c-0.2,0-0.5,0.1-0.6,0.3
				c-0.1-0.2-0.3-0.3-0.6-0.3c-0.2,0-0.4,0.1-0.5,0.3V8.5H-8v1.7h0.4v-1c0-0.3,0.2-0.5,0.4-0.5c0.3,0,0.4,0.2,0.4,0.5v1h0.4v-1
				c0-0.2,0.1-0.4,0.3-0.4c0,0,0,0,0.1,0c0.3,0,0.4,0.2,0.4,0.5v1L-5.2,10.2z M0.4,8.5h-0.6V8h-0.4v0.5h-0.3v0.3h0.3v0.8
				c0,0.4,0.2,0.6,0.6,0.6c0.2,0,0.3,0,0.5-0.1L0.4,9.8C0.3,9.9,0.2,9.9,0,9.9c-0.2,0-0.3-0.1-0.3-0.3V8.9h0.6L0.4,8.5L0.4,8.5z
				 M3.6,8.5c-0.2,0-0.4,0.1-0.5,0.3V8.5H2.8v1.7h0.4v-1c0-0.3,0.1-0.5,0.4-0.5c0.1,0,0.2,0,0.2,0l0.1-0.4C3.8,8.5,3.7,8.5,3.6,8.5
				L3.6,8.5z M-1.2,8.7c-0.2-0.1-0.5-0.2-0.7-0.2c-0.4,0-0.7,0.2-0.7,0.6c0,0.3,0.2,0.5,0.6,0.5l0.2,0c0.2,0,0.3,0.1,0.3,0.2
				c0,0.1-0.1,0.2-0.4,0.2c-0.2,0-0.4-0.1-0.6-0.2l-0.2,0.3c0.2,0.1,0.5,0.2,0.7,0.2c0.5,0,0.8-0.2,0.8-0.6c0-0.3-0.2-0.5-0.6-0.5
				l-0.2,0c-0.2,0-0.3-0.1-0.3-0.2c0-0.1,0.1-0.2,0.3-0.2c0.2,0,0.4,0.1,0.5,0.1L-1.2,8.7L-1.2,8.7z M8.8,8.5
				c-0.2,0-0.4,0.1-0.5,0.3V8.5H8v1.7h0.4v-1c0-0.3,0.1-0.5,0.4-0.5c0.1,0,0.2,0,0.2,0l0.1-0.4C9,8.5,8.9,8.5,8.8,8.5L8.8,8.5z
				 M4,9.4c0,0.5,0.4,0.9,0.8,0.9c0,0,0.1,0,0.1,0c0.2,0,0.4-0.1,0.6-0.2L5.3,9.8C5.2,9.9,5,9.9,4.9,9.9c-0.3,0-0.5-0.2-0.5-0.5
				c0,0,0,0,0-0.1c0-0.3,0.2-0.5,0.5-0.6c0,0,0,0,0,0C5,8.8,5.2,8.9,5.3,9l0.2-0.3C5.3,8.5,5.1,8.5,4.9,8.5C4.4,8.4,4,8.8,4,9.4
				C4,9.3,4,9.3,4,9.4L4,9.4z M7.5,9.4V8.5H7.1v0.2C7,8.6,6.8,8.5,6.5,8.5c-0.5,0-0.9,0.4-0.9,0.9c0,0.5,0.4,0.9,0.9,0.9
				c0.2,0,0.4-0.1,0.5-0.3v0.2h0.4L7.5,9.4L7.5,9.4z M6.1,9.4c0-0.3,0.2-0.5,0.5-0.6c0.3,0,0.5,0.2,0.6,0.5c0,0,0,0,0,0.1
				c0,0.3-0.2,0.5-0.5,0.6C6.3,9.9,6.1,9.7,6.1,9.4C6.1,9.4,6.1,9.4,6.1,9.4z M1.6,8.5c-0.5,0-0.9,0.4-0.9,0.9
				c0,0.5,0.4,0.9,0.9,0.9c0.3,0,0.5-0.1,0.7-0.2L2.1,9.8C2,9.9,1.8,9.9,1.6,9.9c-0.3,0-0.5-0.2-0.5-0.4h1.3V9.4
				C2.4,9,2.1,8.5,1.7,8.5C1.6,8.5,1.6,8.5,1.6,8.5L1.6,8.5z M1.6,8.8C1.8,8.8,2,9,2,9.2c0,0,0,0,0,0H1.1C1.1,9,1.3,8.8,1.6,8.8z
				 M11,9.4V7.8h-0.4v0.9c-0.1-0.2-0.3-0.3-0.5-0.3c-0.5,0-0.9,0.4-0.9,0.9c0,0.5,0.4,0.9,0.9,0.9c0.2,0,0.4-0.1,0.5-0.3v0.2H11V9.4
				z M9.6,9.4c0-0.3,0.2-0.5,0.5-0.6c0.3,0,0.5,0.2,0.6,0.5c0,0,0,0,0,0.1c0,0.3-0.2,0.5-0.5,0.6C9.8,9.9,9.6,9.7,9.6,9.4
				C9.6,9.4,9.6,9.4,9.6,9.4z M-3.1,9.4V8.5h-0.4v0.2C-3.6,8.6-3.8,8.5-4,8.5c-0.5,0-0.9,0.4-0.9,0.9c0,0.5,0.4,0.9,0.9,0.9
				c0.2,0,0.4-0.1,0.5-0.3v0.2h0.4L-3.1,9.4L-3.1,9.4z M-4.5,9.4c0-0.3,0.2-0.5,0.5-0.6c0.3,0,0.5,0.2,0.6,0.5c0,0,0,0,0,0.1
				c0,0.3-0.2,0.5-0.5,0.6C-4.2,9.9-4.5,9.7-4.5,9.4C-4.5,9.4-4.5,9.4-4.5,9.4z"/>
			<g id="Raggruppa_2135">
				<rect id="rect19" x="-1.4" y="-4.6" class="st2" width="5.7" height="10.2"/>
				<path id="XMLID_330_" class="st3" d="M-1,0.5c0-2,0.9-3.9,2.5-5.1c-2.8-2.2-6.9-1.7-9.1,1.1s-1.7,6.9,1.1,9.1
					C-5.4,6.5-4,7-2.5,7c1.5,0,2.9-0.5,4-1.4C-0.1,4.3-1,2.5-1,0.5z"/>
				<path id="path22" class="st4" d="M12,0.5C12,4.1,9.1,7,5.5,7C4,7,2.6,6.5,1.5,5.6c2.8-2.2,3.3-6.3,1.1-9.1
					C2.2-3.9,1.9-4.3,1.5-4.6c2.8-2.2,6.9-1.7,9.1,1.1C11.5-2.4,12-1,12,0.5z"/>
			</g>
		</g>
	</g>
	<g id="Raggruppa_2136" transform="translate(76.707 16.708)">
		<g transform="matrix(1, 0, 0, 1, -35.71, -5.71)">
			<path id="Rettangolo_2255-2" class="st5" d="M33,0h22c1.7,0,3,1.3,3,3v22c0,1.7-1.3,3-3,3H33c-1.7,0-3-1.3-3-3V3
				C30,1.3,31.3,0,33,0z"/>
		</g>
		<g id="Google_Pay_Logo" transform="translate(5.382 10.353)">
			<path id="Tracciato_3618" class="st6" d="M2.3-1.4v2.8H1.4v-6.8h2.3c0.6,0,1.1,0.2,1.5,0.6C5.6-4.5,5.8-4,5.8-3.4
				c0,0.6-0.2,1.1-0.6,1.5c-0.4,0.4-1,0.6-1.5,0.6L2.3-1.4L2.3-1.4z M2.3-4.6v2.4h1.5c0.7,0,1.2-0.5,1.2-1.2C5-3.7,4.8-4,4.6-4.2
				l0,0C4.4-4.5,4.1-4.6,3.7-4.6L2.3-4.6z"/>
			<path id="Tracciato_3619" class="st6" d="M7.9-3.4c0.6,0,1.1,0.2,1.5,0.5C9.8-2.5,10-2,10-1.5v2.9H9.2V0.7h0
				C8.8,1.2,8.3,1.5,7.7,1.5c-0.5,0-0.9-0.1-1.3-0.4C6,0.8,5.8,0.4,5.8-0.1C5.8-0.5,6-1,6.4-1.2c0.4-0.3,0.9-0.5,1.5-0.4
				c0.4,0,0.9,0.1,1.3,0.3v-0.2c0-0.3-0.1-0.6-0.4-0.8C8.2-2.8,7.3-2.8,6.8-2.2c0,0-0.1,0.1-0.1,0.2L6-2.5C6.4-3.1,7.1-3.5,7.9-3.4z
				 M6.8,0c0,0.2,0.1,0.4,0.3,0.6c0.2,0.1,0.4,0.2,0.7,0.2c0.4,0,0.7-0.2,1-0.4c0.3-0.2,0.4-0.6,0.4-1C8.8-0.8,8.4-1,8-0.9
				c-0.3,0-0.6,0.1-0.9,0.3C6.9-0.5,6.7-0.3,6.8,0z"/>
			<path id="Tracciato_3620" class="st6" d="M14.8-3.3l-2.9,6.8H11l1.1-2.4l-1.9-4.4h1l1.4,3.4h0l1.4-3.4L14.8-3.3L14.8-3.3z"/>
			<path id="Tracciato_3621" class="st7" d="M-1.3-2c0-0.3,0-0.5-0.1-0.8h-3.7v1.5h2.1C-3-0.8-3.3-0.3-3.7-0.1v1h1.3
				C-1.7,0.2-1.2-0.9-1.3-2z"/>
			<path id="Tracciato_3622" class="st8" d="M-5.1,1.9c1,0,1.9-0.3,2.6-1l-1.3-1c-0.4,0.3-0.9,0.4-1.3,0.4c-1,0-1.9-0.7-2.2-1.6
				h-1.3v1C-7.9,1-6.6,1.9-5.1,1.9z"/>
			<path id="Tracciato_3623" class="st9" d="M-7.3-1.3c-0.2-0.5-0.2-1,0-1.5v-1h-1.3c-0.6,1.1-0.6,2.4,0,3.5L-7.3-1.3z"/>
			<path id="Tracciato_3624" class="st10" d="M-5.1-4.4c0.6,0,1.1,0.2,1.5,0.6l0,0L-2.4-5C-3.1-5.6-4.1-6-5-6
				c-1.5,0-2.9,0.8-3.5,2.2l1.3,1C-7-3.8-6.1-4.4-5.1-4.4z"/>
		</g>
	</g>
	<g id="Raggruppa_2140" transform="translate(-212)">
		<g transform="matrix(1, 0, 0, 1, 253, 11)">
			<path id="Rettangolo_2259-2" class="st5" d="M48,0h23c1.7,0,3,1.3,3,3v22c0,1.7-1.3,3-3,3H48c-1.7,0-3-1.3-3-3V3
				C45,1.3,46.3,0,48,0z"/>
		</g>
		<g id="Gruppo_di_maschere_802" transform="translate(307.233 16.708)">
			<g transform="matrix(1, 0, 0, 1, -54.23, -5.71)">
				<path id="Rettangolo_2258-2" class="st5" d="M48,0h23c1.7,0,3,1.3,3,3v22c0,1.7-1.3,3-3,3H48c-1.7,0-3-1.3-3-3V3
					C45,1.3,46.3,0,48,0z"/>
			</g>
			<path id="XMLID_34_" d="M-2.1,5.8c-0.3,0.3-0.7,0.5-1.1,0.5c0-0.4,0.1-0.9,0.4-1.2c0.3-0.3,0.7-0.5,1.1-0.6
				C-1.6,5-1.8,5.4-2.1,5.8 M-1.7,6.4c-0.6,0-1.2,0.4-1.5,0.4s-0.8-0.3-1.3-0.3c-0.7,0-1.3,0.4-1.6,1c-0.5,1.3-0.3,2.7,0.5,3.8
				c0.3,0.5,0.7,1,1.2,1c0.5,0,0.7-0.3,1.2-0.3s0.7,0.3,1.3,0.3c0.5,0,0.9-0.5,1.2-0.9c0.2-0.3,0.4-0.7,0.5-1.1
				c-0.6-0.3-1-0.9-1-1.6c0-0.6,0.3-1.1,0.8-1.5C-0.6,6.7-1.1,6.4-1.7,6.4 M2,5.1v7H3V9.7h1.5c1.2,0.1,2.3-0.9,2.3-2.1
				c0-0.1,0-0.1,0-0.2C7,6.2,6,5.2,4.8,5.1c-0.1,0-0.1,0-0.2,0H2z M3,6h1.3C5,5.9,5.7,6.4,5.8,7.1c0,0.1,0,0.2,0,0.3
				c0.1,0.7-0.5,1.4-1.2,1.4c-0.1,0-0.2,0-0.3,0H3V6z M8.9,12.2c0.7,0,1.3-0.3,1.6-0.9h0v0.8h1V8.6c0-1-0.8-1.7-2.1-1.7
				c-1-0.1-1.9,0.6-2,1.6h1c0.1-0.5,0.6-0.8,1-0.7c0.7,0,1,0.3,1,0.9v0.4L9.1,9.2c-1.3,0.1-1.9,0.6-1.9,1.5c0,0.9,0.7,1.5,1.6,1.5
				C8.8,12.2,8.8,12.2,8.9,12.2z M9.2,11.3c-0.6,0-1-0.3-1-0.7s0.4-0.7,1-0.7l1.2-0.1v0.4C10.5,10.9,9.9,11.4,9.2,11.3
				C9.2,11.3,9.2,11.3,9.2,11.3L9.2,11.3z M12.9,14c1.1,0,1.6-0.4,2-1.6L16.8,7h-1.1l-1.3,4.1h0L13.1,7H12l1.8,5.1l-0.1,0.3
				c-0.1,0.4-0.5,0.8-0.9,0.7c-0.1,0-0.3,0-0.3,0V14C12.6,14,12.7,14,12.9,14L12.9,14z"/>
		</g>
	</g>
</g>
</svg>
