<svg xmlns="http://www.w3.org/2000/svg" width="66.052" height="17.511" viewBox="0 0 66.052 17.511">
  <defs>
    <style>
      .cls-1 {
        fill: #003087;
      }

      .cls-2 {
        fill: #0070e0;
      }

      .cls-3 {
        fill: #001c64;
      }
    </style>
  </defs>
  <g id="PayPal_logo" data-name="PayPal logo" transform="translate(936.898 -21.779)">
    <path id="Tracciato_3630" data-name="Tracciato 3630" class="cls-1" d="M-836.237,39.734a.276.276,0,0,0-.273.233l-1.574,9.979a.256.256,0,0,0,.058.206.256.256,0,0,0,.194.089h1.866a.276.276,0,0,0,.273-.233l.462-2.93a.276.276,0,0,1,.273-.233h1.7a4.024,4.024,0,0,0,3.972-3.406,3.264,3.264,0,0,0-3.423-3.7Zm1.814,2.228h1.357c1.117,0,1.481.659,1.366,1.389a1.559,1.559,0,0,1-1.761,1.269h-1.382Zm8.93.678a4.245,4.245,0,0,0-1.622.352,4.238,4.238,0,0,0-2.352,2.662s-.906,2.675,1.141,4.145a3.5,3.5,0,0,0,4.037-.087l-.037.235a.255.255,0,0,0,.058.205.255.255,0,0,0,.194.09h1.771a.276.276,0,0,0,.273-.233l1.078-6.834a.255.255,0,0,0-.058-.206.255.255,0,0,0-.194-.09h-1.772a.276.276,0,0,0-.273.233l-.058.368a3.077,3.077,0,0,0-2.188-.84Zm.058,2.158a1.815,1.815,0,0,1,.557.082,1.567,1.567,0,0,1,1.072,1.776,1.984,1.984,0,0,1-1.989,1.7,1.818,1.818,0,0,1-.557-.082,1.569,1.569,0,0,1-1.075-1.776,1.987,1.987,0,0,1,1.992-1.7Z" transform="translate(-79.54 -14.453)"/>
    <path id="Tracciato_3631" data-name="Tracciato 3631" class="cls-2" d="M-705.437,39.734a.276.276,0,0,0-.273.233l-1.574,9.979a.256.256,0,0,0,.058.206.256.256,0,0,0,.194.089h1.866a.276.276,0,0,0,.273-.233l.462-2.93a.276.276,0,0,1,.273-.233h1.7a4.023,4.023,0,0,0,3.972-3.406,3.264,3.264,0,0,0-3.422-3.7Zm1.814,2.228h1.357c1.118,0,1.481.659,1.366,1.389a1.559,1.559,0,0,1-1.761,1.269h-1.382Zm8.93.678a4.245,4.245,0,0,0-1.622.352,4.238,4.238,0,0,0-2.351,2.662s-.906,2.675,1.142,4.145a3.5,3.5,0,0,0,4.036-.087l-.037.235a.255.255,0,0,0,.058.206.255.255,0,0,0,.194.089h1.771a.276.276,0,0,0,.273-.233l1.078-6.834a.255.255,0,0,0-.058-.206.256.256,0,0,0-.194-.09h-1.771a.276.276,0,0,0-.273.233l-.058.368a3.076,3.076,0,0,0-2.187-.84Zm.058,2.158a1.815,1.815,0,0,1,.556.082,1.567,1.567,0,0,1,1.072,1.776,1.984,1.984,0,0,1-1.989,1.7,1.818,1.818,0,0,1-.557-.082,1.569,1.569,0,0,1-1.075-1.776,1.987,1.987,0,0,1,1.992-1.7Z" transform="translate(-184.83 -14.453)"/>
    <path id="Tracciato_3632" data-name="Tracciato 3632" class="cls-1" d="M-746.776,55.858a.207.207,0,0,0-.2.271l1.942,6.027L-746.787,65a.207.207,0,0,0,.176.316h2.076a.345.345,0,0,0,.3-.167l5.424-8.973a.207.207,0,0,0-.177-.314h-2.075a.345.345,0,0,0-.3.169l-2.135,3.6-1.084-3.578a.276.276,0,0,0-.264-.2Z" transform="translate(-152.875 -27.432)"/>
    <path id="Tracciato_3633" data-name="Tracciato 3633" class="cls-2" d="M-616.741,39.734a.276.276,0,0,0-.273.233l-1.574,9.979a.256.256,0,0,0,.058.206.256.256,0,0,0,.194.09h1.866a.276.276,0,0,0,.273-.233l1.573-9.979a.255.255,0,0,0-.058-.206.256.256,0,0,0-.194-.09Z" transform="translate(-256.226 -14.453)"/>
    <path id="Tracciato_3634" data-name="Tracciato 3634" class="cls-3" d="M-913.846,39.734a.505.505,0,0,0-.5.426l-.828,5.253a.5.5,0,0,1,.5-.426h2.427a4.957,4.957,0,0,0,4.894-4.2,4.061,4.061,0,0,0,.048-.545,4.607,4.607,0,0,0-2.149-.512Z" transform="translate(-17.488 -14.453)"/>
    <path id="Tracciato_3635" data-name="Tracciato 3635" class="cls-2" d="M-912.438,42.359a4.012,4.012,0,0,1-.048.545,4.957,4.957,0,0,1-4.894,4.2h-2.427a.5.5,0,0,0-.5.426l-.762,4.827-.477,3.028a.409.409,0,0,0,.093.33.41.41,0,0,0,.312.144h2.634a.505.505,0,0,0,.5-.426l.694-4.4a.505.505,0,0,1,.5-.426h1.551a4.957,4.957,0,0,0,4.894-4.2,3.848,3.848,0,0,0-2.07-4.047Z" transform="translate(-12.355 -16.566)"/>
    <path id="Tracciato_3636" data-name="Tracciato 3636" class="cls-1" d="M-934.327,21.779a.5.5,0,0,0-.5.426l-2.067,13.109a.41.41,0,0,0,.405.474h3.066l.761-4.827.828-5.253a.505.505,0,0,1,.5-.426h4.392a4.609,4.609,0,0,1,2.149.512,4.046,4.046,0,0,0-4.266-4.014Z" transform="translate(0)"/>
  </g>
</svg>
