<svg width="337" height="200" viewBox="0 0 337 200" fill="none" xmlns="http://www.w3.org/2000/svg">
<g clip-path="url(#clip0_1372_130727)">
<path d="M332 0H5C2.23858 0 0 2.23857 0 5V195C0 197.761 2.23857 200 5 200H332C334.761 200 337 197.761 337 195V5C337 2.23858 334.761 0 332 0Z" fill="#4F85EE"/>
<path d="M282.999 122.722C282.999 114.591 289.591 107.999 297.722 107.999C305.854 107.999 312.445 114.591 312.445 122.722C312.445 130.854 305.854 137.445 297.722 137.445C289.591 137.445 282.999 130.854 282.999 122.722Z" fill="white" stroke="black" stroke-miterlimit="10" stroke-linecap="round" stroke-linejoin="round"/>
<path d="M298.379 0L297.985 108" stroke="black" stroke-miterlimit="10" stroke-linecap="round" stroke-linejoin="round"/>
<path d="M298.377 98C280.496 98 266 108.879 266 122.298H330.754C330.754 108.879 316.259 98 298.377 98Z" fill="black"/>
<path d="M116.172 221.989C115.652 221.989 115.108 221.989 114.564 221.95V221.533C115.113 221.561 115.666 221.572 116.191 221.572H116.446V221.989H116.158H116.172ZM118.835 221.889L118.811 221.472C119.44 221.422 120.069 221.355 120.703 221.266L120.745 221.683C120.107 221.766 119.468 221.839 118.835 221.889ZM112.214 221.772C111.599 221.705 110.961 221.627 110.322 221.533L110.365 221.116C110.998 221.211 111.627 221.294 112.256 221.355L112.214 221.772ZM123.091 221.249L123.02 220.844C123.64 220.699 124.254 220.538 124.855 220.355L124.945 220.76C124.325 220.944 123.701 221.111 123.077 221.249H123.091ZM107.957 221.116C107.338 220.988 106.709 220.849 106.094 220.699L106.165 220.294C106.78 220.444 107.404 220.583 108.019 220.705L107.957 221.116ZM103.767 220.077C103.148 219.899 102.533 219.705 101.932 219.521L102.027 219.121C102.623 219.321 103.238 219.516 103.852 219.677L103.767 220.077ZM127.191 219.944L127.073 219.549C127.669 219.304 128.255 219.032 128.823 218.743L128.965 219.121C128.407 219.416 127.811 219.716 127.206 219.944H127.191ZM99.6624 218.676C98.5321 218.237 97.8747 217.921 97.8652 217.921L98.0024 217.532C98.0024 217.532 98.655 217.843 99.7759 218.282L99.6624 218.676ZM131.098 217.882L130.923 217.515C131.467 217.159 132.006 216.77 132.526 216.365L132.72 216.715C132.209 217.126 131.67 217.493 131.112 217.882H131.098ZM134.645 215.075L134.427 214.747C134.928 214.292 135.42 213.825 135.888 213.353L136.12 213.669C135.661 214.158 135.165 214.62 134.659 215.075H134.645ZM137.87 211.785L137.624 211.485C138.069 210.969 138.508 210.435 138.929 209.896L139.189 210.179C138.764 210.724 138.338 211.263 137.884 211.785H137.87ZM140.731 208.051L140.452 207.795C140.845 207.24 141.223 206.617 141.578 206.023L141.871 206.262C141.521 206.867 141.128 207.49 140.745 208.045L140.731 208.051ZM143.162 203.922L142.859 203.705C143.186 203.072 143.493 202.422 143.782 201.777L144.094 201.971C143.819 202.622 143.493 203.277 143.176 203.922H143.162ZM145.115 199.448L144.794 199.282C145.035 198.62 145.267 197.926 145.489 197.231L145.825 197.376C145.617 198.081 145.385 198.776 145.129 199.448H145.115ZM146.558 194.719L146.217 194.603C146.392 193.902 146.548 193.18 146.69 192.463L147.035 192.557C146.908 193.28 146.747 194.008 146.572 194.708L146.558 194.719ZM147.475 189.812L147.125 189.746C147.22 189.023 147.295 188.284 147.357 187.556L147.707 187.595C147.664 188.334 147.584 189.079 147.489 189.812H147.475ZM147.854 184.811H147.499C147.499 184.488 147.499 184.166 147.499 183.844C147.499 183.427 147.499 183.01 147.499 182.599H147.854C147.854 183.016 147.854 183.433 147.854 183.855C147.877 184.149 147.872 184.477 147.868 184.805L147.854 184.811ZM149.636 184.327C149.381 184.327 149.13 184.327 148.875 184.327V183.91C149.497 183.952 150.121 183.952 150.743 183.91L150.767 184.327C150.421 184.305 150.034 184.322 149.641 184.322L149.636 184.327ZM146.506 183.994C145.879 183.86 145.258 183.688 144.647 183.477L144.746 183.077C145.345 183.283 145.953 183.452 146.567 183.583L146.506 183.994ZM153.15 183.899L153.079 183.494C153.69 183.35 154.293 183.165 154.886 182.938L154.995 183.332C154.394 183.561 153.783 183.748 153.164 183.894L153.15 183.899ZM142.424 182.482C141.844 182.174 141.278 181.827 140.731 181.443L140.911 181.087C141.448 181.461 142.002 181.798 142.571 182.099L142.424 182.482ZM157.213 182.221L157.057 181.849C157.613 181.514 158.153 181.143 158.674 180.737L158.868 181.082C158.334 181.502 157.779 181.886 157.208 182.232L157.213 182.221ZM138.769 179.848C138.456 179.554 138.144 179.237 137.846 178.909C137.676 178.72 137.511 178.531 137.373 178.353L137.624 178.059C137.78 178.248 137.941 178.431 138.097 178.614C138.39 178.937 138.693 179.242 139 179.537L138.769 179.848ZM147.347 179.815C147.277 179.076 147.187 178.342 147.083 177.631L147.433 177.559C147.541 178.281 147.631 179.026 147.697 179.781L147.347 179.815ZM160.769 179.387L160.533 179.076C161.002 178.59 161.447 178.075 161.866 177.531L162.126 177.814C161.698 178.371 161.243 178.9 160.764 179.398L160.769 179.387ZM135.851 176.147C135.497 175.521 135.205 174.85 134.98 174.146L135.312 174.007C135.524 174.687 135.8 175.338 136.134 175.947L135.851 176.147ZM163.616 175.591L163.323 175.352C163.592 174.908 163.848 174.435 164.089 173.963C164.169 173.807 164.25 173.652 164.326 173.491L164.633 173.696C164.553 173.857 164.477 174.019 164.396 174.174C164.146 174.702 163.881 175.174 163.611 175.63L163.616 175.591ZM146.591 174.908C146.421 174.174 146.231 173.468 146.023 172.807L146.359 172.663C146.567 173.335 146.761 174.052 146.931 174.797L146.591 174.908ZM134.947 171.368H134.593C134.615 170.603 134.756 169.85 135.009 169.145L135.335 169.306C135.102 169.961 134.971 170.659 134.947 171.368ZM165.688 171.257L165.366 171.095C165.602 170.44 165.839 169.745 166.042 169.039L166.378 169.173C166.16 169.867 165.929 170.568 165.683 171.229L165.688 171.257ZM145.054 170.367C144.761 169.726 144.42 169.118 144.032 168.55L144.307 168.283C144.708 168.872 145.063 169.503 145.366 170.167L145.054 170.367ZM136.697 167.172L136.48 166.85C136.991 166.366 137.579 166.007 138.211 165.794L138.305 166.194C137.72 166.383 137.172 166.706 136.692 167.144L136.697 167.172ZM142.278 166.828C141.745 166.474 141.167 166.225 140.566 166.088L140.632 165.677C141.271 165.825 141.885 166.092 142.453 166.466L142.278 166.828ZM167.068 166.5L166.723 166.394C166.875 165.733 167.021 165.027 167.173 164.243L167.518 164.332C167.362 165.099 167.215 165.811 167.064 166.472L167.068 166.5ZM168.014 161.609L167.664 161.526L168.029 159.347L168.374 159.425L168.014 161.609ZM168.856 156.713L168.511 156.619C168.662 155.819 168.814 155.107 168.984 154.452L169.324 154.563C169.14 155.185 168.989 155.891 168.837 156.686L168.856 156.713ZM170.038 151.94L169.707 151.795C169.919 151.078 170.167 150.377 170.45 149.695L170.767 149.884C170.486 150.545 170.237 151.224 170.02 151.917L170.038 151.94ZM172.011 147.599L171.722 147.349C172.1 146.746 172.512 146.175 172.956 145.638L173.207 145.927C172.771 146.442 172.365 146.992 171.992 147.572L172.011 147.599ZM174.966 144.137L174.754 143.798C175.269 143.359 175.804 142.953 176.357 142.581L176.532 142.948C175.983 143.306 175.454 143.703 174.947 144.137H174.966ZM178.632 141.742L178.49 141.359C178.986 141.114 179.511 140.881 180.055 140.664L180.169 141.059C179.615 141.242 179.1 141.47 178.613 141.714L178.632 141.742Z" fill="#263238"/>
<path d="M179.061 132.161L175.443 143.842L183.043 136.868L212.09 124.492L179.061 132.161Z" fill="#FFC727"/>
<path opacity="0.1" d="M179.061 132.161L175.443 143.842L183.043 136.868L212.09 124.492L179.061 132.161Z" fill="black"/>
<path d="M184.018 139.59L175.443 143.842L183.043 136.867L184.018 139.59Z" fill="#263238"/>
<path d="M183.043 136.868L212.09 124.492L188.264 151.812L183.043 136.868Z" fill="#FFC727"/>
<path d="M179.063 132.158L166.994 123L212.092 124.489L179.063 132.158Z" fill="#FFC727"/>
<path d="M214.577 162.938L214.467 162.554C214.757 162.435 215.051 162.327 215.346 162.219L215.447 162.603L214.577 162.938Z" fill="#263238"/>
<path d="M170.947 206.648L170.873 206.248C171.481 206.102 172.083 205.924 172.668 205.707L172.76 206.097C172.171 206.318 171.559 206.497 170.947 206.648ZM174.974 205.237L174.849 204.858C175.415 204.599 175.986 204.318 176.538 203.993L176.686 204.361C176.124 204.68 175.549 204.972 174.974 205.237ZM178.743 203.074L178.563 202.728C179.083 202.36 179.603 201.96 180.11 201.543L180.307 201.873C179.792 202.279 179.267 202.679 178.743 203.052V203.074ZM182.162 200.208L181.941 199.894C182.401 199.445 182.862 198.958 183.322 198.455L183.557 198.753C183.101 199.24 182.632 199.726 182.162 200.186V200.208ZM185.232 196.822L184.979 196.541C185.393 196.038 185.812 195.497 186.235 194.919L186.493 195.189C186.069 195.746 185.646 196.292 185.232 196.801V196.822ZM187.993 193.112L187.726 192.853C188.117 192.312 188.499 191.723 188.881 191.144L189.153 191.393C188.775 191.955 188.39 192.521 187.998 193.091L187.993 193.112ZM190.561 189.208L190.285 188.97L191.39 187.207L191.666 187.445L190.561 189.208ZM193.032 185.228L192.752 184.99L193.852 183.216L194.128 183.454L193.032 185.228ZM195.513 181.231L195.237 180.988C195.61 180.404 195.987 179.82 196.369 179.241L196.641 179.49C196.259 180.069 195.886 180.647 195.513 181.231ZM198.086 177.354L197.819 177.094C198.215 176.553 198.615 175.969 199.025 175.418L199.282 175.683C198.877 176.234 198.477 176.791 198.086 177.354ZM200.847 173.66L200.594 173.384C201.031 172.844 201.473 172.303 201.905 171.816L202.149 172.108C201.712 172.579 201.27 173.119 200.842 173.66H200.847ZM203.852 170.264L203.627 169.956C204.087 169.469 204.589 168.999 205.067 168.561L205.283 168.88C204.796 169.334 204.335 169.777 203.848 170.264H203.852ZM207.152 167.279L206.959 166.944C207.474 166.533 208.003 166.132 208.533 165.765L208.712 166.111C208.183 166.479 207.658 166.873 207.147 167.279H207.152ZM210.737 164.813L210.585 164.451C211.137 164.126 211.713 163.818 212.283 163.531L212.417 163.904C211.846 164.186 211.285 164.494 210.732 164.813H210.737Z" fill="#263238"/>
<path d="M218.92 155.555L215.395 162.412L220.936 159.114L240.61 155.539L218.92 155.555Z" fill="#FFC727"/>
<path opacity="0.1" d="M218.92 155.555L215.395 162.412L220.936 159.114L240.61 155.539L218.92 155.555Z" fill="black"/>
<path d="M221.267 160.979L215.395 162.412L220.936 159.113L221.267 160.979Z" fill="#263238"/>
<path d="M220.936 159.114L240.61 155.539L222.652 169.324L220.936 159.114Z" fill="#FFC727"/>
<path d="M218.923 155.555L212.264 148L240.613 155.539L218.923 155.555Z" fill="#FFC727"/>
</g>
<defs>
<clipPath id="clip0_1372_130727">
<rect width="337" height="200" fill="white"/>
</clipPath>
</defs>
</svg>
