<svg width="320" height="230" viewBox="0 0 320 230" fill="none" xmlns="http://www.w3.org/2000/svg">
<path d="M207.639 86.482V110.429C207.674 112.484 208.518 114.442 209.987 115.879C211.456 117.317 213.432 118.118 215.487 118.109H301.341C302.373 118.111 303.395 117.91 304.349 117.517C305.302 117.124 306.169 116.546 306.9 115.818C307.63 115.09 308.21 114.224 308.605 113.272C309.001 112.319 309.205 111.298 309.206 110.266V90.0232L319.895 78.7911L215.498 78.4652C214.454 78.4687 213.42 78.6795 212.458 79.0856C211.496 79.4917 210.624 80.0848 209.893 80.8306C209.161 81.5765 208.586 82.4601 208.199 83.4302C207.812 84.4003 207.622 85.4377 207.639 86.482Z" fill="#565656"/>
<path d="M296.529 92.9775L218.594 92.6136L218.605 90.2184L296.534 90.5823L296.529 92.9775Z" fill="#FAFAFA"/>
<path d="M296.529 100.858L218.594 100.494L218.605 98.0986L296.534 98.4625L296.529 100.858Z" fill="#FAFAFA"/>
<path d="M265.695 105.99L265.684 108.386L296.517 108.536L296.529 106.141L265.695 105.99Z" fill="#FAFAFA"/>
<path d="M61.2468 208.563C73.2556 200.172 75.9768 184.6 75.5042 170.598C75.4228 168.262 75.6781 165.796 74.57 163.749C73.462 161.701 70.8658 160.294 68.7693 161.283C67.0367 162.097 66.2817 164.118 65.3095 165.785C64.013 168.012 62.1131 169.828 59.8292 171.021C58.341 171.792 56.4998 172.265 55.0333 171.456C53.0128 170.342 52.7793 167.556 52.7901 165.231L52.8716 152.239C52.8716 149.915 52.8716 147.541 52.1709 145.336C51.4703 143.131 49.8517 141.083 47.6412 140.448C45.4306 139.812 42.6986 141.1 42.2097 143.375C42.0142 144.32 42.2097 145.304 42.1391 146.27C42.0685 147.237 41.6286 148.302 40.7107 148.573C39.7928 148.845 38.8531 148.188 38.1579 147.487C35.7572 145.141 34.1333 142.121 32.6125 139.112C31.0917 136.103 29.6143 133.029 27.4363 130.47C25.2583 127.912 22.2493 125.881 18.9199 125.691C15.5904 125.501 12.0437 127.559 11.2073 130.829C10.3709 134.099 12.2936 137.428 14.3521 140.062C17.4369 144.005 21.0755 147.481 25.1552 150.382C25.8884 150.925 26.6814 151.468 26.9638 152.321C27.4635 153.874 25.997 155.411 24.4708 155.922C22.7382 156.498 20.8535 156.318 19.0394 156.53C17.2253 156.742 15.2374 157.546 14.5802 159.246C13.6243 161.619 15.6122 164.134 17.5675 165.764C21.4845 169.033 25.9342 171.605 30.7223 173.368C32.4278 173.992 34.231 174.541 35.6106 175.741C36.9902 176.941 37.8212 179.033 36.9902 180.667C36.1592 182.302 34.0192 182.84 32.2268 182.498C30.4345 182.156 28.8376 181.194 27.1267 180.553C23.9331 179.348 19.8106 179.565 17.763 182.329C16.4215 184.143 16.302 186.675 16.9809 188.847C17.6598 191.02 19.0394 192.872 20.5059 194.588C25.6223 200.595 32.1779 205.451 39.5864 207.998C46.9948 210.546 53.8601 211.257 61.2251 208.574" fill="#565656"/>
<path d="M61.4275 218.938C60.7766 212.447 59.5034 206.034 57.6255 199.787C55.3036 192.16 52.5435 184.674 49.3589 177.366C48.5297 175.414 47.7077 173.491 46.893 171.598C46.0783 169.707 45.2636 167.834 44.3674 166.047C42.628 162.624 40.7006 159.3 38.5938 156.091C36.6005 153.011 34.6018 150.16 32.7062 147.509C30.8106 144.859 28.9965 142.431 27.2748 140.28C24.5321 136.876 21.5226 133.696 18.275 130.77C17.1289 129.732 16.211 128.956 15.5593 128.44L14.826 127.848C14.7491 127.778 14.6654 127.716 14.5762 127.663C14.6443 127.741 14.7188 127.814 14.7989 127.88L15.4886 128.499C16.097 129.043 16.9986 129.83 18.1229 130.884C21.3187 133.851 24.2872 137.053 27.0032 140.465C28.7304 142.637 30.5282 145.054 32.4075 147.71C34.2867 150.366 36.2746 153.218 38.2517 156.297C40.3434 159.502 42.2581 162.818 43.9872 166.231C44.8834 168.007 45.6818 169.865 46.4965 171.761L48.9624 177.523C52.1385 184.818 54.9038 192.286 57.2453 199.89C59.1301 206.111 60.4267 212.496 61.1179 218.959" fill="#FAFAFA"/>
<path d="M44.2472 166.03C44.3616 165.711 44.4381 165.379 44.4753 165.042C44.6002 164.401 44.7415 163.461 44.9044 162.326C45.2357 160.012 45.5779 156.802 45.9472 153.261C46.3166 149.72 46.7022 146.52 47.0661 144.218C47.2453 143.066 47.3974 142.137 47.5115 141.502C47.5923 141.173 47.636 140.836 47.6418 140.497C47.5089 140.809 47.4105 141.135 47.3485 141.469C47.1856 142.099 46.9846 143.028 46.7674 144.185C46.3274 146.482 45.8875 149.687 45.5236 153.239L44.6057 162.31C44.4916 163.396 44.3884 164.319 44.3124 165.058C44.2574 165.379 44.2355 165.705 44.2472 166.03Z" fill="#FAFAFA"/>
<path d="M14.3682 160.435C14.7588 160.523 15.1574 160.57 15.5576 160.576C16.3235 160.647 17.4369 160.739 18.8165 160.897C21.5322 161.195 25.3342 161.733 29.4512 162.526C33.5682 163.319 37.2887 164.183 39.9501 164.889C41.2808 165.236 42.3562 165.541 43.1003 165.752C43.4785 165.881 43.8675 165.976 44.2626 166.035C43.9149 165.853 43.5513 165.704 43.1763 165.589C42.4431 165.334 41.384 164.981 40.0533 164.596C37.4082 163.813 33.6985 162.89 29.5544 162.103C26.0231 161.421 22.4589 160.923 18.8762 160.609C17.5021 160.489 16.3832 160.441 15.6174 160.43C15.2018 160.391 14.7834 160.393 14.3682 160.435Z" fill="#FAFAFA"/>
<path d="M57.2656 199.238C57.3472 199.125 57.4146 199.003 57.4666 198.874C57.6078 198.58 57.7762 198.222 57.9771 197.787C58.4171 196.842 59.02 195.468 59.7369 193.752C61.1817 190.33 63.0229 185.54 64.9837 180.228C66.9444 174.916 68.7422 170.109 70.1109 166.649L71.7403 162.57C71.9141 162.125 72.0553 161.755 72.1748 161.484C72.2386 161.358 72.2808 161.222 72.2998 161.082C72.2176 161.196 72.1501 161.32 72.0988 161.451C71.9576 161.739 71.7892 162.098 71.5882 162.538C71.1483 163.483 70.5454 164.857 69.8285 166.573C68.3837 169.995 66.5425 174.785 64.5817 180.103C62.621 185.42 60.8232 190.216 59.4545 193.681C58.781 195.359 58.2324 196.739 57.8251 197.76C57.6513 198.206 57.51 198.575 57.3905 198.874C57.3312 198.988 57.2891 199.111 57.2656 199.238Z" fill="#FAFAFA"/>
<path d="M17.541 186.442C17.6667 186.509 17.7998 186.562 17.9375 186.599L19.089 186.99L23.3417 188.365C26.9319 189.532 31.8691 191.194 37.3276 193.041C42.7862 194.888 47.745 196.512 51.3624 197.603C53.1656 198.146 54.6212 198.576 55.6532 198.847L56.8318 199.157C56.9677 199.2 57.108 199.227 57.25 199.238C57.1254 199.167 56.9922 199.112 56.8535 199.075L55.702 198.69L51.4493 197.31C47.8591 196.148 42.9165 194.48 37.4634 192.634C32.0103 190.787 27.046 189.163 23.4287 188.071C21.6254 187.528 20.1698 187.099 19.1378 186.827L17.9755 186.507C17.835 186.463 17.6884 186.441 17.541 186.442Z" fill="#FAFAFA"/>
<path d="M88.9527 61.6979V80.257C88.9527 81.8694 88.3125 83.4159 87.1729 84.5565C86.0332 85.6972 84.4873 86.3387 82.8749 86.3402H16.3294C14.717 86.3387 13.1711 85.6972 12.0314 84.5565C10.8918 83.4159 10.2516 81.8694 10.2516 80.257V64.5765L1.96875 55.8863L82.8586 55.6093C83.659 55.6071 84.452 55.7631 85.192 56.0683C85.932 56.3734 86.6044 56.8217 87.1706 57.3875C87.7369 57.9532 88.1858 58.6252 88.4916 59.3649C88.7974 60.1046 88.9541 60.8975 88.9527 61.6979Z" fill="#FAFAFA"/>
<path d="M20.0611 66.8621L80.4474 66.5851L80.442 64.7275L20.0557 65.0045L20.0611 66.8621Z" fill="#565656"/>
<path d="M20.0611 72.9677L80.4474 72.6907L80.442 70.8331L20.0557 71.1156L20.0611 72.9677Z" fill="#565656"/>
<path d="M43.9393 76.9546L20.0469 77.0714L20.056 78.9289L43.9484 78.8122L43.9393 76.9546Z" fill="#565656"/>
<path d="M56.3496 95.949L56.3496 223.587C56.3496 227.052 59.1582 229.86 62.6229 229.86H251.256C254.72 229.86 257.529 227.052 257.529 223.587V95.949C257.529 92.4844 254.72 89.6757 251.256 89.6757H62.6229C59.1582 89.6757 56.3496 92.4844 56.3496 95.949Z" fill="#263238"/>
<path d="M70.1133 94.0984L70.1133 225.446H238.123V94.0984H70.1133Z" fill="#FAFAFA"/>
<path d="M252.671 161.019C253.351 158.128 251.558 155.233 248.667 154.554C245.776 153.874 242.882 155.667 242.202 158.557C241.523 161.448 243.315 164.343 246.206 165.022C249.097 165.702 251.991 163.909 252.671 161.019Z" fill="#455A64"/>
<path d="M62.1387 139.32V180.219C62.1387 180.585 62.4353 180.881 62.8013 180.881H63.6975C64.0634 180.881 64.3601 180.585 64.3601 180.219V139.32C64.3601 138.954 64.0634 138.658 63.6975 138.658H62.8013C62.4353 138.658 62.1387 138.954 62.1387 139.32Z" fill="#455A64"/>
<path d="M117.773 171.164C121.894 164.902 120.158 156.485 113.896 152.364C107.635 148.243 99.2176 149.979 95.0966 156.241C90.9755 162.502 92.711 170.919 98.9727 175.04C105.235 179.161 113.651 177.426 117.773 171.164Z" fill="#E0B92C"/>
<path opacity="0.3" d="M117.773 171.164C121.894 164.902 120.158 156.485 113.896 152.364C107.635 148.243 99.2176 149.979 95.0966 156.241C90.9755 162.502 92.711 170.919 98.9727 175.04C105.235 179.161 113.651 177.426 117.773 171.164Z" fill="white"/>
<path d="M101.73 160.296C102.24 160.252 102.707 160.839 102.772 161.567C102.838 162.294 102.463 162.941 101.947 162.984C101.431 163.028 100.969 162.441 100.909 161.719C100.85 160.996 101.235 160.339 101.73 160.296Z" fill="#263238"/>
<path d="M110.375 160.116C109.865 160.116 109.419 160.659 109.387 161.43C109.354 162.202 109.751 162.794 110.267 162.815C110.783 162.837 111.228 162.272 111.255 161.507C111.282 160.741 110.891 160.138 110.375 160.116Z" fill="#263238"/>
<path d="M111.859 166.412C111.859 166.569 109.328 166.7 106.211 166.7C103.093 166.7 100.557 166.569 100.557 166.412C100.557 166.254 103.088 166.118 106.211 166.118C109.334 166.118 111.859 166.243 111.859 166.412Z" fill="#263238"/>
<path d="M102.817 158.737C102.784 158.9 102.138 158.895 101.383 159.014C100.628 159.134 100.014 159.329 99.9325 159.188C99.8511 159.047 100.421 158.58 101.296 158.444C102.17 158.308 102.817 158.585 102.817 158.737Z" fill="#263238"/>
<path d="M112.825 159.394C112.727 159.524 112.14 159.22 111.385 158.992C110.63 158.764 109.978 158.682 109.962 158.514C109.946 158.346 110.685 158.166 111.554 158.438C112.423 158.71 112.928 159.28 112.825 159.394Z" fill="#263238"/>
<path d="M218.595 164.811C219.817 157.139 214.588 149.928 206.915 148.706C199.243 147.484 192.032 152.713 190.81 160.385C189.588 168.058 194.817 175.268 202.49 176.49C210.162 177.713 217.373 172.483 218.595 164.811Z" fill="#E0B92C"/>
<path opacity="0.3" d="M218.595 164.811C219.817 157.139 214.588 149.928 206.915 148.706C199.243 147.484 192.032 152.713 190.81 160.385C189.588 168.058 194.817 175.268 202.49 176.49C210.162 177.713 217.373 172.483 218.595 164.811Z" fill="black"/>
<path d="M199.836 159.045C200.379 159.002 200.857 159.588 200.922 160.36C200.987 161.131 200.607 161.788 200.075 161.832C199.543 161.875 199.054 161.288 198.989 160.517C198.924 159.746 199.304 159.089 199.836 159.045Z" fill="#263238"/>
<path d="M208.781 158.863C208.238 158.863 207.787 159.449 207.755 160.22C207.722 160.992 208.135 161.633 208.667 161.654C209.199 161.676 209.661 161.068 209.694 160.296C209.726 159.525 209.319 158.884 208.781 158.863Z" fill="#263238"/>
<path d="M210.318 165.38C210.258 165.456 209.672 165.037 208.689 164.521C207.396 163.846 205.959 163.492 204.501 163.49C203.041 163.554 201.611 163.924 200.302 164.576C199.281 165.075 198.673 165.456 198.624 165.38C198.575 165.304 199.108 164.837 200.112 164.217C201.437 163.417 202.943 162.966 204.49 162.908C206.045 162.904 207.57 163.339 208.89 164.163C209.862 164.782 210.356 165.325 210.318 165.38Z" fill="#263238"/>
<path d="M200.912 157.427C200.961 157.487 200.869 157.666 200.635 157.867C200.329 158.143 199.954 158.331 199.549 158.41C199.137 158.489 198.711 158.441 198.327 158.274C198.039 158.144 197.909 157.992 197.941 157.921C197.974 157.851 198.675 157.992 199.446 157.84C200.217 157.688 200.809 157.297 200.912 157.427Z" fill="#263238"/>
<path d="M211.324 158.112C211.324 158.182 211.194 158.318 210.879 158.416C210.464 158.533 210.024 158.518 209.618 158.372C209.221 158.232 208.864 157.995 208.581 157.683C208.375 157.444 208.299 157.254 208.353 157.199C208.407 157.145 209.043 157.558 209.803 157.824C210.563 158.09 211.27 157.949 211.324 158.112Z" fill="#263238"/>
<path d="M177.731 201.639L180.99 200.026L184.173 201.796L183.64 198.195L186.307 195.719L182.717 195.11L181.185 191.808L179.502 195.034L175.89 195.469L178.432 198.071L177.731 201.639Z" fill="#E0E0E0"/>
<path d="M164.434 201.639L167.693 200.026L170.876 201.796L170.343 198.195L173.01 195.719L169.42 195.11L167.888 191.808L166.205 195.034L162.593 195.469L165.135 198.071L164.434 201.639Z" fill="#E0B92C"/>
<path d="M151.139 201.639L154.398 200.026L157.575 201.796L157.048 198.195L159.715 195.719L156.125 195.11L154.593 191.808L152.91 195.034L149.298 195.469L151.84 198.071L151.139 201.639Z" fill="#E0B92C"/>
<path d="M137.842 201.639L141.101 200.026L144.278 201.796L143.752 198.195L146.418 195.719L142.828 195.11L141.297 191.808L139.613 195.034L136.001 195.469L138.543 198.071L137.842 201.639Z" fill="#E0B92C"/>
<path d="M124.546 201.639L127.805 200.026L130.983 201.796L130.456 198.195L133.123 195.719L129.532 195.11L128.001 191.808L126.317 195.034L122.705 195.469L125.247 198.071L124.546 201.639Z" fill="#E0B92C"/>
<path d="M186.458 121.607C186.458 121.689 171.869 121.754 153.87 121.754C135.87 121.754 121.281 121.689 121.281 121.607C121.281 121.526 135.865 121.466 153.87 121.466C171.875 121.466 186.458 121.531 186.458 121.607Z" fill="#263238"/>
<path d="M170.437 117.698C170.437 117.779 163.235 117.844 154.349 117.844C145.463 117.844 138.256 117.779 138.256 117.698C138.256 117.616 145.458 117.551 154.349 117.551C163.24 117.551 170.437 117.616 170.437 117.698Z" fill="#263238"/>
<path d="M174.309 165.05C177.448 155.309 172.095 144.867 162.354 141.728C152.612 138.589 142.17 143.941 139.031 153.683C135.892 163.425 141.245 173.867 150.987 177.006C160.728 180.145 171.17 174.792 174.309 165.05Z" fill="#E0B92C"/>
<path d="M150.263 154.679C150.964 154.625 151.599 155.396 151.686 156.412C151.773 157.428 151.268 158.291 150.567 158.351C149.867 158.411 149.226 157.634 149.144 156.624C149.063 155.613 149.563 154.739 150.263 154.679Z" fill="#263238"/>
<path d="M162.045 154.462C161.345 154.429 160.736 155.233 160.698 156.249C160.66 157.264 161.192 158.112 161.893 158.139C162.594 158.166 163.202 157.367 163.246 156.352C163.289 155.336 162.751 154.462 162.045 154.462Z" fill="#263238"/>
<path d="M164.066 160.518C164.098 160.551 163.946 160.741 163.648 161.061C163.222 161.52 162.757 161.94 162.257 162.316C161.508 162.877 160.684 163.329 159.808 163.658C158.722 164.065 157.566 164.25 156.408 164.201C155.258 164.14 154.128 163.879 153.067 163.43C152.207 163.082 151.383 162.65 150.607 162.142C149.292 161.262 148.597 160.578 148.635 160.513C148.673 160.448 149.483 161.002 150.808 161.773C151.59 162.218 152.405 162.601 153.247 162.919C154.263 163.314 155.335 163.547 156.424 163.609C157.508 163.655 158.591 163.498 159.618 163.147C160.46 162.854 161.265 162.46 162.013 161.974C162.643 161.539 163.153 161.176 163.485 160.888C163.816 160.6 164.039 160.491 164.066 160.518Z" fill="#263238"/>
<path d="M151.101 150.513C151.069 150.676 150.183 150.616 149.13 150.785C148.076 150.953 147.25 151.274 147.169 151.127C147.087 150.98 147.87 150.394 149.043 150.215C150.216 150.035 151.156 150.361 151.101 150.513Z" fill="#263238"/>
<path d="M166.02 151.377C165.917 151.507 165.135 151.04 164.081 150.725C163.028 150.41 162.121 150.345 162.115 150.182C162.11 150.019 163.087 149.813 164.255 150.182C165.423 150.552 166.124 151.263 166.02 151.377Z" fill="#263238"/>
<path d="M148.939 159.188C149.01 159.188 149.129 159.367 149.145 159.731C149.154 160.191 149.013 160.641 148.743 161.013C148.48 161.393 148.098 161.676 147.657 161.817C147.32 161.915 147.114 161.866 147.087 161.817C147.087 161.654 147.771 161.415 148.26 160.698C148.749 159.981 148.776 159.215 148.939 159.188Z" fill="#263238"/>
<path d="M165.635 160.893C165.635 160.964 165.493 161.078 165.206 161.099C164.827 161.116 164.455 161.001 164.152 160.773C163.843 160.55 163.622 160.225 163.527 159.856C163.468 159.573 163.527 159.394 163.603 159.388C163.766 159.388 163.951 159.932 164.494 160.306C165.037 160.681 165.597 160.73 165.635 160.893Z" fill="#263238"/>
<path d="M179.317 159.188C179.317 159.188 179.317 159.063 179.285 158.813L179.214 157.727C179.214 157.488 179.187 157.217 179.17 156.923C179.154 156.63 179.073 156.31 179.024 155.962C178.975 155.614 178.91 155.24 178.845 154.843C178.767 154.418 178.667 153.998 178.546 153.583C178.008 151.431 177.147 149.373 175.993 147.478C174.487 144.951 172.508 142.739 170.165 140.96L169.171 140.227C168.824 139.999 168.46 139.787 168.085 139.565C167.71 139.342 167.363 139.097 166.966 138.918L165.777 138.348L165.174 138.06L164.538 137.832L163.246 137.359C162.811 137.213 162.349 137.12 161.899 137.001C161.444 136.865 160.982 136.76 160.514 136.686C159.557 136.507 158.59 136.395 157.619 136.349C157.124 136.349 156.625 136.284 156.125 136.295L154.61 136.371C154.354 136.371 154.099 136.371 153.844 136.42L153.078 136.539C152.573 136.621 152.051 136.681 151.541 136.789C150.504 137.018 149.484 137.317 148.488 137.685C147.464 138.054 146.466 138.491 145.501 138.994C145.018 139.26 144.556 139.565 144.078 139.847C143.845 139.999 143.595 140.124 143.372 140.292L142.699 140.798C141.786 141.475 140.919 142.212 140.102 143.003L138.94 144.284L138.647 144.61L138.381 144.958L137.837 145.659L137.294 146.359L136.833 147.114L136.371 147.875L136.143 148.255L135.947 148.651L135.171 150.281L134.551 151.975C132.976 156.661 132.976 161.732 134.551 166.417C134.763 166.961 134.97 167.547 135.176 168.112C135.382 168.677 135.692 169.198 135.953 169.741L136.148 170.143L136.376 170.524L136.838 171.279L137.3 172.034L137.843 172.74L138.386 173.44L138.647 173.788L138.94 174.108L140.102 175.39C140.919 176.183 141.786 176.921 142.699 177.601L143.378 178.1C143.6 178.274 143.85 178.399 144.084 178.551C144.562 178.834 145.023 179.138 145.507 179.404C147.418 180.393 149.448 181.134 151.546 181.609C152.057 181.718 152.578 181.777 153.089 181.859L153.849 181.978C154.105 182.011 154.36 182.011 154.615 182.027L156.13 182.103C156.63 182.103 157.13 182.065 157.624 182.049C158.596 182.004 159.563 181.891 160.519 181.712C160.987 181.636 161.449 181.53 161.904 181.397C162.36 181.278 162.817 181.18 163.256 181.039L164.544 180.566L165.179 180.338L165.782 180.05L166.972 179.48C167.355 179.284 167.729 179.068 168.09 178.834C168.454 178.611 168.824 178.399 169.177 178.171L170.165 177.432C172.51 175.655 174.491 173.442 175.999 170.915C177.152 169.011 178.011 166.943 178.546 164.783C178.667 164.37 178.767 163.951 178.845 163.528C178.91 163.131 178.969 162.757 179.024 162.409C179.078 162.061 179.138 161.741 179.17 161.448C179.203 161.154 179.203 160.905 179.214 160.644C179.246 160.171 179.268 159.807 179.285 159.558C179.301 159.308 179.317 159.183 179.317 159.183C179.317 159.183 179.317 159.308 179.317 159.558C179.317 159.807 179.29 160.177 179.274 160.644C179.274 160.888 179.274 161.187 179.241 161.453C179.208 161.719 179.154 162.072 179.111 162.42C179.067 162.768 179.002 163.148 178.942 163.55C178.868 163.974 178.771 164.395 178.654 164.81C178.138 166.985 177.29 169.068 176.14 170.985C174.635 173.536 172.65 175.772 170.296 177.568L169.296 178.318C168.949 178.551 168.579 178.763 168.21 178.991C167.841 179.219 167.482 179.464 167.08 179.643L165.885 180.224L165.277 180.534L164.636 180.767L163.338 181.245C162.893 181.397 162.431 181.49 161.975 181.615C161.515 181.751 161.047 181.86 160.573 181.94C159.606 182.121 158.628 182.236 157.646 182.283C157.152 182.283 156.646 182.353 156.141 182.348L154.61 182.272C154.349 182.272 154.067 182.272 153.833 182.223L153.062 182.103C152.546 182.022 152.019 181.962 151.503 181.853C150.454 181.62 149.422 181.319 148.412 180.952C147.377 180.58 146.369 180.139 145.393 179.632C144.898 179.366 144.431 179.056 143.948 178.768C143.701 178.632 143.461 178.481 143.231 178.318L142.547 177.807C141.622 177.124 140.744 176.38 139.918 175.58L138.739 174.282L138.44 173.956L138.174 173.603L137.631 172.897L137.088 172.18L136.621 171.42L136.154 170.654L135.92 170.268L135.725 169.861L134.937 168.232C134.725 167.661 134.519 167.086 134.307 166.515C132.714 161.772 132.714 156.637 134.307 151.894L134.937 150.178L135.725 148.548L135.926 148.141L136.159 147.755L136.626 146.989L137.093 146.229L137.637 145.517L138.18 144.806L138.446 144.453L138.739 144.127C139.136 143.698 139.527 143.263 139.918 142.834C140.745 142.034 141.623 141.289 142.547 140.602L143.231 140.091C143.459 139.923 143.709 139.793 143.948 139.641C144.431 139.358 144.904 139.049 145.393 138.782C146.369 138.275 147.377 137.835 148.412 137.463C149.422 137.096 150.454 136.795 151.503 136.561C152.019 136.452 152.546 136.393 153.062 136.311L153.833 136.192C154.088 136.159 154.349 136.159 154.604 136.143L156.136 136.067C156.646 136.067 157.146 136.11 157.646 136.132C158.628 136.179 159.606 136.293 160.573 136.474C161.046 136.556 161.514 136.663 161.975 136.795C162.431 136.925 162.893 137.017 163.332 137.164L164.636 137.642L165.277 137.881L165.885 138.174L167.086 138.75C167.488 138.935 167.841 139.195 168.21 139.407C168.579 139.619 168.949 139.847 169.296 140.081L170.296 140.83C172.649 142.623 174.634 144.855 176.14 147.402C177.289 149.314 178.139 151.392 178.66 153.561C178.758 154.012 178.904 154.425 178.948 154.827C178.991 155.229 179.062 155.604 179.116 155.957C179.17 156.31 179.219 156.625 179.246 156.923C179.274 157.222 179.246 157.467 179.279 157.727C179.279 158.205 179.312 158.569 179.323 158.813C179.333 159.058 179.317 159.188 179.317 159.188Z" fill="#E0B92C"/>
<path d="M238.123 94.0985H70.1133V102.479H238.123V94.0985Z" fill="#E0E0E0"/>
<path d="M75.534 98.0568C75.534 98.2813 75.4674 98.5008 75.3427 98.6875C75.218 98.8741 75.0407 99.0196 74.8332 99.1055C74.6258 99.1915 74.3976 99.2139 74.1774 99.1701C73.9572 99.1263 73.7549 99.0182 73.5962 98.8595C73.4374 98.7007 73.3293 98.4985 73.2855 98.2783C73.2417 98.0581 73.2642 97.8298 73.3501 97.6224C73.436 97.415 73.5815 97.2377 73.7682 97.1129C73.9549 96.9882 74.1743 96.9216 74.3988 96.9216C74.6999 96.9216 74.9886 97.0412 75.2015 97.2541C75.4144 97.467 75.534 97.7557 75.534 98.0568Z" fill="white"/>
<path d="M79.3035 98.0568C79.3035 98.2813 79.237 98.5008 79.1122 98.6875C78.9875 98.8741 78.8102 99.0196 78.6028 99.1055C78.3954 99.1915 78.1671 99.2139 77.9469 99.1701C77.7267 99.1263 77.5244 99.0182 77.3657 98.8595C77.2069 98.7007 77.0988 98.4985 77.055 98.2783C77.0112 98.0581 77.0337 97.8298 77.1196 97.6224C77.2055 97.415 77.351 97.2377 77.5377 97.1129C77.7244 96.9882 77.9439 96.9216 78.1684 96.9216C78.4694 96.9216 78.7582 97.0412 78.971 97.2541C79.1839 97.467 79.3035 97.7557 79.3035 98.0568Z" fill="white"/>
<path d="M83.0779 98.0568C83.0779 98.2813 83.0114 98.5008 82.8866 98.6875C82.7619 98.8741 82.5846 99.0196 82.3772 99.1055C82.1698 99.1915 81.9415 99.2139 81.7213 99.1701C81.5011 99.1263 81.2989 99.0182 81.1401 98.8595C80.9813 98.7007 80.8732 98.4985 80.8294 98.2783C80.7856 98.0581 80.8081 97.8298 80.894 97.6224C80.9799 97.415 81.1254 97.2377 81.3121 97.1129C81.4988 96.9882 81.7183 96.9216 81.9428 96.9216C82.2434 96.9231 82.5313 97.0431 82.7439 97.2557C82.9565 97.4683 83.0765 97.7562 83.0779 98.0568Z" fill="white"/>
<path d="M219.59 128.217C219.59 128.298 190.44 128.363 154.484 128.363C118.528 128.363 89.3721 128.298 89.3721 128.217C89.3721 128.135 118.522 128.076 154.484 128.076C190.445 128.076 219.59 128.141 219.59 128.217Z" fill="#E0E0E0"/>
<path d="M219.59 131.449C219.59 131.525 190.44 131.59 154.484 131.59C118.528 131.59 89.3721 131.525 89.3721 131.449C89.3721 131.373 118.522 131.303 154.484 131.303C190.445 131.303 219.59 131.368 219.59 131.449Z" fill="#E0E0E0"/>
<path d="M134.155 90.5612C134.155 90.5612 133.009 87.9595 132.791 87.3892C132.21 85.8304 128.446 75.3858 129.353 73.8107C133.519 66.4946 136.751 61.3185 144.969 61.3185L159.487 61.2207C159.487 61.2207 173.239 58.4181 182.934 89.703L134.155 90.5612Z" fill="#455A64"/>
<path d="M103.532 93.1789L122.542 89.0836L144.886 77.3355L144.968 61.2966C141.617 60.3732 135.191 62.6979 123.65 68.5801L106.492 77.4387C105.118 78.1468 103.924 79.1591 103 80.3986C102.077 81.638 101.448 83.0719 101.163 84.5909C100.878 86.11 100.943 87.6741 101.353 89.1643C101.764 90.6544 102.509 92.0312 103.532 93.1898V93.1789Z" fill="#455A64"/>
<path d="M146.31 124.226C146.033 123.325 146.223 122.743 147.537 123.189C150.437 124.161 153.028 123.841 153.658 123.281C154.288 122.722 153.713 121.652 152.768 121.733C151.736 121.73 150.709 121.588 149.715 121.309C148.908 121.118 148.139 120.793 147.439 120.348C146.831 119.963 146.31 119.599 145.848 119.262C145.848 119.262 143.17 117.328 142.334 115.775L133.16 119.702L134.637 124.297C134.813 125.102 135.189 125.85 135.732 126.472C136.274 127.093 136.964 127.566 137.739 127.849C140.362 128.702 144.534 128.392 144.534 128.392C145.299 127.892 148.249 132.161 149.145 133.666C150.041 135.17 151.1 135.361 151.448 134.443C151.681 133.813 149.058 129.136 148.145 127.664C147.409 126.585 146.793 125.429 146.31 124.215" fill="#B77153"/>
<path d="M140.096 128.391C140.096 128.424 139.868 128.391 139.553 128.261C139.146 128.054 138.811 127.728 138.592 127.327C138.367 126.929 138.263 126.474 138.293 126.018C138.326 125.67 138.434 125.474 138.467 125.474C138.426 126.064 138.559 126.653 138.848 127.168C139.138 127.684 139.571 128.103 140.096 128.375V128.391Z" fill="#995037"/>
<path d="M143.008 128.527C143.008 128.559 142.79 128.527 142.497 128.38C142.116 128.167 141.805 127.848 141.601 127.462C141.391 127.079 141.293 126.644 141.318 126.208C141.351 125.876 141.443 125.664 141.481 125.703C141.498 126.265 141.625 126.819 141.856 127.332C142.161 127.8 142.552 128.205 143.008 128.527Z" fill="#995037"/>
<path d="M102.988 92.544C102.988 92.544 132.111 126.012 132.073 125.458C132.035 124.904 145.109 115.139 145.109 115.139L116.578 81.1381L102.988 92.544Z" fill="#455A64"/>
<path d="M120.652 85.9824C120.652 85.9824 120.728 86.0422 120.859 86.178L121.402 86.7863L123.357 89.0457C124.987 90.9576 127.251 93.619 129.728 96.5682C132.205 99.5175 134.437 102.201 136.04 104.172L137.924 106.491L138.429 107.132C138.538 107.279 138.598 107.36 138.587 107.366C138.512 107.309 138.444 107.244 138.386 107.17L137.843 106.562C137.348 106.019 136.691 105.231 135.887 104.303C134.258 102.391 131.988 99.7293 129.511 96.7801C127.034 93.8308 124.807 91.1477 123.2 89.1761L121.315 86.8569C121.114 86.6016 120.946 86.3898 120.815 86.216C120.752 86.1448 120.697 86.0664 120.652 85.9824Z" fill="#263238"/>
<path d="M172.169 89.8278C172.366 89.1189 172.482 88.3902 172.516 87.6553C172.535 86.785 172.375 85.9202 172.049 85.1134C171.722 84.3066 171.234 83.5748 170.615 82.9625C169.909 82.2184 169.149 81.5775 168.535 80.904C167.973 80.3178 167.53 79.6279 167.232 78.8727C167.027 78.3554 166.945 77.7976 166.993 77.2433C167.004 77.0413 167.055 76.8436 167.145 76.6621C167.048 77.3803 167.143 78.1114 167.422 78.7804C167.74 79.496 168.183 80.1491 168.731 80.7085C169.339 81.3548 170.099 81.9849 170.822 82.7453C171.527 83.4533 172.063 84.3109 172.392 85.2546C172.652 86.0232 172.764 86.834 172.723 87.6444C172.698 88.1889 172.593 88.7268 172.413 89.2412C172.365 89.449 172.282 89.6472 172.169 89.8278Z" fill="#263238"/>
<path d="M132.889 64.0838C132.889 64.0838 133.035 64.0078 133.312 63.8828C133.589 63.7579 134.018 63.6004 134.572 63.4266C135.252 63.2175 135.951 63.0756 136.658 63.003C137.604 62.9003 138.561 62.989 139.471 63.2637C140.576 63.6145 141.567 64.2517 142.345 65.1103C143.229 66.1146 143.832 67.3342 144.094 68.6462C144.422 70.0698 144.515 71.5375 144.371 72.9913C144.197 74.5527 143.637 76.0462 142.741 77.3364C141.794 78.5849 140.612 79.635 139.26 80.4269C137.983 81.2307 136.701 81.8825 135.485 82.5234L129.016 85.9235L124.671 88.1884L123.476 88.7913C123.34 88.869 123.196 88.9327 123.047 88.9814C123.175 88.8911 123.31 88.8094 123.449 88.7369L124.617 88.0852L128.962 85.7388L135.392 82.2899C136.604 81.6435 137.891 80.9809 139.146 80.1825C140.463 79.4074 141.618 78.3836 142.546 77.1681C143.412 75.9105 143.95 74.4559 144.11 72.937C144.251 71.5202 144.165 70.09 143.855 68.7005C143.617 67.4397 143.055 66.2624 142.225 65.2841C141.483 64.4451 140.531 63.8189 139.466 63.4701C138.589 63.1946 137.666 63.0932 136.75 63.1713C136.05 63.2311 135.357 63.3565 134.681 63.5461C134.138 63.7036 133.698 63.8448 133.41 63.948C133.242 64.0143 133.067 64.0599 132.889 64.0838Z" fill="#263238"/>
<path d="M123.857 89.0523C123.759 89.0795 123.52 87.1296 122.227 85.1688C120.935 83.2081 119.283 82.1761 119.349 82.1001C119.746 82.2572 120.113 82.4813 120.435 82.7627C122.047 84.0381 123.192 85.8099 123.694 87.8031C123.82 88.207 123.875 88.6296 123.857 89.0523Z" fill="#263238"/>
<path d="M166.656 85.4128C166.455 85.4877 166.248 85.544 166.037 85.5812C165.432 85.6978 164.814 85.7253 164.201 85.6627C163.227 85.5619 162.286 85.2525 161.442 84.7556C160.319 84.0866 159.429 83.0869 158.895 81.8933C158.235 80.4425 158.11 78.8052 158.542 77.2711C158.785 76.4014 159.33 75.6467 160.079 75.142C160.488 74.8706 160.986 74.7675 161.469 74.8542C161.956 74.9666 162.384 75.2524 162.675 75.658C163.212 76.5131 163.549 77.4781 163.662 78.4813C163.775 79.4846 163.66 80.5004 163.327 81.4533C163.002 82.473 162.444 83.4029 161.697 84.169C160.914 84.952 159.938 85.5141 158.868 85.7984C157.813 86.0894 156.702 86.1085 155.639 85.854C154.575 85.5995 153.593 85.0796 152.784 84.3428C152.064 83.6342 151.523 82.7638 151.206 81.804C150.89 80.8442 150.807 79.8228 150.965 78.8245C151.103 77.8948 151.477 77.0159 152.051 76.2718C152.338 75.9081 152.712 75.6224 153.137 75.4408C153.565 75.2639 154.046 75.2639 154.474 75.4408C154.859 75.6213 155.192 75.898 155.441 76.2442C155.689 76.5903 155.844 76.9944 155.891 77.4178C155.951 78.1829 155.799 78.9497 155.451 79.6338C154.875 80.7947 154.091 81.8403 153.137 82.7188C152.424 83.3811 151.626 83.9455 150.764 84.3971C150.222 84.6846 149.654 84.9228 149.069 85.1087C148.874 85.1738 148.716 85.2064 148.613 85.2336C148.56 85.2515 148.506 85.2624 148.45 85.2662C148.498 85.2387 148.549 85.2186 148.602 85.2064C148.705 85.1684 148.858 85.1249 149.053 85.0489C149.624 84.8435 150.178 84.5929 150.71 84.2994C151.552 83.8345 152.332 83.2631 153.029 82.5993C153.952 81.7269 154.71 80.6946 155.267 79.5523C155.589 78.8993 155.728 78.1708 155.669 77.4449C155.622 77.0633 155.48 76.6996 155.255 76.388C155.03 76.0764 154.729 75.8271 154.381 75.6634C154.013 75.5114 153.599 75.5114 153.23 75.6634C152.845 75.8306 152.509 76.0922 152.252 76.4238C151.699 77.1328 151.34 77.9731 151.209 78.8625C151.062 79.8165 151.143 80.7919 151.447 81.7081C151.751 82.6243 152.269 83.4548 152.958 84.131C153.733 84.8264 154.671 85.3149 155.685 85.5513C156.699 85.7877 157.756 85.7644 158.759 85.4834C159.783 85.2273 160.721 84.7023 161.475 83.9626C162.195 83.2372 162.736 82.3538 163.055 81.3827C163.365 80.4437 163.474 79.45 163.376 78.466C163.334 77.9902 163.234 77.5213 163.077 77.0702C162.946 76.6274 162.741 76.2103 162.469 75.8373C162.215 75.4807 161.841 75.228 161.415 75.1257C160.998 75.0496 160.567 75.1392 160.215 75.3756C159.511 75.8348 158.995 76.5302 158.759 77.3363C158.332 78.8158 158.44 80.3983 159.063 81.8064C159.571 82.9725 160.426 83.9532 161.513 84.6144C162.332 85.1147 163.249 85.4333 164.201 85.5486C165.021 85.6401 165.851 85.5942 166.656 85.4128Z" fill="#FAFAFA"/>
<path d="M168.85 52.8241C168.232 52.0708 167.789 51.1896 167.552 50.2441C167.455 49.94 167.443 49.6147 167.52 49.3045C167.559 49.1485 167.649 49.0102 167.776 48.9117C167.903 48.8132 168.06 48.7602 168.22 48.7614C168.546 48.7614 168.763 49.0927 168.943 49.3697C169.474 50.169 169.922 51.0208 170.279 51.9116C170.384 52.1551 170.438 52.4176 170.436 52.6828C170.435 52.8153 170.4 52.9451 170.334 53.0602C170.269 53.1752 170.175 53.2715 170.062 53.34C169.928 53.398 169.781 53.4185 169.636 53.3993C169.492 53.3802 169.355 53.3222 169.241 53.2314C169.023 53.0461 168.839 52.8236 168.698 52.5742" fill="#995037"/>
<path d="M170.246 52.2215L168.812 49.2125C168.65 48.9248 168.548 48.6069 168.514 48.2783C168.5 48.1133 168.536 47.9479 168.619 47.8043C168.701 47.6607 168.826 47.5456 168.975 47.4745C169.114 47.4346 169.261 47.4327 169.4 47.469C169.54 47.5053 169.667 47.5785 169.768 47.6808C169.973 47.8834 170.137 48.1231 170.252 48.3869L170.931 49.7068C171.132 50.0565 171.282 50.4333 171.376 50.8256C171.422 51.0233 171.426 51.2285 171.388 51.4278C171.35 51.6271 171.27 51.8162 171.153 51.9825C171.029 52.1433 170.853 52.2564 170.655 52.3028C170.458 52.3493 170.25 52.3264 170.067 52.2378" fill="#995037"/>
<path d="M163.864 61.526C163.864 61.526 161.865 58.9352 161.691 57.5719C161.517 56.2087 163.185 53.77 166.775 53.2268C168.085 53.0893 169.347 52.6586 170.468 51.9667C170.689 51.817 170.851 51.5959 170.927 51.3405C171.003 51.0852 170.989 50.8114 170.886 50.5654C170.414 49.4194 169.567 47.3066 169.632 47.0079C169.8 46.2746 170.278 46.2909 171.516 48.0941C172.755 49.8974 174.194 51.7549 173.917 52.5913C173.64 53.4278 169.262 56.0186 169.262 56.0186L170.457 57.9467L163.864 61.526Z" fill="#B77153"/>
<path d="M175.737 88.1606L161.958 61.1611L170.833 56.1914L189.473 85.7382C189.473 85.7382 190.457 87.6284 191.831 89.8389H176.205" fill="#455A64"/>
<path d="M170.708 56.1914C170.708 56.1914 170.659 56.2349 170.556 56.3L170.088 56.5825L168.307 57.6199L161.898 61.2698L161.947 61.1068C163.288 63.8225 165.032 66.9999 166.786 70.438C169.399 75.5163 171.674 80.171 173.25 83.5602C174.043 85.2548 174.673 86.6344 175.102 87.5849C175.303 88.0466 175.466 88.4105 175.585 88.6712C175.649 88.7958 175.7 88.9269 175.737 89.0622C175.656 88.9466 175.587 88.8228 175.531 88.6929C175.4 88.4213 175.221 88.0629 174.988 87.6066L173.054 83.62C171.425 80.2579 169.133 75.6195 166.536 70.5412C164.782 67.1085 163.049 63.942 161.73 61.1937L161.681 61.0851L161.784 61.0254L168.242 57.4678L170.061 56.4847L170.545 56.2349C170.597 56.2132 170.652 56.1986 170.708 56.1914Z" fill="#263238"/>
<path d="M134.155 90.5609C132.965 88.6248 132.183 86.466 131.857 84.217C131.944 84.217 132.319 85.6618 132.944 87.4053C133.568 89.1488 134.231 90.5229 134.155 90.5609Z" fill="#263238"/>
<path d="M164.505 50.7604C165.599 51.2045 166.809 51.2794 167.951 50.9738C169.092 50.6682 170.102 49.9989 170.829 49.0672C171.555 48.1355 171.958 46.9924 171.977 45.811C171.995 44.6297 171.627 43.4746 170.93 42.521C174.042 41.7334 175.981 38.1433 175.351 34.9931C174.721 31.8429 171.913 29.3879 168.774 28.7089C167.573 28.4211 166.319 28.453 165.135 28.8013C164.546 28.982 164.001 29.2822 163.534 29.6831C163.067 30.084 162.687 30.577 162.419 31.1313" fill="#263238"/>
<path d="M164.065 43.721C164.065 43.7536 163.663 43.8296 163.006 44.1718C162.082 44.6638 161.349 45.4518 160.926 46.4095C160.615 47.1105 160.484 47.878 160.544 48.6425C160.605 49.407 160.856 50.1442 161.273 50.7873C161.512 51.1586 161.805 51.4918 162.142 51.7758C162.489 52.0769 162.881 52.3208 163.305 52.4981C164.196 52.8841 165.186 52.9758 166.133 52.7599C167.079 52.544 167.932 52.0318 168.568 51.2978C168.871 50.9526 169.118 50.5622 169.301 50.1409C169.48 49.7386 169.599 49.3122 169.654 48.8754C169.733 48.2371 169.678 47.5893 169.494 46.9732C169.309 46.3571 168.999 45.7859 168.582 45.2959C168.166 44.8058 167.652 44.4075 167.074 44.1261C166.495 43.8448 165.865 43.6865 165.222 43.6613C164.478 43.6341 164.071 43.7536 164.065 43.7156C164.159 43.6754 164.257 43.648 164.358 43.6341C164.642 43.5734 164.932 43.5443 165.222 43.5472C166.143 43.5492 167.043 43.8181 167.814 44.3213C168.586 44.8245 169.194 45.5404 169.567 46.3824C169.918 47.1731 170.047 48.0441 169.942 48.9026C169.894 49.3665 169.771 49.8197 169.578 50.2441C169.39 50.6945 169.129 51.111 168.807 51.477C168.134 52.2597 167.228 52.806 166.223 53.0357C165.217 53.2655 164.163 53.1665 163.218 52.7534C162.77 52.5609 162.356 52.2988 161.99 51.9767C161.634 51.6768 161.326 51.3231 161.078 50.9285C160.616 50.1984 160.355 49.3588 160.323 48.4952C160.293 47.58 160.527 46.6756 160.998 45.8904C161.469 45.1052 162.157 44.4726 162.979 44.0686C163.24 43.9371 163.515 43.8368 163.799 43.7699C163.886 43.7436 163.975 43.7272 164.065 43.721Z" fill="#E0B92C"/>
<path d="M166.422 35.1614C167.556 35.097 168.639 34.6731 169.515 33.9511C170.391 33.2292 171.014 32.2468 171.294 31.1467C171.574 30.0465 171.496 28.8858 171.071 27.8331C170.646 26.7804 169.897 25.8905 168.932 25.2926C169.399 23.9821 169.443 22.5578 169.056 21.2212C168.669 19.8847 167.872 18.7037 166.777 17.8453C165.682 16.9869 164.344 16.4947 162.954 16.4383C161.564 16.382 160.191 16.7643 159.03 17.5311C158.148 15.9658 156.807 14.7084 155.188 13.9278C153.569 13.1473 151.751 12.881 149.976 13.165C148.202 13.4489 146.557 14.2693 145.262 15.5159C143.968 16.7626 143.086 18.3756 142.736 20.1382C141.145 19.4805 139.392 19.321 137.709 19.6809C136.025 20.0408 134.49 20.9031 133.307 22.1538C132.124 23.4044 131.349 24.9847 131.083 26.6856C130.817 28.3865 131.074 30.128 131.819 31.6799C130.077 31.8283 128.466 32.6624 127.34 33.9988C126.213 35.3352 125.664 37.0644 125.812 38.8059C125.96 40.5475 126.794 42.1588 128.131 43.2853C129.467 44.4119 131.196 44.9614 132.938 44.8131C132.586 45.9622 132.599 47.1922 132.975 48.3337C133.351 49.4752 134.072 50.4719 135.038 51.1868C136.004 51.9016 137.169 52.2992 138.37 52.325C139.572 52.3508 140.752 52.0034 141.748 51.3307C142.384 52.3562 143.298 53.1797 144.385 53.7052C145.471 54.2307 146.685 54.4366 147.883 54.2989C149.082 54.1611 150.217 53.6854 151.156 52.9271C152.095 52.1689 152.799 51.1594 153.186 50.0163" fill="#263238"/>
<path d="M159.884 60.646C159.998 58.0009 160.139 55.6057 160.139 55.6057C160.139 55.6057 166.054 54.8616 166.309 48.8273C166.564 42.793 165.962 28.8994 165.962 28.8994L155.099 23.6744L143.389 33.1034L145.224 60.8035C145.353 62.7227 146.229 64.5152 147.663 65.7965C149.098 67.0778 150.978 67.7461 152.899 67.6579C154.728 67.5703 156.458 66.8027 157.75 65.5055C159.042 64.2083 159.803 62.4752 159.884 60.646Z" fill="#B77153"/>
<path d="M165.674 39.2293C165.576 39.3325 165.011 38.86 164.202 38.8274C163.392 38.7948 162.79 39.2076 162.708 39.099C162.627 38.9903 162.762 38.8654 163.023 38.6699C163.374 38.4247 163.796 38.3043 164.223 38.3277C164.652 38.3451 165.062 38.5036 165.391 38.7785C165.636 38.9958 165.717 39.1859 165.674 39.2293Z" fill="#263238"/>
<path d="M156.7 39.2293C156.602 39.3325 156.043 38.86 155.228 38.8274C154.414 38.7948 153.822 39.2076 153.735 39.099C153.648 38.9903 153.789 38.8654 154.05 38.6699C154.4 38.4247 154.823 38.3043 155.25 38.3277C155.678 38.3451 156.089 38.5036 156.418 38.7785C156.662 38.9958 156.744 39.1859 156.7 39.2293Z" fill="#263238"/>
<path d="M159.742 45.3179C160.171 45.1902 160.615 45.1226 161.062 45.117C161.269 45.117 161.464 45.0626 161.502 44.916C161.524 44.6877 161.481 44.458 161.377 44.2534C161.189 43.7102 160.993 43.1399 160.791 42.5425C159.976 40.1038 159.395 38.105 159.487 38.0724C159.58 38.0398 160.307 39.9897 161.117 42.4175L161.66 44.1393C161.782 44.4137 161.814 44.7198 161.752 45.0138C161.721 45.0879 161.673 45.1541 161.613 45.2077C161.553 45.2612 161.482 45.3007 161.404 45.3233C161.291 45.3531 161.174 45.3659 161.057 45.3614C160.619 45.4054 160.177 45.3908 159.742 45.3179Z" fill="#263238"/>
<path d="M160.137 55.6112C157.334 55.5379 154.614 54.6468 152.311 53.0476C152.311 53.0476 154.152 57.4416 160.034 57.094L160.137 55.6112Z" fill="#995037"/>
<path d="M151.741 24.0104C150.799 25.3705 150.303 26.99 150.323 28.6445C150.342 30.2989 150.876 31.9063 151.85 33.2438C152.73 34.3953 154.055 35.3349 155.505 35.2806C156.955 35.2263 158.357 33.8576 158.047 32.44C157.906 32.8849 157.871 33.3567 157.944 33.8177C158.017 34.2787 158.197 34.7162 158.47 35.0953C158.742 35.4745 159.099 35.7848 159.513 36.0015C159.926 36.2183 160.384 36.3356 160.851 36.344C161.318 36.3523 161.78 36.2516 162.201 36.0498C162.622 35.848 162.99 35.5507 163.276 35.1816C163.561 34.8125 163.757 34.3818 163.847 33.9237C163.937 33.4656 163.919 32.9929 163.793 32.5432C163.906 33.1947 164.136 33.8203 164.472 34.3898C164.644 34.674 164.89 34.906 165.184 35.061C165.478 35.216 165.808 35.2881 166.14 35.2697C167.047 35.1502 167.574 34.1834 167.769 33.2764C168.05 31.9271 167.986 30.5286 167.583 29.2108C167.179 27.8929 166.449 26.6982 165.461 25.7376C164.457 24.797 163.268 24.0759 161.97 23.6205C160.672 23.165 159.294 22.9852 157.922 23.0925C155.163 23.3354 152.561 24.4807 150.519 26.3514" fill="#263238"/>
<path d="M152.507 26.1399C153.273 27.8506 153.686 29.6976 153.724 31.5713C153.757 33.4554 153.055 35.2784 151.769 36.6551C151.118 37.3252 150.29 37.7969 149.381 38.0151C148.472 38.2334 147.521 38.1893 146.636 37.888C146.874 38.6966 146.931 39.5479 146.801 40.3808C146.671 41.2137 146.359 42.0077 145.887 42.7057C144.876 44.0472 142.888 44.6881 141.416 43.8789C140.08 43.151 139.505 41.5325 139.32 40.0226C139.098 38.1899 139.29 36.3308 139.881 34.582C140.473 32.8332 141.449 31.2392 142.737 29.9173C144.026 28.5954 145.594 27.5791 147.327 26.9433C149.06 26.3074 150.914 26.0682 152.752 26.2431" fill="#263238"/>
<path d="M145.043 40.5168C144.24 40.0171 143.142 40.4245 142.502 41.1251C141.997 41.6791 141.685 42.3814 141.613 43.1273C141.541 43.8731 141.712 44.6223 142.1 45.2628C142.489 45.9034 143.075 46.401 143.77 46.6812C144.465 46.9613 145.232 47.0091 145.956 46.8172" fill="#B77153"/>
<path d="M144.86 45.0087C144.86 45.0413 144.594 45.0793 144.175 44.9652C143.898 44.8935 143.642 44.7579 143.427 44.5693C143.212 44.3806 143.044 44.1442 142.937 43.879C142.827 43.5639 142.839 43.2192 142.97 42.9122C143.079 42.6732 143.252 42.4685 143.469 42.3201C143.844 42.0757 144.126 42.0812 144.132 42.1138C144.137 42.1463 143.887 42.2278 143.589 42.4831C143.399 42.635 143.26 42.8413 143.191 43.0743C143.122 43.3074 143.126 43.556 143.203 43.7866C143.298 44.0162 143.439 44.2239 143.617 44.3967C143.796 44.5696 144.008 44.7039 144.24 44.7914C144.637 44.9272 144.865 44.9652 144.86 45.0087Z" fill="#995037"/>
<path d="M157.199 36.7145C157.123 36.9481 156.238 36.8612 155.19 36.91C154.142 36.9589 153.267 37.0893 153.175 36.8612C153.082 36.633 153.935 36.0845 155.157 36.041C156.379 35.9976 157.281 36.4918 157.199 36.7145Z" fill="#263238"/>
<path d="M165.652 36.547C165.56 36.6284 165.381 36.547 165.169 36.5198C164.927 36.4616 164.677 36.4469 164.43 36.4764C164.115 36.4764 163.768 36.5633 163.501 36.5578C163.235 36.5524 163.051 36.4981 163.018 36.3786C162.985 36.2591 163.105 36.1179 163.328 35.9658C163.637 35.7681 163.989 35.6454 164.354 35.6073C164.568 35.5795 164.784 35.6024 164.987 35.6741C165.19 35.7458 165.373 35.8644 165.522 36.0201C165.723 36.2645 165.739 36.4709 165.652 36.547Z" fill="#263238"/>
<path d="M158.335 46.8607C158.559 46.716 158.811 46.6216 159.074 46.5841C159.338 46.5466 159.606 46.5668 159.861 46.6435C160.113 46.7306 160.327 46.9033 160.465 47.1315C160.603 47.3597 160.656 47.629 160.616 47.8927C160.542 48.1756 160.369 48.4225 160.128 48.5879C159.952 48.724 159.749 48.8215 159.533 48.8739C159.316 48.9263 159.092 48.9325 158.873 48.8921C158.654 48.8484 158.45 48.746 158.285 48.5958C158.119 48.4456 157.998 48.2533 157.933 48.0393C157.879 47.8229 157.899 47.5947 157.988 47.3903C158.077 47.1859 158.232 47.0169 158.428 46.9096" fill="#995037"/>
<path d="M161.3 47.5067C161.3 47.5067 161.105 47.6751 160.719 47.7566C160.205 47.8633 159.672 47.8121 159.187 47.6099C158.705 47.406 158.293 47.064 158.003 46.6269C157.786 46.2955 157.743 46.0511 157.775 46.0348C157.808 46.0185 157.927 46.2249 158.166 46.5074C158.475 46.868 158.861 47.154 159.296 47.3438C159.737 47.5203 160.213 47.5928 160.687 47.5556C161.056 47.5285 161.284 47.4633 161.3 47.5067Z" fill="#263238"/>
<path d="M149.053 50.3864C149.015 50.3864 149.053 49.9627 148.847 49.2458C148.574 48.237 147.969 47.3494 147.131 46.7256C146.56 46.2955 145.895 46.0053 145.192 45.8783C144.385 45.735 143.556 45.8062 142.786 46.0847C142.37 46.2347 141.98 46.4471 141.629 46.7147C141.257 46.984 140.932 47.3125 140.667 47.687C140.093 48.4686 139.782 49.4134 139.782 50.3836C139.782 51.3539 140.093 52.2987 140.667 53.0803C140.932 53.4548 141.257 53.7833 141.629 54.0526C141.98 54.3201 142.37 54.5326 142.786 54.6826C143.39 54.9017 144.033 54.9927 144.674 54.9501C145.316 54.9074 145.941 54.7318 146.511 54.4346C147.081 54.1374 147.583 53.725 147.985 53.2235C148.387 52.722 148.681 52.1424 148.847 51.5215C149.037 50.8046 149.015 50.3809 149.053 50.3864C149.062 50.4858 149.062 50.5857 149.053 50.6851C149.053 50.976 149.018 51.2658 148.95 51.5487C148.707 52.6049 148.104 53.5437 147.245 54.2046C146.653 54.6668 145.961 54.9831 145.224 55.128C144.375 55.2912 143.497 55.2236 142.682 54.9324C142.242 54.7776 141.828 54.556 141.455 54.2752C141.059 53.991 140.713 53.6443 140.428 53.2487C139.812 52.4208 139.479 51.416 139.479 50.3836C139.479 49.3513 139.812 48.3465 140.428 47.5186C140.713 47.123 141.059 46.7763 141.455 46.492C141.828 46.2113 142.242 45.9897 142.682 45.8348C143.442 45.5596 144.26 45.482 145.058 45.6093C145.856 45.7367 146.608 46.0647 147.245 46.5626C148.104 47.2236 148.707 48.1624 148.95 49.2186C149.018 49.5015 149.053 49.7913 149.053 50.0822C149.062 50.1834 149.062 50.2851 149.053 50.3864Z" fill="#E0B92C"/>
<path d="M165.645 23.38C165.697 23.3836 165.749 23.3965 165.797 23.418C165.938 23.4738 166.068 23.5569 166.177 23.6624C166.382 23.8664 166.534 24.118 166.618 24.3947C166.702 24.6714 166.717 24.9647 166.661 25.2484C166.545 25.6794 166.306 26.067 165.971 26.3626C165.637 26.6582 165.223 26.8487 164.781 26.9104C163.664 27.0446 162.535 26.7749 161.599 26.15L160.48 25.5037L161.707 25.9056C161.918 25.9803 162.107 26.1071 162.256 26.2742C162.405 26.4413 162.51 26.6433 162.56 26.8615C162.619 27.0786 162.634 27.3052 162.604 27.5281C162.574 27.751 162.5 27.9657 162.386 28.1596C162.137 28.5497 161.749 28.8296 161.3 28.9418C160.847 29.0559 160.372 29.0446 159.926 28.9092C158.926 28.5196 158.09 27.7987 157.558 26.867L156.732 25.7372L157.731 26.7095C157.99 26.9766 158.176 27.3056 158.271 27.6651C158.366 28.0246 158.367 28.4024 158.274 28.7625C158.202 29.0916 158.056 29.3999 157.847 29.6642C157.638 29.9286 157.372 30.1421 157.069 30.2887C156.571 30.5252 156.016 30.6155 155.469 30.5492C154.922 30.4828 154.405 30.2626 153.978 29.914C153.415 29.456 152.999 28.842 152.783 28.1488C152.726 27.9712 152.683 27.7897 152.653 27.6056C152.647 27.5406 152.647 27.4751 152.653 27.4101C152.68 27.4101 152.713 27.6708 152.887 28.1216C153.127 28.7631 153.538 29.3266 154.076 29.751C154.48 30.0626 154.963 30.2556 155.47 30.3083C155.978 30.3611 156.49 30.2716 156.949 30.0498C157.217 29.9159 157.452 29.7233 157.635 29.4863C157.818 29.2494 157.946 28.9741 158.008 28.6811C158.088 28.3667 158.086 28.0374 158.003 27.724C157.92 27.4105 157.76 27.1231 157.536 26.8887L157.748 26.7095C158.247 27.5813 159.026 28.2589 159.958 28.6322C160.339 28.7731 160.755 28.7891 161.146 28.6778C161.536 28.5665 161.881 28.3336 162.131 28.013C162.522 27.3721 162.288 26.3836 161.626 26.1609L161.734 25.9165C162.612 26.5192 163.673 26.7941 164.732 26.6932C165.142 26.6446 165.528 26.4766 165.843 26.21C166.158 25.9435 166.388 25.5901 166.503 25.1941C166.56 24.9323 166.554 24.6609 166.487 24.4015C166.421 24.1421 166.294 23.9021 166.117 23.7005C165.976 23.5723 165.816 23.4644 165.645 23.38Z" fill="#455A64"/>
<path d="M151.154 33.0859C151.154 33.0859 151.154 33.1239 151.083 33.1891C151.005 33.2858 150.92 33.3766 150.828 33.4607C150.477 33.7802 150.065 34.0259 149.617 34.1831C148.915 34.4273 148.153 34.4387 147.444 34.2156C146.975 34.0686 146.54 33.8277 146.166 33.5074C145.793 33.1872 145.488 32.7943 145.272 32.3527L145.5 32.3201C145.412 32.8701 145.194 33.3913 144.865 33.8407C144.536 34.2901 144.105 34.6548 143.607 34.9048C143.109 35.1548 142.559 35.2829 142.002 35.2785C141.445 35.2741 140.897 35.1374 140.403 34.8797C139.91 34.6219 139.484 34.2504 139.162 33.7959C138.84 33.3414 138.631 32.8169 138.551 32.2656C138.472 31.7142 138.525 31.152 138.705 30.625C138.886 30.0981 139.189 29.6217 139.59 29.235L139.78 29.436C139.139 29.9687 138.333 30.2624 137.499 30.267C136.743 30.2817 135.998 30.078 135.354 29.6804C134.778 29.3231 134.328 28.7954 134.067 28.1705C133.853 27.638 133.762 27.0645 133.8 26.4922C133.846 25.679 134.159 24.9038 134.691 24.287C134.877 24.067 135.102 23.8829 135.354 23.7439C135.354 23.7439 135.109 23.9286 134.767 24.3576C134.281 24.9807 134.004 25.7407 133.974 26.5302C133.952 27.0736 134.05 27.6153 134.262 28.1162C134.516 28.6918 134.941 29.1754 135.479 29.5012C136.084 29.8725 136.784 30.0611 137.494 30.0443C138.263 30.0336 139.006 29.7616 139.601 29.2731L139.786 29.474C139.324 29.9478 139.012 30.5474 138.889 31.1976C138.767 31.8478 138.838 32.5198 139.096 33.1294C139.411 33.7948 139.939 34.3367 140.595 34.6699C141.252 35.0032 142.001 35.1089 142.724 34.9706C143.358 34.8214 143.935 34.4924 144.385 34.0231C144.836 33.5539 145.142 32.9644 145.266 32.3255L145.326 31.9453L145.494 32.2929C145.692 32.7079 145.971 33.0793 146.314 33.3852C146.657 33.6911 147.058 33.9254 147.493 34.0744C148.172 34.3002 148.905 34.3002 149.584 34.0744C150.023 33.9393 150.432 33.7218 150.79 33.4335C151.051 33.2054 151.154 33.075 151.154 33.0859Z" fill="#455A64"/>
<path d="M140.406 42.7439C140.27 42.8693 140.109 42.9654 139.934 43.0263C139.458 43.2241 138.942 43.3042 138.429 43.2598C137.635 43.2012 136.895 42.8394 136.36 42.2496C136.023 41.8764 135.774 41.4322 135.632 40.9499C135.49 40.4676 135.459 39.9595 135.54 39.4633L135.79 39.5719C135.253 40.2821 134.555 40.8538 133.753 41.2394C133.134 41.533 132.455 41.6763 131.77 41.6576C131.133 41.6396 130.508 41.4682 129.951 41.1579C129.469 40.9099 129.058 40.5445 128.755 40.0954C128.453 39.6464 128.268 39.1282 128.218 38.5888C128.154 37.8671 128.346 37.1458 128.761 36.5521C128.879 36.3973 129.016 36.2586 129.169 36.1393C129.219 36.0924 129.278 36.0555 129.343 36.0306C129.343 36.0306 129.131 36.2153 128.854 36.6172C128.49 37.2006 128.333 37.8893 128.408 38.5725C128.465 39.077 128.648 39.5591 128.94 39.974C129.233 40.3889 129.625 40.7233 130.081 40.9461C130.626 41.2344 131.232 41.3892 131.849 41.3977C132.465 41.4062 133.075 41.2682 133.628 40.9949C134.389 40.632 135.054 40.0941 135.567 39.4253L135.92 38.969L135.817 39.5122C135.74 39.968 135.765 40.4352 135.89 40.8803C136.015 41.3254 136.236 41.7374 136.539 42.0867C137.029 42.6467 137.711 43.0032 138.451 43.086C138.939 43.1433 139.434 43.0932 139.901 42.9394C140.227 42.8253 140.396 42.7276 140.406 42.7439Z" fill="#455A64"/>
<path d="M171.164 30.9796C171.295 31.2973 171.337 31.6449 171.284 31.9844C171.219 32.8196 170.868 33.6068 170.288 34.2118C169.709 34.8169 168.938 35.2025 168.106 35.303C167.771 35.374 167.422 35.3476 167.102 35.227C167.102 35.1781 167.487 35.227 168.074 35.102C168.84 34.9576 169.542 34.5765 170.081 34.0124C170.62 33.4484 170.968 32.7296 171.077 31.9573C171.175 31.3652 171.115 30.985 171.164 30.9796Z" fill="#455A64"/>
<path d="M174.51 36.6659C174.583 36.7924 174.63 36.933 174.645 37.0787C174.71 37.4784 174.671 37.8881 174.531 38.2682C174.432 38.5643 174.259 38.8305 174.029 39.0422C173.8 39.254 173.52 39.4043 173.217 39.4794C172.853 39.5539 172.475 39.5199 172.131 39.3816C171.937 39.3085 171.761 39.1965 171.612 39.0527C171.464 38.9088 171.346 38.7361 171.267 38.5452L171.539 38.4528C171.588 38.6295 171.612 38.8125 171.609 38.996C171.593 39.4155 171.456 39.8214 171.214 40.1646C170.972 40.5078 170.636 40.7734 170.246 40.9295C169.897 41.0572 169.518 41.0743 169.16 40.9784C168.857 40.8918 168.579 40.7377 168.345 40.5276C168 40.2351 167.768 39.8319 167.688 39.387C167.639 39.0774 167.688 38.9036 167.688 38.9091C167.688 38.9145 167.688 39.0774 167.78 39.3653C167.899 39.7615 168.136 40.1121 168.459 40.3701C168.686 40.5646 168.96 40.6957 169.254 40.75C169.548 40.8044 169.85 40.7801 170.132 40.6797C170.467 40.5378 170.754 40.3037 170.961 40.0046C171.168 39.7056 171.285 39.3538 171.3 38.9905C171.303 38.8399 171.282 38.6897 171.24 38.5452L171.517 38.4528C171.663 38.7458 171.902 38.9818 172.197 39.1234C172.493 39.2651 172.826 39.3043 173.146 39.2349C173.412 39.1735 173.66 39.0478 173.866 38.8689C174.072 38.69 174.232 38.4632 174.33 38.2084C174.474 37.8652 174.539 37.4939 174.52 37.1221C174.51 36.818 174.461 36.6713 174.51 36.6659Z" fill="#455A64"/>
<path d="M157.922 44.748C157.96 44.748 157.982 44.873 157.922 45.0576C157.848 45.2961 157.706 45.5076 157.513 45.6659C157.32 45.8242 157.084 45.9224 156.836 45.9484C156.646 45.9484 156.532 45.9158 156.537 45.8778C156.543 45.8398 156.956 45.7583 157.325 45.4378C157.694 45.1174 157.841 44.748 157.922 44.748Z" fill="#263238"/>
<path d="M313.107 229.859C313.107 229.941 243.042 230.001 156.618 230.001C70.1933 230.001 0.106445 229.957 0.106445 229.859C0.106445 229.762 70.1715 229.718 156.618 229.718C243.064 229.718 313.107 229.783 313.107 229.859Z" fill="#263238"/>
<path d="M287.378 200.512C286.02 202.446 283.385 201.805 282.163 200.626C280.941 199.447 280.425 197.731 279.953 196.096C278.867 192.365 277.78 188.449 278.595 184.647C278.788 183.494 279.296 182.417 280.061 181.535C280.447 181.098 280.941 180.771 281.493 180.587C282.045 180.403 282.636 180.368 283.206 180.486C284.537 180.834 285.379 182.116 285.96 183.376C287.723 187.029 288.651 191.029 288.676 195.086C288.676 196.976 288.458 198.953 287.394 200.517" fill="#E0B92C"/>
<g opacity="0.2">
<path d="M287.379 200.512C286.021 202.445 283.386 201.804 282.164 200.626C280.942 199.447 280.426 197.731 279.954 196.096C278.868 192.365 277.781 188.449 278.596 184.647C278.789 183.494 279.297 182.417 280.062 181.534C280.448 181.098 280.942 180.771 281.494 180.587C282.046 180.403 282.637 180.368 283.207 180.486C284.538 180.834 285.38 182.116 285.961 183.376C287.724 187.029 288.652 191.029 288.677 195.086C288.677 196.976 288.459 198.953 287.395 200.517" fill="black"/>
</g>
<path d="M282.3 210.321C280.022 209.249 277.459 208.936 274.989 209.431C273.67 209.653 272.274 210.05 271.388 211.06C270.503 212.07 270.302 213.803 271.35 214.656C272.017 215.107 272.82 215.311 273.621 215.231C275.549 215.231 277.689 214.873 279.226 216.03C280.106 216.692 280.692 217.795 281.741 218.121C282.264 218.237 282.811 218.181 283.3 217.962C283.789 217.743 284.195 217.372 284.456 216.904C284.957 215.938 285.068 214.816 284.766 213.77C284.648 213.044 284.365 212.355 283.937 211.757C283.509 211.159 282.949 210.667 282.3 210.321Z" fill="#E0B92C"/>
<path d="M291.106 203.287C289.628 201.543 289.351 198.996 290.019 196.807C290.762 194.632 292.091 192.703 293.859 191.235C295.866 189.447 298.201 188.069 300.736 187.177C301.715 186.772 302.772 186.586 303.831 186.634C304.358 186.666 304.869 186.826 305.32 187.1C305.772 187.373 306.15 187.752 306.422 188.204C307.15 189.583 306.455 191.256 305.705 192.625C304.38 195.045 302.865 197.357 301.176 199.539C299.823 201.288 298.27 203.01 296.206 203.797C294.142 204.585 292.002 204.493 290.905 203.064" fill="#E0B92C"/>
<path d="M287.482 229.722C287.409 229.434 287.367 229.139 287.357 228.842C287.297 228.206 287.215 227.397 287.123 226.441C287.002 225.259 286.821 224.085 286.58 222.922C286.264 221.503 285.835 220.112 285.298 218.761C284.773 217.414 284.057 216.148 283.174 215.003C282.457 214.068 281.541 213.306 280.491 212.77C279.78 212.417 279.018 212.179 278.232 212.064C277.937 212.053 277.644 212.011 277.357 211.939C277.653 211.904 277.952 211.904 278.248 211.939C279.064 212.003 279.862 212.21 280.605 212.553C281.709 213.077 282.677 213.849 283.435 214.807C284.353 215.97 285.094 217.262 285.635 218.642C286.179 220.011 286.605 221.425 286.906 222.867C287.135 224.046 287.291 225.238 287.373 226.436C287.449 227.457 287.482 228.282 287.492 228.853C287.519 229.142 287.516 229.433 287.482 229.722Z" fill="#263238"/>
<path d="M287.303 227.875C287.291 227.74 287.291 227.603 287.303 227.468C287.303 227.164 287.303 226.773 287.303 226.3C287.303 225.29 287.303 223.823 287.249 222.009C287.162 218.387 286.847 213.39 286.244 207.888C285.641 202.386 284.832 197.448 284.104 193.902C283.931 193.011 283.757 192.213 283.561 191.512C283.366 190.811 283.273 190.203 283.143 189.714C283.013 189.225 282.942 188.878 282.871 188.579C282.828 188.447 282.804 188.31 282.801 188.172C282.861 188.295 282.908 188.424 282.942 188.557L283.279 189.676C283.431 190.16 283.583 190.762 283.762 191.463C283.941 192.164 284.137 192.957 284.305 193.847C285.306 198.471 286.058 203.145 286.559 207.85C287.162 213.357 287.434 218.37 287.455 221.998C287.455 223.812 287.456 225.284 287.396 226.3C287.363 226.773 287.341 227.158 287.32 227.468C287.336 227.604 287.33 227.741 287.303 227.875Z" fill="#263238"/>
<path d="M287.281 218.208C287.248 217.801 287.248 217.393 287.281 216.986C287.33 216.204 287.438 215.069 287.655 213.684C287.928 212.059 288.29 210.451 288.742 208.866C289.274 206.922 289.941 205.019 290.741 203.169C292.138 199.768 294.14 196.649 296.65 193.962C297.088 193.503 297.554 193.071 298.046 192.67C298.258 192.49 298.448 192.311 298.638 192.17L299.181 191.795C299.506 191.55 299.849 191.33 300.207 191.138C299.028 192.072 297.906 193.075 296.845 194.142C294.413 196.857 292.464 199.969 291.083 203.342C290.284 205.177 289.607 207.062 289.057 208.986C288.514 210.756 288.182 212.386 287.916 213.754C287.65 215.123 287.52 216.247 287.427 217.013C287.411 217.415 287.361 217.814 287.281 218.208Z" fill="#263238"/>
<path d="M96.515 0.00398788C96.3892 0.0270004 96.2623 0.0433177 96.1348 0.0528706L95.0485 0.145206C94.4491 0.185739 93.8536 0.271068 93.267 0.40048C92.914 0.47652 92.5283 0.509109 92.1373 0.6286C91.7462 0.748091 91.3226 0.867581 90.8826 0.992503C88.7402 1.6802 86.7227 2.7091 84.9081 4.03952C82.5232 5.82056 80.5379 8.08152 79.0802 10.6767C76.8454 14.7033 75.8816 19.312 76.3156 23.8967C76.3482 24.3964 76.4568 24.8907 76.5274 25.3958C76.5948 25.9036 76.6964 26.4062 76.8316 26.9003C77.3106 28.9722 78.0979 30.9606 79.1671 32.7988C81.4426 36.7767 84.9586 39.8997 89.1772 41.69C91.3998 42.618 93.7758 43.1245 96.1837 43.1836C98.6636 43.2819 101.139 42.8906 103.467 42.0322L104.179 41.7606L104.271 41.728L104.358 41.766L114.678 46.8607L114.379 47.1268L111.087 37.3014L111.049 37.1765L111.136 37.0842C113.6 34.5499 115.414 31.4562 116.421 28.068C117.327 24.9721 117.557 21.7176 117.095 18.5251C116.357 13.204 113.694 8.33803 109.61 4.8488C108.063 3.58058 106.355 2.52142 104.532 1.69859C103.154 1.12405 101.722 0.690939 100.257 0.405913L98.6604 0.156069L97.4818 0.0854598L96.7594 0.036577C96.6772 0.0358403 96.5953 0.0267415 96.515 0.00942044C96.5962 -0.00021046 96.6782 -0.00021046 96.7594 0.00942044H97.4818L98.6712 0.0420075L100.301 0.264695C101.789 0.525974 103.245 0.94286 104.646 1.50849C106.501 2.31681 108.239 3.37287 109.811 4.64784C111.719 6.24924 113.34 8.16295 114.607 10.3074C116.086 12.8101 117.062 15.5776 117.48 18.4545C117.963 21.699 117.741 25.0096 116.828 28.1604C115.814 31.6167 113.974 34.7745 111.468 37.3612L111.506 37.1439C112.592 40.2941 113.678 43.5801 114.808 46.9639L114.976 47.4582L114.509 47.23L104.19 42.1408H104.369L103.641 42.4178C101.26 43.2915 98.7287 43.6847 96.1945 43.5747C93.7342 43.5152 91.3066 42.9976 89.0359 42.0485C84.735 40.2139 81.154 37.0201 78.8412 32.9563C77.7566 31.0943 76.9566 29.0805 76.4677 26.9818C76.3306 26.4792 76.2307 25.9673 76.1689 25.4501C76.0983 24.9396 75.9843 24.4399 75.9571 23.9293C75.8643 22.9328 75.8389 21.9311 75.8811 20.9312C75.9374 19.0362 76.2275 17.1553 76.7447 15.3314C77.2414 13.6571 77.9304 12.0459 78.7977 10.53C80.2958 7.90523 82.3319 5.62674 84.7723 3.84399C86.6124 2.51588 88.6584 1.49933 90.8283 0.834994L92.1047 0.487382C92.4793 0.399248 92.8582 0.330362 93.2398 0.280991C93.8322 0.159617 94.4334 0.0869542 95.0376 0.0637336L96.1511 0.00942044L96.515 0.00398788Z" fill="#263238"/>
<path d="M101.371 18.9477H99.8661L96.5312 14.4125L96.4986 11.4089C96.4986 11.4089 94.174 11.2949 94.489 15.2109C94.804 19.1269 94.489 18.1384 94.489 18.1384C94.489 18.1384 89.5573 18.2145 89.1499 18.649C88.8566 18.964 88.7752 23.8686 88.7589 26.5245C88.7291 27.1759 88.9213 27.8182 89.3042 28.3461C89.687 28.874 90.2378 29.2563 90.8663 29.4303C91.044 29.4739 91.2264 29.4958 91.4094 29.4955C92.6423 29.4955 98.9156 28.4092 98.9156 28.4092L101.517 28.3766L101.371 18.9477Z" fill="#E0B92C"/>
<path d="M105.667 18.0739L104.857 28.3664L102.283 28.3989L102.169 18.3237L105.667 18.0739Z" fill="#E0B92C"/>
</svg>
