<svg width="156" height="97" viewBox="0 0 156 97" fill="none" xmlns="http://www.w3.org/2000/svg">
<g clip-path="url(#clip0_2722_142346)">
<path d="M48.2213 61.3633L47.8375 63.2324L33.4372 61.6335L33.8212 59.7643L48.2213 61.3633Z" fill="#E1E1E1"/>
<path d="M41.096 55.3249L43.0166 55.5424L40.5635 67.6667L38.6426 67.4492L41.096 55.3249Z" fill="#E1E1E1"/>
<path d="M27.6262 39.9807C27.6482 40.0087 24.7362 41.6938 21.1234 43.744C17.5093 45.7949 14.5623 47.4346 14.5404 47.4065C14.5182 47.3786 17.4292 45.6938 21.0439 43.6428C24.6566 41.5925 27.6041 39.9527 27.6262 39.9807Z" fill="#E1E1E1"/>
<path d="M38.3195 37.6994C38.3414 37.7276 33.498 40.5094 27.503 43.9118C21.5057 47.3159 16.6275 50.0517 16.6054 50.0237C16.5836 49.9956 21.426 47.2145 27.4231 43.8108C33.4182 40.4078 38.2975 37.6714 38.3195 37.6994Z" fill="#E1E1E1"/>
<path d="M40.4621 40.4221C40.4841 40.4504 35.6406 43.2321 29.6456 46.6345C23.6483 50.0387 18.7702 52.7745 18.7481 52.7465C18.726 52.7185 23.5685 49.9371 29.5657 46.5335C35.561 43.1307 40.44 40.3941 40.4621 40.4221Z" fill="#E1E1E1"/>
<path d="M42.6045 43.1407C42.6266 43.1687 37.7831 45.9503 31.7881 49.3532C25.7907 52.7572 20.9128 55.4928 20.8905 55.465C20.8686 55.4368 25.7107 52.6557 31.7083 49.2519C37.7032 45.849 42.5825 43.1127 42.6045 43.1407Z" fill="#E1E1E1"/>
<path d="M44.7492 45.8596C44.7711 45.8877 39.9277 48.6696 33.9327 52.0719C27.9352 55.4759 23.0572 58.2119 23.0351 58.1838C23.0132 58.156 27.8557 55.3747 33.8527 51.9709C39.8479 48.568 44.7271 45.8316 44.7492 45.8596Z" fill="#E1E1E1"/>
<path d="M143.268 80.1959L142.946 81.7656L130.852 80.4225L131.174 78.853L143.268 80.1959Z" fill="#E1E1E1"/>
<path d="M137.283 75.1262L138.896 75.3088L136.836 85.4912L135.223 85.3084L137.283 75.1262Z" fill="#E1E1E1"/>
<path d="M125.97 62.2385C125.992 62.2662 123.55 63.6848 120.516 65.4065C117.481 67.1287 115.003 68.5016 114.981 68.474C114.959 68.446 117.401 67.0277 120.436 65.3055C123.47 63.5838 125.948 62.2105 125.97 62.2385Z" fill="#E1E1E1"/>
<path d="M134.95 60.3282C134.972 60.356 130.908 62.6955 125.873 65.5532C120.837 68.4116 116.737 70.7053 116.715 70.6773C116.693 70.6495 120.757 68.3102 125.793 65.4519C130.828 62.5944 134.928 60.3002 134.95 60.3282Z" fill="#E1E1E1"/>
<path d="M136.751 62.6094C136.773 62.6373 132.708 64.9769 127.674 67.8345C122.637 70.6928 118.538 72.9865 118.515 72.9586C118.494 72.9307 122.557 70.5915 127.594 67.7331C132.629 64.8756 136.729 62.5813 136.751 62.6094Z" fill="#E1E1E1"/>
<path d="M138.55 64.8946C138.572 64.9224 134.508 67.2621 129.473 70.1197C124.436 72.9781 120.337 75.2717 120.315 75.2437C120.293 75.2159 124.356 72.8768 129.393 70.0183C134.428 67.1609 138.528 64.8664 138.55 64.8946Z" fill="#E1E1E1"/>
<path d="M140.351 67.1797C140.373 67.2077 136.308 69.5474 131.273 72.4049C126.237 75.2634 122.137 77.557 122.115 77.5292C122.093 77.5012 126.157 75.1621 131.193 72.3035C136.228 69.4463 140.329 67.1519 140.351 67.1797Z" fill="#E1E1E1"/>
<path d="M149.607 96.7434C149.607 96.775 116.114 96.8008 74.8067 96.8008C33.4856 96.8008 -0.000717163 96.775 -0.000717163 96.7434C-0.000717163 96.7117 33.4856 96.6857 74.8067 96.6857C116.114 96.6857 149.607 96.7117 149.607 96.7434Z" fill="#1A2E35"/>
<path d="M8.28026 82.9688C9.1564 82.9947 9.97889 83.3985 10.5568 83.9581C11.1346 84.5179 11.4889 85.2215 11.7156 85.9403C12.1541 87.3311 11.8846 88.9726 11.4171 90.3566C9.64331 89.8186 8.54924 88.2127 8.05455 87.3685C7.27273 86.0343 6.81432 83.2197 8.28026 82.9688Z" fill="#FF9671"/>
<path d="M13.9703 92.0432C13.4106 91.3612 13.3974 90.4127 13.84 89.671C14.2823 88.9293 15.1323 88.3944 16.0686 88.1505C16.5016 88.0377 17.0038 87.9901 17.3803 88.2037C17.7325 88.4032 17.8843 88.7947 17.839 89.1522C17.7936 89.5094 17.5804 89.8364 17.3287 90.1252C16.4663 91.1166 15.4171 91.9416 13.9703 92.0432Z" fill="#FF9671"/>
<path d="M14.1646 96.69C14.156 96.6911 14.1291 96.5879 14.0853 96.4012C14.0379 96.1949 13.9764 95.9283 13.9028 95.6083C13.7629 94.9418 13.5406 93.994 13.7088 92.9462C13.8702 91.9029 14.3594 91.0112 14.8723 90.4787C15.1249 90.2093 15.3665 90.0186 15.5453 89.9013C15.6318 89.8395 15.708 89.8017 15.7565 89.7726C15.8059 89.7449 15.8332 89.7317 15.8355 89.7348C15.8549 89.7533 15.4209 89.9803 14.9412 90.5236C14.4553 91.0578 13.9897 91.9344 13.8306 92.96C13.6652 93.9865 13.8699 94.9257 13.9884 95.5957C14.0519 95.9323 14.1032 96.205 14.1324 96.3944C14.162 96.5838 14.1726 96.6889 14.1646 96.69Z" fill="#8D9192"/>
<path d="M8.85211 85.086C8.856 85.0844 8.88036 85.1238 8.92363 85.2001C8.97079 85.2866 9.03143 85.3977 9.10632 85.5351C9.2631 85.827 9.48363 86.252 9.75054 86.7785C10.2851 87.8319 10.9996 89.2961 11.7454 90.9278C12.4906 92.56 13.126 94.0505 13.5681 95.1342C13.7892 95.6759 13.9638 96.1158 14.0799 96.4209C14.1336 96.5654 14.1771 96.6822 14.211 96.7733C14.2398 96.854 14.253 96.8971 14.2489 96.8982C14.245 96.8995 14.224 96.8586 14.1877 96.7801C14.1481 96.6908 14.0975 96.576 14.0348 96.4343C13.8998 96.1209 13.7138 95.6882 13.4862 95.159C13.0234 94.0817 12.3756 92.5966 11.6306 90.9654C10.8853 89.3348 10.1843 87.8675 9.67046 86.8071C9.41806 86.2858 9.21179 85.86 9.06253 85.5512C8.99619 85.4106 8.94255 85.2969 8.90083 85.2085C8.86507 85.1295 8.84822 85.0873 8.85211 85.086Z" fill="#8D9192"/>
<path d="M12.009 93.5423C11.0388 92.0058 9.13817 91.0008 7.08597 90.9401C6.56342 90.9245 5.92935 91.0243 5.67561 91.4486C5.42108 91.8734 5.71043 92.3557 6.05141 92.6854C7.46873 94.0566 9.95816 94.4655 12.0225 93.6665" fill="#FF9671"/>
<path d="M7.79884 92.1401C7.79936 92.1331 7.91597 92.1371 8.12717 92.1505C8.23289 92.1566 8.3622 92.1646 8.51043 92.1883C8.65788 92.2114 8.82994 92.2253 9.01289 92.2684C9.19714 92.3069 9.4003 92.3451 9.61072 92.4094C9.82503 92.4633 10.0453 92.5411 10.277 92.6243C10.7341 92.8005 11.2189 93.0312 11.6807 93.3308C12.1391 93.6341 12.5263 93.973 12.8411 94.3054C12.9924 94.4758 13.137 94.6373 13.2498 94.8014C13.3744 94.9591 13.4669 95.1175 13.5537 95.2609C13.647 95.4012 13.702 95.5404 13.7626 95.657C13.824 95.774 13.8624 95.8792 13.8929 95.9652C13.9559 96.1369 13.9865 96.2322 13.9785 96.2344C13.9523 96.2421 13.8261 95.8576 13.4768 95.2945C13.3858 95.1555 13.2905 95.0013 13.164 94.848C13.0495 94.6883 12.9038 94.5315 12.7527 94.3654C12.4382 94.0419 12.0559 93.7115 11.6056 93.4135C11.1521 93.1192 10.6776 92.8902 10.2303 92.712C10.0038 92.6278 9.78823 92.5479 9.57807 92.4914C9.37232 92.4243 9.17278 92.3828 8.99216 92.3401C8.26503 92.1839 7.79599 92.163 7.79884 92.1401Z" fill="#8D9192"/>
<path d="M55.0992 51.5864L45.9359 91.574L44.7363 96.8087L105.909 96.5527C108.654 96.541 111.087 94.4721 111.97 91.3982L122.817 53.6457C123.488 51.3122 122.017 48.885 119.933 48.8867L58.0191 48.9421C56.6522 48.9432 55.4568 50.0259 55.0992 51.5864Z" fill="#015C4C"/>
<path d="M100.04 88.8666L93.5631 44.566C93.2978 42.7509 91.5942 41.3969 89.5828 41.4024L75.3806 41.442C74.3295 41.4448 73.3217 41.824 72.5749 42.4977L65.8312 48.5828L26.3321 48.7576C23.9182 48.7682 22.0638 50.7069 22.3836 52.8851L28.3971 93.8301C28.6635 95.643 30.3637 96.995 32.3723 96.9917L101.211 96.8762C108.878 97.0111 109.61 95.0891 109.61 95.0891C100.823 96.7421 100.041 88.8716 100.04 88.8666Z" fill="#4F85EE"/>
<g opacity="0.5">
<path d="M70.357 79.9759L68.0119 82.1133L50.1541 68.4861L52.4996 66.3483L70.357 79.9759Z" fill="white"/>
<path d="M67.099 65.8746L69.6279 67.8048L53.4115 82.5902L50.883 80.66L67.099 65.8746Z" fill="white"/>
</g>
<path d="M109.87 22.8325C109.704 22.7724 109.585 22.6356 109.577 22.4726L109.473 20.4308C109.466 20.3023 109.531 20.1785 109.648 20.0967C109.765 20.0146 109.92 19.984 110.067 20.0137C110.454 20.0912 110.88 20.0197 111.237 19.8173C111.566 19.6312 111.786 19.3572 111.842 19.0655C111.898 18.7745 111.792 18.4527 111.551 18.1822C111.293 17.8927 110.912 17.6974 110.53 17.6602C109.75 17.5839 108.907 18.0913 108.691 18.7684C108.621 18.987 108.355 19.1161 108.097 19.0567C107.835 18.9956 107.687 18.7719 107.758 18.553C108.098 17.4891 109.392 16.7226 110.641 16.8449C111.289 16.9082 111.903 17.2153 112.323 17.6873C112.722 18.136 112.895 18.6863 112.797 19.1975C112.698 19.7133 112.325 20.1882 111.774 20.5001C111.376 20.7255 110.919 20.85 110.463 20.8636L110.543 22.4374C110.555 22.664 110.347 22.8553 110.081 22.865C110.006 22.8676 109.934 22.856 109.87 22.8325Z" fill="#FF9671"/>
<path d="M110.574 23.6695C110.591 23.856 110.431 24.0164 110.215 24.0275C110 24.0384 109.811 23.8957 109.793 23.7089C109.776 23.5224 109.937 23.362 110.152 23.3509C110.368 23.34 110.556 23.4827 110.574 23.6695Z" fill="#FF9671"/>
<path d="M101.542 19.9513C101.546 19.9513 101.554 19.906 101.566 19.8173C101.578 19.7218 101.595 19.5914 101.617 19.4243C101.628 19.25 101.681 19.04 101.742 18.7919C101.776 18.6687 101.794 18.5317 101.847 18.3931C101.897 18.2539 101.951 18.1056 102.008 17.949C102.259 17.3314 102.645 16.5906 103.296 15.8537C103.943 15.1182 104.852 14.3919 106.018 13.8414C106.592 13.5506 107.249 13.348 107.938 13.1692C108.638 13.0286 109.379 12.9081 110.153 12.9237C110.541 12.9061 110.931 12.9543 111.329 12.9827C111.528 12.9989 111.724 13.0438 111.924 13.0733C112.123 13.1047 112.324 13.1377 112.52 13.1956C113.32 13.3698 114.097 13.69 114.838 14.0871C116.324 14.8809 117.576 16.1724 118.263 17.7381C118.607 18.5216 118.772 19.38 118.771 20.2475C118.791 21.1164 118.593 21.9993 118.229 22.83L118.112 23.0812L118.096 23.1144L118.112 23.1454C118.762 24.4161 119.399 25.6624 120.017 26.8699L120.126 26.7648C118.788 26.3284 117.49 25.9052 116.245 25.4992L116.197 25.4836L116.159 25.5146C115.083 26.3999 113.797 26.9986 112.495 27.3105C111.189 27.6228 109.873 27.6389 108.677 27.4585C107.478 27.2784 106.398 26.8891 105.498 26.3887C104.595 25.8883 103.871 25.2799 103.313 24.6616C102.759 24.0365 102.394 23.3955 102.119 22.823C101.876 22.2379 101.727 21.7188 101.655 21.2888C101.625 21.0741 101.597 20.8832 101.574 20.7167C101.569 20.5522 101.564 20.4123 101.561 20.2964C101.557 20.1884 101.553 20.1033 101.551 20.0388C101.548 19.981 101.545 19.9513 101.542 19.9513C101.54 19.9513 101.538 19.9805 101.536 20.0386C101.535 20.103 101.534 20.1884 101.532 20.2968C101.532 20.4132 101.532 20.5539 101.531 20.7196C101.551 20.8874 101.574 21.0798 101.6 21.2963C101.664 21.7303 101.805 22.2559 102.043 22.8496C102.314 23.4305 102.676 24.0822 103.231 24.7192C103.79 25.3494 104.519 25.9705 105.432 26.483C106.342 26.9955 107.435 27.3961 108.652 27.5839C109.867 27.7717 111.204 27.7599 112.534 27.4456C113.861 27.1319 115.173 26.5253 116.273 25.6241L116.187 25.6395C117.431 26.0471 118.728 26.472 120.066 26.9102L120.261 26.9744L120.175 26.8053C119.558 25.5971 118.921 24.3508 118.272 23.0799L118.273 23.1439L118.392 22.8872C118.765 22.038 118.967 21.1351 118.946 20.2469C118.946 19.3605 118.777 18.4828 118.424 17.6829C117.72 16.0836 116.439 14.7694 114.923 13.9637C114.168 13.5607 113.375 13.2374 112.56 13.0621C112.361 13.0042 112.157 12.971 111.953 12.9398C111.75 12.9103 111.551 12.8652 111.349 12.8494C110.944 12.8217 110.547 12.7744 110.153 12.7935C109.366 12.7807 108.613 12.9057 107.904 13.0519C107.206 13.2365 106.54 13.4457 105.96 13.7435C104.78 14.3083 103.866 15.0505 103.219 15.7998C102.568 16.5508 102.186 17.3034 101.943 17.9294C101.889 18.088 101.837 18.238 101.789 18.3792C101.738 18.5196 101.722 18.6579 101.691 18.7824C101.634 19.0332 101.587 19.2452 101.581 19.4205C101.567 19.589 101.556 19.7203 101.548 19.8164C101.541 19.9055 101.539 19.9513 101.542 19.9513Z" fill="#8D9192"/>
<path d="M36.2113 18.077L34.9302 19.0436L29.9585 14.1656L31.2396 13.199L36.2113 18.077Z" fill="#FF9671"/>
<path d="M41.6237 19.1786L40.3426 20.1453L32.5229 12.3141L33.804 11.3474L41.6237 19.1786Z" fill="#00C9A7"/>
<path d="M32.8505 8.44526C32.8515 8.44847 32.897 8.44234 32.9853 8.4277C33.0801 8.41078 33.2096 8.38785 33.3755 8.35839C33.5453 8.31743 33.7613 8.30457 34.0165 8.28923C34.1442 8.28454 34.2803 8.26088 34.4285 8.27013C34.5764 8.27647 34.7339 8.28333 34.9003 8.29065C35.5647 8.34534 36.3872 8.49276 37.285 8.89384C38.1802 9.29062 39.145 9.94065 40.0191 10.889C40.4683 11.3501 40.8581 11.9166 41.2347 12.5204C41.578 13.1458 41.9147 13.8172 42.1314 14.561C42.2641 14.9256 42.3348 15.3124 42.4268 15.7008C42.4707 15.8953 42.4864 16.0954 42.518 16.2949C42.5476 16.4947 42.5762 16.6962 42.5795 16.9002C42.6525 17.7156 42.5793 18.553 42.4219 19.3787C42.1089 21.0344 41.2508 22.6152 39.9621 23.7387C39.3175 24.3019 38.5475 24.7156 37.7193 24.9738C36.8965 25.2533 35.9947 25.3282 35.093 25.2289L34.8183 25.1922L34.782 25.1876L34.7571 25.212C33.7389 26.2121 32.7403 27.1931 31.7727 28.1437L31.9056 28.2161C31.9219 26.8086 31.9377 25.4437 31.9529 24.1344L31.9534 24.0839L31.9125 24.0571C30.7458 23.2944 29.7899 22.2464 29.103 21.0974C28.4144 19.9445 28.0057 18.6938 27.8201 17.4982C27.6334 16.3002 27.6821 15.1536 27.8905 14.1452C28.098 13.1338 28.462 12.2609 28.8851 11.5434C29.316 10.8278 29.8184 10.2877 30.2825 9.85392C30.7682 9.44726 31.219 9.1501 31.6079 8.95302C31.8035 8.85941 31.9776 8.77635 32.1294 8.70406C32.285 8.65017 32.4171 8.60413 32.5267 8.56601C32.6285 8.52976 32.7087 8.50109 32.7694 8.47935C32.8238 8.45933 32.8512 8.44773 32.8505 8.44526C32.8498 8.44303 32.8212 8.4498 32.7654 8.46568C32.7036 8.48396 32.6217 8.508 32.5177 8.53894C32.4066 8.57348 32.2721 8.61508 32.114 8.66436C31.9598 8.73359 31.783 8.8129 31.5842 8.90234C31.1892 9.09319 30.7299 9.3854 30.2344 9.78942C29.761 10.2215 29.2474 10.7621 28.8056 11.4823C28.3715 12.2043 27.9967 13.0857 27.7806 14.1098C27.5636 15.1313 27.5084 16.2946 27.6931 17.5122C27.877 18.7274 28.2882 19.9998 28.9859 21.1753C29.6818 22.3471 30.6531 23.4179 31.8419 24.1982L31.8016 24.1209C31.7847 25.43 31.7669 26.7945 31.7488 28.2019L31.746 28.4078L31.8816 28.2747C32.8501 27.3249 33.8489 26.3446 34.8676 25.3454L34.8067 25.3651L35.0873 25.402C36.0091 25.5037 36.9311 25.4263 37.7724 25.1407C38.6184 24.8764 39.4051 24.4518 40.063 23.876C41.3787 22.7264 42.2498 21.1111 42.5652 19.4231C42.7238 18.5818 42.7953 17.7287 42.7191 16.8991C42.7146 16.6914 42.6852 16.4866 42.6543 16.2834C42.6216 16.0805 42.605 15.8768 42.5598 15.6794C42.4652 15.2849 42.3915 14.8917 42.2556 14.522C42.0324 13.767 41.688 13.0857 41.3365 12.4532C40.9514 11.8414 40.5529 11.2692 40.0951 10.8041C39.2033 9.84741 38.2217 9.19667 37.3133 8.80379C36.4019 8.40667 35.5695 8.2675 34.8996 8.22298C34.732 8.21847 34.5734 8.21412 34.4242 8.2101C34.2751 8.2036 34.1384 8.23013 34.0102 8.23719C33.7541 8.25851 33.5377 8.27716 33.3686 8.32364C33.2036 8.36067 33.075 8.3893 32.9808 8.41013C32.8938 8.43059 32.8495 8.44229 32.8505 8.44526Z" fill="#8D9192"/>
</g>
<defs>
<clipPath id="clip0_2722_142346">
<rect width="156" height="97" fill="white"/>
</clipPath>
</defs>
</svg>
