<svg width="341" height="222" viewBox="0 0 341 222" fill="none" xmlns="http://www.w3.org/2000/svg">
<path d="M302.826 128.729C303.934 105.549 293.161 82.0886 269.416 70.9238C257.696 65.4113 243.992 62.1822 230.28 62.6579C215.57 63.1672 201.721 67.7954 187.85 71.6121C173.98 75.4289 158.958 78.4789 144.66 75.7702C134.315 73.8115 125.215 68.9706 114.979 66.7657C74.6484 58.0857 39.5302 93.4604 59.2647 121.582C64.1079 128.477 71.5717 134.006 77.8482 140.179C84.1247 146.352 89.3877 153.806 88.5407 161.624C87.8168 168.099 83.0678 173.864 81.0914 180.176C77.3125 192.27 84.8125 205.573 97.7782 212.943C110.744 220.314 128.234 222.032 143.871 218.998C159.508 215.965 173.263 208.544 184.1 199.355C189.892 194.43 195.568 188.677 203.9 187.004C211.9 185.403 220.145 188.011 228.261 189.209C235.763 190.282 243.47 190.16 250.91 188.851C258.35 187.543 265.367 185.075 271.53 181.598C291.113 170.399 301.827 149.676 302.826 128.729Z" fill="white" fill-opacity="0.05"/>
<path opacity="0.7" d="M302.826 128.729C303.934 105.549 293.161 82.0886 269.416 70.9238C257.696 65.4113 243.992 62.1822 230.28 62.6579C215.57 63.1672 201.721 67.7954 187.85 71.6121C173.98 75.4289 158.958 78.4789 144.66 75.7702C134.315 73.8115 125.215 68.9706 114.979 66.7657C74.6484 58.0857 39.5302 93.4604 59.2647 121.582C64.1079 128.477 71.5717 134.006 77.8482 140.179C84.1247 146.352 89.3877 153.806 88.5407 161.624C87.8168 168.099 83.0678 173.864 81.0914 180.176C77.3125 192.27 84.8125 205.573 97.7782 212.943C110.744 220.314 128.234 222.032 143.871 218.998C159.508 215.965 173.263 208.544 184.1 199.355C189.892 194.43 195.568 188.677 203.9 187.004C211.9 185.403 220.145 188.011 228.261 189.209C235.763 190.282 243.47 190.16 250.91 188.851C258.35 187.543 265.367 185.075 271.53 181.598C291.113 170.399 301.827 149.676 302.826 128.729Z" fill="white" fill-opacity="0.05"/>
<path d="M286.937 141.617L318.273 120.899L332.072 125.471L286.937 141.617Z" fill="#FFC100"/>
<path d="M286.937 141.618L314.021 118.303L307.999 111.125L286.937 141.618Z" fill="#FFC100"/>
<path d="M314.021 118.303V123.706L286.937 141.618L314.021 118.303Z" fill="#FFC100"/>
<path opacity="0.25" d="M314.021 118.303V123.706L286.937 141.618L314.021 118.303Z" fill="black"/>
<path d="M320.416 115.166C320.289 115.168 320.163 115.14 320.047 115.087C319.93 115.033 319.827 114.954 319.743 114.856C319.666 114.764 319.607 114.658 319.571 114.543C319.534 114.428 319.519 114.306 319.529 114.185C319.538 114.065 319.57 113.947 319.623 113.839C319.677 113.731 319.751 113.635 319.84 113.557C320.381 113.073 320.921 112.57 321.443 112.058C321.616 111.911 321.836 111.837 322.059 111.85C322.282 111.864 322.492 111.964 322.647 112.13C322.801 112.297 322.889 112.518 322.893 112.749C322.896 112.979 322.815 113.203 322.666 113.374C322.117 113.914 321.567 114.435 320.992 114.947C320.831 115.089 320.627 115.166 320.416 115.166Z" fill="#E0E0E0"/>
<path d="M325.101 110.376C324.886 110.375 324.678 110.294 324.517 110.147C324.341 109.987 324.234 109.761 324.219 109.519C324.204 109.278 324.282 109.04 324.437 108.858C325.323 107.761 326.271 106.599 327.094 105.402C327.163 105.305 327.25 105.223 327.35 105.161C327.45 105.099 327.561 105.058 327.676 105.041C327.791 105.023 327.908 105.028 328.021 105.057C328.134 105.087 328.241 105.138 328.334 105.21C328.428 105.281 328.507 105.371 328.567 105.474C328.627 105.577 328.667 105.691 328.684 105.81C328.701 105.929 328.696 106.05 328.668 106.167C328.64 106.283 328.589 106.393 328.52 106.49C327.635 107.733 326.696 108.931 325.739 110.065C325.659 110.159 325.561 110.235 325.452 110.288C325.342 110.342 325.223 110.372 325.101 110.376ZM330.292 103.134C330.129 103.133 329.969 103.086 329.831 102.997C329.732 102.934 329.646 102.85 329.578 102.753C329.51 102.655 329.462 102.544 329.436 102.427C329.409 102.31 329.406 102.188 329.425 102.07C329.444 101.951 329.486 101.837 329.548 101.735C330.292 100.501 331.018 99.2026 331.691 97.886C331.803 97.6773 331.99 97.5223 332.212 97.454C332.434 97.3857 332.672 97.4097 332.877 97.5208C333.082 97.6318 333.236 97.8212 333.308 98.0483C333.379 98.2755 333.361 98.5224 333.259 98.7363C332.559 100.099 331.815 101.434 331.044 102.704C330.965 102.836 330.854 102.945 330.722 103.02C330.59 103.095 330.442 103.134 330.292 103.134ZM334.375 95.1705C334.252 95.1706 334.131 95.1425 334.02 95.0882C333.914 95.0397 333.818 94.9699 333.737 94.8829C333.657 94.796 333.594 94.6935 333.552 94.5815C333.51 94.4694 333.49 94.3498 333.493 94.2297C333.496 94.1096 333.521 93.9912 333.569 93.8813C334.136 92.5373 334.685 91.1384 335.172 89.7578C335.256 89.5364 335.421 89.3577 335.631 89.2597C335.841 89.1618 336.08 89.1523 336.297 89.2332C336.514 89.3142 336.692 89.4792 336.792 89.6933C336.893 89.9073 336.909 90.1535 336.837 90.3795C336.332 91.815 335.774 93.2413 335.181 94.6219C335.112 94.7841 334.999 94.9222 334.856 95.0196C334.713 95.1169 334.546 95.1694 334.375 95.1705ZM337.368 86.6949C337.286 86.7082 337.202 86.7082 337.12 86.6949C336.895 86.627 336.705 86.4694 336.592 86.2568C336.479 86.0441 336.452 85.7939 336.518 85.5611C336.917 84.1531 337.28 82.6993 337.599 81.2547C337.624 81.1347 337.672 81.021 337.741 80.9202C337.809 80.8193 337.895 80.7334 337.996 80.6671C338.096 80.6009 338.208 80.5557 338.325 80.5342C338.443 80.5126 338.563 80.5152 338.679 80.5416C338.795 80.568 338.906 80.6178 339.003 80.6881C339.101 80.7585 339.184 80.848 339.248 80.9516C339.312 81.0552 339.356 81.1708 339.377 81.2918C339.398 81.4129 339.396 81.537 339.37 81.657C339.042 83.1382 338.67 84.6285 338.263 86.0732C338.201 86.264 338.08 86.4283 337.918 86.5407C337.756 86.6532 337.563 86.7073 337.368 86.6949ZM339.29 77.8992H339.149C339.033 77.8803 338.923 77.8381 338.823 77.7749C338.724 77.7118 338.637 77.629 338.569 77.5313C338.501 77.4336 338.452 77.3229 338.425 77.2056C338.398 77.0883 338.394 76.9667 338.413 76.8478C338.635 75.394 338.821 73.9128 338.954 72.4316C338.976 72.1891 339.091 71.9657 339.273 71.8106C339.454 71.6554 339.689 71.5812 339.924 71.6042C340.158 71.6272 340.375 71.7457 340.525 71.9334C340.675 72.1212 340.747 72.3629 340.725 72.6054C340.583 74.1231 340.389 75.65 340.158 77.1769C340.116 77.3817 340.006 77.5652 339.848 77.6967C339.69 77.8282 339.493 77.8997 339.29 77.8992ZM340.114 68.9207C339.879 68.9207 339.654 68.8244 339.488 68.6529C339.322 68.4814 339.228 68.2489 339.228 68.0064C339.228 67.3024 339.228 66.5983 339.228 65.8943C339.228 65.1903 339.228 64.34 339.228 63.5537C339.228 63.3112 339.322 63.0786 339.488 62.9072C339.654 62.7357 339.879 62.6394 340.114 62.6394C340.349 62.6394 340.574 62.7357 340.74 62.9072C340.906 63.0786 341 63.3112 341 63.5537C341 64.3583 341 65.1537 341 65.9583C341 66.7629 341 67.4029 341 68.1252C340.976 68.3499 340.872 68.5574 340.708 68.7077C340.545 68.8579 340.333 68.9403 340.114 68.939V68.9207ZM339.804 59.9147C339.584 59.9159 339.371 59.8322 339.207 59.68C339.043 59.5279 338.94 59.3182 338.918 59.0919C338.768 57.6107 338.573 56.1295 338.325 54.6849C338.285 54.4424 338.34 54.1935 338.478 53.9928C338.616 53.7922 338.825 53.6564 339.06 53.6151C339.295 53.5739 339.536 53.6307 339.73 53.773C339.925 53.9153 340.056 54.1315 340.096 54.374C340.353 55.8552 340.557 57.3821 340.707 58.9456C340.72 59.065 340.709 59.1859 340.676 59.3011C340.643 59.4163 340.588 59.5237 340.515 59.6171C340.442 59.7105 340.352 59.7881 340.249 59.8454C340.147 59.9028 340.035 59.9388 339.919 59.9513L339.804 59.9147ZM338.289 51.0276C338.088 51.0342 337.891 50.9699 337.73 50.8452C337.569 50.7206 337.454 50.5431 337.404 50.3419C337.049 48.8973 336.642 47.471 336.19 46.0812C336.144 45.9656 336.121 45.8412 336.123 45.716C336.124 45.5907 336.151 45.4672 336.201 45.353C336.251 45.2389 336.323 45.1366 336.413 45.0525C336.503 44.9684 336.609 44.9042 336.724 44.8641C336.839 44.8239 336.961 44.8085 337.082 44.8189C337.203 44.8293 337.32 44.8653 337.427 44.9245C337.534 44.9838 337.628 45.0651 337.703 45.1634C337.778 45.2617 337.833 45.375 337.864 45.4961C338.334 46.9315 338.75 48.4036 339.122 49.8939C339.155 50.0308 339.157 50.1737 339.127 50.3114C339.097 50.4491 339.037 50.5779 338.952 50.6877C338.866 50.7975 338.757 50.8853 338.633 50.9443C338.508 51.0032 338.373 51.0318 338.236 51.0276H338.289ZM335.473 42.488C335.3 42.4886 335.131 42.437 334.986 42.3395C334.841 42.242 334.727 42.103 334.658 41.9394C334.091 40.5771 333.462 39.1965 332.789 37.953C332.672 37.7396 332.641 37.4868 332.704 37.2502C332.768 37.0136 332.919 36.8125 333.126 36.6913C333.333 36.57 333.577 36.5385 333.807 36.6037C334.036 36.6688 334.231 36.8253 334.348 37.0387C335.048 38.3736 335.694 39.7816 336.288 41.1714C336.379 41.3945 336.381 41.6459 336.293 41.8705C336.205 42.0951 336.034 42.2744 335.818 42.3691C335.713 42.4354 335.595 42.4761 335.473 42.488ZM331.337 34.5609C331.189 34.5617 331.044 34.5244 330.914 34.4526C330.784 34.3807 330.674 34.2765 330.593 34.1495C329.819 32.9032 328.986 31.6978 328.095 30.538C328.022 30.4439 327.968 30.3358 327.935 30.2199C327.903 30.1041 327.893 29.9827 327.906 29.8629C327.919 29.7431 327.955 29.6271 328.012 29.5217C328.069 29.4163 328.145 29.3236 328.237 29.2488C328.42 29.0993 328.654 29.0308 328.886 29.0582C329.118 29.0856 329.331 29.2067 329.477 29.3951C330.362 30.5745 331.248 31.8271 332.134 33.1072C332.222 33.2447 332.272 33.4041 332.279 33.5686C332.286 33.7331 332.25 33.8965 332.175 34.0417C332.1 34.1868 331.988 34.3083 331.851 34.3932C331.715 34.4782 331.558 34.5235 331.399 34.5243L331.337 34.5609ZM325.881 27.5207C325.762 27.5203 325.644 27.4949 325.534 27.4462C325.424 27.3975 325.326 27.3264 325.243 27.2373C324.269 26.1858 323.233 25.1435 322.152 24.1469C321.977 23.9832 321.872 23.7545 321.861 23.511C321.849 23.2675 321.932 23.0293 322.09 22.8486C322.249 22.668 322.47 22.5597 322.706 22.5477C322.942 22.5357 323.173 22.6209 323.348 22.7846C324.455 23.8178 325.527 24.8967 326.527 25.9755C326.647 26.1054 326.728 26.2689 326.758 26.4456C326.789 26.6222 326.768 26.8043 326.699 26.969C326.631 27.1337 326.516 27.2739 326.371 27.372C326.225 27.4701 326.055 27.5218 325.881 27.5207ZM319.406 21.468C319.208 21.466 319.016 21.3988 318.857 21.276C317.75 20.3617 316.581 19.4474 315.394 18.6245C315.287 18.5623 315.193 18.4776 315.119 18.3759C315.046 18.2742 314.993 18.1577 314.965 18.0339C314.937 17.91 314.935 17.7816 314.958 17.6567C314.981 17.5318 315.029 17.4132 315.099 17.3085C315.169 17.2038 315.259 17.1154 315.364 17.0487C315.469 16.9821 315.586 16.9387 315.708 16.9215C315.83 16.9042 315.954 16.9134 316.072 16.9484C316.191 16.9835 316.301 17.0436 316.395 17.125C317.626 18.0393 318.822 18.9536 319.938 19.868C320.122 20.0175 320.241 20.2361 320.269 20.4759C320.297 20.7158 320.232 20.9574 320.088 21.148C320.007 21.246 319.907 21.3252 319.794 21.3804C319.681 21.4356 319.558 21.4654 319.433 21.468H319.406ZM312.232 16.3296C312.07 16.3284 311.91 16.281 311.772 16.1924C310.558 15.4336 309.301 14.6838 308.025 13.9707C307.835 13.8478 307.697 13.655 307.639 13.4311C307.582 13.2073 307.608 12.9692 307.714 12.7649C307.82 12.5605 307.997 12.4052 308.209 12.3304C308.421 12.2555 308.653 12.2666 308.858 12.3615C310.169 13.0929 311.462 13.8518 312.693 14.6381C312.856 14.7426 312.982 14.899 313.052 15.0838C313.121 15.2686 313.131 15.4718 313.079 15.6627C313.027 15.8536 312.916 16.0219 312.764 16.1422C312.611 16.2625 312.424 16.3282 312.232 16.3296ZM304.545 12.0415C304.413 12.0407 304.283 12.0094 304.164 11.95C302.871 11.3192 301.507 10.7066 300.214 10.1214C300.106 10.0752 300.008 10.0075 299.926 9.92233C299.844 9.83712 299.779 9.73602 299.734 9.62479C299.69 9.51357 299.667 9.39441 299.667 9.27411C299.667 9.15381 299.691 9.03473 299.735 8.92367C299.78 8.8126 299.846 8.71173 299.928 8.62681C300.011 8.54189 300.109 8.47459 300.216 8.42874C300.324 8.3829 300.44 8.35941 300.556 8.35961C300.673 8.35982 300.788 8.38371 300.896 8.42994C302.251 9.0151 303.606 9.64597 304.925 10.2586C305.105 10.3486 305.251 10.4988 305.337 10.6849C305.424 10.871 305.447 11.0819 305.403 11.2833C305.359 11.4847 305.25 11.6647 305.094 11.7941C304.938 11.9235 304.745 11.9945 304.545 11.9957V12.0415ZM215.09 9.77398C214.878 9.77797 214.671 9.70331 214.508 9.56355C214.345 9.42379 214.236 9.22822 214.2 9.01238C214.165 8.79653 214.206 8.57475 214.315 8.38734C214.425 8.19992 214.596 8.05931 214.798 7.99107C216.179 7.47906 217.579 6.99447 218.96 6.53732C219.073 6.49115 219.194 6.46938 219.315 6.47337C219.436 6.47735 219.555 6.50701 219.665 6.56049C219.775 6.61397 219.873 6.69013 219.953 6.78427C220.033 6.8784 220.093 6.9885 220.13 7.10773C220.167 7.22695 220.18 7.35277 220.168 7.47738C220.156 7.60199 220.12 7.72274 220.061 7.83213C220.002 7.94153 219.921 8.03724 219.825 8.11334C219.729 8.18943 219.618 8.24429 219.501 8.27451C218.145 8.72252 216.764 9.18882 215.391 9.71912C215.308 9.75046 215.222 9.76895 215.134 9.77398H215.09ZM296.503 8.59451C296.399 8.59533 296.296 8.57352 296.201 8.53051C294.873 8.02764 293.491 7.54306 292.101 7.0859C291.981 7.05835 291.868 7.00537 291.769 6.93034C291.67 6.85531 291.587 6.75986 291.526 6.65005C291.465 6.54024 291.426 6.41847 291.413 6.29247C291.399 6.16647 291.412 6.039 291.449 5.91814C291.486 5.79728 291.547 5.68567 291.627 5.59041C291.708 5.49514 291.808 5.4183 291.919 5.36475C292.03 5.31121 292.151 5.28213 292.274 5.27937C292.397 5.27661 292.519 5.30023 292.632 5.34872C294.049 5.81501 295.457 6.30874 296.813 6.82076C297.033 6.89435 297.217 7.0543 297.325 7.26627C297.432 7.47825 297.455 7.72534 297.388 7.9545C297.33 8.14715 297.211 8.31442 297.051 8.43019C296.891 8.54597 296.698 8.60375 296.503 8.59451ZM223.451 7.04019C223.334 7.057 223.216 7.04999 223.102 7.01957C222.989 6.98916 222.882 6.93592 222.788 6.86291C222.694 6.78989 222.616 6.69853 222.556 6.59403C222.496 6.48953 222.457 6.37395 222.441 6.25388C222.425 6.13381 222.432 6.01161 222.461 5.89425C222.491 5.77689 222.542 5.66666 222.613 5.56987C222.684 5.47309 222.772 5.39163 222.873 5.33015C222.974 5.26867 223.086 5.22838 223.203 5.21157C224.593 4.80013 226.028 4.40697 227.454 4.03211C227.678 3.98427 227.912 4.02792 228.105 4.15392C228.299 4.27991 228.438 4.47846 228.493 4.7079C228.548 4.93734 228.515 5.17985 228.4 5.38455C228.286 5.58926 228.099 5.74026 227.879 5.80587C226.471 6.17159 225.063 6.56475 223.69 6.96704C223.615 6.99164 223.538 7.00398 223.46 7.00361L223.451 7.04019ZM288.186 5.85159C288.109 5.86107 288.032 5.86107 287.956 5.85159C286.583 5.46758 285.175 5.10185 283.749 4.76356C283.514 4.71021 283.309 4.56272 283.179 4.35353C283.05 4.14434 283.006 3.89059 283.058 3.6481C283.109 3.40561 283.252 3.19424 283.455 3.0605C283.658 2.92676 283.903 2.88159 284.138 2.93494C285.591 3.28238 287.026 3.6481 288.416 4.04125C288.651 4.07278 288.864 4.19934 289.009 4.39309C289.153 4.58685 289.217 4.83193 289.187 5.07442C289.156 5.31691 289.034 5.53695 288.846 5.68612C288.658 5.8353 288.421 5.9014 288.186 5.86987V5.85159ZM231.936 4.80927C231.701 4.83473 231.466 4.76282 231.282 4.60936C231.099 4.4559 230.982 4.23345 230.957 3.99096C230.932 3.74847 231.002 3.5058 231.151 3.31633C231.299 3.12686 231.515 3.00611 231.75 2.98065C233.176 2.66064 234.628 2.36806 236.054 2.06634C236.17 2.04473 236.29 2.04698 236.405 2.07296C236.521 2.09894 236.63 2.14815 236.727 2.21777C236.824 2.28739 236.907 2.37606 236.971 2.47871C237.035 2.58137 237.078 2.69601 237.099 2.81608C237.12 2.93615 237.118 3.0593 237.093 3.1785C237.068 3.2977 237.02 3.41061 236.953 3.51079C236.885 3.61098 236.799 3.69647 236.7 3.76238C236.6 3.8283 236.489 3.87335 236.373 3.89496C234.965 4.16011 233.53 4.45269 232.122 4.80927H231.936ZM279.674 3.82182H279.506C278.116 3.54752 276.672 3.30066 275.228 3.09037C275.113 3.07251 275.002 3.03136 274.903 2.96927C274.803 2.90719 274.716 2.82539 274.647 2.72857C274.578 2.63174 274.528 2.5218 274.5 2.40502C274.472 2.28825 274.467 2.16694 274.484 2.04806C274.519 1.80968 274.644 1.59523 274.832 1.45139C275.019 1.30755 275.254 1.24597 275.485 1.28004C276.955 1.49947 278.417 1.74633 279.834 2.02063C280.069 2.04245 280.286 2.15971 280.437 2.34661C280.588 2.53351 280.661 2.77474 280.64 3.01723C280.619 3.25972 280.505 3.4836 280.324 3.63964C280.143 3.79567 279.909 3.87107 279.674 3.84925V3.82182ZM240.527 3.20008C240.292 3.21827 240.06 3.13938 239.881 2.98078C239.703 2.82217 239.592 2.59684 239.575 2.35435C239.557 2.11186 239.634 1.87208 239.787 1.68775C239.941 1.50342 240.159 1.38965 240.394 1.37146C241.847 1.15203 243.317 0.960028 244.76 0.795452C244.877 0.782245 244.994 0.792814 245.107 0.82656C245.219 0.860306 245.324 0.916568 245.415 0.99213C245.507 1.06769 245.583 1.16108 245.639 1.26695C245.695 1.37283 245.731 1.48912 245.744 1.60919C245.756 1.72926 245.746 1.85075 245.713 1.96673C245.681 2.08272 245.626 2.19092 245.553 2.28516C245.48 2.3794 245.389 2.45783 245.287 2.51598C245.184 2.57414 245.072 2.61086 244.955 2.62407C243.529 2.78865 242.086 2.98065 240.651 3.20008H240.527ZM271.012 2.5235H270.924C269.507 2.36806 268.054 2.24006 266.602 2.13949C266.485 2.13137 266.371 2.09959 266.267 2.04597C266.163 1.99235 266.069 1.91795 265.993 1.82705C265.916 1.73614 265.858 1.63052 265.821 1.51624C265.784 1.40197 265.769 1.2813 265.778 1.16117C265.786 1.041 265.817 0.923618 265.869 0.815765C265.92 0.707912 265.993 0.611718 266.081 0.532705C266.169 0.453692 266.271 0.393419 266.382 0.355349C266.492 0.317279 266.609 0.302161 266.726 0.310866C268.205 0.420583 269.675 0.548588 271.11 0.713164C271.226 0.725711 271.338 0.761683 271.44 0.81903C271.542 0.876377 271.633 0.953972 271.706 1.04738C271.779 1.14078 271.834 1.24817 271.867 1.36339C271.9 1.47862 271.91 1.59942 271.898 1.7189C271.872 1.94191 271.767 2.1472 271.604 2.2956C271.44 2.44399 271.23 2.52512 271.012 2.5235ZM249.198 2.19435C248.975 2.19508 248.759 2.10886 248.595 1.95291C248.431 1.79696 248.33 1.58278 248.312 1.35318C248.302 1.23304 248.316 1.1121 248.352 0.99733C248.387 0.882563 248.445 0.776229 248.521 0.684452C248.596 0.592676 248.689 0.517268 248.793 0.462568C248.897 0.407868 249.01 0.374955 249.127 0.365725C250.597 0.256008 252.067 0.164576 253.555 0.100575C253.79 0.100575 254.016 0.196903 254.182 0.368369C254.348 0.539836 254.441 0.772395 254.441 1.01488C254.441 1.25737 254.348 1.48993 254.182 1.6614C254.016 1.83287 253.79 1.92919 253.555 1.92919C252.129 1.9932 250.668 2.08463 249.224 2.19435H249.198ZM262.297 1.89262C261.031 1.89262 259.755 1.82862 258.506 1.82862H257.957C257.722 1.82862 257.497 1.73229 257.331 1.56083C257.165 1.38936 257.072 1.1568 257.072 0.91431C257.072 0.67182 257.165 0.439264 257.331 0.267798C257.497 0.0963316 257.722 0 257.957 0H258.515C259.782 0 261.075 -2.79298e-07 262.359 0.0640014C262.594 0.0640014 262.819 0.160333 262.985 0.331799C263.152 0.503266 263.245 0.735821 263.245 0.978311C263.245 1.2208 263.152 1.45336 262.985 1.62483C262.819 1.79629 262.594 1.89262 262.359 1.89262H262.297Z" fill="#E0E0E0" fill-opacity="0.6"/>
<path d="M208.916 12.2519C208.713 12.2494 208.517 12.1748 208.36 12.0407C208.204 11.9066 208.097 11.721 208.058 11.5151C208.018 11.3093 208.049 11.0957 208.144 10.9102C208.239 10.7247 208.393 10.5786 208.58 10.4964L210.643 9.58209C210.752 9.5378 210.868 9.51616 210.985 9.51841C211.102 9.52066 211.217 9.54676 211.324 9.5952C211.431 9.64365 211.528 9.71348 211.609 9.80067C211.689 9.88787 211.753 9.9907 211.795 10.1032C211.838 10.2155 211.859 10.3353 211.856 10.456C211.854 10.5766 211.829 10.6956 211.782 10.8061C211.735 10.9165 211.668 11.0163 211.583 11.0997C211.499 11.1831 211.399 11.2484 211.29 11.2919L209.253 12.1422C209.148 12.2004 209.034 12.2376 208.916 12.2519Z" fill="#E0E0E0"/>
<path d="M47.4644 98.5955L88.1973 77.987L58.8278 106.824L47.4644 98.5955Z" fill="#FFC100"/>
<path d="M88.197 77.987L43.2837 93.2377L31.938 85.0089L88.197 77.987Z" fill="#FFC100"/>
<path d="M43.2832 93.2377L45.0634 105.014L47.4637 98.5955L88.1966 77.987L43.2832 93.2377Z" fill="#FFC100"/>
<path opacity="0.25" d="M43.2832 93.2377L45.0634 105.014L47.4637 98.5955L88.1966 77.987L43.2832 93.2377Z" fill="black"/>
<path d="M45.064 105.014L51.2549 101.339L47.4642 98.5956L45.064 105.014Z" fill="#FFC100"/>
<path opacity="0.25" d="M47.4644 98.5956L51.2551 101.339L50.2631 101.924L47.4644 98.5956Z" fill="black"/>
<path d="M50.5287 222C50.426 222 50.3241 221.981 50.2275 221.945C48.7927 221.415 47.3933 220.866 46.0559 220.327C45.8375 220.237 45.6625 220.061 45.5695 219.839C45.4764 219.616 45.473 219.364 45.5599 219.138C45.6468 218.913 45.817 218.732 46.0329 218.636C46.2488 218.54 46.4929 218.536 46.7113 218.626C48.0221 219.157 49.3684 219.696 50.8298 220.226C51.0255 220.3 51.1899 220.442 51.2942 220.628C51.3985 220.814 51.4359 221.032 51.4 221.244C51.3641 221.455 51.257 221.647 51.0977 221.785C50.9383 221.924 50.7369 222 50.5287 222ZM42.3006 218.626C42.1789 218.627 42.0583 218.602 41.9463 218.553C40.5646 217.922 39.2095 217.273 37.8987 216.615C37.6873 216.508 37.5256 216.319 37.4492 216.089C37.3728 215.859 37.3879 215.608 37.4913 215.39C37.5946 215.171 37.7777 215.004 38.0003 214.926C38.2229 214.847 38.4667 214.862 38.6781 214.969C39.9624 215.618 41.3352 216.258 42.6637 216.88C42.8475 216.966 42.9971 217.115 43.0878 217.301C43.1785 217.487 43.2049 217.7 43.1625 217.904C43.1201 218.108 43.0115 218.29 42.8548 218.422C42.698 218.553 42.5025 218.625 42.3006 218.626ZM34.3294 214.603C34.181 214.604 34.0348 214.566 33.9042 214.494C32.5846 213.744 31.2472 212.967 30.0338 212.171C29.8734 212.032 29.7659 211.839 29.7303 211.626C29.6948 211.413 29.7336 211.194 29.8398 211.007C29.946 210.821 30.1127 210.679 30.3104 210.608C30.508 210.537 30.7238 210.54 30.9195 210.617C32.1417 211.394 33.4171 212.153 34.7102 212.884C34.884 212.981 35.0215 213.135 35.1008 213.322C35.1801 213.509 35.1966 213.718 35.1477 213.915C35.0989 214.113 34.9874 214.288 34.8311 214.412C34.6748 214.537 34.4826 214.604 34.2851 214.603H34.3294ZM26.801 209.803C26.6204 209.803 26.4442 209.745 26.2962 209.639C25.0562 208.724 23.8517 207.81 22.7003 206.896C22.5112 206.739 22.39 206.512 22.3634 206.263C22.3368 206.014 22.407 205.765 22.5585 205.57C22.7101 205.375 22.9305 205.25 23.1713 205.222C23.4122 205.195 23.6537 205.267 23.8428 205.424C24.9588 206.338 26.1367 207.252 27.3856 208.112C27.54 208.223 27.656 208.382 27.7168 208.566C27.7777 208.75 27.7801 208.949 27.7238 209.135C27.6676 209.32 27.5555 209.482 27.4039 209.598C27.2523 209.713 27.069 209.775 26.8807 209.776L26.801 209.803ZM19.8838 204.116C19.6643 204.116 19.4528 204.031 19.2903 203.878C18.1744 202.827 17.1027 201.739 16.093 200.623C15.9513 200.444 15.8805 200.217 15.8949 199.986C15.9093 199.755 16.0078 199.539 16.1705 199.38C16.3333 199.222 16.5482 199.132 16.7721 199.131C16.996 199.129 17.2122 199.215 17.3773 199.371C18.3604 200.45 19.4055 201.51 20.486 202.525C20.6187 202.65 20.7117 202.813 20.7526 202.993C20.7936 203.173 20.7805 203.362 20.7153 203.535C20.65 203.707 20.5355 203.855 20.3871 203.959C20.2386 204.063 20.0631 204.117 19.8838 204.116ZM13.8256 197.478C13.6926 197.478 13.5614 197.446 13.4418 197.386C13.3222 197.326 13.2173 197.239 13.1348 197.131C12.196 195.933 11.3014 194.68 10.4777 193.4C10.4126 193.301 10.3671 193.189 10.3439 193.071C10.3206 192.953 10.3201 192.832 10.3423 192.714C10.3645 192.596 10.409 192.483 10.4733 192.383C10.5376 192.283 10.6203 192.197 10.7169 192.13C10.8134 192.062 10.9218 192.015 11.0359 191.991C11.15 191.967 11.2676 191.967 11.3819 191.99C11.4963 192.013 11.6051 192.059 11.7022 192.125C11.7993 192.191 11.8828 192.277 11.948 192.376C12.7539 193.611 13.6308 194.827 14.5342 196.034C14.68 196.222 14.7479 196.462 14.723 196.702C14.6981 196.942 14.5825 197.161 14.4013 197.314C14.2434 197.428 14.0537 197.486 13.8611 197.478H13.8256ZM8.86576 189.926C8.70882 189.926 8.55477 189.882 8.41938 189.8C8.28399 189.719 8.17212 189.601 8.09521 189.46C7.36895 188.125 6.67811 186.717 6.04927 185.327C6.00042 185.218 5.97289 185.1 5.96827 184.979C5.96364 184.859 5.982 184.739 6.0223 184.626C6.0626 184.513 6.12405 184.41 6.20314 184.321C6.28223 184.233 6.37741 184.161 6.48325 184.111C6.5891 184.061 6.70353 184.032 6.82001 184.027C6.93649 184.023 7.05274 184.042 7.16212 184.083C7.38303 184.167 7.56257 184.338 7.66123 184.559C8.26349 185.921 8.93662 187.302 9.63632 188.555C9.69452 188.659 9.73199 188.775 9.74657 188.895C9.76114 189.015 9.75253 189.137 9.72123 189.253C9.68993 189.37 9.63656 189.479 9.56422 189.574C9.49187 189.669 9.40198 189.748 9.29975 189.807C9.17726 189.877 9.04102 189.918 8.90119 189.926H8.86576ZM5.19901 181.652C5.01804 181.652 4.84123 181.595 4.69239 181.489C4.54354 181.383 4.42979 181.232 4.36646 181.057C3.85275 179.631 3.38334 178.15 2.96707 176.65C2.92791 176.533 2.91231 176.409 2.92122 176.285C2.93014 176.161 2.96337 176.04 3.0189 175.93C3.07443 175.82 3.1511 175.723 3.24422 175.644C3.33735 175.566 3.44498 175.508 3.56057 175.474C3.67617 175.439 3.79729 175.43 3.91656 175.446C4.03583 175.461 4.15076 175.502 4.25433 175.565C4.35791 175.628 4.44797 175.712 4.51901 175.812C4.59006 175.912 4.64061 176.026 4.66759 176.147C5.07501 177.601 5.55328 179.037 6.0227 180.426C6.10291 180.653 6.09299 180.903 5.99509 181.123C5.89719 181.342 5.71927 181.512 5.50014 181.597C5.4036 181.633 5.30171 181.651 5.19901 181.652ZM2.72793 172.883C2.52196 172.888 2.32085 172.818 2.15919 172.687C1.99753 172.555 1.88545 172.369 1.84224 172.161C1.53225 170.689 1.24883 169.162 1.01855 167.589C0.982833 167.351 1.0401 167.107 1.17785 166.912C1.31559 166.716 1.5226 166.585 1.75367 166.547C1.86886 166.528 1.98665 166.532 2.10029 166.559C2.21392 166.587 2.32115 166.637 2.4158 166.708C2.51046 166.778 2.59068 166.868 2.65185 166.97C2.71301 167.073 2.75392 167.187 2.77221 167.306C2.99364 168.815 3.2682 170.305 3.56934 171.75C3.61945 171.986 3.57674 172.233 3.45057 172.437C3.32439 172.641 3.12505 172.785 2.89621 172.838C2.84135 172.853 2.78487 172.863 2.72793 172.865V172.883ZM1.34625 163.859C1.12592 163.86 0.913091 163.776 0.749319 163.624C0.585546 163.472 0.48259 163.262 0.46056 163.036C0.309992 161.564 0.185996 160.019 0.0974265 158.465C0.0853322 158.224 0.166075 157.987 0.322042 157.807C0.478009 157.628 0.696547 157.519 0.929978 157.505C1.04633 157.497 1.16297 157.514 1.27318 157.553C1.3834 157.592 1.48503 157.653 1.57226 157.733C1.65948 157.813 1.73057 157.91 1.78146 158.018C1.83235 158.126 1.86204 158.244 1.86881 158.364C1.95738 159.909 2.07252 161.427 2.22309 162.881C2.24539 163.121 2.1751 163.36 2.0275 163.546C1.87989 163.733 1.6669 163.852 1.43482 163.877L1.34625 163.859ZM0.885691 154.716C0.650791 154.716 0.425515 154.62 0.259415 154.448C0.0933163 154.277 0 154.044 0 153.802C0 152.266 0.115142 150.702 0.26571 149.166C0.276775 149.046 0.310828 148.929 0.365903 148.822C0.420979 148.716 0.495983 148.621 0.58658 148.545C0.677176 148.468 0.781568 148.411 0.893718 148.377C1.00587 148.342 1.12355 148.331 1.23997 148.343C1.35572 148.356 1.46794 148.392 1.57022 148.449C1.67249 148.506 1.76282 148.584 1.83602 148.677C1.90923 148.771 1.96389 148.878 1.99687 148.993C2.02985 149.109 2.04051 149.229 2.02823 149.349C1.88652 150.839 1.79795 152.348 1.77138 153.838C1.76223 154.074 1.66489 154.298 1.49977 154.461C1.33465 154.625 1.11458 154.716 0.885691 154.716ZM1.77138 145.628H1.61196C1.38216 145.583 1.17872 145.447 1.04598 145.248C0.91325 145.049 0.861997 144.805 0.903405 144.567C1.16911 143.049 1.50567 141.532 1.88652 139.996C1.91727 139.88 1.96985 139.771 2.04126 139.676C2.11267 139.581 2.20151 139.502 2.30269 139.442C2.40387 139.383 2.51541 139.345 2.63093 139.33C2.74645 139.315 2.86368 139.324 2.97592 139.356C3.20072 139.42 3.39192 139.573 3.50799 139.782C3.62407 139.991 3.65566 140.238 3.59591 140.471C3.22392 141.916 2.90507 143.397 2.63936 144.86C2.60589 145.073 2.50035 145.267 2.34148 145.408C2.1826 145.548 1.98063 145.626 1.77138 145.628ZM4.05646 136.85C3.95674 136.849 3.85792 136.831 3.76419 136.795C3.65409 136.756 3.55273 136.693 3.46593 136.613C3.37912 136.532 3.30859 136.435 3.25839 136.326C3.20818 136.217 3.17929 136.1 3.17337 135.979C3.16746 135.859 3.18464 135.739 3.22392 135.625C3.7199 134.181 4.27789 132.727 4.88901 131.31C4.93179 131.193 4.99727 131.086 5.08142 130.997C5.16556 130.907 5.2666 130.836 5.37829 130.788C5.48999 130.741 5.60998 130.717 5.73087 130.719C5.85177 130.721 5.97101 130.748 6.08124 130.799C6.19148 130.851 6.29038 130.925 6.37185 131.017C6.45333 131.109 6.51564 131.218 6.55496 131.336C6.59429 131.454 6.60978 131.579 6.60049 131.703C6.59121 131.828 6.55734 131.949 6.50097 132.059C5.91641 133.422 5.36729 134.802 4.88901 136.238C4.82859 136.416 4.7161 136.571 4.56701 136.681C4.41791 136.79 4.23955 136.85 4.05646 136.85ZM7.65237 128.503C7.49917 128.502 7.34887 128.459 7.21617 128.38C7.08347 128.301 6.97289 128.188 6.89525 128.052C6.81761 127.915 6.77556 127.761 6.77321 127.602C6.77085 127.444 6.80827 127.288 6.88182 127.149C7.59037 125.796 8.36978 124.407 9.18461 123.163C9.32048 122.98 9.51824 122.857 9.73833 122.818C9.95842 122.779 10.1846 122.828 10.3716 122.954C10.5585 123.08 10.6925 123.274 10.7467 123.498C10.8009 123.721 10.7712 123.958 10.6637 124.16C9.87545 125.412 9.12261 126.711 8.43178 128.027C8.34967 128.163 8.23447 128.274 8.09769 128.35C7.96091 128.425 7.80736 128.462 7.65237 128.457V128.503ZM12.5325 120.804C12.3673 120.804 12.2054 120.756 12.0653 120.665C11.9252 120.575 11.8123 120.446 11.7395 120.293C11.6667 120.139 11.6369 119.968 11.6534 119.799C11.6699 119.629 11.732 119.467 11.8328 119.332C12.7185 118.107 13.7193 116.909 14.7202 115.775C14.7987 115.687 14.8934 115.615 14.9989 115.564C15.1043 115.512 15.2185 115.483 15.3349 115.478C15.4513 115.472 15.5675 115.49 15.6771 115.531C15.7867 115.572 15.8874 115.635 15.9734 115.716C16.0595 115.797 16.1293 115.895 16.1787 116.004C16.2282 116.113 16.2564 116.23 16.2618 116.351C16.2671 116.471 16.2495 116.591 16.2099 116.704C16.1703 116.817 16.1095 116.921 16.031 117.01C15.0656 118.107 14.1179 119.268 13.2322 120.448C13.1497 120.558 13.0437 120.648 12.9225 120.71C12.8012 120.772 12.6678 120.804 12.5325 120.804ZM18.4932 114.057C18.3158 114.056 18.1427 114 17.9963 113.897C17.8498 113.794 17.7369 113.647 17.672 113.477C17.6071 113.306 17.5933 113.12 17.6323 112.941C17.6713 112.762 17.7615 112.6 17.891 112.475C18.9804 111.414 20.1318 110.399 21.3009 109.448C21.4844 109.299 21.7178 109.23 21.95 109.258C22.1823 109.285 22.3947 109.406 22.5408 109.595C22.6139 109.689 22.6682 109.797 22.7007 109.913C22.7331 110.029 22.743 110.15 22.7299 110.27C22.7167 110.39 22.6807 110.506 22.6239 110.611C22.5672 110.716 22.4908 110.809 22.3991 110.884C21.2654 111.798 20.1583 112.786 19.0955 113.81C19.0092 113.893 18.9075 113.958 18.7964 114.001C18.6854 114.043 18.5672 114.062 18.4489 114.057H18.4932ZM25.437 108.397C25.2321 108.419 25.026 108.367 24.8542 108.25C24.6825 108.132 24.5558 107.957 24.496 107.753C24.4362 107.549 24.447 107.331 24.5267 107.135C24.6063 106.938 24.7497 106.777 24.9322 106.678C26.1722 105.828 27.4653 105.023 28.7761 104.273C28.8779 104.213 28.9901 104.175 29.1064 104.159C29.2226 104.144 29.3407 104.153 29.4538 104.185C29.5669 104.216 29.6728 104.271 29.7655 104.345C29.8581 104.419 29.9358 104.511 29.9939 104.616C30.0521 104.721 30.0896 104.837 30.1044 104.957C30.1192 105.077 30.1109 105.199 30.0801 105.316C30.0492 105.433 29.9964 105.542 29.9246 105.638C29.8529 105.733 29.7635 105.813 29.6618 105.873C28.3952 106.596 27.1376 107.382 25.9419 108.205C25.7849 108.331 25.5915 108.398 25.3927 108.397H25.437ZM33.1248 103.935C32.9229 103.934 32.7274 103.862 32.5706 103.731C32.4139 103.599 32.3053 103.417 32.2629 103.213C32.2205 103.009 32.2469 102.796 32.3376 102.61C32.4283 102.424 32.5779 102.275 32.7617 102.189C34.1168 101.558 35.5162 100.964 36.9244 100.442C37.1434 100.368 37.3819 100.384 37.5892 100.488C37.7966 100.592 37.9565 100.776 38.0349 101C38.1133 101.224 38.1041 101.47 38.0092 101.687C37.9143 101.904 37.7412 102.074 37.5267 102.161C36.1628 102.673 34.8076 103.24 33.488 103.853C33.3739 103.907 33.2502 103.935 33.1248 103.935Z" fill="#E0E0E0" fill-opacity="0.6"/>
<path d="M151.838 172.108C149.269 173.703 146.46 174.877 143.518 175.584C136.457 177.308 129.003 176.316 122.644 172.806C116.284 169.296 111.487 163.526 109.209 156.648C106.932 149.77 107.341 142.29 110.355 135.699C113.369 129.108 118.767 123.892 125.471 121.091C132.176 118.29 139.694 118.111 146.525 120.588C153.356 123.066 158.999 128.018 162.327 134.457C165.655 140.896 166.424 148.349 164.48 155.328C162.535 162.307 158.021 168.298 151.838 172.108Z" fill="#A6A6A6"/>
<path d="M158.211 165.53C158.218 165.618 158.19 165.704 158.135 165.773C158.079 165.841 157.999 165.885 157.912 165.897H156.501C155.412 162.314 154.2 159.441 154.492 160.549C154.953 162.293 155.164 164.093 155.121 165.897L152.337 165.858C151.57 159.617 150.358 154.956 150.381 156.37C150.458 162.084 150.052 163.895 149.614 165.82C142.897 165.713 134.093 165.461 127.735 165.133C127.16 161.679 126.7 157.951 126.577 158.203C125.619 160.067 125.243 162.848 125.12 164.995C123.096 164.881 121.478 164.743 120.519 164.605C120.519 164.605 120.189 161.71 120.166 160.786C120.101 158.366 120.459 155.954 121.225 153.658C122.092 151.398 123.184 149.23 124.484 147.187C125.284 145.82 125.925 144.367 126.393 142.855C126.716 141.747 126.947 140.615 127.083 139.47C127.582 135.284 129.982 131.83 133.74 130.921C141.079 124.351 147.95 127.774 149.798 133.305C149.983 133.847 150.151 134.459 150.312 135.131C150.91 137.606 151.401 140.807 151.846 143.283C152.021 144.253 152.255 145.212 152.544 146.155C154.131 150.663 158.035 153.421 158.211 165.53Z" fill="#263238"/>
<path d="M132.069 131.915C130.837 132.45 129.766 133.295 128.96 134.366C128.153 135.437 127.639 136.698 127.468 138.026C127.271 139.792 126.857 141.527 126.233 143.191C125.451 144.804 124.432 146.292 123.212 147.607C121.317 149.645 120.08 152.203 119.661 154.949C119.156 158.136 119.281 161.39 120.029 164.529C119.446 161.239 119.501 157.867 120.19 154.597C120.88 151.305 122.751 149.326 124.684 146.912C126.239 144.996 127.267 142.711 127.667 140.28C127.928 138.752 127.982 137.224 128.626 135.803C129.435 134.294 130.68 133.062 132.199 132.266C132.414 132.106 132.261 131.808 132.069 131.915Z" fill="#263238"/>
<path d="M156.425 151.129C154.83 148.631 153.135 146.476 152.276 143.451C151.509 140.693 151.11 137.813 150.305 135.047C150.305 135.001 150.228 135.047 150.244 135.047C151.448 139.929 151.494 144.773 154.193 148.99C155.658 151.282 157.13 153.406 158.028 156.095C158.943 158.92 159.351 161.884 159.232 164.85C159.232 164.957 159.362 164.965 159.37 164.85C160.034 160.074 158.992 155.217 156.425 151.129Z" fill="#263238"/>
<path d="M154.561 170.198C154.063 170.603 153.549 170.962 153.027 171.336C152.644 171.604 152.26 171.864 151.846 172.1L151.77 172.146C151.394 172.383 151.003 172.605 150.612 172.819L150.098 173.101C148.949 173.717 147.757 174.251 146.532 174.698C146.246 174.805 145.954 174.904 145.658 174.996C144.975 175.217 144.27 175.416 143.556 175.592L142.981 175.722C142.874 175.515 142.759 175.317 142.659 175.118C142.607 175.035 142.561 174.948 142.521 174.858C142.26 174.377 142.007 173.911 141.754 173.46C141.704 173.376 141.658 173.289 141.616 173.201C141.363 172.719 141.125 172.253 140.903 171.81C140.857 171.726 140.811 171.642 140.773 171.558C140.52 171.061 140.29 170.588 140.075 170.145C140.029 170.061 139.99 169.977 139.952 169.892C139.712 169.383 139.497 168.917 139.308 168.494C139.27 168.41 139.231 168.326 139.201 168.242V168.158C139.039 167.784 138.855 167.341 138.664 166.837C138.664 166.752 138.595 166.661 138.556 166.569C138.434 166.264 138.311 165.935 138.196 165.591C138.142 165.454 138.089 165.316 138.043 165.171L137.951 164.911C137.797 164.453 137.636 163.979 137.49 163.498C137.49 163.414 137.444 163.33 137.414 163.238C137.276 162.764 137.145 162.291 137.038 161.825C137.038 161.741 136.992 161.657 136.977 161.573V161.473C136.871 161.037 136.789 160.596 136.731 160.152C136.711 160.066 136.698 159.979 136.693 159.892C136.617 159.422 136.589 158.946 136.608 158.471C136.601 158.384 136.601 158.298 136.608 158.211C136.611 157.686 136.78 157.175 137.092 156.752C137.176 156.649 137.274 156.559 137.383 156.484L137.513 156.423L137.659 156.362H137.705H137.743C138.085 156.291 138.437 156.291 138.779 156.362L139.055 156.439C139.188 156.474 139.318 156.517 139.446 156.569C140.187 156.864 140.894 157.237 141.555 157.684C141.946 157.928 142.368 158.211 142.813 158.54C145.291 160.55 147.614 162.743 149.76 165.102C151.325 166.691 152.958 168.449 154.561 170.198Z" fill="#EB9481"/>
<path d="M155.474 169.465C155.174 169.717 154.875 169.961 154.561 170.229C154.062 170.633 153.549 170.993 153.027 171.367C152.644 171.634 152.26 171.894 151.846 172.131L151.769 172.177C151.394 172.414 151.003 172.635 150.612 172.849L150.098 173.132C148.948 173.737 147.756 174.26 146.532 174.698C146.245 174.805 145.954 174.904 145.657 174.996C144.975 175.217 144.269 175.416 143.556 175.592L142.981 175.722L142.475 175.829C142.352 175.599 142.237 175.37 142.122 175.141C142.09 175.062 142.052 174.985 142.007 174.912L141.677 174.247L141.309 173.483C141.263 173.399 141.225 173.315 141.187 173.231C140.956 172.757 140.726 172.291 140.512 171.833L140.397 171.581L139.791 170.305C139.772 170.268 139.757 170.23 139.745 170.19L139.63 169.938C139.407 169.457 139.193 168.991 138.993 168.54L138.878 168.288L138.648 167.776L138.272 166.882C138.272 166.798 138.203 166.707 138.165 166.623C138.05 166.347 137.943 166.088 137.843 165.859L137.797 165.744C137.797 165.744 137.797 165.668 137.759 165.629C137.759 165.545 137.69 165.461 137.659 165.385L137.613 165.24C137.575 165.156 137.544 165.072 137.513 164.988V164.926C137.337 164.453 137.176 164.002 137.045 163.574C137.045 163.574 136.999 163.421 136.969 163.345C136.815 162.848 136.685 162.375 136.585 161.932C136.585 161.848 136.585 161.764 136.532 161.68C136.478 161.443 136.432 161.221 136.401 161C136.401 160.839 136.348 160.686 136.325 160.534C136.328 160.488 136.328 160.442 136.325 160.396C136.325 160.35 136.325 160.304 136.325 160.259C136.317 160.175 136.317 160.09 136.325 160.006C136.328 159.963 136.328 159.92 136.325 159.877C136.325 159.838 136.325 159.792 136.325 159.754C136.325 159.716 136.325 159.517 136.325 159.403C136.326 159.127 136.344 158.851 136.378 158.578C136.378 158.486 136.378 158.394 136.424 158.318C136.508 157.785 136.751 157.29 137.122 156.897L137.176 156.851C137.285 156.742 137.412 156.652 137.552 156.584L137.682 156.523L137.828 156.461H137.904H137.943C138.061 156.428 138.181 156.402 138.303 156.385C138.489 156.369 138.677 156.369 138.863 156.385C139.388 156.444 139.904 156.569 140.397 156.759C140.866 156.931 141.32 157.14 141.754 157.386C143.206 158.187 144.566 159.142 145.811 160.236C147.115 161.343 148.533 162.665 150.006 164.056C151.8 165.668 153.664 167.578 155.474 169.465Z" fill="#FFC727"/>
<path opacity="0.1" d="M153.02 171.336C152.636 171.604 152.253 171.864 151.839 172.1L151.762 172.146C151.386 172.383 150.995 172.605 150.604 172.819L150.09 173.101C148.944 173.717 147.755 174.25 146.532 174.698C146.246 174.805 145.954 174.904 145.658 174.996C144.975 175.217 144.27 175.416 143.557 175.592L142.981 175.722L142.475 175.829C142.353 175.599 142.238 175.37 142.122 175.141C142.084 175.065 142.046 174.988 142 174.912L141.67 174.247C141.547 173.995 141.417 173.751 141.294 173.483C141.256 173.399 141.218 173.315 141.172 173.231C140.941 172.757 140.711 172.291 140.497 171.833L140.382 171.581L139.776 170.305L139.722 170.19L139.607 169.938C139.385 169.457 139.17 168.991 138.971 168.54L138.856 168.288L138.626 167.776L138.242 166.882C138.242 166.798 138.173 166.707 138.135 166.623C138.02 166.348 137.912 166.088 137.813 165.859L137.767 165.744C137.745 165.709 137.729 165.67 137.721 165.629C137.721 165.545 137.652 165.461 137.621 165.385L137.567 165.247C137.567 165.156 137.498 165.072 137.468 164.988V164.927C137.291 164.453 137.13 164.002 137 163.574C136.97 163.5 136.947 163.423 136.931 163.345C136.777 162.849 136.647 162.375 136.547 161.932C136.547 161.848 136.547 161.764 136.494 161.68C136.44 161.443 136.394 161.221 136.363 161C136.363 160.839 136.31 160.686 136.287 160.534C136.29 160.488 136.29 160.442 136.287 160.396C136.283 160.35 136.283 160.304 136.287 160.259V160.006C136.283 159.963 136.283 159.92 136.287 159.877C136.287 159.838 136.287 159.793 136.287 159.754C136.287 159.716 136.287 159.518 136.287 159.403C136.288 159.127 136.306 158.852 136.34 158.578C136.34 158.486 136.34 158.394 136.386 158.318C136.47 157.785 136.713 157.29 137.084 156.897L137.138 156.851C137.251 156.747 137.378 156.657 137.514 156.584L137.644 156.523L137.836 156.454H137.874C137.992 156.42 138.113 156.395 138.234 156.378C138.421 156.362 138.608 156.362 138.794 156.378L138.909 156.5L138.994 156.584L139.231 156.836L140.535 158.219L140.78 158.471L141.77 159.518L142.076 159.831L142.314 160.083L143.626 161.466L143.856 161.71L145.159 163.085L145.397 163.337L146.31 164.292L147.92 165.996L153.02 171.336Z" fill="black"/>
<path d="M151.761 172.154C151.386 172.391 150.994 172.612 150.603 172.826L150.09 173.109C148.943 173.722 147.754 174.253 146.531 174.698C146.245 174.805 145.954 174.904 145.657 174.996C144.974 175.218 144.269 175.416 143.556 175.592L142.981 175.722L142.474 175.829C138.359 176.677 134.107 176.612 130.02 175.638L129.146 175.416C128.778 175.317 128.418 175.21 128.057 175.095C127.981 175.08 127.906 175.057 127.835 175.027L127.651 174.965C127.631 174.973 127.609 174.973 127.589 174.965C126.822 174.729 126.132 174.454 125.427 174.156L124.875 173.911C123.993 173.519 123.133 173.08 122.298 172.597L121.899 172.36L121.516 172.131C121.071 171.856 120.641 171.573 120.212 171.275L120.327 170.977C120.365 170.893 120.396 170.809 120.434 170.718C120.626 170.229 120.825 169.74 121.025 169.266C121.056 169.178 121.092 169.091 121.132 169.006C121.332 168.51 121.546 168.021 121.761 167.547C121.799 167.455 121.838 167.371 121.884 167.28C122.106 166.783 122.336 166.294 122.566 165.828C122.605 165.737 122.649 165.648 122.697 165.561L123.019 164.927C123.164 164.644 123.31 164.361 123.456 164.094C123.453 164.071 123.453 164.048 123.456 164.025C123.466 164.001 123.479 163.978 123.494 163.956L123.571 163.826C123.839 163.322 124.123 162.833 124.407 162.375C124.457 162.282 124.514 162.193 124.575 162.107C124.898 161.58 125.227 161.091 125.565 160.625C125.622 160.534 125.686 160.447 125.756 160.366C125.979 160.068 126.209 159.777 126.447 159.51C126.537 159.393 126.635 159.28 126.738 159.174C126.814 159.082 126.896 158.995 126.983 158.914L127.114 158.776L127.244 158.647C127.729 158.143 128.258 157.683 128.824 157.271C128.883 157.219 128.947 157.173 129.016 157.134C129.077 157.081 129.144 157.035 129.215 156.996L129.422 156.867C130.712 156 132.194 155.46 133.74 155.293C135.501 155.089 137.283 155.408 138.862 156.209C138.977 156.271 139.092 156.324 139.2 156.393C139.266 156.424 139.33 156.46 139.392 156.5H139.438C139.497 156.531 139.553 156.567 139.606 156.607C140.019 156.862 140.414 157.145 140.787 157.455C140.966 157.616 141.132 157.789 141.286 157.974L141.393 158.097L141.501 158.219C141.823 158.578 142.198 159.029 142.651 159.586L142.743 159.701L142.843 159.831L143.947 161.221L144.139 161.466C144.484 161.909 144.836 162.367 145.205 162.856C145.232 162.902 145.263 162.945 145.297 162.986L145.389 163.108C145.634 163.422 145.872 163.742 146.155 164.071L146.47 164.499C146.524 164.583 146.593 164.667 146.654 164.751C146.907 165.087 147.152 165.423 147.421 165.767L147.689 166.134L147.797 166.279C148.157 166.775 148.51 167.272 148.87 167.807C148.899 167.858 148.932 167.907 148.97 167.952L149.039 168.051C149.384 168.556 149.737 169.06 150.074 169.579C150.412 170.099 150.764 170.603 151.086 171.107L151.171 171.229L151.248 171.359C151.439 171.642 151.6 171.902 151.761 172.154Z" fill="#FFC727"/>
<path opacity="0.1" d="M135.029 158.264H134.707C134.707 158.349 134.707 158.433 134.707 158.524H135.037L136.164 158.478C136.164 158.387 136.164 158.295 136.21 158.219L135.029 158.264ZM136.118 159.907H135.297C135.369 159.989 135.446 160.073 135.527 160.159H136.141L136.118 159.907ZM135.029 158.264H134.707C134.707 158.349 134.707 158.433 134.707 158.524H135.037L136.164 158.478C136.164 158.387 136.164 158.295 136.21 158.219L135.029 158.264ZM135.029 158.264H134.707C134.707 158.349 134.707 158.433 134.707 158.524H135.037L136.164 158.478C136.164 158.387 136.164 158.295 136.21 158.219L135.029 158.264ZM135.029 158.264H134.707C134.707 158.349 134.707 158.433 134.707 158.524H135.037L136.164 158.478C136.164 158.387 136.164 158.295 136.21 158.219L135.029 158.264ZM139.469 156.53H139.423L139.247 156.423H138.863L137.33 156.484L134.799 156.591H134.461L133.503 156.637L129.967 156.782H129.515H129.461L129.254 156.912C129.183 156.951 129.116 156.997 129.055 157.05H129.515L133.441 156.889L134.538 156.843H134.868L136.923 156.759H137.015L139.093 156.675H139.615C139.568 156.623 139.517 156.574 139.461 156.53H139.469ZM134.707 158.28C134.707 158.364 134.707 158.448 134.707 158.54H135.037L136.164 158.494C136.164 158.402 136.164 158.31 136.21 158.234L135.044 158.28H134.707ZM135.029 158.28H134.707C134.707 158.364 134.707 158.448 134.707 158.54H135.037L136.164 158.494C136.164 158.402 136.164 158.31 136.21 158.234L135.029 158.28ZM135.029 158.28H134.707C134.707 158.364 134.707 158.448 134.707 158.54H135.037L136.164 158.494C136.164 158.402 136.164 158.31 136.21 158.234L135.029 158.28ZM135.029 158.28H134.707C134.707 158.364 134.707 158.448 134.707 158.54H135.037L136.164 158.494C136.164 158.402 136.164 158.31 136.21 158.234L135.029 158.28ZM136.118 159.922H135.297C135.369 160.004 135.446 160.088 135.527 160.174H136.141L136.118 159.922ZM141.432 158.142L141.325 158.02H140.42L136.586 158.18H136.225L135.06 158.226H134.737H134.078L127.536 158.501H127.322L127.191 158.631L127.061 158.769H127.214L134.254 158.478H134.73H135.06L136.187 158.433H136.578L140.704 158.264L141.578 158.226L141.432 158.142ZM133.971 161.71L127.207 161.993C127.207 162.077 127.207 162.161 127.207 162.253L133.848 161.97H134.339C134.339 161.886 134.385 161.794 134.415 161.71H133.971ZM133.971 161.71L127.207 161.993C127.207 162.077 127.207 162.161 127.207 162.253L133.848 161.97H134.339C134.339 161.886 134.385 161.794 134.415 161.71H133.971ZM133.971 161.71L127.207 161.993C127.207 162.077 127.207 162.161 127.207 162.253L133.848 161.97H134.339C134.339 161.886 134.385 161.794 134.415 161.71H133.971ZM133.971 161.71L127.207 161.993C127.207 162.077 127.207 162.161 127.207 162.253L133.848 161.97H134.339C134.339 161.886 134.385 161.794 134.415 161.71H133.971ZM142.79 159.777L142.705 159.663H141.938H141.655L136.601 159.869H136.103H135.282H134.83H134.438L126.946 160.182L125.773 160.228C125.702 160.309 125.638 160.396 125.581 160.488H125.719L127 160.434L134.4 160.136H134.799H135.527H136.141H136.655L141.67 159.93H142.192H142.889C142.85 159.875 142.816 159.816 142.79 159.754V159.777ZM127.207 161.993C127.207 162.077 127.207 162.161 127.207 162.253L133.848 161.97H134.339C134.339 161.886 134.385 161.794 134.415 161.71H133.932L127.207 161.993ZM133.971 161.71L127.207 161.993C127.207 162.077 127.207 162.161 127.207 162.253L133.848 161.97H134.339C134.339 161.886 134.385 161.794 134.415 161.71H133.971ZM133.971 161.71L127.207 161.993C127.207 162.077 127.207 162.161 127.207 162.253L133.848 161.97H134.339C134.339 161.886 134.385 161.794 134.415 161.71H133.971ZM133.971 161.71L127.207 161.993C127.207 162.077 127.207 162.161 127.207 162.253L133.848 161.97H134.339C134.339 161.886 134.385 161.794 134.415 161.71H133.971ZM144.001 161.298H143.503L141.601 161.374L137 161.565H136.892H136.34L134.423 161.649H133.94L127.176 161.932L125.389 162H124.553C124.492 162.086 124.435 162.175 124.385 162.268L125.343 162.23L127.214 162.153L133.856 161.871H134.346L136.394 161.779H136.954H137.33L141.517 161.603L143.695 161.519H144.155C144.1 161.44 144.049 161.358 144.001 161.275V161.298ZM145.359 163.062C145.325 163.021 145.294 162.978 145.267 162.932H145.037L137.33 163.238H136.785L133.902 163.36H133.326L127.437 163.597L125.174 163.689L123.556 163.758C123.533 163.799 123.512 163.843 123.495 163.887C123.457 163.956 123.457 163.956 123.418 164.025L125.159 163.956L127.46 163.857L133.211 163.62H133.787L136.854 163.498H137.391L145.228 163.177H145.405L145.359 163.062ZM146.501 164.59L137.897 164.942H137.399L133.242 165.11H132.629L129.477 165.24H129.431L122.674 165.515C122.626 165.602 122.583 165.691 122.544 165.782L132.514 165.37H133.112L137.483 165.194H137.974L146.67 164.835C146.624 164.72 146.532 164.636 146.532 164.552L146.501 164.59ZM147.805 166.37L147.698 166.225L138.495 166.6H138.05L132.406 166.829H131.823L121.854 167.241C121.808 167.333 121.77 167.417 121.731 167.509L131.701 167.104H132.276L138.165 166.859H138.603L147.866 166.477L147.805 166.37ZM148.978 168.021C148.941 167.975 148.907 167.927 148.879 167.875L139.185 168.273H138.779L131.524 168.571H131.455H130.987L121.102 168.976C121.062 169.06 121.026 169.147 120.995 169.235L130.872 168.83H131.31H131.402L138.902 168.525H139.3L149.055 168.12C149.022 168.079 148.996 168.032 148.978 167.982V168.021ZM150.09 169.633L149.998 169.51L139.937 169.923H139.53L130.65 170.29H130.428H130.098L120.366 170.687C120.366 170.779 120.297 170.863 120.259 170.947L129.96 170.549H130.267H130.481L139.615 170.175H140.021L150.129 169.763L150.09 169.633ZM151.187 171.283L151.103 171.161L140.757 171.588H140.32L130.205 172.009H129.216L121.869 172.314L122.268 172.551L129.07 172.268H129.952L140.443 171.833H140.888L151.264 171.405L151.187 171.283ZM140.32 171.604L130.205 172.024H129.576L129.423 172.284H129.952L140.443 171.848L140.32 171.604ZM141.601 173.231H141.126L128.817 173.735H128.257L124.845 173.873L125.397 174.117L128.104 174.003H128.403H128.664L141.248 173.483H141.739L150.09 173.139L150.604 172.857L141.601 173.231ZM129.722 172.299H129.944L140.435 171.863L140.32 171.611L130.205 172.032H129.576L129.423 172.291H129.73L129.722 172.299ZM140.32 171.604L130.205 172.024H129.576L129.423 172.284H129.952L140.443 171.848L140.32 171.604ZM142.483 174.889H141.954L129.116 175.424L129.99 175.645L142.084 175.149H142.621L145.619 175.026C145.916 174.935 146.207 174.835 146.494 174.728L142.483 174.889ZM141.118 173.254L128.809 173.758C128.756 173.85 128.71 173.942 128.656 174.026L141.241 173.506C141.202 173.384 141.164 173.3 141.118 173.216V173.254ZM142.483 174.889H141.954L129.116 175.424L129.99 175.645L142.084 175.149H142.621C142.567 175.053 142.521 174.953 142.483 174.851V174.889ZM141.118 173.254L128.809 173.758C128.756 173.85 128.71 173.942 128.656 174.026L141.241 173.506C141.202 173.384 141.164 173.3 141.118 173.216V173.254ZM142.483 174.889H141.954L129.116 175.424L129.99 175.645L142.084 175.149H142.621C142.567 175.053 142.521 174.953 142.483 174.851V174.889Z" fill="black"/>
<path d="M134.698 158.28C134.698 158.364 134.698 158.448 134.698 158.54C134.683 158.732 134.657 158.923 134.621 159.112C134.583 159.403 134.529 159.691 134.46 159.976C134.46 160.06 134.422 160.144 134.407 160.236C134.292 160.686 134.153 161.168 133.985 161.687C133.985 161.771 133.931 161.855 133.9 161.947C133.747 162.405 133.571 162.887 133.364 163.398L133.264 163.658C133.072 164.124 132.865 164.613 132.635 165.125L132.52 165.385V165.438C132.305 165.92 132.083 166.386 131.868 166.836C131.83 166.928 131.784 167.02 131.738 167.111C131.5 167.616 131.27 168.097 131.025 168.571C130.99 168.66 130.949 168.747 130.902 168.83C130.657 169.335 130.411 169.824 130.135 170.29L129.997 170.549C129.736 171.061 129.468 171.55 129.23 172.024C129.186 172.113 129.138 172.2 129.084 172.284C128.808 172.796 128.54 173.284 128.272 173.743L128.118 174.01C127.934 174.331 127.758 174.637 127.574 174.935C126.807 174.698 126.117 174.423 125.411 174.125L124.859 173.88C123.977 173.488 123.117 173.05 122.282 172.566L121.883 172.329L121.5 172.1C121.055 171.825 120.626 171.543 120.196 171.245C119.208 170.569 118.268 169.826 117.382 169.021C118.647 167.547 119.936 166.111 121.216 164.728C122.497 163.345 123.985 161.832 125.35 160.511L125.887 160.006C126.094 159.808 126.293 159.624 126.492 159.449L126.791 159.181L127.183 158.845L127.505 158.578C128.155 158.03 128.836 157.52 129.545 157.05L129.974 156.782C131.584 155.804 132.857 155.468 133.678 155.797C134.024 155.942 134.299 156.216 134.445 156.561C134.487 156.641 134.521 156.725 134.545 156.813C134.685 157.288 134.737 157.786 134.698 158.28Z" fill="#EB9481"/>
<path d="M135.028 158.265C135.028 158.349 135.028 158.44 135.028 158.524C135.014 158.852 134.98 159.178 134.929 159.502C134.929 159.655 134.883 159.808 134.852 159.961L134.806 160.22C134.706 160.717 134.591 161.214 134.468 161.672C134.468 161.756 134.415 161.848 134.392 161.932C134.231 162.497 134.07 163.001 133.939 163.376C133.901 163.467 133.87 163.559 133.84 163.635C133.809 163.712 133.732 163.949 133.702 164.025C133.579 164.346 133.433 164.705 133.249 165.095C133.249 165.179 133.172 165.27 133.134 165.362V165.408C132.935 165.851 132.705 166.317 132.452 166.814L132.313 167.089C132.091 167.524 131.853 167.975 131.608 168.441C131.583 168.474 131.562 168.51 131.547 168.548C131.494 168.632 131.445 168.719 131.401 168.808L130.596 170.267L130.45 170.534L129.606 172.009L129.453 172.268C129.169 172.765 128.878 173.254 128.594 173.728L128.433 174.003C128.226 174.346 128.027 174.69 127.835 175.019L127.651 174.958C127.631 174.965 127.609 174.965 127.589 174.958C126.823 174.721 126.132 174.446 125.427 174.148L124.875 173.903C123.993 173.511 123.133 173.073 122.298 172.589L121.899 172.352L121.516 172.123C121.071 171.848 120.642 171.566 120.212 171.268C119.224 170.592 118.283 169.849 117.398 169.044C117.214 168.892 117.037 168.724 116.861 168.555C118.073 167.134 119.292 165.782 120.488 164.522C122.271 162.614 124.18 160.828 126.201 159.174L126.731 158.761C127.129 158.456 127.497 158.173 127.889 157.913C128.28 157.653 128.571 157.447 128.893 157.256L129.108 157.119L129.545 156.851C131.57 155.667 132.896 155.323 133.748 155.598C133.999 155.668 134.229 155.799 134.418 155.979C134.607 156.159 134.748 156.382 134.829 156.63C134.867 156.714 134.89 156.798 134.921 156.882C135.025 157.335 135.061 157.801 135.028 158.265Z" fill="#FFC727"/>
<path d="M133.441 157.126C133.441 157.89 136.831 162.948 140.458 162.948C142.352 162.948 141.478 157.898 141.478 157.898L141.654 157.485L144.108 151.717L137.843 145.888L136.93 145.124C136.93 145.124 136.363 146.744 135.673 148.776L135.581 149.059C135.535 149.173 135.496 149.28 135.458 149.387C135.358 149.693 135.251 149.998 135.143 150.311C135.036 150.625 134.99 150.77 134.921 151.022L134.691 151.786C134.15 153.535 133.732 155.319 133.441 157.126Z" fill="#EB9481"/>
<path d="M135.672 148.722C135.972 150.524 136.662 152.238 137.695 153.746C138.728 155.255 140.079 156.52 141.654 157.455L144.108 151.687L137.843 145.857L136.93 145.093C136.93 145.093 136.363 146.682 135.672 148.722Z" fill="#263238"/>
<path d="M152.268 140.318C154.285 151.136 148.012 153.566 145.666 153.994C143.541 154.383 136.248 155.445 133.119 144.895C129.99 134.344 134.4 129.989 139.254 128.851C144.109 127.713 150.251 129.485 152.268 140.318Z" fill="#EB9481"/>
<path d="M148.579 138.355C148.326 138.355 148.081 138.355 147.812 138.355C147.549 138.398 147.279 138.352 147.045 138.225C146.978 138.172 146.931 138.098 146.91 138.015C146.889 137.932 146.896 137.845 146.93 137.767C147.024 137.621 147.156 137.503 147.311 137.425C147.466 137.348 147.639 137.312 147.812 137.324C148.167 137.29 148.522 137.388 148.809 137.599C148.879 137.65 148.93 137.722 148.958 137.804C148.985 137.886 148.986 137.974 148.961 138.057C148.935 138.14 148.885 138.213 148.817 138.266C148.749 138.319 148.666 138.35 148.579 138.355Z" fill="#263238"/>
<path d="M141.424 140.135C141.662 140.043 141.877 139.921 142.107 139.807C142.368 139.728 142.595 139.564 142.751 139.341C142.787 139.261 142.795 139.172 142.774 139.088C142.753 139.003 142.705 138.928 142.636 138.874C142.486 138.786 142.315 138.74 142.141 138.74C141.967 138.74 141.797 138.786 141.647 138.874C141.314 139.004 141.041 139.252 140.88 139.57C140.844 139.646 140.832 139.732 140.846 139.816C140.86 139.899 140.899 139.977 140.958 140.038C141.017 140.099 141.093 140.141 141.176 140.158C141.259 140.176 141.346 140.168 141.424 140.135Z" fill="#263238"/>
<path d="M143.609 142.473C143.609 142.473 143.563 142.519 143.571 142.549C143.786 143.267 143.908 144.123 143.318 144.543C143.318 144.543 143.318 144.589 143.318 144.581C144.108 144.253 143.924 143.115 143.609 142.473Z" fill="#263238"/>
<path d="M142.758 141.885C141.562 142.106 142.091 144.467 143.195 144.261C144.3 144.054 143.755 141.701 142.758 141.885Z" fill="#263238"/>
<path d="M142.321 142.114C142.145 142.289 141.992 142.572 141.746 142.656C141.501 142.74 141.194 142.549 140.979 142.351C140.979 142.351 140.941 142.351 140.979 142.389C141.071 142.84 141.355 143.267 141.854 143.229C142.352 143.191 142.544 142.717 142.552 142.236C142.49 142.152 142.391 142.037 142.321 142.114Z" fill="#263238"/>
<path d="M147.804 141.365C147.804 141.365 147.873 141.365 147.881 141.419C148.011 142.183 148.295 142.947 149.008 143.076V143.122C148.172 143.176 147.82 142.083 147.804 141.365Z" fill="#263238"/>
<path d="M148.295 140.456C149.461 140.112 150.067 142.458 148.985 142.748C147.904 143.038 147.298 140.746 148.295 140.456Z" fill="#263238"/>
<path d="M148.832 140.487C149.047 140.563 149.292 140.739 149.514 140.701C149.737 140.662 149.898 140.349 150.005 140.066C150.005 140.066 150.005 140.066 150.044 140.066C150.174 140.51 150.143 141.014 149.737 141.212C149.33 141.411 148.97 141.083 148.748 140.662C148.709 140.601 148.74 140.456 148.832 140.487Z" fill="#263238"/>
<path d="M145.174 148.195C145.381 148.333 145.604 148.539 145.88 148.516C146.157 148.464 146.418 148.352 146.647 148.188C146.647 148.188 146.7 148.188 146.685 148.188C146.605 148.351 146.482 148.49 146.33 148.589C146.177 148.689 146.001 148.745 145.818 148.753C145.659 148.745 145.506 148.688 145.381 148.589C145.256 148.49 145.165 148.355 145.12 148.203C145.09 148.195 145.143 148.172 145.174 148.195Z" fill="#263238"/>
<path d="M147.612 144.834C147.612 144.834 148.018 145.888 148.141 146.407C148.141 146.453 148.034 146.507 147.865 146.553C147.441 146.738 146.974 146.803 146.516 146.741C146.057 146.679 145.624 146.492 145.265 146.201C145.253 146.193 145.245 146.18 145.242 146.166C145.239 146.152 145.242 146.137 145.25 146.125C145.258 146.113 145.271 146.104 145.285 146.101C145.3 146.098 145.315 146.101 145.327 146.109C146.092 146.401 146.93 146.441 147.719 146.224C147.719 146.071 146.952 144.444 147.037 144.421C147.447 144.367 147.862 144.367 148.272 144.421C147.505 142.205 146.347 140.127 145.595 137.904C145.595 137.82 145.679 137.774 145.718 137.835C147.007 140.017 148.076 142.32 148.908 144.711C148.992 145.009 147.842 144.902 147.612 144.834Z" fill="#263238"/>
<path d="M147.452 146.362C147.278 146.792 146.995 147.171 146.631 147.462C146.43 147.613 146.186 147.699 145.934 147.706C145.381 147.706 145.236 147.248 145.213 146.812C145.206 146.584 145.226 146.356 145.274 146.132C145.956 146.441 146.72 146.522 147.452 146.362Z" fill="#263238"/>
<path d="M146.631 147.462C146.43 147.613 146.186 147.699 145.933 147.706C145.381 147.706 145.235 147.248 145.212 146.813C145.488 146.748 145.777 146.778 146.033 146.895C146.29 147.013 146.501 147.212 146.631 147.462Z" fill="#FF9CBD"/>
<path d="M133.871 145.208C135.965 145.208 135.865 140.425 135.865 140.425C135.865 140.425 144.446 137.79 144.247 130.578C145.74 133.325 148.236 135.395 151.218 136.361C151.218 136.361 149.876 128.599 143.465 127.904C143.465 127.904 135.389 126.124 131.869 132.786C128.349 139.448 132.468 145.216 133.871 145.208Z" fill="#263238"/>
<path d="M144.231 130.043C144.465 131.13 144.465 132.255 144.231 133.343C144.023 134.438 143.59 135.479 142.958 136.399C142.8 136.63 142.628 136.852 142.444 137.064L142.176 137.392L141.877 137.69C141.67 137.881 141.47 138.08 141.256 138.256L140.573 138.752L140.236 138.989L139.868 139.188L139.101 139.585C138.595 139.799 138.073 139.99 137.567 140.173C138.042 139.883 138.541 139.654 139.001 139.371L139.683 138.92L140.021 138.699L140.335 138.439C140.535 138.263 140.742 138.095 140.957 137.927C141.171 137.759 141.332 137.545 141.516 137.362L141.8 137.071L142.045 136.758C142.222 136.556 142.383 136.341 142.529 136.116C143.128 135.233 143.572 134.253 143.84 133.221C143.983 132.701 144.081 132.169 144.131 131.632C144.209 131.106 144.242 130.574 144.231 130.043Z" fill="#263238"/>
<path d="M134.982 144.635C134.982 144.635 132.245 141.449 130.772 142.45C129.3 143.451 131.585 148.233 133.479 148.738C133.718 148.818 133.97 148.849 134.221 148.83C134.472 148.811 134.716 148.741 134.94 148.626C135.163 148.51 135.361 148.351 135.521 148.158C135.681 147.964 135.801 147.74 135.872 147.5L134.982 144.635Z" fill="#EB9481"/>
<path d="M133.379 131.235C132.973 132.258 127.144 133.137 124.453 129.286C121.761 125.436 125.005 120.615 129.721 122.747C132.727 124.091 134.261 129.057 133.379 131.235Z" fill="#263238"/>
<path d="M124.208 123.962C125.171 122.856 126.482 122.107 127.927 121.838C128.6 121.697 129.298 121.736 129.952 121.95C130.605 122.165 131.189 122.548 131.646 123.06C132.579 124.148 133.197 125.468 133.433 126.88C133.575 127.595 133.652 128.321 133.663 129.05C133.703 129.792 133.607 130.535 133.379 131.242C133.762 130.576 133.997 129.837 134.07 129.073C134.158 128.311 134.158 127.542 134.07 126.781C133.925 125.205 133.292 123.712 132.26 122.51C131.712 121.898 131.002 121.452 130.211 121.223C129.42 120.995 128.581 120.993 127.789 121.219C127.037 121.411 126.332 121.753 125.716 122.225C125.101 122.696 124.587 123.287 124.208 123.962Z" fill="#263238"/>
<path d="M238.831 172.944L245.198 166.911L222.644 140.55L216.277 146.583L238.831 172.944Z" fill="#C7C7C7"/>
<path d="M256.463 197L266.091 187.875L242.732 160.567L233.103 169.692L256.463 197Z" fill="#263238"/>
<path d="M227.842 121.226L227.803 121.431L227.745 121.744C227.674 122.132 227.603 122.513 227.519 122.881C227.519 123.004 227.467 123.12 227.434 123.235C227.016 125.08 226.451 126.884 225.746 128.629C225.694 128.765 225.642 128.901 225.584 129.031C224.71 131.139 223.639 133.151 222.387 135.037L222.232 135.268C219.466 139.363 215.901 142.787 211.775 145.313L211.503 145.483C209.082 146.929 206.5 148.054 203.816 148.834L202.807 149.113C199.565 149.945 196.223 150.253 192.893 150.026H192.66C191.272 149.922 189.891 149.729 188.525 149.447C188.085 149.358 187.645 149.256 187.231 149.14C186.817 149.024 186.461 148.936 186.079 148.827C182.602 147.825 179.303 146.231 176.315 144.108C176.16 143.999 175.991 143.883 175.836 143.76C175.228 143.318 174.639 142.848 174.063 142.358L173.765 142.099C171.496 140.132 169.485 137.856 167.786 135.33L167.547 134.976C167.443 134.826 167.346 134.669 167.249 134.519C165.578 131.898 164.246 129.053 163.289 126.061C163.218 125.844 163.153 125.626 163.089 125.38C162.708 124.099 162.394 122.796 162.15 121.478C162.15 121.356 162.112 121.24 162.086 121.117C161.36 116.814 161.402 112.405 162.209 108.117L162.299 107.654L162.377 107.293C163.639 101.242 166.411 95.6549 170.407 91.1061C172.198 89.0754 174.207 87.2701 176.393 85.7263C177.204 85.1724 178.041 84.6435 178.903 84.1396C183.454 81.5136 188.523 80.0383 193.709 79.8305C198.895 79.6227 204.056 80.6881 208.784 82.9424C213.511 85.1966 217.675 88.5779 220.945 92.8185C224.216 97.0592 226.504 102.043 227.629 107.375C227.648 107.442 227.661 107.51 227.667 107.579C228.579 112.072 228.639 116.71 227.842 121.226Z" fill="#DBDBDB"/>
<path d="M227.842 121.226L227.803 121.431L227.745 121.744C227.674 122.132 227.603 122.513 227.519 122.881C227.519 123.004 227.467 123.12 227.434 123.235C227.016 125.08 226.451 126.884 225.746 128.629C225.694 128.765 225.642 128.901 225.584 129.031C224.71 131.139 223.639 133.151 222.387 135.037L222.232 135.268C219.466 139.363 215.901 142.787 211.775 145.313L211.503 145.483C209.082 146.929 206.5 148.054 203.816 148.834L202.807 149.113C199.565 149.945 196.223 150.253 192.893 150.026H192.66C191.272 149.922 189.891 149.729 188.525 149.447C188.085 149.358 187.645 149.256 187.231 149.14C186.817 149.024 186.461 148.936 186.079 148.827C182.602 147.825 179.303 146.231 176.315 144.108C176.16 143.999 175.991 143.883 175.836 143.76C175.228 143.318 174.639 142.848 174.063 142.358L173.765 142.099C171.496 140.132 169.485 137.856 167.786 135.33L167.547 134.976C167.443 134.826 167.346 134.669 167.249 134.519C165.578 131.898 164.246 129.053 163.289 126.061C163.218 125.844 163.153 125.626 163.089 125.38C162.708 124.099 162.394 122.796 162.15 121.478C162.15 121.356 162.112 121.24 162.086 121.117C161.36 116.814 161.402 112.405 162.209 108.117L162.299 107.654L162.377 107.293C163.639 101.242 166.411 95.6549 170.407 91.1061C172.198 89.0754 174.207 87.2701 176.393 85.7263C177.204 85.1724 178.041 84.6435 178.903 84.1396C183.454 81.5136 188.523 80.0383 193.709 79.8305C198.895 79.6227 204.056 80.6881 208.784 82.9424C213.511 85.1966 217.675 88.5779 220.945 92.8185C224.216 97.0592 226.504 102.043 227.629 107.375C227.648 107.442 227.661 107.51 227.667 107.579C228.579 112.072 228.639 116.71 227.842 121.226Z" fill="#263238"/>
<path d="M187.425 155.255C179.846 153.688 172.879 149.791 167.405 144.056C161.931 138.321 158.197 131.006 156.674 123.037C155.151 115.068 155.908 106.802 158.85 99.286C161.791 91.7699 166.785 85.3408 173.199 80.8121C179.613 76.2833 187.159 73.8584 194.883 73.8441C202.607 73.8297 210.162 76.2266 216.591 80.7315C223.02 85.2364 228.035 91.6469 231.002 99.1521C233.969 106.657 234.754 114.92 233.258 122.895C231.244 133.574 225.288 142.978 216.696 149.044C208.105 155.11 197.579 157.344 187.425 155.255ZM188.292 150.631C194.998 152.023 201.946 151.29 208.256 148.526C214.567 145.762 219.956 141.09 223.744 135.103C227.532 129.115 229.548 122.079 229.537 114.886C229.525 107.693 227.488 100.664 223.681 94.6898C219.874 88.7152 214.47 84.0628 208.15 81.3207C201.831 78.5787 194.881 77.8701 188.18 79.2847C181.478 80.6993 175.325 84.1735 170.5 89.268C165.674 94.3625 162.392 100.849 161.069 107.906C159.304 117.37 161.179 127.184 166.283 135.195C171.386 143.205 179.302 148.757 188.292 150.631Z" fill="#37474F"/>
<path d="M229.687 105.972C228.679 101.708 226.973 97.6617 224.646 94.0138C219.369 85.7337 211.182 79.999 201.887 78.0712C192.592 76.1434 182.95 78.1805 175.083 83.7342C167.215 89.288 161.766 97.9035 159.934 107.686C158.102 117.468 160.038 127.615 165.315 135.895C169.246 142.075 174.831 146.889 181.363 149.726C187.895 152.564 195.081 153.298 202.009 151.835C208.938 150.372 215.298 146.779 220.285 141.509C225.272 136.24 228.661 129.532 230.023 122.234C231.049 116.853 230.934 111.301 229.687 105.972ZM227.745 121.744C226.257 129.736 222.181 136.937 216.212 142.12C210.243 147.304 202.751 150.148 195.012 150.168C187.273 150.188 179.768 147.384 173.774 142.232C167.781 137.08 163.671 129.9 162.144 121.916C160.618 113.932 161.77 105.638 165.404 98.4475C169.038 91.2573 174.929 85.6159 182.073 82.4852C189.217 79.3544 197.172 78.928 204.581 81.2786C211.99 83.6292 218.395 88.6114 222.705 95.3758C227.637 103.115 229.452 112.598 227.752 121.744H227.745ZM229.687 105.972C228.679 101.708 226.973 97.6617 224.646 94.0138C219.369 85.7337 211.182 79.999 201.887 78.0712C192.592 76.1434 182.95 78.1805 175.083 83.7342C167.215 89.288 161.766 97.9035 159.934 107.686C158.102 117.468 160.038 127.615 165.315 135.895C169.246 142.075 174.831 146.889 181.363 149.726C187.895 152.564 195.081 153.298 202.009 151.835C208.938 150.372 215.298 146.779 220.285 141.509C225.272 136.24 228.661 129.532 230.023 122.234C231.049 116.853 230.934 111.301 229.687 105.972ZM227.745 121.744C226.257 129.736 222.181 136.937 216.212 142.12C210.243 147.304 202.751 150.148 195.012 150.168C187.273 150.188 179.768 147.384 173.774 142.232C167.781 137.08 163.671 129.9 162.144 121.916C160.618 113.932 161.77 105.638 165.404 98.4475C169.038 91.2573 174.929 85.6159 182.073 82.4852C189.217 79.3544 197.172 78.928 204.581 81.2786C211.99 83.6292 218.395 88.6114 222.705 95.3758C227.637 103.115 229.452 112.598 227.752 121.744H227.745ZM234.022 104.848C231.663 94.7287 225.837 85.882 217.661 80.0048C209.485 74.1277 199.536 71.6339 189.72 73.0019C179.905 74.3698 170.915 79.5031 164.475 87.4173C158.035 95.3314 154.597 105.469 154.822 115.886C155.047 126.303 158.919 136.266 165.694 143.864C172.469 151.463 181.671 156.161 191.536 157.058C201.4 157.955 211.231 154.988 219.145 148.726C227.059 142.464 232.497 133.348 234.417 123.126C235.557 117.077 235.425 110.838 234.029 104.848H234.022ZM232.139 122.656C230.336 132.298 225.213 140.899 217.754 146.81C210.296 152.721 201.026 155.526 191.723 154.686C182.42 153.847 173.739 149.422 167.345 142.261C160.951 135.1 157.295 125.707 157.077 115.883C156.859 106.06 160.095 96.4972 166.165 89.0302C172.234 81.5631 180.71 76.7173 189.966 75.4223C199.221 74.1272 208.605 76.4741 216.318 82.0127C224.031 87.5513 229.529 95.8917 231.757 105.434C233.085 111.075 233.217 116.955 232.146 122.656H232.139ZM224.646 94.0138C219.369 85.7337 211.182 79.999 201.887 78.0712C192.592 76.1434 182.95 78.1805 175.083 83.7342C167.215 89.288 161.766 97.9035 159.934 107.686C158.102 117.468 160.038 127.615 165.315 135.895C169.246 142.075 174.831 146.889 181.363 149.726C187.895 152.564 195.081 153.298 202.009 151.835C208.938 150.372 215.298 146.779 220.285 141.509C225.272 136.24 228.661 129.532 230.023 122.234C231.044 116.859 230.927 111.314 229.68 105.992C228.676 101.722 226.973 97.6684 224.646 94.0138ZM227.752 121.744C226.263 129.736 222.187 136.937 216.218 142.12C210.249 147.304 202.757 150.148 195.019 150.168C187.28 150.188 179.774 147.384 173.781 142.232C167.787 137.08 163.677 129.9 162.151 121.916C160.625 113.932 161.777 105.638 165.411 98.4475C169.045 91.2573 174.936 85.6159 182.08 82.4852C189.223 79.3544 197.178 78.928 204.587 81.2786C211.996 83.6292 218.402 88.6114 222.711 95.3758C227.642 103.116 229.454 112.599 227.752 121.744Z" fill="#37474F"/>
<path d="M228.665 114.751C228.668 121.706 226.71 128.507 223.039 134.292C219.368 140.076 214.148 144.586 208.04 147.25C201.932 149.915 195.21 150.614 188.724 149.259C182.239 147.904 176.281 144.556 171.604 139.639C166.927 134.722 163.741 128.457 162.45 121.635C161.159 114.814 161.82 107.743 164.35 101.316C166.879 94.8901 171.164 89.3972 176.662 85.5326C182.159 81.668 188.623 79.6053 195.236 79.6053C199.625 79.6006 203.973 80.5063 208.03 82.2706C212.086 84.035 215.773 86.6233 218.877 89.8876C221.982 93.1518 224.445 97.028 226.124 101.294C227.804 105.561 228.667 110.133 228.665 114.751Z" fill="black"/>
<path opacity="0.7" d="M228.665 114.751C228.668 121.706 226.71 128.507 223.039 134.292C219.368 140.076 214.148 144.586 208.04 147.25C201.932 149.915 195.21 150.614 188.724 149.259C182.239 147.904 176.281 144.556 171.604 139.639C166.927 134.722 163.741 128.457 162.45 121.635C161.159 114.814 161.82 107.743 164.35 101.316C166.879 94.8901 171.164 89.3972 176.662 85.5326C182.159 81.668 188.623 79.6053 195.236 79.6053C199.625 79.6006 203.973 80.5063 208.03 82.2706C212.086 84.035 215.773 86.6233 218.877 89.8876C221.982 93.1518 224.445 97.028 226.124 101.294C227.804 105.561 228.667 110.133 228.665 114.751Z" fill="white" fill-opacity="0.3"/>
<path d="M195.237 124.024C201.845 124.024 207.202 118.389 207.202 111.438C207.202 104.487 201.845 98.8514 195.237 98.8514C188.628 98.8514 183.271 104.487 183.271 111.438C183.271 118.389 188.628 124.024 195.237 124.024Z" fill="white" fill-opacity="0.3"/>
<path d="M216.462 141.982C210.481 147.145 202.983 149.967 195.245 149.967C187.508 149.967 180.01 147.145 174.029 141.982C177.161 132.332 183.612 125.206 191.356 123.398C193.912 122.801 196.561 122.801 199.118 123.398C206.879 125.152 213.313 132.278 216.462 141.982Z" fill="white" fill-opacity="0.3"/>
<g opacity="0.3">
<path d="M222.724 95.3689C227.036 102.126 228.989 110.249 228.248 118.351C227.508 126.454 224.121 134.036 218.663 139.805C213.206 145.574 206.017 149.172 198.321 149.987C190.625 150.802 182.898 148.784 176.458 144.275C170.018 139.766 165.263 133.047 163.004 125.261C160.744 117.476 161.12 109.107 164.066 101.581C167.013 94.0549 172.349 87.837 179.164 83.9871C185.979 80.1373 193.852 78.8939 201.441 80.4688C210.13 82.2735 217.784 87.6322 222.724 95.3689Z" fill="white" fill-opacity="0.2"/>
</g>
<path d="M181.738 90.2683C184.772 88.2706 188.172 86.9666 191.716 86.4412C193.513 86.1445 195.334 86.0418 197.151 86.1347C198.99 86.2339 200.814 86.5213 202.6 86.9928C206.191 87.9853 209.546 89.7575 212.448 92.1955C215.31 94.5916 217.724 97.5265 219.566 100.851C217.09 98.1776 214.365 95.773 211.432 93.6733C209.991 92.6809 208.476 91.811 206.903 91.0719C205.353 90.3171 203.739 89.7197 202.082 89.2877C198.776 88.3929 195.356 88.0482 191.949 88.2662C188.481 88.4971 185.052 89.1693 181.738 90.2683Z" fill="#4D4D4D"/>
<path d="M166.589 76.3637C182.543 76.3637 195.477 63.4767 195.477 47.5797C195.477 31.6828 182.543 18.7957 166.589 18.7957C150.634 18.7957 137.7 31.6828 137.7 47.5797C137.7 63.4767 150.634 76.3637 166.589 76.3637Z" fill="#A6A6A6"/>
<path d="M183.35 71.054C182.751 71.4806 182.14 71.8802 181.514 72.2663C180.001 73.17 178.409 73.934 176.756 74.5487C176.369 74.6977 175.975 74.8331 175.58 74.9686C174.69 75.2598 173.772 75.5104 172.861 75.7136C172.046 75.8897 171.216 76.0387 170.374 76.147C169.266 74.5013 168.334 73.0722 167.729 71.9683C167.308 71.2368 166.751 70.2142 166.186 69.0628C164.44 65.5342 162.597 60.7865 164.304 59.493L164.399 59.4252L164.535 59.3507L164.623 59.3101C164.78 59.2403 164.948 59.1968 165.119 59.1814C165.358 59.1505 165.601 59.1505 165.84 59.1814C167.08 59.379 168.275 59.7965 169.368 60.414C169.687 60.5698 170.013 60.7459 170.367 60.9423L170.503 61.0168C173.398 62.6287 178.367 66.7465 183.35 71.054Z" fill="#FFC4C0"/>
<path d="M184.371 70.2615C184.038 70.5256 183.691 70.7762 183.351 71.0201C182.753 71.4467 182.141 71.8463 181.516 72.2324C180.003 73.1361 178.41 73.9001 176.758 74.5148C176.37 74.6638 175.976 74.7992 175.582 74.9347C174.691 75.2259 173.774 75.4765 172.863 75.6797C172.047 75.8558 171.218 76.0048 170.375 76.1131L169.872 76.1741C168.098 73.3973 166.602 70.8914 165.562 68.9341L165.386 68.6022C165.019 67.8933 164.699 67.2161 164.427 66.5704C164.223 66.1189 164.047 65.6674 163.897 65.2158C163.802 64.9314 163.714 64.6537 163.632 64.3828C163.564 64.1458 163.51 63.9223 163.455 63.7055C163.401 63.4888 163.367 63.2653 163.333 63.0283C163.241 62.5281 163.213 62.0183 163.251 61.5112C163.271 61.1438 163.351 60.7822 163.489 60.4411C163.552 60.2839 163.632 60.1341 163.727 59.9941L163.87 59.8045C163.923 59.7425 163.98 59.6837 164.04 59.6284C164.097 59.5735 164.158 59.5236 164.223 59.4794L164.305 59.4252L164.4 59.3574L164.536 59.2829L164.624 59.2423C164.765 59.1782 164.91 59.1261 165.059 59.0865C166.261 58.8927 167.494 59.0503 168.608 59.5403C169.251 59.7591 169.88 60.0193 170.49 60.3192C171.687 60.916 172.841 61.5949 173.944 62.351C177.023 64.3625 180.741 67.2815 184.371 70.2615Z" fill="#FFC727"/>
<path d="M171.694 64.1321C171.531 63.9764 171.368 63.8274 171.191 63.6784L171.008 63.5294L170.872 63.4278C170.799 63.3697 170.722 63.3176 170.641 63.272L170.41 63.123L170.274 63.0485L170.185 63.0079L169.9 62.8792C169.967 63.0417 170.045 63.2 170.131 63.3533C170.418 63.8456 170.765 64.3006 171.164 64.7078L171.62 65.121L171.993 65.4122C172.288 65.6272 172.608 65.8068 172.945 65.9472C172.648 65.2685 172.223 64.6524 171.694 64.1321ZM171.694 64.1321C171.531 63.9764 171.368 63.8274 171.191 63.6784L171.008 63.5294L170.872 63.4278C170.799 63.3697 170.722 63.3176 170.641 63.272L170.41 63.123L170.274 63.0485L170.185 63.0079L169.9 62.8792C169.967 63.0417 170.045 63.2 170.131 63.3533C170.418 63.8456 170.765 64.3006 171.164 64.7078L171.62 65.121L171.993 65.4122C172.288 65.6272 172.608 65.8068 172.945 65.9472C172.648 65.2685 172.223 64.6524 171.694 64.1321Z" fill="white" fill-opacity="0.2"/>
<path opacity="0.1" d="M181.523 72.2327C180.01 73.1364 178.417 73.9003 176.765 74.5151C176.377 74.6641 175.983 74.7995 175.589 74.935C174.698 75.2262 173.781 75.4768 172.87 75.68C172.054 75.856 171.225 76.005 170.382 76.1134L169.879 76.1744C168.105 73.3976 166.61 70.8917 165.57 68.9343L165.393 68.6025C165.026 67.8936 164.706 67.2163 164.434 66.5707C164.23 66.1192 164.054 65.6676 163.904 65.2161C163.809 64.9317 163.721 64.654 163.639 64.3831C163.571 64.146 163.517 63.9225 163.462 63.7058C163.408 63.4891 163.374 63.2656 163.34 63.0285C163.255 62.5276 163.227 62.0186 163.258 61.5115C163.278 61.1441 163.358 60.7825 163.496 60.4414C163.559 60.2842 163.639 60.1343 163.734 59.9944L163.877 59.8047C163.93 59.7428 163.987 59.684 164.047 59.6286C164.104 59.5738 164.165 59.5239 164.23 59.4796L164.312 59.4255L164.407 59.3577L164.543 59.2832L164.631 59.2426C164.774 59.1808 164.922 59.131 165.073 59.0936C165.272 59.0429 165.474 59.0112 165.678 58.9988L165.828 59.1207L168.234 61.1525L170.185 62.778L171.116 63.5568L181.523 72.2327Z" fill="black"/>
<path d="M175.609 74.9345C174.718 75.2258 173.801 75.4764 172.89 75.6795C172.074 75.8556 171.245 76.0046 170.402 76.113L169.899 76.174C165.647 76.6523 161.342 76.1898 157.29 74.8194H157.215H157.147L156.821 74.7043C153.964 73.6649 151.29 72.1839 148.896 70.3156C149.704 68.9001 150.452 67.6539 151.152 66.5635C151.655 65.7778 152.124 65.0735 152.573 64.4436C154.945 61.0573 156.583 59.7027 157.861 59.0255L158.099 58.9103C158.189 58.8605 158.282 58.8175 158.378 58.7816C158.548 58.7072 158.711 58.653 158.867 58.5988C160.613 58.081 162.444 57.9039 164.257 58.0773C165.818 58.1398 167.328 58.6476 168.608 59.5402C168.911 59.7855 169.173 60.0783 169.383 60.4071C169.618 60.7819 169.845 61.1679 170.062 61.5652L170.307 61.9987C170.592 62.5134 170.871 63.0417 171.143 63.597C171.164 63.6281 171.18 63.6624 171.191 63.6986C171.327 63.9763 171.463 64.254 171.598 64.5452C171.734 64.8364 171.87 65.1141 172 65.4121C173.347 68.4468 174.525 71.5534 175.527 74.7178C175.561 74.7788 175.582 74.8533 175.609 74.9345Z" fill="#FFC727"/>
<path d="M165.745 73.7631C165.005 73.7509 164.269 73.8796 163.577 74.1424C164.268 74.4083 165.005 74.5371 165.745 74.5216C166.488 74.5351 167.227 74.4063 167.921 74.1424C167.227 73.8784 166.488 73.7497 165.745 73.7631ZM153.402 63.902C153.3 63.9495 153.204 64.0104 153.109 64.0646C153.012 64.1192 152.919 64.1803 152.831 64.2474C152.786 64.2712 152.745 64.3008 152.708 64.3355L152.565 64.4371C152.348 64.6064 152.151 64.7893 151.954 64.9721C151.421 65.4888 150.99 66.0997 150.683 66.7737C150.851 66.7056 151.014 66.6264 151.172 66.5366C151.654 66.2534 152.097 65.9097 152.491 65.514C153.025 65.0002 153.454 64.3884 153.755 63.7124L153.402 63.902ZM171.598 64.5387C171.462 64.2542 171.326 63.9698 171.183 63.6921L171 63.5431L170.864 63.4415C170.791 63.3834 170.714 63.3314 170.633 63.2857L170.402 63.1367L170.266 63.0622L170.177 63.0148L169.892 62.8861C169.959 63.0486 170.036 63.2069 170.123 63.3602C170.41 63.8526 170.757 64.3076 171.156 64.7148L171.612 65.1279L171.985 65.4191C171.87 65.094 171.734 64.8096 171.598 64.5251V64.5387ZM171.598 64.5387C171.462 64.2542 171.326 63.9698 171.183 63.6921L171 63.5431L170.864 63.4415C170.791 63.3834 170.714 63.3314 170.633 63.2857L170.402 63.1367L170.266 63.0622L170.177 63.0148L169.892 62.8861C169.959 63.0486 170.036 63.2069 170.123 63.3602C170.41 63.8526 170.757 64.3076 171.156 64.7148L171.612 65.1279L171.985 65.4191C171.87 65.094 171.734 64.8096 171.598 64.5251V64.5387Z" fill="white" fill-opacity="0.2"/>
<path d="M159.914 63.7868C159.627 65.7847 159.159 67.7524 158.514 69.6655C157.929 71.4806 157.351 73.1399 156.787 74.6638C153.945 73.6338 151.282 72.1666 148.895 70.3157C148.324 69.8755 147.767 69.4082 147.237 68.9612C148.202 67.6811 149.174 66.4417 150.139 65.2565C153.348 61.3216 156.094 59.1611 157.875 59.0324H158.079C159.574 58.985 160.308 60.5427 159.914 63.7868Z" fill="#FFC4C0"/>
<path d="M160.294 64.3557C160.145 65.579 159.918 66.7915 159.614 67.9859C159.134 69.7048 158.553 71.3942 157.874 73.0451L157.153 74.7992H157.085L156.759 74.6841C153.925 73.6452 151.272 72.1713 148.895 70.3157C148.324 69.8754 147.766 69.4081 147.236 68.9611L146.686 68.4532C148.443 66.1577 150.399 64.0206 152.531 62.0665C155.155 59.7638 156.943 58.8427 158.146 58.7885H158.391C160.45 58.863 160.572 61.8159 160.294 64.3557Z" fill="#FFC727"/>
<path d="M153.402 63.8886C153.3 63.936 153.205 63.997 153.11 64.0511C153.013 64.1057 152.92 64.1668 152.831 64.234C152.786 64.2577 152.745 64.2874 152.709 64.322L152.552 64.444C152.335 64.6133 152.138 64.7961 151.941 64.979C151.408 65.4956 150.977 66.1066 150.669 66.7805C150.838 66.7125 151.001 66.6333 151.159 66.5435C151.641 66.2602 152.084 65.9165 152.478 65.5208C153.011 65.007 153.441 64.3953 153.742 63.7193L153.402 63.8886Z" fill="white" fill-opacity="0.2"/>
<path d="M157.901 73.0451C157.69 73.6343 157.473 74.2235 157.255 74.806H157.18H157.112C157.364 74.2303 157.615 73.6546 157.853 73.0722L157.901 73.0451Z" fill="#263238"/>
<path d="M166.405 69.0222C163.34 69.1306 159.193 63.6853 157.922 59.6827C157.841 59.405 158.738 56.872 159.683 53.7362C160.247 51.8331 160.831 49.6726 161.226 47.7085C161.307 47.3021 173.128 53.1944 173.128 53.1944C171.922 55.5353 171.009 58.0145 170.409 60.5766C170.358 60.8514 170.333 61.1303 170.334 61.4097C170.334 61.4503 170.334 61.4977 170.334 61.5452C170.273 63.1638 169.369 68.9274 166.405 69.0222Z" fill="#FFC4C0"/>
<path d="M161.986 47.9319C161.898 51.4063 162.388 59.9264 169.028 61.3893C169.453 61.4871 169.885 61.546 170.32 61.5654C170.323 61.5203 170.323 61.4751 170.32 61.4299C170.32 61.1509 170.343 60.8723 170.388 60.5969C170.988 58.0324 171.901 55.5508 173.107 53.2079C173.107 53.2079 164.597 48.9614 161.986 47.9319Z" fill="#263238"/>
<path d="M159.091 34.6711C157.813 39.1953 160.45 52.1447 163.747 54.9892C168.505 59.0935 176.118 59.3305 179.585 53.6821C182.943 48.203 179.177 31.3864 175.506 28.833C170.17 25.0471 160.994 27.9797 159.091 34.6711Z" fill="#FFC4C0"/>
<path d="M170.477 42.8457C170.477 42.8457 170.416 42.9066 170.429 42.9405C170.66 43.8006 170.783 44.8233 170.069 45.2974C170.069 45.2974 170.069 45.3583 170.069 45.3448C171.014 44.9791 170.837 43.6245 170.477 42.8457Z" fill="#263238"/>
<path d="M169.484 42.1278C168.057 42.3581 168.621 45.1755 169.94 44.9656C171.258 44.7556 170.646 41.9314 169.484 42.1278Z" fill="#263238"/>
<path d="M175.5 41.8433C175.5 41.8094 175.574 41.8433 175.581 41.9043C175.731 42.7847 176.043 43.7668 176.893 43.9022C176.893 43.9022 176.927 43.9496 176.893 43.9496C175.901 44.0038 175.493 42.6967 175.5 41.8433Z" fill="#263238"/>
<path d="M176.085 40.7731C177.444 40.3939 178.124 43.1842 176.859 43.5432C175.595 43.9021 174.936 41.0982 176.085 40.7731Z" fill="#263238"/>
<path d="M168.152 40.7458C168.519 40.5697 168.832 40.353 169.179 40.1498C169.525 39.9467 169.899 39.7706 170.103 39.3439C170.141 39.2205 170.139 39.0881 170.096 38.9661C170.053 38.8442 169.972 38.7392 169.865 38.6666C169.623 38.5499 169.353 38.5009 169.085 38.5247C168.817 38.5486 168.56 38.6444 168.343 38.8021C167.849 39.0489 167.464 39.4685 167.262 39.9805C167.24 40.0971 167.249 40.2175 167.288 40.3295C167.327 40.4415 167.396 40.5412 167.486 40.6187C167.576 40.6962 167.685 40.7487 167.802 40.771C167.919 40.7934 168.04 40.7847 168.152 40.7458Z" fill="#263238"/>
<path d="M177.146 39.6285C176.752 39.6487 176.357 39.6487 175.963 39.6285C175.545 39.6901 175.119 39.6165 174.746 39.4185C174.643 39.3325 174.571 39.2148 174.541 39.0838C174.512 38.9527 174.526 38.8156 174.583 38.6938C174.729 38.4712 174.932 38.2912 175.171 38.1722C175.41 38.0532 175.676 37.9995 175.943 38.0165C176.493 37.9736 177.041 38.1352 177.479 38.4703C177.57 38.5555 177.636 38.6641 177.669 38.7841C177.702 38.9042 177.701 39.031 177.667 39.1507C177.633 39.2703 177.566 39.3783 177.474 39.4626C177.382 39.5468 177.268 39.6042 177.146 39.6285Z" fill="#263238"/>
<path d="M171.768 47.9454C172.059 48.2485 172.41 48.4876 172.798 48.6474C173.187 48.8072 173.605 48.8841 174.025 48.8732C174.391 48.8695 174.755 48.8148 175.106 48.7107C175.174 48.6976 175.24 48.6771 175.303 48.6497L175.493 48.582C175.538 48.5633 175.575 48.5308 175.6 48.4893C175.624 48.4479 175.635 48.3996 175.629 48.3517C175.633 48.3225 175.633 48.2929 175.629 48.2637V48.1892C175.514 47.5119 175.249 46.5028 175.249 46.5028C175.514 46.5773 176.887 46.8888 176.798 46.5434C176.115 43.528 175.127 40.5895 173.848 37.7728C173.845 37.7626 173.839 37.7531 173.832 37.745C173.825 37.7369 173.816 37.7304 173.806 37.7256C173.797 37.7209 173.786 37.7182 173.775 37.7175C173.764 37.7169 173.753 37.7184 173.743 37.722C173.733 37.7255 173.723 37.7311 173.715 37.7383C173.707 37.7455 173.701 37.7542 173.696 37.764C173.691 37.7737 173.688 37.7843 173.688 37.7951C173.687 37.8059 173.689 37.8167 173.692 37.827C174.304 40.6173 175.405 43.279 176.071 46.0761C175.582 45.9568 175.079 45.9066 174.576 45.9271C174.487 45.9745 175.133 47.8709 175.16 48.1757V48.2095C174.619 48.3737 174.05 48.4278 173.487 48.3685C172.924 48.3091 172.379 48.1376 171.884 47.8641C171.762 47.8167 171.7 47.8844 171.768 47.9454Z" fill="#263238"/>
<path d="M158.587 44.8027C162.033 44.972 163.746 40.8407 162.869 37.5627C162.869 37.5627 172.053 38.5853 172.338 31.2505C173.004 32.2302 173.902 33.0313 174.952 33.5829C176.002 34.1346 177.173 34.4198 178.361 34.4134L179.441 37.0886C180.373 36.7974 181.317 34.1154 178.972 32.0768C178.972 32.0768 178.741 28.4331 175.988 26.2997C175.247 25.6843 174.343 25.2966 173.385 25.1836C172.426 25.0706 171.456 25.2371 170.591 25.663C168.973 24.5438 166.981 24.0968 165.038 24.4168C164.026 24.6025 163.073 25.0255 162.257 25.6508C161.441 26.2761 160.787 27.0859 160.348 28.0132C160.348 28.0132 155.834 28.9749 155.127 32.2055C154.908 33.1165 154.884 34.0635 155.057 34.9844C155.231 35.9053 155.597 36.7793 156.133 37.5491C156.133 37.5491 155.025 38.8292 155.658 41.5586C156.065 43.2856 157.547 44.7485 158.587 44.8027Z" fill="#263238"/>
<path d="M172.122 30.6005C172.204 31.1929 172.223 31.7923 172.176 32.3885C172.151 32.9785 172.053 33.5632 171.884 34.1291C171.572 35.2565 170.844 36.2244 169.845 36.8382C168.812 37.3993 167.662 37.7124 166.487 37.7525C165.896 37.7525 165.297 37.7525 164.699 37.7525C164.101 37.7525 163.503 37.6441 162.898 37.6035C163.483 37.739 164.081 37.8405 164.679 37.9557C165.277 38.0708 165.889 38.037 166.501 38.0844C167.743 38.0946 168.968 37.7917 170.062 37.2039C171.143 36.5425 171.919 35.4844 172.224 34.2578C172.504 33.05 172.469 31.791 172.122 30.6005Z" fill="#263238"/>
<path d="M176.927 34.7386C175.918 34.4171 174.97 33.932 174.12 33.3028C173.706 32.9918 173.337 32.6248 173.025 32.2124C172.707 31.7924 172.438 31.338 172.223 30.8578C172.291 31.4056 172.472 31.9335 172.753 32.4088C173.036 32.8934 173.413 33.317 173.861 33.6549C174.304 33.9911 174.797 34.2562 175.323 34.4406C175.838 34.6265 176.379 34.7272 176.927 34.7386Z" fill="#263238"/>
<path d="M162.115 45.2025C162.115 45.2025 158.989 41.1389 157.119 42.2496C155.25 43.3604 157.718 49.3745 160.002 50.1127C160.288 50.2282 160.595 50.2845 160.903 50.2784C161.212 50.2724 161.516 50.2039 161.798 50.0773C162.079 49.9507 162.332 49.7685 162.541 49.5418C162.75 49.3151 162.91 49.0485 163.013 48.7582L162.115 45.2025Z" fill="#FFC4C0"/>
<path d="M157.875 43.9632V44.0241C159.479 44.593 160.37 46.0153 161.009 47.4985C160.911 47.3454 160.781 47.2153 160.628 47.1171C160.475 47.019 160.302 46.9551 160.122 46.93C159.941 46.9049 159.758 46.9191 159.583 46.9717C159.409 47.0242 159.248 47.1139 159.112 47.2344C159.105 47.2414 159.1 47.2506 159.098 47.2606C159.096 47.2707 159.098 47.281 159.102 47.2902C159.107 47.2993 159.114 47.3067 159.123 47.3113C159.132 47.3159 159.143 47.3174 159.153 47.3157C159.427 47.2179 159.725 47.2064 160.005 47.2827C160.286 47.3591 160.537 47.5195 160.723 47.7423C161.028 48.1201 161.292 48.5287 161.512 48.9614C161.593 49.0969 161.845 49.0088 161.783 48.8531V48.8124C161.715 46.8009 160.037 44.0648 157.875 43.9632Z" fill="#263238"/>
<g opacity="0.2">
<path d="M166.248 46.4146C166.245 46.4697 166.22 46.5214 166.18 46.5592C166.139 46.597 166.086 46.6179 166.031 46.6178C165.976 46.6129 165.925 46.5881 165.887 46.5481C165.85 46.5081 165.828 46.4558 165.827 46.4011C165.827 46.3454 165.849 46.292 165.888 46.2526C165.928 46.2133 165.981 46.1911 166.037 46.1911C166.093 46.1911 166.147 46.2133 166.186 46.2526C166.226 46.292 166.248 46.3454 166.248 46.4011V46.4146Z" fill="black"/>
<path d="M170.646 46.4008C170.637 46.4491 170.612 46.4929 170.574 46.5244C170.536 46.5559 170.488 46.5732 170.439 46.5732C170.389 46.5732 170.342 46.5559 170.304 46.5244C170.266 46.4929 170.24 46.4491 170.231 46.4008C170.232 46.3735 170.239 46.3466 170.25 46.3218C170.262 46.2971 170.278 46.2748 170.298 46.2565C170.319 46.2382 170.342 46.2241 170.368 46.2152C170.394 46.2062 170.422 46.2025 170.449 46.2043C170.5 46.2075 170.548 46.2293 170.585 46.2654C170.621 46.3016 170.643 46.3497 170.646 46.4008Z" fill="black"/>
<path d="M169.014 47.8571C169.011 47.9122 168.986 47.9639 168.946 48.0017C168.905 48.0395 168.852 48.0604 168.797 48.0603C168.769 48.0595 168.742 48.0531 168.718 48.0417C168.693 48.0302 168.67 48.0139 168.652 47.9937C168.634 47.9734 168.619 47.9497 168.61 47.9239C168.601 47.8982 168.598 47.8708 168.6 47.8436C168.6 47.816 168.607 47.7889 168.618 47.7637C168.63 47.7386 168.646 47.7159 168.666 47.6971C168.686 47.6782 168.71 47.6635 168.736 47.6538C168.762 47.644 168.789 47.6395 168.817 47.6404C168.844 47.6413 168.871 47.6476 168.896 47.659C168.921 47.6705 168.943 47.6868 168.962 47.707C168.98 47.7273 168.994 47.751 169.003 47.7768C169.012 47.8026 169.016 47.8299 169.014 47.8571Z" fill="black"/>
<path d="M166.439 44.7077C166.436 44.7622 166.411 44.8132 166.37 44.8499C166.33 44.8866 166.276 44.906 166.222 44.9041C166.194 44.9033 166.167 44.897 166.142 44.8855C166.117 44.8741 166.095 44.8577 166.077 44.8375C166.058 44.8173 166.044 44.7936 166.035 44.7678C166.026 44.742 166.023 44.7147 166.024 44.6874C166.019 44.6572 166.02 44.6261 166.028 44.5963C166.036 44.5666 166.05 44.539 166.07 44.5153C166.09 44.4917 166.114 44.4727 166.142 44.4597C166.17 44.4467 166.201 44.4399 166.232 44.4399C166.263 44.4399 166.293 44.4467 166.321 44.4597C166.349 44.4727 166.374 44.4917 166.393 44.5153C166.413 44.539 166.428 44.5666 166.435 44.5963C166.443 44.6261 166.445 44.6572 166.439 44.6874V44.7077Z" fill="black"/>
<path d="M168.443 45.9946C168.442 46.0222 168.436 46.0493 168.424 46.0744C168.413 46.0996 168.397 46.1222 168.376 46.1411C168.356 46.16 168.333 46.1747 168.307 46.1844C168.281 46.1941 168.253 46.1987 168.225 46.1978C168.198 46.1969 168.171 46.1906 168.146 46.1791C168.121 46.1677 168.099 46.1514 168.081 46.1311C168.062 46.1109 168.048 46.0872 168.039 46.0614C168.03 46.0356 168.026 46.0083 168.028 45.981C168.032 45.9259 168.056 45.8742 168.097 45.8365C168.137 45.7987 168.19 45.7778 168.246 45.7779C168.273 45.7787 168.3 45.7851 168.325 45.7965C168.35 45.808 168.372 45.8243 168.391 45.8445C168.409 45.8647 168.423 45.8885 168.432 45.9142C168.441 45.94 168.445 45.9674 168.443 45.9946Z" fill="black"/>
<path d="M179.306 43.421C179.305 43.4483 179.299 43.4752 179.287 43.4999C179.276 43.5247 179.259 43.547 179.239 43.5653C179.219 43.5836 179.195 43.5977 179.169 43.6067C179.143 43.6156 179.116 43.6193 179.088 43.6175C179.034 43.614 178.982 43.5894 178.946 43.5489C178.909 43.5085 178.889 43.4553 178.891 43.4007C178.9 43.3524 178.926 43.3086 178.964 43.2771C179.001 43.2456 179.049 43.2283 179.099 43.2283C179.148 43.2283 179.196 43.2456 179.234 43.2771C179.271 43.3086 179.297 43.3524 179.306 43.4007V43.421Z" fill="black"/>
<path d="M177.633 44.5317C177.632 44.559 177.626 44.5858 177.615 44.6106C177.603 44.6354 177.587 44.6576 177.566 44.676C177.546 44.6943 177.522 44.7084 177.496 44.7173C177.471 44.7263 177.443 44.73 177.416 44.7281C177.361 44.7247 177.309 44.7003 177.271 44.6601C177.233 44.6198 177.212 44.5666 177.212 44.5114C177.213 44.4841 177.219 44.4573 177.231 44.4325C177.242 44.4077 177.258 44.3855 177.279 44.3672C177.299 44.3488 177.323 44.3348 177.349 44.3258C177.375 44.3168 177.402 44.3132 177.429 44.315C177.485 44.3185 177.537 44.3428 177.575 44.3831C177.612 44.4234 177.633 44.4765 177.633 44.5317Z" fill="black"/>
<path d="M177.987 45.9202C177.984 45.9747 177.959 46.0257 177.919 46.0623C177.878 46.099 177.825 46.1185 177.77 46.1166C177.742 46.1157 177.716 46.1094 177.691 46.098C177.666 46.0865 177.643 46.0702 177.625 46.05C177.607 46.0297 177.593 46.006 177.584 45.9802C177.575 45.9544 177.571 45.9271 177.573 45.8999C177.582 45.8515 177.607 45.8077 177.645 45.7762C177.683 45.7447 177.731 45.7275 177.78 45.7275C177.829 45.7275 177.877 45.7447 177.915 45.7762C177.953 45.8077 177.979 45.8515 177.987 45.8999V45.9202Z" fill="black"/>
<path d="M179.483 45.0264C179.482 45.0536 179.476 45.0805 179.464 45.1053C179.453 45.13 179.436 45.1523 179.416 45.1706C179.396 45.1889 179.372 45.203 179.346 45.212C179.32 45.2209 179.293 45.2246 179.265 45.2228C179.235 45.2283 179.204 45.2271 179.174 45.2192C179.144 45.2114 179.116 45.1971 179.093 45.1774C179.069 45.1577 179.05 45.133 179.037 45.1052C179.024 45.0773 179.017 45.0469 179.017 45.0162C179.017 44.9854 179.024 44.9551 179.037 44.9272C179.05 44.8994 179.069 44.8747 179.093 44.855C179.116 44.8353 179.144 44.821 179.174 44.8132C179.204 44.8053 179.235 44.8041 179.265 44.8096C179.323 44.8096 179.379 44.8325 179.419 44.8731C179.46 44.9137 179.483 44.9689 179.483 45.0264Z" fill="black"/>
</g>
<path d="M192.094 114.808C192.094 113.928 192.252 113.137 192.569 112.436C192.886 111.734 193.539 111.123 194.529 110.603C194.826 110.441 195.193 110.258 195.628 110.053C196.076 109.839 196.503 109.591 196.905 109.311C197.315 109.03 197.672 108.688 197.959 108.301C198.249 107.906 198.4 107.441 198.39 106.966C198.399 106.621 198.318 106.278 198.154 105.966C198.003 105.688 197.79 105.44 197.53 105.239C197.263 105.037 196.954 104.885 196.621 104.794C196.28 104.696 195.925 104.646 195.567 104.646C195.161 104.641 194.759 104.709 194.383 104.846C194.037 104.975 193.712 105.148 193.418 105.358C193.131 105.564 192.872 105.799 192.645 106.059C192.436 106.296 192.243 106.543 192.067 106.8H191.619L189.482 105.183C189.729 104.639 190.076 104.137 190.507 103.698C190.928 103.27 191.419 102.902 191.961 102.606C192.513 102.309 193.109 102.083 193.73 101.937C194.37 101.783 195.029 101.706 195.691 101.707C196.445 101.708 197.195 101.807 197.918 102.004C198.639 102.196 199.31 102.517 199.893 102.947C200.495 103.4 200.982 103.965 201.319 104.605C201.685 105.279 201.868 106.083 201.868 107.018C201.877 107.533 201.802 108.046 201.646 108.541C201.504 108.969 201.288 109.374 201.006 109.741C200.728 110.102 200.398 110.428 200.027 110.711C199.623 111.016 199.196 111.296 198.749 111.547C198.353 111.763 197.957 111.97 197.561 112.167C197.178 112.356 196.816 112.577 196.477 112.827C196.158 113.061 195.887 113.344 195.675 113.663C195.467 113.977 195.363 114.359 195.363 114.808L192.094 114.808ZM192.154 121.088V117.369H195.451V121.088H192.154Z" fill="#FFC727"/>
<g opacity="0.2">
<path d="M192.094 114.808C192.094 113.928 192.252 113.137 192.569 112.436C192.886 111.734 193.539 111.123 194.529 110.603C194.826 110.441 195.193 110.258 195.628 110.053C196.076 109.839 196.503 109.591 196.905 109.311C197.315 109.03 197.672 108.688 197.959 108.301C198.249 107.906 198.4 107.441 198.39 106.966C198.399 106.621 198.318 106.278 198.154 105.966C198.003 105.688 197.79 105.44 197.53 105.239C197.263 105.037 196.954 104.885 196.621 104.794C196.28 104.696 195.925 104.646 195.567 104.646C195.161 104.641 194.759 104.709 194.383 104.846C194.037 104.975 193.712 105.148 193.418 105.358C193.131 105.564 192.872 105.799 192.645 106.059C192.436 106.296 192.243 106.543 192.067 106.8H191.619L189.482 105.183C189.729 104.639 190.076 104.137 190.507 103.698C190.928 103.27 191.419 102.902 191.961 102.606C192.513 102.309 193.109 102.083 193.73 101.937C194.37 101.783 195.029 101.706 195.691 101.707C196.445 101.708 197.195 101.807 197.918 102.004C198.639 102.196 199.31 102.517 199.893 102.947C200.495 103.4 200.982 103.965 201.319 104.605C201.685 105.279 201.868 106.083 201.868 107.018C201.877 107.533 201.802 108.046 201.646 108.541C201.504 108.969 201.288 109.374 201.006 109.741C200.728 110.102 200.398 110.428 200.027 110.711C199.623 111.016 199.196 111.296 198.749 111.547C198.353 111.763 197.957 111.97 197.561 112.167C197.178 112.356 196.816 112.577 196.477 112.827C196.158 113.061 195.887 113.344 195.675 113.663C195.467 113.977 195.363 114.359 195.363 114.808L192.094 114.808ZM192.154 121.088V117.369H195.451V121.088H192.154Z" fill="black"/>
</g>
<path d="M191.649 114.808C191.649 113.928 191.807 113.137 192.124 112.436C192.441 111.734 193.094 111.123 194.084 110.603C194.381 110.441 194.748 110.258 195.183 110.053C195.632 109.839 196.059 109.591 196.461 109.311C196.871 109.03 197.227 108.688 197.515 108.301C197.805 107.906 197.955 107.44 197.945 106.966C197.953 106.622 197.872 106.28 197.708 105.969C197.556 105.691 197.344 105.443 197.084 105.241C196.817 105.039 196.508 104.888 196.175 104.797C195.834 104.699 195.478 104.649 195.121 104.649C194.715 104.642 194.313 104.71 193.936 104.846C193.59 104.975 193.265 105.148 192.971 105.358C192.684 105.564 192.425 105.799 192.199 106.059C191.99 106.296 191.796 106.543 191.619 106.8L189.035 105.183C189.282 104.639 189.629 104.137 190.06 103.698C190.481 103.27 190.972 102.902 191.514 102.606C192.066 102.309 192.661 102.083 193.283 101.937C193.923 101.783 194.583 101.706 195.245 101.707C195.999 101.708 196.75 101.807 197.473 102.004C198.194 102.196 198.865 102.517 199.448 102.947C200.05 103.4 200.536 103.965 200.874 104.605C201.24 105.279 201.423 106.083 201.423 107.018C201.432 107.533 201.357 108.046 201.2 108.541C201.058 108.969 200.841 109.374 200.559 109.741C200.28 110.102 199.951 110.428 199.579 110.711C199.176 111.017 198.749 111.296 198.302 111.546C197.906 111.763 197.51 111.97 197.114 112.167C196.731 112.356 196.368 112.577 196.03 112.827C195.711 113.061 195.44 113.344 195.228 113.663C195.02 113.977 194.916 114.359 194.916 114.808L191.649 114.808ZM191.709 121.088V117.369H195.003V121.088H191.709Z" fill="#FFC727"/>
</svg>
