<svg width="411" height="268" viewBox="0 0 411 268" fill="none" xmlns="http://www.w3.org/2000/svg">
<path d="M150.379 266.671C151.903 267.163 196.884 266.603 198.523 265.524C199.15 265.132 195.993 222.811 195.993 222.811L166.928 223.101L170.018 251.437C170.018 251.437 153.489 259.087 151.802 260.457C150.116 261.827 148.827 266.185 150.379 266.671Z" fill="#D3766A"/>
<path d="M150.379 266.671C151.903 267.163 196.883 266.597 198.523 265.524C198.813 265.349 198.3 256.268 197.666 246.525H169.485L170.018 251.41C170.018 251.41 153.482 259.074 151.802 260.424C150.122 261.773 148.827 266.185 150.379 266.671Z" fill="white"/>
<path d="M149.886 267.292C151.492 267.811 196.911 267.386 198.638 266.26C199.312 265.848 198.348 250.864 198.348 250.783H170.248V251.282C170.248 251.282 152.787 259.29 151.013 260.727C149.239 262.164 148.281 266.772 149.886 267.292Z" fill="#A6A6A6"/>
<path d="M150.009 265.51C157.727 265.247 188.883 264.923 196.561 265.247C196.621 265.247 196.621 265.294 196.561 265.294C188.917 265.726 157.76 265.794 150.009 265.632C149.847 265.632 149.847 265.517 150.009 265.51Z" fill="#263238"/>
<path d="M166.962 250.897C169.992 250.303 173.709 250.735 176.057 252.874C176.145 252.962 176.057 253.09 175.929 253.056C173.017 252.145 170.015 251.55 166.976 251.282C166.931 251.275 166.889 251.253 166.859 251.218C166.828 251.184 166.811 251.141 166.809 251.095C166.808 251.049 166.822 251.004 166.85 250.968C166.878 250.932 166.918 250.907 166.962 250.897Z" fill="#263238"/>
<path d="M164.783 252.24C167.812 251.646 171.53 252.078 173.877 254.217C173.965 254.304 173.844 254.433 173.749 254.399C170.837 253.488 167.836 252.893 164.796 252.624C164.751 252.618 164.71 252.595 164.679 252.561C164.649 252.527 164.631 252.483 164.63 252.438C164.628 252.392 164.643 252.347 164.671 252.311C164.699 252.275 164.738 252.25 164.783 252.24Z" fill="#263238"/>
<path d="M162.605 253.583C165.634 252.989 169.351 253.421 171.693 255.559C171.787 255.64 171.693 255.769 171.571 255.742C168.659 254.831 165.658 254.236 162.618 253.967C162.573 253.96 162.532 253.938 162.501 253.904C162.471 253.87 162.453 253.826 162.452 253.781C162.45 253.735 162.464 253.69 162.492 253.654C162.52 253.618 162.56 253.593 162.605 253.583Z" fill="#263238"/>
<path d="M167.083 250.215H198.374C198.374 250.215 193.146 177.648 193.335 176.677C193.645 175.044 195.494 167.643 197.956 157.982C198.725 154.952 199.555 151.714 200.419 148.347C202.753 139.253 205.323 129.315 207.563 120.686C210.937 107.733 213.554 97.6665 213.554 97.6665H187.033C187.033 97.6665 183.943 107.463 180.05 120.214C173.702 140.933 165.208 169.465 164.385 176.38C163.366 184.752 167.083 250.215 167.083 250.215Z" fill="#455A64"/>
<path d="M168.534 244.515C173.304 244.414 171.908 244.373 176.711 244.326C179.046 244.326 194.387 244.171 196.573 244.535C196.586 244.535 196.598 244.54 196.607 244.549C196.616 244.558 196.621 244.57 196.621 244.582C196.621 244.595 196.616 244.607 196.607 244.616C196.598 244.624 196.586 244.629 196.573 244.629C194.387 244.994 179.032 244.859 176.711 244.839C171.935 244.791 173.304 244.751 168.534 244.65C168.516 244.65 168.499 244.643 168.487 244.63C168.474 244.617 168.467 244.6 168.467 244.582C168.467 244.564 168.474 244.547 168.487 244.534C168.499 244.522 168.516 244.515 168.534 244.515Z" fill="#263238"/>
<path d="M208.731 101.243L203.873 118.372L199.151 135.536C197.572 141.257 196.047 147.005 194.523 152.733C192.998 158.461 191.5 164.203 190.097 169.991C189.759 171.435 189.422 172.879 189.132 174.35C189.051 174.714 189.004 175.092 188.936 175.463C188.936 175.665 188.896 175.895 188.903 176.083L188.95 176.643L193.106 239.853V240.042L193.457 239.826L189.624 176.589L189.584 176.036C189.584 175.861 189.584 175.712 189.584 175.55C189.651 175.193 189.699 174.835 189.773 174.471C190.063 173.027 190.448 171.583 190.751 170.146C193.538 158.616 196.634 147.154 199.65 135.671L208.731 101.243Z" fill="#263238"/>
<path d="M187.668 97.6465C189.51 111.889 196.176 135.556 198.733 154.932C204.717 131.454 213.576 97.6465 213.576 97.6465H187.668Z" fill="#263238"/>
<path d="M251.593 266.449C250.054 266.921 212.273 267.123 210.64 265.997C210.006 265.592 209.784 259.25 209.736 251.518V251.275C209.736 249.69 206.073 223.007 206.073 223.007L234.611 223.587L237.883 251.613V252.092C237.883 252.092 248.543 258.771 250.216 260.188C251.889 261.605 253.131 265.976 251.593 266.449Z" fill="#D3766A"/>
<path d="M209.204 246.525C209.528 249.075 209.737 250.897 209.737 251.248V251.491C209.784 259.196 210.007 265.564 210.634 265.969C212.273 267.062 250.055 266.9 251.593 266.421C253.131 265.942 251.883 261.523 250.244 260.14C248.604 258.757 237.911 252.044 237.911 252.044V251.565L237.31 246.478L209.204 246.525Z" fill="white"/>
<path d="M253.455 267.292C251.849 267.811 211.221 267.386 209.487 266.26C208.812 265.848 209.784 250.864 209.784 250.783H237.884V251.282C237.884 251.282 250.554 259.29 252.328 260.727C254.103 262.164 255.061 266.772 253.455 267.292Z" fill="#A6A6A6"/>
<path d="M253.334 265.51C245.615 265.247 219.249 264.923 211.599 265.247C211.538 265.247 211.538 265.294 211.599 265.294C219.243 265.726 245.615 265.794 253.334 265.632C253.496 265.632 253.496 265.517 253.334 265.51Z" fill="#263238"/>
<path d="M235.597 251.726C231.751 250.66 226.961 250.667 223.838 252.786C223.716 252.867 223.838 253.029 223.993 253.002C227.811 252.35 231.684 252.068 235.557 252.158C235.614 252.164 235.671 252.146 235.715 252.109C235.759 252.073 235.787 252.02 235.793 251.963C235.798 251.905 235.78 251.848 235.744 251.804C235.707 251.76 235.654 251.732 235.597 251.726Z" fill="#263238"/>
<path d="M238.316 253.521C234.463 252.455 229.673 252.462 226.549 254.581C226.428 254.662 226.549 254.824 226.705 254.797C230.523 254.145 234.396 253.863 238.268 253.953C238.326 253.959 238.383 253.943 238.428 253.907C238.473 253.871 238.502 253.818 238.508 253.761C238.514 253.704 238.497 253.646 238.461 253.601C238.425 253.556 238.373 253.528 238.316 253.521Z" fill="#263238"/>
<path d="M241.027 255.316C237.175 254.25 232.392 254.257 229.268 256.375C229.147 256.456 229.268 256.618 229.416 256.598C233.237 255.941 237.112 255.656 240.987 255.748C241.015 255.75 241.044 255.747 241.071 255.739C241.098 255.731 241.124 255.717 241.146 255.699C241.167 255.681 241.186 255.658 241.199 255.633C241.212 255.608 241.22 255.58 241.223 255.552C241.226 255.524 241.223 255.495 241.214 255.468C241.206 255.441 241.192 255.415 241.174 255.393C241.156 255.371 241.134 255.353 241.109 255.34C241.083 255.327 241.056 255.318 241.027 255.316Z" fill="#263238"/>
<path d="M187.668 97.6465C187.668 97.6465 191.716 122.157 191.966 122.946C191.966 122.946 193.464 123.655 196.162 124.896L207.153 250.087L238.599 250.216L221.989 97.6465H187.668Z" fill="#455A64"/>
<path d="M208.232 244.494C213.036 244.42 211.653 244.372 216.457 244.345C218.811 244.345 234.261 244.264 236.454 244.635C236.501 244.635 236.501 244.73 236.454 244.737C234.254 245.087 218.811 244.892 216.457 244.858C211.653 244.791 213.036 244.757 208.232 244.635C208.138 244.635 208.145 244.501 208.232 244.494Z" fill="#263238"/>
<path d="M190.657 122.185C193.787 123.494 196.796 125.074 199.651 126.908C199.759 126.975 199.651 127.15 199.556 127.09C196.52 125.619 193.424 124.202 190.475 122.563C190.425 122.539 190.387 122.495 190.368 122.443C190.35 122.39 190.353 122.333 190.377 122.283C190.402 122.233 190.445 122.194 190.497 122.176C190.55 122.157 190.607 122.161 190.657 122.185Z" fill="#263238"/>
<path d="M191.818 108.144C192.31 111.079 192.587 114.054 192.918 117.01C192.998 117.684 193.079 118.426 193.154 119.135C193.175 119.789 193.351 120.43 193.666 121.004C194.341 121.989 195.448 122.454 196.48 122.906C196.601 122.96 196.554 123.149 196.419 123.109C195.306 122.838 194.279 122.293 193.43 121.523C192.492 120.525 192.519 119.02 192.371 117.731C191.961 114.556 191.736 111.359 191.696 108.158C191.683 108.084 191.804 108.063 191.818 108.144Z" fill="#263238"/>
<path d="M195.38 109.042C195.488 111.153 195.724 113.272 195.899 115.377C195.987 116.416 196.061 117.462 196.122 118.501C196.183 119.539 196.311 120.646 196.277 121.705C196.273 121.719 196.264 121.73 196.252 121.739C196.241 121.747 196.227 121.752 196.213 121.752C196.199 121.752 196.185 121.747 196.173 121.739C196.162 121.73 196.153 121.719 196.149 121.705C195.973 120.707 195.953 119.681 195.865 118.649C195.778 117.617 195.71 116.51 195.65 115.438C195.528 113.306 195.467 111.153 195.279 109.028C195.272 108.974 195.38 108.974 195.38 109.042Z" fill="#263238"/>
<path d="M196.803 128.04L198.483 142.423L200.237 156.801L203.86 185.535L210.283 241.647L204.528 185.454L200.75 156.733L198.806 142.383L196.803 128.04Z" fill="#263238"/>
<path d="M199.488 62.598C193.78 66.511 176.016 78.2637 167.61 76.5433C162.058 75.4031 145.387 67.4893 141.689 64.3049C140.158 62.9555 150.912 49.1383 152.943 50.0829C156.721 51.8235 171.004 60.6144 172.69 60.9922C174.829 61.478 183.161 58.6242 197.214 56.1481C204.44 54.8798 204.413 59.2179 199.488 62.598Z" fill="#D3766A"/>
<path d="M147.404 43.1812C144.705 41.9803 141.763 40.3948 138.7 40.1991C135.638 40.0035 132.763 43.8288 132.662 44.9825C132.561 46.1362 133.128 53.4496 136.184 53.6992C139.24 53.9488 137.857 48.2614 138.026 47.6272C138.194 46.993 138.377 46.2037 138.95 46.2779C139.524 46.3521 149.225 52.0058 149.225 52.0058L147.404 43.1812Z" fill="#D3766A"/>
<path d="M147.174 43.5992C146.999 43.5992 139.078 39.6726 136.009 39.477C132.939 39.2813 130.071 43.1067 129.977 44.2671C129.883 45.4275 130.436 52.7274 133.499 52.9838C136.562 53.2402 135.165 47.5392 135.334 46.9118C135.503 46.2844 135.685 45.4815 136.258 45.5625C136.832 45.6434 146.533 51.2971 146.533 51.2971L147.174 43.5992Z" fill="#D3766A"/>
<path d="M134.566 52.679C134.942 52.1621 135.175 51.5545 135.24 50.9182C135.36 50.2704 135.376 49.6076 135.287 48.9549C135.164 48.3909 135.088 47.8178 135.058 47.2412C135.11 46.6744 135.302 46.1294 135.618 45.6558C135.888 45.251 136.326 45.4331 136.704 45.6018C137.256 45.8643 137.79 46.1617 138.303 46.4924C138.863 46.8297 139.416 47.167 139.97 47.5246C140.559 47.8616 141.125 48.238 141.663 48.6513C141.704 48.6513 141.663 48.7525 141.623 48.7255C141.109 48.4777 140.609 48.2029 140.125 47.9024C139.572 47.5853 139.012 47.2682 138.445 46.9579C137.878 46.6475 137.406 46.3507 136.873 46.0673C136.684 45.9729 136.313 45.73 136.084 45.7637C135.854 45.7974 135.685 46.3574 135.618 46.5396C135.456 47.0833 135.456 47.6623 135.618 48.206C135.736 48.7651 135.797 49.3347 135.8 49.9062C135.807 50.4461 135.718 50.983 135.537 51.4916C135.311 51.9426 135.03 52.3641 134.7 52.7465C134.613 52.8005 134.518 52.733 134.566 52.679Z" fill="#263238"/>
<path d="M156.208 52.4234C156.208 52.4234 148.376 43.9968 146.763 42.3034C143.477 38.9301 129.073 31.6099 127.009 31.2186C124.944 30.8273 123.851 35.0305 133.6 40.2862C138.741 43.059 139.443 46.1962 139.2 47.8762C138.957 49.5561 137.082 52.5988 134.241 52.275C131.401 51.9511 129.896 47.6535 127.319 46.9721C124.742 46.2907 126.071 51.236 127.69 54.1573C129.403 56.9961 131.888 59.2892 134.855 60.769C137.244 61.8957 144.591 65.8088 144.591 65.8088L156.208 52.4234Z" fill="#D3766A"/>
<path d="M130.848 49.995C131.847 50.9126 132.973 52.0865 134.383 52.2552C135.793 52.4238 136.859 51.5805 137.635 50.4336C138.48 49.3271 138.864 47.9373 138.708 46.5542C138.483 45.2905 137.897 44.1189 137.021 43.1809C135.952 42.0482 134.725 41.0756 133.378 40.2933C133.317 40.2933 133.378 40.1719 133.446 40.2056C134.707 40.8803 138.64 42.9043 139.16 46.5745C139.302 47.9857 138.899 49.3979 138.033 50.5213C137.311 51.6008 136.299 52.6195 134.91 52.6195C133.216 52.6195 131.88 51.1285 130.76 50.0018C130.706 49.9748 130.794 49.9276 130.848 49.995Z" fill="#263238"/>
<path d="M157.173 50.0957L147.667 70.8012C147.667 70.8012 164.877 79.2615 170.153 78.3305C175.429 77.3995 191.81 68.8852 199.947 62.6647C205.546 58.3739 203.583 54.1774 195.568 55.6077C187.722 57.011 174.073 60.4046 173.338 60.5868C172.602 60.7689 157.173 50.0957 157.173 50.0957Z" fill="#E0B92C"/>
<path d="M157.038 63.0225C157.645 61.4572 160.026 55.1896 160.499 53.5771C160.499 53.5771 160.465 53.5299 160.451 53.5771C159.703 55.0209 157.173 61.1402 156.559 62.7054C155.263 65.79 154.137 68.9432 153.185 72.1507C153.185 72.2047 153.26 72.2519 153.286 72.1912C154.744 69.2362 155.844 66.1192 157.038 63.0225Z" fill="#263238"/>
<path opacity="0.1" d="M199.954 62.6714C191.811 68.9053 175.437 77.4061 170.154 78.3304C168.903 78.4597 167.64 78.3637 166.423 78.047L202.983 57.2471C203.543 58.6504 202.585 60.6474 199.954 62.6714Z" fill="black"/>
<path d="M181.373 111.099C181.373 111.099 225.037 112.381 225.26 112.104C225.861 111.362 216.82 70.1128 206.977 57.8068C203.306 53.2191 196.546 54.3121 194.037 58.2454C184.584 73.0341 181.319 110.761 181.373 111.099Z" fill="#E0B92C"/>
<path opacity="0.1" d="M225.193 110.951L181.448 110.108C181.448 109.798 181.508 109.433 181.549 108.981L225.011 109.825C225.065 110.257 225.146 110.648 225.193 110.951ZM224.478 107.086L181.832 106.263C181.792 106.654 181.751 107.032 181.711 107.382L224.707 108.219C224.64 107.861 224.559 107.484 224.478 107.086ZM223.891 104.346L182.149 103.537C182.102 103.928 182.055 104.299 182.014 104.664L224.14 105.48C224.059 105.116 223.972 104.738 223.891 104.346ZM223.257 101.607L182.493 100.818C182.446 101.203 182.399 101.58 182.352 101.945L223.506 102.741C223.43 102.376 223.347 101.999 223.257 101.607ZM222.582 98.8682L182.864 98.0991L182.702 99.2258L222.865 100.002L222.582 98.8682ZM221.907 96.129L183.289 95.3802C183.229 95.7647 183.168 96.1358 183.114 96.5069L222.197 97.2625C222.089 96.8914 221.995 96.5136 221.894 96.129H221.907ZM221.185 93.3899L183.721 92.6613C183.654 93.0458 183.593 93.4169 183.539 93.788L221.489 94.5233C221.377 94.1545 221.271 93.7767 221.172 93.3899H221.185ZM220.43 90.6508L184.18 89.9761C184.112 90.3539 184.052 90.725 183.984 91.096L220.733 91.7572C220.632 91.4064 220.524 91.0286 220.416 90.6508H220.43ZM219.667 87.9049L184.699 87.2302C184.625 87.608 184.558 87.9791 184.49 88.3501L219.991 89.0248C219.856 88.6605 219.742 88.2827 219.667 87.9049ZM218.851 85.1657L185.232 84.491C185.158 84.8689 185.077 85.2467 185.01 85.6245L219.195 86.2992L218.851 85.1657ZM217.994 82.4198L185.806 81.7991L185.563 82.9258L218.359 83.56L217.994 82.4198ZM217.11 79.6739L186.427 79.0802C186.339 79.458 186.244 79.8358 186.157 80.2137L217.481 80.8209C217.326 80.4363 217.198 80.0585 217.077 79.6739H217.11ZM216.166 76.9348L187.094 76.3681L186.811 77.4948L216.564 78.075C216.402 77.6904 216.294 77.3126 216.132 76.9145L216.166 76.9348ZM215.154 74.2159L187.789 73.6829C187.681 74.054 187.58 74.425 187.479 74.8028L215.565 75.3493L215.154 74.2159ZM214.095 71.4632L188.592 70.9707C188.471 71.3418 188.363 71.7129 188.255 72.0907L214.567 72.6034C214.391 72.1919 214.27 71.8141 214.095 71.443V71.4632ZM212.968 68.7173L189.476 68.2653C189.348 68.6364 189.22 69.0074 189.098 69.3853L213.447 69.8508C213.285 69.4527 213.13 69.0682 212.968 68.6971V68.7173ZM211.747 65.9647L190.461 65.5532C190.319 65.9242 190.178 66.2953 190.043 66.6731L212.26 67.1049C212.091 66.7001 211.915 66.3155 211.747 65.9445V65.9647ZM210.397 63.2121L191.621 62.8477C191.453 63.2121 191.291 63.5899 191.129 63.9677L210.978 64.3523C210.769 63.9407 210.573 63.5629 210.377 63.1918L210.397 63.2121ZM208.825 60.4594L192.957 60.1491C192.755 60.5066 192.566 60.8777 192.37 61.2623L209.507 61.5996C209.264 61.1813 209.041 60.8035 208.805 60.4392L208.825 60.4594ZM206.997 57.8282C206.957 57.781 206.923 57.7338 206.882 57.6933L194.671 57.4572C194.445 57.7103 194.24 57.981 194.057 58.2668C193.996 58.368 193.929 58.4692 193.875 58.5704L207.753 58.8335C207.483 58.4624 207.233 58.1251 206.977 57.808L206.997 57.8282ZM201.6 54.8664H201.532H200.298H200.244C198.975 54.9441 197.74 55.3036 196.628 55.9189L205.034 56.0808C203.996 55.4019 202.812 54.9788 201.58 54.8462L201.6 54.8664Z" fill="black"/>
<path d="M203.354 63.9126C206.052 70.2882 214.641 89.7726 222.643 92.8626C227.932 94.8866 245.79 97.7134 250.621 97.032C252.645 96.7487 251.505 78.816 249.272 78.5259C245.149 77.9592 228.964 78.1279 226.758 77.0416C224.795 76.0701 219.229 69.3909 208.738 59.7095C203.361 54.7372 201.04 58.4006 203.354 63.9126Z" fill="#D3766A"/>
<path d="M248.415 97.0121C250.317 97.3494 259.21 98.1388 261.706 97.8015C264.202 97.4641 271.401 95.9799 271.34 94.0301C271.279 92.0803 269.141 92.3434 269.141 92.3434C269.141 92.3434 272.076 91.237 271.839 89.2737C271.603 87.3104 268.291 87.8366 268.291 87.8366C268.291 87.8366 271.219 86.4873 270.841 84.5375C270.463 82.5877 267.225 83.6874 267.225 83.6874C267.225 83.6874 269.923 82.5675 268.972 81.1035C267.785 79.3426 262.981 81.967 260.201 82.1289C259.56 82.1627 247.228 81.9468 247.228 81.9468L248.415 97.0121Z" fill="#D3766A"/>
<path d="M267.495 83.6001C263.96 85.5229 262.098 85.7522 258.117 85.4891C258.043 85.4891 258.016 85.6038 258.117 85.6106C261.97 86.2178 264.371 86.2852 267.617 83.7687C267.758 83.6608 267.664 83.5056 267.495 83.6001Z" fill="#263238"/>
<path d="M268.567 87.7089C264.715 89.382 262.677 89.6519 258.508 89.6789C258.454 89.6789 258.447 89.7801 258.508 89.7868C262.596 90.0972 264.992 90.0904 268.628 87.9113C268.783 87.7898 268.743 87.6009 268.567 87.7089Z" fill="#263238"/>
<path d="M268.919 92.3366C265.073 93.686 262.847 94.0773 258.799 93.5915C258.779 93.5915 258.76 93.5993 258.746 93.6133C258.732 93.6272 258.724 93.6461 258.724 93.6657C258.724 93.6854 258.732 93.7043 258.746 93.7182C258.76 93.7321 258.779 93.74 258.799 93.74C262.847 94.6373 265.653 94.1717 268.966 92.4581C269.189 92.3434 269.175 92.2489 268.919 92.3366Z" fill="#263238"/>
<path d="M246.351 78.6618C246.351 78.6618 250.899 76.4691 253.098 75.9631C255.297 75.4571 264.257 76.5163 264.135 78.4661C263.98 80.9759 258.684 81.3739 256.073 81.2255C256.073 81.2255 255.709 87.0411 251.971 88.1476C248.234 89.254 246.351 78.6618 246.351 78.6618Z" fill="#D3766A"/>
<path d="M263.872 79.1198C262.077 81.3058 258.65 80.8942 256.106 80.9414C256.069 80.9406 256.031 80.9489 255.997 80.9655C255.963 80.9822 255.934 81.0067 255.911 81.0372C255.889 81.0676 255.874 81.103 255.868 81.1403C255.862 81.1777 255.865 81.2159 255.877 81.2518C255.56 83.6806 254.413 87.0134 252.119 88.2009C252.104 88.2071 252.092 88.2192 252.085 88.2344C252.079 88.2495 252.079 88.2666 252.085 88.2818C252.092 88.297 252.104 88.3091 252.119 88.3155C252.134 88.3218 252.151 88.3218 252.166 88.3155C254.797 87.371 256.214 84.1866 256.369 81.5082C258.98 81.5082 262.441 81.7578 263.892 79.1333C263.905 79.1198 263.885 79.1064 263.872 79.1198Z" fill="#263238"/>
<path d="M245.643 75.8888L242.438 98.4429C242.438 98.4429 223.386 96.2502 219.446 92.6138C215.505 88.9773 206.33 72.9675 202.862 63.3197C200.474 56.681 204.4 54.2117 210.365 59.7508C216.2 65.1481 225.882 75.4165 226.368 75.9428C226.853 76.469 245.643 75.8888 245.643 75.8888Z" fill="#E0B92C"/>
<path d="M238.761 86.8316C239.098 85.1854 240.481 78.6209 240.953 77.022C240.953 77.022 241.007 77.022 241 77.022C240.852 78.6412 239.651 85.1517 239.341 86.7979C238.758 90.1027 237.995 93.373 237.054 96.594C237.054 96.648 236.939 96.6413 236.946 96.594C237.33 93.2949 238.099 90.07 238.761 86.8316Z" fill="#263238"/>
<path d="M229.605 96.385C227.995 96.1047 226.405 95.7262 224.842 95.2515C223.26 94.808 221.74 94.1712 220.315 93.3557C219.604 92.9267 218.966 92.3869 218.426 91.7568C217.859 91.1631 217.339 90.5289 216.833 89.8812C215.818 88.5932 214.87 87.2533 213.993 85.8669C212.198 83.121 210.62 80.2605 209.102 77.3594C207.584 74.4583 206.214 71.4898 204.966 68.4673C206.518 71.3481 208.042 74.2289 209.614 77.0828C210.404 78.5131 211.186 79.9366 212.016 81.3399C212.846 82.7432 213.642 84.1668 214.506 85.5431C215.369 86.9194 216.253 88.2822 217.204 89.5911C217.67 90.2658 218.162 90.9 218.675 91.5274C219.156 92.1767 219.759 92.7266 220.45 93.1466C221.847 93.9778 223.34 94.637 224.896 95.1099C226.439 95.6259 228.012 96.0517 229.605 96.385Z" fill="#263238"/>
<path d="M204.886 70.2407C205.277 70.5983 205.608 70.9761 205.945 71.3472L206.444 71.9206C206.613 72.1163 206.781 72.2985 206.943 72.5143C206.463 72.2979 206.037 71.9776 205.695 71.5766C205.344 71.1863 205.069 70.733 204.886 70.2407Z" fill="#263238"/>
<path d="M196.668 62.1717C199.003 62.9813 203.483 59.7429 205.405 56.9498C205.533 56.7542 205.439 54.5817 205.453 51.937C205.453 50.3313 205.52 48.5637 205.682 46.9175C205.716 46.5869 195.225 48.3613 195.225 48.3613C195.603 50.455 195.72 52.5873 195.575 54.7099C195.55 54.9383 195.505 55.164 195.44 55.3846C195.44 55.3846 195.44 55.4521 195.44 55.4925C195.076 56.7272 194.415 61.3959 196.668 62.1717Z" fill="#D3766A"/>
<path d="M205.055 46.8979C204.299 49.5966 201.911 56.0734 196.453 55.6686C196.102 55.6458 195.754 55.5916 195.414 55.5067C195.414 55.4595 195.414 55.4325 195.414 55.3987C195.477 55.1776 195.525 54.9521 195.555 54.7241C195.696 52.6012 195.576 50.4691 195.198 48.3755C195.198 48.3755 202.801 47.0801 205.055 46.8979Z" fill="#263238"/>
<path d="M206.849 33.8502C208.09 37.4461 206.552 48.0182 204.049 50.447C200.426 53.9755 194.307 54.495 191.23 50.1231C188.275 45.8592 190.522 32.123 193.335 29.8831C197.498 26.6042 205.007 28.5405 206.849 33.8502Z" fill="#D3766A"/>
<path d="M198.47 40.3672C198.47 40.3672 198.524 40.4077 198.517 40.4347C198.395 41.1093 198.368 41.9796 198.982 42.3035C198.982 42.3035 198.982 42.3507 198.982 42.344C198.2 42.1213 198.24 41.0149 198.47 40.3672Z" fill="#263238"/>
<path d="M199.212 39.7124C200.366 39.7866 200.137 42.094 199.064 42.0265C197.991 41.959 198.241 39.6449 199.212 39.7124Z" fill="#263238"/>
<path d="M194.361 39.9497C194.361 39.9497 194.301 39.9497 194.301 40.0037C194.247 40.7188 194.071 41.5352 193.396 41.7106V41.7511C194.199 41.7173 194.429 40.6379 194.361 39.9497Z" fill="#263238"/>
<path d="M193.794 39.1332C192.654 38.9308 192.33 41.2314 193.389 41.4203C194.448 41.6092 194.752 39.3019 193.794 39.1332Z" fill="#263238"/>
<path d="M200.23 38.7484C199.935 38.6285 199.647 38.4934 199.366 38.3436C199.042 38.2404 198.76 38.0343 198.564 37.7566C198.52 37.6577 198.511 37.5474 198.536 37.4426C198.562 37.3377 198.621 37.2442 198.705 37.1764C198.891 37.0673 199.103 37.0098 199.319 37.0098C199.535 37.0098 199.747 37.0673 199.933 37.1764C200.347 37.3386 200.686 37.6488 200.884 38.0467C200.924 38.1402 200.935 38.2429 200.917 38.3427C200.899 38.4424 200.853 38.5349 200.784 38.6089C200.715 38.683 200.626 38.7356 200.528 38.7603C200.429 38.7851 200.326 38.7809 200.23 38.7484Z" fill="#263238"/>
<path d="M193.019 37.8778C193.336 37.8471 193.651 37.7998 193.963 37.7361C194.301 37.7284 194.627 37.6125 194.894 37.4055C194.965 37.3227 195.006 37.2193 195.012 37.111C195.018 37.0026 194.989 36.8952 194.928 36.8051C194.779 36.6461 194.591 36.5297 194.382 36.468C194.173 36.4063 193.952 36.4016 193.741 36.4543C193.298 36.4941 192.886 36.6988 192.587 37.0277C192.522 37.1057 192.482 37.201 192.471 37.3017C192.459 37.4024 192.478 37.5042 192.524 37.5945C192.57 37.6849 192.641 37.7599 192.729 37.8102C192.817 37.8605 192.918 37.884 193.019 37.8778Z" fill="#263238"/>
<path d="M198.173 47.0674C197.984 47.2225 197.788 47.4317 197.498 47.4317C197.233 47.3972 196.978 47.3076 196.749 47.1686C196.749 47.1686 196.702 47.1686 196.716 47.1686C196.803 47.3206 196.93 47.446 197.084 47.5316C197.237 47.6171 197.41 47.6595 197.586 47.6543C197.736 47.6305 197.876 47.5627 197.988 47.4594C198.099 47.3561 198.178 47.222 198.213 47.0741C198.254 47.0674 198.2 47.0471 198.173 47.0674Z" fill="#263238"/>
<path d="M197.64 44.8542C197.429 45.1183 197.165 45.336 196.865 45.4939C196.566 45.6517 196.237 45.7463 195.9 45.7718C195.607 45.7964 195.311 45.7806 195.023 45.7245C194.965 45.7184 194.908 45.7048 194.854 45.6841L194.699 45.6436C194.662 45.6324 194.631 45.6101 194.608 45.5798C194.585 45.5496 194.572 45.5129 194.571 45.4749C194.568 45.4503 194.568 45.4254 194.571 45.4007V45.34C194.611 44.7868 194.746 43.9569 194.746 43.9569C194.537 44.0379 193.464 44.3955 193.511 44.1054C193.823 41.6274 194.388 39.188 195.198 36.8257C195.202 36.8122 195.211 36.8004 195.223 36.7921C195.234 36.7838 195.248 36.7793 195.262 36.7793C195.276 36.7793 195.29 36.7838 195.302 36.7921C195.313 36.8004 195.322 36.8122 195.326 36.8257C195.05 39.1128 194.368 41.346 194.058 43.6398C194.438 43.5069 194.836 43.4296 195.238 43.4104C195.313 43.4104 194.942 45.0094 194.948 45.259C195.395 45.3522 195.857 45.3536 196.304 45.2631C196.752 45.1726 197.177 44.9922 197.553 44.7328C197.634 44.7463 197.688 44.8003 197.64 44.8542Z" fill="#263238"/>
<path d="M195.38 45.5149C195.661 45.9272 196.045 46.2595 196.493 46.4797C196.739 46.5959 197.016 46.6291 197.282 46.5742C197.862 46.4595 197.91 45.8995 197.829 45.4745C197.78 45.2428 197.708 45.0167 197.613 44.7998C196.963 45.269 196.181 45.5194 195.38 45.5149Z" fill="#263238"/>
<path d="M196.479 46.4802C196.725 46.5964 197.002 46.6296 197.268 46.5747C197.848 46.46 197.895 45.9 197.814 45.475C197.511 45.468 197.214 45.5634 196.972 45.7458C196.73 45.9282 196.556 46.1869 196.479 46.4802Z" fill="#FF9BBC"/>
<path d="M204.15 39.6514C203.441 37.5532 204.642 34.0517 203.597 33.1139C201.336 31.0899 196.702 34.976 193.517 34.9963C190.333 35.0165 189.408 33.0262 189.962 30.53C190.515 28.0337 192.66 26.347 196.108 25.8073C199.128 25.4577 202.175 26.1736 204.723 27.8313C204.723 27.8313 203.941 26.5832 204.231 26.1919C204.521 25.8005 206.032 27.0082 206.498 27.5412C206.834 27.9869 207.088 28.4897 207.247 29.0254C207.707 28.9097 208.182 28.862 208.657 28.8838C209.343 28.9337 209.99 29.2226 210.485 29.7001C210.539 29.8823 209.419 30.024 208.63 30.0644C208.63 30.0644 210.1 32.0142 210.067 33.6807C210.033 35.3471 207.435 43.2609 206.815 43.3486C206.005 43.4836 204.433 40.4813 204.15 39.6514Z" fill="#263238"/>
<path d="M208.319 29.8901C208.319 29.8901 208.252 29.8901 208.279 29.9374C209.047 30.5505 209.625 31.3695 209.945 32.2987C210.263 33.4198 210.275 34.6056 209.979 35.7327C209.493 37.9187 208.42 39.9022 207.489 41.9262C207.489 41.9802 207.564 42.0341 207.591 41.9734C208.832 39.9034 209.743 37.6521 210.289 35.301C210.647 33.3039 210.181 31.0371 208.319 29.8901Z" fill="#263238"/>
<path d="M202.801 26.9886C201.551 26.3692 200.221 25.9286 198.848 25.6798C197.536 25.4057 196.188 25.3601 194.861 25.5448C192.573 25.9159 190.475 27.3664 189.942 29.7143C189.648 30.9152 189.811 32.1829 190.401 33.2698C190.405 33.2773 190.41 33.284 190.416 33.2896C190.422 33.2952 190.429 33.2996 190.437 33.3024C190.445 33.3052 190.453 33.3065 190.461 33.3061C190.47 33.3057 190.478 33.3037 190.485 33.3001C190.493 33.2966 190.5 33.2916 190.505 33.2854C190.511 33.2793 190.515 33.2721 190.518 33.2642C190.521 33.2564 190.522 33.2481 190.522 33.2398C190.521 33.2315 190.519 33.2233 190.516 33.2158C190.028 32.2129 189.879 31.079 190.091 29.9842C190.302 28.8894 190.863 27.8927 191.69 27.1438C193.565 25.5178 196.196 25.3964 198.531 25.7944C199.992 26.0434 201.423 26.4436 202.801 26.9886Z" fill="#263238"/>
<path d="M197.997 44.2266C197.241 43.9945 196.607 43.4726 196.234 42.7749C195.861 42.0772 195.779 41.2603 196.007 40.5025C196.168 39.9654 196.478 39.4846 196.9 39.1151C197.322 38.7456 197.839 38.5023 198.393 38.4131C198.947 38.3238 199.515 38.3922 200.031 38.6104C200.548 38.8286 200.993 39.1878 201.315 39.6469C201.637 40.1061 201.824 40.6466 201.853 41.2068C201.883 41.7669 201.754 42.324 201.482 42.8144C201.209 43.3048 200.805 43.7087 200.314 43.9799C199.823 44.2512 199.265 44.3787 198.705 44.3481C198.465 44.3378 198.227 44.297 197.997 44.2266ZM196.384 40.6172C196.235 41.1281 196.249 41.6728 196.423 42.1757C196.598 42.6786 196.925 43.1147 197.358 43.4235C197.792 43.7324 198.31 43.8986 198.843 43.8992C199.375 43.8997 199.894 43.7346 200.328 43.4268C200.763 43.1189 201.09 42.6835 201.266 42.181C201.441 41.6785 201.456 41.1338 201.308 40.6225C201.16 40.1113 200.857 39.6587 200.44 39.3277C200.023 38.9967 199.513 38.8037 198.982 38.7753C198.406 38.7494 197.837 38.9165 197.367 39.2501C196.896 39.5837 196.551 40.0648 196.384 40.6172Z" fill="#E0B92C"/>
<path d="M191.777 43.1809C190.562 42.9785 189.793 41.501 190.056 39.8683C190.166 39.1314 190.503 38.4473 191.021 37.9118C191.228 37.6663 191.495 37.4787 191.796 37.3673C192.097 37.2559 192.422 37.2245 192.739 37.2761C193.055 37.3278 193.353 37.4608 193.603 37.6621C193.853 37.8634 194.047 38.1261 194.165 38.4245C194.483 39.0991 194.583 39.8564 194.448 40.5902C194.199 42.1284 193.099 43.2484 191.972 43.2012L191.777 43.1809ZM191.298 38.1951C190.843 38.6739 190.548 39.2822 190.454 39.9358C190.225 41.3458 190.846 42.6344 191.837 42.7829C192.829 42.9313 193.828 41.9328 194.057 40.5227C194.178 39.8715 194.091 39.1987 193.807 38.5999C193.706 38.3665 193.55 38.1608 193.353 38C193.156 37.8391 192.923 37.7279 192.674 37.6756H192.519C192.295 37.6803 192.075 37.7299 191.871 37.8214C191.667 37.913 191.483 38.0447 191.331 38.2086L191.298 38.1951Z" fill="#E0B92C"/>
<path d="M196.054 40.8604L196.357 40.5973C195.973 40.1453 195.008 39.4773 194.171 40.125L194.421 40.4421C195.17 39.8552 196.013 40.8199 196.054 40.8604Z" fill="#E0B92C"/>
<path d="M209.069 43.7537L209.447 43.6323C209.393 43.4568 208.86 41.8916 208.003 41.6083C207.146 41.3249 201.83 40.9741 201.607 40.9336V41.3316C203.145 41.4328 207.281 41.7499 207.902 41.9591C208.522 42.1682 208.927 43.3287 209.069 43.7537Z" fill="#E0B92C"/>
<path d="M204.906 42.506C204.906 42.506 207.227 39.0719 208.786 39.895C210.344 40.7181 208.631 45.6701 206.836 46.3718C206.611 46.4777 206.368 46.5371 206.119 46.5463C205.871 46.5556 205.624 46.5145 205.392 46.4257C205.16 46.3368 204.948 46.2019 204.77 46.0292C204.591 45.8565 204.45 45.6494 204.353 45.4205L204.906 42.506Z" fill="#D3766A"/>
<path d="M208.259 41.2842C208.259 41.2842 208.292 41.2842 208.259 41.3314C206.997 41.8644 206.349 43.0518 205.897 44.2797C205.969 44.1513 206.068 44.0401 206.187 43.9536C206.306 43.867 206.442 43.8073 206.587 43.7784C206.731 43.7496 206.88 43.7523 207.023 43.7864C207.166 43.8206 207.3 43.8853 207.415 43.9761C207.449 43.9761 207.415 44.0503 207.382 44.0436C207.157 43.9762 206.917 43.9803 206.694 44.0552C206.472 44.1301 206.278 44.2722 206.14 44.4619C205.912 44.7802 205.717 45.1217 205.56 45.4806C205.506 45.5953 205.297 45.5346 205.337 45.4064C205.304 43.7535 206.525 41.4731 208.259 41.2842Z" fill="#263238"/>
<g opacity="0.8">
<path d="M409.998 66.0708H246.634V169.423H409.998V66.0708Z" fill="white"/>
<path d="M410.167 169.585H246.466V65.9023H410.167V169.585ZM246.803 169.248H409.83V66.2397H246.803V169.248Z" fill="#A6A6A6"/>
<path d="M407.097 70.0518H246.634V96.1276H407.097V70.0518Z" fill="#E0B92C"/>
<path d="M409.991 70.0454H407.097V169.417H409.991V70.0454Z" fill="#DBDBDB"/>
<path d="M408.575 104.5C408.476 104.5 408.379 104.481 408.288 104.443C408.197 104.406 408.115 104.351 408.045 104.281C407.976 104.212 407.92 104.129 407.883 104.038C407.845 103.947 407.826 103.85 407.826 103.752V71.3675C407.826 71.2692 407.845 71.1718 407.883 71.081C407.92 70.9901 407.976 70.9075 408.045 70.838C408.115 70.7685 408.197 70.7133 408.288 70.6757C408.379 70.638 408.476 70.6187 408.575 70.6187C408.773 70.6187 408.964 70.6976 409.104 70.838C409.245 70.9784 409.324 71.1689 409.324 71.3675V103.752C409.324 103.95 409.245 104.141 409.104 104.281C408.964 104.422 408.773 104.5 408.575 104.5Z" fill="#A6A6A6"/>
<path d="M398.731 74.8955H359.722V80.1039H398.731V74.8955Z" fill="white"/>
<path d="M398.785 80.1582H359.654V74.8418H398.785V80.1582ZM359.776 80.0502H398.684V74.9497H359.776V80.0502Z" fill="#C7C7C7"/>
<path d="M398.792 74.8418H393.476V80.1582H398.792V74.8418Z" fill="#455A64"/>
<path d="M397.781 78.9377L397.302 79.302L396.431 78.1483L396.107 77.7165C396.173 77.6897 396.234 77.6533 396.29 77.6086C396.4 77.5272 396.486 77.4177 396.539 77.2915L396.883 77.7435L397.781 78.9377Z" fill="white"/>
<path d="M396.836 76.1907C396.684 75.9933 396.478 75.8434 396.244 75.7588C396.009 75.6742 395.755 75.6583 395.512 75.7131C395.269 75.7679 395.046 75.891 394.87 76.068C394.695 76.245 394.573 76.4685 394.52 76.7122C394.467 76.9558 394.485 77.2095 394.572 77.4435C394.658 77.6774 394.809 77.8817 395.008 78.0325C395.207 78.1833 395.444 78.2742 395.693 78.2945C395.941 78.3148 396.19 78.2638 396.411 78.1473L396.593 78.0258C396.698 77.9469 396.789 77.8511 396.863 77.7425C397.025 77.5148 397.109 77.2413 397.104 76.9622C397.099 76.683 397.005 76.4127 396.836 76.1907ZM396.269 77.6075C396.214 77.6523 396.153 77.6887 396.087 77.7155C395.952 77.7689 395.804 77.7836 395.661 77.758C395.518 77.7324 395.385 77.6674 395.277 77.5704C395.169 77.4734 395.09 77.3482 395.049 77.2088C395.008 77.0693 395.006 76.9212 395.045 76.781C395.083 76.6408 395.16 76.5141 395.266 76.415C395.372 76.316 395.504 76.2485 395.647 76.2201C395.789 76.1917 395.937 76.2036 396.073 76.2544C396.209 76.3053 396.328 76.393 396.418 76.5078C396.5 76.6185 396.553 76.7487 396.571 76.8858C396.589 77.023 396.571 77.1623 396.519 77.2904C396.463 77.4093 396.377 77.5115 396.269 77.5873V77.6075Z" fill="white"/>
<path d="M361.092 75.9209H360.815V79.0783H361.092V75.9209Z" fill="#C7C7C7"/>
<path d="M357.765 74.8955H267.913V80.1039H357.765V74.8955Z" fill="white"/>
<path d="M357.82 80.1582H267.867V74.8418H357.82V80.1582ZM267.968 80.0502H357.699V74.9497H267.968V80.0502Z" fill="#C7C7C7"/>
<path d="M269.283 75.9209H269.007V79.0783H269.283V75.9209Z" fill="#C7C7C7"/>
<path d="M258.09 79.2815L256.194 77.5341L258.084 75.7192L258.38 76.0296L256.815 77.5274L258.374 78.9711L258.09 79.2815Z" fill="white"/>
<path d="M262.665 75.7192L264.56 77.4599L262.671 79.2747L262.375 78.9711L263.94 77.4666L262.381 76.0296L262.665 75.7192Z" fill="white"/>
<path d="M307.74 133.611H349.11V101.868H307.74V133.611Z" fill="#E0B92C"/>
<path opacity="0.6" d="M311.855 108.811C311.697 109.602 311.797 110.422 312.142 111.152C312.486 111.881 313.056 112.48 313.767 112.861C314.478 113.241 315.293 113.383 316.09 113.265C316.888 113.147 317.627 112.775 318.197 112.205C318.767 111.634 319.139 110.896 319.257 110.098C319.375 109.3 319.234 108.485 318.853 107.774C318.473 107.063 317.873 106.493 317.144 106.149C316.415 105.805 315.594 105.704 314.803 105.862C314.076 106.008 313.407 106.366 312.883 106.89C312.358 107.415 312 108.083 311.855 108.811Z" fill="white"/>
<path d="M321.38 126.778H349.109L335.245 109.688L321.38 126.778Z" fill="#E0B92C"/>
<path opacity="0.2" d="M321.38 126.778H349.109L335.245 109.688L321.38 126.778Z" fill="black"/>
<path d="M307.733 126.791H332.317L320.025 115.666L307.733 126.791Z" fill="#E0B92C"/>
<path opacity="0.1" d="M307.733 126.791H332.317L320.025 115.666L307.733 126.791Z" fill="black"/>
<path d="M349.103 126.771H307.733V133.613H349.103V126.771Z" fill="#E0B92C"/>
<path opacity="0.1" d="M349.103 126.771H307.733V133.613H349.103V126.771Z" fill="black"/>
<path d="M277.365 138.003H255.486V139.845H277.365V138.003Z" fill="#A6A6A6"/>
<path d="M348.468 142.274H255.486V144.116H348.468V142.274Z" fill="#EBEBEB"/>
<path d="M348.468 146.33H255.486V148.172H348.468V146.33Z" fill="#EBEBEB"/>
<path d="M348.468 150.378H255.486V152.22H348.468V150.378Z" fill="#EBEBEB"/>
<path d="M348.468 154.426H255.486V156.268H348.468V154.426Z" fill="#EBEBEB"/>
<path d="M348.468 158.474H255.486V160.316H348.468V158.474Z" fill="#EBEBEB"/>
<path d="M376.67 102.146H354.791V103.988H376.67V102.146Z" fill="#A6A6A6"/>
<path d="M401.282 106.417H354.791V108.258H401.282V106.417Z" fill="#EBEBEB"/>
<path d="M401.282 110.465H354.791V112.307H401.282V110.465Z" fill="#EBEBEB"/>
<path d="M401.282 114.519H354.791V116.361H401.282V114.519Z" fill="#EBEBEB"/>
<path d="M401.282 118.567H354.791V120.409H401.282V118.567Z" fill="#EBEBEB"/>
<path d="M401.282 126.076H354.791V127.918H401.282V126.076Z" fill="#EBEBEB"/>
<path d="M401.282 130.124H354.791V131.965H401.282V130.124Z" fill="#EBEBEB"/>
<path d="M401.282 134.178H354.791V136.02H401.282V134.178Z" fill="#EBEBEB"/>
<path d="M401.282 138.226H354.791V140.068H401.282V138.226Z" fill="#EBEBEB"/>
<path d="M401.282 142.274H354.791V144.116H401.282V142.274Z" fill="#EBEBEB"/>
<path d="M401.282 150.378H354.791V152.22H401.282V150.378Z" fill="#EBEBEB"/>
<path d="M386.129 154.426H354.791V156.268H386.129V154.426Z" fill="#EBEBEB"/>
<path d="M387.262 153.265H387.06V157.428H387.262V153.265Z" fill="#263238"/>
<path d="M277.365 101.869H255.486V106.794H277.365V101.869Z" fill="#A6A6A6"/>
<path d="M301.909 110.188H255.486V112.03H301.909V110.188Z" fill="#EBEBEB"/>
<path d="M301.909 114.243H255.486V116.085H301.909V114.243Z" fill="#EBEBEB"/>
<path d="M301.909 118.291H255.486V120.132H301.909V118.291Z" fill="#EBEBEB"/>
<path d="M301.909 122.338H255.486V124.18H301.909V122.338Z" fill="#EBEBEB"/>
<path d="M301.909 127.729H255.486V129.571H301.909V127.729Z" fill="#EBEBEB"/>
<path d="M301.909 131.777H255.486V133.619H301.909V131.777Z" fill="#EBEBEB"/>
<path d="M409.998 66.0708H246.634V70.0513H409.998V66.0708Z" fill="#263238"/>
<path d="M250.649 68.061C250.651 68.232 250.601 68.3997 250.507 68.5425C250.413 68.6854 250.278 68.7972 250.121 68.8636C249.963 68.93 249.789 68.948 249.621 68.9155C249.453 68.8829 249.299 68.8012 249.177 68.6807C249.056 68.5602 248.973 68.4064 248.939 68.2387C248.905 68.071 248.922 67.897 248.987 67.7388C249.052 67.5806 249.163 67.4453 249.305 67.3501C249.447 67.255 249.615 67.2041 249.786 67.2041C249.899 67.2032 250.011 67.2247 250.116 67.2674C250.22 67.3101 250.316 67.373 250.396 67.4527C250.476 67.5323 250.54 67.6271 250.583 67.7315C250.627 67.8359 250.649 67.9479 250.649 68.061Z" fill="#C7C7C7"/>
<path d="M254.15 68.061C254.152 68.232 254.102 68.3997 254.008 68.5425C253.914 68.6854 253.78 68.7972 253.622 68.8636C253.464 68.93 253.29 68.948 253.122 68.9155C252.954 68.8829 252.8 68.8012 252.678 68.6807C252.557 68.5602 252.474 68.4064 252.44 68.2387C252.406 68.071 252.423 67.897 252.488 67.7388C252.553 67.5806 252.664 67.4453 252.806 67.3501C252.948 67.255 253.116 67.2041 253.287 67.2041C253.4 67.2032 253.512 67.2247 253.617 67.2674C253.721 67.3101 253.817 67.373 253.897 67.4527C253.977 67.5323 254.041 67.6271 254.084 67.7315C254.128 67.8359 254.15 67.9479 254.15 68.061Z" fill="white"/>
<path d="M257.651 68.061C257.653 68.2323 257.603 68.4002 257.509 68.5432C257.414 68.6863 257.28 68.798 257.121 68.8642C256.963 68.9304 256.789 68.9481 256.621 68.915C256.453 68.8819 256.298 68.7995 256.177 68.6783C256.056 68.5571 255.974 68.4026 255.941 68.2345C255.907 68.0664 255.925 67.8922 255.991 67.7341C256.058 67.576 256.169 67.4412 256.312 67.3469C256.455 67.2525 256.623 67.2028 256.795 67.2041C257.022 67.2041 257.24 67.2944 257.4 67.4551C257.561 67.6158 257.651 67.8337 257.651 68.061Z" fill="#E0B92C"/>
</g>
<g opacity="0.9">
<path d="M298.213 130.63H134.849V234.063H298.213V130.63Z" fill="white"/>
<path d="M298.382 234.231H134.661V130.461H298.382V234.231ZM135.019 233.894H298.045V130.798H135.019V233.894Z" fill="#A6A6A6"/>
<path d="M298.213 130.63H134.849V134.61H298.213V130.63Z" fill="#263238"/>
<path d="M138.007 133.477C138.48 133.477 138.864 133.093 138.864 132.62C138.864 132.147 138.48 131.763 138.007 131.763C137.534 131.763 137.15 132.147 137.15 132.62C137.15 133.093 137.534 133.477 138.007 133.477Z" fill="#C7C7C7"/>
<path d="M141.509 133.477C141.983 133.477 142.366 133.093 142.366 132.62C142.366 132.147 141.983 131.763 141.509 131.763C141.036 131.763 140.653 132.147 140.653 132.62C140.653 133.093 141.036 133.477 141.509 133.477Z" fill="white"/>
<path d="M145.867 132.62C145.867 132.789 145.817 132.955 145.723 133.096C145.629 133.237 145.495 133.347 145.338 133.412C145.182 133.476 145.01 133.493 144.843 133.46C144.677 133.427 144.525 133.346 144.405 133.226C144.285 133.106 144.203 132.953 144.17 132.787C144.137 132.621 144.154 132.449 144.219 132.292C144.284 132.136 144.394 132.002 144.535 131.908C144.675 131.813 144.841 131.763 145.011 131.763C145.238 131.763 145.456 131.853 145.616 132.014C145.777 132.175 145.867 132.393 145.867 132.62Z" fill="#E0B92C"/>
<path d="M298.213 134.61H134.849V150.222H298.213V134.61Z" fill="#455A64"/>
<path d="M288.161 140.352H153.565V144.157H288.161V140.352Z" fill="white"/>
<path d="M288.202 144.191H153.552V140.332H288.202V144.191ZM153.606 144.117H288.127V140.386H153.606V144.117Z" fill="#C7C7C7"/>
<path d="M156.513 143.07L156.236 143.273L155.825 142.726L155.737 142.611L155.649 142.497C155.688 142.481 155.724 142.46 155.757 142.436C155.807 142.393 155.85 142.343 155.886 142.288L155.98 142.409L156.068 142.524L156.513 143.07Z" fill="#EBEBEB"/>
<path d="M156.082 142.504L155.994 142.389C156.028 142.349 156.053 142.304 156.069 142.254L155.967 142.112C155.956 142.167 155.935 142.219 155.907 142.267C155.872 142.323 155.828 142.373 155.779 142.416L155.866 142.524L155.954 142.639L156.285 143.07H156.244L155.92 142.645L155.833 142.531L155.745 142.416C155.711 142.44 155.675 142.46 155.637 142.477H155.603C155.567 142.483 155.531 142.483 155.495 142.477L155.59 142.598C155.638 142.589 155.684 142.571 155.725 142.544L155.812 142.659L156.224 143.205L156.5 143.003L156.082 142.504Z" fill="#EBEBEB"/>
<path d="M155.98 141.512C155.859 141.36 155.684 141.261 155.492 141.236C155.299 141.211 155.104 141.261 154.948 141.377C154.806 141.481 154.706 141.633 154.666 141.804C154.626 141.976 154.649 142.156 154.731 142.312C154.812 142.468 154.947 142.59 155.111 142.654C155.275 142.719 155.456 142.723 155.623 142.666C155.671 142.657 155.717 142.638 155.758 142.612C155.793 142.594 155.827 142.574 155.859 142.551L155.893 142.517C155.932 142.486 155.966 142.45 155.994 142.409C156.028 142.37 156.053 142.324 156.068 142.274C156.123 142.151 156.144 142.015 156.128 141.881C156.113 141.747 156.062 141.62 155.98 141.512ZM155.933 142.187C155.934 142.209 155.934 142.232 155.933 142.254C155.898 142.31 155.855 142.36 155.805 142.403C155.771 142.427 155.735 142.447 155.697 142.463H155.663C155.628 142.469 155.591 142.469 155.555 142.463H155.447C155.354 142.49 155.256 142.494 155.161 142.476C155.066 142.457 154.977 142.416 154.901 142.355C154.854 142.294 154.82 142.224 154.8 142.15C154.78 142.076 154.774 141.998 154.784 141.921C154.795 141.845 154.819 141.771 154.858 141.704C154.896 141.638 154.948 141.579 155.009 141.532C155.07 141.485 155.14 141.451 155.214 141.431C155.289 141.411 155.366 141.406 155.443 141.416C155.519 141.426 155.593 141.451 155.66 141.489C155.727 141.528 155.785 141.579 155.832 141.64C155.884 141.711 155.921 141.792 155.938 141.879C155.956 141.965 155.954 142.054 155.933 142.139C155.934 142.157 155.934 142.175 155.933 142.193V142.187Z" fill="#EBEBEB"/>
<path d="M156.068 142.254C156.119 142.133 156.138 142.002 156.122 141.871C156.107 141.741 156.058 141.617 155.98 141.512C155.859 141.36 155.684 141.261 155.492 141.236C155.299 141.211 155.104 141.261 154.948 141.377C154.806 141.481 154.706 141.633 154.666 141.804C154.626 141.976 154.649 142.156 154.731 142.312C154.812 142.468 154.947 142.59 155.111 142.654C155.275 142.719 155.456 142.723 155.623 142.666C155.671 142.657 155.717 142.638 155.758 142.612L155.846 142.726C155.883 142.71 155.917 142.687 155.947 142.659L155.98 142.625C156.021 142.596 156.055 142.559 156.082 142.517L155.994 142.403C156.029 142.359 156.055 142.308 156.068 142.254ZM155.879 142.308L155.805 142.389C155.781 142.409 155.753 142.425 155.724 142.436C155.68 142.461 155.632 142.477 155.582 142.483C155.47 142.537 155.343 142.554 155.221 142.531C155.098 142.508 154.986 142.446 154.901 142.355C154.807 142.227 154.765 142.068 154.786 141.91C154.806 141.755 154.886 141.615 155.009 141.519C155.114 141.441 155.242 141.398 155.373 141.397C155.465 141.398 155.555 141.419 155.637 141.46C155.719 141.501 155.79 141.56 155.846 141.633C155.901 141.704 155.939 141.787 155.956 141.874C155.974 141.962 155.971 142.053 155.947 142.139C155.933 142.194 155.91 142.247 155.879 142.295V142.308Z" fill="#EBEBEB"/>
<path d="M139.91 143.557L138.521 142.275L139.904 140.953L140.12 141.175L138.973 142.275L140.12 143.327L139.91 143.557Z" fill="white"/>
<path d="M143.249 140.953L144.639 142.228L143.256 143.55L143.04 143.327L144.187 142.228L143.04 141.175L143.249 140.953Z" fill="white"/>
<path d="M293.674 143.812C293.51 143.911 293.332 143.986 293.147 144.035C292.91 144.093 292.664 144.103 292.423 144.065C292.182 144.027 291.951 143.941 291.744 143.812C291.338 143.555 291.045 143.152 290.928 142.685C290.847 142.357 290.86 142.012 290.963 141.69C291.066 141.367 291.257 141.08 291.514 140.859C291.77 140.638 292.083 140.493 292.417 140.439C292.751 140.385 293.094 140.424 293.407 140.552C293.72 140.681 293.992 140.894 294.192 141.167C294.391 141.44 294.512 141.763 294.539 142.101C294.567 142.438 294.501 142.776 294.348 143.078C294.195 143.381 293.962 143.634 293.674 143.812Z" fill="#DBDBDB"/>
<path d="M293.268 142.045C293.268 142.156 293.235 142.264 293.174 142.356C293.112 142.448 293.025 142.52 292.922 142.562C292.82 142.605 292.708 142.616 292.599 142.594C292.49 142.572 292.391 142.519 292.312 142.441C292.234 142.362 292.181 142.263 292.159 142.154C292.137 142.045 292.148 141.933 292.191 141.831C292.233 141.728 292.305 141.641 292.397 141.579C292.489 141.518 292.597 141.485 292.708 141.485C292.857 141.485 292.999 141.544 293.104 141.649C293.209 141.754 293.268 141.896 293.268 142.045Z" fill="white"/>
<path d="M293.673 143.583V143.812C293.509 143.911 293.332 143.986 293.147 144.035C292.91 144.093 292.664 144.103 292.423 144.065C292.182 144.027 291.951 143.941 291.744 143.812V143.583C291.744 143.327 291.845 143.082 292.026 142.901C292.207 142.72 292.453 142.618 292.708 142.618C292.964 142.618 293.21 142.72 293.391 142.901C293.572 143.082 293.673 143.327 293.673 143.583Z" fill="white"/>
<path d="M148.775 143.907C148.426 143.909 148.084 143.809 147.791 143.621C147.497 143.432 147.264 143.163 147.121 142.846C146.977 142.528 146.927 142.176 146.979 141.831C147.031 141.486 147.181 141.163 147.412 140.902C147.643 140.641 147.945 140.452 148.28 140.358C148.616 140.264 148.972 140.269 149.305 140.373C149.638 140.476 149.934 140.674 150.157 140.942C150.38 141.21 150.521 141.537 150.562 141.883L150.232 141.924C150.187 141.592 150.03 141.285 149.787 141.054C149.544 140.823 149.23 140.682 148.896 140.655C148.562 140.627 148.228 140.714 147.951 140.902C147.673 141.09 147.468 141.367 147.369 141.687C147.27 142.007 147.284 142.351 147.407 142.663C147.531 142.974 147.757 143.234 148.049 143.4C148.34 143.565 148.679 143.626 149.01 143.572C149.341 143.519 149.643 143.353 149.868 143.104L150.11 143.327C149.94 143.511 149.734 143.658 149.504 143.758C149.274 143.858 149.025 143.909 148.775 143.907Z" fill="white"/>
<path d="M149.43 141.445L149.545 141.276L150.347 141.822L150.833 140.979L151.002 141.08L150.415 142.106L149.43 141.445Z" fill="white"/>
<path d="M249.057 183.719H186.954V192.193H249.057V183.719Z" fill="white"/>
<path d="M249.395 192.53H186.61V183.381H249.388L249.395 192.53ZM187.292 191.855H248.72V184.056H187.285L187.292 191.855Z" fill="#C7C7C7"/>
<path d="M249.057 183.719H240.584V192.193H249.057V183.719Z" fill="#E0B92C"/>
<path d="M247.506 190.331L246.724 190.924L245.307 189.008L244.781 188.334C244.889 188.292 244.991 188.235 245.084 188.165C245.26 188.029 245.397 187.85 245.482 187.646L246.049 188.388L247.506 190.331Z" fill="white"/>
<path d="M245.981 185.825C245.732 185.501 245.395 185.255 245.011 185.117C244.626 184.979 244.21 184.953 243.812 185.044C243.414 185.135 243.05 185.337 242.763 185.628C242.476 185.919 242.279 186.286 242.194 186.686C242.11 187.086 242.141 187.501 242.285 187.884C242.429 188.266 242.68 188.599 243.007 188.843C243.335 189.088 243.725 189.233 244.133 189.263C244.54 189.292 244.947 189.204 245.306 189.009C245.412 188.957 245.511 188.893 245.603 188.82C245.773 188.69 245.923 188.535 246.049 188.362C246.309 187.986 246.442 187.538 246.43 187.082C246.418 186.626 246.261 186.185 245.981 185.825ZM245.064 188.139C244.971 188.209 244.869 188.266 244.76 188.308C244.468 188.419 244.145 188.416 243.855 188.299C243.566 188.182 243.331 187.96 243.199 187.677C243.067 187.394 243.047 187.071 243.144 186.774C243.24 186.477 243.446 186.227 243.719 186.075C243.992 185.924 244.312 185.881 244.615 185.956C244.918 186.031 245.182 186.219 245.352 186.48C245.523 186.742 245.588 187.059 245.534 187.367C245.481 187.674 245.313 187.95 245.064 188.139Z" fill="white"/>
<path d="M189.181 185.386H188.729V190.527H189.181V185.386Z" fill="#263238"/>
<path d="M201.298 195.499H186.954V200.046H201.298V195.499Z" fill="#C7C7C7"/>
<path d="M225.175 195.499H210.831V200.046H225.175V195.499Z" fill="#E0B92C"/>
<path d="M249.233 195.499H234.89V200.046H249.233V195.499Z" fill="#C7C7C7"/>
<path d="M237.817 174.544H198.201V177.297H237.817V174.544Z" fill="#37474F"/>
</g>
<g opacity="0.8">
<path d="M164.365 0.14209H1.00171V103.582H164.365V0.14209Z" fill="white"/>
<path d="M164.534 103.743H0.833038V0H164.534V103.743ZM1.17037 103.406H164.197V0.310346H1.17037V103.406Z" fill="#A6A6A6"/>
<path d="M161.464 4.12158H1.00171V35.3249H161.464V4.12158Z" fill="#E0B92C"/>
<path d="M164.365 0.14209H1.00171V4.12262H164.365V0.14209Z" fill="#263238"/>
<path d="M5.01608 2.13222C5.01608 2.30168 4.96583 2.46734 4.87168 2.60824C4.77753 2.74915 4.64371 2.85897 4.48715 2.92382C4.33058 2.98867 4.15831 3.00564 3.9921 2.97258C3.82589 2.93952 3.67322 2.85791 3.55339 2.73809C3.43356 2.61826 3.35195 2.46558 3.31889 2.29938C3.28583 2.13317 3.3028 1.96089 3.36765 1.80432C3.4325 1.64776 3.54232 1.51394 3.68323 1.41979C3.82413 1.32564 3.98979 1.27539 4.15926 1.27539C4.3865 1.27539 4.60444 1.36566 4.76512 1.52635C4.92581 1.68704 5.01608 1.90497 5.01608 2.13222Z" fill="#C7C7C7"/>
<path d="M8.49747 2.13222C8.49747 2.30168 8.44721 2.46734 8.35306 2.60824C8.25891 2.74915 8.1251 2.85897 7.96853 2.92382C7.81197 2.98867 7.63969 3.00564 7.47348 2.97258C7.30728 2.93952 7.1546 2.85791 7.03477 2.73809C6.91494 2.61826 6.83334 2.46558 6.80028 2.29938C6.76722 2.13317 6.78418 1.96089 6.84903 1.80432C6.91388 1.64776 7.02371 1.51394 7.16461 1.41979C7.30552 1.32564 7.47118 1.27539 7.64064 1.27539C7.86789 1.27539 8.08582 1.36566 8.24651 1.52635C8.4072 1.68704 8.49747 1.90497 8.49747 2.13222Z" fill="white"/>
<path d="M12.0184 2.13191C12.0182 2.30278 11.967 2.46971 11.8713 2.61125C11.7756 2.75279 11.6397 2.86248 11.4812 2.92622C11.3226 2.98996 11.1487 3.00484 10.9816 2.96896C10.8145 2.93307 10.662 2.84805 10.5436 2.72482C10.4253 2.6016 10.3464 2.44579 10.3173 2.27742C10.2881 2.10905 10.31 1.93582 10.38 1.77996C10.4501 1.62411 10.5651 1.49276 10.7104 1.4028C10.8557 1.31283 11.0245 1.26835 11.1953 1.27508C11.4166 1.2838 11.626 1.37791 11.7795 1.53766C11.9329 1.69741 12.0185 1.91039 12.0184 2.13191Z" fill="#E0B92C"/>
<path d="M164.365 4.12158H161.464V103.581H164.365V4.12158Z" fill="#DBDBDB"/>
<path d="M162.916 38.5977C162.717 38.5977 162.526 38.5188 162.386 38.3784C162.246 38.2379 162.167 38.0474 162.167 37.8488V5.46482C162.168 5.26738 162.248 5.07863 162.388 4.93964C162.529 4.80065 162.718 4.72268 162.916 4.72269C163.112 4.72085 163.301 4.79618 163.442 4.93246C163.584 5.06874 163.666 5.25507 163.671 5.45133V37.8353C163.673 37.9354 163.655 38.0348 163.617 38.1276C163.58 38.2205 163.525 38.305 163.454 38.376C163.384 38.4471 163.3 38.5033 163.207 38.5414C163.115 38.5795 163.016 38.5986 162.916 38.5977Z" fill="#A6A6A6"/>
<path d="M122.914 65.9897H153.881V42.228H122.914V65.9897Z" fill="#E0B92C"/>
<path opacity="0.6" d="M125.998 47.4286C125.881 48.0208 125.957 48.6349 126.216 49.1802C126.475 49.7256 126.902 50.1732 127.435 50.457C127.968 50.7408 128.577 50.8458 129.174 50.7563C129.771 50.6669 130.324 50.3878 130.75 49.9603C131.176 49.5328 131.453 48.9796 131.541 48.3824C131.629 47.7851 131.522 47.1756 131.236 46.6437C130.951 46.1118 130.502 45.6858 129.956 45.4287C129.41 45.1715 128.796 45.0969 128.204 45.2157C127.658 45.3252 127.158 45.5938 126.765 45.9877C126.372 46.3816 126.105 46.883 125.998 47.4286Z" fill="white"/>
<path d="M133.128 60.8679H153.881L143.505 48.083L133.128 60.8679Z" fill="#E0B92C"/>
<path opacity="0.2" d="M133.128 60.8679H153.881L143.505 48.083L133.128 60.8679Z" fill="black"/>
<path d="M122.913 60.882H141.318L132.116 52.5566L122.913 60.882Z" fill="#E0B92C"/>
<path opacity="0.1" d="M122.913 60.882H141.318L132.116 52.5566L122.913 60.882Z" fill="black"/>
<path d="M153.881 60.8691H122.913V65.9899H153.881V60.8691Z" fill="#E0B92C"/>
<path opacity="0.1" d="M153.881 60.8691H122.913V65.9899H153.881V60.8691Z" fill="black"/>
<path d="M122.913 69.6253C125.018 69.5173 127.117 69.4701 129.222 69.4296C131.327 69.3892 133.432 69.3892 135.53 69.3689C137.628 69.3487 139.74 69.3689 141.845 69.4296C143.95 69.4904 146.048 69.5173 148.153 69.6253C146.048 69.7265 143.943 69.7737 141.845 69.8142C139.746 69.8547 137.635 69.8547 135.53 69.8749C133.425 69.8952 131.327 69.8749 129.222 69.8142C127.117 69.7535 125.018 69.7265 122.913 69.6253Z" fill="#C7C7C7"/>
<path d="M122.913 72.2439C124.492 72.136 126.071 72.0888 127.636 72.0483C129.201 72.0078 130.794 72.0078 132.359 71.9876C133.924 71.9673 135.523 71.9876 137.081 72.0483C138.64 72.109 140.239 72.136 141.804 72.2439C140.225 72.3451 138.647 72.3991 137.081 72.4396C135.516 72.4801 133.917 72.4396 132.359 72.4936C130.8 72.5475 129.201 72.4936 127.636 72.4329C126.071 72.3721 124.492 72.3451 122.913 72.2439Z" fill="#C7C7C7"/>
<path d="M153.881 75.5151H122.913V103.575H153.881V75.5151Z" fill="#E0B92C"/>
<path opacity="0.2" d="M153.881 75.5151H122.913V103.575H153.881V75.5151Z" fill="black"/>
<path opacity="0.6" d="M125.998 86.0739C125.879 86.666 125.954 87.2806 126.212 87.8268C126.469 88.3729 126.896 88.8217 127.428 89.1067C127.961 89.3917 128.571 89.4978 129.168 89.4094C129.766 89.321 130.319 89.0427 130.746 88.6157C131.173 88.1887 131.451 87.6356 131.539 87.0383C131.628 86.4409 131.522 85.8309 131.237 85.2985C130.952 84.7661 130.503 84.3396 129.957 84.0819C129.41 83.8243 128.796 83.7492 128.204 83.8678C127.659 83.9768 127.159 84.2444 126.767 84.637C126.374 85.0296 126.107 85.5295 125.998 86.0739Z" fill="white"/>
<path d="M133.128 99.5207H153.881L143.505 86.729L133.128 99.5207Z" fill="#E0B92C"/>
<path opacity="0.4" d="M133.128 99.5207H153.881L143.505 86.729L133.128 99.5207Z" fill="black"/>
<path d="M122.913 99.5266H141.318L132.116 91.2012L122.913 99.5266Z" fill="#E0B92C"/>
<path opacity="0.3" d="M122.913 99.5266H141.318L132.116 91.2012L122.913 99.5266Z" fill="black"/>
<path opacity="0.1" d="M153.881 99.52H122.913V103.575H153.881V99.52Z" fill="black"/>
<path d="M115.513 88.2603H84.5457V103.575H115.513V88.2603Z" fill="#E0B92C"/>
<path opacity="0.6" d="M87.6286 93.4543C87.51 94.0464 87.5851 94.661 87.8428 95.2071C88.1005 95.7533 88.527 96.202 89.0594 96.487C89.5918 96.772 90.2018 96.8782 90.7991 96.7898C91.3965 96.7014 91.9496 96.4231 92.3766 95.9961C92.8036 95.5691 93.0818 95.016 93.1703 94.4186C93.2587 93.8213 93.1525 93.2113 92.8675 92.6789C92.5825 92.1465 92.1338 91.72 91.5876 91.4623C91.0415 91.2047 90.4269 91.1296 89.8348 91.2481C89.2908 91.358 88.7913 91.6259 88.3988 92.0183C88.0064 92.4108 87.7385 92.9103 87.6286 93.4543Z" fill="white"/>
<path d="M112.815 103.575H97.4593L98.2217 102.637L105.137 94.1162L112.815 103.575Z" fill="#E0B92C"/>
<path opacity="0.2" d="M112.815 103.575H97.4593L98.2217 102.637L105.137 94.1162L112.815 103.575Z" fill="black"/>
<path d="M99.2674 103.576H88.2366L93.7487 98.5898L98.2217 102.638L99.2674 103.576Z" fill="#E0B92C"/>
<path opacity="0.1" d="M99.2674 103.576H88.2366L93.7487 98.5898L98.2217 102.638L99.2674 103.576Z" fill="black"/>
<path d="M84.5526 78.8149H115.52V42.3087L84.5526 42.3087V78.8149Z" fill="#455A64"/>
<path opacity="0.6" d="M87.6285 52.8666C87.5115 53.4588 87.588 54.0729 87.8468 54.6182C88.1057 55.1636 88.533 55.6112 89.0657 55.895C89.5985 56.1788 90.2084 56.2837 90.8054 56.1943C91.4023 56.1049 91.9547 55.8258 92.3809 55.3983C92.8071 54.9708 93.0844 54.4176 93.1721 53.8204C93.2597 53.2231 93.1529 52.6135 92.8674 52.0817C92.582 51.5498 92.1331 51.1238 91.587 50.8667C91.0408 50.6095 90.4265 50.5349 89.8347 50.6537C89.2894 50.7632 88.7888 51.0318 88.3961 51.4257C88.0034 51.8196 87.7363 52.321 87.6285 52.8666Z" fill="white"/>
<path d="M94.7672 66.3064H115.513L105.137 53.5215L94.7672 66.3064Z" fill="#263238"/>
<path d="M84.5457 66.3205H102.951L93.7482 57.9951L84.5457 66.3205Z" fill="#37474F"/>
<path d="M115.513 66.3057H84.5457V78.8072H115.513V66.3057Z" fill="#37474F"/>
<path d="M84.5457 82.4443C86.6507 82.3431 88.7556 82.2959 90.8606 82.2554C92.9656 82.2149 95.0638 82.215 97.1687 82.1947C99.2737 82.1745 101.372 82.1947 103.477 82.2487C105.582 82.3027 107.68 82.3431 109.785 82.4443C107.68 82.5523 105.582 82.5995 103.477 82.64C101.372 82.6805 99.2669 82.6805 97.1687 82.7007C95.0705 82.721 92.9588 82.7007 90.8606 82.64C88.7624 82.5793 86.6507 82.5523 84.5457 82.4443Z" fill="#C7C7C7"/>
<path d="M84.5457 85.0624C86.1244 84.9612 87.7099 84.914 89.2684 84.8735C90.8269 84.833 92.4258 84.833 93.991 84.8128C95.5563 84.7925 97.1552 84.8128 98.7137 84.8735C100.272 84.9342 101.871 84.9612 103.436 85.0624C101.851 85.1703 100.272 85.2176 98.7137 85.258C97.1552 85.2985 95.5563 85.2985 93.991 85.3188C92.4258 85.339 90.8336 85.3188 89.2684 85.258C87.7032 85.1973 86.1244 85.1703 84.5457 85.0624Z" fill="#C7C7C7"/>
<path d="M46.3061 65.9897H77.2733V42.228H46.3061V65.9897Z" fill="#E0B92C"/>
<path opacity="0.6" d="M49.3889 47.4296C49.2716 48.0215 49.3478 48.6354 49.6061 49.1807C49.8643 49.726 50.2911 50.1739 50.8233 50.4581C51.3556 50.7423 51.9651 50.8479 52.5619 50.7593C53.1588 50.6706 53.7113 50.3925 54.138 49.9658C54.5646 49.5391 54.8428 48.9866 54.9315 48.3898C55.0201 47.7929 54.9145 47.1834 54.6303 46.6512C54.3461 46.1189 53.8982 45.6922 53.3529 45.4339C52.8076 45.1756 52.1937 45.0995 51.6018 45.2167C51.0557 45.3259 50.5541 45.5943 50.1603 45.9881C49.7664 46.3819 49.498 46.8835 49.3889 47.4296Z" fill="white"/>
<path d="M56.5273 60.8679H77.2733L66.9037 48.083L56.5273 60.8679Z" fill="#E0B92C"/>
<path opacity="0.2" d="M56.5273 60.8679H77.2733L66.9037 48.083L56.5273 60.8679Z" fill="black"/>
<path d="M46.3058 60.882H64.7108L55.5083 52.5566L46.3058 60.882Z" fill="#E0B92C"/>
<path opacity="0.1" d="M46.3058 60.882H64.7108L55.5083 52.5566L46.3058 60.882Z" fill="black"/>
<path d="M77.2796 60.8691H46.3124V65.9899H77.2796V60.8691Z" fill="#E0B92C"/>
<path opacity="0.1" d="M77.2796 60.8691H46.3124V65.9899H77.2796V60.8691Z" fill="black"/>
<path d="M46.3124 69.6253C48.4107 69.5173 50.5156 69.4701 52.6206 69.4296C54.7255 69.3892 56.8237 69.3892 58.9287 69.3689C61.0337 69.3487 63.1319 69.3689 65.2368 69.4296C67.3418 69.4904 69.4468 69.5173 71.545 69.6253C69.4468 69.7265 67.3418 69.7737 65.2368 69.8142C63.1319 69.8547 61.0337 69.8547 58.9287 69.8749C56.8237 69.8952 54.7188 69.8749 52.6206 69.8142C50.5224 69.7535 48.4107 69.7265 46.3124 69.6253Z" fill="#C7C7C7"/>
<path d="M46.3124 72.2439C47.8912 72.136 49.4699 72.0888 51.0351 72.0483C52.6003 72.0078 54.1925 72.0078 55.7578 71.9876C57.323 71.9673 58.9152 71.9876 60.4804 72.0483C62.0457 72.109 63.6446 72.136 65.2031 72.2439C63.6244 72.3451 62.0389 72.3991 60.4804 72.4396C58.922 72.4801 57.323 72.4396 55.7578 72.4936C54.1925 72.5475 52.5936 72.4936 51.0351 72.4329C49.4766 72.3721 47.8912 72.3451 46.3124 72.2439Z" fill="#C7C7C7"/>
<path d="M77.2731 75.5151H46.3058V103.575H77.2731V75.5151Z" fill="#E0B92C"/>
<path opacity="0.2" d="M77.2731 75.5151H46.3058V103.575H77.2731V75.5151Z" fill="black"/>
<path opacity="0.6" d="M49.389 86.0735C49.2701 86.6653 49.3448 87.2797 49.602 87.8258C49.8591 88.3719 50.2851 88.8208 50.8169 89.1063C51.3488 89.3917 51.9584 89.4985 52.5557 89.4109C53.1529 89.3233 53.7061 89.0459 54.1336 88.6197C54.5611 88.1935 54.8401 87.6412 54.9296 87.0442C55.019 86.4472 54.9141 85.8373 54.6303 85.3046C54.3465 84.7718 53.8988 84.3445 53.3535 84.0857C52.8082 83.8269 52.1941 83.7503 51.6019 83.8673C51.0563 83.9752 50.5548 84.2423 50.161 84.6349C49.7671 85.0276 49.4985 85.5282 49.389 86.0735Z" fill="white"/>
<path d="M56.5273 99.5207H77.2733L66.9037 86.729L56.5273 99.5207Z" fill="#E0B92C"/>
<path opacity="0.4" d="M56.5273 99.5207H77.2733L66.9037 86.729L56.5273 99.5207Z" fill="black"/>
<path d="M46.3058 99.5266H64.7108L55.5083 91.2012L46.3058 99.5266Z" fill="#E0B92C"/>
<path opacity="0.3" d="M46.3058 99.5266H64.7108L55.5083 91.2012L46.3058 99.5266Z" fill="black"/>
<path opacity="0.1" d="M77.2731 99.52H46.3058V103.575H77.2731V99.52Z" fill="black"/>
<path d="M38.9106 88.2603H7.94339V103.575H38.9106V88.2603Z" fill="#E0B92C"/>
<path opacity="0.6" d="M11.027 93.4547C10.909 94.0474 10.9849 94.6624 11.2436 95.2086C11.5023 95.7548 11.93 96.2032 12.4634 96.4873C12.9969 96.7714 13.6076 96.8763 14.2052 96.7863C14.8028 96.6962 15.3556 96.4162 15.7816 95.9875C16.2077 95.5589 16.4843 95.0044 16.5707 94.4062C16.657 93.8081 16.5484 93.198 16.261 92.6663C15.9736 92.1347 15.5226 91.7097 14.9749 91.4544C14.4271 91.199 13.8117 91.1268 13.2197 91.2485C12.6781 91.3608 12.1815 91.6297 11.7917 92.022C11.4018 92.4143 11.1359 92.9125 11.027 93.4547Z" fill="white"/>
<path d="M36.2123 103.575H20.8569L21.6193 102.637L28.5346 94.1162L36.2123 103.575Z" fill="#E0B92C"/>
<path opacity="0.2" d="M36.2123 103.575H20.8569L21.6193 102.637L28.5346 94.1162L36.2123 103.575Z" fill="black"/>
<path d="M22.6585 103.576H11.6277L17.1397 98.5898L21.6195 102.638L22.6585 103.576Z" fill="#E0B92C"/>
<path opacity="0.1" d="M22.6585 103.576H11.6277L17.1397 98.5898L21.6195 102.638L22.6585 103.576Z" fill="black"/>
<path d="M7.94363 78.8149H38.9108L38.9108 42.3087L7.94363 42.3087L7.94363 78.8149Z" fill="#455A64"/>
<path opacity="0.6" d="M11.0269 52.867C10.9104 53.4598 10.9878 54.0743 11.2477 54.6197C11.5076 55.1651 11.9361 55.6123 12.4698 55.8953C13.0036 56.1782 13.6142 56.2818 14.2115 56.1908C14.8087 56.0997 15.3607 55.8189 15.7859 55.3897C16.2112 54.9606 16.4869 54.406 16.5725 53.808C16.658 53.2099 16.5488 52.6002 16.261 52.0691C15.9731 51.538 15.522 51.1136 14.9742 50.8588C14.4265 50.6039 13.8113 50.5322 13.2196 50.6541C12.6768 50.766 12.1791 51.0357 11.789 51.4294C11.3989 51.8231 11.1338 52.3232 11.0269 52.867Z" fill="white"/>
<path d="M18.1583 66.3064H38.911L28.5346 53.5215L18.1583 66.3064Z" fill="#263238"/>
<path d="M7.94339 66.3205H26.3415L17.1458 57.9951L7.94339 66.3205Z" fill="#37474F"/>
<path d="M38.9106 66.3057H7.94339V78.8072H38.9106V66.3057Z" fill="#37474F"/>
<path d="M7.94339 82.4443C10.0483 82.3431 12.1466 82.2959 14.2515 82.2554C16.3565 82.2149 18.4614 82.215 20.5597 82.1947C22.6579 82.1745 24.7696 82.1947 26.8678 82.2487C28.966 82.3027 31.0777 82.3431 33.1827 82.4443C31.0777 82.5523 28.9728 82.5995 26.8678 82.64C24.7628 82.6805 22.6646 82.6805 20.5597 82.7007C18.4547 82.721 16.3565 82.7007 14.2515 82.64C12.1466 82.5793 10.0483 82.5523 7.94339 82.4443Z" fill="#C7C7C7"/>
<path d="M7.94339 85.0624C9.52211 84.9612 11.1008 84.914 12.6661 84.8735C14.2313 84.833 15.8302 84.833 17.3887 84.8128C18.9472 84.7925 20.5462 84.8128 22.1114 84.8735C23.6766 84.9342 25.2688 84.9612 26.8341 85.0624C25.2553 85.1703 23.6766 85.2176 22.1114 85.258C20.5462 85.2985 18.9472 85.2985 17.3887 85.3188C15.8302 85.339 14.2313 85.3188 12.6661 85.258C11.1008 85.1973 9.52211 85.1703 7.94339 85.0624Z" fill="#C7C7C7"/>
<path d="M143.585 29.8411V31.8179C143.569 31.9093 143.527 31.9943 143.465 32.0634C143.403 32.1325 143.323 32.183 143.234 32.2092H143.174H142.634C142.637 32.1982 142.637 32.1865 142.634 32.1754V31.1432H143.066V30.6979H142.607V30.482C142.603 30.4627 142.604 30.4425 142.611 30.4239C142.617 30.4052 142.629 30.3887 142.644 30.3761C142.659 30.3636 142.678 30.3555 142.698 30.3528C142.717 30.35 142.737 30.3527 142.755 30.3606H143.106V29.8951H142.755C142.656 29.8931 142.559 29.9239 142.479 29.9828C142.411 30.0299 142.354 30.091 142.312 30.162C142.27 30.2331 142.244 30.3123 142.236 30.3943C142.229 30.4796 142.229 30.5654 142.236 30.6507H141.898V31.1027H142.216V32.1687H141.237C141.175 32.1594 141.115 32.1363 141.062 32.1012C140.964 32.0374 140.89 31.9423 140.853 31.8314V31.7504V29.7736C140.864 29.7093 140.887 29.6475 140.92 29.5915C140.978 29.4905 141.072 29.4156 141.183 29.3823H141.264H143.207C143.3 29.4005 143.386 29.4442 143.455 29.5086C143.524 29.573 143.574 29.6554 143.599 29.7466L143.585 29.8411Z" fill="white"/>
<path d="M148.316 29.4219H146.393C146.337 29.4228 146.282 29.4346 146.231 29.4568C146.18 29.479 146.133 29.511 146.094 29.5511C146.056 29.5912 146.025 29.6386 146.004 29.6905C145.984 29.7424 145.974 29.7978 145.975 29.8537V31.8102C145.974 31.866 145.984 31.9215 146.004 31.9734C146.025 32.0253 146.056 32.0726 146.094 32.1127C146.133 32.1528 146.18 32.1849 146.231 32.2071C146.282 32.2292 146.337 32.2411 146.393 32.242H148.316C148.372 32.2411 148.427 32.2292 148.478 32.2071C148.529 32.1849 148.576 32.1528 148.614 32.1127C148.653 32.0726 148.684 32.0253 148.704 31.9734C148.725 31.9215 148.735 31.866 148.734 31.8102V29.8537C148.735 29.7978 148.725 29.7424 148.704 29.6905C148.684 29.6386 148.653 29.5912 148.614 29.5511C148.576 29.511 148.529 29.479 148.478 29.4568C148.427 29.4346 148.372 29.4228 148.316 29.4219ZM148.444 30.137C148.396 30.2131 148.334 30.2795 148.262 30.3327C148.262 30.3327 148.262 30.3327 148.262 30.3732C148.273 30.608 148.219 30.8413 148.107 31.0478C148.032 31.2134 147.921 31.36 147.782 31.4768C147.643 31.5937 147.48 31.6776 147.304 31.7225C147.057 31.7945 146.795 31.7945 146.548 31.7225H146.514L146.386 31.6618L146.299 31.6078C146.54 31.629 146.781 31.5592 146.973 31.4121H146.879C146.808 31.397 146.742 31.3644 146.686 31.3172C146.631 31.2701 146.588 31.21 146.562 31.1423C146.615 31.1523 146.67 31.1523 146.724 31.1423H146.663C146.583 31.1102 146.514 31.0567 146.463 30.9876C146.411 30.9185 146.38 30.8366 146.373 30.751C146.373 30.7105 146.373 30.7105 146.407 30.751C146.459 30.7778 146.517 30.7917 146.575 30.7914C146.534 30.7607 146.498 30.7244 146.467 30.6835C146.415 30.6149 146.383 30.5326 146.376 30.4465C146.369 30.3605 146.386 30.2741 146.427 30.1977C146.617 30.4279 146.882 30.5833 147.176 30.6363H147.311C147.3 30.5768 147.301 30.5159 147.315 30.457C147.328 30.3981 147.353 30.3425 147.388 30.2934C147.424 30.2444 147.468 30.2029 147.52 30.1714C147.571 30.1399 147.629 30.119 147.688 30.11C147.756 30.0974 147.827 30.1019 147.893 30.1231C147.959 30.1443 148.018 30.1815 148.066 30.2315C148.066 30.2315 148.066 30.2315 148.107 30.2315C148.181 30.2138 148.253 30.189 148.323 30.1573L148.363 30.1235C148.354 30.1781 148.331 30.2294 148.296 30.272L148.188 30.3799C148.268 30.3646 148.347 30.3421 148.424 30.3124L148.444 30.137Z" fill="white"/>
<path d="M153.882 30.7989V30.1242C153.885 30.0703 153.885 30.0162 153.882 29.9623C153.87 29.8534 153.829 29.7497 153.762 29.6628C153.695 29.5758 153.606 29.5091 153.504 29.4698C153.395 29.4365 153.28 29.4228 153.166 29.4293H151.871C151.802 29.4226 151.732 29.4226 151.662 29.4293C151.557 29.4415 151.457 29.4826 151.373 29.5481C151.29 29.6136 151.226 29.7009 151.19 29.8004C151.154 29.9067 151.138 30.0188 151.142 30.131V31.4803C151.136 31.5544 151.136 31.6289 151.142 31.703C151.156 31.7945 151.192 31.8812 151.247 31.9554C151.303 32.0296 151.376 32.0889 151.46 32.128C151.566 32.1804 151.685 32.2037 151.804 32.1955C152.262 32.1955 152.721 32.1955 153.153 32.1955C153.223 32.2024 153.293 32.2024 153.362 32.1955C153.464 32.1788 153.559 32.1349 153.637 32.0683C153.716 32.0018 153.774 31.9151 153.807 31.8177C153.843 31.7136 153.859 31.6038 153.855 31.4938V30.7787L153.882 30.7989ZM153.524 31.2105C153.529 31.3637 153.481 31.514 153.389 31.6366C153.297 31.7592 153.166 31.8469 153.018 31.8851H152.883H152.127C151.978 31.8873 151.833 31.8363 151.718 31.741C151.603 31.6458 151.526 31.5127 151.5 31.3656C151.494 31.3209 151.494 31.2754 151.5 31.2307V30.4548C151.496 30.3104 151.541 30.1687 151.628 30.0534C151.715 29.938 151.839 29.8559 151.979 29.8206C152.035 29.814 152.092 29.814 152.148 29.8206C152.269 29.8206 152.397 29.8206 152.519 29.8206C152.667 29.8206 152.809 29.8206 152.957 29.8206C153.094 29.8314 153.224 29.8867 153.326 29.9781C153.428 30.0695 153.498 30.1919 153.524 30.3266C153.528 30.376 153.528 30.4257 153.524 30.4751V31.2105Z" fill="white"/>
<path d="M152.835 30.8319C152.833 30.8966 152.811 30.9592 152.773 31.0117C152.735 31.0643 152.683 31.1045 152.622 31.1275C152.562 31.1505 152.496 31.1551 152.432 31.1409C152.369 31.1266 152.312 31.0941 152.267 31.0474C152.222 31.0007 152.192 30.9418 152.18 30.8781C152.168 30.8143 152.175 30.7486 152.201 30.6889C152.226 30.6293 152.269 30.5785 152.323 30.5427C152.377 30.5069 152.44 30.4878 152.505 30.4878C152.549 30.4878 152.593 30.4967 152.634 30.5142C152.675 30.5316 152.713 30.5572 152.743 30.5893C152.774 30.6215 152.798 30.6595 152.814 30.7012C152.83 30.7429 152.837 30.7873 152.835 30.8319Z" fill="white"/>
<path d="M152.875 29.9619H152.106C152.045 29.9628 151.985 29.9757 151.929 29.9999C151.872 30.0241 151.822 30.0592 151.779 30.103C151.736 30.1469 151.703 30.1987 151.68 30.2555C151.658 30.3123 151.647 30.373 151.647 30.4342V31.2235C151.647 31.2838 151.658 31.3436 151.68 31.3996C151.702 31.4556 151.735 31.5067 151.777 31.5499C151.819 31.5932 151.869 31.6277 151.924 31.6516C151.98 31.6754 152.039 31.6882 152.099 31.6891H152.875C152.936 31.6882 152.995 31.6754 153.05 31.6516C153.106 31.6277 153.156 31.5932 153.198 31.5499C153.24 31.5067 153.273 31.4556 153.295 31.3996C153.317 31.3436 153.328 31.2838 153.327 31.2235V30.4342C153.329 30.3119 153.283 30.1937 153.198 30.1053C153.114 30.017 152.998 29.9654 152.875 29.9619ZM152.491 31.3112C152.388 31.3139 152.286 31.2858 152.199 31.2303C152.111 31.1749 152.043 31.0947 152.001 31.0001C151.96 30.9054 151.948 30.8006 151.966 30.6989C151.985 30.5973 152.033 30.5035 152.105 30.4295C152.177 30.3554 152.27 30.3046 152.371 30.2835C152.472 30.2623 152.577 30.2718 152.673 30.3106C152.769 30.3495 152.851 30.4161 152.908 30.5018C152.966 30.5875 152.997 30.6884 152.997 30.7918C153.001 30.8605 152.992 30.9295 152.97 30.9948C152.947 31.06 152.912 31.1201 152.866 31.1716C152.821 31.223 152.765 31.2649 152.703 31.2947C152.641 31.3244 152.573 31.3415 152.504 31.345L152.491 31.3112ZM153.044 30.3532C153.01 30.3532 152.977 30.3397 152.953 30.3157C152.929 30.2916 152.916 30.259 152.916 30.225C152.916 30.191 152.929 30.1584 152.953 30.1344C152.977 30.1104 153.01 30.0968 153.044 30.0968C153.061 30.0977 153.077 30.1019 153.093 30.1091C153.108 30.1164 153.121 30.1266 153.133 30.1391C153.144 30.1516 153.153 30.1663 153.158 30.1822C153.164 30.1981 153.166 30.2149 153.165 30.2318C153.166 30.2625 153.155 30.2924 153.135 30.316C153.116 30.3395 153.088 30.3551 153.058 30.36L153.044 30.3532Z" fill="white"/>
<path d="M50.86 30.5013H51.1636L51.3592 31.0747L51.5549 30.5013H51.8652L51.5684 31.2839L51.791 31.8371L52.2768 30.4878H52.6411L51.9664 32.2082H51.6763L51.3795 31.4863L51.0826 32.2082H50.7992L50.1246 30.4878H50.4889L50.9747 31.8371L51.1905 31.2839L50.86 30.5013Z" fill="#263238"/>
<path d="M53.2143 32.2425C53.1192 32.2462 53.0245 32.2277 52.9377 32.1885C52.8583 32.1574 52.7869 32.109 52.7286 32.0468C52.6699 31.9869 52.624 31.9158 52.5936 31.8377C52.5666 31.7572 52.5529 31.6729 52.5531 31.588C52.5523 31.5031 52.5659 31.4187 52.5936 31.3384C52.624 31.2603 52.6699 31.1892 52.7286 31.1293C52.7865 31.065 52.8579 31.0143 52.9377 30.9808C53.0255 30.9448 53.1195 30.9265 53.2143 30.9269C53.3093 30.9252 53.4036 30.9436 53.4909 30.9808C53.5707 31.0143 53.6422 31.065 53.7001 31.1293C53.7587 31.1892 53.8046 31.2603 53.835 31.3384C53.8648 31.4183 53.8808 31.5027 53.8822 31.588C53.8802 31.6733 53.8642 31.7576 53.835 31.8377C53.8046 31.9158 53.7587 31.9869 53.7001 32.0468C53.6443 32.1089 53.5751 32.1573 53.4977 32.1885C53.4082 32.2267 53.3116 32.2451 53.2143 32.2425ZM52.8837 31.5678C52.8735 31.619 52.8735 31.6717 52.8837 31.723C52.8979 31.7675 52.9208 31.8088 52.9512 31.8444C52.9827 31.8751 53.0192 31.9002 53.0591 31.9186C53.1013 31.9287 53.1452 31.9287 53.1873 31.9186C53.2317 31.9287 53.2779 31.9287 53.3223 31.9186C53.3611 31.9018 53.3957 31.8764 53.4235 31.8444C53.4559 31.8092 53.4812 31.7679 53.4977 31.723C53.5047 31.6715 53.5047 31.6193 53.4977 31.5678C53.5051 31.5163 53.5051 31.4641 53.4977 31.4126C53.4812 31.3677 53.4559 31.3264 53.4235 31.2912C53.3961 31.2571 53.3615 31.2294 53.3223 31.2102C53.2776 31.2033 53.232 31.2033 53.1873 31.2102C53.1452 31.2002 53.1013 31.2002 53.0591 31.2102C53.0179 31.2262 52.9809 31.2516 52.9512 31.2844C52.9208 31.32 52.8979 31.3613 52.8837 31.4059C52.8696 31.4658 52.8696 31.5281 52.8837 31.588V31.5678Z" fill="#263238"/>
<path d="M54.853 31.2306C54.7616 31.2282 54.6711 31.2491 54.5899 31.2913C54.5525 31.3058 54.5183 31.3276 54.4894 31.3554C54.4604 31.3832 54.4373 31.4165 54.4213 31.4533V32.2224H54.0974V30.954H54.374V31.2239C54.393 31.1786 54.4205 31.1374 54.455 31.1024C54.484 31.0681 54.5181 31.0385 54.5562 31.0147C54.5882 30.9881 54.6248 30.9675 54.6641 30.954C54.6976 30.9476 54.7319 30.9476 54.7653 30.954H54.8328L54.853 31.2306Z" fill="#263238"/>
<path d="M55.8989 32.2227L55.5346 31.6695L55.3592 31.8449V32.2227H55.0488V30.4551H55.3727V31.5278L55.8787 30.9543H56.2295L55.7572 31.4941L56.2632 32.2227H55.8989Z" fill="#263238"/>
<g opacity="0.4">
<path d="M70.0999 30.5015H70.2416L70.9567 32.2219H70.7813L70.5654 31.7091H69.7896L69.5669 32.2489H69.3848L70.0999 30.5015ZM70.5182 31.5472L70.1674 30.6971L69.8166 31.5472H70.5182Z" fill="black"/>
<path d="M71.7869 32.242C71.6914 32.2455 71.5972 32.2196 71.517 32.1678C71.4347 32.1223 71.3668 32.0545 71.3213 31.9721V32.2217H71.1729V30.4541H71.3348V31.2232C71.3899 31.1425 71.4583 31.0717 71.5372 31.0141C71.6193 30.9601 71.7156 30.9319 71.8139 30.9331C71.8987 30.9324 71.9822 30.9533 72.0567 30.9938C72.1254 31.0298 72.1853 31.0805 72.2321 31.1423C72.2825 31.2046 72.3213 31.2754 72.3468 31.3514C72.3739 31.4295 72.3876 31.5116 72.3873 31.5943C72.3886 31.6798 72.3725 31.7647 72.3401 31.8439C72.3122 31.9217 72.2686 31.9929 72.2119 32.0531C72.1578 32.111 72.0938 32.159 72.023 32.1947C71.9488 32.2278 71.8681 32.244 71.7869 32.242ZM71.7531 32.1003C71.8192 32.1016 71.8844 32.0853 71.942 32.0531C71.9972 32.0256 72.0473 31.9891 72.0905 31.9451C72.1283 31.8951 72.16 31.8408 72.1849 31.7832C72.1946 31.7206 72.1946 31.6569 72.1849 31.5943C72.1984 31.5298 72.1984 31.4632 72.1849 31.3986C72.1666 31.3394 72.1368 31.2844 72.0972 31.2367C72.0581 31.1894 72.01 31.1504 71.9555 31.122C71.8962 31.0951 71.8318 31.0813 71.7666 31.0815C71.7222 31.0714 71.6761 31.0714 71.6317 31.0815C71.5871 31.0957 71.5458 31.1186 71.5102 31.149C71.4702 31.1757 71.4358 31.2101 71.4091 31.2502C71.3789 31.2871 71.354 31.328 71.3348 31.3716V31.763C71.3442 31.8067 71.3626 31.8481 71.3888 31.8844C71.4494 31.9579 71.5286 32.0138 71.6182 32.0463C71.6585 32.0743 71.7046 32.0928 71.7531 32.1003Z" fill="black"/>
<path d="M73.2037 32.2422C73.118 32.2448 73.0328 32.2287 72.954 32.1949C72.8804 32.1572 72.8123 32.1095 72.7517 32.0533C72.6988 31.9903 72.6556 31.9198 72.6235 31.8441C72.5942 31.764 72.5783 31.6797 72.5762 31.5945C72.5783 31.5071 72.5942 31.4205 72.6235 31.3381C72.6551 31.2606 72.7008 31.1897 72.7584 31.129C72.8166 31.0727 72.8825 31.025 72.954 30.9873C73.0325 30.9519 73.1176 30.9336 73.2037 30.9336C73.2898 30.9336 73.3748 30.9519 73.4533 30.9873C73.5259 31.0267 73.5938 31.0742 73.6557 31.129C73.7086 31.1919 73.7518 31.2624 73.7839 31.3381C73.8162 31.4197 73.8322 31.5068 73.8311 31.5945C73.8324 31.68 73.8163 31.7649 73.7839 31.8441C73.7543 31.9211 73.7109 31.992 73.6557 32.0533C73.5963 32.1111 73.528 32.1589 73.4533 32.1949C73.3745 32.2287 73.2893 32.2448 73.2037 32.2422ZM72.7449 31.5675C72.7451 31.6341 72.7565 31.7003 72.7786 31.7631C72.8045 31.8216 72.8386 31.8762 72.8798 31.9251C72.9204 31.9719 72.9712 32.0089 73.0283 32.033C73.0828 32.0598 73.1429 32.0737 73.2037 32.0737C73.2645 32.0737 73.3245 32.0598 73.3791 32.033C73.4349 32.0067 73.4852 31.97 73.5275 31.9251C73.5688 31.8762 73.6028 31.8216 73.6287 31.7631C73.6509 31.698 73.6623 31.6296 73.6624 31.5607C73.6617 31.4942 73.6503 31.4281 73.6287 31.3651C73.6028 31.3066 73.5688 31.2521 73.5275 31.2032C73.487 31.1563 73.4362 31.1194 73.3791 31.0952C73.3245 31.0684 73.2645 31.0545 73.2037 31.0545C73.1429 31.0545 73.0828 31.0684 73.0283 31.0952C72.9721 31.121 72.9217 31.1577 72.8798 31.2032C72.8386 31.2521 72.8045 31.3066 72.7786 31.3651C72.7542 31.439 72.7428 31.5166 72.7449 31.5945V31.5675Z" fill="black"/>
<path d="M74.4985 32.2422C74.4406 32.2472 74.3824 32.2374 74.3293 32.2138C74.2762 32.1902 74.23 32.1536 74.1949 32.1073C74.1178 31.9845 74.0823 31.8402 74.0937 31.6958V30.9604H74.2556V31.635C74.2556 31.9251 74.3568 32.0668 74.5525 32.0668C74.5992 32.0764 74.6474 32.0764 74.6941 32.0668C74.7401 32.0512 74.7834 32.0284 74.8223 31.9993C74.8616 31.9668 74.8977 31.9307 74.9303 31.8914C74.9642 31.8471 74.9894 31.7967 75.0045 31.743V30.9536H75.1732V31.9993C75.1732 32.0466 75.1732 32.0668 75.2271 32.0668V32.2152H75.1597C75.1419 32.2163 75.124 32.2132 75.1077 32.2062C75.0913 32.1991 75.0767 32.1884 75.0652 32.1748C75.0518 32.1616 75.0413 32.1459 75.0343 32.1284C75.0273 32.111 75.0241 32.0923 75.0247 32.0736V31.9251C74.9744 32.0216 74.897 32.1013 74.8021 32.1545C74.7105 32.2103 74.6057 32.2406 74.4985 32.2422Z" fill="black"/>
<path d="M76.152 32.1607C76.1389 32.1561 76.1246 32.1561 76.1115 32.1607H76.0441H75.9631H75.8619H75.7607C75.7315 32.149 75.7042 32.1331 75.6797 32.1135C75.654 32.0938 75.6332 32.0684 75.619 32.0393C75.6119 32.0036 75.6119 31.9669 75.619 31.9313V31.0273H75.4436V30.8991H75.619V30.4673H75.7809V30.8991H76.071V31.0273H75.7809V31.8841C75.7815 31.904 75.7866 31.9235 75.796 31.9411C75.8053 31.9586 75.8187 31.9738 75.8349 31.9853C75.8674 31.9984 75.9037 31.9984 75.9361 31.9853C75.9762 31.9929 76.0174 31.9929 76.0576 31.9853H76.125L76.152 32.1607Z" fill="black"/>
</g>
<g opacity="0.4">
<path d="M90.6576 30.8267C90.6041 30.7668 90.537 30.7205 90.462 30.6917C90.3742 30.6557 90.2802 30.6374 90.1854 30.6378C90.0682 30.626 89.9507 30.6571 89.8548 30.7255C89.8189 30.753 89.7902 30.7889 89.7714 30.8301C89.7526 30.8713 89.7441 30.9164 89.7468 30.9616C89.7352 31.0013 89.7352 31.0434 89.7468 31.083C89.7644 31.1198 89.7926 31.1503 89.8278 31.1708C89.874 31.1998 89.924 31.2225 89.9762 31.2382L90.1921 31.2854L90.4418 31.3529C90.5093 31.3743 90.573 31.4062 90.6307 31.4474C90.6775 31.4815 90.7166 31.5252 90.7454 31.5756C90.7745 31.6365 90.7883 31.7037 90.7858 31.7712C90.7901 31.8392 90.7768 31.9072 90.7473 31.9686C90.7178 32.0301 90.673 32.0829 90.6172 32.122C90.5556 32.1632 90.487 32.193 90.4148 32.2097C90.3317 32.2175 90.2482 32.2175 90.1651 32.2097C89.9174 32.2113 89.6775 32.1226 89.4905 31.9601L89.5782 31.8184C89.6094 31.855 89.6457 31.8868 89.6861 31.9129C89.7814 31.9732 89.8864 32.0165 89.9965 32.0411C90.0593 32.048 90.1226 32.048 90.1854 32.0411C90.2981 32.0462 90.41 32.0206 90.5092 31.9669C90.5459 31.9411 90.5755 31.9067 90.5956 31.8667C90.6156 31.8266 90.6253 31.7822 90.6239 31.7375C90.6338 31.693 90.6338 31.647 90.6239 31.6025C90.5987 31.563 90.5639 31.5305 90.5227 31.5081C90.4709 31.4808 90.4167 31.4582 90.3608 31.4406L90.1382 31.3866L89.902 31.3192C89.8392 31.2996 89.7799 31.27 89.7266 31.2315C89.6823 31.2011 89.6473 31.1591 89.6254 31.11C89.6099 31.0526 89.6099 30.9921 89.6254 30.9346C89.6239 30.8628 89.6377 30.7915 89.6659 30.7255C89.6971 30.6653 89.7408 30.6124 89.7941 30.5703C89.8528 30.5269 89.9192 30.4949 89.9897 30.4758C90.0703 30.4651 90.152 30.4651 90.2326 30.4758C90.3384 30.4755 90.4435 30.4938 90.543 30.5298C90.631 30.5638 90.713 30.6116 90.7858 30.6715L90.6576 30.8267Z" fill="black"/>
<path d="M92.156 32.2228H91.9873V31.5144C91.9968 31.4014 91.9708 31.2882 91.9131 31.1906C91.8884 31.1571 91.8557 31.1302 91.818 31.1126C91.7803 31.0949 91.7388 31.0869 91.6972 31.0894C91.6528 31.0793 91.6067 31.0793 91.5623 31.0894C91.5139 31.1074 91.4684 31.1324 91.4273 31.1636C91.3883 31.1968 91.3543 31.2355 91.3261 31.2783C91.293 31.3197 91.2699 31.3682 91.2587 31.42V32.1959H91.0967V30.4282H91.2587V31.2176C91.3155 31.1383 91.3923 31.0754 91.4813 31.0354C91.5664 30.9764 91.6679 30.9457 91.7714 30.9477C91.8345 30.9468 91.8968 30.9607 91.9536 30.9882C92.0018 31.0172 92.0433 31.0564 92.075 31.1029C92.109 31.1546 92.1341 31.2116 92.1492 31.2716C92.1565 31.3456 92.1565 31.4202 92.1492 31.4942L92.156 32.2228Z" fill="black"/>
<path d="M93.0394 32.2429C92.9515 32.2455 92.8641 32.2294 92.783 32.1957C92.7114 32.158 92.6455 32.1103 92.5873 32.054C92.5322 31.9927 92.4887 31.9219 92.4592 31.8449C92.4267 31.7657 92.4107 31.6808 92.4119 31.5953C92.4109 31.5076 92.4269 31.4205 92.4592 31.3389C92.4913 31.2632 92.5345 31.1927 92.5873 31.1297C92.648 31.0735 92.7161 31.0258 92.7897 30.9881C92.868 30.952 92.9532 30.9335 93.0394 30.9341C93.1253 30.936 93.21 30.9543 93.289 30.9881C93.4386 31.0603 93.5563 31.1852 93.6196 31.3389C93.6488 31.4213 93.6648 31.5078 93.6668 31.5953C93.6648 31.6805 93.6488 31.7648 93.6196 31.8449C93.5875 31.9206 93.5442 31.9911 93.4914 32.054C93.4295 32.1088 93.3616 32.1563 93.289 32.1957C93.21 32.2289 93.125 32.245 93.0394 32.2429ZM92.5806 31.5683C92.5808 31.6349 92.5922 31.7011 92.6143 31.7639C92.6402 31.8224 92.6743 31.877 92.7155 31.9259C92.7549 31.9712 92.8031 32.0079 92.8572 32.0338C92.9139 32.0613 92.9763 32.0752 93.0394 32.0743C93.1002 32.0746 93.1603 32.0607 93.2148 32.0338C93.2685 32.004 93.3183 31.9677 93.3632 31.9259C93.4049 31.8785 93.437 31.8235 93.4577 31.7639C93.4853 31.7001 93.4991 31.6311 93.4981 31.5615C93.4933 31.4308 93.4459 31.3053 93.3632 31.204C93.3201 31.16 93.2699 31.1235 93.2148 31.096C93.1603 31.0691 93.1002 31.0552 93.0394 31.0555C92.9764 31.0554 92.9142 31.0692 92.8572 31.096C92.8031 31.1219 92.7549 31.1587 92.7155 31.204C92.6743 31.2529 92.6402 31.3074 92.6143 31.3659C92.5899 31.4398 92.5785 31.5174 92.5806 31.5953V31.5683Z" fill="black"/>
<path d="M94.5841 32.2429C94.4836 32.2451 94.3849 32.2169 94.3007 32.162C94.2209 32.1104 94.1539 32.0411 94.1051 31.9596V32.7354H93.9364V30.9611H94.0848V31.2039C94.1378 31.1252 94.2068 31.0586 94.2872 31.0083C94.3691 30.9603 94.4622 30.9347 94.5571 30.9341C94.641 30.9343 94.7239 30.9527 94.8 30.9881C94.8701 31.0277 94.9338 31.0777 94.9889 31.1365C95.041 31.1987 95.0821 31.2695 95.1103 31.3456C95.1422 31.4226 95.1583 31.5052 95.1575 31.5885C95.1578 31.6756 95.1441 31.7621 95.1171 31.8449C95.065 31.9967 94.9562 32.1224 94.8135 32.1957C94.7416 32.2287 94.6631 32.2449 94.5841 32.2429ZM94.5369 32.1013C94.6029 32.1026 94.6681 32.0863 94.7258 32.054C94.7802 32.0257 94.8284 31.9867 94.8674 31.9393C94.907 31.8916 94.9368 31.8366 94.9551 31.7774C95.0001 31.6555 95.0001 31.5215 94.9551 31.3996C94.9293 31.3411 94.8952 31.2866 94.8539 31.2377C94.8124 31.1902 94.762 31.1512 94.7055 31.123C94.6462 31.096 94.5818 31.0822 94.5166 31.0825C94.4744 31.0736 94.4307 31.0736 94.3884 31.0825C94.3424 31.0982 94.2992 31.1209 94.2602 31.15C94.2219 31.1761 94.1877 31.2079 94.159 31.2444C94.1301 31.2791 94.1114 31.3212 94.1051 31.3659V31.7572C94.1232 31.8013 94.1483 31.8423 94.1793 31.8786C94.206 31.9187 94.2404 31.9531 94.2805 31.9798C94.3179 32.0074 94.3587 32.0301 94.4019 32.0473C94.4419 32.0759 94.4882 32.0945 94.5369 32.1013Z" fill="black"/>
</g>
<g opacity="0.4">
<path d="M107.154 31.3458C107.155 31.2424 107.173 31.1398 107.207 31.0422C107.245 30.9413 107.3 30.8478 107.369 30.7656C107.44 30.6824 107.527 30.6156 107.626 30.5699C107.732 30.5149 107.85 30.487 107.97 30.489C108.111 30.4825 108.25 30.5203 108.368 30.5969C108.473 30.6593 108.556 30.7539 108.604 30.8668L108.476 30.9478C108.448 30.8968 108.414 30.8493 108.375 30.8061C108.335 30.7703 108.292 30.7386 108.246 30.7116C108.202 30.6878 108.154 30.6697 108.105 30.6577H107.963C107.867 30.6553 107.772 30.6761 107.687 30.7184C107.612 30.7634 107.546 30.8204 107.491 30.887C107.436 30.9563 107.393 31.0337 107.363 31.1164C107.336 31.1992 107.322 31.2857 107.322 31.3728C107.323 31.4654 107.341 31.5571 107.376 31.6427C107.406 31.729 107.452 31.8091 107.511 31.8788C107.564 31.9467 107.634 32.0001 107.713 32.034C107.793 32.0746 107.881 32.0954 107.97 32.0947H108.118C108.17 32.0815 108.22 32.0611 108.267 32.034C108.314 32.0062 108.357 31.9721 108.395 31.9328C108.436 31.8898 108.472 31.8423 108.503 31.7911L108.638 31.8653C108.612 31.9292 108.573 31.9868 108.523 32.034C108.473 32.0819 108.416 32.1228 108.354 32.1554C108.293 32.1905 108.227 32.2176 108.159 32.2364C108.092 32.2466 108.023 32.2466 107.956 32.2364C107.843 32.2369 107.732 32.2091 107.633 32.1554C107.535 32.1076 107.45 32.0384 107.383 31.953C107.309 31.8704 107.252 31.7741 107.214 31.6697C107.173 31.5666 107.153 31.4567 107.154 31.3458Z" fill="black"/>
<path d="M109.433 32.2429C109.348 32.2456 109.262 32.2295 109.184 32.1957C109.111 32.1563 109.043 32.1088 108.981 32.054C108.928 31.9911 108.885 31.9206 108.853 31.8449C108.824 31.7648 108.808 31.6805 108.806 31.5953C108.808 31.5078 108.824 31.4213 108.853 31.3389C108.916 31.1852 109.034 31.0603 109.184 30.9881C109.262 30.9528 109.347 30.9344 109.433 30.9341C109.52 30.9335 109.605 30.952 109.683 30.9881C109.757 31.0258 109.825 31.0735 109.885 31.1297C109.938 31.1927 109.981 31.2632 110.014 31.3389C110.046 31.4205 110.062 31.5076 110.061 31.5953C110.062 31.6808 110.046 31.7657 110.014 31.8449C109.984 31.9219 109.941 31.9927 109.885 32.054C109.827 32.1103 109.761 32.158 109.69 32.1957C109.608 32.228 109.521 32.244 109.433 32.2429ZM108.975 31.5683C108.974 31.6357 108.987 31.7025 109.015 31.7639C109.036 31.8235 109.068 31.8785 109.11 31.9259C109.15 31.9727 109.201 32.0097 109.258 32.0338C109.313 32.0606 109.373 32.0745 109.433 32.0745C109.494 32.0745 109.554 32.0606 109.609 32.0338C109.665 32.0074 109.715 31.9708 109.757 31.9259C109.798 31.877 109.833 31.8224 109.858 31.7639C109.869 31.6969 109.869 31.6286 109.858 31.5615C109.869 31.4967 109.869 31.4307 109.858 31.3659C109.833 31.3074 109.798 31.2529 109.757 31.204C109.717 31.1571 109.666 31.1202 109.609 31.096C109.554 31.0692 109.494 31.0553 109.433 31.0553C109.373 31.0553 109.313 31.0692 109.258 31.096C109.203 31.1235 109.153 31.16 109.11 31.204C109.068 31.2513 109.036 31.3063 109.015 31.3659C108.985 31.4385 108.971 31.5168 108.975 31.5953V31.5683Z" fill="black"/>
<path d="M111.397 32.2235H111.235V31.5151C111.244 31.4028 111.221 31.2903 111.167 31.1912C111.145 31.1583 111.115 31.1317 111.08 31.1139C111.044 31.0962 111.005 31.0879 110.965 31.09C110.916 31.0798 110.866 31.0798 110.817 31.09C110.767 31.1052 110.721 31.1305 110.682 31.1642C110.641 31.1974 110.604 31.236 110.574 31.2789C110.541 31.3216 110.516 31.3695 110.5 31.4206V32.1965H110.371V30.9348H110.52V31.2182C110.572 31.1251 110.649 31.0481 110.742 30.9956C110.839 30.9406 110.948 30.9105 111.06 30.9079C111.12 30.9062 111.181 30.9201 111.235 30.9483C111.282 30.9733 111.322 31.0106 111.35 31.0563C111.379 31.1112 111.399 31.1704 111.41 31.2317C111.418 31.3057 111.418 31.3803 111.41 31.4543L111.397 32.2235Z" fill="black"/>
<path d="M112.342 32.1622H112.301H112.234H112.153H112.058H111.957L111.87 32.1149C111.848 32.0931 111.83 32.0681 111.816 32.0407C111.805 32.0054 111.805 31.968 111.816 31.9328V31.0287H111.647V30.9005H111.816V30.4688H111.984V30.9005H112.274V31.0287H111.984V31.8855C111.983 31.905 111.987 31.9243 111.996 31.9419C112.004 31.9595 112.016 31.9749 112.031 31.9868C112.064 31.9981 112.1 31.9981 112.133 31.9868C112.175 31.9938 112.218 31.9938 112.261 31.9868H112.328L112.342 32.1622Z" fill="black"/>
<path d="M112.868 32.2431C112.812 32.2534 112.755 32.2534 112.699 32.2431C112.649 32.2228 112.603 32.193 112.564 32.1554C112.528 32.1209 112.498 32.0797 112.477 32.034C112.467 31.9828 112.467 31.93 112.477 31.8788C112.467 31.8276 112.467 31.7749 112.477 31.7236C112.508 31.679 112.547 31.6402 112.591 31.609C112.641 31.574 112.696 31.5467 112.753 31.528C112.825 31.5173 112.898 31.5173 112.969 31.528H113.165C113.225 31.538 113.284 31.5538 113.34 31.5752V31.4673C113.345 31.4188 113.34 31.3697 113.324 31.3236C113.308 31.2775 113.282 31.2355 113.248 31.2007C113.213 31.1659 113.172 31.1391 113.126 31.1222C113.08 31.1053 113.031 31.0987 112.983 31.103C112.918 31.0934 112.852 31.0934 112.787 31.103C112.714 31.1347 112.644 31.1731 112.578 31.2176L112.524 31.1097C112.662 31.0087 112.826 30.9501 112.996 30.941C113.135 30.9344 113.271 30.9829 113.374 31.076C113.42 31.1258 113.456 31.1843 113.479 31.248C113.502 31.3117 113.512 31.3793 113.509 31.447V32.0138C113.509 32.061 113.509 32.0812 113.57 32.0812V32.2296H113.502C113.472 32.241 113.438 32.241 113.408 32.2296C113.394 32.2196 113.383 32.2063 113.376 32.1909C113.369 32.1756 113.366 32.1588 113.367 32.1419V32.0407C113.313 32.1185 113.239 32.1793 113.151 32.2162C113.06 32.2452 112.963 32.2544 112.868 32.2431ZM112.909 32.1217C112.99 32.1207 113.071 32.1023 113.145 32.0677C113.209 32.0406 113.265 31.9962 113.307 31.9395C113.321 31.9268 113.333 31.9106 113.34 31.8923C113.344 31.8768 113.344 31.8606 113.34 31.8451V31.6427C113.286 31.6197 113.23 31.6038 113.172 31.5955C113.111 31.5888 113.05 31.5888 112.99 31.5955C112.89 31.5925 112.792 31.6183 112.706 31.6697C112.673 31.6888 112.646 31.7163 112.627 31.7495C112.608 31.7827 112.598 31.8204 112.598 31.8586C112.591 31.8942 112.591 31.9309 112.598 31.9665C112.615 32.0017 112.638 32.0336 112.666 32.061C112.694 32.0843 112.726 32.1025 112.76 32.115C112.807 32.1336 112.86 32.136 112.909 32.1217Z" fill="black"/>
<path d="M113.786 31.5886C113.785 31.5015 113.798 31.4149 113.826 31.3323C113.857 31.2562 113.903 31.1873 113.961 31.1299C114.016 31.0694 114.082 31.0212 114.157 30.9882C114.238 30.9536 114.325 30.9353 114.413 30.9342C114.524 30.932 114.634 30.96 114.73 31.0152C114.817 31.0672 114.885 31.145 114.926 31.2378L114.771 31.285C114.734 31.2244 114.683 31.1735 114.622 31.1366C114.556 31.1014 114.482 31.0829 114.406 31.0826C114.343 31.0831 114.281 31.0969 114.224 31.1231C114.172 31.149 114.124 31.1831 114.082 31.2243C114.041 31.2732 114.007 31.3277 113.981 31.3862C113.97 31.4533 113.97 31.5216 113.981 31.5886C113.981 31.6559 113.995 31.7226 114.022 31.7843C114.041 31.8466 114.073 31.9041 114.116 31.953C114.161 31.9948 114.211 32.0311 114.265 32.0609C114.319 32.0878 114.379 32.1017 114.44 32.1014C114.48 32.1084 114.521 32.1084 114.561 32.1014C114.602 32.0927 114.641 32.0767 114.676 32.0542L114.764 31.9867C114.785 31.9629 114.801 31.9355 114.811 31.9057L114.973 31.953C114.956 31.9979 114.931 32.0392 114.899 32.0744C114.865 32.1152 114.824 32.1495 114.777 32.1756C114.729 32.2061 114.677 32.2289 114.622 32.2431C114.566 32.2496 114.51 32.2496 114.453 32.2431C114.366 32.2456 114.278 32.2295 114.197 32.1958C114.121 32.1595 114.052 32.1091 113.995 32.0474C113.938 31.9873 113.894 31.9161 113.867 31.8383C113.822 31.7619 113.794 31.6767 113.786 31.5886Z" fill="black"/>
<path d="M115.802 32.1622H115.762H115.701H115.613H115.519H115.418L115.33 32.1149C115.308 32.0931 115.29 32.0681 115.276 32.0407C115.269 32.0051 115.269 31.9684 115.276 31.9328V31.0287H115.094V30.9005H115.263V30.4688H115.431V30.9005H115.721V31.0287H115.431V31.8855C115.431 31.905 115.434 31.9243 115.443 31.9419C115.451 31.9595 115.463 31.9749 115.479 31.9868C115.511 31.9981 115.547 31.9981 115.58 31.9868C115.622 31.9943 115.666 31.9943 115.708 31.9868H115.775L115.802 32.1622Z" fill="black"/>
</g>
<path d="M56.2434 32.7344H50.0837V32.9975H56.2434V32.7344Z" fill="#263238"/>
<path d="M152.477 11.8003H113.468V17.0087H152.477V11.8003Z" fill="white"/>
<path d="M152.532 17.0625H113.401V11.7461H152.532V17.0625ZM113.522 16.9545H152.424V11.854H113.522V16.9545Z" fill="#C7C7C7"/>
<path d="M152.532 11.7461H147.216V17.0625H152.532V11.7461Z" fill="#455A64"/>
<path d="M151.526 15.8608L151.047 16.2251L150.177 15.0512L149.846 14.6194C149.914 14.5951 149.977 14.561 150.035 14.5182C150.144 14.4329 150.23 14.3216 150.285 14.1943L150.629 14.6531L151.526 15.8608Z" fill="white"/>
<path d="M150.582 13.0947C150.43 12.8948 150.224 12.7426 149.988 12.6563C149.752 12.5699 149.496 12.553 149.251 12.6074C149.005 12.6619 148.781 12.7855 148.603 12.9636C148.426 13.1417 148.303 13.3669 148.25 13.6125C148.197 13.8581 148.215 14.1138 148.302 14.3494C148.39 14.585 148.543 14.7907 148.743 14.942C148.944 15.0934 149.184 15.1841 149.434 15.2035C149.685 15.2228 149.936 15.17 150.157 15.0512L150.339 14.9366C150.44 14.8523 150.53 14.7573 150.609 14.6532C150.767 14.4225 150.848 14.1488 150.844 13.8697C150.839 13.5905 150.747 13.3198 150.582 13.0947ZM150.016 14.5183C149.958 14.5611 149.894 14.5952 149.827 14.6195C149.66 14.6833 149.476 14.6876 149.306 14.6315C149.137 14.5755 148.991 14.4625 148.895 14.3118C148.799 14.1611 148.758 13.9819 148.779 13.8044C148.8 13.6269 148.881 13.462 149.01 13.3377C149.138 13.2133 149.305 13.137 149.483 13.1217C149.661 13.1065 149.839 13.1532 149.987 13.2539C150.134 13.3546 150.243 13.5032 150.293 13.6746C150.344 13.846 150.334 14.0296 150.265 14.1944C150.211 14.3216 150.125 14.433 150.016 14.5183Z" fill="white"/>
<path d="M114.832 12.8252H114.555V15.9826H114.832V12.8252Z" fill="#C7C7C7"/>
<path d="M111.512 11.8003H21.6594V17.0087H111.512V11.8003Z" fill="white"/>
<path d="M111.565 17.0625H21.6054V11.7461H111.565V17.0625ZM21.7134 16.9545H111.444V11.854H21.7134V16.9545Z" fill="#C7C7C7"/>
<path d="M23.0231 12.8252H22.7465V15.9826H23.0231V12.8252Z" fill="#C7C7C7"/>
<path d="M11.8303 16.1858L9.93445 14.4451L11.8303 12.6235L12.1271 12.9339L10.5551 14.4316L12.1204 15.8754L11.8303 16.1858Z" fill="white"/>
<path d="M16.4112 12.6235L18.307 14.3709L16.4112 16.1858L16.1211 15.8754L17.6863 14.3777L16.1211 12.9339L16.4112 12.6235Z" fill="white"/>
</g>
</svg>
