<svg width="337" height="200" viewBox="0 0 337 200" fill="none" xmlns="http://www.w3.org/2000/svg">
<g clip-path="url(#clip0_1372_131750)">
<path d="M332 0H5C2.23858 0 0 2.23857 0 5V195C0 197.761 2.23857 200 5 200H332C334.761 200 337 197.761 337 195V5C337 2.23858 334.761 0 332 0Z" fill="#7DD3FC"/>
<path d="M201.443 134.878C201.999 134.229 202.64 133.658 203.348 133.178L203.078 130.826L206.773 129.531L208.023 131.531C208.875 131.465 209.733 131.513 210.573 131.674L212.042 129.821L215.577 131.514L215.047 133.818C215.697 134.374 216.269 135.014 216.75 135.721L219.099 135.451L220.394 139.146L218.394 140.396C218.461 141.247 218.414 142.104 218.254 142.943L220.107 144.415L218.409 147.942L216.105 147.415C215.549 148.065 214.908 148.637 214.2 149.115L214.47 151.467L210.775 152.762L209.525 150.762C208.673 150.828 207.817 150.78 206.978 150.62L205.508 152.472L201.966 150.787L202.496 148.482C201.846 147.927 201.273 147.287 200.793 146.58L198.443 146.85L197.148 143.155L199.148 141.905C199.08 141.054 199.127 140.197 199.288 139.358L197.436 137.886L199.133 134.358L201.438 134.886L201.443 134.878ZM204.01 138.866C203.557 139.807 203.394 140.862 203.54 141.896C203.687 142.93 204.137 143.898 204.833 144.677C205.529 145.456 206.441 146.01 207.453 146.271C208.465 146.532 209.531 146.486 210.517 146.141C211.503 145.795 212.364 145.165 212.992 144.33C213.62 143.495 213.986 142.493 214.044 141.45C214.102 140.407 213.85 139.37 213.319 138.47C212.787 137.571 212.001 136.849 211.06 136.396C209.798 135.789 208.346 135.709 207.024 136.172C205.702 136.635 204.618 137.604 204.01 138.866Z" fill="#3C3C3C"/>
<path d="M290.891 171.387C291.439 170.748 292.069 170.185 292.766 169.712L292.501 167.395L296.143 166.117L297.381 168.095C298.22 168.028 299.065 168.074 299.893 168.232L301.343 166.407L304.82 168.08L304.3 170.352C304.939 170.9 305.502 171.53 305.975 172.227L308.292 171.962L309.57 175.604L307.592 176.841C307.659 177.681 307.612 178.526 307.455 179.354L309.28 180.804L307.617 184.281L305.335 183.756C304.787 184.395 304.156 184.958 303.46 185.431L303.725 187.748L300.083 189.026L298.845 187.048C298.006 187.115 297.161 187.068 296.333 186.911L294.883 188.736L291.406 187.063L291.926 184.791C291.287 184.243 290.724 183.612 290.251 182.916L287.934 183.181L286.656 179.539L288.634 178.301C288.567 177.462 288.614 176.617 288.771 175.789L286.946 174.339L288.619 170.867L290.891 171.387ZM293.421 175.317C292.974 176.245 292.813 177.284 292.957 178.304C293.101 179.324 293.544 180.278 294.231 181.046C294.918 181.814 295.817 182.361 296.814 182.618C297.812 182.875 298.863 182.83 299.835 182.489C300.807 182.149 301.656 181.527 302.275 180.704C302.894 179.88 303.255 178.892 303.312 177.864C303.369 176.835 303.12 175.813 302.596 174.926C302.071 174.039 301.296 173.328 300.368 172.882C299.124 172.285 297.693 172.206 296.391 172.662C295.088 173.119 294.02 174.073 293.421 175.317Z" fill="#3C3C3C"/>
<path d="M288.867 136.446C289.29 135.951 289.778 135.515 290.317 135.151L290.112 133.359L292.93 132.371L293.887 133.898C294.536 133.848 295.19 133.884 295.829 134.006L296.952 132.594L299.642 133.888L299.237 135.638C299.732 136.061 300.169 136.549 300.534 137.088L302.327 136.883L303.314 139.701L301.784 140.658C301.835 141.307 301.799 141.961 301.677 142.6L303.089 143.723L301.797 146.413L300.047 146.008C299.623 146.503 299.134 146.94 298.594 147.305L298.802 149.097L295.984 150.097L295.027 148.57C294.378 148.621 293.724 148.584 293.085 148.46L291.962 149.872L289.272 148.58L289.675 146.83C289.181 146.406 288.745 145.919 288.38 145.38L286.588 145.585L285.598 142.76L287.125 141.803C287.075 141.154 287.111 140.5 287.233 139.861L285.82 138.738L287.118 136.043L288.867 136.446ZM290.825 139.486C290.479 140.203 290.354 141.008 290.465 141.796C290.577 142.585 290.92 143.323 291.451 143.917C291.982 144.511 292.677 144.934 293.448 145.133C294.22 145.332 295.033 145.297 295.785 145.034C296.537 144.771 297.193 144.29 297.672 143.653C298.151 143.016 298.43 142.252 298.474 141.456C298.518 140.661 298.325 139.87 297.92 139.184C297.515 138.498 296.915 137.948 296.197 137.603C295.235 137.143 294.13 137.082 293.124 137.435C292.118 137.788 291.293 138.525 290.83 139.486H290.825Z" fill="#3C3C3C"/>
<path d="M281.765 123.427C282.05 123.094 282.377 122.801 282.74 122.555L282.603 121.35L284.495 120.688L285.14 121.715C285.576 121.679 286.015 121.704 286.445 121.787L287.195 120.837L289.002 121.707L288.732 122.887C289.064 123.173 289.358 123.501 289.605 123.862L290.807 123.725L291.472 125.617L290.447 126.262C290.48 126.698 290.456 127.137 290.375 127.567L291.325 128.317L290.455 130.124L289.272 129.852C288.988 130.186 288.66 130.479 288.297 130.724L288.437 131.929L286.545 132.592L285.9 131.564C285.464 131.599 285.025 131.574 284.595 131.492L283.845 132.442L282.038 131.572L282.31 130.392C281.977 130.107 281.684 129.779 281.438 129.417L280.233 129.554L279.57 127.662L280.593 127.012C280.557 126.576 280.582 126.137 280.665 125.707L279.715 124.957L280.585 123.15L281.765 123.422V123.427ZM283.08 125.47C282.848 125.952 282.765 126.492 282.84 127.021C282.915 127.551 283.145 128.046 283.502 128.445C283.859 128.843 284.325 129.127 284.843 129.261C285.361 129.394 285.907 129.371 286.412 129.194C286.917 129.017 287.358 128.695 287.679 128.268C288.001 127.84 288.188 127.327 288.218 126.793C288.249 126.259 288.12 125.728 287.848 125.268C287.576 124.807 287.174 124.437 286.692 124.205C286.372 124.05 286.025 123.961 285.67 123.941C285.315 123.921 284.96 123.971 284.624 124.089C284.289 124.206 283.98 124.388 283.715 124.625C283.45 124.862 283.234 125.149 283.08 125.47Z" fill="#3C3C3C"/>
<path d="M215.938 189.025C216.224 188.693 216.551 188.4 216.913 188.153L216.776 186.948L218.668 186.285L219.313 187.313C219.749 187.28 220.188 187.304 220.618 187.385L221.368 186.435L223.175 187.305L222.903 188.488C223.236 188.771 223.53 189.099 223.775 189.462L224.98 189.322L225.642 191.215L224.623 191.86C224.658 192.296 224.634 192.735 224.55 193.165L225.5 193.915L224.623 195.727L223.443 195.455C223.158 195.787 222.83 196.081 222.468 196.327L222.605 197.532L220.713 198.194L220.068 197.167C219.632 197.203 219.193 197.178 218.763 197.094L218.013 198.044L216.203 197.174L216.476 195.994C216.142 195.71 215.849 195.382 215.603 195.02L214.398 195.157L213.738 193.257L214.766 192.612C214.731 192.176 214.756 191.737 214.838 191.307L213.888 190.557L214.758 188.757L215.938 189.027V189.025ZM217.256 191.067C217.024 191.549 216.941 192.089 217.017 192.618C217.092 193.147 217.322 193.642 217.679 194.041C218.035 194.439 218.502 194.723 219.019 194.856C219.537 194.99 220.083 194.967 220.587 194.79C221.092 194.614 221.533 194.292 221.854 193.865C222.176 193.438 222.364 192.925 222.395 192.392C222.425 191.858 222.297 191.327 222.026 190.866C221.755 190.406 221.354 190.035 220.873 189.802C220.552 189.647 220.204 189.557 219.849 189.537C219.494 189.516 219.138 189.566 218.802 189.684C218.465 189.801 218.156 189.984 217.891 190.221C217.625 190.459 217.409 190.746 217.256 191.067Z" fill="#3C3C3C"/>
<path d="M230.264 195.601C230.693 195.101 231.187 194.66 231.731 194.289L231.524 192.476L234.374 191.477L235.344 193.024C236 192.973 236.661 193.009 237.309 193.131L238.443 191.704L241.166 193.009L240.758 194.789C241.259 195.217 241.701 195.711 242.071 196.256L243.883 196.049L244.883 198.899L243.336 199.868C243.386 200.525 243.349 201.186 243.226 201.833L244.655 202.968L243.346 205.691L241.568 205.281C241.141 205.782 240.647 206.224 240.101 206.593L240.308 208.408L237.458 209.408L236.489 207.863C235.832 207.914 235.171 207.877 234.524 207.753L233.389 209.183L230.666 207.873L231.074 206.096C230.574 205.665 230.133 205.171 229.762 204.626L227.949 204.836L226.949 201.986L228.497 201.016C228.446 200.358 228.483 199.697 228.607 199.049L227.177 197.916L228.487 195.194L230.264 195.601ZM232.244 198.676C231.894 199.402 231.768 200.216 231.881 201.014C231.994 201.812 232.341 202.559 232.878 203.159C233.415 203.76 234.118 204.188 234.899 204.389C235.679 204.59 236.502 204.556 237.263 204.289C238.023 204.023 238.688 203.536 239.172 202.892C239.657 202.248 239.939 201.475 239.984 200.67C240.029 199.865 239.834 199.065 239.424 198.371C239.014 197.677 238.407 197.12 237.681 196.771C236.707 196.303 235.588 196.241 234.568 196.598C233.548 196.955 232.712 197.703 232.244 198.676Z" fill="#3C3C3C"/>
<path d="M212.385 156.494C212.329 156.521 212.27 156.54 212.21 156.552C212.092 156.582 211.922 156.634 211.695 156.682C211.06 156.824 210.416 156.917 209.767 156.962C207.615 157.123 205.455 156.778 203.46 155.953C201.466 155.128 199.692 153.847 198.283 152.212C197.858 151.72 197.47 151.197 197.123 150.647C196.996 150.455 196.913 150.295 196.851 150.192C196.817 150.14 196.789 150.085 196.766 150.027C196.807 150.073 196.843 150.123 196.873 150.177C196.943 150.277 197.033 150.427 197.166 150.62C198.535 152.674 200.419 154.332 202.631 155.429C204.843 156.526 207.303 157.022 209.767 156.869C210.413 156.828 211.055 156.745 211.69 156.619C211.917 156.582 212.09 156.534 212.207 156.512C212.266 156.501 212.325 156.496 212.385 156.494Z" fill="#E0E0E0"/>
<path d="M207.452 158.315C207.362 158.325 207.272 158.325 207.182 158.315C207.009 158.315 206.759 158.298 206.452 158.263C205.65 158.178 204.859 158.01 204.092 157.763C203.326 157.511 202.587 157.183 201.887 156.783C201.62 156.628 201.407 156.493 201.267 156.393C201.19 156.346 201.119 156.291 201.055 156.228C201.067 156.208 201.39 156.413 201.932 156.7C202.635 157.075 203.368 157.387 204.124 157.635C204.884 157.882 205.664 158.065 206.454 158.18C207.072 158.263 207.452 158.293 207.452 158.315Z" fill="#E0E0E0"/>
<path d="M236.729 131.442C239.135 129.989 241.723 128.864 244.426 128.097L246.011 120.477L258.885 120.25L260.737 127.809C263.467 128.481 266.094 129.514 268.549 130.882L275.049 126.617L284.313 135.561L280.281 142.211C281.733 144.618 282.858 147.207 283.626 149.91L291.243 151.498L291.47 164.369L283.911 166.224C283.239 168.953 282.206 171.579 280.839 174.034L285.103 180.533L276.161 189.795L269.514 185.763C267.108 187.215 264.519 188.34 261.815 189.108L260.23 196.727L247.356 196.952L245.504 189.393C242.774 188.722 240.147 187.689 237.692 186.32L231.192 190.585L221.923 181.651L225.957 174.999C224.507 172.592 223.386 170.003 222.623 167.299L214.991 165.714L214.766 152.84L222.325 150.988C222.997 148.259 224.03 145.633 225.397 143.178L221.133 136.679L230.075 127.417L236.729 131.449V131.442ZM240.621 146.543C238.236 149.014 236.637 152.137 236.027 155.517C235.416 158.897 235.822 162.382 237.192 165.532C238.562 168.681 240.836 171.354 243.725 173.211C246.614 175.069 249.988 176.028 253.422 175.967C256.857 175.907 260.196 174.829 263.017 172.871C265.839 170.913 268.017 168.162 269.275 164.967C270.534 161.771 270.816 158.274 270.087 154.918C269.358 151.561 267.65 148.496 265.18 146.111C263.539 144.526 261.602 143.281 259.48 142.445C257.358 141.609 255.091 141.2 252.811 141.24C250.53 141.28 248.28 141.769 246.189 142.679C244.097 143.589 242.205 144.902 240.621 146.543Z" fill="#3E3E3E"/>
<path d="M240.619 146.542C240.619 146.542 240.869 146.259 241.406 145.762C242.751 144.516 244.288 143.497 245.959 142.745C246.789 142.365 247.65 142.054 248.531 141.815C250.686 141.229 252.932 141.059 255.15 141.315C257.845 141.629 260.428 142.571 262.692 144.064C264.608 145.333 266.26 146.961 267.555 148.859C268.007 149.53 268.413 150.231 268.772 150.956C270.287 154.057 270.849 157.536 270.387 160.956C270.268 161.848 270.078 162.729 269.819 163.591C269.565 164.468 269.236 165.323 268.837 166.145C267.21 169.541 264.529 172.319 261.193 174.065C260.384 174.492 259.541 174.851 258.673 175.137C257.82 175.425 256.947 175.646 256.06 175.797C252.659 176.383 249.16 175.948 246.006 174.547C245.27 174.213 244.556 173.831 243.869 173.405C241.927 172.177 240.241 170.583 238.907 168.713C237.338 166.501 236.311 163.952 235.907 161.271C235.574 159.063 235.666 156.812 236.177 154.639C236.385 153.742 236.665 152.864 237.017 152.014C237.304 151.304 237.638 150.614 238.017 149.949C238.552 149.029 239.172 148.161 239.869 147.357C240.349 146.809 240.619 146.542 240.619 146.542L240.431 146.752C240.311 146.894 240.114 147.089 239.886 147.372C239.205 148.183 238.596 149.053 238.069 149.972C237.69 150.636 237.356 151.325 237.069 152.034C236.725 152.876 236.449 153.745 236.244 154.631C235.742 156.795 235.657 159.035 235.994 161.231C236.404 163.896 237.431 166.428 238.994 168.625C239.863 169.844 240.885 170.946 242.036 171.903C242.637 172.403 243.27 172.863 243.931 173.28C244.614 173.703 245.324 174.081 246.056 174.412C250.028 176.177 254.516 176.391 258.638 175.012C259.499 174.727 260.335 174.37 261.138 173.945C264.448 172.211 267.11 169.453 268.724 166.083C269.121 165.267 269.448 164.419 269.702 163.548C269.958 162.693 270.146 161.818 270.264 160.933C270.724 157.539 270.169 154.084 268.669 151.004C268.313 150.284 267.91 149.588 267.462 148.922C267.024 148.273 266.542 147.656 266.02 147.074C265.023 145.957 263.886 144.974 262.637 144.149C260.386 142.661 257.818 141.719 255.138 141.4C252.932 141.142 250.696 141.306 248.551 141.882C247.671 142.116 246.812 142.423 245.984 142.8C244.315 143.544 242.776 144.549 241.424 145.777C241.149 146.014 240.961 146.219 240.824 146.344L240.619 146.542Z" fill="#263238"/>
<path d="M236.727 131.44L230.063 127.425H230.088C227.815 129.787 224.803 132.912 221.156 136.697V136.657L225.426 143.157L225.438 143.177L225.426 143.197C224.067 145.65 223.04 148.273 222.371 150.996V151.021H222.346L214.789 152.876L214.824 152.831C214.896 156.883 214.974 161.185 215.054 165.705L215.014 165.655L222.621 167.245H222.651V167.275C223.419 169.973 224.543 172.558 225.993 174.959L226.01 174.989L225.993 175.019L221.971 181.679V181.606L231.235 190.548H231.16L237.66 186.284L237.69 186.261L237.722 186.281C240.174 187.643 242.796 188.673 245.519 189.346H245.557V189.381C246.139 191.751 246.772 194.333 247.412 196.94L247.349 196.893L260.221 196.665L260.158 196.718C260.658 194.311 261.201 191.718 261.746 189.098V189.058H261.783C264.478 188.292 267.06 187.17 269.46 185.724L269.495 185.701L269.527 185.724L276.18 189.756H276.1L285.041 180.494V180.574L280.779 174.074L280.757 174.042L280.777 174.007C282.149 171.556 283.189 168.933 283.866 166.207V166.17H283.904L291.463 164.318L291.416 164.38C291.339 159.985 291.264 155.694 291.191 151.506L291.238 151.563L283.617 149.966H283.582V149.934C282.817 147.234 281.695 144.648 280.244 142.247L280.227 142.217L280.244 142.189L284.279 135.54V135.605L275.03 126.66H275.09L268.59 130.922L268.568 130.937L268.543 130.925C266.091 129.558 263.468 128.525 260.743 127.853H260.718V127.828C260.048 125.078 259.443 122.605 258.871 120.268L258.908 120.298L246.034 120.513L246.064 120.491C245.424 123.543 244.902 126.04 244.469 128.108C242.436 128.682 240.465 129.458 238.587 130.425C237.967 130.742 237.515 131.002 237.215 131.175C236.915 131.347 236.767 131.425 236.767 131.425L237.21 131.157C237.507 130.982 237.96 130.72 238.577 130.407C240.453 129.43 242.424 128.646 244.459 128.068L244.444 128.083C244.872 126.013 245.389 123.515 246.022 120.461V120.438H246.044L258.918 120.203H258.948V120.233C259.521 122.568 260.131 125.043 260.806 127.79L260.773 127.758C263.506 128.431 266.137 129.465 268.598 130.832H268.55C270.617 129.472 272.765 128.065 275.05 126.565L275.085 126.543L275.112 126.57L284.366 135.515L284.396 135.545L284.374 135.582L280.332 142.239V142.182C281.788 144.591 282.915 147.185 283.684 149.894L283.639 149.854L291.258 151.436H291.306V151.483C291.381 155.668 291.458 159.96 291.536 164.358V164.408H291.488L283.929 166.262L283.976 166.217C283.303 168.951 282.267 171.583 280.897 174.042V173.977C282.303 176.123 283.725 178.29 285.161 180.476L285.191 180.519L285.154 180.556L276.212 189.806L276.177 189.843L276.132 189.816L269.48 185.784H269.547C267.138 187.236 264.547 188.362 261.841 189.131L261.888 189.081C261.343 191.698 260.801 194.296 260.301 196.7V196.75H260.248L247.377 196.975H247.324L247.312 196.925C246.674 194.318 246.039 191.736 245.459 189.366L245.507 189.413C242.773 188.738 240.141 187.702 237.68 186.334H237.745L231.245 190.598L231.205 190.623L231.17 190.591L221.921 181.644L221.888 181.614L221.913 181.574L225.945 174.922V174.982C224.492 172.571 223.366 169.976 222.598 167.267L222.638 167.305L214.979 165.762H214.939V165.72C214.861 161.203 214.786 156.901 214.719 152.848V152.811H214.756L222.316 150.961L222.283 150.994C222.96 148.256 223.998 145.62 225.371 143.157V143.197L221.121 136.697L221.106 136.674L221.126 136.657L230.075 127.408H230.088H230.103L236.727 131.44Z" fill="#263238"/>
<path d="M283.62 106.219H264.039V135.049H265.931L267.654 138.422L269.854 135.049H283.62V106.219Z" fill="#EA9898"/>
<path d="M283.619 106.222C283.619 106.222 283.619 106.264 283.619 106.354C283.619 106.444 283.619 106.579 283.619 106.752C283.619 107.106 283.619 107.629 283.619 108.306C283.619 109.674 283.619 111.669 283.634 114.199C283.634 119.276 283.651 126.488 283.664 135.052V135.11H283.619H269.852L269.907 135.082L267.705 138.454L267.645 138.549L267.592 138.449C267.055 137.392 266.477 136.264 265.898 135.127L265.87 135.075L265.93 135.112H263.973V135.047C263.973 124.14 263.973 114.141 263.988 106.217V106.164H264.038L278.334 106.192L282.254 106.204H283.274C283.504 106.204 283.619 106.204 283.619 106.204H283.264H282.231L278.302 106.219L264.038 106.244L264.09 106.194C264.09 114.119 264.09 124.118 264.103 135.025L264.038 134.96H265.97L265.988 134.995L266.013 135.045L267.71 138.367H267.597C268.347 137.207 269.097 136.062 269.8 134.995L269.817 134.965H269.852H283.619L283.559 135.025C283.571 126.475 283.581 119.276 283.589 114.211C283.589 111.674 283.601 109.674 283.604 108.304C283.604 107.621 283.604 107.094 283.604 106.737C283.604 106.562 283.604 106.427 283.604 106.332C283.604 106.237 283.619 106.222 283.619 106.222Z" fill="#263238"/>
<path d="M269.519 111.227H269.454C269.16 111.227 268.922 111.465 268.922 111.759V129.785C268.922 130.079 269.16 130.318 269.454 130.318H269.519C269.813 130.318 270.052 130.079 270.052 129.785V111.759C270.052 111.465 269.813 111.227 269.519 111.227Z" fill="#3C3C3C"/>
<path d="M269.522 130.314C269.654 130.306 269.78 130.252 269.877 130.161C270.109 129.984 270.014 129.556 270.029 129.067C270.029 128.067 270.017 126.614 270.009 124.817C270.002 123.019 270.009 120.9 269.994 118.537C269.994 117.355 269.994 116.115 269.994 114.827V111.875C270 111.797 269.995 111.718 269.979 111.64C269.96 111.568 269.924 111.501 269.874 111.445C269.823 111.389 269.759 111.345 269.688 111.317C269.617 111.29 269.54 111.28 269.464 111.288C269.389 111.288 269.315 111.306 269.248 111.341C269.182 111.376 269.125 111.426 269.082 111.488C269.038 111.548 269.01 111.619 268.999 111.693C268.999 111.76 268.999 111.853 268.999 111.943V114.902C268.999 116.187 268.999 117.43 268.999 118.612C268.999 120.975 268.999 123.112 268.987 124.892C268.974 126.672 268.972 128.122 268.967 129.127C268.967 129.376 268.967 129.599 268.967 129.791C268.968 129.87 268.987 129.948 269.023 130.019C269.058 130.089 269.109 130.151 269.172 130.199C269.25 130.258 269.344 130.296 269.442 130.306H269.544C269.51 130.31 269.476 130.31 269.442 130.306C269.339 130.302 269.239 130.268 269.157 130.206C269.088 130.158 269.032 130.094 268.993 130.019C268.953 129.945 268.931 129.863 268.929 129.779C268.929 129.586 268.929 129.364 268.929 129.114C268.929 128.114 268.917 126.664 268.909 124.879C268.902 123.094 268.909 120.962 268.894 118.6C268.894 117.417 268.894 116.175 268.894 114.89C268.894 114.245 268.894 113.591 268.894 112.928V111.928C268.889 111.84 268.889 111.753 268.894 111.665C268.909 111.575 268.945 111.489 268.999 111.415C269.056 111.336 269.132 111.273 269.219 111.229C269.306 111.186 269.402 111.164 269.499 111.165C269.592 111.16 269.685 111.175 269.772 111.209C269.858 111.244 269.936 111.297 269.999 111.365C270.063 111.436 270.109 111.522 270.132 111.615C270.15 111.703 270.157 111.793 270.152 111.883V112.883C270.152 113.549 270.152 114.203 270.152 114.845C270.152 116.132 270.152 117.372 270.152 118.555C270.152 120.917 270.152 123.054 270.137 124.834C270.122 126.614 270.122 128.064 270.117 129.084V129.746C270.122 129.83 270.108 129.914 270.077 129.992C270.046 130.069 269.998 130.139 269.937 130.196C269.882 130.247 269.815 130.284 269.743 130.305C269.671 130.325 269.595 130.328 269.522 130.314Z" fill="#263238"/>
<path d="M273.863 111.227H273.798C273.504 111.227 273.266 111.465 273.266 111.759V129.785C273.266 130.079 273.504 130.318 273.798 130.318H273.863C274.157 130.318 274.396 130.079 274.396 129.785V111.759C274.396 111.465 274.157 111.227 273.863 111.227Z" fill="#3C3C3C"/>
<path d="M273.868 130.315C274 130.307 274.126 130.253 274.223 130.162C274.455 129.985 274.363 129.557 274.375 129.067C274.375 128.067 274.375 126.615 274.355 124.817C274.335 123.02 274.355 120.9 274.34 118.538C274.34 117.355 274.34 116.115 274.34 114.828V112.878C274.34 112.548 274.34 112.213 274.34 111.878C274.346 111.8 274.341 111.721 274.325 111.643C274.308 111.571 274.273 111.504 274.223 111.448C274.171 111.393 274.107 111.349 274.036 111.322C273.965 111.295 273.889 111.284 273.813 111.291C273.738 111.291 273.663 111.309 273.596 111.344C273.529 111.379 273.472 111.429 273.428 111.491C273.385 111.552 273.358 111.622 273.348 111.696C273.348 111.763 273.348 111.856 273.348 111.946V112.946C273.348 113.612 273.348 114.266 273.348 114.908C273.348 116.193 273.348 117.435 273.348 118.618C273.348 120.98 273.348 123.118 273.333 124.897C273.318 126.677 273.318 128.127 273.313 129.132V129.797C273.314 129.876 273.333 129.954 273.368 130.025C273.404 130.095 273.455 130.157 273.518 130.205C273.596 130.264 273.688 130.301 273.786 130.312H273.888C273.854 130.316 273.82 130.316 273.786 130.312C273.683 130.308 273.584 130.273 273.501 130.212C273.432 130.163 273.377 130.099 273.337 130.025C273.298 129.951 273.276 129.868 273.273 129.785C273.273 129.592 273.273 129.37 273.273 129.12C273.273 128.12 273.261 126.67 273.251 124.885C273.241 123.1 273.251 120.968 273.251 118.605C273.251 117.423 273.251 116.18 273.251 114.896V111.936C273.251 111.851 273.251 111.773 273.251 111.673C273.267 111.583 273.303 111.498 273.356 111.423C273.413 111.345 273.488 111.281 273.575 111.238C273.662 111.194 273.758 111.172 273.855 111.173C273.949 111.167 274.042 111.182 274.128 111.216C274.215 111.251 274.293 111.305 274.355 111.373C274.42 111.445 274.466 111.531 274.49 111.623C274.508 111.711 274.514 111.801 274.508 111.891V114.841C274.508 116.128 274.508 117.368 274.508 118.55C274.508 120.913 274.508 123.05 274.508 124.83C274.508 126.61 274.493 128.06 274.488 129.08C274.488 129.33 274.488 129.55 274.488 129.742C274.494 129.826 274.481 129.91 274.45 129.988C274.419 130.066 274.37 130.136 274.308 130.192C274.251 130.248 274.181 130.288 274.104 130.31C274.027 130.331 273.946 130.333 273.868 130.315Z" fill="#263238"/>
<path d="M278.207 111.227H278.142C277.848 111.227 277.609 111.465 277.609 111.759V129.785C277.609 130.079 277.848 130.318 278.142 130.318H278.207C278.501 130.318 278.739 130.079 278.739 129.785V111.759C278.739 111.465 278.501 111.227 278.207 111.227Z" fill="#3C3C3C"/>
<path d="M278.205 130.314C278.338 130.306 278.463 130.252 278.56 130.161C278.793 129.984 278.698 129.556 278.713 129.067C278.713 128.067 278.7 126.614 278.693 124.817C278.685 123.019 278.693 120.9 278.678 118.537C278.678 117.355 278.678 116.115 278.678 114.827V111.875C278.683 111.797 278.678 111.718 278.663 111.64C278.644 111.568 278.608 111.501 278.558 111.445C278.507 111.389 278.443 111.345 278.372 111.317C278.3 111.29 278.224 111.28 278.148 111.288C278.073 111.288 277.999 111.306 277.932 111.341C277.865 111.376 277.808 111.426 277.765 111.488C277.722 111.548 277.693 111.619 277.683 111.693C277.683 111.76 277.683 111.853 277.683 111.943V114.902C277.683 116.187 277.683 117.43 277.683 118.612C277.683 120.975 277.683 123.112 277.67 124.892C277.658 126.672 277.653 128.122 277.65 129.127C277.65 129.376 277.65 129.599 277.65 129.791C277.652 129.87 277.671 129.948 277.706 130.019C277.742 130.089 277.793 130.151 277.855 130.199C277.934 130.258 278.027 130.296 278.125 130.306H278.228C278.194 130.31 278.159 130.31 278.125 130.306C278.022 130.302 277.923 130.268 277.84 130.206C277.772 130.158 277.716 130.094 277.676 130.019C277.637 129.945 277.615 129.863 277.613 129.779C277.613 129.586 277.613 129.364 277.613 129.114C277.613 128.114 277.6 126.664 277.593 124.879C277.585 123.094 277.593 120.962 277.578 118.6C277.578 117.417 277.578 116.175 277.578 114.89C277.578 114.245 277.578 113.591 277.578 112.928V111.928C277.573 111.84 277.573 111.753 277.578 111.665C277.592 111.575 277.628 111.489 277.683 111.415C277.74 111.336 277.815 111.273 277.902 111.229C277.989 111.186 278.085 111.164 278.183 111.165C278.276 111.16 278.369 111.175 278.455 111.209C278.542 111.244 278.619 111.297 278.683 111.365C278.747 111.436 278.792 111.522 278.815 111.615C278.833 111.703 278.839 111.793 278.835 111.883V112.883C278.835 113.549 278.835 114.203 278.835 114.845C278.835 116.132 278.835 117.372 278.835 118.555C278.835 120.917 278.835 123.054 278.82 124.834C278.805 126.614 278.805 128.064 278.8 129.084C278.8 129.334 278.8 129.554 278.8 129.746C278.805 129.83 278.792 129.914 278.761 129.992C278.73 130.069 278.682 130.139 278.62 130.196C278.565 130.247 278.499 130.284 278.427 130.305C278.355 130.325 278.279 130.328 278.205 130.314Z" fill="#263238"/>
<path d="M269.474 117.977H269.147C268.574 117.977 268.109 118.441 268.109 119.014V119.134C268.109 119.707 268.574 120.171 269.147 120.171H269.474C270.047 120.171 270.512 119.707 270.512 119.134V119.014C270.512 118.441 270.047 117.977 269.474 117.977Z" fill="#FFC100"/>
<path d="M274.103 122.117H273.776C273.203 122.117 272.738 122.582 272.738 123.155V123.275C272.738 123.848 273.203 124.312 273.776 124.312H274.103C274.676 124.312 275.141 123.848 275.141 123.275V123.155C275.141 122.582 274.676 122.117 274.103 122.117Z" fill="#FFC100"/>
<path d="M278.291 114.312H277.963C277.39 114.312 276.926 114.777 276.926 115.35V115.47C276.926 116.043 277.39 116.507 277.963 116.507H278.291C278.864 116.507 279.328 116.043 279.328 115.47V115.35C279.328 114.777 278.864 114.312 278.291 114.312Z" fill="#FFC100"/>
</g>
<defs>
<clipPath id="clip0_1372_131750">
<rect width="337" height="200" fill="white"/>
</clipPath>
</defs>
</svg>
