<svg width="337" height="200" viewBox="0 0 337 200" fill="none" xmlns="http://www.w3.org/2000/svg">
<g clip-path="url(#clip0_1372_131488)">
<path d="M332 0H5C2.23858 0 0 2.23857 0 5V195C0 197.761 2.23857 200 5 200H332C334.761 200 337 197.761 337 195V5C337 2.23858 334.761 0 332 0Z" fill="#8082B1"/>
<rect width="325.937" height="172" transform="translate(5.09766 7)" fill="#8082B1"/>
<g clip-path="url(#clip1_1372_131488)">
<path d="M335.328 166.001C335.328 202.386 304.194 231.881 265.788 231.881C227.382 231.881 196.248 202.386 196.248 166.001C196.248 129.617 227.382 100.121 265.788 100.121C304.194 100.121 335.328 129.617 335.328 166.001Z" fill="#F2E6DC"/>
<path d="M324.517 109.484H217.414V181.434H324.517V109.484Z" fill="white"/>
<path d="M321.157 112.668H220.775V172.084H321.157V112.668Z" fill="#F7F1EB"/>
<path d="M259.692 182.961H262.863C262.863 185.214 264.792 187.04 267.17 187.04H274.763C277.141 187.04 279.07 185.214 279.07 182.961H282.241L285.411 198.925V200.26H256.521V198.925L259.692 182.961Z" fill="white"/>
<path d="M289.565 142.973H224.469V167.736H289.565V142.973Z" fill="#F2E6DC"/>
<path d="M317.463 142.973H293.332V167.736H317.463V142.973Z" fill="#F2E6DC"/>
<path d="M224.636 139.956H317.296V117.177H224.636V139.956ZM317.463 140.273H224.468C224.376 140.273 224.301 140.202 224.301 140.115V117.018C224.301 116.93 224.376 116.859 224.468 116.859H317.463C317.556 116.859 317.631 116.93 317.631 117.018V140.115C317.631 140.202 317.556 140.273 317.463 140.273Z" fill="#8B865C"/>
<path d="M312.723 121.817H291.961C291.868 121.817 291.793 121.746 291.793 121.659C291.793 121.571 291.868 121.5 291.961 121.5H312.723C312.815 121.5 312.891 121.571 312.891 121.659C312.891 121.746 312.815 121.817 312.723 121.817Z" fill="#8B865C"/>
<path d="M312.723 124.95H288.458C288.365 124.95 288.291 124.879 288.291 124.792C288.291 124.704 288.365 124.633 288.458 124.633H312.723C312.815 124.633 312.891 124.704 312.891 124.792C312.891 124.879 312.815 124.95 312.723 124.95Z" fill="#8B865C"/>
<path d="M312.723 128.087H288.458C288.365 128.087 288.291 128.016 288.291 127.928C288.291 127.841 288.365 127.77 288.458 127.77H312.723C312.815 127.77 312.891 127.841 312.891 127.928C312.891 128.016 312.815 128.087 312.723 128.087Z" fill="#8B865C"/>
<path d="M308.157 155.353C308.157 156.798 306.922 157.968 305.397 157.968C303.872 157.968 302.637 156.798 302.637 155.353C302.637 153.909 303.872 152.738 305.397 152.738C306.922 152.738 308.157 153.909 308.157 155.353Z" fill="white"/>
<path d="M332.825 219.671H292.967V148.434H301.948C302.712 150.748 304.862 152.31 307.284 152.31H318.507C320.928 152.31 323.076 150.751 323.841 148.438L323.843 148.434H332.825V219.671Z" fill="#E6D0BE"/>
<path d="M294.163 143.708C291.922 143.708 290.099 145.435 290.099 147.559V219.868C290.099 221.991 291.922 223.718 294.163 223.718H331.352C333.593 223.718 335.416 221.991 335.416 219.868V147.559C335.416 145.435 333.593 143.708 331.352 143.708H294.163ZM331.352 224.036H294.163C291.737 224.036 289.764 222.166 289.764 219.868V147.559C289.764 145.26 291.737 143.391 294.163 143.391H331.352C333.778 143.391 335.751 145.26 335.751 147.559V219.868C335.751 222.166 333.778 224.036 331.352 224.036Z" fill="#D3BBA3"/>
<path d="M294.886 198.759H330.629V172.571H294.886V198.759ZM330.796 199.077H294.719C294.626 199.077 294.551 199.006 294.551 198.918V172.413C294.551 172.325 294.626 172.254 294.719 172.254H330.796C330.889 172.254 330.963 172.325 330.963 172.413V198.918C330.963 199.006 330.889 199.077 330.796 199.077Z" fill="#8B865C"/>
<path d="M330.796 155.031H294.719V170.503H330.796V155.031Z" fill="#F2E6DC"/>
<path d="M327.164 176.337H310.9C310.808 176.337 310.732 176.266 310.732 176.178C310.732 176.09 310.808 176.02 310.9 176.02H327.164C327.257 176.02 327.332 176.09 327.332 176.178C327.332 176.266 327.257 176.337 327.164 176.337Z" fill="#8B865C"/>
<path d="M327.164 179.47H308.156C308.064 179.47 307.988 179.399 307.988 179.311C307.988 179.224 308.064 179.152 308.156 179.152H327.164C327.257 179.152 327.331 179.224 327.331 179.311C327.331 179.399 327.257 179.47 327.164 179.47Z" fill="#8B865C"/>
<path d="M327.164 182.603H308.156C308.064 182.603 307.988 182.531 307.988 182.444C307.988 182.356 308.064 182.285 308.156 182.285H327.164C327.257 182.285 327.331 182.356 327.331 182.444C327.331 182.531 327.257 182.603 327.164 182.603Z" fill="#8B865C"/>
<path d="M250.746 161.809C249.093 158.515 247.822 156.733 245.604 155.997C242.625 155.008 239.743 156.85 239.445 157.047C239.255 157.172 236.439 158.802 236.278 161.944C236.163 164.208 236.973 166.456 238.496 168.127C239.548 169.281 239.715 170.937 238.893 172.247L233.719 180.487C233.954 182.679 236.021 184.276 238.335 184.052L238.859 184.002C241.173 183.779 245.793 182.093 245.557 179.901L249.625 171.131C251.081 170.873 252.199 170.359 252.589 169.609C253.287 168.267 252.694 165.689 250.746 161.809Z" fill="#84524D"/>
<path d="M249.681 171.177C249.671 171.177 249.66 171.176 249.65 171.174L247.863 170.866C247.771 170.85 247.711 170.768 247.727 170.682C247.744 170.595 247.831 170.538 247.923 170.553L249.71 170.862C249.801 170.877 249.861 170.96 249.845 171.047C249.83 171.123 249.76 171.177 249.681 171.177Z" fill="#363E44"/>
<path d="M246.741 166.414C246.701 166.414 246.661 166.401 246.629 166.374C246.406 166.186 246.207 166.011 245.999 165.829C245.83 165.681 245.655 165.527 245.458 165.359C245.389 165.3 245.384 165.199 245.446 165.134C245.508 165.069 245.614 165.064 245.682 165.123C245.881 165.292 246.056 165.447 246.227 165.596C246.433 165.776 246.631 165.95 246.852 166.137C246.921 166.195 246.927 166.296 246.866 166.362C246.833 166.396 246.787 166.414 246.741 166.414Z" fill="#363E44"/>
<path d="M231.937 163.877C231.328 162.141 232.32 160.267 234.152 159.69C234.155 159.689 234.158 159.688 234.161 159.688C233.874 159.396 233.644 159.045 233.503 158.642C232.979 157.147 233.833 155.533 235.41 155.036C235.74 154.932 236.075 154.889 236.404 154.893C235.99 153.444 236.835 151.924 238.357 151.445C239.218 151.174 240.114 151.294 240.838 151.699C241.123 150.64 241.953 149.736 243.129 149.366C244.908 148.806 246.825 149.671 247.498 151.307C247.581 151.273 247.664 151.241 247.751 151.214C249.329 150.717 251.033 151.526 251.557 153.021C252.082 154.516 251.227 156.13 249.65 156.627C249.604 156.641 249.558 156.651 249.513 156.663C250.22 159.367 247.373 160.591 247.211 160.686C247.961 161.793 248.71 162.9 249.46 164.008C249.017 164.289 248.499 164.656 248.056 164.938C247.338 163.753 246.64 163.422 245.848 163.527C244.601 163.692 243.848 165.052 244.114 166.181C244.356 167.21 245.093 168.139 246.29 168.39C245.104 168.782 243.852 169.16 242.533 169.513C241.846 169.697 241.17 169.866 240.508 170.022C240.03 169.899 236.944 169.047 235.393 166.142C233.876 166.199 232.44 165.31 231.937 163.877Z" fill="#363E44"/>
<path d="M219.331 164.258C219.331 164.258 226.069 167.995 231.537 170.432C236.935 172.838 260.44 185.632 260.44 185.632L253.915 206.575L244.228 228.653C225.294 222.833 209.487 209.667 202.268 193.252L209.662 180.686L219.331 164.258Z" fill="#EFBC73"/>
<path d="M261.494 216.959L272.668 175.094L302.611 182.266L291.437 224.131L261.494 216.959Z" fill="#363E44"/>
<path d="M281.198 202.816C279.331 202.369 278.2 200.573 278.672 198.804C279.144 197.035 281.041 195.963 282.908 196.41C284.775 196.857 285.906 198.654 285.434 200.423C284.962 202.193 283.065 203.264 281.198 202.816Z" fill="#40484C"/>
<path d="M301.699 206.284C301.483 205.76 300.929 205.39 300.282 205.313C300.34 205.265 301.128 204.595 300.983 203.601C300.873 202.844 300.268 202.212 299.453 202.009C299.822 201.352 299.858 200.617 299.506 200.092C298.445 198.516 292.767 200.712 290.074 201.672C288.886 202.095 278.779 205.855 271.762 208.471L271.038 205.294C264.05 207.588 255.93 209.653 255.93 209.653C257.376 217.739 260.652 221.626 260.652 221.626C263.8 225.074 267.941 224.896 270.019 224.325C275.375 222.85 280.123 221.116 290.295 216.32C294.625 214.277 298.123 212.368 300.514 211.513C301.262 211.052 301.657 210.265 301.517 209.522C301.391 208.853 300.875 208.464 300.726 208.359C301.612 207.938 301.996 207.007 301.699 206.284Z" fill="#84524D"/>
<path d="M253.183 212.938L274.179 206.434C274.179 206.434 273.191 191.646 256.739 183.541C246.278 178.388 248.478 207.092 248.478 207.092L253.183 212.938Z" fill="#EFBC73"/>
<path d="M222.364 152.638C222.364 152.638 231.936 145.287 238.438 143.531C251.435 140.019 254.034 135.301 252.866 134.307C251.598 133.229 249.725 135.1 248.317 135.894C248.392 135.635 248.452 134.84 247.845 134.286C246.947 133.466 246.05 133.866 245.952 133.871C245.986 133.786 246.315 132.858 245.805 132.22C245.231 131.502 244.441 131.321 243.74 131.45C243.815 131.236 244.005 130.414 243.496 129.813C242.974 129.196 242.061 129.072 241.268 129.26C237.485 130.158 234.617 130.625 232.605 131.46C228.645 133.103 215.143 138.619 210.202 142.464C206.913 145.697 210.388 151.418 215.597 153.303C218.874 154.489 222.364 152.638 222.364 152.638Z" fill="#84524D"/>
<path d="M241.156 131.879C241.107 131.879 241.058 131.859 241.025 131.821L240.174 130.825C240.116 130.757 240.127 130.657 240.199 130.602C240.271 130.547 240.376 130.557 240.434 130.625L241.286 131.621C241.344 131.689 241.333 131.789 241.261 131.844C241.23 131.868 241.193 131.879 241.156 131.879Z" fill="#363E44"/>
<path d="M243.312 134.416C243.265 134.416 243.218 134.398 243.185 134.361L242.187 133.262C242.127 133.196 242.135 133.096 242.205 133.038C242.275 132.981 242.381 132.989 242.441 133.055L243.439 134.154C243.499 134.221 243.491 134.321 243.421 134.378C243.389 134.404 243.351 134.416 243.312 134.416Z" fill="#363E44"/>
<path d="M245.496 136.786C245.448 136.786 245.399 136.766 245.366 136.727C245.208 136.542 245.064 136.376 244.92 136.209C244.775 136.042 244.63 135.875 244.471 135.688C244.413 135.62 244.424 135.52 244.496 135.465C244.568 135.41 244.673 135.42 244.731 135.489C244.89 135.674 245.035 135.841 245.179 136.008C245.323 136.175 245.468 136.342 245.627 136.527C245.685 136.596 245.674 136.696 245.602 136.751C245.571 136.774 245.533 136.786 245.496 136.786Z" fill="#363E44"/>
<path d="M247.057 138.942C247.004 138.942 246.952 138.919 246.919 138.875L246.15 137.836C246.096 137.764 246.115 137.665 246.191 137.615C246.266 137.564 246.371 137.582 246.424 137.653L247.194 138.693C247.247 138.764 247.228 138.863 247.152 138.914C247.123 138.933 247.089 138.942 247.057 138.942Z" fill="#363E44"/>
<path d="M223.603 149.59V167.124L206.519 175.325C206.196 164.923 206.317 153.432 209.021 144.559L223.603 149.59Z" fill="#84524D"/>
<path d="M206.897 185.657C204.994 179.356 204.994 167.122 204.994 167.122L224.492 160.57L226.499 168.025L206.897 185.657Z" fill="#EFBC73"/>
<path d="M206.898 185.816C206.863 185.816 206.828 185.806 206.798 185.785C206.724 185.734 206.708 185.634 206.763 185.564L212.79 177.85C212.845 177.779 212.95 177.764 213.024 177.817C213.099 177.868 213.115 177.968 213.06 178.038L207.033 185.752C207 185.794 206.949 185.816 206.898 185.816Z" fill="#363E44"/>
</g>
</g>
<defs>
<clipPath id="clip0_1372_131488">
<rect width="337" height="200" fill="white"/>
</clipPath>
<clipPath id="clip1_1372_131488">
<rect width="190" height="180" fill="white" transform="translate(171 76)"/>
</clipPath>
</defs>
</svg>
