<svg width="15" height="18" viewBox="0 0 15 18" fill="none" xmlns="http://www.w3.org/2000/svg">
<g id="#3" clip-path="url(#clip0_208_3727)">
<g id="#3_2">
<path id="Rectangle 57" d="M3.08115 10.282C3.22079 10.0437 3.52857 9.96125 3.76861 10.0978L7.22948 12.066C7.46952 12.2025 7.55091 12.5063 7.41128 12.7445L4.7946 17.2089C4.59442 17.5505 4.09272 17.5399 3.91196 17.1904L3.12486 15.6683C3.03525 15.495 2.85103 15.3902 2.65386 15.4004L0.922105 15.49C0.524414 15.5106 0.264291 15.0879 0.464471 14.7463L3.08115 10.282Z" fill="#9F1818"/>
<path id="Rectangle 58" d="M11.9198 10.282C11.7802 10.0437 11.4724 9.96125 11.2324 10.0978L7.77149 12.066C7.53146 12.2025 7.45006 12.5063 7.5897 12.7445L10.2064 17.2089C10.4066 17.5505 10.9083 17.5399 11.089 17.1904L11.8761 15.6683C11.9657 15.495 12.1499 15.3902 12.3471 15.4004L14.0789 15.49C14.4766 15.5106 14.7367 15.0879 14.5365 14.7463L11.9198 10.282Z" fill="#9F1818"/>
<path id="Ellipse 9" d="M13.9173 6.56689C13.9173 10.0521 11.048 12.8838 7.50065 12.8838C3.95326 12.8838 1.08398 10.0521 1.08398 6.56689C1.08398 3.08171 3.95326 0.25 7.50065 0.25C11.048 0.25 13.9173 3.08171 13.9173 6.56689Z" fill="#654015" stroke="#4F290E" stroke-width="0.5"/>
<g id="Ellipse 10" filter="url(#filter0_d_208_3727)">
<ellipse cx="7.5" cy="6.56677" rx="5" ry="4.92516" fill="#654015"/>
</g>
<path id="3" d="M7.54563 9.72141C7.13654 9.72141 6.7729 9.65134 6.45472 9.51119C6.13844 9.37103 5.88844 9.17596 5.70472 8.92596C5.52101 8.67596 5.42347 8.38713 5.41211 8.05948H6.48029C6.48976 8.21668 6.54184 8.35399 6.63654 8.47141C6.73124 8.58694 6.85719 8.67691 7.01438 8.7413C7.17158 8.80569 7.34772 8.83789 7.54279 8.83789C7.75112 8.83789 7.93578 8.80191 8.09677 8.72994C8.25775 8.65607 8.3837 8.5538 8.47461 8.42312C8.56552 8.29244 8.61003 8.14187 8.60813 7.97141C8.61003 7.79528 8.56457 7.63997 8.47177 7.5055C8.37897 7.37103 8.2445 7.26592 8.06836 7.19016C7.89412 7.11441 7.68389 7.07653 7.43768 7.07653H6.92347V6.26403H7.43768C7.64033 6.26403 7.81741 6.22899 7.96893 6.15891C8.12234 6.08884 8.2426 5.99035 8.32972 5.86346C8.41684 5.73467 8.45946 5.586 8.45756 5.41744C8.45946 5.25266 8.42253 5.10967 8.34677 4.98846C8.2729 4.86535 8.16779 4.76971 8.03143 4.70153C7.89696 4.63335 7.73881 4.59925 7.557 4.59925C7.37897 4.59925 7.21419 4.63145 7.06268 4.69585C6.91116 4.76024 6.789 4.8521 6.6962 4.97141C6.6034 5.08884 6.55415 5.22899 6.54847 5.39187H5.53427C5.54184 5.06611 5.63559 4.78013 5.81552 4.53391C5.99734 4.28581 6.23976 4.09263 6.54279 3.95437C6.84582 3.81422 7.18578 3.74414 7.56268 3.74414C7.95094 3.74414 8.28806 3.81706 8.57404 3.96289C8.86192 4.10683 9.08446 4.30096 9.24165 4.54528C9.39885 4.7896 9.47745 5.05948 9.47745 5.35494C9.47934 5.68259 9.38275 5.95721 9.18768 6.1788C8.9945 6.40039 8.74071 6.54528 8.42631 6.61346V6.65891C8.8354 6.71573 9.14885 6.86725 9.36665 7.11346C9.58635 7.35778 9.69525 7.66175 9.69336 8.02539C9.69336 8.35115 9.60056 8.64281 9.41495 8.90039C9.23124 9.15607 8.97745 9.35683 8.65359 9.50266C8.33162 9.6485 7.9623 9.72141 7.54563 9.72141Z" fill="#F1F1F1"/>
</g>
</g>
<defs>
<filter id="filter0_d_208_3727" x="-1.5" y="1.6416" width="18" height="17.8506" filterUnits="userSpaceOnUse" color-interpolation-filters="sRGB">
<feFlood flood-opacity="0" result="BackgroundImageFix"/>
<feColorMatrix in="SourceAlpha" type="matrix" values="0 0 0 0 0 0 0 0 0 0 0 0 0 0 0 0 0 0 127 0" result="hardAlpha"/>
<feOffset dy="4"/>
<feGaussianBlur stdDeviation="2"/>
<feComposite in2="hardAlpha" operator="out"/>
<feColorMatrix type="matrix" values="0 0 0 0 0 0 0 0 0 0 0 0 0 0 0 0 0 0 0.25 0"/>
<feBlend mode="normal" in2="BackgroundImageFix" result="effect1_dropShadow_208_3727"/>
<feBlend mode="normal" in="SourceGraphic" in2="effect1_dropShadow_208_3727" result="shape"/>
</filter>
<clipPath id="clip0_208_3727">
<rect width="15" height="18" fill="white"/>
</clipPath>
</defs>
</svg>
