<svg width="15" height="18" viewBox="0 0 15 18" fill="none" xmlns="http://www.w3.org/2000/svg">
<g id="#2" clip-path="url(#clip0_208_3725)">
<g id="#2_2">
<path id="Rectangle 57" d="M3.15979 10.284C3.29753 10.0446 3.60289 9.96279 3.84184 10.1012L7.22792 12.0626C7.46687 12.201 7.54892 12.5072 7.41119 12.7465L4.84764 17.2013C4.64971 17.5452 4.14986 17.5315 3.96999 17.1772L3.20682 15.6741C3.11716 15.4975 2.93217 15.3904 2.73491 15.4007L1.05582 15.4892C0.660059 15.5101 0.398316 15.0826 0.59624 14.7387L3.15979 10.284Z" fill="#9F1818"/>
<path id="Rectangle 58" d="M11.8402 10.284C11.7025 10.0446 11.3971 9.96279 11.1582 10.1012L7.77208 12.0626C7.53313 12.201 7.45108 12.5072 7.58881 12.7465L10.1524 17.2013C10.3503 17.5452 10.8501 17.5315 11.03 17.1772L11.7932 15.6741C11.8828 15.4975 12.0678 15.3904 12.2651 15.4007L13.9442 15.4892C14.3399 15.5101 14.6017 15.0826 14.4038 14.7387L11.8402 10.284Z" fill="#9F1818"/>
<path id="Ellipse 9" d="M13.796 6.56689C13.796 10.0564 10.9766 12.8838 7.50053 12.8838C4.02442 12.8838 1.20508 10.0564 1.20508 6.56689C1.20508 3.07739 4.02442 0.25 7.50053 0.25C10.9766 0.25 13.796 3.07739 13.796 6.56689Z" fill="#919191" stroke="#373737" stroke-width="0.5"/>
<g id="Ellipse 10" filter="url(#filter0_d_208_3725)">
<ellipse cx="7.49991" cy="6.56677" rx="4.90909" ry="4.92516" fill="#919191"/>
</g>
<path id="2" d="M5.57804 9.64187V8.8805L7.59792 6.90039C7.7911 6.70532 7.95209 6.53202 8.08088 6.3805C8.20967 6.22899 8.30626 6.08221 8.37065 5.94016C8.43504 5.79812 8.46724 5.6466 8.46724 5.48562C8.46724 5.30191 8.42557 5.14471 8.34224 5.01403C8.25891 4.88145 8.14432 4.77918 7.99849 4.70721C7.85266 4.63524 7.68694 4.59925 7.50133 4.59925C7.31004 4.59925 7.14243 4.63903 6.99849 4.71857C6.85455 4.79622 6.74281 4.90702 6.66326 5.05096C6.58561 5.1949 6.54679 5.3663 6.54679 5.56516H5.54395C5.54395 5.19585 5.62823 4.87482 5.79679 4.6021C5.96535 4.32937 6.19735 4.11819 6.49281 3.96857C6.79016 3.81895 7.13107 3.74414 7.51554 3.74414C7.90569 3.74414 8.24849 3.81706 8.54395 3.96289C8.8394 4.10872 9.06857 4.30853 9.23145 4.56232C9.39622 4.81611 9.4786 5.10588 9.4786 5.43164C9.4786 5.64944 9.43694 5.86346 9.3536 6.07369C9.27027 6.28391 9.12349 6.51687 8.91326 6.77255C8.70493 7.02823 8.41232 7.33789 8.03542 7.70153L7.03258 8.72141V8.76119H9.56667V9.64187H5.57804Z" fill="#F1F1F1"/>
</g>
</g>
<defs>
<filter id="filter0_d_208_3725" x="-1.40918" y="1.6416" width="17.8184" height="17.8506" filterUnits="userSpaceOnUse" color-interpolation-filters="sRGB">
<feFlood flood-opacity="0" result="BackgroundImageFix"/>
<feColorMatrix in="SourceAlpha" type="matrix" values="0 0 0 0 0 0 0 0 0 0 0 0 0 0 0 0 0 0 127 0" result="hardAlpha"/>
<feOffset dy="4"/>
<feGaussianBlur stdDeviation="2"/>
<feComposite in2="hardAlpha" operator="out"/>
<feColorMatrix type="matrix" values="0 0 0 0 0 0 0 0 0 0 0 0 0 0 0 0 0 0 0.25 0"/>
<feBlend mode="normal" in2="BackgroundImageFix" result="effect1_dropShadow_208_3725"/>
<feBlend mode="normal" in="SourceGraphic" in2="effect1_dropShadow_208_3725" result="shape"/>
</filter>
<clipPath id="clip0_208_3725">
<rect width="14.7273" height="18" fill="white" transform="translate(0.136719)"/>
</clipPath>
</defs>
</svg>
