<svg width="18" height="18" viewBox="0 0 18 18" fill="none" xmlns="http://www.w3.org/2000/svg">
<g id="Google" clip-path="url(#clip0_43_31035)">
<path id="Vector" d="M17.4907 9.16863C17.4907 8.43117 17.4328 7.89303 17.3077 7.33496H9.16895V10.6634H13.9462C13.8499 11.4906 13.3298 12.7363 12.174 13.5734L12.1578 13.6848L14.7311 15.7475L14.9094 15.7659C16.5467 14.2013 17.4907 11.8992 17.4907 9.16863Z" fill="#4285F4"/>
<path id="Vector_2" d="M9.16961 17.9384C11.5101 17.9384 13.4749 17.1411 14.91 15.7659L12.1746 13.5734C11.4427 14.1015 10.4602 14.4703 9.16961 14.4703C6.87731 14.4703 4.93174 12.9057 4.23819 10.7432L4.13654 10.7521L1.46077 12.8947L1.42578 12.9954C2.85124 15.9252 5.77926 17.9384 9.16961 17.9384Z" fill="#34A853"/>
<path id="Vector_3" d="M4.238 10.7431C4.055 10.185 3.9491 9.58704 3.9491 8.9692C3.9491 8.35129 4.055 7.75338 4.22837 7.19531L4.22353 7.07645L1.51423 4.89941L1.42559 4.94304C0.838086 6.15886 0.500977 7.52419 0.500977 8.9692C0.500977 10.4142 0.838086 11.7795 1.42559 12.9953L4.238 10.7431Z" fill="#FBBC05"/>
<path id="Vector_4" d="M9.16961 3.46802C10.7973 3.46802 11.8953 4.19551 12.5214 4.80346L14.9678 2.33196C13.4653 0.886946 11.5101 0 9.16961 0C5.77926 0 2.85124 2.01305 1.42578 4.94292L4.22857 7.19519C4.93174 5.03265 6.87731 3.46802 9.16961 3.46802Z" fill="#EB4335"/>
</g>
<defs>
<clipPath id="clip0_43_31035">
<rect width="17" height="18" fill="white" transform="translate(0.5)"/>
</clipPath>
</defs>
</svg>
