<svg width="13" height="13" viewBox="0 0 13 13" fill="none" xmlns="http://www.w3.org/2000/svg">
<g id="Question" clip-path="url(#clip0_157_689)">
<g id="Question Icon">
<path id="Vector" d="M6.80503 3.52766C6.40441 3.45482 5.99095 3.52695 5.63866 3.73113C5.28637 3.93531 5.01825 4.25821 4.8823 4.64203C4.84687 4.74846 4.85456 4.86453 4.90374 4.96535C4.95292 5.06616 5.03966 5.14368 5.14535 5.18126C5.25103 5.21884 5.36724 5.2135 5.46903 5.16638C5.57082 5.11925 5.65008 5.0341 5.68979 4.9292C5.73734 4.79451 5.81779 4.67385 5.92383 4.57816C6.02987 4.48247 6.15814 4.41479 6.29698 4.38128C6.43582 4.34776 6.58084 4.34947 6.71886 4.38625C6.85687 4.42303 6.98351 4.49371 7.08726 4.59188C7.19101 4.69004 7.26859 4.81258 7.31295 4.94835C7.3573 5.08411 7.36703 5.22882 7.34125 5.3693C7.31546 5.50978 7.25499 5.6416 7.16531 5.75277C7.07563 5.86394 6.95959 5.95094 6.82775 6.00586C6.59965 6.1041 6.40588 6.26789 6.27104 6.47645C6.1362 6.68501 6.06636 6.92892 6.0704 7.17724V7.35769C6.0704 7.47136 6.11555 7.58038 6.19593 7.66076C6.27631 7.74114 6.38533 7.78629 6.499 7.78629C6.61268 7.78629 6.7217 7.74114 6.80208 7.66076C6.88245 7.58038 6.92761 7.47136 6.92761 7.35769V7.17767C6.92469 7.09919 6.94464 7.02155 6.98505 6.9542C7.02546 6.88685 7.08457 6.83271 7.1552 6.79835C7.51781 6.64989 7.81823 6.38111 8.00596 6.03719C8.19368 5.69327 8.25726 5.2952 8.186 4.90991C8.12277 4.56681 7.9569 4.25098 7.71033 4.00417C7.46375 3.75736 7.14807 3.5912 6.80503 3.52766ZM6.499 8.2149C6.38533 8.2149 6.27631 8.26006 6.19593 8.34043C6.11555 8.42081 6.0704 8.52983 6.0704 8.64351V9.07211C6.0704 9.18579 6.11555 9.2948 6.19593 9.37518C6.27631 9.45556 6.38533 9.50072 6.499 9.50072C6.61268 9.50072 6.7217 9.45556 6.80208 9.37518C6.88245 9.2948 6.92761 9.18579 6.92761 9.07211V8.64351C6.92761 8.52983 6.88245 8.42081 6.80208 8.34043C6.7217 8.26006 6.61268 8.2149 6.499 8.2149Z" fill="#F1F1F1"/>
<path id="Vector 4" d="M11.4997 9L11.4999 11.5001C10.0001 11.5002 8.99988 11.3685 8.49966 11.5C-1.00011 13.5 -1.00058 0.999898 6.49966 1C12.5 1 12.333 6.5 11.4997 9Z" stroke="#F1F1F1"/>
</g>
</g>
<defs>
<clipPath id="clip0_157_689">
<rect width="12" height="12" fill="white" transform="translate(0.5 0.5)"/>
</clipPath>
</defs>
</svg>
