<svg width="16" height="16" viewBox="0 0 16 16" fill="none" xmlns="http://www.w3.org/2000/svg">
<g id="Question" clip-path="url(#clip0_31_10744)">
<path id="Exclude" fill-rule="evenodd" clip-rule="evenodd" d="M4.58945 0.763655C5.65566 0.261092 6.81974 0.000324171 7.99846 6.84829e-08C9.30603 -0.000143583 10.4155 0.225682 11.7488 0.932974C13.082 1.64026 13.8912 2.4323 14.6243 3.51503C15.3574 4.59776 15.8139 5.84366 15.954 7.14371C16.094 8.44375 15.9133 9.75831 15.4276 10.9723V14.8584C15.4276 15.0099 15.3674 15.1553 15.2603 15.2625C15.1531 15.3696 15.0077 15.4298 14.8562 15.4298H10.9701C9.87561 15.8673 8.69794 16.0576 7.52135 15.9869C6.34475 15.9163 5.19829 15.5866 4.16395 15.0214C3.12961 14.4561 2.23294 13.6693 1.53807 12.7172C0.8432 11.7651 0.367291 10.6712 0.144376 9.51372C-0.0785395 8.35628 -0.0429536 7.16387 0.248589 6.02178C0.540131 4.87969 1.08043 3.81613 1.83084 2.90714C2.58125 1.99816 3.52325 1.26622 4.58945 0.763655ZM6.85171 4.30826C7.32143 4.03602 7.87271 3.93985 8.40687 4.03697C8.86426 4.1217 9.28516 4.34324 9.61393 4.67232C9.9427 5.0014 10.1639 5.42251 10.2482 5.87997C10.3432 6.39369 10.2584 6.92445 10.0081 7.38301C9.7578 7.84157 9.35724 8.19995 8.87376 8.3979C8.7796 8.4437 8.70077 8.51589 8.6469 8.60569C8.59302 8.69549 8.56641 8.79901 8.57031 8.90365V9.14367C8.57031 9.29524 8.5101 9.44059 8.40293 9.54777C8.29576 9.65494 8.1504 9.71515 7.99884 9.71515C7.84727 9.71515 7.70191 9.65494 7.59474 9.54777C7.48757 9.44059 7.42736 9.29524 7.42736 9.14367V8.90308C7.42198 8.57199 7.5151 8.24677 7.69489 7.96869C7.87467 7.69061 8.13303 7.47222 8.43716 7.34124C8.61296 7.26801 8.76767 7.15201 8.88724 7.00378C9.00681 6.85556 9.08745 6.6798 9.12183 6.49249C9.15621 6.30518 9.14323 6.11224 9.08409 5.93122C9.02495 5.75019 8.92151 5.58682 8.78317 5.45593C8.64484 5.32504 8.47599 5.2308 8.29197 5.18176C8.10795 5.13272 7.91459 5.13044 7.72947 5.17513C7.54434 5.21981 7.37332 5.31005 7.23193 5.43763C7.09055 5.56522 6.98329 5.72611 6.91989 5.90569C6.86693 6.04556 6.76125 6.15909 6.62553 6.22193C6.48981 6.28476 6.33487 6.29188 6.19396 6.24177C6.05304 6.19166 5.93739 6.0883 5.87182 5.95389C5.80625 5.81947 5.79598 5.6647 5.84323 5.5228C6.02449 5.01104 6.38198 4.5805 6.85171 4.30826ZM7.59474 10.454C7.70191 10.3468 7.84727 10.2866 7.99884 10.2866C8.1504 10.2866 8.29576 10.3468 8.40293 10.454C8.5101 10.5612 8.57031 10.7065 8.57031 10.8581V11.4296C8.57031 11.5811 8.5101 11.7265 8.40293 11.8337C8.29576 11.9408 8.1504 12.001 7.99884 12.001C7.84727 12.001 7.70191 11.9408 7.59474 11.8337C7.48757 11.7265 7.42736 11.5811 7.42736 11.4296V10.8581C7.42736 10.7065 7.48757 10.5612 7.59474 10.454Z" fill="#F1F1F1"/>
</g>
<defs>
<clipPath id="clip0_31_10744">
<rect width="16" height="16" fill="white"/>
</clipPath>
</defs>
</svg>
