<svg viewBox="0 0 13 13" xmlns="http://www.w3.org/2000/svg"><path d="M4 2C4 1.17969 4.65625 0.5 5.5 0.5H9.25V3.5C9.25 3.92188 9.57812 4.25 10 4.25H13V11C13 11.8438 12.3203 12.5 11.5 12.5H6.17969C6.22656 12.3828 6.25 12.2656 6.25 12.125V10.25C6.27344 10.25 6.29688 10.2266 6.32031 10.2266C6.48438 10.1562 6.67188 10.0391 6.8125 9.85156C6.95312 9.6875 7.04688 9.45312 7.07031 9.21875C7.09375 9.14844 7.09375 9.10156 7.09375 9.05469C7.14062 9.03125 7.16406 9.00781 7.23438 8.96094C7.70312 8.58594 7.86719 7.97656 7.65625 7.41406C7.60938 7.34375 7.58594 7.29688 7.58594 7.27344C7.58594 7.22656 7.60938 7.17969 7.65625 7.10938C7.86719 6.57031 7.70312 5.9375 7.23438 5.5625C7.16406 5.51562 7.14062 5.49219 7.09375 5.46875C7.09375 5.42188 7.09375 5.375 7.07031 5.30469C7 4.71875 6.53125 4.25 5.94531 4.17969C5.875 4.15625 5.82812 4.15625 5.78125 4.15625C5.75781 4.13281 5.73438 4.08594 5.6875 4.01562C5.3125 3.54688 4.70312 3.38281 4.14062 3.61719C4.09375 3.64062 4.02344 3.66406 4 3.6875V2ZM13 3.5H10V0.5L13 3.5ZM3.55469 4.29688L3.92969 4.4375C3.95312 4.46094 4.02344 4.46094 4.07031 4.4375L4.42188 4.29688C4.65625 4.20312 4.9375 4.27344 5.10156 4.46094L5.33594 4.78906C5.35938 4.83594 5.40625 4.85938 5.45312 4.85938L5.85156 4.90625C6.10938 4.95312 6.29688 5.14062 6.34375 5.39844L6.39062 5.79688C6.39062 5.84375 6.41406 5.89062 6.46094 5.91406L6.76562 6.14844C6.97656 6.3125 7.04688 6.57031 6.95312 6.80469L6.8125 7.17969C6.78906 7.22656 6.78906 7.29688 6.8125 7.34375L6.95312 7.69531C7.04688 7.92969 6.97656 8.21094 6.78906 8.35156L6.46094 8.60938C6.41406 8.63281 6.39062 8.67969 6.39062 8.72656L6.34375 9.125C6.29688 9.38281 6.10938 9.57031 5.85156 9.61719L5.5 9.66406V12.125C5.5 12.2656 5.40625 12.4062 5.28906 12.4766C5.17188 12.5234 5.03125 12.5234 4.91406 12.4531L4 11.8438L3.0625 12.4531C2.96875 12.5234 2.80469 12.5234 2.6875 12.4766C2.57031 12.4062 2.5 12.2656 2.5 12.125V9.66406L2.125 9.61719C1.86719 9.57031 1.67969 9.38281 1.65625 9.125L1.58594 8.72656C1.58594 8.67969 1.5625 8.63281 1.51562 8.60938L1.21094 8.35156C1 8.21094 0.929688 7.92969 1.02344 7.69531L1.1875 7.32031C1.1875 7.29688 1.1875 7.22656 1.1875 7.17969L1.02344 6.82812C0.929688 6.59375 1 6.3125 1.21094 6.17188L1.51562 5.91406C1.5625 5.89062 1.58594 5.84375 1.58594 5.79688L1.63281 5.39844C1.67969 5.14062 1.86719 4.95312 2.125 4.90625L2.52344 4.85938C2.57031 4.85938 2.61719 4.83594 2.64062 4.78906L2.89844 4.48438C3.03906 4.27344 3.32031 4.20312 3.55469 4.29688ZM5.5 7.25C5.5 6.73438 5.19531 6.24219 4.75 5.96094C4.28125 5.70312 3.69531 5.70312 3.25 5.96094C2.78125 6.24219 2.5 6.73438 2.5 7.25C2.5 7.78906 2.78125 8.28125 3.25 8.5625C3.69531 8.82031 4.28125 8.82031 4.75 8.5625C5.19531 8.28125 5.5 7.78906 5.5 7.25Z" fill="#fff"/></svg>