<svg width="200" height="200" viewBox="0 0 200 200" fill="none" xmlns="http://www.w3.org/2000/svg">
<path d="M3.3154 74.464C-1.64105 93.2302 -1.02906 113.033 5.07673 131.457C11.1825 149.882 22.5182 166.131 37.701 178.223C52.8838 190.315 71.2575 197.727 90.5809 199.555C109.904 201.384 129.342 197.549 146.523 188.519L151 147.5C129.5 166.263 106.542 166.971 93.778 165.763C81.0136 164.556 68.8765 159.659 58.8472 151.672C48.8179 143.684 41.3299 132.95 37.2966 120.78C33.2633 108.609 32.859 95.528 36.1331 83.1317L3.3154 74.464Z" fill="url(#paint0_linear_3510_11060)"/>
<path d="M34.9074 159.436L43.8232 151.959L45.4042 153.844L41.7255 156.929L44.9349 160.756L48.6135 157.67L50.1908 159.551L41.275 167.029L39.6977 165.148L43.3807 162.059L40.1713 158.232L36.4883 161.321L34.9074 159.436Z" fill="white"/>
<path d="M55.4267 164.594L48.0805 173.618L46.1725 172.065L53.5187 163.041L55.4267 164.594Z" fill="white"/>
<path d="M53.3899 178.09L59.0035 167.897L63.0248 170.112C63.7946 170.536 64.3757 171.035 64.7682 171.61C65.1658 172.184 65.3694 172.8 65.3788 173.458C65.3933 174.115 65.2152 174.78 64.8442 175.453C64.4714 176.13 64.0048 176.632 63.4442 176.959C62.8854 177.283 62.2577 177.421 61.5611 177.375C60.8677 177.33 60.1296 177.093 59.3465 176.661L56.654 175.178L57.6078 173.446L59.952 174.737C60.3634 174.964 60.7362 175.096 61.0704 175.133C61.4046 175.17 61.7002 175.112 61.9572 174.96C62.2175 174.809 62.4399 174.566 62.6245 174.231C62.8109 173.892 62.9 173.57 62.8919 173.262C62.8871 172.957 62.7799 172.669 62.5703 172.398C62.3658 172.125 62.0562 171.875 61.6414 171.646L60.1882 170.846L55.545 179.277L53.3899 178.09ZM61.449 176.483L61.4277 182.517L59.0487 181.206L59.1248 175.203L61.449 176.483Z" fill="white"/>
<path d="M73.0693 174.873L69.3764 185.908L67.0433 185.127L70.7363 174.092L73.0693 174.873Z" fill="white"/>
<path d="M87.1282 178.06L85.5948 189.595L83.4883 189.315L79.4351 181.387L79.3506 181.376L78.3855 188.636L75.9467 188.312L77.4801 176.777L79.6204 177.062L83.6349 184.978L83.7363 184.991L84.7007 177.737L87.1282 178.06Z" fill="white"/>
<path d="M99.6714 181.668C99.5611 181.402 99.4225 181.172 99.2556 180.978C99.0882 180.779 98.8927 180.619 98.669 180.495C98.4486 180.368 98.2023 180.28 97.9298 180.23C97.6611 180.181 97.3687 180.174 97.0526 180.21C96.4617 180.277 95.959 180.483 95.5444 180.827C95.1337 181.171 94.8359 181.638 94.6512 182.227C94.4661 182.812 94.4193 183.507 94.5108 184.313C94.6022 185.118 94.8024 185.789 95.1111 186.326C95.4199 186.863 95.8151 187.254 96.2968 187.501C96.778 187.744 97.3234 187.83 97.9332 187.761C98.4864 187.698 98.9476 187.547 99.3168 187.307C99.6894 187.062 99.9586 186.748 100.125 186.363C100.294 185.978 100.351 185.538 100.295 185.045L100.8 185.062L97.8195 185.401L97.6104 183.56L102.449 183.011L102.614 184.467C102.729 185.484 102.614 186.381 102.268 187.16C101.921 187.935 101.394 188.563 100.686 189.044C99.9782 189.521 99.1385 189.814 98.1675 189.925C97.0835 190.048 96.1042 189.917 95.2294 189.532C94.3542 189.144 93.6368 188.533 93.0771 187.701C92.5209 186.864 92.1735 185.836 92.0349 184.617C91.9285 183.68 91.9691 182.829 92.1567 182.064C92.3477 181.295 92.6606 180.627 93.0955 180.059C93.5304 179.491 94.0601 179.036 94.6846 178.695C95.3092 178.353 96.0034 178.139 96.7675 178.052C97.4223 177.978 98.043 178.005 98.6293 178.132C99.2152 178.256 99.7462 178.467 100.222 178.763C100.702 179.06 101.108 179.431 101.441 179.877C101.773 180.32 102.011 180.823 102.155 181.386L99.6714 181.668Z" fill="white"/>
<defs>
<linearGradient id="paint0_linear_3510_11060" x1="-26.5" y1="106.5" x2="165.5" y2="188" gradientUnits="userSpaceOnUse">
<stop offset="0.0685854" stop-color="#3B0764" stop-opacity="0"/>
<stop offset="0.336619" stop-color="#3B0764"/>
<stop offset="0.71716" stop-color="#3B0764"/>
<stop offset="0.891602" stop-color="#3B0764" stop-opacity="0"/>
</linearGradient>
</defs>
</svg>
