<svg width="679" height="614" viewBox="0 0 679 614" fill="none" xmlns="http://www.w3.org/2000/svg">
<path d="M99.4363 575.103C232.018 638.286 446.982 638.286 579.564 575.103C712.145 511.92 712.145 409.464 579.564 346.265C446.982 283.067 232.018 283.082 99.4363 346.265C-33.1454 409.449 -33.1454 511.904 99.4363 575.103Z" fill="#F0F0F0"/>
<path d="M362.666 536.521C384.415 536.521 402.046 528.118 402.046 517.752C402.046 507.386 384.415 498.982 362.666 498.982C340.917 498.982 323.286 507.386 323.286 517.752C323.286 528.118 340.917 536.521 362.666 536.521Z" fill="#E0E0E0"/>
<path d="M176.033 352.957L104.961 311.919L33.8745 352.957L104.961 393.995L176.033 352.957Z" fill="#F0F0F0"/>
<path d="M104.961 448.722L176.033 407.684V352.957L104.961 393.995V448.722Z" fill="#EBEBEB"/>
<path d="M115.582 436.029C115.441 436.032 115.303 435.995 115.183 435.922C115.039 435.829 114.923 435.698 114.847 435.544C114.772 435.39 114.739 435.218 114.753 435.047V434.05C114.753 433.952 114.792 433.858 114.861 433.789C114.93 433.72 115.024 433.681 115.121 433.681C115.169 433.681 115.216 433.691 115.26 433.71C115.304 433.728 115.344 433.756 115.377 433.79C115.41 433.825 115.435 433.865 115.452 433.91C115.469 433.955 115.477 434.002 115.474 434.05V435.047C115.474 435.201 115.474 435.277 115.474 435.293C115.474 435.308 115.582 435.293 115.72 435.293C115.942 435.079 116.117 434.821 116.233 434.536C116.349 434.25 116.404 433.943 116.395 433.635V427.159C116.395 427.065 116.432 426.976 116.499 426.909C116.565 426.843 116.655 426.806 116.748 426.806C116.796 426.804 116.843 426.812 116.888 426.828C116.933 426.845 116.973 426.871 117.008 426.904C117.042 426.937 117.07 426.976 117.088 427.02C117.107 427.064 117.117 427.111 117.117 427.159V433.513C117.133 433.947 117.048 434.38 116.87 434.776C116.692 435.173 116.424 435.523 116.088 435.799C115.939 435.913 115.766 435.991 115.582 436.029Z" fill="#E0E0E0"/>
<path d="M111.714 430.444V429.814C111.794 428.2 112.252 426.627 113.052 425.222C113.851 423.817 114.97 422.62 116.318 421.727C116.801 421.303 117.404 421.041 118.044 420.978C118.683 420.915 119.326 421.055 119.882 421.377C120.438 421.699 120.879 422.187 121.143 422.773C121.406 423.359 121.479 424.013 121.352 424.643V424.842L111.714 430.444ZM118.559 421.803C117.915 421.827 117.289 422.023 116.748 422.371C115.588 423.126 114.606 424.123 113.869 425.294C113.133 426.465 112.659 427.783 112.481 429.155L120.676 424.428C120.705 423.967 120.615 423.508 120.416 423.091C120.218 422.675 119.916 422.316 119.541 422.049C119.25 421.851 118.91 421.74 118.559 421.727V421.803Z" fill="#E0E0E0"/>
<path d="M128.641 428.556C128.548 428.556 128.458 428.518 128.392 428.452C128.326 428.386 128.288 428.296 128.288 428.203V417.736C128.277 417.682 128.278 417.627 128.291 417.574C128.304 417.521 128.329 417.471 128.363 417.429C128.398 417.386 128.442 417.352 128.491 417.329C128.54 417.305 128.594 417.293 128.649 417.293C128.704 417.293 128.758 417.305 128.807 417.329C128.857 417.352 128.9 417.386 128.935 417.429C128.969 417.471 128.994 417.521 129.007 417.574C129.02 417.627 129.021 417.682 129.01 417.736V428.203C129.01 428.25 129 428.298 128.981 428.341C128.963 428.385 128.935 428.425 128.901 428.458C128.867 428.491 128.826 428.517 128.781 428.533C128.737 428.55 128.689 428.558 128.641 428.556Z" fill="#E0E0E0"/>
<path d="M127.583 420.56C127.533 420.573 127.48 420.573 127.429 420.56C127.385 420.542 127.346 420.515 127.312 420.481C127.279 420.447 127.253 420.406 127.236 420.362C127.219 420.317 127.21 420.27 127.212 420.222C127.214 420.175 127.225 420.128 127.245 420.085L128.55 417.015L129.992 418.688C130.057 418.756 130.093 418.847 130.093 418.941C130.093 419.035 130.057 419.126 129.992 419.194C129.958 419.229 129.917 419.256 129.873 419.275C129.828 419.293 129.78 419.303 129.731 419.303C129.683 419.303 129.635 419.293 129.59 419.275C129.545 419.256 129.505 419.229 129.471 419.194L128.78 418.396L127.951 420.33C127.922 420.403 127.871 420.464 127.805 420.505C127.738 420.547 127.661 420.566 127.583 420.56Z" fill="#E0E0E0"/>
<path d="M132.018 426.638C131.921 426.638 131.827 426.599 131.758 426.53C131.689 426.461 131.65 426.367 131.65 426.269V415.818C131.65 415.72 131.689 415.627 131.758 415.558C131.827 415.488 131.921 415.45 132.018 415.45C132.116 415.45 132.21 415.488 132.279 415.558C132.348 415.627 132.387 415.72 132.387 415.818V426.269C132.387 426.367 132.348 426.461 132.279 426.53C132.21 426.599 132.116 426.638 132.018 426.638Z" fill="#E0E0E0"/>
<path d="M130.928 418.642H130.775C130.731 418.623 130.691 418.596 130.657 418.562C130.624 418.528 130.598 418.487 130.581 418.443C130.564 418.399 130.556 418.351 130.557 418.303C130.559 418.256 130.57 418.209 130.59 418.166L131.88 415.096L133.414 416.754C133.48 416.825 133.517 416.918 133.517 417.015C133.517 417.112 133.48 417.205 133.414 417.276C133.344 417.337 133.254 417.371 133.161 417.371C133.068 417.371 132.978 417.337 132.908 417.276L132.217 416.478L131.373 418.411C131.361 418.457 131.34 418.5 131.31 418.537C131.281 418.573 131.244 418.604 131.202 418.625C131.16 418.647 131.114 418.66 131.067 418.662C131.02 418.665 130.972 418.658 130.928 418.642Z" fill="#E0E0E0"/>
<path d="M104.961 448.722L33.8745 407.684V352.957L104.961 393.995V448.722Z" fill="#E0E0E0"/>
<path d="M66.7324 426.653L72.0885 429.753V375.026L66.7324 371.926V426.653Z" fill="#EBEBEB"/>
<path d="M145.599 380.796L135.394 386.674C134.374 387.258 133.502 388.067 132.845 389.041C132.188 390.015 131.763 391.127 131.603 392.291C131.603 394.179 133.307 394.731 135.394 393.519L145.599 387.641C146.616 387.055 147.485 386.245 148.14 385.271C148.794 384.297 149.217 383.186 149.375 382.024C149.344 380.136 147.687 379.584 145.599 380.796Z" fill="#E0E0E0"/>
<path d="M72.0885 375.026L143.175 333.988L137.819 330.888L66.7324 371.926L72.0885 375.026Z" fill="#FAFAFA"/>
<path d="M137.819 375.026L66.7324 333.988L72.0885 330.888L143.175 371.926L137.819 375.026Z" fill="#FAFAFA"/>
<g style="mix-blend-mode:multiply" opacity="0.8">
<path d="M36.9746 351.161L105.13 390.465L173.055 351.253L104.961 311.919L36.9746 351.161Z" fill="#E0E0E0"/>
</g>
<path d="M137.819 380.52V375.026L143.175 371.926V377.42L137.819 380.52Z" fill="#F0F0F0"/>
<path d="M172.841 291.4L101.754 250.363L30.667 291.4L101.754 332.438L172.841 291.4Z" fill="#F0F0F0"/>
<g style="mix-blend-mode:multiply" opacity="0.8">
<path d="M36.7134 292.03L104.224 331.011L172.84 291.401L105.329 252.419L36.7134 292.03Z" fill="#E0E0E0"/>
</g>
<path d="M101.754 387.165L172.841 346.112V291.401L101.754 332.438V387.165Z" fill="#EBEBEB"/>
<path d="M112.358 374.473C112.219 374.468 112.082 374.432 111.959 374.366C111.816 374.272 111.7 374.141 111.624 373.987C111.548 373.833 111.516 373.662 111.53 373.491V372.493C111.519 372.44 111.519 372.384 111.532 372.331C111.545 372.278 111.57 372.228 111.605 372.186C111.639 372.144 111.683 372.109 111.732 372.086C111.782 372.062 111.836 372.05 111.89 372.05C111.945 372.05 111.999 372.062 112.048 372.086C112.098 372.109 112.141 372.144 112.176 372.186C112.211 372.228 112.235 372.278 112.248 372.331C112.261 372.384 112.262 372.44 112.251 372.493V373.491C112.251 373.644 112.251 373.721 112.251 373.736C112.251 373.752 112.358 373.736 112.481 373.66C112.706 373.451 112.883 373.196 112.999 372.913C113.116 372.629 113.169 372.324 113.156 372.018V365.541C113.156 365.443 113.195 365.35 113.264 365.281C113.333 365.212 113.427 365.173 113.525 365.173C113.622 365.173 113.716 365.212 113.785 365.281C113.854 365.35 113.893 365.443 113.893 365.541V372.018C113.912 372.452 113.828 372.885 113.646 373.28C113.465 373.675 113.192 374.021 112.849 374.289C112.704 374.391 112.535 374.454 112.358 374.473Z" fill="#E0E0E0"/>
<path d="M108.521 368.795V368.166C108.604 366.554 109.063 364.984 109.863 363.582C110.662 362.18 111.78 360.985 113.126 360.093C113.608 359.678 114.208 359.422 114.842 359.363C115.476 359.303 116.113 359.443 116.665 359.761C117.216 360.08 117.655 360.562 117.92 361.142C118.185 361.721 118.263 362.368 118.144 362.994V363.209L108.521 368.795ZM115.366 360.155C114.719 360.188 114.091 360.383 113.54 360.723C112.384 361.484 111.406 362.485 110.672 363.658C109.939 364.831 109.467 366.149 109.289 367.521L117.484 362.794C117.514 362.334 117.425 361.874 117.226 361.457C117.027 361.041 116.725 360.682 116.348 360.416C116.05 360.242 115.711 360.152 115.366 360.155Z" fill="#E0E0E0"/>
<path d="M125.449 367C125.352 367 125.258 366.961 125.189 366.892C125.12 366.823 125.081 366.729 125.081 366.631V356.18C125.081 356.082 125.12 355.989 125.189 355.92C125.258 355.851 125.352 355.812 125.449 355.812C125.547 355.812 125.641 355.851 125.71 355.92C125.779 355.989 125.818 356.082 125.818 356.18V366.631C125.818 366.729 125.779 366.823 125.71 366.892C125.641 366.961 125.547 367 125.449 367Z" fill="#E0E0E0"/>
<path d="M124.391 359.004H124.237C124.193 358.986 124.153 358.958 124.12 358.924C124.087 358.89 124.061 358.85 124.043 358.805C124.026 358.761 124.018 358.713 124.02 358.666C124.021 358.618 124.033 358.571 124.053 358.528L125.342 355.535L126.877 357.193C126.943 357.264 126.979 357.357 126.979 357.454C126.979 357.551 126.943 357.644 126.877 357.715C126.807 357.776 126.717 357.81 126.623 357.81C126.53 357.81 126.44 357.776 126.37 357.715L125.68 356.917L124.836 358.85C124.793 358.926 124.724 358.984 124.642 359.012C124.56 359.04 124.471 359.037 124.391 359.004Z" fill="#E0E0E0"/>
<path d="M128.826 365.081C128.728 365.081 128.634 365.042 128.565 364.973C128.496 364.904 128.458 364.81 128.458 364.713V354.246C128.458 354.148 128.496 354.055 128.565 353.986C128.634 353.917 128.728 353.878 128.826 353.878C128.924 353.878 129.017 353.917 129.086 353.986C129.155 354.055 129.194 354.148 129.194 354.246V364.713C129.194 364.81 129.155 364.904 129.086 364.973C129.017 365.042 128.924 365.081 128.826 365.081Z" fill="#E0E0E0"/>
<path d="M127.752 357.085H127.614C127.524 357.045 127.453 356.971 127.415 356.88C127.378 356.788 127.378 356.686 127.414 356.594L128.719 353.602L130.161 355.274C130.196 355.309 130.223 355.349 130.241 355.394C130.26 355.439 130.27 355.487 130.27 355.535C130.27 355.584 130.26 355.632 130.241 355.677C130.223 355.721 130.196 355.762 130.161 355.796C130.09 355.862 129.997 355.899 129.9 355.899C129.804 355.899 129.71 355.862 129.639 355.796L128.964 354.998L128.12 356.932C128.079 356.989 128.022 357.033 127.957 357.06C127.892 357.087 127.821 357.096 127.752 357.085Z" fill="#E0E0E0"/>
<path d="M101.754 387.165L30.667 346.112V291.401L101.754 332.438V387.165Z" fill="#E0E0E0"/>
<path d="M63.54 365.096L68.8961 368.181V313.469L63.54 310.369V365.096Z" fill="#EBEBEB"/>
<path d="M142.392 319.24L132.202 325.118C131.182 325.702 130.31 326.512 129.653 327.485C128.996 328.459 128.571 329.571 128.411 330.735C128.411 332.623 130.115 333.175 132.202 331.963L142.392 326.07C143.417 325.496 144.293 324.691 144.951 323.718C145.609 322.745 146.031 321.632 146.183 320.468C146.183 318.58 144.495 318.028 142.392 319.24Z" fill="#E0E0E0"/>
<path d="M68.8961 313.47L139.983 272.432L134.627 269.332L63.54 310.37L68.8961 313.47Z" fill="#FAFAFA"/>
<path d="M134.627 313.47L63.54 272.432L68.8961 269.332L139.983 310.37L134.627 313.47Z" fill="#FAFAFA"/>
<path d="M134.627 318.963V313.469L139.983 310.369V315.863L134.627 318.963Z" fill="#F0F0F0"/>
<g style="mix-blend-mode:multiply" opacity="0.8">
<path d="M104.225 331.011L110.624 334.71L172.841 298.783V291.401L104.225 331.011Z" fill="#E0E0E0"/>
</g>
<path d="M179.961 236.674L108.89 195.636L37.8032 236.674L108.89 277.711L179.961 236.674Z" fill="#F0F0F0"/>
<path d="M108.89 332.438L179.962 291.401V236.674L108.89 277.711V332.438Z" fill="#EBEBEB"/>
<path d="M119.479 319.746C119.343 319.751 119.209 319.713 119.096 319.639C118.948 319.548 118.828 319.419 118.749 319.264C118.671 319.11 118.636 318.937 118.651 318.764V317.766C118.651 317.669 118.689 317.575 118.758 317.506C118.828 317.437 118.921 317.398 119.019 317.398C119.117 317.398 119.21 317.437 119.279 317.506C119.348 317.575 119.387 317.669 119.387 317.766V318.764C119.387 318.917 119.387 318.994 119.387 319.009C119.387 319.025 119.495 319.009 119.633 319.009C119.857 318.801 120.034 318.546 120.151 318.262C120.267 317.979 120.321 317.674 120.308 317.367V310.891C120.297 310.837 120.298 310.782 120.311 310.729C120.324 310.676 120.348 310.626 120.383 310.584C120.418 310.541 120.461 310.507 120.51 310.483C120.56 310.46 120.614 310.448 120.669 310.448C120.723 310.448 120.777 310.46 120.827 310.483C120.876 310.507 120.92 310.541 120.954 310.584C120.989 310.626 121.014 310.676 121.026 310.729C121.039 310.782 121.04 310.837 121.029 310.891V317.367C121.046 317.8 120.961 318.23 120.783 318.624C120.604 319.018 120.337 319.366 120.001 319.639C119.837 319.711 119.659 319.748 119.479 319.746Z" fill="#E0E0E0"/>
<path d="M115.582 314.083V313.454C115.665 311.84 116.125 310.268 116.924 308.864C117.724 307.46 118.841 306.262 120.186 305.366C120.668 304.942 121.272 304.68 121.911 304.618C122.551 304.555 123.194 304.694 123.75 305.016C124.306 305.339 124.747 305.827 125.01 306.413C125.274 306.999 125.347 307.653 125.219 308.282V308.482L115.582 314.083ZM122.426 305.443C121.783 305.467 121.157 305.663 120.615 306.011C119.458 306.768 118.477 307.766 117.741 308.936C117.005 310.107 116.53 311.423 116.349 312.794L124.544 308.067C124.571 307.609 124.483 307.151 124.287 306.735C124.091 306.32 123.795 305.96 123.424 305.689C123.137 305.53 122.815 305.446 122.488 305.443H122.426Z" fill="#E0E0E0"/>
<path d="M132.571 312.273C132.523 312.273 132.476 312.263 132.432 312.244C132.388 312.226 132.348 312.198 132.315 312.164C132.282 312.129 132.257 312.089 132.24 312.044C132.223 311.999 132.216 311.952 132.218 311.904V301.53C132.207 301.476 132.207 301.421 132.22 301.368C132.233 301.315 132.258 301.265 132.293 301.222C132.327 301.18 132.371 301.146 132.42 301.122C132.47 301.099 132.524 301.087 132.578 301.087C132.633 301.087 132.687 301.099 132.736 301.122C132.786 301.146 132.829 301.18 132.864 301.222C132.898 301.265 132.923 301.315 132.936 301.368C132.949 301.421 132.95 301.476 132.939 301.53V311.996C132.918 312.077 132.87 312.149 132.803 312.199C132.736 312.249 132.654 312.275 132.571 312.273Z" fill="#E0E0E0"/>
<path d="M131.512 304.277C131.467 304.291 131.419 304.291 131.374 304.277C131.328 304.26 131.287 304.234 131.252 304.201C131.217 304.167 131.189 304.127 131.171 304.082C131.152 304.038 131.142 303.99 131.143 303.941C131.144 303.893 131.154 303.845 131.174 303.801L132.479 300.732L133.921 302.405C133.955 302.437 133.982 302.477 134 302.52C134.019 302.564 134.028 302.611 134.028 302.658C134.028 302.705 134.019 302.752 134 302.795C133.982 302.839 133.955 302.878 133.921 302.911C133.887 302.945 133.846 302.973 133.802 302.991C133.757 303.01 133.709 303.019 133.66 303.019C133.612 303.019 133.564 303.01 133.519 302.991C133.474 302.973 133.434 302.945 133.399 302.911L132.709 302.113L131.88 304.047C131.851 304.119 131.8 304.18 131.733 304.222C131.667 304.263 131.59 304.282 131.512 304.277Z" fill="#E0E0E0"/>
<path d="M135.946 310.354C135.899 310.356 135.851 310.349 135.807 310.332C135.762 310.315 135.721 310.289 135.687 310.256C135.652 310.223 135.625 310.184 135.606 310.14C135.588 310.096 135.578 310.049 135.578 310.001V299.535C135.578 299.437 135.617 299.343 135.686 299.274C135.755 299.205 135.849 299.166 135.946 299.166C136.044 299.166 136.138 299.205 136.207 299.274C136.276 299.343 136.315 299.437 136.315 299.535V310.001C136.315 310.049 136.305 310.096 136.287 310.14C136.268 310.184 136.24 310.223 136.206 310.256C136.172 310.289 136.131 310.315 136.086 310.332C136.042 310.349 135.994 310.356 135.946 310.354Z" fill="#E0E0E0"/>
<path d="M134.888 302.358H134.735C134.691 302.34 134.651 302.313 134.617 302.279C134.584 302.245 134.558 302.204 134.541 302.16C134.524 302.115 134.516 302.068 134.517 302.02C134.519 301.972 134.53 301.926 134.55 301.882L135.84 298.813L137.374 300.47C137.44 300.541 137.477 300.635 137.477 300.731C137.477 300.828 137.44 300.921 137.374 300.992C137.341 301.026 137.302 301.053 137.259 301.071C137.215 301.09 137.168 301.099 137.121 301.099C137.074 301.099 137.027 301.09 136.984 301.071C136.94 301.053 136.901 301.026 136.868 300.992L136.177 300.194L135.333 302.128C135.321 302.174 135.3 302.216 135.27 302.253C135.241 302.29 135.204 302.32 135.162 302.342C135.12 302.364 135.074 302.376 135.027 302.379C134.98 302.382 134.932 302.375 134.888 302.358Z" fill="#E0E0E0"/>
<path d="M108.89 332.438L37.8032 291.401V236.674L108.89 277.711V332.438Z" fill="#E0E0E0"/>
<path d="M70.6606 310.37L76.0167 313.47V258.743L70.6606 255.643V310.37Z" fill="#EBEBEB"/>
<path d="M149.528 264.513L139.323 270.407C138.302 270.983 137.429 271.789 136.774 272.762C136.118 273.734 135.699 274.845 135.547 276.008C135.547 277.896 137.236 278.448 139.323 277.236L149.528 271.358C150.548 270.774 151.42 269.965 152.077 268.991C152.735 268.017 153.159 266.905 153.319 265.741C153.319 263.853 151.616 263.301 149.528 264.513Z" fill="#E0E0E0"/>
<path d="M76.0167 258.743L147.103 217.705L141.747 214.605L70.6606 255.643L76.0167 258.743Z" fill="#FAFAFA"/>
<path d="M141.747 258.743L70.6606 217.705L76.0167 214.605L147.103 255.643L141.747 258.743Z" fill="#FAFAFA"/>
<path d="M141.748 264.237V258.743L147.104 255.643V261.137L141.748 264.237Z" fill="#F0F0F0"/>
<path d="M208.767 438.27V414.268C207.625 405.444 203.885 397.159 198.025 390.465C188.54 380.198 180.038 383.682 177.276 388.562C174.513 393.442 180.805 402.681 184.826 407.899C189.661 414.16 208.737 443.197 208.737 456.288L208.767 438.27Z" fill="#37474F"/>
<path d="M208.767 434.48C208.628 434.478 208.494 434.429 208.387 434.339C208.281 434.249 208.209 434.126 208.184 433.989C203.856 407.822 183.936 389.866 183.736 389.682C183.63 389.571 183.57 389.422 183.57 389.268C183.57 389.113 183.63 388.965 183.736 388.853C183.791 388.799 183.855 388.755 183.926 388.726C183.997 388.696 184.074 388.681 184.151 388.681C184.228 388.681 184.304 388.696 184.375 388.726C184.446 388.755 184.511 388.799 184.565 388.853C184.78 389.022 204.992 407.27 209.396 433.835C209.419 433.99 209.38 434.147 209.288 434.273C209.196 434.399 209.059 434.484 208.905 434.51L208.767 434.48Z" fill="#FAFAFA"/>
<path d="M208.767 438.271C208.767 438.271 209.719 435.386 205.468 434.649C201.217 433.912 199.59 430.383 199.206 424.459C198.823 418.535 197.012 414.284 191.686 413.409C186.361 412.534 182.079 415.22 178.626 412.549C175.173 409.879 166.226 403.449 158.767 406.411C151.309 409.373 153.764 415.711 157.647 419.824C161.53 423.937 162.635 425.349 159.673 432.101C156.711 438.854 158.859 445.085 165.719 446.65C172.579 448.216 176.462 447.418 176.462 454.922C176.462 462.427 177.598 465.788 181.358 468.734C185.118 471.681 196.919 470.361 201.831 471.497C203.305 471.877 204.682 472.566 205.87 473.518C207.058 474.471 208.03 475.665 208.721 477.022L208.767 438.271Z" fill="#455A64"/>
<path d="M208.767 469.225C208.645 469.225 208.526 469.187 208.427 469.115C208.328 469.043 208.254 468.942 208.215 468.826C195.738 431.81 167.515 416.846 167.223 416.647C167.094 416.568 166.999 416.443 166.958 416.296C166.918 416.15 166.934 415.994 167.004 415.859C167.075 415.724 167.193 415.622 167.337 415.571C167.48 415.521 167.637 415.527 167.776 415.588C168.052 415.741 196.689 430.935 209.32 468.397C209.346 468.469 209.357 468.546 209.353 468.623C209.349 468.7 209.328 468.775 209.294 468.844C209.26 468.913 209.211 468.974 209.153 469.024C209.094 469.074 209.025 469.111 208.952 469.133C208.9 469.18 208.836 469.212 208.767 469.225Z" fill="#FAFAFA"/>
<path d="M190.873 436.95H190.781C182.631 435.093 169.602 436.106 169.464 436.106C169.387 436.113 169.31 436.104 169.237 436.08C169.164 436.056 169.096 436.019 169.037 435.969C168.979 435.919 168.931 435.858 168.896 435.789C168.861 435.721 168.84 435.646 168.834 435.569C168.826 435.492 168.833 435.414 168.856 435.34C168.879 435.266 168.917 435.197 168.967 435.138C169.017 435.08 169.079 435.032 169.149 434.997C169.218 434.963 169.294 434.944 169.372 434.94C169.924 434.94 182.723 433.912 191.041 435.815C191.181 435.847 191.304 435.931 191.386 436.048C191.469 436.166 191.505 436.31 191.488 436.452C191.471 436.595 191.401 436.726 191.294 436.821C191.186 436.915 191.047 436.967 190.903 436.966L190.873 436.95Z" fill="#FAFAFA"/>
<path d="M197.518 454.753C193.788 454.753 189.844 454.508 189.599 454.492C189.443 454.481 189.297 454.408 189.194 454.29C189.091 454.173 189.038 454.019 189.046 453.863C189.05 453.785 189.07 453.709 189.104 453.638C189.138 453.568 189.185 453.505 189.244 453.454C189.303 453.402 189.371 453.363 189.445 453.338C189.519 453.314 189.598 453.304 189.676 453.311C193.916 453.609 198.173 453.609 202.413 453.311C202.566 453.289 202.721 453.328 202.845 453.42C202.968 453.512 203.051 453.649 203.073 453.802C203.086 453.878 203.084 453.957 203.066 454.033C203.049 454.109 203.016 454.18 202.97 454.243C202.924 454.306 202.866 454.359 202.8 454.399C202.733 454.439 202.659 454.466 202.582 454.477C200.903 454.687 199.21 454.779 197.518 454.753Z" fill="#FAFAFA"/>
<path d="M187.051 432.607C186.895 432.596 186.75 432.523 186.647 432.405C186.544 432.288 186.49 432.134 186.499 431.978C186.779 427.741 187.663 423.565 189.123 419.578C189.181 419.436 189.293 419.323 189.433 419.263C189.574 419.202 189.733 419.2 189.875 419.256C189.948 419.281 190.015 419.321 190.072 419.373C190.129 419.425 190.174 419.489 190.206 419.559C190.237 419.629 190.254 419.705 190.255 419.783C190.257 419.86 190.242 419.936 190.213 420.008C188.815 423.888 187.958 427.941 187.665 432.055C187.661 432.131 187.642 432.207 187.609 432.276C187.576 432.345 187.53 432.407 187.473 432.459C187.416 432.51 187.349 432.549 187.277 432.575C187.205 432.601 187.128 432.612 187.051 432.607Z" fill="#FAFAFA"/>
<path d="M208.583 200.793V479.554C208.583 482.101 210.364 483.129 212.574 481.856L547.473 288.485C548.629 287.725 549.59 286.704 550.278 285.505C550.966 284.305 551.361 282.96 551.433 281.579V2.84865C551.433 0.301064 549.653 -0.727178 547.458 0.546614L212.558 193.917C211.404 194.672 210.443 195.688 209.752 196.882C209.062 198.076 208.661 199.416 208.583 200.793Z" fill="#BA68C8"/>
<path d="M547.473 0.546614L212.574 193.917C211.412 194.673 210.446 195.693 209.752 196.893C209.059 198.093 208.658 199.44 208.583 200.823V218.258L551.433 19.8377V2.84865C551.433 0.301064 549.668 -0.727178 547.473 0.546614Z" fill="#263238"/>
<path d="M504.702 31.5012C503.56 32.2453 502.609 33.2492 501.929 34.4308C501.249 35.6125 500.858 36.9383 500.789 38.2999C500.789 40.8014 502.538 41.8143 504.717 40.5712C505.86 39.8219 506.81 38.8151 507.492 37.6316C508.175 36.4482 508.57 35.1211 508.646 33.7572C508.631 31.2557 506.927 30.2428 504.702 31.5012Z" fill="white"/>
<path d="M520.279 22.4925C519.137 23.2385 518.186 24.2425 517.504 25.4235C516.822 26.6044 516.426 27.9293 516.35 29.2911C516.35 31.808 518.115 32.8209 520.279 31.5625C521.424 30.8201 522.377 29.817 523.06 28.6352C523.743 27.4535 524.136 26.1268 524.208 24.7638C524.208 22.2162 522.458 21.2494 520.279 22.4925Z" fill="white"/>
<path d="M535.872 13.4993C534.73 14.2453 533.779 15.2493 533.097 16.4302C532.414 17.6112 532.019 18.9361 531.943 20.2979C531.943 22.7995 533.708 23.8277 535.872 22.5693C537.014 21.8232 537.964 20.8192 538.647 19.6383C539.329 18.4573 539.724 17.1324 539.801 15.7706C539.801 13.2537 538.036 12.2408 535.872 13.4993Z" fill="white"/>
<path d="M316.15 193.457V276.33L244.403 317.767V234.893L316.15 193.457ZM317.684 190.802L242.868 234.003V320.391L317.684 277.189V190.802Z" fill="#FAFAFA"/>
<path d="M341.856 264.114V175.961L418.191 131.885V220.038L341.856 264.114ZM343.391 176.851V261.459L416.657 219.147V134.54L343.391 176.851Z" fill="#FAFAFA"/>
<path d="M389.677 175.394L393.698 166.707C389.248 166.079 384.718 167 380.868 169.316V177.22C383.528 175.671 386.62 175.03 389.677 175.394Z" fill="#BA68C8"/>
<path d="M396.429 181.271L402.936 175.133C402.31 173.282 401.27 171.598 399.895 170.21C398.52 168.822 396.846 167.766 395.002 167.122L390.996 175.808C392.243 176.272 393.374 177.001 394.311 177.944C395.249 178.887 395.972 180.022 396.429 181.271Z" fill="#BA68C8"/>
<path d="M370.339 220.605L366.334 229.276C370.775 229.933 375.307 229.021 379.149 226.698V218.81C376.491 220.365 373.394 220.997 370.339 220.605Z" fill="#BA68C8"/>
<path d="M391.058 207.499L395.063 211.551C398.625 206.296 401.305 200.496 402.997 194.377L396.429 195.636C395.268 199.846 393.456 203.849 391.058 207.499Z" fill="#BA68C8"/>
<path d="M380.868 217.828V225.716C385.877 222.47 390.225 218.304 393.682 213.438L389.677 209.448C387.266 212.746 384.282 215.584 380.868 217.828Z" fill="#BA68C8"/>
<path d="M403.52 176.652L397.028 182.791C397.457 184.413 397.669 186.085 397.657 187.763C397.641 189.682 397.43 191.595 397.028 193.472L403.52 192.168C404.132 189.431 404.451 186.638 404.471 183.834C404.491 181.407 404.171 178.99 403.52 176.652Z" fill="#BA68C8"/>
<g opacity="0.2">
<path d="M389.676 175.394L393.697 166.707C389.248 166.079 384.718 167.001 380.867 169.316V177.22C383.528 175.671 386.62 175.03 389.676 175.394Z" fill="black"/>
<path d="M396.429 181.271L402.936 175.133C402.31 173.282 401.27 171.598 399.895 170.21C398.52 168.822 396.846 167.766 395.002 167.122L390.996 175.808C392.243 176.272 393.374 177.001 394.311 177.944C395.249 178.887 395.972 180.022 396.429 181.271Z" fill="black"/>
<path d="M370.339 220.605L366.334 229.276C370.775 229.933 375.307 229.021 379.149 226.698V218.81C376.491 220.365 373.394 220.997 370.339 220.605Z" fill="black"/>
<path d="M391.058 207.499L395.063 211.551C398.625 206.296 401.305 200.496 402.997 194.377L396.429 195.636C395.268 199.846 393.456 203.849 391.058 207.499Z" fill="black"/>
<path d="M380.867 217.828V225.716C385.876 222.47 390.225 218.304 393.682 213.438L389.676 209.448C387.265 212.746 384.281 215.584 380.867 217.828Z" fill="black"/>
<path d="M403.52 176.652L397.028 182.791C397.457 184.413 397.669 186.085 397.657 187.763C397.641 189.682 397.43 191.595 397.028 193.472L403.52 192.168C404.132 189.431 404.451 186.638 404.471 183.834C404.491 181.407 404.171 178.99 403.52 176.652Z" fill="black"/>
</g>
<path d="M379.164 178.172V170.283C374.151 173.525 369.802 177.691 366.349 182.561L370.355 186.612C372.756 183.288 375.74 180.428 379.164 178.172Z" fill="#FAFAFA"/>
<path d="M368.989 188.5L364.983 184.448C361.415 189.693 358.734 195.49 357.049 201.606L363.541 200.301C364.726 196.106 366.564 192.123 368.989 188.5Z" fill="#FAFAFA"/>
<path d="M362.375 208.174C362.397 206.255 362.613 204.342 363.019 202.465L356.527 203.785C355.916 206.516 355.597 209.305 355.576 212.103C355.552 214.55 355.872 216.989 356.527 219.347L363.019 213.208C362.58 211.567 362.363 209.874 362.375 208.174Z" fill="#FAFAFA"/>
<path d="M363.541 214.728L357.049 220.866C357.673 222.716 358.712 224.399 360.088 225.785C361.463 227.171 363.138 228.224 364.983 228.862L368.989 220.191C367.739 219.729 366.605 219.001 365.665 218.057C364.724 217.114 363.999 215.978 363.541 214.728Z" fill="#FAFAFA"/>
<path d="M365.429 206.379C365.429 197.063 371.966 185.753 380.024 181.102C388.081 176.452 394.619 180.212 394.619 189.528C394.619 198.844 388.081 210.154 380.024 214.804C371.966 219.454 365.429 215.725 365.429 206.379Z" fill="#BA68C8"/>
<path opacity="0.2" d="M365.429 206.379C365.429 197.063 371.966 185.753 380.024 181.102C388.081 176.452 394.619 180.212 394.619 189.528C394.619 198.844 388.081 210.154 380.024 214.804C371.966 219.454 365.429 215.725 365.429 206.379Z" fill="black"/>
<path d="M378.581 193.196C378.612 193.794 378.612 194.393 378.581 194.991C378.553 195.485 378.47 195.974 378.335 196.449C378.205 196.946 378.003 197.422 377.737 197.861C377.167 198.846 376.346 199.661 375.358 200.225C374.932 200.494 374.458 200.676 373.961 200.762C373.626 200.829 373.278 200.774 372.979 200.608C372.709 200.436 372.5 200.184 372.381 199.887C372.234 199.515 372.151 199.121 372.135 198.721C372.135 198.414 372.135 198.122 372.135 197.846C372.135 197.57 372.135 197.263 372.135 196.91C372.16 196.391 372.243 195.876 372.381 195.375C372.522 194.887 372.723 194.417 372.979 193.979C373.25 193.504 373.58 193.066 373.961 192.674C374.377 192.26 374.847 191.904 375.358 191.615C375.786 191.346 376.259 191.159 376.755 191.063C377.092 191.008 377.437 191.067 377.737 191.231C378.007 191.404 378.216 191.656 378.335 191.953C378.483 192.351 378.566 192.771 378.581 193.196ZM383.707 187.441C383.785 187.261 383.882 187.092 383.998 186.934C384.119 186.781 384.271 186.656 384.443 186.566L386.132 185.599C386.179 185.557 386.236 185.528 386.298 185.515C386.36 185.501 386.424 185.504 386.485 185.522C386.577 185.522 386.623 185.645 386.623 185.783C386.628 185.824 386.628 185.865 386.623 185.906C386.629 185.967 386.629 186.029 386.623 186.09L376.478 207.346C376.392 207.519 376.289 207.683 376.171 207.837C376.054 207.991 375.908 208.121 375.742 208.22L374.054 209.187C373.998 209.213 373.938 209.227 373.877 209.227C373.816 209.227 373.756 209.213 373.701 209.187C373.609 209.187 373.563 209.065 373.563 208.926C373.563 208.788 373.563 208.85 373.563 208.788C373.563 208.727 373.563 208.681 373.563 208.619L383.707 187.441ZM374.499 197.217C374.493 197.503 374.568 197.784 374.714 198.03C374.821 198.168 375.036 198.138 375.343 198.03C375.614 197.883 375.83 197.651 375.957 197.37C376.093 197.033 376.171 196.675 376.187 196.311C376.216 195.8 376.216 195.288 376.187 194.777C376.19 194.494 376.11 194.216 375.957 193.979C375.849 193.84 375.634 193.856 375.343 193.979C375.064 194.12 374.841 194.353 374.714 194.638C374.583 194.977 374.51 195.335 374.499 195.697C374.462 196.188 374.467 196.681 374.514 197.171L374.499 197.217ZM388.081 195.989C388.111 196.592 388.111 197.197 388.081 197.8C388.049 198.287 387.972 198.77 387.85 199.243C387.579 200.26 387.05 201.19 386.316 201.944C385.904 202.367 385.434 202.729 384.919 203.018C384.493 203.287 384.019 203.469 383.523 203.555C383.188 203.629 382.837 203.574 382.54 203.402C382.271 203.229 382.061 202.977 381.942 202.68C381.795 202.308 381.712 201.914 381.696 201.514C381.696 201.207 381.696 200.915 381.696 200.654C381.696 200.394 381.696 200.056 381.696 199.703C381.726 199.215 381.808 198.731 381.942 198.26C382.083 197.767 382.284 197.293 382.54 196.848C382.808 196.376 383.138 195.942 383.523 195.559C383.934 195.136 384.404 194.774 384.919 194.485C385.345 194.216 385.82 194.033 386.316 193.948C386.651 193.874 387.001 193.929 387.298 194.101C387.568 194.273 387.777 194.526 387.896 194.823C388.028 195.197 388.095 195.592 388.096 195.989H388.081ZM384.014 200.025C384.015 200.305 384.089 200.58 384.229 200.823C384.351 200.961 384.551 200.946 384.858 200.823C385.133 200.677 385.354 200.446 385.487 200.163C385.611 199.823 385.683 199.466 385.702 199.104C385.731 198.593 385.731 198.081 385.702 197.57C385.701 197.29 385.627 197.014 385.487 196.772C385.364 196.634 385.165 196.649 384.858 196.772C384.582 196.918 384.361 197.149 384.229 197.432C384.105 197.772 384.033 198.129 384.014 198.491C383.975 199.002 383.98 199.515 384.029 200.025H384.014Z" fill="#FAFAFA"/>
<path d="M441.595 206.532V118.365L517.931 74.2883V162.456L441.595 206.532ZM443.13 119.255V203.862L516.396 161.566V76.9587L443.13 119.255Z" fill="#FAFAFA"/>
<path d="M478.919 120.574V112.763C473.901 116.003 469.546 120.17 466.089 125.04L470.11 129.107C472.501 125.749 475.486 122.857 478.919 120.574Z" fill="#FAFAFA"/>
<path d="M468.728 130.918L464.723 126.867C461.151 132.11 458.471 137.907 456.789 144.025L463.28 142.705C464.475 138.518 466.313 134.541 468.728 130.918Z" fill="#FAFAFA"/>
<path d="M489.416 117.812L493.437 109.11C488.988 108.482 484.458 109.403 480.607 111.719V119.592C483.267 118.046 486.364 117.42 489.416 117.812Z" fill="#BA68C8"/>
<path d="M496.184 123.675L502.676 117.536C502.05 115.687 501.009 114.005 499.634 112.619C498.259 111.234 496.586 110.181 494.741 109.54L490.736 118.211C491.985 118.674 493.119 119.401 494.06 120.345C495 121.288 495.725 122.424 496.184 123.675Z" fill="#BA68C8"/>
<path d="M470.094 163.009L466.089 171.695C469.772 172.447 474.177 171.695 478.919 169.101V161.228C476.254 162.778 473.152 163.404 470.094 163.009Z" fill="#BA68C8"/>
<path d="M503.259 119.055L496.767 125.194C497.202 126.821 497.419 128.498 497.412 130.182C497.389 132.102 497.173 134.014 496.767 135.891L503.259 134.586C503.87 131.85 504.189 129.057 504.21 126.253C504.23 123.821 503.91 121.398 503.259 119.055Z" fill="#BA68C8"/>
<path d="M490.797 149.902L494.803 153.954C498.371 148.709 501.052 142.912 502.737 136.796L496.246 138.116C495.05 142.303 493.212 146.279 490.797 149.902Z" fill="#BA68C8"/>
<path d="M462.114 150.593C462.136 148.673 462.352 146.76 462.759 144.884L456.267 146.188C455.655 148.925 455.336 151.718 455.315 154.522C455.291 156.964 455.611 159.397 456.267 161.75L462.759 155.611C462.322 153.975 462.105 152.287 462.114 150.593Z" fill="#BA68C8"/>
<path d="M463.28 157.131L456.789 163.27C457.415 165.119 458.455 166.8 459.83 168.186C461.205 169.572 462.879 170.625 464.723 171.265L468.728 162.594C467.479 162.132 466.345 161.404 465.405 160.461C464.464 159.518 463.739 158.381 463.28 157.131Z" fill="#BA68C8"/>
<path d="M480.607 160.246V168.119C485.618 164.902 489.972 160.761 493.437 155.918L489.431 151.851C487.019 155.158 484.03 158.002 480.607 160.246Z" fill="#BA68C8"/>
<g opacity="0.2">
<path d="M489.416 117.812L493.437 109.11C488.988 108.482 484.458 109.403 480.607 111.719V119.592C483.267 118.046 486.364 117.42 489.416 117.812Z" fill="black"/>
<path d="M496.184 123.674L502.676 117.536C502.05 115.686 501.009 114.005 499.634 112.619C498.259 111.233 496.586 110.18 494.741 109.54L490.736 118.211C491.985 118.673 493.119 119.401 494.06 120.344C495 121.288 495.725 122.424 496.184 123.674Z" fill="black"/>
<path d="M470.094 163.009L466.089 171.695C469.772 172.447 474.177 171.695 478.919 169.101V161.228C476.254 162.778 473.152 163.404 470.094 163.009Z" fill="black"/>
<path d="M503.259 119.055L496.768 125.194C497.203 126.821 497.419 128.498 497.412 130.182C497.39 132.102 497.174 134.014 496.768 135.891L503.259 134.586C503.871 131.85 504.19 129.057 504.211 126.253C504.231 123.821 503.91 121.398 503.259 119.055Z" fill="black"/>
<path d="M490.797 149.902L494.803 153.954C498.371 148.709 501.052 142.912 502.737 136.796L496.246 138.116C495.05 142.303 493.212 146.279 490.797 149.902Z" fill="black"/>
<path d="M462.114 150.593C462.136 148.673 462.352 146.76 462.759 144.884L456.267 146.188C455.655 148.925 455.336 151.718 455.315 154.522C455.291 156.964 455.611 159.397 456.267 161.75L462.759 155.611C462.322 153.975 462.105 152.287 462.114 150.593Z" fill="black"/>
<path d="M463.28 157.131L456.789 163.27C457.415 165.119 458.455 166.8 459.83 168.186C461.205 169.572 462.879 170.625 464.723 171.265L468.728 162.594C467.479 162.132 466.345 161.404 465.405 160.461C464.464 159.518 463.739 158.381 463.28 157.131Z" fill="black"/>
<path d="M480.607 160.246V168.119C485.618 164.902 489.972 160.761 493.437 155.918L489.431 151.851C487.019 155.158 484.03 158.002 480.607 160.246Z" fill="black"/>
</g>
<path d="M465.168 148.828C465.168 139.528 471.706 128.217 479.763 123.552C487.82 118.886 494.358 122.677 494.358 131.977C494.358 141.278 487.82 152.665 479.763 157.269C471.706 161.873 465.168 158.144 465.168 148.828Z" fill="#BA68C8"/>
<path opacity="0.2" d="M465.168 148.828C465.168 139.528 471.706 128.217 479.763 123.552C487.82 118.886 494.358 122.677 494.358 131.977C494.358 141.278 487.82 152.665 479.763 157.269C471.706 161.873 465.168 158.144 465.168 148.828Z" fill="black"/>
<path d="M478.32 135.614C478.351 136.212 478.351 136.812 478.32 137.41C478.288 137.902 478.211 138.39 478.09 138.868C477.946 139.355 477.745 139.824 477.491 140.264C477.214 140.739 476.879 141.177 476.494 141.569C476.078 141.983 475.608 142.339 475.097 142.628C474.669 142.894 474.196 143.081 473.701 143.18C473.365 143.24 473.02 143.186 472.718 143.027C472.449 142.855 472.239 142.603 472.12 142.306C471.973 141.928 471.89 141.529 471.874 141.124C471.86 140.838 471.86 140.551 471.874 140.264C471.874 139.988 471.874 139.681 471.874 139.328C471.904 138.835 471.986 138.346 472.12 137.87C472.264 137.378 472.465 136.904 472.718 136.458C472.986 135.986 473.316 135.552 473.701 135.169C474.117 134.755 474.586 134.399 475.097 134.11C475.526 133.844 475.999 133.657 476.494 133.558C476.829 133.499 477.175 133.553 477.476 133.711C477.746 133.883 477.955 134.136 478.075 134.433C478.221 134.81 478.304 135.21 478.32 135.614ZM483.446 129.859C483.53 129.683 483.627 129.514 483.738 129.353C483.861 129.203 484.012 129.078 484.183 128.984L485.871 128.002C485.974 127.931 486.101 127.904 486.224 127.926C486.316 127.926 486.362 128.048 486.362 128.202C486.362 128.355 486.362 128.202 486.362 128.325C486.368 128.386 486.368 128.447 486.362 128.509L476.233 149.749C476.149 149.925 476.052 150.094 475.941 150.255C475.821 150.408 475.669 150.534 475.496 150.624L473.808 151.606C473.758 151.642 473.7 151.667 473.639 151.68C473.579 151.693 473.516 151.694 473.455 151.682C473.363 151.682 473.317 151.56 473.317 151.406C473.312 151.365 473.312 151.324 473.317 151.283C473.31 151.222 473.31 151.161 473.317 151.099L483.446 129.859ZM474.238 139.635C474.235 139.916 474.309 140.192 474.453 140.433C474.575 140.571 474.775 140.556 475.082 140.433C475.356 140.278 475.576 140.042 475.711 139.758C475.835 139.423 475.907 139.071 475.926 138.714C475.956 138.203 475.956 137.691 475.926 137.18C475.929 136.899 475.854 136.623 475.711 136.382C475.588 136.244 475.389 136.259 475.082 136.382C474.808 136.537 474.588 136.773 474.453 137.057C474.329 137.392 474.257 137.744 474.238 138.1C474.213 138.612 474.219 139.124 474.253 139.635H474.238ZM487.82 138.407C487.866 139.005 487.866 139.605 487.82 140.203C487.794 140.721 487.717 141.235 487.59 141.738C487.443 142.229 487.242 142.703 486.991 143.15C486.717 143.622 486.382 144.055 485.994 144.439C485.574 144.853 485.105 145.214 484.597 145.513C484.169 145.778 483.695 145.96 483.2 146.05C482.865 146.117 482.517 146.063 482.218 145.897C481.948 145.725 481.739 145.472 481.62 145.175C481.482 144.801 481.399 144.408 481.374 144.009C481.374 143.702 481.374 143.411 481.374 143.134C481.374 142.858 481.374 142.551 481.374 142.198C481.411 141.706 481.493 141.218 481.62 140.74C481.764 140.248 481.965 139.774 482.218 139.328C482.493 138.861 482.823 138.428 483.2 138.039C483.62 137.629 484.089 137.273 484.597 136.98C485.026 136.714 485.499 136.527 485.994 136.428C486.329 136.368 486.674 136.422 486.976 136.581C487.246 136.753 487.455 137.006 487.574 137.302C487.717 137.655 487.805 138.028 487.835 138.407H487.82ZM483.753 142.428C483.75 142.709 483.825 142.985 483.968 143.226C484.091 143.364 484.305 143.349 484.597 143.226C484.877 143.079 485.099 142.841 485.226 142.551C485.358 142.218 485.431 141.865 485.441 141.508C485.485 140.997 485.485 140.483 485.441 139.973C485.45 139.691 485.375 139.414 485.226 139.175C485.103 139.037 484.904 139.052 484.597 139.175C484.323 139.33 484.103 139.566 483.968 139.85C483.846 140.186 483.773 140.537 483.753 140.894C483.728 141.405 483.734 141.917 483.768 142.428H483.753Z" fill="#FAFAFA"/>
<path d="M242.868 341.999V428.387L317.684 385.185V298.813L242.868 341.999Z" fill="#BA68C8"/>
<path opacity="0.7" d="M242.868 341.999V428.387L317.684 385.185V298.813L242.868 341.999Z" fill="#FAFAFA"/>
<path d="M242.868 364.835C245.4 365.818 248.669 365.419 252.23 363.301C260.287 358.697 266.825 347.325 266.825 338.024C267.019 334.999 266.01 332.02 264.016 329.737L242.868 341.938V364.835Z" fill="#BA68C8"/>
<path d="M275.818 366.968C276.555 364.544 278.013 364.436 279.072 366.754L289.63 389.774L305.361 330.213C306.021 327.757 307.11 327.742 307.786 330.213L317.684 365.372V385.201L260.18 418.411L275.818 366.968Z" fill="#BA68C8"/>
<g opacity="0.2">
<path d="M242.868 364.836C245.4 365.818 248.669 365.419 252.23 363.301C260.287 358.697 266.825 347.325 266.825 338.025C267.019 335 266.01 332.021 264.016 329.737L242.868 341.938V364.836Z" fill="black"/>
<path d="M275.818 366.969C276.555 364.544 278.013 364.436 279.072 366.754L289.63 389.774L305.361 330.213C306.021 327.757 307.11 327.742 307.786 330.213L317.684 365.373V385.201L260.18 418.411L275.818 366.969Z" fill="black"/>
</g>
<path d="M316.15 301.529V384.403L244.403 425.839V342.966L316.15 301.529ZM317.684 298.874L242.868 342.061V428.448L317.684 385.247V298.813V298.874Z" fill="#BA68C8"/>
<path opacity="0.7" d="M316.15 301.529V384.403L244.403 425.839V342.966L316.15 301.529ZM317.684 298.874L242.868 342.061V428.448L317.684 385.247V298.813V298.874Z" fill="#FAFAFA"/>
<path d="M342.624 284.418V370.79L417.424 327.604V241.232L342.624 284.418Z" fill="#BA68C8"/>
<path opacity="0.7" d="M342.624 284.418V370.79L417.424 327.604V241.232L342.624 284.418Z" fill="#FAFAFA"/>
<path d="M342.624 307.254C345.156 308.236 348.409 307.822 351.97 305.719C360.027 301.115 366.565 289.743 366.565 280.428C366.757 277.408 365.747 274.434 363.756 272.156L342.624 284.357V307.254Z" fill="#BA68C8"/>
<path d="M375.557 309.387C376.309 306.947 377.767 306.855 378.826 309.157L389.37 332.177L405.116 272.616C405.76 270.16 406.85 270.145 407.54 272.616L417.424 307.76V327.619L359.919 360.815L375.557 309.387Z" fill="#BA68C8"/>
<g opacity="0.2">
<path d="M342.624 307.254C345.156 308.236 348.409 307.822 351.97 305.719C360.027 301.115 366.565 289.743 366.565 280.428C366.757 277.408 365.747 274.434 363.756 272.156L342.624 284.357V307.254Z" fill="black"/>
<path d="M375.557 309.387C376.309 306.947 377.767 306.855 378.826 309.157L389.37 332.177L405.116 272.616C405.76 270.16 406.85 270.145 407.54 272.616L417.424 307.76V327.619L359.919 360.815L375.557 309.387Z" fill="black"/>
</g>
<path d="M415.89 243.887V326.76L344.158 368.196V285.323L415.89 243.887ZM417.424 241.216L342.624 284.418V370.79L417.424 327.619V241.216Z" fill="#BA68C8"/>
<path opacity="0.7" d="M415.89 243.887V326.76L344.158 368.196V285.323L415.89 243.887ZM417.424 241.216L342.624 284.418V370.79L417.424 327.619V241.216Z" fill="#FAFAFA"/>
<path d="M442.363 226.821V313.209L517.164 270.022V183.635L442.363 226.821Z" fill="#BA68C8"/>
<path opacity="0.7" d="M442.363 226.821V313.209L517.164 270.022V183.635L442.363 226.821Z" fill="#FAFAFA"/>
<path d="M442.363 249.672C444.895 250.655 448.149 250.24 451.709 248.138C459.766 243.534 466.304 232.177 466.304 222.861C466.495 219.837 465.486 216.859 463.495 214.574L442.363 226.775V249.672Z" fill="#BA68C8"/>
<path d="M475.297 251.79C476.049 249.365 477.507 249.273 478.566 251.575L489.109 274.596L504.855 215.019C505.5 212.564 506.589 212.564 507.28 215.019L517.163 250.179V270.022L459.659 303.218L475.297 251.79Z" fill="#BA68C8"/>
<g opacity="0.2">
<path d="M442.363 249.672C444.895 250.655 448.149 250.24 451.709 248.138C459.766 243.534 466.304 232.177 466.304 222.861C466.495 219.837 465.486 216.859 463.495 214.574L442.363 226.775V249.672Z" fill="black"/>
<path d="M475.297 251.79C476.049 249.365 477.507 249.273 478.566 251.575L489.109 274.595L504.855 215.019C505.5 212.563 506.589 212.563 507.28 215.019L517.163 250.179V270.022L459.659 303.217L475.297 251.79Z" fill="black"/>
</g>
<path d="M515.629 186.29V269.163L443.897 310.6V227.726L515.629 186.29ZM517.164 183.635L442.363 226.821V313.209L517.164 270.022V183.635Z" fill="#BA68C8"/>
<path opacity="0.7" d="M515.629 186.29V269.163L443.897 310.6V227.726L515.629 186.29ZM517.164 183.635L442.363 226.821V313.209L517.164 270.022V183.635Z" fill="#FAFAFA"/>
<path d="M507.817 213.193L529.855 219.071L522.427 223.26L535.902 233.128L534.152 235.83L520.279 225.9L518.437 234.003L507.817 213.193Z" fill="#263238"/>
<path d="M622.273 158.911L574.146 186.689C572.984 187.445 572.017 188.464 571.324 189.664C570.631 190.864 570.23 192.211 570.155 193.595V232.469L557.878 245.145C556.113 246.971 556.727 248.215 559.244 247.908L570.094 246.634V263.607C570.094 266.14 571.874 267.183 574.084 265.909L622.212 238.116C623.374 237.361 624.342 236.342 625.035 235.142C625.729 233.941 626.129 232.594 626.202 231.21V161.213C626.264 158.665 624.483 157.637 622.273 158.911Z" fill="#37474F"/>
<path d="M586.193 201.36L584.167 201.207C581.497 200.992 578.32 199.933 578.32 196.112C578.398 194.705 578.805 193.335 579.508 192.115C580.212 190.894 581.193 189.855 582.372 189.083C584.121 188.085 585.61 188.5 586.178 189.942C586.757 187.784 588.112 185.915 589.984 184.694C592.225 183.405 594.036 184.448 594.036 187.042C594.036 190.786 590.874 195.529 588.219 198.844L586.193 201.36Z" fill="#FAFAFA"/>
<path d="M605.315 179.445L616.058 173.306C618.252 172.033 620.048 172.616 620.048 174.611C619.882 175.834 619.435 177.003 618.743 178.025C618.051 179.047 617.132 179.896 616.058 180.504L605.315 186.643C603.105 187.917 601.325 187.333 601.325 185.338C601.487 184.114 601.932 182.944 602.625 181.921C603.318 180.898 604.238 180.051 605.315 179.445Z" fill="#FAFAFA"/>
<path d="M582.295 213.853L593.038 207.714C595.248 206.44 597.028 207.024 597.028 209.003C596.868 210.231 596.424 211.403 595.731 212.429C595.039 213.455 594.116 214.305 593.038 214.912L582.295 221.051C580.101 222.324 578.32 221.741 578.32 219.762C578.481 218.537 578.924 217.366 579.614 216.34C580.303 215.315 581.221 214.464 582.295 213.853Z" fill="#FAFAFA"/>
<path d="M582.295 228.862L616.058 209.387C618.253 208.113 620.049 208.696 620.049 210.676C619.885 211.902 619.439 213.074 618.747 214.099C618.055 215.124 617.134 215.975 616.058 216.585L582.295 236.06C580.101 237.334 578.32 236.75 578.32 234.771C578.481 233.546 578.924 232.375 579.614 231.349C580.303 230.324 581.221 229.473 582.295 228.862Z" fill="#FAFAFA"/>
<path d="M582.295 242.874L616.058 223.399C618.253 222.125 620.049 222.708 620.049 224.703C619.882 225.926 619.436 227.095 618.744 228.117C618.052 229.139 617.133 229.988 616.058 230.596L582.295 250.071C580.101 251.345 578.32 250.762 578.32 248.782C578.481 247.557 578.924 246.386 579.614 245.361C580.303 244.336 581.221 243.485 582.295 242.874Z" fill="#FAFAFA"/>
<path d="M77.6743 523.722L152.475 566.908L227.291 523.722L152.475 480.52L77.6743 523.722Z" fill="#BA68C8"/>
<path opacity="0.7" d="M77.6743 523.722L152.475 566.908L227.291 523.722L152.475 480.52L77.6743 523.722Z" fill="#FAFAFA"/>
<path d="M97.4565 535.14C101.911 534.991 106.27 533.815 110.194 531.702C118.251 527.098 118.251 519.425 110.194 514.821C106.681 512.906 102.798 511.771 98.807 511.49L77.6743 523.722L97.4565 535.14Z" fill="#BA68C8"/>
<path d="M148.715 526.699C147.718 525.257 149.82 524.796 153.411 525.64L189.246 534.112L161.269 499.781C160.118 498.369 161.729 498.047 164.891 499.075L210.179 513.808L227.353 523.722L169.848 556.917L148.715 526.699Z" fill="#BA68C8"/>
<g opacity="0.2">
<path d="M97.4565 535.14C101.911 534.991 106.27 533.815 110.194 531.702C118.251 527.098 118.251 519.425 110.194 514.821C106.681 512.906 102.798 511.771 98.807 511.49L77.6743 523.722L97.4565 535.14Z" fill="black"/>
<path d="M148.715 526.699C147.718 525.257 149.82 524.796 153.411 525.64L189.246 534.112L161.269 499.781C160.118 498.369 161.729 498.047 164.891 499.075L210.179 513.808L227.353 523.722L169.848 556.917L148.715 526.699Z" fill="black"/>
</g>
<path d="M152.414 482.301L224.16 523.737L152.414 565.174L80.6823 523.737L152.414 482.301ZM152.414 480.536L77.6743 523.722L152.414 566.908L227.23 523.722L152.414 480.536Z" fill="#BA68C8"/>
<path opacity="0.7" d="M152.414 482.301L224.16 523.737L152.414 565.174L80.6823 523.737L152.414 482.301ZM152.414 480.536L77.6743 523.722L152.414 566.908L227.23 523.722L152.414 480.536Z" fill="#FAFAFA"/>
<path d="M77.6743 523.722V530.92L152.475 574.106V566.908L77.6743 523.722Z" fill="#BA68C8"/>
<path opacity="0.6" d="M77.6743 523.722V530.92L152.475 574.106V566.908L77.6743 523.722Z" fill="#FAFAFA"/>
<path d="M227.291 523.722L152.475 566.908V574.106L227.291 530.92V523.722Z" fill="#BA68C8"/>
<path opacity="0.1" d="M227.291 523.722L152.475 566.908V574.106L227.291 530.92V523.722Z" fill="#FAFAFA"/>
<path d="M657.434 361.873L582.618 318.687L507.817 361.873L582.618 405.06L657.434 361.873Z" fill="#263238"/>
<path d="M582.618 318.687L507.817 361.873V419.455L582.618 462.656V318.687Z" fill="#263238"/>
<path d="M526.525 430.259L514.063 343.887L588.864 300.701L601.341 387.073L526.525 430.259Z" fill="#BA68C8"/>
<path opacity="0.7" d="M526.525 430.259L514.063 343.887L588.864 300.701L601.341 387.073L526.525 430.259Z" fill="#FAFAFA"/>
<path d="M514.063 343.887L506.85 342.321L518.913 425.87L526.525 430.259L514.063 343.887Z" fill="#BA68C8"/>
<path opacity="0.1" d="M514.063 343.887L506.85 342.321L518.913 425.87L526.525 430.259L514.063 343.887Z" fill="#FAFAFA"/>
<path d="M581.666 299.135L588.864 300.701L514.063 343.887L506.85 342.321L581.666 299.135Z" fill="#BA68C8"/>
<path opacity="0.6" d="M581.666 299.135L588.864 300.701L514.063 343.887L506.85 342.321L581.666 299.135Z" fill="#FAFAFA"/>
<path d="M536.377 343.242C535.991 341.438 535.211 339.74 534.095 338.271C532.978 336.802 531.551 335.596 529.916 334.74L514.063 343.948L516.426 360.308C517.929 361.073 519.568 361.53 521.249 361.654C522.931 361.778 524.62 361.565 526.218 361.029C529.804 359.836 532.825 357.361 534.699 354.079C536.574 350.797 537.172 346.938 536.377 343.242Z" fill="#BA68C8"/>
<path opacity="0.2" d="M536.377 343.242C535.991 341.438 535.211 339.74 534.095 338.271C532.978 336.802 531.551 335.596 529.916 334.74L514.063 343.948L516.426 360.308C517.929 361.073 519.568 361.53 521.249 361.654C522.931 361.778 524.62 361.565 526.218 361.029C529.804 359.836 532.825 357.361 534.699 354.079C536.574 350.797 537.172 346.938 536.377 343.242Z" fill="black"/>
<path d="M553.305 346.849C553.781 344.347 555.07 344.178 556.19 346.465L567.209 369.056L575.619 320.698C576.049 318.196 577.369 317.981 578.566 320.222L596.537 353.816L601.341 387.042L539.001 423.061C538.879 422.386 550.067 363.761 553.305 346.849Z" fill="#BA68C8"/>
<path opacity="0.2" d="M553.305 346.849C553.781 344.347 555.07 344.178 556.19 346.465L567.209 369.056L575.619 320.698C576.049 318.196 577.369 317.981 578.566 320.222L596.537 353.816L601.341 387.042L539.001 423.061C538.879 422.386 550.067 363.761 553.305 346.849Z" fill="black"/>
<path d="M587.667 303.156L599.668 386.26L527.722 427.804L515.72 344.7L587.667 303.156ZM588.864 300.701L514.063 343.887L526.525 430.259L601.341 387.073L588.864 300.701Z" fill="#BA68C8"/>
<path opacity="0.7" d="M587.667 303.156L599.668 386.26L527.722 427.804L515.72 344.7L587.667 303.156ZM588.864 300.701L514.063 343.887L526.525 430.259L601.341 387.073L588.864 300.701Z" fill="#FAFAFA"/>
<path d="M551.463 444.655L538.986 358.282L613.802 315.096L626.264 401.468L551.463 444.655Z" fill="#BA68C8"/>
<path opacity="0.7" d="M551.463 444.655L538.986 358.282L613.802 315.096L626.264 401.468L551.463 444.655Z" fill="#FAFAFA"/>
<path d="M538.986 358.282L531.789 356.717L543.851 440.265L551.463 444.654L538.986 358.282Z" fill="#BA68C8"/>
<path opacity="0.1" d="M538.986 358.282L531.789 356.717L543.851 440.265L551.463 444.654L538.986 358.282Z" fill="#FAFAFA"/>
<path d="M606.589 313.531L613.802 315.096L538.986 358.282L531.789 356.717L606.589 313.531Z" fill="#BA68C8"/>
<path opacity="0.6" d="M606.589 313.531L613.802 315.096L538.986 358.282L531.789 356.717L606.589 313.531Z" fill="#FAFAFA"/>
<path d="M561.301 357.638C560.917 355.83 560.139 354.129 559.022 352.657C557.905 351.184 556.477 349.977 554.84 349.12L538.986 358.328L541.35 374.688C542.852 375.452 544.492 375.91 546.173 376.034C547.854 376.158 549.543 375.945 551.141 375.409C554.725 374.216 557.742 371.744 559.617 368.465C561.491 365.186 562.091 361.331 561.301 357.638Z" fill="#BA68C8"/>
<path opacity="0.2" d="M561.301 357.638C560.917 355.83 560.139 354.129 559.022 352.657C557.905 351.184 556.477 349.977 554.84 349.12L538.986 358.328L541.35 374.688C542.852 375.452 544.492 375.91 546.173 376.034C547.854 376.158 549.543 375.945 551.141 375.409C554.725 374.216 557.742 371.744 559.617 368.465C561.491 365.186 562.091 361.331 561.301 357.638Z" fill="black"/>
<path d="M578.244 361.244C578.72 358.743 580.009 358.574 581.129 360.86L592.148 383.466L600.543 335.124C600.973 332.607 602.308 332.407 603.505 334.648L621.476 368.242L626.264 401.468L563.925 437.457C563.803 436.781 575.006 378.156 578.244 361.244Z" fill="#BA68C8"/>
<path opacity="0.2" d="M578.244 361.244C578.72 358.743 580.009 358.574 581.129 360.86L592.148 383.466L600.543 335.124C600.973 332.607 602.308 332.407 603.505 334.648L621.476 368.242L626.264 401.468L563.925 437.457C563.803 436.781 575.006 378.156 578.244 361.244Z" fill="black"/>
<path d="M612.605 317.552L624.607 400.655L552.66 442.199L540.69 359.096L612.636 317.552M613.833 315.096L538.986 358.313L551.433 444.655L626.233 401.468L613.772 315.096H613.833Z" fill="#BA68C8"/>
<path opacity="0.7" d="M612.605 317.552L624.607 400.655L552.66 442.199L540.69 359.096L612.636 317.552M613.833 315.096L538.986 358.313L551.433 444.655L626.233 401.468L613.772 315.096H613.833Z" fill="#FAFAFA"/>
<path d="M582.617 462.656L657.433 419.47V361.873L582.617 405.059V462.656Z" fill="#37474F"/>
<path d="M582.633 405.059L507.817 361.873V419.455L582.633 462.672V405.059ZM550.589 400.962L539.846 394.823C538.767 394.216 537.845 393.366 537.153 392.34C536.46 391.315 536.016 390.142 535.856 388.915C535.856 386.919 537.636 386.352 539.846 387.61L550.589 393.749C551.665 394.359 552.585 395.21 553.277 396.235C553.97 397.26 554.415 398.431 554.579 399.657C554.579 401.652 552.783 402.236 550.589 400.962Z" fill="#455A64"/>
<path d="M657.443 361.867L582.629 405.061L601.33 437.45L676.143 394.256L657.443 361.867Z" fill="#455A64"/>
<path d="M507.817 376.269L501.586 379.875L507.817 361.873V376.269Z" fill="#263238"/>
<path d="M240.367 94.4694L235.548 96.3263V85.6909C235.548 77.2655 228.811 75.2397 221.506 79.4601C214.201 83.6652 208.292 93.9322 208.292 102.358V103.892C207.264 103.575 206.176 103.495 205.113 103.66C204.049 103.825 203.037 104.23 202.153 104.844C199.378 106.646 197.068 109.078 195.412 111.943C193.756 114.807 192.8 118.022 192.623 121.326V122.032L185.901 125.915C184.073 127.101 182.552 128.701 181.461 130.587C180.37 132.473 179.74 134.59 179.624 136.765C179.624 140.771 182.433 142.382 185.901 140.387L240.367 108.941C242.197 107.755 243.72 106.151 244.811 104.263C245.902 102.374 246.53 100.254 246.644 98.0759C246.644 94.101 243.835 92.4743 240.367 94.4694Z" fill="#F0F0F0"/>
<path d="M347.596 505.536L347.319 496.251L354.993 494.931L355.438 502.85C355.806 504.692 357.111 505.29 357.448 506.334C357.786 507.378 352.2 517.998 349.069 520.346C345.938 522.694 340.843 519.686 340.352 518.565C339.861 517.445 344.542 518.274 345.309 516.647C346.353 514.468 347.596 505.536 347.596 505.536Z" fill="#FFA8A7"/>
<path d="M356.129 504.385C355.116 505.229 354.348 507.362 352.952 510.278C351.555 513.194 349.576 517.951 347.412 518.58C344.895 519.378 339.953 517.936 343.099 517.69C343.79 517.69 345.002 517.383 345.324 516.647C345.448 516.391 345.546 516.124 345.616 515.849C344.527 516.144 343.395 516.248 342.27 516.156C341.435 516.026 340.581 516.134 339.804 516.468C339.028 516.802 338.362 517.348 337.881 518.043C337.359 518.826 338.203 520.146 338.203 520.146C339.17 521.328 340.966 522.509 345.11 522.816C349.253 523.123 351.709 522.525 353.197 519.747C355.115 516.642 357.216 513.654 359.49 510.8C361.04 508.421 358.538 505.014 356.129 504.385Z" fill="#263238"/>
<path d="M345.57 516.018C345.324 516.647 343.498 516.846 342.592 516.969C341.687 517.092 341.242 517.936 342.715 518.412C345.263 518.673 346.521 515.972 345.57 516.018Z" fill="#FFA8A7"/>
<path d="M420.355 475.518L413.971 468.811L418.851 462.672L424.437 468.305C425.972 469.44 427.322 469.026 428.259 469.578C429.195 470.131 432.08 481.856 431.328 485.631C430.576 489.407 424.744 490.588 423.655 490.067C422.565 489.545 426.601 487.074 426.095 485.355C425.343 483.022 420.355 475.518 420.355 475.518Z" fill="#FFA8A7"/>
<path d="M425.972 468.995C425.773 470.299 426.601 472.402 427.507 475.502C428.412 478.602 430.055 483.467 428.873 485.401C427.522 487.657 422.872 489.867 425.067 487.595C425.543 487.089 426.279 486.061 426.034 485.339C425.956 485.064 425.854 484.797 425.727 484.541C425.1 485.486 424.316 486.316 423.409 486.997C422.698 487.449 422.131 488.095 421.774 488.859C421.418 489.624 421.288 490.474 421.399 491.309C421.522 492.245 423.026 492.675 423.026 492.675C424.56 492.921 426.663 492.598 429.962 490.097C433.262 487.595 434.705 485.493 433.953 482.423C433.331 478.828 432.916 475.2 432.71 471.558C432.326 468.811 428.182 467.859 425.972 468.995Z" fill="#263238"/>
<path d="M425.788 484.695C426.018 485.339 424.775 486.69 424.177 487.396C423.578 488.102 423.809 489.007 425.236 488.378C427.323 486.889 426.464 484.035 425.788 484.695Z" fill="#FFA8A7"/>
<path d="M368.636 333.328C370.677 326.238 369.388 321.926 367.823 315.787C364.938 304.553 362.206 293.273 362.206 293.273C362.206 293.273 360.165 250.486 360.073 246.588C359.965 241.984 359.075 239.405 358.692 235.507C358.477 233.297 356.896 233.067 357.049 233.144V241.8C355.634 240.536 354.297 239.188 353.044 237.763C351.601 236.029 350.143 236.229 349.683 237.103C349.222 237.978 351.601 239.682 352.752 241.938C354.049 244.192 355.489 246.36 357.065 248.429V271.818L350.926 275.379L349.729 297.724L359.275 332.484L368.636 333.328Z" fill="#FFA8A7"/>
<path d="M340.781 318.641L342.101 330.274L353.565 331.594L351.908 316.155L340.781 318.641Z" fill="#FFA8A7"/>
<path d="M282.233 228.632V315.004L357.049 271.818V185.431L282.233 228.632Z" fill="#BA68C8"/>
<path opacity="0.7" d="M282.233 228.632V315.004L357.049 271.818V185.431L282.233 228.632Z" fill="#FAFAFA"/>
<path d="M282.233 251.468C284.765 252.45 288.034 252.036 291.595 249.933C299.652 245.329 306.189 233.957 306.189 224.642C306.377 221.618 305.369 218.641 303.381 216.354L282.233 228.632V251.468Z" fill="#BA68C8"/>
<path opacity="0.2" d="M282.233 251.468C284.765 252.45 288.034 252.036 291.595 249.933C299.652 245.329 306.189 233.957 306.189 224.642C306.377 221.618 305.369 218.641 303.381 216.354L282.233 228.632V251.468Z" fill="black"/>
<path d="M315.183 253.601C315.92 251.161 317.378 251.069 318.436 253.371L328.995 276.392L344.741 216.83C345.386 214.375 346.475 214.359 347.151 216.83L357.049 251.99V271.834L299.544 305.029L315.183 253.601Z" fill="#BA68C8"/>
<path opacity="0.2" d="M315.183 253.601C315.92 251.161 317.378 251.069 318.436 253.371L328.995 276.392L344.741 216.83C345.386 214.375 346.475 214.359 347.151 216.83L357.049 251.99V271.834L299.544 305.029L315.183 253.601Z" fill="black"/>
<path d="M355.514 188.101V270.974L283.768 312.411V229.538L355.514 188.101ZM357.049 185.431L282.233 228.632V315.004L357.049 271.818V185.431Z" fill="#BA68C8"/>
<path opacity="0.7" d="M355.514 188.101V270.974L283.768 312.411V229.538L355.514 188.101ZM357.049 185.431L282.233 228.632V315.004L357.049 271.818V185.431Z" fill="#FAFAFA"/>
<path d="M282.233 315.004L276.002 311.413V225.025L282.233 228.632V315.004Z" fill="#BA68C8"/>
<path opacity="0.1" d="M282.233 315.004L276.002 311.413V225.025L282.233 228.632V315.004Z" fill="#FAFAFA"/>
<path d="M276.002 225.025L350.803 181.839L357.049 185.431L282.233 228.632L276.002 225.025Z" fill="#BA68C8"/>
<path opacity="0.6" d="M276.002 225.025L350.803 181.839L357.049 185.431L282.233 228.632L276.002 225.025Z" fill="#FAFAFA"/>
<path d="M368.636 333.329C368.437 334.326 367.976 336.29 367.101 339.605C365.413 345.744 362.866 354.446 361.776 357.346C361.776 357.469 361.684 357.577 361.638 357.669L366.165 365.035C366.165 365.035 363.096 368.795 354.103 371.42C345.109 374.044 334.152 368.718 334.152 368.718C334.152 368.718 331.834 356.564 331.405 353.157C331.405 352.957 331.405 352.65 331.282 352.297C331.19 351.576 331.098 350.931 330.959 350.333C330.959 350.333 330.959 350.225 330.959 350.164C330.791 349.427 330.668 348.445 330.453 347.356C330.208 345.478 329.523 343.684 328.454 342.121C327.385 340.558 325.961 339.27 324.299 338.362C323.025 337.672 296.582 327.205 292.408 324.658C291.341 324.107 290.408 323.327 289.676 322.375C288.944 321.423 288.431 320.321 288.172 319.148C287.589 317.537 279.547 290.986 278.596 288.347C277.79 286.146 276.438 284.187 274.667 282.653C272.58 280.412 271.843 279.906 271.199 277.896C270.554 275.885 271.367 275.394 271.69 274.397C272.135 273.015 271.69 272.048 271.935 271.005C272.319 269.7 273.117 269.363 273.317 268.78C273.416 267.744 273.595 266.718 273.854 265.71C274.272 264.74 275.023 263.951 275.972 263.485V266.554C277.123 271.266 282.294 273.583 282.954 273.245C283.614 272.908 284.581 270.176 286.024 269.04C287.466 267.905 289.461 268.012 288.725 269.439C288.31 270.268 287.359 273.353 286.868 274.719C286.377 276.085 284.919 278.955 285.241 281.149C285.655 284.08 299.283 314.298 299.283 314.298C299.283 314.298 314.093 319.148 325.849 322.801C333.139 325.072 339.139 326.468 339.139 326.468L342.777 325.824L344.142 325.578L361.853 322.325L362.497 322.202C363.078 322.126 363.666 322.126 364.247 322.202C365.06 322.442 365.813 322.85 366.459 323.4C367.104 323.95 367.626 324.629 367.991 325.394C369.134 327.881 369.362 330.69 368.636 333.329Z" fill="#FFA8A7"/>
<path d="M342.976 374.903C342.976 374.903 365.26 429.323 367.286 434.296C368.565 437.929 371.08 440.998 374.391 442.967C377.368 445.038 416.181 471.757 416.181 471.757C422.12 469.286 422.243 465.419 422.243 465.419C422.243 465.419 402.2 439.866 397.964 436.183C393.728 432.5 385.886 430.628 385.886 430.628L376.018 389.191C374.698 382.837 375.511 375.809 366.058 364.989L342.976 374.903Z" fill="#37474F"/>
<path d="M349.944 371.864C354.548 378.249 358.768 383.866 359.965 391.217C362.482 406.763 356.389 425.732 355.653 437.334C357.864 440.835 359.211 444.812 359.581 448.936C359.796 453.709 355.591 497.647 355.591 497.647C352.993 499.082 349.994 499.621 347.058 499.182C347.058 499.182 337.697 435.692 335.901 415.05C334.106 394.409 334.06 368.78 334.06 368.78L349.944 371.864Z" fill="#37474F"/>
<path d="M333.384 301.345C332.788 299.707 332.615 297.944 332.884 296.221C333.152 294.498 333.852 292.872 334.919 291.492C339.293 285.584 347.611 283.067 356.405 286.121C360.778 287.656 366.119 292.628 365.981 303.417C365.889 310.031 347.196 313.592 347.289 318.135L333.384 301.345Z" fill="#263238"/>
<path d="M332.816 303.816C332.816 303.816 330.039 307.638 330.361 308.083C330.95 308.508 331.61 308.825 332.31 309.019L332.816 303.816Z" fill="#F28F8F"/>
<path d="M341.334 291.677C338.74 292.874 334.259 295.099 332.709 304.384C331.174 313.93 332.709 317.061 333.921 318.381C334.765 319.271 339.523 319.485 341.917 318.856C344.987 318.058 351.739 315.787 354.977 310.922C358.783 305.259 359.858 297.539 355.898 294.317C353.89 292.684 351.502 291.586 348.955 291.125C346.409 290.663 343.787 290.853 341.334 291.677Z" fill="#FFA8A7"/>
<path d="M334.06 368.734L366.119 365.035C368.375 368.734 373.793 375.057 372.642 381.134C371.245 388.485 367.286 393.657 355.177 397.264" fill="#37474F"/>
<path d="M365.736 344.317C364.109 350.348 362.774 354.599 361.745 357.346C361.745 357.469 361.653 357.576 361.607 357.668L366.135 365.035C366.135 365.035 363.065 368.795 354.072 371.419C345.079 374.044 334.121 368.718 334.121 368.718C334.121 368.718 331.804 356.563 331.374 353.156C331.374 352.957 331.374 352.65 331.251 352.297C331.128 351.944 331.052 351.039 330.929 350.333C330.929 350.333 330.929 350.225 330.929 350.164C330.729 348.951 330.514 347.77 330.422 347.355C341.979 342.199 339.262 326.422 339.262 326.422L342.899 325.778L344.265 325.532C349.56 324.596 353.335 323.89 358.077 322.954C358.262 322.908 368.375 334.495 365.736 344.317Z" fill="#FAFAFA"/>
<path d="M362.666 354.553C358.991 356.904 355.113 358.922 351.08 360.585C354.773 360.508 358.387 359.505 361.592 357.669L362.666 354.553Z" fill="#F0F0F0"/>
<path d="M340.567 292.045C340.567 292.045 337.973 300.686 340.367 306.333C340.367 306.333 342.071 302.988 344.971 304.108C347.872 305.228 347.442 309.142 344.971 311.045C344.355 311.594 343.595 311.958 342.78 312.094C341.965 312.23 341.129 312.132 340.367 311.812C340.494 314.616 341.515 317.306 343.283 319.486C346.321 320.521 349.589 320.676 352.712 319.935C355.834 319.194 358.684 317.586 360.932 315.296C368.345 308.037 368.038 294.424 357.74 290.48C347.442 286.536 340.567 292.045 340.567 292.045Z" fill="#263238"/>
<path d="M359.213 414.575L361.837 393.473C361.837 393.473 369.511 390.557 372.81 386.045C371.327 389.958 368.64 393.301 365.137 395.591C364.615 396.251 360.533 417.89 360.533 417.89L359.213 414.575Z" fill="#263238"/>
<path d="M370.846 300.716C367.285 302.251 364.6 299.427 362.651 294.915C360.701 290.403 360.272 285.891 363.817 284.357C367.362 282.822 371.644 285.707 373.578 290.219C375.511 294.731 374.391 299.182 370.846 300.716Z" fill="#263238"/>
<path d="M357.049 241.8C355.996 241.19 355.093 240.351 354.409 239.344C353.335 237.81 351.8 237.073 350.88 237.595C350.204 237.963 351.002 239.13 351.509 240.096C352.255 241.97 353.291 243.716 354.578 245.268C356.006 246.588 357.034 246.91 357.034 248.43C357.817 247.543 358.229 246.389 358.185 245.207C358.171 243.981 357.774 242.789 357.049 241.8Z" fill="#FFA8A7"/>
</svg>
