<svg width="263" height="294" viewBox="0 0 263 294" fill="none" xmlns="http://www.w3.org/2000/svg">
<path d="M190.501 35.4399H92.5537V38.4956H190.501V35.4399Z" fill="white" fill-opacity="0.3"/>
<path d="M190.501 43.3848H92.5537V46.4405H190.501V43.3848Z" fill="white" fill-opacity="0.3"/>
<path d="M190.501 51.3297H92.5537V54.3854H190.501V51.3297Z" fill="white" fill-opacity="0.3"/>
<path d="M190.501 103.661H92.5537V106.716H190.501V103.661Z" fill="white" fill-opacity="0.3"/>
<path d="M190.501 111.605H92.5537V114.661H190.501V111.605Z" fill="white" fill-opacity="0.3"/>
<path d="M190.501 119.55H92.5537V122.606H190.501V119.55Z" fill="white" fill-opacity="0.3"/>
<path d="M190.501 171.881H92.5537V174.937H190.501V171.881Z" fill="white" fill-opacity="0.3"/>
<path d="M190.501 179.826H92.5537V182.882H190.501V179.826Z" fill="white" fill-opacity="0.3"/>
<path d="M190.501 187.771H92.5537V190.827H190.501V187.771Z" fill="white" fill-opacity="0.3"/>
<path d="M53.3427 59.7862C51.6695 58.903 49.9229 58.1669 48.1226 57.5861L47.8931 55.0429L38.5833 54.0383L37.4001 57.2889L34.059 58.5446C33.9394 58.59 33.8256 58.6494 33.7199 58.7215H33.7163C33.5299 58.8477 33.3711 59.0106 33.2496 59.2004C33.1282 59.3901 33.0466 59.6027 33.01 59.825C32.9743 60.0462 32.9827 60.2722 33.0348 60.49L33.2114 61.2151C33.4656 61.3672 33.727 61.5123 33.9883 61.6502L34.1544 61.7351C34.5358 61.9332 34.9243 62.1206 35.3234 62.294C35.4046 62.3293 35.4929 62.3647 35.5741 62.4001C35.5812 62.4036 35.5847 62.4036 35.5917 62.4072C35.779 62.485 35.9661 62.5592 36.1569 62.63C36.7834 62.8696 37.4224 63.0751 38.0711 63.2454C39.7267 63.6874 41.4329 63.9109 43.1463 63.9104C43.7715 63.9104 44.3895 63.8821 45.0005 63.822C46.3966 63.6929 47.7749 63.4143 49.1116 62.9908C49.1151 62.9908 49.1187 62.9873 49.1221 62.9873C49.9666 62.7178 50.7915 62.3904 51.591 62.0075C51.5944 62.0039 51.6015 62.0039 51.6051 62.0004C51.7852 61.9155 51.9583 61.8235 52.1349 61.7351L52.2196 61.6926C52.3608 61.6184 52.5022 61.5441 52.6434 61.4663C52.9966 61.2717 53.3427 61.0666 53.6852 60.8473C53.7806 60.7906 53.8725 60.7305 53.9679 60.6669C54.102 60.5785 54.2362 60.4865 54.3669 60.391C54.0384 60.1788 53.6959 59.9772 53.3427 59.7862Z" fill="white" fill-opacity="0.3"/>
<path d="M35.8708 61.3531L35.288 58.718H33.7658C33.7505 58.7182 33.7351 58.7193 33.7199 58.7215H33.7163C33.1693 58.7679 32.6424 58.9502 32.1836 59.2521C31.8723 59.451 31.5956 59.6995 31.3643 59.9878C31.8163 60.3309 32.286 60.6492 32.7699 60.9534L32.7911 60.964C32.9287 61.0489 33.0701 61.1338 33.2114 61.2151C33.4656 61.3672 33.727 61.5123 33.9883 61.6502L34.1544 61.7351C34.5358 61.9332 34.9244 62.1206 35.3234 62.294C35.4046 62.3293 35.4929 62.3647 35.5742 62.4001C35.5812 62.4036 35.5847 62.4036 35.5918 62.4072C35.779 62.485 35.9662 62.5593 36.1569 62.63L35.8708 61.3531Z" fill="white" fill-opacity="0.3"/>
<path d="M42.873 52.4305C46.5761 52.4305 49.578 49.424 49.578 45.7154C49.578 42.0068 46.5761 39.0003 42.873 39.0003C39.1699 39.0003 36.168 42.0068 36.168 45.7154C36.168 49.424 39.1699 52.4305 42.873 52.4305Z" fill="#FFB8B8"/>
<path d="M38.3717 42.4446C39.0658 43.2673 40.2404 43.4994 41.324 43.5946C43.8573 43.7347 46.3979 43.527 48.875 42.9771C49.0284 44.467 48.61 46.0734 49.4862 47.299C49.8969 45.8152 50.1358 44.2891 50.198 42.7506C50.2634 42.0905 50.1774 41.4242 49.9464 40.8025C49.8229 40.491 49.6146 40.2204 49.3452 40.0214C49.0758 39.8225 48.7561 39.7033 48.4224 39.6773C48.922 39.2978 49.5071 39.0472 50.1262 38.9478L47.9972 37.8763L48.5439 37.3142L44.6895 37.0779L45.8059 36.3676C44.1256 36.1364 42.4258 36.0827 40.7343 36.2073C39.9439 36.2077 39.1685 36.4235 38.4913 36.8318C37.8549 37.2875 37.4871 38.1934 37.8822 38.8626C37.3876 38.9439 36.9219 39.1504 36.5292 39.4624C36.1366 39.7744 35.8299 40.1817 35.6384 40.6456C35.3962 41.383 35.3377 42.1685 35.4681 42.9337C35.6133 44.1614 35.8982 45.3684 36.3172 46.5313L38.3717 42.4446Z" fill="#9C802D"/>
<path d="M61.7281 38.4361C60.7873 35.7294 59.2684 33.2609 57.2771 31.2025C55.2859 29.1442 52.8703 27.5457 50.1988 26.5184C47.5273 25.4911 44.6642 25.0598 41.8092 25.2545C38.9541 25.4493 36.1759 26.2654 33.6681 27.646C31.1604 29.0266 28.9835 30.9384 27.2893 33.2481C25.5952 35.5579 24.4245 38.2099 23.8588 41.0193C23.2932 43.8287 23.3464 46.7279 24.0145 49.5146C24.6826 52.3014 25.9496 54.9086 27.7273 57.1546C27.9039 57.3774 28.0875 57.6003 28.2748 57.816C28.2889 57.8302 28.2995 57.8443 28.3136 57.8585C28.774 58.3897 29.2633 58.8951 29.7793 59.3723C29.9136 59.4962 30.0549 59.6235 30.1961 59.7438C30.4644 59.9843 30.74 60.2142 31.0261 60.4335C31.139 60.5219 31.2485 60.6104 31.3651 60.6953C31.8171 61.0384 32.2869 61.3567 32.7708 61.6609L32.792 61.6715C32.9296 61.7564 33.071 61.8413 33.2123 61.9226C33.4665 62.0747 33.7279 62.2198 33.9892 62.3577L34.1552 62.4426C34.5367 62.6407 34.9252 62.8281 35.3243 63.0015C35.4055 63.0368 35.4938 63.0722 35.575 63.1076C35.5821 63.1111 35.5856 63.1111 35.5926 63.1147C35.7799 63.1925 35.967 63.2668 36.1578 63.3375C36.7843 63.5771 37.4233 63.7826 38.072 63.9529C39.7276 64.3949 41.4338 64.6184 43.1472 64.6179C43.7724 64.6179 44.3904 64.5896 45.0014 64.5295C46.3975 64.4004 47.7758 64.1218 49.1125 63.6983C49.116 63.6983 49.1196 63.6947 49.123 63.6947C49.9675 63.4253 50.7924 63.0979 51.5919 62.715C51.5953 62.7114 51.6024 62.7114 51.606 62.7079C51.786 62.623 51.9592 62.531 52.1358 62.4426L52.2205 62.4001C52.3617 62.3259 52.5031 62.2516 52.6443 62.1738C52.9975 61.9792 53.3436 61.7741 53.6861 61.5548C53.7815 61.4982 53.8734 61.438 53.9688 61.3744C54.1029 61.286 54.2371 61.194 54.3678 61.0985C54.5408 60.9782 54.7139 60.8544 54.8835 60.7271C54.9364 60.6882 54.993 60.6493 55.0459 60.6068C58.3548 58.0915 60.7835 54.5916 61.9839 50.6088C63.1843 46.626 63.0947 42.3648 61.7281 38.4361ZM54.3961 59.7473C54.2795 59.8393 54.1595 59.9277 54.0393 60.009C53.9227 60.0975 53.8063 60.1824 53.6861 60.2602C53.5837 60.3345 53.4813 60.4052 53.3754 60.4724L53.3436 60.4936C53.2659 60.5467 53.1883 60.5962 53.1105 60.6457C52.8173 60.8296 52.5206 61.0065 52.2205 61.1763L52.1251 61.2294C51.9909 61.3036 51.8568 61.3744 51.7226 61.4451C51.7048 61.4557 51.6836 61.4628 51.666 61.4734L51.6448 61.484C51.4753 61.5725 51.3022 61.6574 51.1292 61.7387C50.4614 62.0608 49.7736 62.3396 49.0701 62.5735C48.9782 62.6053 48.8865 62.6372 48.7947 62.6654C47.5295 63.0685 46.2246 63.3341 44.9026 63.4578C44.3234 63.5108 43.7371 63.5391 43.1472 63.5391C41.5266 63.5425 39.9127 63.3307 38.3476 62.9095C37.5443 62.6995 36.7571 62.4324 35.9919 62.1101C35.9529 62.0924 35.9105 62.0783 35.8717 62.0606C35.8294 62.0429 35.7904 62.0288 35.7516 62.0111C35.7092 61.9934 35.6704 61.9757 35.628 61.9545C35.296 61.8095 34.9675 61.6503 34.6462 61.484L34.4908 61.4027C34.0987 61.1975 33.7138 60.9782 33.3394 60.7448C33.2298 60.6776 33.1169 60.6068 33.0109 60.5325C32.9827 60.5149 32.9579 60.4972 32.9296 60.4795C32.6789 60.3132 32.4281 60.1399 32.1845 59.9595C32.0186 59.8357 31.8525 59.7119 31.69 59.5846C31.4181 59.3794 31.1566 59.1601 30.9024 58.9338C30.7683 58.8206 30.6376 58.6968 30.5105 58.58C30.0097 58.117 29.5357 57.6257 29.0907 57.1086C28.9424 56.9388 28.7975 56.769 28.6597 56.5922C28.6284 56.5572 28.5989 56.5206 28.5714 56.4825C26.2767 53.5825 24.8964 50.0637 24.6067 46.3748C24.3169 42.686 25.1308 38.9943 26.9445 35.7706C28.7582 32.5468 31.4896 29.9372 34.7902 28.2744C38.0908 26.6117 41.8112 25.9711 45.4768 26.4345C49.1424 26.8979 52.5871 28.4443 55.3716 30.8763C58.1562 33.3084 60.1543 36.516 61.1112 40.0899C62.0681 43.6639 61.9405 47.4424 60.7445 50.9434C59.5485 54.4444 57.3384 57.5093 54.3961 59.7473Z" fill="white" fill-opacity="0.3"/>
<path d="M61.7281 106.657C60.7873 103.95 59.2683 101.482 57.2771 99.4232C55.2859 97.3649 52.8703 95.7663 50.1988 94.739C47.5273 93.7117 44.6642 93.2804 41.8091 93.4752C38.9541 93.6699 36.1759 94.4861 33.6681 95.8666C31.1604 97.2472 28.9835 99.159 27.2894 101.469C25.5952 103.778 24.4245 106.431 23.8589 109.24C23.2932 112.049 23.3463 114.949 24.0145 117.735C24.6826 120.522 25.9496 123.129 27.7272 125.375C27.9038 125.598 28.0875 125.821 28.2746 126.037C28.2887 126.051 28.2993 126.065 28.3134 126.079C28.7739 126.61 29.2632 127.116 29.7793 127.593C29.9134 127.717 30.0547 127.844 30.1959 127.964C30.4644 128.205 30.7398 128.435 31.0259 128.654C31.5845 129.095 32.1669 129.505 32.7706 129.881L32.7918 129.892C33.1838 130.136 33.5829 130.363 33.9891 130.578L34.1551 130.663C34.5365 130.861 34.925 131.049 35.3241 131.222C35.4053 131.257 35.4936 131.293 35.5748 131.328C35.5819 131.332 35.5855 131.332 35.5926 131.335C36.399 131.671 37.2274 131.951 38.0719 132.174C39.7275 132.615 41.4337 132.839 43.147 132.839C43.7722 132.839 44.3902 132.81 45.0012 132.75C46.3973 132.621 47.7756 132.342 49.1123 131.919C49.116 131.919 49.1194 131.915 49.1229 131.915C49.9673 131.646 50.7922 131.319 51.5917 130.936C51.5951 130.932 51.6024 130.932 51.6058 130.928C51.7859 130.844 51.959 130.752 52.1356 130.663L52.2204 130.621C52.3617 130.546 52.5029 130.472 52.6441 130.394C52.9973 130.2 53.3434 129.995 53.6861 129.775C53.7815 129.719 53.8732 129.659 53.9686 129.595C54.2793 129.39 54.5866 129.17 54.8833 128.948C54.9364 128.909 54.9928 128.87 55.0459 128.827C58.3546 126.312 60.7832 122.812 61.9836 118.829C63.184 114.847 63.0946 110.585 61.7281 106.657Z" fill="white" fill-opacity="0.3"/>
<path d="M49.6391 121.256C51.2677 121.256 52.5879 119.934 52.5879 118.303C52.5879 116.672 51.2677 115.35 49.6391 115.35C48.0106 115.35 46.6904 116.672 46.6904 118.303C46.6904 119.934 48.0106 121.256 49.6391 121.256Z" fill="#9C802D"/>
<path d="M50.4612 115.431C50.9716 115.431 51.4732 115.564 51.917 115.816C52.3609 116.068 52.7317 116.432 52.9933 116.871C53.2549 117.31 53.3983 117.809 53.4095 118.32C53.4207 118.831 53.2993 119.336 53.0571 119.786C53.3127 119.466 53.4988 119.096 53.6037 118.699C53.7085 118.303 53.7298 117.889 53.6661 117.484C53.6024 117.079 53.4552 116.691 53.2338 116.347C53.0124 116.002 52.7217 115.707 52.3802 115.48C52.0387 115.254 51.6539 115.102 51.2504 115.033C50.8468 114.964 50.4333 114.98 50.0362 115.079C49.6391 115.179 49.2671 115.361 48.9439 115.613C48.6208 115.864 48.3535 116.181 48.1592 116.542C48.4348 116.195 48.785 115.915 49.1837 115.723C49.5823 115.531 50.0188 115.431 50.4612 115.431Z" fill="#9C802D"/>
<path d="M44.1289 118.296C48.9129 118.296 52.7911 114.412 52.7911 109.621C52.7911 104.83 48.9129 100.946 44.1289 100.946C39.345 100.946 35.4668 104.83 35.4668 109.621C35.4668 114.412 39.345 118.296 44.1289 118.296Z" fill="#9C802D"/>
<path d="M37.3305 104.239C38.823 102.558 40.9093 101.523 43.1491 101.353C45.3889 101.184 47.6069 101.892 49.3351 103.329C49.2645 103.262 49.1938 103.194 49.1207 103.128C47.4096 101.593 45.1596 100.801 42.8657 100.928C40.5718 101.054 38.422 102.088 36.889 103.801C35.3561 105.515 34.5657 107.768 34.6918 110.066C34.8178 112.363 35.8499 114.516 37.561 116.051C37.5775 116.066 37.594 116.081 37.6105 116.095C37.684 116.161 37.7596 116.223 37.8348 116.285C36.2074 114.735 35.2452 112.612 35.1511 110.364C35.0571 108.117 35.8383 105.92 37.3305 104.239Z" fill="#9C802D"/>
<path d="M44.0554 118.223C47.1365 118.223 49.6343 115.721 49.6343 112.636C49.6343 109.55 47.1365 107.048 44.0554 107.048C40.9743 107.048 38.4766 109.55 38.4766 112.636C38.4766 115.721 40.9743 118.223 44.0554 118.223Z" fill="#A0616A"/>
<path d="M54.0387 127.193V129.068C53.696 129.287 53.3499 129.492 52.9968 129.687C52.8555 129.765 52.7143 129.839 52.573 129.913L52.4882 129.956C52.3116 130.044 52.1385 130.136 51.9584 130.221C51.955 130.225 51.9477 130.225 51.9443 130.228C51.1448 130.611 50.3199 130.939 49.4755 131.208C49.472 131.208 49.4686 131.211 49.4649 131.211C48.1282 131.635 46.75 131.914 45.3539 132.043C44.7429 132.103 44.1248 132.131 43.4997 132.131C41.7863 132.132 40.0802 131.908 38.4246 131.466C37.58 131.244 36.7516 130.964 35.9452 130.628C35.9382 130.624 35.9345 130.624 35.9275 130.621C35.8462 130.585 35.7579 130.55 35.6767 130.515C35.2777 130.341 34.8891 130.154 34.5077 129.956L34.3418 129.871C33.9355 129.655 33.5364 129.429 33.1444 129.185L33.1232 129.174C32.5196 128.797 31.9371 128.388 31.3785 127.947C31.0924 127.727 30.817 127.497 30.5485 127.257C30.4073 127.137 30.266 127.009 30.1319 126.886C29.6159 126.408 29.1265 125.903 28.666 125.372C28.7271 125.003 28.8169 124.64 28.9345 124.286L28.938 124.282C28.9591 124.222 28.9839 124.163 29.0121 124.105C29.0316 124.055 29.054 124.005 29.0792 123.957C29.7114 122.772 30.8558 122.478 32.2756 122.415C33.0773 122.379 33.9637 122.418 34.8998 122.408C35.3942 122.404 35.9062 122.386 36.4184 122.34C39.65 122.047 39.0639 120.137 39.2085 119.107C39.3534 118.11 40.2505 118.973 40.3105 119.03L40.314 119.033C42.1427 119.89 44.166 120.245 46.1768 120.062C46.5229 120.02 46.869 119.995 47.2151 119.985C48.1264 119.974 47.9286 120.236 47.6144 120.452C47.4618 120.552 47.3025 120.642 47.1376 120.72C47.1376 120.72 46.9927 121.605 46.8444 122.928C46.7031 124.194 49.1259 124.788 49.3272 124.834C49.3313 124.837 49.3363 124.838 49.3413 124.838C50.2261 124.608 51.1576 124.632 52.0292 124.908H52.0326C52.5306 125.092 52.9749 125.397 53.3252 125.796C53.6756 126.195 53.9208 126.675 54.0387 127.193Z" fill="#A0616A"/>
<path d="M35.9808 129.468C35.9808 129.729 35.9739 129.981 35.9633 130.218C35.9598 130.359 35.9527 130.497 35.9457 130.628C35.9386 130.624 35.935 130.624 35.9279 130.621C35.8467 130.585 35.7584 130.55 35.6772 130.515C35.2781 130.341 34.8896 130.154 34.5081 129.956L34.3422 129.871C33.9359 129.655 33.5369 129.429 33.1449 129.185C33.1554 129.061 33.1732 128.937 33.1907 128.813C33.2295 128.541 33.2614 128.265 33.2826 127.993C33.4215 126.079 33.0752 124.162 32.276 122.418V122.415C32.2053 122.273 32.1631 122.195 32.1631 122.195C32.1631 122.195 33.1907 121.311 34.6564 122.195C34.75 122.25 34.8327 122.322 34.9002 122.408C35.7832 123.451 36.0233 126.96 35.9808 129.468Z" fill="#9C802D"/>
<path d="M52.0183 128.987C52.0041 129.383 51.9829 129.797 51.9582 130.217V130.221C51.9548 130.225 51.9476 130.225 51.9441 130.228C51.1446 130.611 50.3197 130.938 49.4753 131.208C49.4718 131.208 49.4684 131.211 49.4648 131.211L49.426 130.217L49.4223 130.087L49.2352 125.248C49.2302 125.138 49.2474 125.029 49.2858 124.926C49.3242 124.823 49.3829 124.73 49.4585 124.65C49.5341 124.571 49.625 124.508 49.7256 124.465C49.8262 124.421 49.9345 124.399 50.044 124.399H51.8346C51.9229 124.399 51.9865 124.579 52.029 124.905V124.908C52.1158 126.266 52.1122 127.629 52.0183 128.987Z" fill="#9C802D"/>
<path d="M39.2842 105.652V111.24H40.5761L42.2202 109.476L42.0002 111.24H47.7111L47.3579 109.476L48.0643 111.24H48.9748V105.652H39.2842Z" fill="#9C802D"/>
<path d="M38.4033 112.268C38.6465 112.268 38.8437 111.906 38.8437 111.46C38.8437 111.013 38.6465 110.651 38.4033 110.651C38.1601 110.651 37.9629 111.013 37.9629 111.46C37.9629 111.906 38.1601 112.268 38.4033 112.268Z" fill="#A0616A"/>
<path d="M49.708 112.268C49.9512 112.268 50.1484 111.906 50.1484 111.46C50.1484 111.013 49.9512 110.651 49.708 110.651C49.4648 110.651 49.2676 111.013 49.2676 111.46C49.2676 111.906 49.4648 112.268 49.708 112.268Z" fill="#A0616A"/>
<path d="M55.2361 128.24C54.9394 128.463 54.6322 128.682 54.3214 128.888C54.226 128.951 54.1343 129.011 54.0389 129.068C53.6962 129.287 53.3501 129.492 52.997 129.687C52.8557 129.765 52.7145 129.839 52.5732 129.913V126.015C52.5732 126.015 53.1382 126.468 54.0389 127.222C54.1518 127.317 54.2684 127.416 54.3921 127.522C54.6533 127.742 54.936 127.982 55.2361 128.24Z" fill="#A0616A"/>
<path d="M61.7281 106.657C60.7873 103.95 59.2683 101.482 57.2771 99.4232C55.2859 97.3649 52.8703 95.7663 50.1988 94.739C47.5273 93.7117 44.6642 93.2804 41.8091 93.4752C38.9541 93.6699 36.1759 94.4861 33.6681 95.8666C31.1604 97.2472 28.9835 99.159 27.2894 101.469C25.5952 103.778 24.4245 106.431 23.8589 109.24C23.2932 112.049 23.3463 114.949 24.0145 117.735C24.6826 120.522 25.9496 123.129 27.7272 125.375C27.9038 125.598 28.0875 125.821 28.2746 126.037C28.2887 126.051 28.2993 126.065 28.3134 126.079C28.7739 126.61 29.2632 127.116 29.7793 127.593C29.9134 127.717 30.0547 127.844 30.1959 127.964C30.4644 128.205 30.7398 128.435 31.0259 128.654C31.5845 129.095 32.1669 129.505 32.7706 129.881L32.7918 129.892C33.1838 130.136 33.5829 130.363 33.9891 130.578L34.1551 130.663C34.5365 130.861 34.925 131.049 35.3241 131.222C35.4053 131.257 35.4936 131.293 35.5748 131.328C35.5819 131.332 35.5855 131.332 35.5926 131.335C36.399 131.671 37.2274 131.951 38.0719 132.174C39.7275 132.615 41.4337 132.839 43.147 132.839C43.7722 132.839 44.3902 132.81 45.0012 132.75C46.3973 132.621 47.7756 132.342 49.1123 131.919C49.116 131.919 49.1194 131.915 49.1229 131.915C49.9673 131.646 50.7922 131.319 51.5917 130.936C51.5951 130.932 51.6024 130.932 51.6058 130.928C51.7859 130.844 51.959 130.752 52.1356 130.663L52.2204 130.621C52.3617 130.546 52.5029 130.472 52.6441 130.394C52.9973 130.2 53.3434 129.995 53.6861 129.775C53.7815 129.719 53.8732 129.659 53.9686 129.595C54.2793 129.39 54.5866 129.17 54.8833 128.948C54.9364 128.909 54.9928 128.87 55.0459 128.827C58.3546 126.312 60.7832 122.812 61.9836 118.829C63.184 114.847 63.0946 110.585 61.7281 106.657ZM54.3959 127.968C54.2793 128.06 54.1593 128.148 54.0393 128.23C53.9227 128.318 53.8061 128.403 53.6861 128.481C53.5837 128.555 53.4812 128.626 53.3752 128.693C53.2869 128.753 53.1986 128.81 53.1103 128.866C52.8173 129.05 52.5207 129.227 52.2204 129.397L52.1249 129.45C51.9907 129.524 51.8566 129.595 51.7224 129.666C51.7046 129.676 51.6834 129.683 51.6658 129.694L51.6446 129.705C51.4751 129.793 51.3021 129.878 51.129 129.959C50.4612 130.281 49.7734 130.56 49.0699 130.794C48.9782 130.826 48.8863 130.858 48.7945 130.886C47.5293 131.289 46.2244 131.555 44.9024 131.678C44.3232 131.731 43.7368 131.76 43.147 131.76C41.5264 131.763 39.9125 131.551 38.3474 131.13C37.5441 130.92 36.7569 130.653 35.9917 130.331C35.9104 130.299 35.8292 130.263 35.7514 130.232C35.7092 130.214 35.6702 130.196 35.6278 130.175C35.2958 130.03 34.9675 129.871 34.646 129.705L34.4907 129.623C34.0987 129.418 33.7136 129.199 33.3392 128.965C33.2016 128.88 33.0638 128.792 32.9296 128.7C32.5057 128.421 32.0925 128.12 31.6899 127.805C31.4179 127.6 31.1566 127.381 30.9023 127.154C30.7681 127.041 30.6374 126.917 30.5103 126.801C30.0095 126.338 29.5355 125.846 29.0905 125.329C28.9422 125.159 28.7973 124.99 28.6595 124.813C28.6282 124.778 28.5987 124.741 28.5712 124.703C26.2765 121.803 24.8962 118.284 24.6065 114.595C24.3167 110.907 25.1306 107.215 26.9443 103.991C28.758 100.767 31.4894 98.1578 34.79 96.495C38.0907 94.8323 41.811 94.1917 45.4766 94.6552C49.1422 95.1186 52.5869 96.6649 55.3714 99.0969C58.156 101.529 60.1541 104.737 61.111 108.311C62.0679 111.885 61.9403 115.663 60.7443 119.164C59.5483 122.665 57.3382 125.73 54.3959 127.968Z" fill="white" fill-opacity="0.3"/>
<path d="M43.2575 190.211C47.515 190.211 50.9663 186.754 50.9663 182.49C50.9663 178.227 47.515 174.77 43.2575 174.77C39.0001 174.77 35.5488 178.227 35.5488 182.49C35.5488 186.754 39.0001 190.211 43.2575 190.211Z" fill="#9C802D"/>
<path d="M37.2404 178.328C38.4861 177.08 38.7386 175.31 37.8043 174.375C36.87 173.439 35.1028 173.692 33.8571 174.939C32.6114 176.187 32.3589 177.957 33.2932 178.893C34.2275 179.828 35.9947 179.575 37.2404 178.328Z" fill="#9C802D"/>
<path d="M51.2919 175.876C51.811 174.659 50.9184 173.111 49.2983 172.418C47.6782 171.725 45.9442 172.149 45.4251 173.366C44.9061 174.583 45.7987 176.131 47.4187 176.825C49.0388 177.518 50.7729 177.093 51.2919 175.876Z" fill="#9C802D"/>
<path d="M52.4789 197.466L51.5706 196.034C51.1853 195.172 50.4744 194.498 49.5937 194.16C48.7131 193.821 47.7344 193.846 46.8721 194.229C46.0098 194.612 45.3342 195.322 44.9931 196.202C44.6521 197.083 44.6735 198.063 45.0526 198.928L45.3109 199.856L45.6048 200.908C46.7947 200.758 47.9688 200.501 49.113 200.141C49.1164 200.141 49.1196 200.139 49.1219 200.137C49.9678 199.869 50.7935 199.541 51.593 199.156C51.5974 199.151 51.6017 199.151 51.6063 199.147C51.7843 199.062 51.958 198.973 52.1361 198.884C52.1652 198.871 52.1934 198.856 52.2206 198.839C52.363 198.768 52.5056 198.692 52.6437 198.616C52.7861 198.54 52.924 198.46 53.0576 198.375L52.4789 197.466Z" fill="white" fill-opacity="0.3"/>
<path d="M43.5023 190.886C47.1155 190.886 50.0446 187.952 50.0446 184.333C50.0446 180.715 47.1155 177.781 43.5023 177.781C39.8891 177.781 36.96 180.715 36.96 184.333C36.96 187.952 39.8891 190.886 43.5023 190.886Z" fill="#FFB6B6"/>
<path d="M52.9505 197.185C52.2289 195.983 51.3331 194.895 50.2925 193.957C49.5797 193.319 48.6572 192.966 47.7014 192.967H38.4853C37.9543 192.967 37.4288 193.075 36.9414 193.287C36.4541 193.498 36.0151 193.807 35.6517 194.195C35.2883 194.582 35.0081 195.041 34.8285 195.541C34.6489 196.042 34.5737 196.574 34.6075 197.105C34.6276 197.404 34.6814 197.7 34.7679 197.987C34.8336 198.196 34.9155 198.398 35.0127 198.594L35.4668 199.503C35.5025 199.517 35.5381 199.535 35.5736 199.548C35.5825 199.553 35.5871 199.553 35.5914 199.557C35.7783 199.633 35.9655 199.709 36.1568 199.78C36.7833 200.02 37.4225 200.225 38.0714 200.395C39.1159 200.676 40.1822 200.869 41.259 200.97C41.8868 201.028 42.5146 201.06 43.1468 201.06C43.7746 201.06 44.3889 201.028 45.0033 200.97C45.2037 200.953 45.4039 200.93 45.6044 200.908C46.7943 200.758 47.9684 200.501 49.1126 200.141C49.116 200.141 49.1192 200.139 49.1216 200.137C49.9674 199.869 50.7931 199.541 51.5926 199.156C51.597 199.151 51.6013 199.151 51.6059 199.147C51.7839 199.062 51.9576 198.973 52.1357 198.884C52.1648 198.871 52.193 198.856 52.2202 198.839C52.3626 198.768 52.5052 198.692 52.6433 198.616C52.7857 198.54 52.9236 198.46 53.0572 198.375C53.1998 198.3 53.3333 198.215 53.4713 198.13C53.3023 197.796 53.1286 197.484 52.9505 197.185Z" fill="white" fill-opacity="0.3"/>
<path d="M40.1548 194.162C39.3019 193.762 38.3258 193.717 37.4398 194.036C36.5538 194.355 35.8301 195.013 35.4267 195.865L34.6074 197.105L34.2157 197.698L33.6191 198.598C33.7437 198.665 33.8639 198.732 33.9887 198.799L34.1533 198.884C34.5363 199.08 34.9235 199.267 35.3244 199.441C35.3687 199.463 35.4178 199.481 35.4667 199.503C35.5024 199.517 35.538 199.535 35.5735 199.548C35.5824 199.552 35.587 199.552 35.5913 199.557C35.7783 199.633 35.9654 199.709 36.1567 199.78C36.7832 200.02 37.4224 200.225 38.0713 200.395C39.1158 200.676 40.1821 200.868 41.2589 200.97L41.5706 199.914L41.8734 198.906C42.2726 198.048 42.3158 197.067 41.9936 196.178C41.6714 195.289 41.0101 194.563 40.1548 194.162Z" fill="white" fill-opacity="0.3"/>
<path d="M36.6279 180.212C38.1229 181.244 39.8974 181.793 41.7131 181.786C41.0654 182.236 40.3281 182.54 39.5519 182.677C41.966 183.195 44.461 183.209 46.8808 182.718C47.4186 182.631 47.9376 182.453 48.415 182.19C48.6529 182.057 48.8601 181.875 49.0233 181.657C49.1864 181.438 49.3018 181.188 49.362 180.922C49.5228 180.002 48.807 179.166 48.0631 178.603C46.9243 177.753 45.6111 177.168 44.2188 176.89C42.8264 176.611 41.3896 176.646 40.0123 176.991C39.0946 177.176 38.2595 177.649 37.6279 178.341C37.3222 178.693 37.1378 179.134 37.1016 179.599C37.0655 180.064 37.1797 180.529 37.4272 180.924L36.6279 180.212Z" fill="#9C802D"/>
<path d="M61.7304 174.877C60.7898 172.17 59.271 169.701 57.2797 167.643C55.2885 165.584 52.8728 163.985 50.2012 162.958C47.5296 161.93 44.6663 161.499 41.8111 161.694C38.9558 161.888 36.1773 162.704 33.6694 164.085C31.1615 165.466 28.9845 167.378 27.2902 169.688C25.5959 171.997 24.4252 174.65 23.8597 177.459C23.2941 180.269 23.3474 183.168 24.0157 185.955C24.6841 188.742 25.9514 191.35 27.7294 193.595C27.9028 193.818 28.09 194.041 28.277 194.255C28.2877 194.271 28.2996 194.286 28.3126 194.3C28.7737 194.831 29.2642 195.336 29.7818 195.812C29.9152 195.936 30.0533 196.066 30.1959 196.186C30.4628 196.427 30.7389 196.654 31.0283 196.873C31.1396 196.962 31.2509 197.051 31.3668 197.136C31.8163 197.479 32.2883 197.796 32.7691 198.103C32.7774 198.104 32.7853 198.107 32.7913 198.112C32.9294 198.197 33.072 198.282 33.2144 198.362C33.3478 198.442 33.4859 198.522 33.6196 198.598C33.7441 198.665 33.8644 198.732 33.9891 198.799L34.1537 198.884C34.5367 199.08 34.9239 199.267 35.3248 199.441C35.3691 199.463 35.4183 199.481 35.4672 199.503C35.5028 199.517 35.5385 199.535 35.5739 199.548C35.5828 199.552 35.5874 199.553 35.5917 199.557C35.7787 199.633 35.9659 199.709 36.1571 199.78C36.7837 200.02 37.4228 200.225 38.0717 200.395C39.1163 200.676 40.1826 200.869 41.2593 200.97C41.8871 201.028 42.515 201.06 43.1471 201.06C43.775 201.06 44.3893 201.028 45.0037 200.97C45.2041 200.953 45.4043 200.93 45.6047 200.908C46.7946 200.758 47.9687 200.501 49.113 200.141C49.1164 200.141 49.1195 200.139 49.1219 200.137C49.9677 199.869 50.7935 199.541 51.593 199.156C51.5973 199.151 51.6017 199.151 51.6062 199.147C51.7843 199.062 51.958 198.973 52.136 198.884C52.1651 198.871 52.1933 198.856 52.2206 198.839C52.363 198.768 52.5056 198.692 52.6436 198.616C52.786 198.54 52.924 198.46 53.0575 198.375C53.2001 198.3 53.3336 198.215 53.4717 198.13C53.543 198.086 53.6142 198.041 53.6854 197.996C53.7834 197.938 53.8723 197.88 53.9704 197.814C54.1039 197.729 54.2375 197.635 54.3665 197.542C54.5402 197.421 54.7139 197.296 54.883 197.167C54.94 197.13 54.995 197.09 55.0478 197.047C58.354 194.53 60.7808 191.03 61.9811 187.048C63.1814 183.066 63.0936 178.806 61.7304 174.877ZM54.3978 196.186C54.2819 196.28 54.1617 196.369 54.0417 196.449C53.9213 196.538 53.8056 196.623 53.6854 196.703C53.583 196.775 53.4806 196.846 53.3739 196.913C53.3642 196.921 53.3537 196.929 53.3426 196.935C53.2669 196.989 53.1867 197.038 53.1111 197.087C53.0576 197.118 53.0043 197.154 52.9508 197.185C52.795 197.283 52.6391 197.377 52.4789 197.466C52.3943 197.519 52.3052 197.568 52.2206 197.617C52.1895 197.635 52.1582 197.653 52.1271 197.671C51.9891 197.747 51.8556 197.814 51.7219 197.885C51.7043 197.898 51.6819 197.903 51.6686 197.916C51.6603 197.916 51.6524 197.919 51.6462 197.925C51.4771 198.014 51.3034 198.099 51.1299 198.179C50.4615 198.501 49.7728 198.78 49.0684 199.013C48.9795 199.044 48.886 199.08 48.7969 199.107C47.6615 199.467 46.4941 199.718 45.3108 199.856C45.1773 199.874 45.0393 199.887 44.9013 199.9C44.3226 199.954 43.7393 199.981 43.1472 199.981C42.6217 199.981 42.0919 199.958 41.5711 199.914C40.4821 199.823 39.4034 199.635 38.3478 199.352C37.5443 199.142 36.7571 198.874 35.9926 198.549C35.9524 198.531 35.9124 198.518 35.8724 198.5C35.8279 198.482 35.7922 198.469 35.7522 198.451C35.7076 198.433 35.672 198.416 35.6274 198.393C35.3381 198.268 35.0487 198.13 34.7683 197.987C34.7281 197.965 34.6881 197.947 34.6481 197.925L34.4922 197.845C34.3987 197.796 34.3053 197.747 34.2161 197.698C33.9179 197.537 33.624 197.363 33.3392 197.185C33.2322 197.118 33.1166 197.047 33.0096 196.975L32.9294 196.922C32.68 196.752 32.4309 196.583 32.1859 196.4C32.0211 196.275 31.852 196.155 31.6918 196.026C31.4203 195.82 31.1574 195.602 30.9038 195.375C30.7701 195.263 30.6366 195.138 30.512 195.022C30.0107 194.56 29.5365 194.068 29.0918 193.551C28.9449 193.381 28.7979 193.212 28.6599 193.034C28.6288 192.998 28.602 192.962 28.5707 192.922C26.2755 190.022 24.8948 186.503 24.6047 182.813C24.3147 179.124 25.1284 175.432 26.9422 172.208C28.7559 168.983 31.4875 166.373 34.7885 164.71C38.0895 163.047 41.8103 162.406 45.4764 162.869C49.1425 163.333 52.5878 164.879 55.3728 167.311C58.1578 169.744 60.1563 172.952 61.1134 176.526C62.0706 180.1 61.943 183.879 60.7469 187.381C59.5509 190.882 57.3405 193.948 54.3978 196.186Z" fill="white" fill-opacity="0.3"/>
<path d="M76.0634 78.6048C69.2125 72.8152 60.829 69.1447 51.933 68.0399C43.0371 66.935 34.0123 68.4436 25.9568 72.3819C17.9014 76.3203 11.1626 82.5186 6.56039 90.2226C1.95822 97.9267 -0.308854 106.804 0.0350238 115.775C0.378902 124.746 3.31891 133.424 8.49729 140.752C13.6757 148.08 20.8692 153.742 29.2024 157.051C37.5357 160.359 46.6494 161.17 55.4345 159.385C64.2197 157.601 72.2976 153.297 78.6851 146.999L135.406 194.931C136.269 195.658 137.385 196.013 138.509 195.917C139.633 195.821 140.673 195.282 141.402 194.42C142.13 193.557 142.487 192.44 142.394 191.314C142.302 190.188 141.767 189.145 140.908 188.413L140.902 188.408L84.1811 140.476C90.7703 131.004 93.5903 119.41 92.0887 107.965C90.5871 96.5204 84.872 86.0496 76.0634 78.6048ZM72.4069 135.86C67.9881 141.105 62.1156 144.919 55.5321 146.821C48.9486 148.724 41.9497 148.628 35.4205 146.546C28.8913 144.465 23.1251 140.491 18.851 135.127C14.5768 129.764 11.9868 123.251 11.4084 116.414C10.83 109.576 12.2891 102.72 15.6014 96.7124C18.9136 90.7051 23.9301 85.8164 30.0166 82.6645C36.1031 79.5126 42.9861 78.239 49.7953 79.0049C56.6045 79.7707 63.0341 82.5415 68.2709 86.9669C75.2933 92.9013 79.6741 101.386 80.4498 110.556C81.2254 119.725 78.3323 128.827 72.4069 135.86Z" fill="white" fill-opacity="0.3"/>
<path opacity="0.3" d="M23.5876 140.002C16.9414 134.385 12.6475 126.47 11.5584 117.83C10.4693 109.189 12.6648 100.454 17.7088 93.3588C17.0464 94.0269 16.406 94.7266 15.7876 95.4579C12.8537 98.9402 10.6333 102.967 9.2533 107.309C7.8733 111.651 7.3607 116.222 7.74476 120.762C8.12882 125.302 9.40203 129.722 11.4917 133.77C13.5813 137.817 16.4465 141.412 19.9236 144.351C23.4007 147.289 27.4217 149.513 31.7569 150.895C36.0921 152.277 40.6567 152.79 45.19 152.406C49.7234 152.021 54.1366 150.746 58.1779 148.653C62.2192 146.561 65.8093 143.691 68.7433 140.209C69.3602 139.476 69.9411 138.727 70.4861 137.959C64.3515 144.132 56.1232 147.769 47.435 148.148C38.7469 148.526 30.2343 145.618 23.5876 140.002Z" fill="black"/>
<path d="M190.412 196.723C190.855 196.182 191.174 195.549 191.347 194.871C191.52 194.192 191.542 193.484 191.411 192.796C191.281 192.108 191.002 191.457 190.593 190.888C190.184 190.32 189.656 189.849 189.046 189.507L178.707 147.126L171.165 149.537L182.329 191.629C181.824 192.694 181.726 193.907 182.055 195.04C182.383 196.172 183.115 197.144 184.111 197.772C185.108 198.4 186.299 198.64 187.461 198.447C188.622 198.253 189.672 197.64 190.412 196.723Z" fill="#FFB6B6"/>
<path d="M185.068 169.614L179.556 174.376L171.845 181.034L168.439 163.582L168.083 161.767L167.803 160.327L175.616 146.696L182.13 147.07L182.575 147.097L182.584 147.196L182.686 148.11L184.022 160.139L184.053 160.43L185.068 169.614Z" fill="white" fill-opacity="0.3"/>
<path d="M149.042 288.075L143.584 288.075L140.987 266.99L149.043 266.99L149.042 288.075Z" fill="#FFB6B6"/>
<path d="M150.434 293.374L132.834 293.373V293.15C132.834 291.331 133.556 289.586 134.841 288.299C136.125 287.013 137.868 286.29 139.684 286.29H139.685L150.434 286.29L150.434 293.374Z" fill="#9C802D"/>
<path d="M206.029 288.521L200.572 288.52L197.975 267.435L206.031 267.436L206.029 288.521Z" fill="#FFB6B6"/>
<path d="M207.422 293.82L189.822 293.819V293.596C189.822 291.777 190.544 290.032 191.829 288.745C193.113 287.459 194.856 286.736 196.673 286.736H196.673L207.422 286.736L207.422 293.82Z" fill="#9C802D"/>
<path d="M210.392 280.127L195.7 282.357L174.325 209.909L151.623 282.803L135.15 280.573L156.521 195.855V189.167L159.415 179.134L159.112 176.419L157.006 157.429L156.093 149.193L156.034 148.661C155.985 148.215 156.103 147.766 156.365 147.402C156.628 147.038 157.017 146.784 157.456 146.692L164.312 145.247H175.518L182.13 147.071L182.584 147.196L182.789 147.253L182.686 148.11L181.137 161.121L181.052 161.834L179.556 174.377L179.227 177.128C192.138 186.491 192.583 195.855 192.583 195.855L210.392 280.127Z" fill="#9C802D"/>
<path d="M168.561 139.606C174.6 139.606 179.496 134.703 179.496 128.654C179.496 122.606 174.6 117.703 168.561 117.703C162.522 117.703 157.626 122.606 157.626 128.654C157.626 134.703 162.522 139.606 168.561 139.606Z" fill="#FFB6B6"/>
<path d="M180.047 174.611L158.415 177.444L158.819 180.539L180.451 177.706L180.047 174.611Z" fill="white" fill-opacity="0.3"/>
<path d="M129.4 178.377C129.606 178.511 129.802 178.661 129.986 178.826L151.381 173.364L152.841 168.195L160.918 169.381L159.223 178.784C159.086 179.544 158.706 180.238 158.141 180.763C157.577 181.289 156.857 181.616 156.091 181.697L131.109 184.332C130.702 185.191 130.043 185.905 129.221 186.379C128.399 186.854 127.452 187.067 126.506 186.989C125.56 186.911 124.66 186.547 123.926 185.945C123.192 185.343 122.658 184.531 122.396 183.617C122.134 182.704 122.155 181.732 122.458 180.831C122.761 179.93 123.33 179.143 124.09 178.574C124.851 178.005 125.766 177.682 126.714 177.647C127.663 177.612 128.599 177.866 129.4 178.377Z" fill="#FFB6B6"/>
<path d="M162.309 149.483L158.525 146.585C157.501 146.196 156.099 147.3 155.853 148.368L150.511 170.217L161.641 178.243L163.199 175.79L162.309 149.483Z" fill="white" fill-opacity="0.3"/>
<g opacity="0.2">
<path d="M184.023 160.14C183.078 160.515 182.115 160.842 181.138 161.121C180.826 161.214 180.505 161.303 180.189 161.388C178.106 161.967 175.964 162.314 173.805 162.423C172.875 162.462 171.944 162.437 171.018 162.347C170.024 162.247 169.041 162.053 168.084 161.767C168.053 161.758 168.017 161.749 167.986 161.74C165.995 161.174 164.17 160.136 162.665 158.713C162.329 158.385 162.015 158.035 161.726 157.665C160.895 156.645 160.285 155.463 159.935 154.194C159.586 152.925 159.504 151.597 159.696 150.294C159.733 150.058 159.784 149.825 159.847 149.594C160.015 148.967 160.237 148.355 160.511 147.766C160.631 147.49 160.765 147.218 160.907 146.95L165.938 145.247H175.519L182.13 147.071L182.576 147.097L182.584 147.196L182.789 147.253L182.687 148.11L184.023 160.14Z" fill="black"/>
</g>
<path d="M160.182 119.588C158.137 119.337 155.893 119.514 154.299 120.822C152.705 122.129 152.191 124.847 153.7 126.252C155.036 127.496 157.125 127.203 158.914 127.557C160.456 127.903 161.837 128.757 162.837 129.982C163.836 131.207 164.396 132.733 164.428 134.315C164.401 138.851 160.054 142.287 159.273 146.755C158.74 149.805 160.024 153.015 162.245 155.169C164.465 157.323 167.518 158.488 170.593 158.803C173.668 159.118 176.778 158.637 179.767 157.845C182.768 157.051 185.723 155.923 188.241 154.105C190.76 152.287 192.824 149.724 193.633 146.722C194.441 143.721 193.861 140.279 191.777 137.974C189.391 135.335 185.422 134.427 183.358 131.529C181.045 128.279 181.901 123.652 180.028 120.129C178.778 117.776 176.411 116.172 173.888 115.327C171.365 114.482 168.67 114.315 166.011 114.233C164.613 114.19 163.173 114.176 161.87 114.686C160.568 115.197 159.423 116.36 159.356 117.759C159.288 119.158 160.182 119.588 160.182 119.588Z" fill="#9C802D"/>
<path d="M262.555 294H92.9276C92.8096 294 92.6963 293.953 92.6128 293.869C92.5293 293.786 92.4824 293.672 92.4824 293.554C92.4824 293.436 92.5293 293.322 92.6128 293.239C92.6963 293.155 92.8096 293.108 92.9276 293.108H262.555C262.673 293.108 262.786 293.155 262.87 293.239C262.953 293.322 263 293.436 263 293.554C263 293.672 262.953 293.786 262.87 293.869C262.786 293.953 262.673 294 262.555 294Z" fill="white" fill-opacity="0.3"/>
</svg>
