<svg width="200" height="200" viewBox="0 0 200 200" fill="none" xmlns="http://www.w3.org/2000/svg">
<path d="M3.3154 74.464C-1.64105 93.2302 -1.02906 113.033 5.07673 131.457C11.1825 149.882 22.5182 166.131 37.701 178.223C52.8838 190.315 71.2575 197.727 90.5809 199.555C109.904 201.384 129.342 197.549 146.523 188.519L151 147.5C129.5 166.263 106.542 166.971 93.778 165.763C81.0136 164.556 68.8765 159.659 58.8472 151.672C48.8179 143.684 41.3299 132.95 37.2966 120.78C33.2633 108.609 32.859 95.528 36.1331 83.1317L3.3154 74.464Z" fill="url(#paint0_linear_7613_69491)"/>
<path d="M117.744 182.993L113.336 172.223L115.287 171.425L117.312 176.373L117.444 176.319L119.62 169.651L122.002 168.677L119.815 175.214L126.446 179.431L124.101 180.391L118.999 177.089L118.382 178.986L119.695 182.194L117.744 182.993Z" fill="white"/>
<path d="M105.184 186.198L102.628 174.846L106.885 173.887C107.757 173.691 108.523 173.678 109.182 173.848C109.846 174.017 110.39 174.341 110.816 174.819C111.245 175.294 111.541 175.893 111.705 176.617C111.868 177.345 111.855 178.012 111.666 178.618C111.479 179.219 111.119 179.733 110.586 180.159C110.052 180.583 109.349 180.892 108.477 181.089L105.445 181.771L105.061 180.064L107.816 179.444C108.326 179.329 108.727 179.165 109.021 178.951C109.314 178.734 109.507 178.471 109.601 178.162C109.697 177.849 109.7 177.492 109.609 177.089C109.519 176.686 109.362 176.36 109.139 176.111C108.915 175.859 108.624 175.695 108.265 175.621C107.906 175.543 107.47 175.561 106.956 175.677L105.071 176.101L107.24 185.735L105.184 186.198ZM109.89 179.734L113.859 184.245L111.564 184.762L107.645 180.239L109.89 179.734Z" fill="white"/>
<path d="M100.411 181.109C100.469 182.362 100.285 183.445 99.8568 184.36C99.4326 185.271 98.8285 185.981 98.0445 186.492C97.2642 187.002 96.3652 187.281 95.3473 187.328C94.3295 187.375 93.4066 187.181 92.5787 186.745C91.7545 186.306 91.0871 185.652 90.5767 184.785C90.0699 183.913 89.7876 182.853 89.7297 181.605C89.6716 180.352 89.8547 179.27 90.2789 178.36C90.7067 177.445 91.3107 176.733 92.0909 176.222C92.875 175.712 93.7759 175.433 94.7937 175.386C95.8116 175.339 96.7326 175.533 97.5566 175.969C98.3845 176.405 99.0519 177.058 99.5587 177.93C100.069 178.797 100.353 179.857 100.411 181.109ZM98.2943 181.208C98.2535 180.326 98.0809 179.589 97.7766 178.996C97.4759 178.4 97.0762 177.957 96.5775 177.67C96.0786 177.378 95.5133 177.247 94.8814 177.276C94.2495 177.305 93.6986 177.488 93.2289 177.825C92.7589 178.158 92.4 178.635 92.152 179.257C91.9076 179.875 91.8059 180.625 91.8467 181.506C91.8876 182.388 92.0584 183.127 92.359 183.724C92.6633 184.316 93.0649 184.758 93.5638 185.05C94.0625 185.338 94.6278 185.467 95.2597 185.438C95.8916 185.409 96.4425 185.227 96.9125 184.895C97.3823 184.558 97.7393 184.081 97.9837 183.463C98.2317 182.841 98.3352 182.089 98.2943 181.208Z" fill="white"/>
<path d="M73.2145 185.254L71.9979 173.224L74.2307 173.617L74.8127 182.403L74.919 182.421L78.6065 174.388L80.6378 174.745L81.3644 183.562L81.4651 183.58L85.0137 175.516L87.2464 175.909L81.9943 186.8L79.9462 186.439L79.0677 177.994L78.9782 177.978L75.2626 185.614L73.2145 185.254Z" fill="white"/>
<path d="M63.697 176.21C63.1438 177.335 62.4593 178.196 61.6434 178.791C60.8325 179.384 59.9606 179.715 59.0277 179.784C58.0982 179.855 57.1762 179.665 56.2618 179.216C55.3473 178.766 54.6326 178.151 54.1174 177.37C53.6073 176.587 53.3379 175.693 53.3091 174.687C53.2854 173.679 53.5492 172.614 54.1007 171.493C54.6539 170.367 55.3358 169.508 56.1467 168.915C56.9626 168.32 57.8353 167.987 58.7649 167.916C59.6978 167.848 60.6215 168.038 61.5359 168.487C62.4503 168.937 63.1634 169.551 63.6752 170.33C64.1903 171.111 64.4598 172.006 64.4835 173.013C64.5123 174.019 64.2501 175.085 63.697 176.21ZM61.795 175.275C62.1844 174.483 62.3887 173.754 62.408 173.088C62.4323 172.421 62.2954 171.841 61.9973 171.348C61.7009 170.852 61.2688 170.464 60.7012 170.185C60.1335 169.906 59.5627 169.801 58.9889 169.869C58.4168 169.934 57.8721 170.179 57.3549 170.604C56.8428 171.028 56.392 171.636 56.0026 172.428C55.6132 173.22 55.4064 173.95 55.3821 174.617C55.3629 175.283 55.5014 175.864 55.7979 176.36C56.0959 176.853 56.5288 177.239 57.0965 177.518C57.6642 177.797 58.2341 177.904 58.8062 177.839C59.3801 177.771 59.923 177.525 60.4352 177.101C60.9524 176.676 61.4057 176.067 61.795 175.275Z" fill="white"/>
<path d="M46.3569 161.053L47.4022 159.629L54.8876 165.121L53.8423 166.545L50.9425 164.418L45.1042 172.375L43.4184 171.138L49.2567 163.181L46.3569 161.053Z" fill="white"/>
<path d="M42.3242 154.887L33.4306 162.391L32.2215 160.957L34.7436 151.656L34.6813 151.582L28.6234 156.693L27.264 155.082L36.1576 147.578L37.3741 149.02L34.844 158.321L34.9099 158.399L40.9722 153.284L42.3242 154.887Z" fill="white"/>
<path d="M20.7939 144.701L30.8181 138.791L34.6615 145.311L33.1393 146.208L30.3664 141.505L27.645 143.109L30.2188 147.475L28.6966 148.372L26.1227 144.006L23.3867 145.619L26.1827 150.362L24.6605 151.26L20.7939 144.701Z" fill="white"/>
<path d="M15.7718 133.1L26.584 128.799L28.197 132.853C28.5274 133.684 28.6498 134.442 28.5641 135.129C28.4798 135.819 28.224 136.416 27.7968 136.92C27.3745 137.426 26.8202 137.816 26.1339 138.089C25.4405 138.365 24.7665 138.464 24.1118 138.386C23.4571 138.308 22.8614 138.045 22.3249 137.599C21.7918 137.15 21.3594 136.509 21.0276 135.675L19.9586 132.988L21.5688 132.347L22.5328 134.77C22.726 135.256 22.9687 135.62 23.2608 135.863C23.553 136.105 23.8763 136.241 24.2308 136.272C24.5866 136.305 24.9564 136.246 25.34 136.093C25.7236 135.941 26.0314 135.731 26.2633 135.463C26.4967 135.199 26.632 134.878 26.6692 134.501C26.7115 134.125 26.6352 133.693 26.4406 133.203L25.7266 131.408L16.5509 135.059L15.7718 133.1Z" fill="white"/>
<path d="M20.0444 127.6C18.8167 127.855 17.7176 127.843 16.7469 127.564C15.7807 127.289 14.9839 126.804 14.3565 126.11C13.7299 125.42 13.3131 124.576 13.1063 123.578C12.8994 122.581 12.9459 121.639 13.2458 120.753C13.5501 119.869 14.0904 119.107 14.8667 118.467C15.6474 117.829 16.6498 117.383 17.8738 117.13C19.1014 116.875 20.1984 116.886 21.1646 117.161C22.1353 117.44 22.9339 117.924 23.5606 118.614C24.188 119.308 24.6051 120.154 24.8119 121.152C25.0188 122.149 24.9719 123.089 24.6713 123.972C24.3714 124.858 23.8311 125.62 23.0504 126.258C22.2741 126.898 21.2721 127.346 20.0444 127.6ZM19.6142 125.525C20.4784 125.346 21.1792 125.059 21.7165 124.666C22.2583 124.275 22.632 123.81 22.8377 123.273C23.0472 122.734 23.0877 122.155 22.9593 121.536C22.8309 120.916 22.5635 120.401 22.1572 119.99C21.7547 119.578 21.2268 119.299 20.5735 119.152C19.9247 119.008 19.1682 119.026 18.304 119.205C17.4398 119.384 16.7368 119.669 16.195 120.06C15.6577 120.454 15.2843 120.92 15.0749 121.458C14.8692 121.996 14.8305 122.575 14.9589 123.194C15.0873 123.814 15.3528 124.329 15.7554 124.741C16.1617 125.152 16.6892 125.429 17.338 125.573C17.9913 125.72 18.75 125.704 19.6142 125.525Z" fill="white"/>
<defs>
<linearGradient id="paint0_linear_7613_69491" x1="-26.5" y1="106.5" x2="165.5" y2="188" gradientUnits="userSpaceOnUse">
<stop offset="0.0685854" stop-color="#0CAD56" stop-opacity="0"/>
<stop offset="0.336619" stop-color="#0CAD56"/>
<stop offset="0.71716" stop-color="#0CAD56"/>
<stop offset="0.891602" stop-color="#0CAD56" stop-opacity="0"/>
</linearGradient>
</defs>
</svg>
