<svg width="818" height="523" viewBox="0 0 818 523" fill="none" xmlns="http://www.w3.org/2000/svg">
<path d="M629.627 118.435H166.663C164.765 118.435 162.886 118.809 161.133 119.536C159.38 120.263 157.787 121.328 156.446 122.67C155.105 124.013 154.041 125.607 153.316 127.36C152.591 129.114 152.219 130.994 152.221 132.891V459.889C152.219 461.787 152.591 463.666 153.316 465.42C154.041 467.174 155.105 468.767 156.446 470.11C157.787 471.453 159.38 472.518 161.133 473.244C162.886 473.971 164.765 474.345 166.663 474.345H344.353C344.353 474.345 355.654 509.295 320.608 527.383H486.752C486.752 527.383 447.205 513.783 457.377 474.345H629.627C633.461 474.345 637.138 472.822 639.849 470.111C642.56 467.4 644.083 463.723 644.083 459.889V132.891C644.083 129.057 642.56 125.38 639.849 122.669C637.138 119.958 633.461 118.435 629.627 118.435Z" fill="#263238"/>
<path d="M404.816 439.83C411.112 448.832 401.253 458.692 392.25 452.395C391.949 452.183 391.687 451.921 391.475 451.62C385.192 442.617 395.038 432.771 404.041 439.054C404.341 439.267 404.604 439.529 404.816 439.83Z" fill="#455A64"/>
<path d="M628.703 134.958H167.588C165.132 134.958 163.141 136.949 163.141 139.406V409.299C163.141 411.755 165.132 413.746 167.588 413.746H628.703C631.159 413.746 633.15 411.755 633.15 409.299V139.406C633.15 136.949 631.159 134.958 628.703 134.958Z" fill="#E0E0E0"/>
<path d="M633.15 155.385H163.141V413.746H633.15V155.385Z" fill="#FAFAFA"/>
<path d="M201.695 145.716C201.695 146.458 201.475 147.184 201.063 147.801C200.65 148.418 200.064 148.899 199.378 149.183C198.692 149.467 197.938 149.542 197.21 149.397C196.482 149.252 195.813 148.895 195.288 148.37C194.763 147.845 194.405 147.176 194.261 146.448C194.116 145.72 194.19 144.965 194.474 144.279C194.758 143.593 195.239 143.007 195.857 142.595C196.474 142.182 197.2 141.962 197.942 141.962C198.937 141.962 199.892 142.358 200.596 143.062C201.3 143.765 201.695 144.72 201.695 145.716Z" fill="#FF725E"/>
<path d="M178.943 145.716C178.943 146.458 178.723 147.184 178.311 147.801C177.898 148.418 177.312 148.899 176.626 149.183C175.94 149.467 175.186 149.542 174.458 149.397C173.73 149.252 173.061 148.895 172.536 148.37C172.011 147.845 171.653 147.176 171.509 146.448C171.364 145.72 171.438 144.965 171.722 144.279C172.006 143.593 172.487 143.007 173.105 142.595C173.722 142.182 174.448 141.962 175.19 141.962C176.185 141.962 177.14 142.358 177.844 143.062C178.548 143.765 178.943 144.72 178.943 145.716Z" fill="#FF725E"/>
<path d="M189.864 145.716C189.864 146.458 189.644 147.184 189.231 147.801C188.819 148.418 188.233 148.899 187.547 149.183C186.861 149.467 186.106 149.542 185.378 149.397C184.65 149.252 183.981 148.895 183.456 148.37C182.931 147.845 182.574 147.176 182.429 146.448C182.284 145.72 182.359 144.965 182.643 144.279C182.927 143.593 183.408 143.007 184.025 142.595C184.642 142.182 185.368 141.962 186.11 141.962C187.106 141.962 188.061 142.358 188.764 143.062C189.468 143.765 189.864 144.72 189.864 145.716Z" fill="#FF725E"/>
<path d="M394.725 275.685C394.725 275.889 377.508 276.066 356.279 276.066C335.051 276.066 317.82 275.889 317.82 275.685C317.82 275.481 335.037 275.304 356.279 275.304C377.522 275.304 394.725 275.467 394.725 275.685Z" fill="#455A64"/>
<path d="M394.725 285.98C394.725 286.184 377.508 286.361 356.279 286.361C335.051 286.361 317.82 286.184 317.82 285.98C317.82 285.776 335.037 285.585 356.279 285.585C377.522 285.585 394.725 285.762 394.725 285.98Z" fill="#455A64"/>
<path d="M363.909 296.261C363.909 296.479 353.6 296.656 340.871 296.656C328.142 296.656 317.82 296.479 317.82 296.261C317.82 296.044 328.142 295.88 340.871 295.88C353.6 295.88 363.909 296.057 363.909 296.261Z" fill="#455A64"/>
<path d="M354.389 170.507H317.82V175.145H354.389V170.507Z" fill="#455A64"/>
<path d="M398.179 185.453H317.82V263.201H398.179V185.453Z" fill="#E0E0E0"/>
<path d="M324.049 256.537L346.284 216.528L364.466 242.108L375.509 228.523L391.951 256.537H324.049Z" fill="#FF725E"/>
<path d="M366.425 214.529C369.617 214.529 372.205 211.941 372.205 208.749C372.205 205.557 369.617 202.969 366.425 202.969C363.233 202.969 360.645 205.557 360.645 208.749C360.645 211.941 363.233 214.529 366.425 214.529Z" fill="#FF725E"/>
<path d="M391.951 256.755C391.936 256.651 391.936 256.546 391.951 256.442C391.951 256.197 391.951 255.912 391.951 255.531C391.951 254.701 391.951 253.532 391.951 252.036C391.951 248.949 391.951 244.488 391.869 238.831C391.869 227.475 391.774 211.306 391.706 191.886L392.032 192.212H324.144C324.049 192.294 324.851 191.491 324.511 191.845V209.279C324.511 214.991 324.511 220.594 324.511 226.034C324.511 236.913 324.511 247.222 324.511 256.687L324.171 256.347L373.265 256.524L387.109 256.605H390.781H391.733H390.822H387.204L373.442 256.687L324.13 256.864H323.804V256.524C323.804 247.004 323.804 236.764 323.804 225.871C323.804 220.431 323.804 214.828 323.804 209.116V191.913C323.464 192.239 324.266 191.423 324.198 191.519H392.087H392.413V191.845C392.345 211.346 392.291 227.584 392.25 238.994C392.25 244.624 392.182 249.058 392.155 252.131C392.155 253.6 392.155 254.742 392.155 255.558C392.155 255.925 392.155 256.211 392.155 256.428C392.096 256.543 392.028 256.652 391.951 256.755Z" fill="#455A64"/>
<path d="M492.695 275.685C492.695 275.889 475.478 276.066 454.236 276.066C432.994 276.066 415.791 275.889 415.791 275.685C415.791 275.481 432.994 275.304 454.236 275.304C475.478 275.304 492.695 275.467 492.695 275.685Z" fill="#455A64"/>
<path d="M492.695 285.98C492.695 286.184 475.478 286.361 454.236 286.361C432.994 286.361 415.791 286.184 415.791 285.98C415.791 285.776 432.994 285.585 454.236 285.585C475.478 285.585 492.695 285.762 492.695 285.98Z" fill="#455A64"/>
<path d="M461.879 296.261C461.879 296.479 451.557 296.656 438.828 296.656C426.099 296.656 415.818 296.479 415.818 296.261C415.818 296.044 426.126 295.88 438.855 295.88C451.584 295.88 461.879 296.057 461.879 296.261Z" fill="#455A64"/>
<path d="M452.359 170.507H415.791V175.145H452.359V170.507Z" fill="#455A64"/>
<path d="M496.149 185.453H415.791V263.201H496.149V185.453Z" fill="#E0E0E0"/>
<path d="M422.019 256.537L444.24 216.528L462.423 242.108L473.479 228.523L489.907 256.537H422.019Z" fill="#FF725E"/>
<path d="M470.215 208.749C470.218 209.896 469.88 211.018 469.244 211.973C468.609 212.928 467.704 213.672 466.645 214.112C465.586 214.552 464.42 214.668 463.295 214.445C462.17 214.222 461.136 213.67 460.325 212.859C459.514 212.048 458.962 211.015 458.739 209.889C458.516 208.764 458.632 207.598 459.072 206.539C459.512 205.48 460.257 204.575 461.212 203.94C462.166 203.304 463.288 202.967 464.435 202.969C465.968 202.969 467.438 203.578 468.522 204.662C469.606 205.746 470.215 207.216 470.215 208.749Z" fill="#FF725E"/>
<path d="M489.907 256.755C489.907 256.755 489.907 256.646 489.907 256.442C489.907 256.238 489.907 255.912 489.907 255.531C489.907 254.701 489.907 253.532 489.907 252.036C489.907 248.949 489.907 244.488 489.826 238.831C489.826 227.475 489.717 211.306 489.649 191.886L489.975 192.212H422.087C421.992 192.294 422.808 191.491 422.468 191.845V209.279C422.468 214.991 422.468 220.594 422.468 226.034C422.468 236.913 422.468 247.222 422.468 256.687L422.141 256.347L471.235 256.524L485.079 256.605H488.751H489.703H488.778H485.175L471.398 256.687L422.101 256.864H421.761V256.524C421.761 247.004 421.761 236.764 421.761 225.871V191.913C421.407 192.239 422.223 191.423 422.141 191.519H490.03H490.37V191.845C490.288 211.346 490.234 227.584 490.193 238.994C490.193 244.624 490.125 249.058 490.111 252.131C490.111 253.6 490.111 254.742 490.111 255.558C490.111 255.925 490.111 256.211 490.111 256.428C490.062 256.548 489.993 256.658 489.907 256.755Z" fill="#455A64"/>
<path d="M356.959 310.608H320.391V315.246H356.959V310.608Z" fill="#455A64"/>
<path d="M400.749 325.541H320.391V403.288H400.749V325.541Z" fill="#E0E0E0"/>
<path d="M326.619 396.638L348.854 356.628L367.037 382.195L378.079 368.623L394.521 396.638H326.619Z" fill="#FF725E"/>
<path d="M374.788 348.85C374.788 349.996 374.449 351.116 373.812 352.069C373.175 353.021 372.271 353.764 371.212 354.202C370.153 354.641 368.989 354.756 367.865 354.532C366.741 354.308 365.709 353.757 364.899 352.947C364.088 352.136 363.537 351.104 363.313 349.98C363.089 348.856 363.204 347.692 363.643 346.633C364.081 345.574 364.824 344.67 365.776 344.033C366.729 343.396 367.849 343.057 368.995 343.057C369.756 343.055 370.51 343.203 371.214 343.494C371.918 343.785 372.557 344.211 373.096 344.749C373.634 345.288 374.061 345.927 374.351 346.631C374.642 347.335 374.79 348.089 374.788 348.85Z" fill="#FF725E"/>
<path d="M394.521 396.856C394.521 396.856 394.521 396.733 394.521 396.529C394.521 396.325 394.521 395.999 394.521 395.618C394.521 394.802 394.521 393.633 394.521 392.123C394.521 389.05 394.521 384.589 394.426 378.918C394.426 367.563 394.331 351.393 394.263 331.987L394.589 332.313H326.701L327.082 331.932V336.379C327.082 337.848 327.082 339.317 327.082 340.772V366.189C327.082 377.069 327.082 387.363 327.082 396.842L326.742 396.502L375.836 396.679L389.68 396.761H393.365H394.317C394.426 396.75 394.535 396.75 394.644 396.761H393.433H389.829L376.053 396.856L326.742 397.019H326.416V396.693C326.416 387.173 326.416 376.919 326.416 366.04C326.416 360.6 326.416 355.015 326.416 349.285V331.987L326.81 331.592H394.698H395.024V331.932C394.956 351.434 394.902 367.671 394.861 379.081C394.861 384.711 394.861 389.145 394.78 392.205C394.78 393.687 394.78 394.829 394.78 395.645C394.78 395.999 394.78 396.285 394.78 396.516C394.722 396.648 394.633 396.764 394.521 396.856Z" fill="#455A64"/>
<path d="M454.997 310.608H418.429V315.246H454.997V310.608Z" fill="#455A64"/>
<path d="M498.787 325.541H418.429V403.288H498.787V325.541Z" fill="#E0E0E0"/>
<path d="M424.657 396.638L446.892 356.628L465.075 382.195L476.117 368.623L492.559 396.638H424.657Z" fill="#FF725E"/>
<path d="M472.813 348.85C472.81 349.993 472.469 351.109 471.832 352.057C471.196 353.006 470.292 353.745 469.236 354.18C468.179 354.615 467.018 354.728 465.897 354.503C464.777 354.279 463.748 353.727 462.941 352.918C462.135 352.11 461.585 351.08 461.363 349.959C461.142 348.838 461.257 347.677 461.695 346.621C462.133 345.566 462.873 344.664 463.824 344.03C464.774 343.395 465.891 343.057 467.033 343.057C467.793 343.057 468.546 343.207 469.248 343.498C469.95 343.789 470.588 344.216 471.125 344.754C471.662 345.292 472.087 345.931 472.377 346.634C472.667 347.337 472.815 348.09 472.813 348.85Z" fill="#FF725E"/>
<path d="M492.559 396.856C492.549 396.747 492.549 396.638 492.559 396.529C492.559 396.298 492.559 395.999 492.559 395.618C492.559 394.802 492.559 393.633 492.559 392.123C492.559 389.05 492.559 384.589 492.477 378.918C492.477 367.563 492.382 351.393 492.314 331.987L492.64 332.313H424.739L425.119 331.932V349.394C425.119 355.106 425.119 360.69 425.119 366.148C425.119 377.028 425.119 387.323 425.119 396.801L424.779 396.461L473.873 396.638L487.717 396.72H491.389H492.341H492.681H491.471H487.853L474.091 396.815L424.779 396.978H424.439V396.652C424.439 387.132 424.439 376.878 424.439 365.999C424.439 360.559 424.439 354.974 424.439 349.244V331.987L424.82 331.592H492.722H493.048V331.932C492.98 351.434 492.926 367.671 492.885 379.081C492.885 384.711 492.817 389.145 492.79 392.205C492.79 393.687 492.79 394.829 492.79 395.645C492.79 395.999 492.79 396.285 492.79 396.516C492.723 396.636 492.646 396.75 492.559 396.856Z" fill="#455A64"/>
<path d="M556.15 310.608H519.581V315.246H556.15V310.608Z" fill="#455A64"/>
<path d="M599.94 325.541H519.581V403.288H599.94V325.541Z" fill="#E0E0E0"/>
<path d="M525.81 396.638L548.045 356.628L566.227 382.195L577.27 368.623L593.711 396.638H525.81Z" fill="#FF725E"/>
<path d="M573.978 348.85C573.978 349.996 573.639 351.116 573.002 352.069C572.365 353.021 571.461 353.764 570.402 354.202C569.343 354.641 568.179 354.756 567.055 354.532C565.931 354.308 564.899 353.757 564.088 352.947C563.278 352.136 562.726 351.104 562.503 349.98C562.279 348.856 562.394 347.692 562.833 346.633C563.271 345.574 564.014 344.67 564.966 344.033C565.919 343.396 567.039 343.057 568.185 343.057C568.946 343.055 569.7 343.203 570.404 343.494C571.108 343.785 571.747 344.211 572.285 344.749C572.824 345.288 573.25 345.927 573.541 346.631C573.831 347.335 573.98 348.089 573.978 348.85Z" fill="#FF725E"/>
<path d="M593.711 396.856C593.711 396.856 593.711 396.733 593.711 396.529C593.711 396.325 593.711 395.999 593.711 395.618C593.711 394.802 593.711 393.633 593.711 392.123C593.711 389.05 593.711 384.589 593.616 378.918C593.616 367.563 593.521 351.393 593.453 331.987L593.779 332.313H525.891L526.272 331.932V366.148C526.272 377.028 526.272 387.323 526.272 396.801L525.932 396.461L575.026 396.638L588.87 396.72H592.555H593.494C593.607 396.709 593.721 396.709 593.834 396.72H592.623H589.019L575.243 396.815L525.932 396.978H525.605V396.652C525.605 387.132 525.605 376.878 525.605 365.999C525.605 360.559 525.605 354.974 525.605 349.244V331.987L526 331.592H593.888H594.214V331.932C594.146 351.434 594.092 367.671 594.051 379.081C594.051 384.711 593.983 389.145 593.97 392.205C593.97 393.687 593.97 394.829 593.97 395.645C593.97 395.999 593.97 396.285 593.97 396.516C593.912 396.648 593.823 396.764 593.711 396.856Z" fill="#455A64"/>
<path d="M592.419 263.187C595.341 262.811 598.289 262.684 601.232 262.806L600.851 263.187V262.317C600.851 262.018 600.851 261.732 600.851 261.446C600.851 260.875 600.851 260.331 600.851 259.787C600.851 258.822 600.851 257.883 600.933 256.986C600.891 256.116 600.983 255.244 601.205 254.402C601.408 255.247 601.495 256.117 601.463 256.986C601.463 257.883 601.463 258.822 601.545 259.787C601.545 260.331 601.545 260.875 601.545 261.446V263.187L601.15 263.581C598.234 263.707 595.312 263.575 592.419 263.187Z" fill="#455A64"/>
<path d="M552.342 263.187C559.014 262.68 565.715 262.68 572.387 263.187C565.716 263.713 559.013 263.713 552.342 263.187Z" fill="#455A64"/>
<path d="M523.484 254.375C523.868 257.296 523.996 260.244 523.865 263.187L523.484 262.807H526.925L529.726 262.888C530.596 262.865 531.465 262.957 532.31 263.16C531.468 263.38 530.596 263.472 529.726 263.432L526.925 263.514H525.266H523.484L523.103 263.119C522.985 260.199 523.112 257.274 523.484 254.375Z" fill="#455A64"/>
<path d="M523.484 214.297C523.868 217.624 523.996 220.974 523.865 224.32C523.996 227.661 523.869 231.008 523.484 234.329C523.108 231.007 522.981 227.661 523.103 224.32C522.981 220.974 523.108 217.624 523.484 214.297Z" fill="#455A64"/>
<path d="M532.31 185.426C529.385 185.81 526.432 185.937 523.484 185.807L523.865 185.426V187.18C523.865 187.738 523.865 188.295 523.865 188.839C523.865 189.805 523.865 190.73 523.783 191.641C523.823 192.511 523.731 193.382 523.511 194.225C523.291 193.382 523.2 192.511 523.239 191.641C523.239 190.73 523.239 189.805 523.158 188.839C523.158 188.295 523.158 187.738 523.158 187.18C523.158 186.895 523.158 186.595 523.158 186.296V185.426L523.538 185.045C526.468 184.926 529.402 185.053 532.31 185.426Z" fill="#455A64"/>
<path d="M572.387 185.426C565.715 185.934 559.014 185.934 552.342 185.426C559.014 184.918 565.715 184.918 572.387 185.426Z" fill="#455A64"/>
<path d="M601.245 194.265C600.852 191.341 600.72 188.387 600.851 185.439C601.626 186.201 601.068 185.657 601.232 185.82H599.409H597.75L594.949 185.739C594.079 185.778 593.207 185.687 592.365 185.467C593.207 185.247 594.079 185.155 594.949 185.195L597.75 185.113H601.177L601.572 185.494C601.709 188.422 601.599 191.356 601.245 194.265Z" fill="#455A64"/>
<path d="M601.245 234.383C600.852 231.063 600.72 227.716 600.851 224.374C600.72 221.028 600.852 217.677 601.245 214.352C601.621 217.678 601.749 221.029 601.626 224.374C601.749 227.716 601.622 231.061 601.245 234.383Z" fill="#455A64"/>
<path d="M600.116 275.576C600.116 275.78 582.886 275.957 561.657 275.957C540.429 275.957 523.198 275.78 523.198 275.576C523.198 275.372 540.415 275.195 561.657 275.195C582.9 275.195 600.116 275.359 600.116 275.576Z" fill="#455A64"/>
<path d="M600.117 285.871C600.117 286.075 582.886 286.252 561.658 286.252C540.429 286.252 523.253 286.061 523.253 285.871C523.253 285.681 540.47 285.477 561.712 285.477C582.954 285.477 600.117 285.653 600.117 285.871Z" fill="#455A64"/>
<path d="M559.767 170.399H523.198V175.036H559.767V170.399Z" fill="#455A64"/>
<path d="M280.436 230.902C280.436 238.702 278.123 246.327 273.789 252.813C269.455 259.299 263.296 264.354 256.09 267.339C248.883 270.324 240.954 271.104 233.303 269.583C225.653 268.061 218.626 264.305 213.11 258.789C207.595 253.274 203.839 246.247 202.317 238.596C200.795 230.946 201.576 223.016 204.561 215.81C207.546 208.604 212.601 202.444 219.087 198.111C225.572 193.777 233.197 191.464 240.997 191.464C251.457 191.464 261.488 195.619 268.884 203.015C276.28 210.411 280.436 220.443 280.436 230.902Z" fill="#E0E0E0"/>
<path d="M288.228 316.796C288.228 317 267.992 317.177 243.037 317.177C218.082 317.177 197.833 317 197.833 316.796C197.833 316.592 218.069 316.401 243.037 316.401C268.006 316.401 288.228 316.578 288.228 316.796Z" fill="#455A64"/>
<path d="M288.228 326.859C288.228 327.077 267.992 327.24 243.037 327.24C218.082 327.24 197.833 327.077 197.833 326.859C197.833 326.642 218.069 326.479 243.037 326.479C268.006 326.479 288.228 326.574 288.228 326.859Z" fill="#455A64"/>
<path d="M288.228 336.787C288.228 337.004 267.992 337.168 243.037 337.168C218.082 337.168 197.833 337.004 197.833 336.787C197.833 336.569 218.069 336.379 243.105 336.379C268.142 336.379 288.228 336.583 288.228 336.787Z" fill="#455A64"/>
<path d="M249.769 347C249.769 347.218 238.033 347.381 223.563 347.381C209.093 347.381 197.343 347.218 197.343 347C197.343 346.783 209.08 346.62 223.563 346.62C238.046 346.62 249.769 346.796 249.769 347Z" fill="#455A64"/>
<path d="M197.833 300.939H260.118V296.383H197.833V300.939Z" fill="#455A64"/>
<path d="M216.328 260.998C223.269 267.007 232.143 270.315 241.324 270.315C250.505 270.315 259.379 267.007 266.319 260.998C264.225 253.872 259.139 245.413 246.777 243.536C249.549 242.315 251.901 240.307 253.542 237.761C255.184 235.216 256.042 232.245 256.011 229.216C256.011 220.648 249.565 213.686 241.541 213.645C233.518 213.604 226.99 220.526 226.949 229.08C226.893 232.137 227.742 235.142 229.39 237.716C231.038 240.291 233.411 242.321 236.21 243.55C223.645 245.413 218.463 253.913 216.328 260.998Z" fill="#FF725E"/>
<path d="M232.756 362.612H197.833V366.869H232.756V362.612Z" fill="#FF725E"/>
<path d="M720.634 214.882L726.591 234.86C726.908 235.757 727.087 236.697 727.121 237.648C727.121 240.463 724.401 242.679 721.681 243.196C718.873 243.5 716.033 243.165 713.372 242.217C712.638 245.087 709.292 246.297 706.368 246.841C693.343 249.264 679.887 247.587 667.855 242.04C672.99 234.688 677.163 226.708 680.271 218.296L710.652 219.656C712.442 219.85 714.251 219.697 715.983 219.207C716.844 218.946 717.613 218.446 718.201 217.764C718.788 217.083 719.17 216.248 719.301 215.358" fill="#FF725E"/>
<path d="M685.82 253.899C686.201 251.669 685.29 242.285 685.29 242.285C685.29 242.285 676.736 241.374 676.219 232.888C675.702 224.402 676.219 204.819 676.219 204.819L691.804 197.203L708.966 210.191L706.369 252.634L687.806 269.198L685.82 253.899Z" fill="#FFBE9D"/>
<path d="M677.919 219.084C677.916 219.3 677.977 219.512 678.095 219.692C678.213 219.873 678.382 220.015 678.581 220.099C678.779 220.183 678.998 220.207 679.21 220.166C679.422 220.126 679.617 220.024 679.771 219.872C679.924 219.72 680.029 219.526 680.072 219.315C680.116 219.104 680.095 218.884 680.013 218.685C679.931 218.485 679.792 218.314 679.612 218.194C679.433 218.074 679.222 218.01 679.007 218.01C678.864 218.008 678.723 218.035 678.591 218.088C678.459 218.141 678.339 218.22 678.238 218.32C678.137 218.42 678.056 218.539 678.002 218.67C677.947 218.801 677.919 218.942 677.919 219.084Z" fill="#263238"/>
<path d="M676.926 217.901C677.075 218.051 677.878 217.371 679.047 217.303C680.217 217.235 681.087 217.806 681.21 217.643C681.332 217.48 681.128 217.317 680.747 217.058C680.229 216.717 679.612 216.554 678.993 216.596C678.377 216.627 677.789 216.861 677.32 217.262C676.926 217.575 676.79 217.847 676.926 217.901Z" fill="#263238"/>
<path d="M690.525 219.084C690.523 219.301 690.585 219.513 690.703 219.694C690.822 219.875 690.991 220.016 691.191 220.1C691.39 220.184 691.61 220.207 691.822 220.165C692.035 220.124 692.23 220.02 692.383 219.867C692.536 219.714 692.639 219.519 692.681 219.307C692.723 219.094 692.7 218.874 692.616 218.675C692.532 218.476 692.39 218.306 692.209 218.188C692.028 218.069 691.816 218.007 691.6 218.01C691.315 218.01 691.042 218.123 690.84 218.325C690.639 218.526 690.525 218.799 690.525 219.084Z" fill="#263238"/>
<path d="M689.832 217.901C689.968 218.051 690.77 217.371 691.94 217.303C693.109 217.235 693.993 217.806 694.115 217.643C694.238 217.48 694.034 217.316 693.639 217.058C693.124 216.721 692.514 216.559 691.899 216.596C691.284 216.633 690.698 216.866 690.226 217.262C689.873 217.575 689.764 217.847 689.832 217.901Z" fill="#263238"/>
<path d="M689.478 228.944C687.692 229.855 685.788 230.515 683.821 230.902C684.255 231.487 684.87 231.913 685.571 232.112C686.272 232.311 687.02 232.273 687.697 232.004C688.019 231.928 688.324 231.788 688.59 231.591C688.857 231.394 689.08 231.144 689.247 230.858C689.414 230.571 689.52 230.254 689.56 229.925C689.6 229.596 689.572 229.262 689.478 228.944Z" fill="#FAFAFA"/>
<path d="M685.29 242.285C689.324 242.118 693.226 240.802 696.536 238.491C696.536 238.491 693.993 244.719 685.48 244.366L685.29 242.285Z" fill="#EB996E"/>
<path d="M733.662 234.601C732.595 234.642 731.536 234.403 730.589 233.908C729.192 233.148 728.03 232.019 727.23 230.644C726.239 228.931 725.401 227.133 724.728 225.272C723.137 221.328 722.008 217.656 721.124 214.991C721.001 214.569 720.879 214.189 720.77 213.821C720.719 213.428 720.647 213.037 720.553 212.652C715.915 194.973 700.358 191.654 697.284 191.654C693.979 191.654 688.2 189.832 679.782 198.59C678.508 199.895 677.431 201.38 676.586 202.996C674.73 205.332 673.449 208.071 672.846 210.993C672.477 212.363 672.412 213.797 672.656 215.195C672.819 215.195 672.846 213.604 673.499 211.115C673.89 209.668 674.437 208.268 675.131 206.94C674.398 210.21 674.697 213.626 675.988 216.718L679.007 215.875L689.886 212.203C688.893 208.858 690.348 204.696 691.164 202.684H691.246C693.721 215.385 707.715 216.718 707.715 216.718L707.021 240.83C721.396 237.756 721.586 222.063 721.491 218.16C722.144 220.363 722.987 222.892 724.048 225.544C724.758 227.434 725.642 229.255 726.686 230.984C727.569 232.451 728.865 233.624 730.412 234.357C731.453 234.85 732.619 235.021 733.758 234.846C734.179 234.807 734.583 234.657 734.927 234.411C734.502 234.447 734.079 234.51 733.662 234.601Z" fill="#FF725E"/>
<path d="M685.616 227.788C684.996 227.646 684.361 227.577 683.725 227.584C683.426 227.584 683.127 227.584 683.073 227.312C683.031 226.986 683.087 226.654 683.236 226.36C683.494 225.599 683.753 224.796 684.038 223.94C684.596 222.212 685.072 220.648 685.398 219.506C685.623 218.903 685.765 218.271 685.82 217.629C685.501 218.195 685.254 218.798 685.085 219.425C684.677 220.54 684.147 222.144 683.589 223.831L682.814 226.265C682.646 226.65 682.608 227.08 682.705 227.489C682.753 227.592 682.823 227.683 682.91 227.756C682.997 227.828 683.099 227.881 683.209 227.911C683.376 227.929 683.545 227.929 683.712 227.911C684.349 227.946 684.988 227.905 685.616 227.788Z" fill="#263238"/>
<path d="M705.349 220.879C702.71 220.363 700.48 219.995 699.718 219.941C699.819 219.495 699.874 219.039 699.882 218.581C699.869 217.112 699.393 215.684 698.522 214.501C697.719 213.4 696.599 212.569 695.312 212.121C694.157 211.711 692.912 211.617 691.708 211.849C690.659 212.061 689.678 212.528 688.853 213.209C687.638 214.148 686.787 215.48 686.445 216.976C686.349 217.377 686.299 217.788 686.296 218.2C686.274 218.34 686.274 218.482 686.296 218.622C686.296 218.622 686.296 218.037 686.595 217.031C686.988 215.606 687.844 214.352 689.029 213.468C689.83 212.864 690.762 212.458 691.749 212.285C693.016 212.055 694.322 212.21 695.499 212.729C696.677 213.249 697.672 214.109 698.357 215.198C699.042 216.288 699.384 217.558 699.341 218.845C699.298 220.131 698.87 221.375 698.114 222.416C697.366 223.452 696.324 224.239 695.122 224.674C694.044 225.072 692.88 225.175 691.749 224.973C690.761 224.795 689.829 224.384 689.029 223.776C687.843 222.899 686.986 221.649 686.595 220.227C686.483 219.826 686.405 219.417 686.364 219.003C686.568 219.003 686.704 218.894 686.704 218.84C686.704 218.785 686.541 218.704 686.309 218.663C686.038 218.638 685.765 218.638 685.493 218.663C685.164 218.661 684.835 218.697 684.514 218.772V218.69C684.509 217.22 684.032 215.79 683.154 214.61C682.354 213.512 681.24 212.682 679.958 212.23C678.798 211.82 677.55 211.726 676.341 211.958C675.072 212.215 673.902 212.829 672.97 213.727C672.038 214.626 671.381 215.772 671.078 217.031C670.982 217.432 670.932 217.842 670.929 218.255C670.907 218.394 670.907 218.537 670.929 218.676C670.929 218.676 670.929 218.092 671.228 217.085C671.621 215.66 672.477 214.406 673.662 213.522C674.462 212.918 675.394 212.513 676.382 212.339C677.311 212.17 678.265 212.206 679.178 212.447C680.091 212.687 680.94 213.125 681.665 213.729C682.391 214.334 682.974 215.09 683.375 215.945C683.775 216.8 683.983 217.732 683.984 218.676C683.983 219.995 683.578 221.281 682.825 222.363C682.071 223.445 681.004 224.27 679.768 224.728C678.686 225.126 677.517 225.23 676.382 225.027C675.393 224.849 674.461 224.439 673.662 223.83C672.476 222.954 671.618 221.704 671.228 220.281C670.956 219.275 670.983 218.676 670.929 218.676C670.908 218.821 670.908 218.967 670.929 219.111C670.932 219.519 670.982 219.925 671.078 220.322C671.418 221.823 672.269 223.16 673.485 224.102C674.317 224.774 675.295 225.24 676.341 225.462C677.55 225.695 678.798 225.601 679.958 225.19C681.238 224.734 682.351 223.905 683.154 222.811C683.965 221.724 684.438 220.424 684.514 219.071C684.843 219.152 685.182 219.189 685.521 219.179C685.783 219.196 686.047 219.196 686.309 219.179C686.313 219.587 686.363 219.993 686.459 220.39C686.752 221.655 687.405 222.808 688.339 223.711C689.273 224.613 690.448 225.226 691.722 225.476C692.926 225.709 694.17 225.615 695.326 225.204C696.61 224.75 697.728 223.921 698.535 222.824C699.095 222.063 699.484 221.192 699.678 220.267C700.398 220.499 702.602 221.015 705.267 221.532C707.217 221.991 709.199 222.305 711.196 222.471C709.295 221.777 707.339 221.245 705.349 220.879Z" fill="#263238"/>
<path d="M709.864 227.435C709.729 226.021 709.886 224.596 710.326 223.246C710.551 222.574 710.952 221.974 711.488 221.51C712.024 221.046 712.675 220.734 713.372 220.608C714.179 220.567 714.974 220.821 715.609 221.321C716.244 221.821 716.676 222.533 716.827 223.328C716.925 224.141 716.777 224.965 716.401 225.692C716.025 226.42 715.439 227.017 714.719 227.407C713.993 227.783 713.192 227.99 712.375 228.014C711.558 228.038 710.746 227.877 710 227.543" fill="#FFBE9D"/>
<path d="M712.284 226.224C712.284 226.129 712.747 226.333 713.345 226.224C713.719 226.093 714.042 225.848 714.269 225.523C714.496 225.199 714.615 224.811 714.61 224.415C714.647 224.217 714.639 224.012 714.587 223.817C714.536 223.622 714.441 223.441 714.311 223.287C714.05 223.077 713.718 222.98 713.386 223.015C712.747 223.015 712.298 223.232 712.271 223.123C712.243 223.015 712.556 222.729 713.318 222.525C713.551 222.467 713.793 222.461 714.028 222.508C714.264 222.555 714.485 222.654 714.678 222.797C714.902 223.009 715.072 223.271 715.173 223.562C715.275 223.853 715.306 224.165 715.263 224.47C715.242 225.052 715.021 225.609 714.637 226.047C714.317 226.417 713.871 226.654 713.386 226.714C712.651 226.7 712.284 226.224 712.284 226.224Z" fill="#EB996E"/>
<path d="M683.005 279.466L657.887 271.102C657.887 271.102 646.803 303.033 643.404 303.346C624.582 305.06 604.441 298.818 597.37 296.356C596.662 295.554 595.846 294.588 594.935 293.405C594.152 292.386 593.55 291.241 593.154 290.019C592.61 288.521 592.272 286.956 592.147 285.368C592.177 285.062 592.11 284.754 591.957 284.487C591.803 284.221 591.571 284.009 591.291 283.88C591.012 283.752 590.699 283.713 590.397 283.77C590.095 283.827 589.818 283.977 589.604 284.198C588.802 285.259 588.584 289.284 590.448 293.636C592.311 297.988 585.729 294.52 583.308 293.296C580.887 292.072 573.231 288.672 572.265 289.121C570.905 289.788 571.3 291.42 573.748 292.575C576.195 293.731 583.267 297.716 582.573 298.967C581.88 300.218 569.64 293.84 569.64 293.84C569.64 293.84 567.247 292.059 566.39 293.473C564.84 296.016 578.33 301.823 579.636 302.34C580.534 302.693 579.826 304.081 578.874 303.7C577.923 303.319 566.825 297.077 565.207 299.62C563.983 301.592 576.277 304.489 577.868 307.045C579.459 309.602 568.757 303.904 567.669 305.848C567.261 306.569 567.043 307.208 573.652 309.548C578.504 311.053 583.434 312.293 588.421 313.26V313.328C588.421 313.328 654.446 342.852 668.658 314.403C683.726 284.212 683.005 279.466 683.005 279.466Z" fill="#FFBE9D"/>
<path d="M667.638 349.638C667.638 349.638 651.631 456.013 653.929 461.153C656.228 466.294 738.545 553.629 738.545 553.629L757.801 520.637C757.801 520.637 692.864 448.152 693.354 446.208C693.844 444.263 716.364 340.812 716.364 340.812L667.638 349.638Z" fill="#455A64"/>
<path d="M671.132 481.022L684.664 451.307L698.195 421.593L675.403 461.099L671.132 481.022Z" fill="#263238"/>
<path d="M679.197 454.517C679.259 454.904 679.286 455.295 679.279 455.687C679.279 456.53 679.279 457.659 679.36 459.059V458.951C684.514 464.771 695.938 477.99 709.129 493.439L732.044 520.447L738.926 528.702C739.687 529.627 740.286 530.388 740.762 530.959C740.994 531.211 741.195 531.489 741.36 531.789C741.098 531.572 740.856 531.33 740.639 531.068L738.694 528.892C736.954 526.92 734.615 524.173 731.623 520.814L708.504 493.955C695.326 478.52 684.025 465.165 679.088 459.168C679.088 457.808 679.088 456.639 679.156 455.795C679.112 455.369 679.125 454.939 679.197 454.517Z" fill="#263238"/>
<path d="M751.627 513.81C751.818 513.933 747.316 521.072 741.591 529.749C735.866 538.425 731.079 545.374 730.902 545.252C730.725 545.13 735.213 537.99 740.938 529.313C746.664 520.637 751.451 513.688 751.627 513.81Z" fill="#263238"/>
<path d="M661.844 389.593C661.994 388.478 674.777 359.675 674.777 359.675L668.576 350.93L667.474 350.686L661.844 389.593Z" fill="#263238"/>
<path d="M680.176 348.619L667.475 350.74L674.777 359.729C662.987 386.411 638.63 442.903 635.706 461.113C631.817 485.238 617.17 560.592 618.639 561.748C620.108 562.904 653.875 561.748 653.875 561.748L675.403 461.113L723.001 378.673C728.921 368.407 730.651 356.253 727.829 344.743L726.877 340.826" fill="#455A64"/>
<path d="M642.125 550.57C642.132 550.382 642.155 550.196 642.193 550.012C642.193 549.604 642.329 549.06 642.438 548.367L643.485 542.07C644.45 536.562 645.824 528.661 647.565 518.951C649.305 509.241 651.386 497.559 653.684 484.667C654.881 478.221 656.132 471.448 657.424 464.431C657.751 462.69 658.104 460.922 658.444 459.141C658.621 458.243 658.784 457.359 658.988 456.421C659.097 455.972 659.179 455.51 659.315 455.061L659.818 453.701C661.178 450.247 662.728 446.901 664.251 443.379C676.559 415.732 688.009 390.845 696.291 372.839L706.178 351.529C707.334 349.054 708.259 347.123 708.898 345.763C709.197 345.137 709.442 344.634 709.632 344.267C709.705 344.09 709.796 343.921 709.904 343.764L709.7 344.308L709.048 345.831L706.45 351.665C704.125 356.778 700.806 364.122 696.754 373.098C688.594 391.171 677.225 416.085 664.931 443.733C663.408 447.187 661.871 450.614 660.511 454L660.022 455.251C659.886 455.687 659.818 456.135 659.709 456.611C659.505 457.482 659.342 458.393 659.151 459.331C658.811 461.113 658.471 462.881 658.132 464.621C656.772 471.625 655.561 478.398 654.351 484.83C651.985 497.722 649.85 509.309 648.054 519.087C646.259 528.865 644.804 536.685 643.798 542.206C643.281 544.926 642.873 546.993 642.601 548.475C642.451 549.155 642.343 549.699 642.261 550.107C642.233 550.266 642.187 550.421 642.125 550.57Z" fill="#263238"/>
<path d="M667.474 350.726L667.964 351.882L728.984 346.946L726.835 340.812L667.474 350.726Z" fill="#263238"/>
<path d="M692.674 251.315L688.594 267.797L688.445 255.939L688.758 253.314L689.125 251.315L683.685 249.479L680.884 253.844H680.068C680.068 253.844 658.105 251.655 650.421 280.676L643.39 297.879L664.673 308.487V309.847L666.033 350.903L727.502 340.949C727.747 331.728 718.336 315.028 720.417 306.678L727.502 278.119L718.214 251.505L711.781 251.709L708.205 247.48L692.742 251.315" fill="#263238"/>
<path d="M665.054 308.242C664.559 308.104 664.096 307.868 663.694 307.549C662.56 306.769 661.593 305.77 660.852 304.611C659.726 302.874 659.214 300.811 659.396 298.75C659.5 296.229 660.331 293.791 661.79 291.732C662.922 290.118 664.411 288.787 666.142 287.843L665.951 288.088C666.468 284.321 666.931 281.084 667.311 278.786C667.441 277.559 667.669 276.345 667.991 275.155C667.992 276.393 667.901 277.629 667.719 278.854C667.488 281.152 667.121 284.416 666.659 288.183V288.346L666.495 288.441C664.648 289.493 663.095 290.992 661.978 292.8C660.862 294.608 660.217 296.668 660.104 298.791C659.898 300.728 660.328 302.68 661.328 304.353C662.009 305.485 662.883 306.488 663.911 307.317C664.687 307.916 665.067 308.188 665.054 308.242Z" fill="#455A64"/>
<path d="M667.406 280.622C667.23 280.703 666.631 279.833 666.046 278.664C665.462 277.494 665.149 276.474 665.326 276.393C665.502 276.311 666.101 277.181 666.686 278.351C667.27 279.52 667.542 280.459 667.406 280.622Z" fill="#455A64"/>
<path d="M604.523 268.954L797.879 306.094C811.669 308.745 820.345 321.338 818.781 335.686C818.759 335.888 818.723 336.088 818.672 336.284C818.029 339.676 816.717 342.906 814.814 345.786C812.911 348.666 810.454 351.139 807.587 353.062C804.719 354.984 801.498 356.317 798.111 356.983C794.724 357.649 791.238 357.635 787.856 356.942L598.362 318.7L556.571 285.3L604.523 268.954Z" fill="#FF725E"/>
<path d="M604.523 268.954C604.523 268.954 615.076 272.911 612.9 283.029C610.724 293.147 600.511 292.725 600.511 292.725C600.511 292.725 610.438 294.928 607.691 309.113C605.91 318.251 598.362 318.727 598.362 318.727L556.571 285.3L604.523 268.954Z" fill="#E0E0E0"/>
<path d="M565.656 292.562C569.736 290.536 571.164 285.137 569.736 280.826L556.612 285.3L565.656 292.562Z" fill="#455A64"/>
<path d="M795.241 332.191L794.738 332.123L793.242 331.878L787.543 330.858C782.593 329.96 775.454 328.614 766.614 326.914C748.935 323.514 724.605 318.632 697.733 313.083L628.947 298.777L608.099 294.411L602.442 293.201L600.973 292.861C600.801 292.836 600.632 292.791 600.47 292.725C600.644 292.732 600.817 292.755 600.987 292.793L602.469 293.052L608.154 294.139L629.083 298.301L697.923 312.403C724.782 317.952 749.125 322.916 766.764 326.438L787.639 330.599L793.31 331.755L794.792 332.068C794.946 332.09 795.097 332.131 795.241 332.191Z" fill="#455A64"/>
<path d="M787.856 356.941C791.238 357.635 794.724 357.649 798.111 356.982C801.498 356.316 804.719 354.983 807.587 353.061C810.454 351.139 812.911 348.666 814.814 345.786C816.717 342.905 818.029 339.676 818.672 336.284C818.723 336.087 818.759 335.887 818.781 335.686C820.345 321.338 811.668 308.745 797.879 306.093L787.856 356.941Z" fill="#455A64"/>
<path d="M711.006 276.691C711.006 276.691 699.243 313.804 695.965 314.62C677.633 319.298 656.758 316.32 649.401 315.001C648.571 314.321 647.592 313.478 646.518 312.471C645.59 311.586 644.818 310.552 644.233 309.412C643.454 308.021 642.873 306.529 642.506 304.978C642.492 304.665 642.379 304.364 642.184 304.119C641.988 303.875 641.72 303.698 641.418 303.615C641.116 303.532 640.795 303.546 640.502 303.657C640.209 303.768 639.958 303.968 639.786 304.23C639.147 305.4 639.582 309.412 642.098 313.41C642.098 313.41 627.356 322.766 624.133 322.685C620.91 322.603 611.676 322.372 612.642 323.65C613.607 324.928 624.133 326.683 624.133 326.683L643.172 333.142C643.172 333.142 713.019 351.937 722.579 321.583C728.427 302.979 732.479 292.032 733.391 287.585L711.006 276.691Z" fill="#FFBE9D"/>
<path d="M718.309 251.56C718.309 251.56 733.676 254.28 734.275 279.439C734.559 294.738 731.262 309.893 724.646 323.691L697.611 309.493C703.683 297.342 708.25 284.496 711.21 271.238L718.227 251.546L718.309 251.56Z" fill="#263238"/>
<path d="M710.421 272.639C710.422 273.161 710.363 273.681 710.244 274.189C710.095 275.168 709.836 276.582 709.456 278.269C708.458 282.794 707.2 287.257 705.689 291.637C704.169 296.017 702.393 300.303 700.371 304.475C699.596 306.08 698.93 307.358 698.44 308.215C698.217 308.696 697.944 309.152 697.624 309.575C697.748 309.07 697.94 308.585 698.195 308.133C698.658 307.086 699.242 305.808 699.922 304.312C701.364 301.075 703.241 296.546 705.022 291.447C706.804 286.347 708.096 281.628 708.966 278.187C709.365 276.582 709.705 275.223 709.986 274.107C710.071 273.602 710.217 273.109 710.421 272.639Z" fill="#455A64"/>
</svg>
