<svg width="16" height="17" viewBox="0 0 16 17" fill="none" xmlns="http://www.w3.org/2000/svg">
<g id="Following" clip-path="url(#clip0_448_3145)">
<path id="Tracciato 3916" d="M10.483 14.8141H5.54336C5.4669 14.8127 5.39147 14.7962 5.32139 14.7656C5.25131 14.7349 5.18795 14.6907 5.13494 14.6355C5.08193 14.5802 5.04032 14.5151 5.01249 14.4437C4.98465 14.3723 4.97114 14.2961 4.97273 14.2195V13.6248C4.96411 12.5826 5.25929 11.5606 5.82202 10.6842C6.38475 9.80777 7.19055 9.11511 8.1405 8.69123C10.0564 7.86407 11.3403 8.41596 12.8068 9.94334C12.9143 10.0402 13.0553 10.0912 13.1997 10.0855C13.3441 10.0797 13.4806 10.0177 13.5801 9.9126C13.6805 9.8049 13.7387 9.6645 13.7441 9.5172C13.7495 9.36991 13.7017 9.22561 13.6094 9.11083C13.6841 8.85159 12.4095 8.02843 11.8442 7.57409C12.8468 7.23334 14.1041 4.65029 13.5774 2.91712C13.3495 2.08021 12.8533 1.34163 12.1654 0.81513C11.4775 0.288631 10.6359 0.00341797 9.77037 0.00341797C8.90483 0.00341797 8.06328 0.288631 7.37536 0.81513C6.68743 1.34163 6.19128 2.08021 5.96333 2.91712C5.70862 3.75639 5.71939 4.65411 5.99415 5.487C6.26892 6.31989 6.79421 7.04709 7.49788 7.56875C6.34438 8.08441 5.37541 8.94069 4.72047 10.0231C4.06554 11.1056 3.75586 12.3626 3.83282 13.6262V14.2208C3.82389 14.6845 3.99907 15.1328 4.31984 15.4671C4.64061 15.8014 5.08071 15.9943 5.54336 16.0034H10.483C10.6353 15.9962 10.779 15.9304 10.8842 15.8198C10.9895 15.7092 11.0482 15.5623 11.0482 15.4094C11.0482 15.2566 10.9895 15.1096 10.8842 14.999C10.779 14.8884 10.6353 14.8214 10.483 14.8141ZM6.92725 4.15319C6.9129 3.76908 6.97598 3.38603 7.11272 3.02692C7.24947 2.66782 7.45707 2.34005 7.72312 2.06322C7.98916 1.78638 8.30818 1.56618 8.66109 1.41577C9.014 1.26536 9.39355 1.18783 9.77704 1.18783C10.1605 1.18783 10.5401 1.26536 10.893 1.41577C11.2459 1.56618 11.5649 1.78638 11.831 2.06322C12.097 2.34005 12.3046 2.66782 12.4414 3.02692C12.5781 3.38603 12.6412 3.76908 12.6268 4.15319C12.6412 4.53729 12.5781 4.92035 12.4414 5.27945C12.3046 5.63855 12.097 5.96632 11.831 6.24315C11.5649 6.51999 11.2459 6.74019 10.893 6.8906C10.5401 7.04102 10.1605 7.11854 9.77704 7.11854C9.39355 7.11854 9.014 7.04102 8.66109 6.8906C8.30818 6.74019 7.98916 6.51999 7.72312 6.24315C7.45707 5.96632 7.24947 5.63855 7.11272 5.27945C6.97598 4.92035 6.9129 4.53729 6.92725 4.15319Z" fill="#F1F1F1"/>
<path id="Vector" d="M13.5 11C13.4053 11 13.3144 11.0376 13.2475 11.1046C13.1805 11.1716 13.1429 11.2624 13.1429 11.3571V13.1429H11.3571C11.2624 13.1429 11.1716 13.1805 11.1046 13.2475C11.0376 13.3144 11 13.4053 11 13.5C11 13.5947 11.0376 13.6856 11.1046 13.7525C11.1716 13.8195 11.2624 13.8571 11.3571 13.8571H13.1429V15.6429C13.1429 15.7376 13.1805 15.8284 13.2475 15.8954C13.3144 15.9624 13.4053 16 13.5 16C13.5947 16 13.6856 15.9624 13.7525 15.8954C13.8195 15.8284 13.8571 15.7376 13.8571 15.6429V13.8571H15.6429C15.7376 13.8571 15.8284 13.8195 15.8954 13.7525C15.9624 13.6856 16 13.5947 16 13.5C16 13.4053 15.9624 13.3144 15.8954 13.2475C15.8284 13.1805 15.7376 13.1429 15.6429 13.1429H13.8571V11.3571C13.8571 11.2624 13.8195 11.1716 13.7525 11.1046C13.6856 11.0376 13.5947 11 13.5 11Z" fill="#E62020"/>
<path id="Tracciato 3918" d="M3.83587 12.4556H0.822761C0.785991 12.4549 0.749719 12.447 0.716015 12.4322C0.682311 12.4175 0.651837 12.3962 0.626333 12.3697C0.600828 12.3431 0.580793 12.3118 0.567372 12.2774C0.553951 12.2431 0.547407 12.2065 0.548114 12.1696V11.8837C0.543853 11.3827 0.685669 10.8913 0.956146 10.4699C1.22662 10.0486 1.61399 9.71554 2.07067 9.51176C2.52148 9.31817 3.02064 9.26768 3.50096 9.36707C3.98127 9.46646 4.41967 9.71096 4.75713 10.0677C4.8088 10.1143 4.87661 10.1389 4.9461 10.1361C5.01559 10.1334 5.08126 10.1035 5.12911 10.053C5.17805 10.0011 5.20653 9.93326 5.20923 9.86196C5.21193 9.79066 5.18866 9.72081 5.14377 9.66543C4.85274 9.35931 4.5007 9.118 4.11051 8.9572C4.44896 8.70582 4.70133 8.35547 4.83289 7.95439C4.96445 7.5533 4.96873 7.1212 4.84513 6.71757C4.73532 6.31553 4.49675 5.96079 4.16613 5.70794C3.8355 5.45508 3.43114 5.31812 3.01526 5.31812C2.59938 5.31812 2.19502 5.45508 1.8644 5.70794C1.53378 5.96079 1.29521 6.31553 1.1854 6.71757C1.0618 7.1212 1.06608 7.5533 1.19764 7.95439C1.32919 8.35547 1.58157 8.70582 1.92001 8.9572C1.3463 9.19887 0.857355 9.60623 0.515451 10.1274C0.173547 10.6486 -0.00583558 11.26 0.000155504 11.8837V12.1696C-0.00196564 12.28 0.0176314 12.3898 0.0578269 12.4925C0.0980223 12.5953 0.158028 12.6892 0.234418 12.7687C0.310808 12.8483 0.402085 12.9119 0.503034 12.9561C0.603984 13.0003 0.712628 13.0241 0.822761 13.0262H3.83587C3.90799 13.0213 3.97556 12.989 4.0249 12.9361C4.07424 12.8831 4.10169 12.8134 4.10169 12.7409C4.10169 12.6684 4.07424 12.5987 4.0249 12.5457C3.97556 12.4928 3.90799 12.4606 3.83587 12.4556ZM1.64403 7.3149C1.63831 7.13098 1.6695 6.94779 1.73577 6.77619C1.80204 6.60459 1.90203 6.44809 2.0298 6.31596C2.15757 6.18384 2.31053 6.07879 2.47958 6.00705C2.64864 5.93532 2.83035 5.89835 3.01393 5.89835C3.19751 5.89835 3.37922 5.93532 3.54828 6.00705C3.71733 6.07879 3.87029 6.18384 3.99806 6.31596C4.12583 6.44809 4.22582 6.60459 4.29209 6.77619C4.35836 6.94779 4.38955 7.13098 4.38383 7.3149C4.38955 7.49881 4.35836 7.682 4.29209 7.8536C4.22582 8.0252 4.12583 8.1817 3.99806 8.31383C3.87029 8.44595 3.71733 8.551 3.54828 8.62274C3.37922 8.69448 3.19751 8.73144 3.01393 8.73144C2.83035 8.73144 2.64864 8.69448 2.47958 8.62274C2.31053 8.551 2.15757 8.44595 2.0298 8.31383C1.90203 8.1817 1.80204 8.0252 1.73577 7.8536C1.6695 7.682 1.63831 7.49881 1.64403 7.3149Z" fill="#F1F1F1" stroke="#F1F1F1" stroke-width="0.4"/>
</g>
<defs>
<clipPath id="clip0_448_3145">
<rect width="16" height="16" fill="white" transform="translate(0 0.00341797)"/>
</clipPath>
</defs>
</svg>
