<svg width="12" height="12" viewBox="0 0 12 12" fill="none" xmlns="http://www.w3.org/2000/svg">
<g id="Angry Face">
<path id="Vector" d="M6 12C9.31371 12 12 9.31371 12 6C12 2.68629 9.31371 0 6 0C2.68629 0 0 2.68629 0 6C0 9.31371 2.68629 12 6 12Z" fill="url(#paint0_linear_488_609)"/>
<path id="Vector_2" d="M3.33362 8.16565C3.65925 8.16565 3.92322 7.90168 3.92322 7.57605C3.92322 7.25042 3.65925 6.98645 3.33362 6.98645C3.00799 6.98645 2.74402 7.25042 2.74402 7.57605C2.74402 7.90168 3.00799 8.16565 3.33362 8.16565Z" fill="#262C38"/>
<path id="Vector_3" d="M8.66162 8.16565C8.98725 8.16565 9.25122 7.90168 9.25122 7.57605C9.25122 7.25042 8.98725 6.98645 8.66162 6.98645C8.33599 6.98645 8.07202 7.25042 8.07202 7.57605C8.07202 7.90168 8.33599 8.16565 8.66162 8.16565Z" fill="#262C38"/>
<path id="Vector_4" d="M1.64722 6.4408C1.64722 6.4408 2.61122 7.1904 5.03442 7.1904M10.3352 6.4408C10.3352 6.4408 9.37122 7.1904 6.94802 7.1904" stroke="#262C38" stroke-width="0.5" stroke-miterlimit="10" stroke-linecap="round" stroke-linejoin="round"/>
<path id="Vector_5" d="M7.90083 9.69119C7.90083 10.0248 7.04723 10.0376 5.99363 10.0376C4.94003 10.0376 4.08643 10.024 4.08643 9.69119C4.08643 9.39679 4.96563 9.25439 6.01843 9.25439C7.07123 9.25439 7.90083 9.39599 7.90083 9.69119Z" fill="#262C38"/>
</g>
<defs>
<linearGradient id="paint0_linear_488_609" x1="6" y1="-0.014392" x2="6" y2="11.9597" gradientUnits="userSpaceOnUse">
<stop offset="0.098" stop-color="#F05766"/>
<stop offset="0.25" stop-color="#F3766A"/>
<stop offset="0.826" stop-color="#FFDA6B"/>
</linearGradient>
</defs>
</svg>
