<svg width="28" height="29" viewBox="0 0 28 29" fill="none" xmlns="http://www.w3.org/2000/svg">
<g id="Angry Face">
<g id="Vector" filter="url(#filter0_d_419_2232)">
<path d="M14.3296 20.6217C19.1308 19.3353 21.9801 14.4002 20.6936 9.59904C19.4071 4.79785 14.4721 1.94861 9.67087 3.23508C4.86968 4.52156 2.02043 9.45659 3.30691 14.2578C4.59339 19.059 9.52842 21.9082 14.3296 20.6217Z" fill="url(#paint0_linear_419_2232)"/>
</g>
<path id="Vector_2" d="M8.97808 16.1013C9.44988 15.9749 9.72986 15.4899 9.60344 15.0181C9.47703 14.5463 8.99208 14.2663 8.52028 14.3927C8.04848 14.5192 7.7685 15.0041 7.89492 15.4759C8.02133 15.9477 8.50628 16.2277 8.97808 16.1013Z" fill="#262C38"/>
<path id="Vector_3" d="M16.6973 14.0328C17.1691 13.9064 17.4491 13.4214 17.3227 12.9496C17.1963 12.4778 16.7113 12.1978 16.2395 12.3243C15.7677 12.4507 15.4877 12.9356 15.6142 13.4074C15.7406 13.8792 16.2255 14.1592 16.6973 14.0328Z" fill="#262C38"/>
<path id="Vector_4" d="M5.86426 14.257C5.86426 14.257 7.552 14.9688 11.0629 14.028M18.4522 10.884C18.4522 10.884 17.3465 12.3444 13.8355 13.2851" stroke="#262C38" stroke-width="0.5" stroke-miterlimit="10" stroke-linecap="round" stroke-linejoin="round"/>
<path id="Vector_5" d="M16.1874 16.5386C16.3169 17.022 15.0851 17.3719 13.5586 17.7809C12.032 18.19 10.79 18.5017 10.6608 18.0195C10.5465 17.5929 11.7651 17.0453 13.2905 16.6365C14.8159 16.2278 16.0728 16.1109 16.1874 16.5386Z" fill="#262C38"/>
</g>
<defs>
<filter id="filter0_d_419_2232" x="0.998047" y="2.92618" width="26.0044" height="26.0045" filterUnits="userSpaceOnUse" color-interpolation-filters="sRGB">
<feFlood flood-opacity="0" result="BackgroundImageFix"/>
<feColorMatrix in="SourceAlpha" type="matrix" values="0 0 0 0 0 0 0 0 0 0 0 0 0 0 0 0 0 0 127 0" result="hardAlpha"/>
<feOffset dx="2" dy="4"/>
<feGaussianBlur stdDeviation="2"/>
<feComposite in2="hardAlpha" operator="out"/>
<feColorMatrix type="matrix" values="0 0 0 0 0 0 0 0 0 0 0 0 0 0 0 0 0 0 0.4 0"/>
<feBlend mode="normal" in2="BackgroundImageFix" result="effect1_dropShadow_419_2232"/>
<feBlend mode="normal" in="SourceGraphic" in2="effect1_dropShadow_419_2232" result="shape"/>
</filter>
<linearGradient id="paint0_linear_419_2232" x1="9.66528" y1="3.21423" x2="14.314" y2="20.5633" gradientUnits="userSpaceOnUse">
<stop offset="0.098" stop-color="#F05766"/>
<stop offset="0.25" stop-color="#F3766A"/>
<stop offset="0.826" stop-color="#FFDA6B"/>
</linearGradient>
</defs>
</svg>
