<svg width="14" height="15" viewBox="0 0 14 15" fill="none" xmlns="http://www.w3.org/2000/svg">
<g id="Chat Teardrop Dots" clip-path="url(#clip0_488_1075)">
<path id="Vector" d="M7.00001 14H0.583334C0.561231 14 0.540034 13.9912 0.524407 13.9756C0.508779 13.96 0.5 13.9388 0.5 13.9167V7.49999C0.5 6.64639 0.668127 5.80116 0.994782 5.01255C1.32144 4.22393 1.80022 3.50738 2.4038 2.9038C3.00738 2.30022 3.72393 1.82144 4.51255 1.49478C5.30116 1.16813 6.1464 1 6.99999 1C7.85358 1 8.69883 1.16813 9.48744 1.49478C10.2761 1.82144 10.9926 2.30023 11.5962 2.90381C12.1998 3.50739 12.6786 4.22394 13.0052 5.01256C13.3319 5.80117 13.5 6.64641 13.5 7.5C13.5 9.2239 12.8152 10.8772 11.5962 12.0962C10.3772 13.3152 8.72392 14 7.00001 14Z" stroke="#F1F1F1" stroke-linecap="round" stroke-linejoin="round"/>
<path id="Vector_2" d="M7.21875 8.10156C7.55098 8.10156 7.82031 7.83223 7.82031 7.5C7.82031 7.16777 7.55098 6.89844 7.21875 6.89844C6.88652 6.89844 6.61719 7.16777 6.61719 7.5C6.61719 7.83223 6.88652 8.10156 7.21875 8.10156Z" fill="#F1F1F1"/>
<path id="Vector_3" d="M3.60938 8.10156C3.94161 8.10156 4.21094 7.83223 4.21094 7.5C4.21094 7.16777 3.94161 6.89844 3.60938 6.89844C3.27714 6.89844 3.00781 7.16777 3.00781 7.5C3.00781 7.83223 3.27714 8.10156 3.60938 8.10156Z" fill="#F1F1F1"/>
<path id="Vector_4" d="M10.8281 8.10156C11.1604 8.10156 11.4297 7.83223 11.4297 7.5C11.4297 7.16777 11.1604 6.89844 10.8281 6.89844C10.4959 6.89844 10.2266 7.16777 10.2266 7.5C10.2266 7.83223 10.4959 8.10156 10.8281 8.10156Z" fill="#F1F1F1"/>
</g>
<defs>
<clipPath id="clip0_488_1075">
<rect width="14" height="14" fill="white" transform="translate(0 0.5)"/>
</clipPath>
</defs>
</svg>
