<svg width="14" height="15" viewBox="0 0 14 15" fill="none" xmlns="http://www.w3.org/2000/svg">
<g id="Chat Teardrop Dots" clip-path="url(#clip0_429_3065)">
<g id="Subtract">
<mask id="path-1-inside-1_429_3065" fill="white">
<path fill-rule="evenodd" clip-rule="evenodd" d="M0.583334 14.5H7.00001C8.85653 14.5 10.637 13.7625 11.9498 12.4498C13.2625 11.137 14 9.35651 14 7.5C14 6.58075 13.8189 5.6705 13.4672 4.82122C13.1154 3.97194 12.5998 3.20026 11.9497 2.55025C11.2997 1.90024 10.5281 1.38463 9.67878 1.03284C8.8295 0.68106 7.91924 0.5 6.99999 0.5C6.08073 0.5 5.17049 0.68106 4.32121 1.03284C3.47193 1.38462 2.70026 1.90024 2.05025 2.55025C1.40024 3.20026 0.884625 3.97193 0.532842 4.82121C0.18106 5.67048 0 6.58073 0 7.49999V13.9167C0 14.0714 0.061458 14.2197 0.170854 14.3291C0.280251 14.4385 0.428624 14.5 0.583334 14.5ZM7.82031 7.5C7.82031 7.83223 7.55098 8.10156 7.21875 8.10156C6.88652 8.10156 6.61719 7.83223 6.61719 7.5C6.61719 7.16777 6.88652 6.89844 7.21875 6.89844C7.55098 6.89844 7.82031 7.16777 7.82031 7.5ZM3.60938 8.10156C3.94161 8.10156 4.21094 7.83223 4.21094 7.5C4.21094 7.16777 3.94161 6.89844 3.60938 6.89844C3.27714 6.89844 3.00781 7.16777 3.00781 7.5C3.00781 7.83223 3.27714 8.10156 3.60938 8.10156ZM11.4297 7.5C11.4297 7.83223 11.1604 8.10156 10.8281 8.10156C10.4959 8.10156 10.2266 7.83223 10.2266 7.5C10.2266 7.16777 10.4959 6.89844 10.8281 6.89844C11.1604 6.89844 11.4297 7.16777 11.4297 7.5Z"/>
</mask>
<path fill-rule="evenodd" clip-rule="evenodd" d="M0.583334 14.5H7.00001C8.85653 14.5 10.637 13.7625 11.9498 12.4498C13.2625 11.137 14 9.35651 14 7.5C14 6.58075 13.8189 5.6705 13.4672 4.82122C13.1154 3.97194 12.5998 3.20026 11.9497 2.55025C11.2997 1.90024 10.5281 1.38463 9.67878 1.03284C8.8295 0.68106 7.91924 0.5 6.99999 0.5C6.08073 0.5 5.17049 0.68106 4.32121 1.03284C3.47193 1.38462 2.70026 1.90024 2.05025 2.55025C1.40024 3.20026 0.884625 3.97193 0.532842 4.82121C0.18106 5.67048 0 6.58073 0 7.49999V13.9167C0 14.0714 0.061458 14.2197 0.170854 14.3291C0.280251 14.4385 0.428624 14.5 0.583334 14.5ZM7.82031 7.5C7.82031 7.83223 7.55098 8.10156 7.21875 8.10156C6.88652 8.10156 6.61719 7.83223 6.61719 7.5C6.61719 7.16777 6.88652 6.89844 7.21875 6.89844C7.55098 6.89844 7.82031 7.16777 7.82031 7.5ZM3.60938 8.10156C3.94161 8.10156 4.21094 7.83223 4.21094 7.5C4.21094 7.16777 3.94161 6.89844 3.60938 6.89844C3.27714 6.89844 3.00781 7.16777 3.00781 7.5C3.00781 7.83223 3.27714 8.10156 3.60938 8.10156ZM11.4297 7.5C11.4297 7.83223 11.1604 8.10156 10.8281 8.10156C10.4959 8.10156 10.2266 7.83223 10.2266 7.5C10.2266 7.16777 10.4959 6.89844 10.8281 6.89844C11.1604 6.89844 11.4297 7.16777 11.4297 7.5Z" fill="#F1F1F1"/>
<path d="M11.9498 12.4498L11.2426 11.7426L11.9498 12.4498ZM11.9497 2.55025L12.6569 1.84315L11.9497 2.55025ZM9.67878 1.03284L9.2961 1.95672V1.95672L9.67878 1.03284ZM4.32121 1.03284L3.93852 0.108962V0.108962L4.32121 1.03284ZM2.05025 2.55025L2.75735 3.25735H2.75736L2.05025 2.55025ZM0.532842 4.82121L1.45672 5.20389L1.45672 5.20389L0.532842 4.82121ZM0.170854 14.3291L-0.536255 15.0363L-0.536252 15.0363L0.170854 14.3291ZM7.00001 13.5H0.583334V15.5H7.00001V13.5ZM11.2426 11.7426C10.1174 12.8679 8.59131 13.5 7.00001 13.5V15.5C9.12174 15.5 11.1566 14.6571 12.6569 13.1569L11.2426 11.7426ZM13 7.5C13 9.0913 12.3679 10.6174 11.2426 11.7426L12.6569 13.1569C14.1571 11.6566 15 9.62173 15 7.5H13ZM12.5433 5.2039C12.8448 5.93185 13 6.71207 13 7.5H15C15 6.44943 14.7931 5.40914 14.391 4.43853L12.5433 5.2039ZM11.2426 3.25736C11.7998 3.81451 12.2417 4.47595 12.5433 5.2039L14.391 4.43853C13.989 3.46793 13.3997 2.58601 12.6569 1.84315L11.2426 3.25736ZM9.2961 1.95672C10.0241 2.25825 10.6855 2.70021 11.2426 3.25736L12.6569 1.84315C11.914 1.10028 11.0321 0.511002 10.0615 0.108964L9.2961 1.95672ZM6.99999 1.5C7.78792 1.5 8.56815 1.6552 9.2961 1.95672L10.0615 0.108964C9.09086 -0.293075 8.05056 -0.5 6.99999 -0.5V1.5ZM4.70389 1.95672C5.43184 1.65519 6.21206 1.5 6.99999 1.5V-0.5C5.94941 -0.5 4.90913 -0.293075 3.93852 0.108962L4.70389 1.95672ZM2.75736 3.25735C3.31451 2.7002 3.97594 2.25825 4.70389 1.95672L3.93852 0.108962C2.96792 0.510999 2.08601 1.10027 1.34314 1.84314L2.75736 3.25735ZM1.45672 5.20389C1.75825 4.47594 2.20021 3.8145 2.75735 3.25735L1.34314 1.84314C0.600274 2.58601 0.0109997 3.46792 -0.391037 4.43852L1.45672 5.20389ZM1 7.49999C1 6.71206 1.15519 5.93184 1.45672 5.20389L-0.391037 4.43852C-0.793074 5.40913 -1 6.44941 -1 7.49999H1ZM1 13.9167V7.49999H-1V13.9167H1ZM0.877963 13.622C0.956101 13.7002 1 13.8062 1 13.9167H-1C-1 14.3366 -0.833185 14.7393 -0.536255 15.0363L0.877963 13.622ZM0.583334 13.5C0.693838 13.5 0.799818 13.5439 0.87796 13.622L-0.536252 15.0363C-0.239317 15.3332 0.16341 15.5 0.583334 15.5V13.5ZM7.21875 9.10156C8.10327 9.10156 8.82031 8.38452 8.82031 7.5H6.82031C6.82031 7.27995 6.9987 7.10156 7.21875 7.10156V9.10156ZM5.61719 7.5C5.61719 8.38452 6.33423 9.10156 7.21875 9.10156V7.10156C7.4388 7.10156 7.61719 7.27995 7.61719 7.5H5.61719ZM7.21875 5.89844C6.33423 5.89844 5.61719 6.61548 5.61719 7.5H7.61719C7.61719 7.72005 7.4388 7.89844 7.21875 7.89844V5.89844ZM8.82031 7.5C8.82031 6.61548 8.10327 5.89844 7.21875 5.89844V7.89844C6.9987 7.89844 6.82031 7.72005 6.82031 7.5H8.82031ZM3.21094 7.5C3.21094 7.27995 3.38932 7.10156 3.60938 7.10156V9.10156C4.49389 9.10156 5.21094 8.38452 5.21094 7.5H3.21094ZM3.60938 7.89844C3.38932 7.89844 3.21094 7.72005 3.21094 7.5H5.21094C5.21094 6.61548 4.49389 5.89844 3.60938 5.89844V7.89844ZM4.00781 7.5C4.00781 7.72005 3.82943 7.89844 3.60938 7.89844V5.89844C2.72486 5.89844 2.00781 6.61548 2.00781 7.5H4.00781ZM3.60938 7.10156C3.82943 7.10156 4.00781 7.27995 4.00781 7.5H2.00781C2.00781 8.38452 2.72486 9.10156 3.60938 9.10156V7.10156ZM10.8281 9.10156C11.7126 9.10156 12.4297 8.38452 12.4297 7.5H10.4297C10.4297 7.27995 10.6081 7.10156 10.8281 7.10156V9.10156ZM9.22656 7.5C9.22656 8.38452 9.94361 9.10156 10.8281 9.10156V7.10156C11.0482 7.10156 11.2266 7.27995 11.2266 7.5H9.22656ZM10.8281 5.89844C9.94361 5.89844 9.22656 6.61548 9.22656 7.5H11.2266C11.2266 7.72005 11.0482 7.89844 10.8281 7.89844V5.89844ZM12.4297 7.5C12.4297 6.61548 11.7126 5.89844 10.8281 5.89844V7.89844C10.6081 7.89844 10.4297 7.72005 10.4297 7.5H12.4297Z" fill="#F1F1F1" mask="url(#path-1-inside-1_429_3065)"/>
</g>
</g>
<defs>
<clipPath id="clip0_429_3065">
<rect width="14" height="14" fill="white" transform="translate(0 0.5)"/>
</clipPath>
</defs>
</svg>
