<svg width="12" height="13" viewBox="0 0 12 13" fill="none" xmlns="http://www.w3.org/2000/svg">
<g id="Follower 2" clip-path="url(#clip0_448_3186)">
<g id="Follower">
<path id="Tracciato 3916" d="M7.39043 11.6093H3.99446C3.9419 11.6083 3.89004 11.5959 3.84186 11.5729C3.79368 11.5499 3.75012 11.5168 3.71367 11.4754C3.67723 11.4339 3.64862 11.3851 3.62949 11.3315C3.61035 11.278 3.60106 11.2209 3.60216 11.1634V10.7175C3.59623 9.93605 3.79916 9.1697 4.18604 8.51252C4.57291 7.85535 5.12689 7.33597 5.77998 7.01813C7.09712 6.39789 7.97979 6.81171 8.98804 7.957C9.06193 8.02965 9.15884 8.0679 9.25814 8.06359C9.35744 8.05929 9.45127 8.01277 9.51967 7.93396C9.58869 7.8532 9.62873 7.74792 9.63243 7.63747C9.63614 7.52703 9.60326 7.41882 9.53983 7.33276C9.59116 7.13837 8.7149 6.52113 8.32626 6.18045C9.01554 5.92494 9.87989 3.98807 9.51783 2.68847C9.36111 2.06092 9.02001 1.50711 8.54707 1.11232C8.07412 0.717526 7.49557 0.503662 6.90051 0.503662C6.30545 0.503662 5.72689 0.717526 5.25395 1.11232C4.781 1.50711 4.4399 2.06092 4.28319 2.68847C4.10808 3.31779 4.11548 3.99093 4.30438 4.61547C4.49328 5.24 4.85441 5.78529 5.33818 6.17644C4.54516 6.56311 3.87899 7.20518 3.42873 8.01683C2.97847 8.82849 2.76556 9.77105 2.81847 10.7185V11.1644C2.81234 11.5121 2.93277 11.8483 3.1533 12.0989C3.37383 12.3496 3.67639 12.4942 3.99446 12.5011H7.39043C7.49514 12.4957 7.59392 12.4464 7.66627 12.3634C7.73862 12.2805 7.77898 12.1703 7.77898 12.0557C7.77898 11.9411 7.73862 11.8309 7.66627 11.748C7.59392 11.665 7.49514 11.6147 7.39043 11.6093ZM4.94588 3.61532C4.93601 3.32731 4.97938 3.04008 5.07339 2.77081C5.1674 2.50154 5.31013 2.25576 5.49303 2.04818C5.67593 1.8406 5.89526 1.67548 6.13788 1.5627C6.3805 1.44991 6.64144 1.39178 6.90509 1.39178C7.16874 1.39178 7.42968 1.44991 7.6723 1.5627C7.91493 1.67548 8.13425 1.8406 8.31715 2.04818C8.50006 2.25576 8.64278 2.50154 8.73679 2.77081C8.83081 3.04008 8.87418 3.32731 8.8643 3.61532C8.87418 3.90334 8.83081 4.19057 8.73679 4.45984C8.64278 4.72911 8.50006 4.97488 8.31715 5.18246C8.13425 5.39004 7.91493 5.55516 7.6723 5.66795C7.42968 5.78073 7.16874 5.83886 6.90509 5.83886C6.64144 5.83886 6.3805 5.78073 6.13788 5.66795C5.89526 5.55516 5.67593 5.39004 5.49303 5.18246C5.31013 4.97488 5.1674 4.72911 5.07339 4.45984C4.97938 4.19057 4.93601 3.90334 4.94588 3.61532Z" fill="#F1F1F1"/>
<path id="Tracciato 3918" d="M2.82024 9.84074H0.748749C0.72347 9.84022 0.698533 9.83426 0.675362 9.8232C0.652191 9.81214 0.63124 9.7962 0.613705 9.77629C0.596171 9.75638 0.582397 9.73288 0.57317 9.70715C0.563944 9.68142 0.559445 9.65395 0.559931 9.62632V9.41189C0.557001 9.0362 0.654499 8.66776 0.84045 8.3518C1.0264 8.03584 1.29271 7.78613 1.60668 7.63333C1.91661 7.48817 2.25978 7.45031 2.58999 7.52483C2.9202 7.59936 3.2216 7.7827 3.45361 8.05016C3.48913 8.08514 3.53575 8.10357 3.58352 8.10151C3.63129 8.09945 3.67644 8.07707 3.70934 8.03914C3.74299 8.00029 3.76257 7.94939 3.76442 7.89593C3.76628 7.84246 3.75028 7.79008 3.71942 7.74856C3.51934 7.51901 3.27731 7.33807 3.00906 7.2175C3.24174 7.02901 3.41524 6.7663 3.50569 6.46555C3.59614 6.1648 3.59908 5.84079 3.5141 5.53814C3.43861 5.23667 3.27459 4.97068 3.04729 4.78107C2.81999 4.59147 2.542 4.48877 2.25608 4.48877C1.97017 4.48877 1.69217 4.59147 1.46487 4.78107C1.23757 4.97068 1.07355 5.23667 0.998061 5.53814C0.913088 5.84079 0.916027 6.1648 1.00647 6.46555C1.09692 6.7663 1.27043 7.02901 1.5031 7.2175C1.10868 7.39871 0.772532 7.70417 0.537475 8.09496C0.302418 8.48576 0.179094 8.9442 0.183212 9.41189V9.62632C0.181754 9.70909 0.195227 9.79136 0.222861 9.86844C0.250495 9.94552 0.291749 10.0159 0.344267 10.0755C0.396784 10.1352 0.459537 10.1829 0.528939 10.2161C0.598341 10.2492 0.673033 10.267 0.748749 10.2686H2.82024C2.86983 10.2649 2.91628 10.2407 2.9502 10.201C2.98412 10.1613 3.00299 10.109 3.00299 10.0547C3.00299 10.0003 2.98412 9.94803 2.9502 9.90832C2.91628 9.86861 2.86983 9.84446 2.82024 9.84074ZM1.31337 5.98603C1.30943 5.84813 1.33088 5.71076 1.37644 5.58209C1.422 5.45342 1.49074 5.33607 1.57858 5.237C1.66642 5.13792 1.77158 5.05916 1.8878 5.00536C2.00403 4.95157 2.12895 4.92385 2.25516 4.92385C2.38138 4.92385 2.5063 4.95157 2.62253 5.00536C2.73875 5.05916 2.84391 5.13792 2.93175 5.237C3.01959 5.33607 3.08833 5.45342 3.13389 5.58209C3.17945 5.71076 3.2009 5.84813 3.19696 5.98603C3.2009 6.12394 3.17945 6.26131 3.13389 6.38998C3.08833 6.51865 3.01959 6.636 2.93175 6.73507C2.84391 6.83414 2.73875 6.91291 2.62253 6.96671C2.5063 7.0205 2.38138 7.04822 2.25516 7.04822C2.12895 7.04822 2.00403 7.0205 1.8878 6.96671C1.77158 6.91291 1.66642 6.83414 1.57858 6.73507C1.49074 6.636 1.422 6.51865 1.37644 6.38998C1.33088 6.26131 1.30943 6.12394 1.31337 5.98603Z" fill="#F1F1F1"/>
<path id="Tracciato 3921" d="M11.813 8.44607C11.754 8.38045 11.6819 8.33051 11.6025 8.30011C11.523 8.26971 11.4383 8.25965 11.3547 8.27072C11.2541 8.27101 11.1547 8.29343 11.0623 8.33664C10.9698 8.37985 10.8863 8.44297 10.8166 8.52222L9.23461 10.6375L8.48209 9.50519C8.41259 9.42555 8.32903 9.36216 8.23647 9.31885C8.14391 9.27554 8.04427 9.25321 7.94359 9.25321C7.84291 9.25321 7.74327 9.27554 7.65071 9.31885C7.55815 9.36216 7.4746 9.42555 7.40509 9.50519C7.11087 9.83685 7.34093 10.3068 7.63516 10.6375L8.65166 11.7787C8.72105 11.8571 8.80416 11.9195 8.89604 11.962C8.98792 12.0046 9.0867 12.0265 9.18649 12.0265C9.28628 12.0265 9.38505 12.0046 9.47693 11.962C9.56881 11.9195 9.65192 11.8571 9.72132 11.7787L11.7461 9.50519C11.823 9.42692 11.8849 9.33261 11.928 9.22782C11.9712 9.12302 11.9947 9.00985 11.9972 8.89497C12.0099 8.80865 11.9993 8.72016 11.9665 8.64039C11.9338 8.56062 11.8804 8.49307 11.813 8.44607Z" fill="#2CB410"/>
</g>
</g>
<defs>
<clipPath id="clip0_448_3186">
<rect width="12" height="12" fill="white" transform="translate(0 0.5)"/>
</clipPath>
</defs>
</svg>
