<svg width="27" height="28" viewBox="0 0 27 28" fill="none" xmlns="http://www.w3.org/2000/svg">
<g id="Laughing">
<g id="Layer_2">
<g id="Vector" filter="url(#filter0_d_419_2409)">
<path d="M3.84961 13.5765C5.05568 18.0776 9.68227 20.7488 14.1834 19.5427C18.6845 18.3366 21.3557 13.71 20.1496 9.2089C18.9435 4.70778 14.3169 2.03661 9.81582 3.24268C5.3147 4.44876 2.64354 9.07535 3.84961 13.5765Z" fill="#FBB900"/>
</g>
<path id="Vector_2" d="M15.6154 10.9014C15.5328 10.8537 15.462 10.7853 15.4087 10.6947L14.5225 9.15894C14.4207 8.98532 14.4212 8.76973 14.5233 8.59677C14.6247 8.4211 14.8092 8.31634 15.0098 8.31502L16.7829 8.31452C17.0947 8.31542 17.3452 8.56568 17.3443 8.87747C17.3434 9.18926 17.0931 9.43976 16.7813 9.43886L15.9804 9.43801L16.3816 10.1312C16.5383 10.4008 16.4437 10.7435 16.1769 10.8994C15.9958 11.0062 15.7842 10.9988 15.6154 10.9014ZM10.6173 8.01573C10.4485 7.91828 10.3356 7.73598 10.3356 7.52926C10.3365 7.21747 10.5867 6.96698 10.8985 6.96787L11.6995 6.96872L11.2983 6.27551C11.1416 6.00593 11.2361 5.66323 11.503 5.50729C11.7725 5.35062 12.1152 5.44514 12.2712 5.71199L13.1573 7.24779C13.2592 7.42141 13.2587 7.637 13.1565 7.80996C13.0551 7.98563 12.8706 8.09039 12.6701 8.09172L10.897 8.09221C10.7953 8.09324 10.7 8.06346 10.6173 8.01573ZM9.77697 9.44344C9.47384 9.26843 9.0825 9.40532 8.96658 9.73338C8.41915 11.2981 9.04124 13.0764 10.5293 13.9355C12.0174 14.7947 13.8712 14.4435 14.9498 13.1878C15.176 12.9234 15.0989 12.516 14.7957 12.341L9.77697 9.44344Z" fill="#1E2022"/>
<path id="Vector_3" d="M13.538 13.1031L9.74898 10.9155C9.4803 10.7604 9.38785 10.4153 9.54297 10.1467L9.90691 9.51631L14.6708 12.2667L14.3068 12.8971C14.149 13.1665 13.8067 13.2582 13.538 13.1031Z" fill="#F0F5F9"/>
<path id="Vector_4" d="M10.3126 9.94335L10.3941 9.80212L9.90846 9.52171L9.54452 10.1521C9.3894 10.4207 9.48184 10.7658 9.75052 10.9209L13.5396 13.1085C13.8083 13.2636 14.1533 13.1712 14.3084 12.9025L10.5193 10.7149C10.2465 10.5551 10.1548 10.2128 10.3126 9.94335Z" fill="#C9D6DF"/>
<path id="Vector_5" d="M15.9775 11.7099L15.4788 13.576C15.3581 14.0276 15.4919 14.5159 15.8442 14.8204C16.2229 15.1469 16.7519 15.2847 17.2708 15.1457C17.7897 15.0066 18.1789 14.6228 18.3436 14.1507C18.4965 13.7108 18.3682 13.2211 18.0379 12.8903L16.6729 11.5235C16.4468 11.2988 16.061 11.4022 15.9775 11.7099Z" fill="#129EE2"/>
<g id="Group">
<path id="Vector_6" d="M9.89959 8.21675L8.53285 9.58169C8.20207 9.91199 7.71234 10.0403 7.27246 9.88738C6.80032 9.72272 6.4165 9.33348 6.27747 8.8146C6.13843 8.29571 6.27621 7.76672 6.60277 7.38804C6.90726 7.03567 7.39553 6.90192 7.84714 7.02259L9.71324 7.52129C10.0217 7.60751 10.1243 7.99056 9.89959 8.21675Z" fill="#129EE2"/>
</g>
</g>
</g>
<defs>
<filter id="filter0_d_419_2409" x="1.56006" y="2.95306" width="24.8789" height="24.8792" filterUnits="userSpaceOnUse" color-interpolation-filters="sRGB">
<feFlood flood-opacity="0" result="BackgroundImageFix"/>
<feColorMatrix in="SourceAlpha" type="matrix" values="0 0 0 0 0 0 0 0 0 0 0 0 0 0 0 0 0 0 127 0" result="hardAlpha"/>
<feOffset dx="2" dy="4"/>
<feGaussianBlur stdDeviation="2"/>
<feComposite in2="hardAlpha" operator="out"/>
<feColorMatrix type="matrix" values="0 0 0 0 0 0 0 0 0 0 0 0 0 0 0 0 0 0 0.4 0"/>
<feBlend mode="normal" in2="BackgroundImageFix" result="effect1_dropShadow_419_2409"/>
<feBlend mode="normal" in="SourceGraphic" in2="effect1_dropShadow_419_2409" result="shape"/>
</filter>
</defs>
</svg>
