<svg width="12" height="12" viewBox="0 0 12 12" fill="none" xmlns="http://www.w3.org/2000/svg">
<g id="Laughing">
<g id="Layer_2">
<path id="Vector" d="M6 11.625C9.1066 11.625 11.625 9.1066 11.625 6C11.625 2.8934 9.1066 0.375 6 0.375C2.8934 0.375 0.375 2.8934 0.375 6C0.375 9.1066 2.8934 11.625 6 11.625Z" fill="#FBB900"/>
<path id="Vector_2" d="M6.30756 3.58681C6.26256 3.63181 6.20631 3.66556 6.13881 3.68431L4.99693 3.98994C4.86756 4.02557 4.72881 3.98807 4.63506 3.89244C4.53943 3.79682 4.50381 3.65994 4.53756 3.53057L4.84318 2.38869C4.89756 2.18806 5.10193 2.06994 5.30256 2.12432C5.50318 2.17869 5.62131 2.38306 5.56693 2.58369L5.42818 3.09932L5.94381 2.96057C6.14443 2.90619 6.34881 3.02619 6.40318 3.22494C6.44068 3.35994 6.39943 3.49494 6.30756 3.58681ZM3.58693 6.30744C3.49506 6.39931 3.35818 6.44057 3.22506 6.40494C3.02443 6.35056 2.90631 6.14619 2.96068 5.94556L3.09943 5.42994L2.58381 5.56869C2.38318 5.62307 2.17881 5.50307 2.12443 5.30432C2.07006 5.10369 2.19006 4.89932 2.38881 4.84494L3.53068 4.53931C3.66006 4.50369 3.79881 4.54119 3.89256 4.63681C3.98818 4.73244 4.02381 4.86931 3.99006 4.99869L3.68443 6.14056C3.66756 6.20619 3.63193 6.26244 3.58693 6.30744ZM4.36131 7.09494C4.19631 7.25994 4.21693 7.53556 4.40818 7.66681C5.32131 8.28932 6.57381 8.19557 7.38381 7.38556C8.19381 6.57556 8.28756 5.32119 7.66506 4.40994C7.53381 4.21869 7.25818 4.19807 7.09318 4.36307L4.36131 7.09494Z" fill="#1E2022"/>
<path id="Vector_3" d="M7.36691 5.30441L5.30441 7.36691C5.15816 7.51316 4.92004 7.51316 4.77379 7.36691L4.43066 7.02379L7.02379 4.43066L7.36691 4.77379C7.51316 4.92191 7.51316 5.15816 7.36691 5.30441Z" fill="#F0F5F9"/>
<path id="Vector_4" d="M4.77558 6.8363L4.6987 6.75943L4.43433 7.0238L4.77745 7.36693C4.9237 7.51318 5.16183 7.51318 5.30808 7.36693L7.37058 5.30443C7.51683 5.15818 7.51683 4.92005 7.37058 4.7738L5.30808 6.8363C5.15808 6.98443 4.92183 6.98443 4.77558 6.8363Z" fill="#C9D6DF"/>
<path id="Vector_5" d="M6.89062 3.49318L8.00625 4.1363C8.27625 4.29193 8.61375 4.29005 8.87062 4.11568C9.14625 3.92818 9.32625 3.6113 9.32625 3.25318C9.32625 2.89505 9.14625 2.57818 8.87062 2.39068C8.61375 2.2163 8.27625 2.21443 8.00625 2.37005L6.89062 3.01318C6.70687 3.12005 6.70687 3.3863 6.89062 3.49318Z" fill="#129EE2"/>
<g id="Group">
<path id="Vector_6" d="M3.59254 6.80432L4.23567 7.91994C4.39129 8.18994 4.38942 8.52744 4.21504 8.78432C4.02754 9.05994 3.71067 9.23994 3.35254 9.23994C2.99442 9.23994 2.67754 9.05994 2.49004 8.78432C2.31567 8.52744 2.31379 8.18994 2.46942 7.91994L3.11254 6.80432C3.22129 6.62057 3.48567 6.62057 3.59254 6.80432Z" fill="#129EE2"/>
</g>
</g>
</g>
</svg>
