<svg width="12" height="13" viewBox="0 0 12 13" fill="none" xmlns="http://www.w3.org/2000/svg">
<g id="like">
<path id="Vector" d="M2.67984 11.7145C2.67984 12.0154 2.41976 12.2612 2.1021 12.2612H0.578328C0.260199 12.2612 0.00012207 12.0154 0.00012207 11.7145L0.00012207 7.02334C0.00012207 6.72294 0.260199 6.47661 0.578328 6.47661H2.1021C2.41976 6.47661 2.67984 6.72294 2.67984 7.02334L2.67984 11.7145ZM11.62 8.69503C11.5312 8.78833 11.4647 8.90089 11.4254 9.02414C11.3861 9.1474 11.3752 9.27809 11.3933 9.40629C11.4361 9.70575 11.4035 10.1114 11.0441 10.4377C10.9363 10.5383 10.8555 10.665 10.8093 10.8058C10.7631 10.9467 10.7529 11.0971 10.7798 11.243C10.8727 11.8071 10.5876 12.6063 8.11497 12.4883L4.89652 12.4107C4.86866 12.4107 4.84126 12.4079 4.81339 12.4046C4.54821 12.3712 3.16191 12.1696 3.26687 11.5462L3.26129 7.18364C3.26127 7.06892 3.28368 6.95532 3.32724 6.8494L5.14499 3.247C5.17241 3.19255 5.18674 3.1323 5.18679 3.07118V1.3821C5.18555 1.23166 5.22354 1.08355 5.29693 0.952726C5.37031 0.8219 5.4765 0.712989 5.60477 0.636986C5.87227 0.482322 6.24613 0.401935 6.6604 0.710323C7.47453 1.32146 7.49404 1.65053 7.49404 1.65053C7.49404 1.65053 7.86232 2.7501 7.70721 3.75095C7.68779 3.8749 7.69517 4.00164 7.72885 4.12242C7.76253 4.24321 7.82171 4.35515 7.90229 4.45053C7.98287 4.54591 8.08294 4.62245 8.19559 4.67487C8.30824 4.72729 8.43079 4.75434 8.55478 4.75415H10.4069C10.4368 4.75406 10.4668 4.75563 10.4965 4.75885C10.7794 4.79035 12.0658 5.01412 11.6135 6.4752C11.5733 6.60483 11.565 6.74242 11.5893 6.87604C11.6136 7.00965 11.6697 7.13525 11.7528 7.24194C12.0003 7.5555 12.2075 8.08154 11.62 8.69503Z" fill="#F1F1F1"/>
</g>
</svg>
