<svg width="26" height="27" viewBox="0 0 26 27" fill="none" xmlns="http://www.w3.org/2000/svg">
<g id="like">
<g id="Vector" filter="url(#filter0_d_419_2597)">
<path d="M6.28518 15.9401C6.20586 16.3333 5.80112 16.5861 5.38593 16.5024L3.39435 16.1007C2.97855 16.0168 2.70345 15.6269 2.78276 15.2336L4.0195 9.10224C4.09869 8.70962 4.50356 8.45622 4.91936 8.54009L6.91094 8.94181C7.32613 9.02555 7.60111 9.41608 7.52192 9.8087L6.28518 15.9401ZM18.766 14.3505C18.6255 14.4491 18.5088 14.5786 18.425 14.7294C18.3412 14.8801 18.2924 15.0481 18.2823 15.2204C18.2592 15.623 18.1098 16.1447 17.5539 16.4764C17.3865 16.5795 17.2476 16.7237 17.15 16.8956C17.0525 17.0675 16.9996 17.2615 16.9963 17.4592C16.9689 18.221 16.3855 19.1904 13.185 18.3843L8.99887 17.4345C8.96245 17.4271 8.92738 17.4162 8.89182 17.4045C8.55402 17.291 6.79528 16.662 7.0968 15.8749L8.23962 10.1715C8.26984 10.0216 8.32908 9.87899 8.41394 9.75204L11.7395 5.52288C11.7897 5.45894 11.8243 5.38397 11.8404 5.3041L12.2857 3.09645C12.3238 2.8995 12.4125 2.71594 12.5429 2.56429C12.6733 2.41265 12.8408 2.2983 13.0285 2.23277C13.4189 2.10115 13.9287 2.09464 14.3889 2.60692C15.2918 3.62031 15.2306 4.05556 15.2306 4.05556C15.2306 4.05556 15.422 5.5898 14.9554 6.85703C14.8974 7.01391 14.8736 7.18151 14.8858 7.34825C14.898 7.515 14.9458 7.67691 15.026 7.82281C15.1062 7.96872 15.2168 8.09514 15.3502 8.19335C15.4836 8.29157 15.6367 8.35923 15.7988 8.39167L18.2195 8.87994C18.2586 8.88772 18.2973 8.89766 18.3354 8.90972C18.6968 9.02545 20.3192 9.65706 19.3428 11.4475C19.2561 11.6063 19.209 11.784 19.2055 11.965C19.202 12.146 19.2422 12.325 19.3227 12.4863C19.5636 12.9614 19.6956 13.7036 18.766 14.3505Z" fill="#F1F1F1"/>
</g>
</g>
<defs>
<filter id="filter0_d_419_2597" x="0.769531" y="2.15735" width="24.8818" height="24.5307" filterUnits="userSpaceOnUse" color-interpolation-filters="sRGB">
<feFlood flood-opacity="0" result="BackgroundImageFix"/>
<feColorMatrix in="SourceAlpha" type="matrix" values="0 0 0 0 0 0 0 0 0 0 0 0 0 0 0 0 0 0 127 0" result="hardAlpha"/>
<feOffset dx="2" dy="4"/>
<feGaussianBlur stdDeviation="2"/>
<feComposite in2="hardAlpha" operator="out"/>
<feColorMatrix type="matrix" values="0 0 0 0 0 0 0 0 0 0 0 0 0 0 0 0 0 0 0.4 0"/>
<feBlend mode="normal" in2="BackgroundImageFix" result="effect1_dropShadow_419_2597"/>
<feBlend mode="normal" in="SourceGraphic" in2="effect1_dropShadow_419_2597" result="shape"/>
</filter>
</defs>
</svg>
