<svg width="12" height="12" viewBox="0 0 12 12" fill="none" xmlns="http://www.w3.org/2000/svg">
<g id="like">
<path id="Vector" d="M3.76797 9.76814e-05C4.14597 0.0121983 4.51196 0.0816709 4.86656 0.208616H4.90196C4.92596 0.220616 4.94396 0.233879 4.95596 0.245879C5.08856 0.29072 5.21396 0.341246 5.33395 0.410718L5.56195 0.518085C5.65195 0.56861 5.75995 0.662714 5.81995 0.701239C5.87995 0.738502 5.94595 0.777028 5.99995 0.820606C6.66654 0.284404 7.47593 -0.00611716 8.30992 9.76814e-05C8.68852 9.76814e-05 9.06651 0.0564081 9.42591 0.183353C11.6405 0.941236 12.4385 3.49909 11.7719 5.73484C11.3939 6.87735 10.7759 7.92007 9.96651 8.77205C8.80792 9.95309 7.53653 11.0015 6.16795 11.9046L6.01795 12L5.86195 11.8983C4.48856 11.0015 3.20998 9.95309 2.04059 8.76574C1.2366 7.91375 0.618003 6.87735 0.234007 5.73484C-0.443985 3.49909 0.354006 0.941236 2.59258 0.17009C2.76658 0.106934 2.94598 0.0627238 3.12598 0.0380926H3.19798C3.36657 0.0121983 3.53397 9.76814e-05 3.70197 9.76814e-05H3.76797ZM9.11391 1.99595C8.86792 1.9069 8.59792 2.04648 8.50792 2.31174C8.42392 2.577 8.55592 2.86752 8.80792 2.96162C9.19251 3.1132 9.44991 3.51172 9.44991 3.95319V3.97276C9.43851 4.11739 9.47991 4.25697 9.56391 4.36434C9.64791 4.4717 9.77391 4.53423 9.90591 4.54749C10.1519 4.54054 10.3619 4.33276 10.3799 4.06687V3.99171C10.3979 3.10688 9.88851 2.30542 9.11391 1.99595Z" fill="#B41729"/>
</g>
</svg>
