<svg width="24" height="26" viewBox="0 0 24 26" fill="none" xmlns="http://www.w3.org/2000/svg">
<g id="like">
<g id="Vector" filter="url(#filter0_d_415_2143)">
<path d="M7.02396 0.464372C7.52796 0.481514 8.01595 0.579934 8.48874 0.759773H8.53594C8.56794 0.776773 8.59194 0.795562 8.60794 0.812562C8.78474 0.876087 8.95194 0.947665 9.11194 1.04608L9.41594 1.19819C9.53593 1.26976 9.67993 1.40308 9.75993 1.45766C9.83993 1.51044 9.92793 1.56502 9.99993 1.62676C10.8887 0.86714 11.9679 0.455567 13.0799 0.464372C13.5847 0.464372 14.0887 0.544145 14.5679 0.723984C17.5206 1.79765 18.5846 5.42128 17.6958 8.58859C17.1919 10.2071 16.3679 11.6843 15.2887 12.8913C13.7439 14.5644 12.0487 16.0497 10.2239 17.3291L10.0239 17.4642L9.81593 17.3202C7.98475 16.0497 6.27997 14.5644 4.72078 12.8824C3.6488 11.6754 2.824 10.2071 2.31201 8.58859C1.40802 5.42128 2.47201 1.79765 5.45678 0.705195C5.68877 0.615723 5.92797 0.553092 6.16797 0.518198H6.26397C6.48877 0.481514 6.71196 0.464372 6.93596 0.464372H7.02396ZM14.1519 3.29184C13.8239 3.16568 13.4639 3.36341 13.3439 3.7392C13.2319 4.11498 13.4079 4.52655 13.7439 4.65987C14.2567 4.8746 14.5999 5.43917 14.5999 6.06458V6.09232C14.5847 6.29721 14.6399 6.49494 14.7519 6.64704C14.8639 6.79915 15.0319 6.88772 15.2079 6.90651C15.5359 6.89667 15.8159 6.60231 15.8399 6.22563V6.11916C15.8639 4.86565 15.1847 3.73025 14.1519 3.29184Z" fill="#B41729"/>
</g>
</g>
<defs>
<filter id="filter0_d_415_2143" x="0" y="0.464233" width="24" height="25" filterUnits="userSpaceOnUse" color-interpolation-filters="sRGB">
<feFlood flood-opacity="0" result="BackgroundImageFix"/>
<feColorMatrix in="SourceAlpha" type="matrix" values="0 0 0 0 0 0 0 0 0 0 0 0 0 0 0 0 0 0 127 0" result="hardAlpha"/>
<feOffset dx="2" dy="4"/>
<feGaussianBlur stdDeviation="2"/>
<feComposite in2="hardAlpha" operator="out"/>
<feColorMatrix type="matrix" values="0 0 0 0 0 0 0 0 0 0 0 0 0 0 0 0 0 0 0.4 0"/>
<feBlend mode="normal" in2="BackgroundImageFix" result="effect1_dropShadow_415_2143"/>
<feBlend mode="normal" in="SourceGraphic" in2="effect1_dropShadow_415_2143" result="shape"/>
</filter>
</defs>
</svg>
