<svg width="12" height="12" viewBox="0 0 12 12" fill="none" xmlns="http://www.w3.org/2000/svg">
<g id="Save" clip-path="url(#clip0_451_3134)">
<path id="Vector" d="M9.64286 0H2.35714C2.19612 0 2.04169 0.0632132 1.92783 0.175733C1.81397 0.288254 1.75 0.440864 1.75 0.599992V11.3998C1.74999 11.5145 1.78325 11.6268 1.84584 11.7234C1.90843 11.82 1.99772 11.8969 2.10314 11.9448C2.20856 11.9928 2.32569 12.0099 2.44065 11.9942C2.55561 11.9784 2.66358 11.9304 2.75179 11.8558L6 9.16187L9.21179 11.8258C9.26852 11.8814 9.3358 11.9254 9.40977 11.9553C9.48374 11.9852 9.56295 12.0003 9.64286 11.9998C9.7225 12.0019 9.80152 11.9854 9.87357 11.9518C9.98445 11.9068 10.0794 11.8304 10.1463 11.7322C10.2133 11.6339 10.2494 11.5183 10.25 11.3998V0.599992C10.25 0.440864 10.186 0.288254 10.0722 0.175733C9.95831 0.0632132 9.80388 0 9.64286 0Z" fill="#F1F1F1"/>
<path id="Vector_2" d="M4.85228 6.2326L3.60967 5.12883C3.47001 5.00477 3.2444 5.00477 3.10474 5.12883C2.96509 5.25288 2.96509 5.45328 3.10474 5.57734L4.60161 6.90696C4.74127 7.03101 4.96688 7.03101 5.10654 6.90696L8.89526 3.54155C9.03491 3.41749 9.03491 3.2171 8.89526 3.09304C8.7556 2.96899 8.52999 2.96899 8.39033 3.09304L4.85228 6.2326Z" fill="black"/>
</g>
<defs>
<clipPath id="clip0_451_3134">
<rect width="12" height="12" fill="white"/>
</clipPath>
</defs>
</svg>
