<svg width="12" height="12" viewBox="0 0 12 12" fill="none" xmlns="http://www.w3.org/2000/svg">
<g id="Report" clip-path="url(#clip0_627_1946)">
<path id="Vector" d="M8.48667 0H3.51333L0 3.51333V8.48667L3.51333 12H8.48667L12 8.48667V3.51333L8.48667 0ZM10.6667 7.93333L7.93333 10.6667H4.06667L1.33333 7.93333V4.06667L4.06667 1.33333H7.93333L10.6667 4.06667V7.93333Z" fill="#F1F1F1"/>
<path id="Vector_2" d="M6 8.5C6.27614 8.5 6.5 8.27614 6.5 8C6.5 7.72386 6.27614 7.5 6 7.5C5.72386 7.5 5.5 7.72386 5.5 8C5.5 8.27614 5.72386 8.5 6 8.5Z" fill="#F1F1F1"/>
<path id="Vector_3" d="M5.5 3.5H6.5V7H5.5V3.5Z" fill="#F1F1F1"/>
</g>
<defs>
<clipPath id="clip0_627_1946">
<rect width="12" height="12" fill="white"/>
</clipPath>
</defs>
</svg>
