<svg width="12" height="13" viewBox="0 0 12 13" fill="none" xmlns="http://www.w3.org/2000/svg">
<g id="Following" clip-path="url(#clip0_451_3403)">
<path id="Tracciato 3916" d="M7.86249 11.1114H4.15776C4.10042 11.1104 4.04385 11.098 3.99129 11.075C3.93872 11.052 3.8912 11.0189 3.85145 10.9775C3.81169 10.936 3.78048 10.8871 3.75961 10.8336C3.73873 10.7801 3.7286 10.7229 3.72979 10.6655V10.2195C3.72333 9.43783 3.94471 8.67131 4.36676 8.014C4.78881 7.35668 5.39315 6.83719 6.10562 6.51928C7.54251 5.8989 8.50544 6.31282 9.60536 7.45836C9.68596 7.53102 9.79168 7.56927 9.90001 7.56497C10.0083 7.56066 10.1107 7.51414 10.1853 7.43531C10.2606 7.35453 10.3043 7.24923 10.3083 7.13876C10.3124 7.02829 10.2765 6.92006 10.2073 6.83397C10.2633 6.63954 9.30738 6.02218 8.88341 5.68142C9.63535 5.42586 10.5783 3.48857 10.1833 2.18869C10.0123 1.56101 9.64023 1.00708 9.12429 0.612202C8.60835 0.217328 7.97719 0.00341797 7.32803 0.00341797C6.67886 0.00341797 6.04771 0.217328 5.53176 0.612202C5.01582 1.00708 4.64371 1.56101 4.47274 2.18869C4.28171 2.81814 4.28979 3.49144 4.49586 4.1161C4.70194 4.74077 5.0959 5.28617 5.62365 5.67741C4.75853 6.06416 4.0318 6.70637 3.5406 7.5182C3.0494 8.33003 2.81714 9.27279 2.87486 10.2205V10.6665C2.86816 11.0142 2.99955 11.3505 3.24013 11.6012C3.4807 11.8519 3.81077 11.9966 4.15776 12.0034H7.86249C7.97672 11.998 8.08448 11.9487 8.16341 11.8657C8.24233 11.7828 8.28637 11.6726 8.28637 11.5579C8.28637 11.4433 8.24233 11.3331 8.16341 11.2501C8.08448 11.1672 7.97672 11.1169 7.86249 11.1114ZM5.19569 3.11574C5.18492 2.82767 5.23223 2.54037 5.33479 2.27105C5.43735 2.00172 5.59305 1.75589 5.79258 1.54827C5.99212 1.34064 6.23138 1.17549 6.49606 1.06268C6.76074 0.949871 7.04541 0.891728 7.33303 0.891728C7.62064 0.891728 7.90531 0.949871 8.16999 1.06268C8.43467 1.17549 8.67394 1.34064 8.87347 1.54827C9.073 1.75589 9.2287 2.00172 9.33126 2.27105C9.43382 2.54037 9.48113 2.82767 9.47037 3.11574C9.48113 3.40382 9.43382 3.69111 9.33126 3.96044C9.2287 4.22977 9.073 4.4756 8.87347 4.68322C8.67394 4.89084 8.43467 5.056 8.16999 5.16881C7.90531 5.28162 7.62064 5.33976 7.33303 5.33976C7.04541 5.33976 6.76074 5.28162 6.49606 5.16881C6.23138 5.056 5.99212 4.89084 5.79258 4.68322C5.59305 4.4756 5.43735 4.22977 5.33479 3.96044C5.23223 3.69111 5.18492 3.40382 5.19569 3.11574Z" fill="#F1F1F1"/>
<path id="Tracciato 3917" d="M11.6645 8.48402C11.556 8.34736 11.4191 8.23396 11.2624 8.15108C11.1057 8.0682 10.9327 8.01766 10.7545 8.0027C10.4872 7.98536 10.2213 8.05191 9.99683 8.19234C9.7745 8.05507 9.51177 7.99088 9.24819 8.00944C9.07053 8.02358 8.89787 8.07307 8.74121 8.15478C8.58455 8.23648 8.4473 8.3486 8.33819 8.48402C8.1087 8.77947 7.98978 9.14069 8.00069 9.50916C8.0116 9.87764 8.15171 10.2318 8.39832 10.5142L9.52479 11.7791C9.58315 11.8481 9.65679 11.9038 9.74035 11.942C9.82392 11.9802 9.9153 12 10.0079 12C10.1004 12 10.1918 11.9802 10.2754 11.942C10.3589 11.9038 10.4326 11.8481 10.4909 11.7791L11.6003 10.5123C11.847 10.2304 11.9876 9.87692 11.9992 9.50886C12.0109 9.1408 11.8929 8.77973 11.6645 8.48402ZM11.011 10.0002L9.99683 11.113L8.99463 10.0002C8.87673 9.86189 8.80902 9.69044 8.80179 9.51184C8.79455 9.33324 8.84818 9.15725 8.95454 9.01058C8.99567 8.95709 9.0479 8.91236 9.10793 8.87923C9.16796 8.84609 9.23448 8.82526 9.30331 8.81805H9.33538C9.45589 8.82107 9.57063 8.86825 9.65608 8.94994C9.74937 9.03583 9.87361 9.08379 10.0028 9.08379C10.1321 9.08379 10.2563 9.03583 10.3496 8.94994C10.3956 8.90581 10.4508 8.87159 10.5117 8.84951C10.5725 8.82744 10.6375 8.81803 10.7024 8.8219C10.7712 8.82911 10.8377 8.84994 10.8978 8.88308C10.9578 8.91621 11.01 8.96094 11.0511 9.01443C11.1565 9.16073 11.2096 9.33595 11.2024 9.51373C11.1952 9.69151 11.128 9.86222 11.011 10.0002Z" fill="#E62020"/>
<path id="Tracciato 3918" d="M2.8769 9.34262H0.617071C0.589494 9.3421 0.562289 9.33614 0.537011 9.32508C0.511734 9.31402 0.488878 9.29807 0.469749 9.27815C0.450621 9.25824 0.435595 9.23474 0.425529 9.209C0.415463 9.18326 0.410555 9.15579 0.411086 9.12815V8.91367C0.40789 8.53791 0.514252 8.16938 0.71711 7.85336C0.919968 7.53734 1.21049 7.28757 1.553 7.13473C1.89111 6.98955 2.26548 6.95167 2.62572 7.02622C2.98595 7.10076 3.31475 7.28413 3.56785 7.55166C3.6066 7.58665 3.65746 7.60508 3.70958 7.60302C3.76169 7.60096 3.81095 7.57857 3.84683 7.54063C3.88354 7.50178 3.9049 7.45086 3.90692 7.39739C3.90895 7.34391 3.8915 7.29152 3.85783 7.24999C3.63956 7.0204 3.37552 6.83942 3.08289 6.71881C3.33672 6.53028 3.526 6.26752 3.62467 5.96671C3.72334 5.66589 3.72654 5.34181 3.63384 5.0391C3.55149 4.73757 3.37256 4.47151 3.12459 4.28187C2.87663 4.09223 2.57336 3.9895 2.26145 3.9895C1.94954 3.9895 1.64627 4.09223 1.3983 4.28187C1.15033 4.47151 0.971407 4.73757 0.88905 5.0391C0.796351 5.34181 0.799557 5.66589 0.898227 5.96671C0.996896 6.26752 1.18618 6.53028 1.44001 6.71881C1.00973 6.90007 0.643016 7.20559 0.386588 7.59647C0.13016 7.98735 -0.00437669 8.44589 0.000116628 8.91367V9.12815C-0.00147423 9.21094 0.0132236 9.29323 0.0433702 9.37032C0.0735167 9.44742 0.118521 9.5178 0.175814 9.57746C0.233106 9.63712 0.301564 9.68488 0.377276 9.71801C0.452988 9.75115 0.534471 9.76901 0.617071 9.77057H2.8769C2.931 9.76686 2.98167 9.7427 3.01868 9.70298C3.05568 9.66326 3.07627 9.61094 3.07627 9.5566C3.07627 9.50225 3.05568 9.44993 3.01868 9.41021C2.98167 9.37049 2.931 9.34634 2.8769 9.34262ZM1.23302 5.48709C1.22873 5.34915 1.25213 5.21176 1.30183 5.08306C1.35153 4.95436 1.42652 4.83698 1.52235 4.73789C1.61818 4.6388 1.73289 4.56001 1.85969 4.50621C1.98648 4.4524 2.12276 4.42468 2.26045 4.42468C2.39813 4.42468 2.53442 4.4524 2.66121 4.50621C2.788 4.56001 2.90272 4.6388 2.99855 4.73789C3.09437 4.83698 3.16937 4.95436 3.21907 5.08306C3.26877 5.21176 3.29216 5.34915 3.28787 5.48709C3.29216 5.62502 3.26877 5.76242 3.21907 5.89112C3.16937 6.01981 3.09437 6.13719 2.99855 6.23629C2.90272 6.33538 2.788 6.41417 2.66121 6.46797C2.53442 6.52177 2.39813 6.5495 2.26045 6.5495C2.12276 6.5495 1.98648 6.52177 1.85969 6.46797C1.73289 6.41417 1.61818 6.33538 1.52235 6.23629C1.42652 6.13719 1.35153 6.01981 1.30183 5.89112C1.25213 5.76242 1.22873 5.62502 1.23302 5.48709Z" fill="#F1F1F1" stroke="#F1F1F1" stroke-width="0.4"/>
</g>
<defs>
<clipPath id="clip0_451_3403">
<rect width="12" height="12" fill="white" transform="translate(0 0.00341797)"/>
</clipPath>
</defs>
</svg>
