<svg width="12" height="12" viewBox="0 0 12 12" fill="none" xmlns="http://www.w3.org/2000/svg">
<g id="Close" clip-path="url(#clip0_627_1952)">
<path id="Vector" d="M7.05 6L11.775 1.275C12.075 0.974999 12.075 0.524999 11.775 0.224999C11.475 -0.0750008 11.025 -0.0750008 10.725 0.224999L6 4.95L1.275 0.225C0.975 -0.0750001 0.525 -0.075 0.225 0.225C-0.0749999 0.525 -0.0749999 0.975 0.225 1.275L4.95 6L0.225 10.725C0.0749996 10.875 -5.50229e-07 11.025 -5.61458e-07 11.25C-5.83916e-07 11.7 0.299999 12 0.749999 12C0.974999 12 1.125 11.925 1.275 11.775L6 7.05L10.725 11.775C10.875 11.925 11.025 12 11.25 12C11.475 12 11.625 11.925 11.775 11.775C12.075 11.475 12.075 11.025 11.775 10.725L7.05 6Z" fill="#F1F1F1"/>
</g>
<defs>
<clipPath id="clip0_627_1952">
<rect width="12" height="12" fill="white"/>
</clipPath>
</defs>
</svg>
