<svg width="12" height="13" viewBox="0 0 12 13" fill="none" xmlns="http://www.w3.org/2000/svg">
<g id="UnFollow" clip-path="url(#clip0_451_3264)">
<path id="Tracciato 3916" d="M7.86249 11.1114H4.15776C4.10042 11.1104 4.04385 11.098 3.99129 11.075C3.93872 11.052 3.8912 11.0189 3.85145 10.9775C3.81169 10.936 3.78048 10.8871 3.75961 10.8336C3.73873 10.7801 3.7286 10.7229 3.72979 10.6655V10.2195C3.72333 9.43783 3.94471 8.67131 4.36676 8.014C4.78881 7.35668 5.39315 6.83719 6.10562 6.51928C7.54251 5.8989 8.50544 6.31282 9.60536 7.45836C9.68596 7.53102 9.79168 7.56927 9.90001 7.56497C10.0083 7.56066 10.1107 7.51414 10.1853 7.43531C10.2606 7.35453 10.3043 7.24923 10.3083 7.13876C10.3124 7.02829 10.2765 6.92006 10.2073 6.83397C10.2633 6.63954 9.30738 6.02218 8.88341 5.68142C9.63535 5.42586 10.5783 3.48857 10.1833 2.18869C10.0123 1.56101 9.64023 1.00708 9.12429 0.612202C8.60835 0.217328 7.97719 0.00341797 7.32803 0.00341797C6.67886 0.00341797 6.04771 0.217328 5.53176 0.612202C5.01582 1.00708 4.64371 1.56101 4.47274 2.18869C4.28171 2.81814 4.28979 3.49144 4.49586 4.1161C4.70194 4.74077 5.0959 5.28617 5.62365 5.67741C4.75853 6.06416 4.0318 6.70637 3.5406 7.5182C3.0494 8.33003 2.81714 9.27279 2.87486 10.2205V10.6665C2.86816 11.0142 2.99955 11.3505 3.24013 11.6012C3.4807 11.8519 3.81077 11.9966 4.15776 12.0034H7.86249C7.97672 11.998 8.08448 11.9487 8.16341 11.8657C8.24233 11.7828 8.28637 11.6726 8.28637 11.5579C8.28637 11.4433 8.24233 11.3331 8.16341 11.2501C8.08448 11.1672 7.97672 11.1169 7.86249 11.1114ZM5.19569 3.11574C5.18492 2.82767 5.23223 2.54037 5.33479 2.27105C5.43735 2.00172 5.59305 1.75589 5.79258 1.54827C5.99212 1.34064 6.23138 1.17549 6.49606 1.06268C6.76074 0.949871 7.04541 0.891728 7.33303 0.891728C7.62064 0.891728 7.90531 0.949871 8.16999 1.06268C8.43467 1.17549 8.67394 1.34064 8.87347 1.54827C9.073 1.75589 9.2287 2.00172 9.33126 2.27105C9.43382 2.54037 9.48113 2.82767 9.47037 3.11574C9.48113 3.40382 9.43382 3.69111 9.33126 3.96044C9.2287 4.22977 9.073 4.4756 8.87347 4.68322C8.67394 4.89084 8.43467 5.056 8.16999 5.16881C7.90531 5.28162 7.62064 5.33976 7.33303 5.33976C7.04541 5.33976 6.76074 5.28162 6.49606 5.16881C6.23138 5.056 5.99212 4.89084 5.79258 4.68322C5.59305 4.4756 5.43735 4.22977 5.33479 3.96044C5.23223 3.69111 5.18492 3.40382 5.19569 3.11574Z" fill="#F1F1F1"/>
<path id="Vector" d="M11.4508 8.79995C11.4006 8.74971 11.3325 8.72149 11.2614 8.72149C11.1904 8.72149 11.1223 8.74971 11.072 8.79995L10.125 9.74696L9.17798 8.79995C9.12775 8.74971 9.05962 8.72149 8.98858 8.72149C8.91754 8.72149 8.84941 8.74971 8.79917 8.79995C8.74894 8.85018 8.72072 8.91831 8.72072 8.98935C8.72072 9.06039 8.74894 9.12852 8.79917 9.17875L9.74619 10.1258L8.79917 11.0728C8.74894 11.123 8.72072 11.1912 8.72072 11.2622C8.72072 11.3332 8.74894 11.4014 8.79917 11.4516C8.84941 11.5018 8.91754 11.5301 8.98858 11.5301C9.05962 11.5301 9.12775 11.5018 9.17798 11.4516L10.125 10.5046L11.072 11.4516C11.1223 11.5018 11.1904 11.5301 11.2614 11.5301C11.3325 11.5301 11.4006 11.5018 11.4508 11.4516C11.5011 11.4014 11.5293 11.3332 11.5293 11.2622C11.5293 11.1912 11.5011 11.123 11.4508 11.0728L10.5038 10.1258L11.4508 9.17875C11.5011 9.12852 11.5293 9.06039 11.5293 8.98935C11.5293 8.91831 11.5011 8.85018 11.4508 8.79995Z" fill="#E62020"/>
<path id="Tracciato 3918" d="M2.8769 9.34262H0.617071C0.589494 9.3421 0.562289 9.33614 0.537011 9.32508C0.511734 9.31402 0.488878 9.29807 0.469749 9.27815C0.450621 9.25824 0.435595 9.23474 0.425529 9.209C0.415463 9.18326 0.410555 9.15579 0.411086 9.12815V8.91367C0.40789 8.53791 0.514252 8.16938 0.71711 7.85336C0.919968 7.53734 1.21049 7.28757 1.553 7.13473C1.89111 6.98955 2.26548 6.95167 2.62572 7.02622C2.98595 7.10076 3.31475 7.28413 3.56785 7.55166C3.6066 7.58665 3.65746 7.60508 3.70958 7.60302C3.76169 7.60096 3.81095 7.57857 3.84683 7.54063C3.88354 7.50178 3.9049 7.45086 3.90692 7.39739C3.90895 7.34391 3.8915 7.29152 3.85783 7.24999C3.63956 7.0204 3.37552 6.83942 3.08289 6.71881C3.33672 6.53028 3.526 6.26752 3.62467 5.96671C3.72334 5.66589 3.72654 5.34181 3.63384 5.0391C3.55149 4.73757 3.37256 4.47151 3.12459 4.28187C2.87663 4.09223 2.57336 3.9895 2.26145 3.9895C1.94954 3.9895 1.64627 4.09223 1.3983 4.28187C1.15033 4.47151 0.971407 4.73757 0.88905 5.0391C0.796351 5.34181 0.799557 5.66589 0.898227 5.96671C0.996896 6.26752 1.18618 6.53028 1.44001 6.71881C1.00973 6.90007 0.643016 7.20559 0.386588 7.59647C0.13016 7.98735 -0.00437669 8.44589 0.000116628 8.91367V9.12815C-0.00147423 9.21094 0.0132236 9.29323 0.0433702 9.37032C0.0735167 9.44742 0.118521 9.5178 0.175814 9.57746C0.233106 9.63712 0.301564 9.68488 0.377276 9.71801C0.452988 9.75115 0.534471 9.76901 0.617071 9.77057H2.8769C2.931 9.76686 2.98167 9.7427 3.01868 9.70298C3.05568 9.66326 3.07627 9.61094 3.07627 9.5566C3.07627 9.50225 3.05568 9.44993 3.01868 9.41021C2.98167 9.37049 2.931 9.34634 2.8769 9.34262ZM1.23302 5.48709C1.22873 5.34915 1.25213 5.21176 1.30183 5.08306C1.35153 4.95436 1.42652 4.83698 1.52235 4.73789C1.61818 4.6388 1.73289 4.56001 1.85969 4.50621C1.98648 4.4524 2.12276 4.42468 2.26045 4.42468C2.39813 4.42468 2.53442 4.4524 2.66121 4.50621C2.788 4.56001 2.90272 4.6388 2.99855 4.73789C3.09437 4.83698 3.16937 4.95436 3.21907 5.08306C3.26877 5.21176 3.29216 5.34915 3.28787 5.48709C3.29216 5.62502 3.26877 5.76242 3.21907 5.89112C3.16937 6.01981 3.09437 6.13719 2.99855 6.23629C2.90272 6.33538 2.788 6.41417 2.66121 6.46797C2.53442 6.52177 2.39813 6.5495 2.26045 6.5495C2.12276 6.5495 1.98648 6.52177 1.85969 6.46797C1.73289 6.41417 1.61818 6.33538 1.52235 6.23629C1.42652 6.13719 1.35153 6.01981 1.30183 5.89112C1.25213 5.76242 1.22873 5.62502 1.23302 5.48709Z" fill="#F1F1F1" stroke="#F1F1F1" stroke-width="0.4"/>
</g>
<defs>
<clipPath id="clip0_451_3264">
<rect width="12" height="12" fill="white" transform="translate(0 0.00341797)"/>
</clipPath>
</defs>
</svg>
