<svg width="16" height="16" viewBox="0 0 16 16" fill="none" xmlns="http://www.w3.org/2000/svg">
<g id="More" clip-path="url(#clip0_451_2753)">
<path id="Vector" d="M1.6 6.5C2.48365 6.5 3.2 7.17158 3.2 8C3.2 8.82843 2.48365 9.5 1.6 9.5C0.716352 9.5 0 8.82843 0 8C0 7.17158 0.716352 6.5 1.6 6.5ZM8 6.5C8.88366 6.5 9.6 7.17158 9.6 8C9.6 8.82843 8.88366 9.5 8 9.5C7.11635 9.5 6.4 8.82843 6.4 8C6.4 7.17158 7.11635 6.5 8 6.5ZM14.4 6.5C15.2837 6.5 16 7.17158 16 8C16 8.82843 15.2837 9.5 14.4 9.5C13.5163 9.5 12.8 8.82843 12.8 8C12.8 7.17158 13.5163 6.5 14.4 6.5Z" fill="#F1F1F1" fill-opacity="0.945098"/>
</g>
<defs>
<clipPath id="clip0_451_2753">
<rect width="16" height="16" fill="white"/>
</clipPath>
</defs>
</svg>
