<svg width="12" height="12" viewBox="0 0 12 12" fill="none" xmlns="http://www.w3.org/2000/svg">
<g id="Hide">
<g id="Group 14">
<path id="Vector" fill-rule="evenodd" clip-rule="evenodd" d="M1.00431 5.99965C1.67782 6.69302 3.65784 8.49967 6 8.49967C7.00844 8.49967 7.94831 8.15698 8.74438 7.72015C8.95031 7.60707 9.21196 7.67794 9.32831 7.87823C9.44446 8.07852 9.3716 8.33285 9.16568 8.44583C8.24831 8.9492 7.16187 9.33305 6 9.33305C2.7484 9.33305 0.0991616 6.26619 0.0991616 6.26619C-0.0330539 6.11177 -0.0330539 5.88754 0.0991616 5.73311C0.0991616 5.73311 2.7484 2.66626 6 2.66626C9.2516 2.66626 11.9008 5.73311 11.9008 5.73311C12.0331 5.88754 12.0331 6.11177 11.9008 6.26619C11.9008 6.26619 11.5713 6.65274 11.0006 7.15072C10.9278 7.21428 10.8508 7.27966 10.7703 7.3464C10.5903 7.49543 10.3196 7.47428 10.1662 7.29918C10.013 7.12409 10.0346 6.86091 10.2148 6.71187C10.2894 6.65004 10.3605 6.58947 10.428 6.53052C10.6653 6.3235 10.8566 6.13792 10.9942 5.99802C10.3192 5.30359 8.34045 3.49963 6 3.49963C3.65784 3.49963 1.67782 5.30628 1.00431 5.99965Z" fill="#F1F1F1"/>
<path id="Vector_2" fill-rule="evenodd" clip-rule="evenodd" d="M6.0003 3.9165C4.81765 3.9165 3.85742 4.85005 3.85742 5.99985C3.85742 7.14964 4.81765 8.08319 6.0003 8.08319C7.18295 8.08319 8.14318 7.14964 8.14318 5.99985C8.14318 4.85005 7.18295 3.9165 6.0003 3.9165ZM6.0003 4.74984C6.70981 4.74984 7.28603 5.31005 7.28603 5.99985C7.28603 6.68964 6.70981 7.24985 6.0003 7.24985C5.29079 7.24985 4.71457 6.68964 4.71457 5.99985C4.71457 5.31005 5.29079 4.74984 6.0003 4.74984Z" fill="#F1F1F1"/>
<path id="Vector_3" fill-rule="evenodd" clip-rule="evenodd" d="M1.03394 3.00368L10.4626 9.67039C10.6537 9.80558 10.922 9.76447 11.0611 9.57836C11.2004 9.39243 11.158 9.13169 10.9666 8.99632L1.53796 2.32961C1.34681 2.19442 1.07852 2.23553 0.939446 2.42164C0.800159 2.60757 0.842583 2.86831 1.03394 3.00368Z" fill="#F1F1F1"/>
</g>
</g>
</svg>
