<svg width="12" height="12" viewBox="0 0 12 12" fill="none" xmlns="http://www.w3.org/2000/svg">
<g id="Sad Smiley">
<path id="Vector" d="M6 12C9.31371 12 12 9.31371 12 6C12 2.68629 9.31371 0 6 0C2.68629 0 0 2.68629 0 6C0 9.31371 2.68629 12 6 12Z" fill="#F6CA47"/>
<path id="Vector_2" d="M1.64709 5C1.64709 5 2.61122 3.00003 5.03442 3.00003M10.3352 5C10.3352 5 9.37122 3.00003 6.94802 3.00003" stroke="#262C38" stroke-width="0.5" stroke-miterlimit="10" stroke-linecap="round" stroke-linejoin="round"/>
<path id="Vector_3" d="M7.2188 9.75C7.11755 9.75 7.01911 9.69469 6.96942 9.59906C6.7763 9.22969 6.40505 9 6.00005 9C5.59505 9 5.2238 9.22969 5.03067 9.59906C4.95848 9.73687 4.7888 9.79031 4.65098 9.71813C4.51317 9.64594 4.45973 9.47625 4.53192 9.33844C4.82255 8.7825 5.38505 8.4375 6.00005 8.4375C6.61505 8.4375 7.17755 8.7825 7.46817 9.33844C7.54036 9.47625 7.48692 9.64594 7.34911 9.71813C7.30786 9.73969 7.26286 9.75 7.2188 9.75Z" fill="#262C38"/>
<path id="Vector_4" d="M4.21875 6.65625C4.63296 6.65625 4.96875 6.23652 4.96875 5.71875C4.96875 5.20098 4.63296 4.78125 4.21875 4.78125C3.80454 4.78125 3.46875 5.20098 3.46875 5.71875C3.46875 6.23652 3.80454 6.65625 4.21875 6.65625Z" fill="#262C38"/>
<path id="Vector_5" d="M7.78125 6.65625C8.19546 6.65625 8.53125 6.23652 8.53125 5.71875C8.53125 5.20098 8.19546 4.78125 7.78125 4.78125C7.36704 4.78125 7.03125 5.20098 7.03125 5.71875C7.03125 6.23652 7.36704 6.65625 7.78125 6.65625Z" fill="#262C38"/>
<path id="Vector_6" d="M9.50713 8.83594L8.34369 7.125L7.18025 8.83594C6.80056 9.39469 6.87181 10.1438 7.349 10.6209C7.89838 11.1703 8.789 11.1703 9.33744 10.6209C9.81556 10.1438 9.88588 9.39469 9.50713 8.83594Z" fill="#00A6E4"/>
</g>
</svg>
