<svg width="26" height="26" viewBox="0 0 26 26" fill="none" xmlns="http://www.w3.org/2000/svg">
<g id="Telegram" clip-path="url(#clip0_627_1761)">
<path id="Vector" d="M26 13C26 5.8203 20.1797 0 13 0C5.8203 0 0 5.8203 0 13C0 20.1797 5.8203 26 13 26C20.1797 26 26 20.1797 26 13Z" fill="#419FD9"/>
<path id="Vector_2" d="M26 13C26 5.8203 20.1797 0 13 0C5.8203 0 0 5.8203 0 13C0 20.1797 5.8203 26 13 26C20.1797 26 26 20.1797 26 13Z" fill="url(#paint0_linear_627_1761)"/>
<path id="Vector_3" d="M5.84317 12.7133C9.62363 11.0316 12.1445 9.92296 13.4059 9.38725C17.0072 7.85785 17.7556 7.59217 18.2433 7.58334C18.3506 7.5815 18.5904 7.60863 18.7458 7.73733C18.877 7.84605 18.9131 7.99289 18.9304 8.09592C18.9477 8.199 18.9692 8.43375 18.952 8.61716C18.7569 10.7108 17.9125 15.7916 17.4828 18.1365C17.301 19.1287 16.9431 19.4614 16.5966 19.494C15.8435 19.5647 15.2716 18.9859 14.5423 18.4977C13.4009 17.7338 12.7561 17.2582 11.6482 16.5128C10.3679 15.6514 11.1979 15.1779 11.9276 14.4041C12.1185 14.2016 15.4366 11.12 15.5008 10.8405C15.5088 10.8056 15.5163 10.6752 15.4405 10.6064C15.3646 10.5376 15.2527 10.5611 15.172 10.5798C15.0575 10.6064 13.2342 11.8369 9.70195 14.2713C9.18439 14.6342 8.71563 14.811 8.29562 14.8017C7.83261 14.7915 6.94194 14.5344 6.27981 14.3147C5.46769 14.0451 4.82221 13.9026 4.87841 13.4449C4.90769 13.2064 5.22927 12.9626 5.84317 12.7133Z" fill="white"/>
</g>
<defs>
<linearGradient id="paint0_linear_627_1761" x1="13" y1="0" x2="13" y2="25.8072" gradientUnits="userSpaceOnUse">
<stop stop-color="#2AABEE"/>
<stop offset="1" stop-color="#229ED9"/>
</linearGradient>
<clipPath id="clip0_627_1761">
<rect width="26" height="26" fill="white"/>
</clipPath>
</defs>
</svg>
