<svg width="26" height="26" viewBox="0 0 26 26" fill="none" xmlns="http://www.w3.org/2000/svg">
<g id="instagram" clip-path="url(#clip0_627_1822)">
<path id="Path 16" d="M6.59304 25.908C5.58738 25.8968 4.59117 25.7123 3.64816 25.3627C2.95953 25.1082 2.33649 24.703 1.82459 24.1767C1.29688 23.6658 0.891057 23.0426 0.637255 22.3534C0.287976 21.4104 0.103792 20.4143 0.0927843 19.4087C0.015549 17.7371 0 17.2357 0 13C0 8.76429 0.0170784 8.26469 0.0920196 6.59177C0.104363 5.58663 0.288774 4.59103 0.637255 3.64816C0.892292 2.95941 1.29754 2.33612 1.82357 1.82357C2.33483 1.29634 2.95817 0.890888 3.64739 0.637255C4.59041 0.287687 5.58661 0.103243 6.59227 0.0920196C8.26443 0.015549 8.76659 0 13 0C17.2334 0 17.7353 0.0170784 19.4082 0.0920196C20.4136 0.104275 21.4095 0.288688 22.3526 0.637255C23.0415 0.891223 23.6647 1.29653 24.1762 1.82331C24.7031 2.33496 25.1086 2.95829 25.3627 3.64739C25.7124 4.59039 25.8969 5.5866 25.9082 6.59227C25.9847 8.2652 26.0003 8.76608 26.0003 13.0005C26.0003 17.2349 25.9847 17.7358 25.9082 19.4087C25.8961 20.4143 25.7116 21.4102 25.3627 22.3534C25.0989 23.0373 24.6947 23.6584 24.1763 24.1767C23.6578 24.695 23.0366 25.099 22.3526 25.3627C21.4096 25.7124 20.4134 25.8969 19.4077 25.9082C17.7363 25.9847 17.2339 26.0003 12.9995 26.0003C8.76506 26.0003 8.26418 25.9855 6.59278 25.9082" fill="url(#paint0_radial_627_1822)"/>
<path id="Path 17" d="M6.59304 25.908C5.58738 25.8968 4.59117 25.7123 3.64816 25.3627C2.95953 25.1082 2.33649 24.703 1.82459 24.1767C1.29688 23.6658 0.891057 23.0426 0.637255 22.3534C0.287976 21.4104 0.103792 20.4143 0.0927843 19.4087C0.015549 17.7371 0 17.2357 0 13C0 8.76429 0.0170784 8.26469 0.0920196 6.59177C0.104363 5.58663 0.288774 4.59103 0.637255 3.64816C0.892292 2.95941 1.29754 2.33612 1.82357 1.82357C2.33483 1.29634 2.95817 0.890888 3.64739 0.637255C4.59041 0.287687 5.58661 0.103243 6.59227 0.0920196C8.26443 0.015549 8.76659 0 13 0C17.2334 0 17.7353 0.0170784 19.4082 0.0920196C20.4136 0.104275 21.4095 0.288688 22.3526 0.637255C23.0415 0.891223 23.6647 1.29653 24.1762 1.82331C24.7031 2.33496 25.1086 2.95829 25.3627 3.64739C25.7124 4.59039 25.8969 5.5866 25.9082 6.59227C25.9847 8.2652 26.0003 8.76608 26.0003 13.0005C26.0003 17.2349 25.9847 17.7358 25.9082 19.4087C25.8961 20.4143 25.7116 21.4102 25.3627 22.3534C25.0989 23.0373 24.6947 23.6584 24.1763 24.1767C23.6578 24.695 23.0366 25.099 22.3526 25.3627C21.4096 25.7124 20.4134 25.8969 19.4077 25.9082C17.7363 25.9847 17.2339 26.0003 12.9995 26.0003C8.76506 26.0003 8.26418 25.9855 6.59278 25.9082" fill="url(#paint1_radial_627_1822)"/>
<path id="Path 18" d="M9.80801 13.0552C9.80806 12.4184 9.99695 11.7959 10.3508 11.2665C10.7046 10.737 11.2075 10.3244 11.7959 10.0808C12.3842 9.83713 13.0316 9.77344 13.6561 9.89774C14.2807 10.022 14.8544 10.3288 15.3046 10.7791C15.7548 11.2294 16.0614 11.8032 16.1856 12.4278C16.3097 13.0523 16.2459 13.6997 16.0021 14.288C15.7583 14.8763 15.3456 15.3791 14.816 15.7328C14.2865 16.0865 13.664 16.2752 13.0272 16.2751C12.1733 16.275 11.3545 15.9357 10.7508 15.3318C10.1471 14.728 9.80794 13.9091 9.80801 13.0552ZM8.06728 13.0552C8.06728 14.0362 8.35817 14.9951 8.90317 15.8108C9.44817 16.6264 10.2228 17.2622 11.1291 17.6376C12.0354 18.013 13.0327 18.1112 13.9948 17.9198C14.9569 17.7284 15.8407 17.256 16.5343 16.5624C17.228 15.8687 17.7004 14.985 17.8917 14.0228C18.0831 13.0607 17.9849 12.0634 17.6095 11.1572C17.2341 10.2509 16.5984 9.47622 15.7827 8.93122C14.9671 8.38622 14.0081 8.09533 13.0272 8.09533C12.3758 8.0953 11.7308 8.22357 11.1291 8.47282C10.5273 8.72206 9.9805 9.0874 9.51992 9.54797C9.05935 10.0085 8.69401 10.5553 8.44476 11.1571C8.19552 11.7589 8.06725 12.4039 8.06728 13.0552ZM17.0243 7.8988C17.0242 8.12804 17.0921 8.35216 17.2193 8.54282C17.3466 8.73348 17.5276 8.88211 17.7393 8.96993C17.9511 9.05775 18.1841 9.08081 18.4089 9.03619C18.6338 8.99156 18.8404 8.88126 19.0025 8.71924C19.1647 8.55721 19.2752 8.35075 19.32 8.12593C19.3648 7.90112 19.342 7.66807 19.2543 7.45624C19.1667 7.24442 19.0182 7.06334 18.8277 6.9359C18.6371 6.80846 18.4131 6.74038 18.1838 6.74028C17.8766 6.74041 17.5819 6.8625 17.3646 7.07972C17.1473 7.29694 17.0251 7.59154 17.0248 7.8988M9.12538 20.9177C8.51288 20.9109 7.90611 20.7988 7.33163 20.5863C6.91501 20.4257 6.53664 20.1797 6.22085 19.864C5.90507 19.5484 5.65888 19.1701 5.49812 18.7536C5.28548 18.1791 5.17338 17.5723 5.16675 16.9598C5.11985 15.9417 5.11067 15.6358 5.11067 13.0565C5.11067 10.4771 5.12087 10.172 5.16675 9.15292C5.17418 8.54049 5.28625 7.93384 5.49812 7.35917C5.65869 6.94243 5.90481 6.56396 6.22061 6.24816C6.53641 5.93236 6.91488 5.68624 7.33163 5.52567C7.90608 5.31303 8.51287 5.20093 9.12538 5.1943C10.1435 5.1474 10.4493 5.13822 13.0277 5.13822C15.606 5.13822 15.9121 5.14816 16.9312 5.19455C17.5437 5.20199 18.1503 5.31405 18.725 5.52592C19.1417 5.68651 19.5202 5.93263 19.836 6.24843C20.1518 6.56423 20.3979 6.94269 20.5585 7.35943C20.7711 7.93388 20.8832 8.54067 20.8899 9.15318C20.9368 10.1728 20.9459 10.4771 20.9459 13.0567C20.9459 15.6364 20.9365 15.9412 20.8899 16.9603C20.8827 17.5728 20.7707 18.1795 20.5585 18.7541C20.3977 19.1706 20.1516 19.5489 19.8358 19.8645C19.52 20.1802 19.1416 20.4262 18.725 20.5868C18.1505 20.7994 17.5437 20.9115 16.9312 20.9182C15.9132 20.9651 15.6073 20.9743 13.0277 20.9743C10.4481 20.9743 10.1432 20.9648 9.12538 20.9182M9.04534 3.4551C8.24389 3.47086 7.45092 3.62255 6.70024 3.90372C6.05853 4.15184 5.47574 4.53131 4.98924 5.01781C4.50275 5.5043 4.12327 6.08709 3.87516 6.7288C3.59403 7.47949 3.44233 8.27246 3.42654 9.07391C3.37887 10.1037 3.36816 10.433 3.36816 13.0562C3.36816 15.6794 3.37913 16.0085 3.42654 17.0386C3.44233 17.84 3.59402 18.633 3.87516 19.3837C4.12329 20.0254 4.50276 20.6082 4.98926 21.0946C5.47575 21.5811 6.05853 21.9606 6.70024 22.2087C7.45096 22.4898 8.2439 22.6415 9.04534 22.6574C10.0757 22.7043 10.4045 22.7157 13.0277 22.7157C15.6509 22.7157 15.98 22.7048 17.01 22.6574C17.8115 22.6415 18.6044 22.4899 19.3551 22.2087C19.9968 21.9606 20.5796 21.5811 21.0661 21.0946C21.5526 20.6082 21.9321 20.0254 22.1802 19.3837C22.4617 18.6331 22.6134 17.8401 22.6288 17.0386C22.6757 16.008 22.6864 15.6794 22.6864 13.0562C22.6864 10.433 22.6755 10.104 22.6288 9.07391C22.6131 8.27245 22.4614 7.47948 22.1802 6.7288C21.9321 6.08721 21.5527 5.50451 21.0663 5.01803C20.58 4.53155 19.9974 4.15201 19.3559 3.90372C18.6052 3.62237 17.8122 3.47067 17.0108 3.4551C15.9807 3.40795 15.6516 3.39673 13.0289 3.39673C10.4063 3.39673 10.0764 3.40769 9.04585 3.4551" fill="white"/>
</g>
<defs>
<radialGradient id="paint0_radial_627_1822" cx="0" cy="0" r="1" gradientUnits="userSpaceOnUse" gradientTransform="translate(1.68261 25.4306) scale(33.0103)">
<stop offset="0.09" stop-color="#FA8F21"/>
<stop offset="0.78" stop-color="#D82D7E"/>
</radialGradient>
<radialGradient id="paint1_radial_627_1822" cx="0" cy="0" r="1" gradientUnits="userSpaceOnUse" gradientTransform="translate(18.0093 24.5955) scale(29.0494)">
<stop offset="0.64" stop-color="#8C3AAA" stop-opacity="0"/>
<stop offset="1" stop-color="#8C3AAA"/>
</radialGradient>
<clipPath id="clip0_627_1822">
<rect width="26" height="26" fill="white"/>
</clipPath>
</defs>
</svg>
