<svg width="14" height="15" viewBox="0 0 14 15" fill="none" xmlns="http://www.w3.org/2000/svg">
<g id="Share" clip-path="url(#clip0_429_3114)">
<path id="Share_2" d="M11.375 9.73269C10.535 9.73269 9.7825 10.0982 9.31 10.6544L5.0575 8.41373C5.32 7.82577 5.32 7.17423 5.0575 6.58627L9.31 4.34563C9.7825 4.90182 10.535 5.26731 11.375 5.26731C12.8275 5.26731 14 4.20261 14 2.88366C14 1.5647 12.8275 0.5 11.375 0.5C9.9225 0.5 8.75 1.5647 8.75 2.88366C8.75 3.20148 8.82 3.5193 8.9425 3.78944L4.69 6.04597C4.2 5.48978 3.465 5.12429 2.625 5.12429C1.1725 5.12429 0 6.18899 0 7.50795C0 8.8269 1.1725 9.8916 2.625 9.8916C3.465 9.8916 4.2175 9.52611 4.69 8.96992L8.9425 11.2106C8.82 11.4807 8.75 11.7985 8.75 12.1163C8.75 13.4353 9.9225 14.5 11.375 14.5C12.8275 14.5 14 13.4353 14 12.1163C14 10.7974 12.8275 9.73269 11.375 9.73269Z" fill="#F1F1F1"/>
</g>
<defs>
<clipPath id="clip0_429_3114">
<rect width="14" height="14" fill="white" transform="translate(0 0.5)"/>
</clipPath>
</defs>
</svg>
