<svg width="26" height="26" viewBox="0 0 26 26" fill="none" xmlns="http://www.w3.org/2000/svg">
<g id="Whatsapp" clip-path="url(#clip0_627_1575)">
<path id="Vector" d="M25.999 19.4029C25.999 19.5452 25.9947 19.854 25.9861 20.0925C25.9652 20.676 25.9189 21.429 25.849 21.7721C25.7438 22.2877 25.5851 22.7743 25.3782 23.1794C25.1333 23.6585 24.821 24.0877 24.4499 24.4581C24.0796 24.8278 23.6508 25.1389 23.1724 25.3828C22.7652 25.5902 22.2756 25.749 21.757 25.8537C21.4173 25.9223 20.67 25.9677 20.0902 25.9883C19.8515 25.9968 19.5427 26.0011 19.4008 26.0011L6.59821 25.9991C6.45584 25.9991 6.14715 25.9947 5.90865 25.9861C5.3251 25.9652 4.57212 25.919 4.22901 25.849C3.71343 25.7439 3.22677 25.5852 2.82174 25.3782C2.34256 25.1334 1.91339 24.8211 1.54296 24.45C1.17328 24.0797 0.862189 23.6509 0.618363 23.1724C0.41082 22.7653 0.252027 22.2756 0.147342 21.7571C0.0787871 21.4174 0.0334141 20.6701 0.0127715 20.0902C0.00429102 19.8515 0 19.5427 0 19.4009L0.00203125 6.59824C0.00203125 6.45587 0.00637305 6.14715 0.0149297 5.90865C0.035877 5.3251 0.0821133 4.57212 0.152064 4.22904C0.257207 3.71346 0.415898 3.22679 0.622857 2.82174C0.867699 2.34259 1.18003 1.91339 1.55111 1.54296C1.92141 1.1733 2.35021 0.862189 2.82864 0.618338C3.23583 0.410846 3.72554 0.252053 4.24404 0.147367C4.58369 0.0787871 5.33107 0.0334141 5.91089 0.0127969C6.14961 0.00429102 6.45844 0 6.60022 0L19.4029 0.00205664C19.5452 0.00205664 19.8539 0.00639844 20.0924 0.0149551C20.676 0.0359023 21.429 0.0821387 21.7721 0.15209C22.2876 0.257232 22.7743 0.415924 23.1794 0.622883C23.6585 0.867725 24.0877 1.18005 24.4581 1.55114C24.8278 1.92144 25.1389 2.35021 25.3827 2.82867C25.5902 3.23586 25.749 3.72554 25.8537 4.24404C25.9223 4.58372 25.9676 5.33107 25.9883 5.91091C25.9968 6.14963 26.0011 6.45844 26.0011 6.60027L25.999 19.4029Z" fill="url(#paint0_linear_627_1575)"/>
<path id="Vector_2" d="M19.3775 6.6158C17.6854 4.92988 15.4351 4.00095 13.0376 4C8.09763 4 4.07712 8.00099 4.07515 12.9189C4.07451 14.4909 4.4872 16.0254 5.27148 17.3779L4 22L8.75109 20.7597C10.0602 21.4702 11.534 21.8447 13.034 21.8453H13.0377C17.9771 21.8453 21.998 17.8439 22 12.926C22.001 10.5427 21.0696 8.30172 19.3775 6.6158ZM13.0377 20.3389H13.0346C11.698 20.3384 10.3869 19.9811 9.24323 19.3056L8.97119 19.1449L6.15182 19.881L6.90438 17.1453L6.72721 16.8648C5.98154 15.6845 5.58772 14.3202 5.5883 12.9194C5.58991 8.83193 8.93163 5.50643 13.0406 5.50643C15.0302 5.50719 16.9005 6.27935 18.307 7.6806C19.7134 9.08185 20.4875 10.9445 20.4868 12.9254C20.4852 17.0132 17.1435 20.3389 13.0377 20.3389ZM17.1237 14.7866C16.8997 14.6751 15.7988 14.1359 15.5935 14.0615C15.3882 13.9871 15.239 13.95 15.0896 14.1731C14.9404 14.3962 14.5112 14.8982 14.3805 15.0469C14.2499 15.1957 14.1193 15.2143 13.8954 15.1027C13.6714 14.9912 12.9498 14.7558 12.0945 13.9966C11.4288 13.4057 10.9793 12.6758 10.8487 12.4526C10.7181 12.2295 10.8348 12.1089 10.9469 11.9978C11.0476 11.898 11.1709 11.7375 11.2828 11.6074C11.3948 11.4773 11.4321 11.3842 11.5068 11.2355C11.5814 11.0868 11.5441 10.9566 11.4881 10.8451C11.4321 10.7335 10.9842 9.63654 10.7976 9.19032C10.6159 8.75573 10.4312 8.81454 10.2938 8.80771C10.1633 8.80124 10.0138 8.79988 9.86457 8.79988C9.7153 8.79988 9.47267 8.85565 9.26741 9.07877C9.06216 9.30189 8.48365 9.84107 8.48365 10.938C8.48365 12.035 9.28606 13.0947 9.39804 13.2435C9.51001 13.3922 10.9771 15.6433 13.2235 16.6087C13.7578 16.8383 14.175 16.9754 14.5002 17.0782C15.0366 17.2477 15.5248 17.2238 15.9107 17.1665C16.341 17.1025 17.2356 16.6273 17.4223 16.1067C17.6089 15.5861 17.6089 15.1399 17.5529 15.047C17.4969 14.954 17.3476 14.8982 17.1237 14.7866Z" fill="white"/>
</g>
<defs>
<linearGradient id="paint0_linear_627_1575" x1="13.0005" y1="0" x2="13.0005" y2="26.0011" gradientUnits="userSpaceOnUse">
<stop stop-color="#61FD7D"/>
<stop offset="1" stop-color="#2BB826"/>
</linearGradient>
<clipPath id="clip0_627_1575">
<rect width="26" height="26" fill="white"/>
</clipPath>
</defs>
</svg>
