<svg width="26" height="26" viewBox="0 0 26 26" fill="none" xmlns="http://www.w3.org/2000/svg">
<g id="Link">
<path id="Vector" d="M13.1193 16.6725L8.91598 20.8759C8.40707 21.367 7.72741 21.6415 7.02015 21.6415C6.31288 21.6415 5.63322 21.367 5.12432 20.8759C4.87472 20.6272 4.67667 20.3318 4.54154 20.0065C4.4064 19.6811 4.33684 19.3323 4.33684 18.98C4.33684 18.6277 4.4064 18.2789 4.54154 17.9536C4.67667 17.6282 4.87472 17.3328 5.12432 17.0842L9.32765 12.8809C9.53164 12.6769 9.64625 12.4002 9.64625 12.1117C9.64625 11.8232 9.53164 11.5465 9.32765 11.3425C9.12365 11.1385 8.84698 11.0239 8.55848 11.0239C8.26999 11.0239 7.99331 11.1385 7.78932 11.3425L3.58598 15.5567C2.7392 16.4784 2.28124 17.6916 2.30773 18.9429C2.33422 20.1943 2.84312 21.387 3.72815 22.272C4.61318 23.1571 5.80591 23.6659 7.05725 23.6924C8.30859 23.7189 9.52179 23.261 10.4435 22.4142L14.6576 18.2109C14.8616 18.0069 14.9762 17.7302 14.9762 17.4417C14.9762 17.1532 14.8616 16.8765 14.6576 16.6725C14.4537 16.4685 14.177 16.3539 13.8885 16.3539C13.6 16.3539 13.3233 16.4685 13.1193 16.6725ZM22.4143 3.58585C21.503 2.6802 20.2704 2.17188 18.9856 2.17188C17.7008 2.17188 16.4681 2.6802 15.5568 3.58585L11.3426 7.78919C11.2416 7.8902 11.1615 8.01011 11.1069 8.14208C11.0522 8.27406 11.024 8.41551 11.024 8.55835C11.024 8.7012 11.0522 8.84265 11.1069 8.97462C11.1615 9.1066 11.2416 9.22651 11.3426 9.32752C11.4437 9.42853 11.5636 9.50865 11.6955 9.56332C11.8275 9.61798 11.969 9.64612 12.1118 9.64612C12.2547 9.64612 12.3961 9.61798 12.5281 9.56332C12.6601 9.50865 12.78 9.42853 12.881 9.32752L17.0843 5.12419C17.5932 4.63303 18.2729 4.35855 18.9802 4.35855C19.6874 4.35855 20.3671 4.63303 20.876 5.12419C21.1256 5.3728 21.3236 5.66825 21.4588 5.99358C21.5939 6.31892 21.6635 6.66774 21.6635 7.02002C21.6635 7.37231 21.5939 7.72112 21.4588 8.04646C21.3236 8.3718 21.1256 8.66724 20.876 8.91585L16.6726 13.1192C16.5711 13.2199 16.4905 13.3397 16.4355 13.4717C16.3805 13.6037 16.3522 13.7453 16.3522 13.8884C16.3522 14.0314 16.3805 14.173 16.4355 14.305C16.4905 14.437 16.5711 14.5568 16.6726 14.6575C16.7734 14.7591 16.8932 14.8397 17.0252 14.8947C17.1572 14.9497 17.2988 14.978 17.4418 14.978C17.5848 14.978 17.7264 14.9497 17.8584 14.8947C17.9905 14.8397 18.1103 14.7591 18.211 14.6575L22.4143 10.4434C23.32 9.53203 23.8283 8.29941 23.8283 7.01461C23.8283 5.7298 23.32 4.49718 22.4143 3.58585ZM9.56598 16.4342C9.66721 16.5346 9.78726 16.614 9.91925 16.6679C10.0512 16.7219 10.1926 16.7492 10.3351 16.7484C10.4777 16.7492 10.6191 16.7219 10.751 16.6679C10.883 16.614 11.0031 16.5346 11.1043 16.4342L16.4343 11.1042C16.6383 10.9002 16.7529 10.6235 16.7529 10.335C16.7529 10.0465 16.6383 9.76985 16.4343 9.56585C16.2303 9.36186 15.9536 9.24726 15.6651 9.24726C15.3767 9.24726 15.1 9.36186 14.896 9.56585L9.56598 14.8959C9.46444 14.9966 9.38385 15.1164 9.32885 15.2484C9.27385 15.3804 9.24553 15.522 9.24553 15.665C9.24553 15.808 9.27385 15.9496 9.32885 16.0816C9.38385 16.2137 9.46444 16.3335 9.56598 16.4342Z" fill="#F1F1F1"/>
</g>
</svg>
