<svg width="16" height="16" viewBox="0 0 16 16" fill="none" xmlns="http://www.w3.org/2000/svg">
<g id="Share" clip-path="url(#clip0_429_3314)">
<path id="Share_2" d="M13 10.5516C12.04 10.5516 11.18 10.9694 10.64 11.605L5.78 9.04427C6.08 8.3723 6.08 7.6277 5.78 6.95573L10.64 4.39501C11.18 5.03065 12.04 5.44835 13 5.44835C14.66 5.44835 16 4.23155 16 2.72418C16 1.2168 14.66 0 13 0C11.34 0 10 1.2168 10 2.72418C10 3.0874 10.08 3.45062 10.22 3.75936L5.36 6.33825C4.8 5.70261 3.96 5.2849 3 5.2849C1.34 5.2849 0 6.5017 0 8.00908C0 9.51646 1.34 10.7333 3 10.7333C3.96 10.7333 4.82 10.3155 5.36 9.67991L10.22 12.2406C10.08 12.5494 10 12.9126 10 13.2758C10 14.7832 11.34 16 13 16C14.66 16 16 14.7832 16 13.2758C16 11.7684 14.66 10.5516 13 10.5516Z" fill="#F1F1F1"/>
</g>
<defs>
<clipPath id="clip0_429_3314">
<rect width="16" height="16" fill="white"/>
</clipPath>
</defs>
</svg>
