<svg width="31" height="30" viewBox="0 0 31 30" fill="none" xmlns="http://www.w3.org/2000/svg">
<g id="Light Bulb" clip-path="url(#clip0_542_62)">
<path id="Vector" d="M15.2911 17.2435L13.0867 15.8753C12.839 15.7215 12.5277 15.8049 12.39 16.062C12.2523 16.319 12.3412 16.6509 12.589 16.8046L15.2444 18.4529C15.4922 18.6066 15.8035 18.5232 15.9412 18.2662L19.676 11.2926C19.8137 11.0356 19.7248 10.7037 19.477 10.55C19.2293 10.3962 18.9179 10.4796 18.7803 10.7367L15.2911 17.2435Z" fill="#F1F1F1" fill-opacity="0.945098"/>
<g id="Light Bot W" filter="url(#filter0_d_542_62)">
<path d="M23.686 18.8469C23.596 18.8031 23.4923 18.7965 23.3975 18.8287C23.3027 18.8608 23.2244 18.9291 23.1795 19.0186C23.1575 19.0627 23.1444 19.1108 23.141 19.16C23.1377 19.2092 23.1442 19.2586 23.1601 19.3053C23.1759 19.352 23.201 19.3951 23.2336 19.4321C23.2663 19.4691 23.306 19.4992 23.3504 19.5207L24.7985 20.2272C24.8885 20.271 24.9922 20.2775 25.087 20.2454C25.1818 20.2132 25.2601 20.145 25.305 20.0555C25.327 20.0114 25.3401 19.9633 25.3435 19.9141C25.3468 19.8648 25.3404 19.8154 25.3245 19.7687C25.3086 19.722 25.2836 19.679 25.2509 19.642C25.2182 19.605 25.1785 19.5749 25.1341 19.5534L23.686 18.8469ZM24.3718 17.2863L23.5906 17.6329C23.5037 17.6708 23.4343 17.7402 23.3966 17.8271C23.3588 17.9141 23.3554 18.0121 23.387 18.1015C23.4186 18.1909 23.483 18.265 23.567 18.3088C23.6511 18.3526 23.7487 18.363 23.84 18.3378C23.8593 18.3326 23.8782 18.326 23.8965 18.3179L24.6777 17.9713C24.7231 17.9515 24.7641 17.9229 24.7983 17.8871C24.8326 17.8514 24.8594 17.8092 24.8773 17.763C24.8952 17.7169 24.9038 17.6676 24.9025 17.6181C24.9013 17.5686 24.8902 17.5198 24.87 17.4746C24.8498 17.4294 24.8209 17.3887 24.7849 17.3547C24.7489 17.3207 24.7065 17.2942 24.6601 17.2767C24.6138 17.2592 24.5645 17.251 24.515 17.2527C24.4655 17.2543 24.4168 17.2658 24.3718 17.2863ZM23.1975 19.9969C23.1577 19.9054 23.0833 19.8335 22.9906 19.7966C22.8978 19.7598 22.7943 19.7611 22.7026 19.8002C22.6108 19.8394 22.5383 19.9132 22.5007 20.0056C22.4631 20.098 22.4636 20.2015 22.502 20.2936L22.9016 21.2248C22.9376 21.3078 23.0023 21.3752 23.0839 21.4145C23.1654 21.4538 23.2584 21.4624 23.3459 21.4388C23.3634 21.434 23.3806 21.4281 23.3973 21.421C23.4429 21.4018 23.4842 21.3739 23.5189 21.3387C23.5536 21.3035 23.581 21.2618 23.5996 21.216C23.6181 21.1702 23.6275 21.1212 23.6271 21.0718C23.6266 21.0224 23.6165 20.9735 23.5971 20.928L23.1975 19.9969ZM11.0415 22.271C10.9579 22.2158 10.8559 22.1958 10.7577 22.2154C10.6594 22.2349 10.5729 22.2925 10.5169 22.3755L9.616 23.7115C9.58834 23.7523 9.56905 23.7982 9.55926 23.8466C9.54947 23.8949 9.54937 23.9447 9.55897 23.9931C9.56856 24.0415 9.58766 24.0875 9.61516 24.1284C9.64265 24.1694 9.678 24.2045 9.71916 24.2317C9.80277 24.2868 9.90472 24.3067 10.0029 24.2871C10.1011 24.2676 10.1877 24.2101 10.2438 24.1271L11.1446 22.7912C11.1723 22.7504 11.1916 22.7044 11.2014 22.6561C11.2111 22.6077 11.2113 22.5579 11.2017 22.5096C11.1921 22.4612 11.173 22.4152 11.1455 22.3742C11.118 22.3333 11.0826 22.2982 11.0415 22.271ZM10.07 22.0227C10.0898 22.0205 10.1095 22.0169 10.1288 22.0117C10.2205 21.9878 10.2998 21.9301 10.3507 21.8501C10.4016 21.7702 10.4203 21.6739 10.403 21.5807C10.3858 21.4874 10.3338 21.4042 10.2577 21.3478C10.1815 21.2913 10.0868 21.2659 9.99257 21.2765L9.14281 21.3669C9.09351 21.3716 9.04563 21.386 9.00193 21.4093C8.95823 21.4326 8.91958 21.4644 8.8882 21.5027C8.85682 21.541 8.83335 21.5851 8.81912 21.6326C8.80489 21.68 8.8002 21.7298 8.80531 21.7791C8.81042 21.8283 8.82523 21.8761 8.84889 21.9196C8.87255 21.9631 8.90459 22.0015 8.94317 22.0325C8.98174 22.0636 9.02608 22.0867 9.07363 22.1006C9.12119 22.1144 9.17101 22.1187 9.22022 22.1132L10.07 22.0227ZM11.8461 22.7094C11.7467 22.7209 11.656 22.7715 11.5939 22.8498C11.5318 22.9282 11.5034 23.0281 11.5149 23.1274L11.6345 24.1336C11.6406 24.1826 11.6562 24.23 11.6806 24.273C11.7049 24.316 11.7375 24.3537 11.7765 24.3841C11.8155 24.4145 11.8601 24.4368 11.9077 24.4499C11.9554 24.463 12.0051 24.4666 12.0542 24.4604C12.0721 24.4582 12.0899 24.4548 12.1074 24.4501C12.195 24.4268 12.2713 24.3728 12.3223 24.298C12.3733 24.2231 12.3957 24.1324 12.3853 24.0424L12.2657 23.0362C12.2597 22.9871 12.244 22.9398 12.2197 22.8968C12.1953 22.8538 12.1627 22.8161 12.1237 22.7857C12.0847 22.7553 12.0401 22.733 11.9925 22.7199C11.9448 22.7068 11.8951 22.7032 11.8461 22.7094Z" fill="#F1F1F1"/>
</g>
<g id="Vector_2" filter="url(#filter1_d_542_62)">
<path d="M22.7208 11.6275C21.6346 7.57359 17.3913 5.17574 13.2619 6.28222C9.13249 7.38869 6.65665 11.5869 7.74291 15.6409C8.21984 17.4133 9.32794 18.9505 10.8588 19.9633L11.0417 20.0845C12.4577 21.0222 14.0627 22.0849 14.7247 23.6146C14.8245 23.8408 15.0018 24.0241 15.2247 24.1313C15.4476 24.2385 15.7014 24.2627 15.9405 24.1995L19.9001 23.1385C20.1392 23.0737 20.3472 22.9256 20.4867 22.7209C20.6261 22.5161 20.6877 22.2682 20.6603 22.022C20.5057 20.7087 20.9445 19.1549 22.002 17.272C22.9734 15.5579 23.2316 13.5304 22.7208 11.6275ZM19.9094 22.1123C19.9171 22.1786 19.9008 22.2455 19.8635 22.3008C19.8262 22.3562 19.7703 22.3963 19.706 22.414L15.7464 23.475C15.6819 23.4917 15.6135 23.4849 15.5536 23.4557C15.4937 23.4265 15.4461 23.3769 15.4195 23.3158C14.6694 21.5829 12.9659 20.4549 11.4631 19.4596L11.2808 19.3387C9.90162 18.4265 8.90327 17.0418 8.47354 15.4451C7.49434 11.7907 9.72947 8.00519 13.456 7.00666C17.1827 6.00811 21.011 8.16889 21.9902 11.8233C22.4503 13.5377 22.2175 15.3643 21.3421 16.9086C20.2043 18.9347 19.7358 20.6367 19.9094 22.1123Z" fill="#F1F1F1"/>
</g>
<path id="Vector_3" d="M19.9413 23.9039L16.2882 24.8827C16.2403 24.8951 16.1953 24.9169 16.1558 24.9468C16.1163 24.9767 16.0832 25.0141 16.0582 25.0569C16.0333 25.0997 16.0171 25.147 16.0105 25.196C16.0039 25.2451 16.0072 25.295 16.02 25.3428C16.0328 25.3906 16.055 25.4355 16.0852 25.4747C16.1154 25.5139 16.1531 25.5467 16.1961 25.5713C16.2391 25.5959 16.2865 25.6117 16.3356 25.6179C16.3847 25.624 16.4346 25.6204 16.4823 25.6072L20.1355 24.6283C20.1834 24.6159 20.2284 24.5941 20.2679 24.5642C20.3073 24.5343 20.3405 24.4969 20.3654 24.4541C20.3903 24.4114 20.4066 24.3641 20.4131 24.315C20.4197 24.2659 20.4165 24.216 20.4037 24.1682C20.3908 24.1204 20.3687 24.0756 20.3385 24.0364C20.3082 23.9971 20.2706 23.9643 20.2276 23.9397C20.1846 23.9152 20.1372 23.8993 20.088 23.8932C20.0389 23.887 19.9891 23.8907 19.9413 23.9039ZM19.5989 25.5485L17.4071 26.1358C17.3591 26.1483 17.3141 26.17 17.2747 26.1999C17.2352 26.2298 17.202 26.2672 17.1771 26.31C17.1522 26.3528 17.1359 26.4001 17.1294 26.4492C17.1228 26.4982 17.126 26.5481 17.1388 26.5959C17.1517 26.6438 17.1738 26.6886 17.204 26.7278C17.2343 26.767 17.272 26.7999 17.3149 26.8244C17.3579 26.849 17.4053 26.8648 17.4545 26.871C17.5036 26.8771 17.5535 26.8735 17.6012 26.8603L19.793 26.273C19.841 26.2606 19.886 26.2388 19.9254 26.2089C19.9649 26.179 19.9981 26.1416 20.023 26.0988C20.0479 26.056 20.0642 26.0087 20.0707 25.9597C20.0773 25.9106 20.0741 25.8607 20.0613 25.8129C20.0484 25.7651 20.0263 25.7202 19.9961 25.681C19.9658 25.6418 19.9282 25.609 19.8852 25.5844C19.8422 25.5598 19.7948 25.544 19.7456 25.5378C19.6965 25.5317 19.6466 25.5353 19.5989 25.5485ZM12.8805 5.58953C12.9771 5.56409 13.0596 5.50132 13.11 5.41503C13.1603 5.32875 13.1742 5.22601 13.1488 5.12942L12.7652 3.69769C12.7385 3.60155 12.675 3.51981 12.5884 3.47029C12.5018 3.42077 12.3991 3.40747 12.3028 3.43329C12.2064 3.45911 12.1241 3.52196 12.0739 3.60815C12.0237 3.69434 12.0095 3.79689 12.0345 3.89347L12.4182 5.3252C12.4444 5.42156 12.5079 5.50354 12.5946 5.55312C12.6813 5.60269 12.7842 5.61579 12.8805 5.58953ZM9.26024 6.93C9.31846 7.01136 9.40648 7.0664 9.50512 7.08311C9.60375 7.09983 9.705 7.07687 9.78677 7.01924C9.82731 6.99106 9.86188 6.95514 9.88847 6.91355C9.91507 6.87196 9.93317 6.82551 9.94174 6.77689C9.9503 6.72827 9.94916 6.67844 9.93838 6.63026C9.92759 6.58208 9.90738 6.53651 9.87891 6.49618L9.01911 5.28455C8.96091 5.20317 8.87288 5.14812 8.77424 5.1314C8.6756 5.11468 8.57435 5.13765 8.49258 5.19531C8.45204 5.22348 8.41748 5.2594 8.39088 5.301C8.36429 5.34259 8.34619 5.38903 8.33762 5.43765C8.32906 5.48627 8.3302 5.53611 8.34099 5.58429C8.35177 5.63246 8.37198 5.67803 8.40045 5.71836L9.26024 6.93ZM6.83989 9.49446C6.92259 9.55087 7.02418 9.57243 7.12266 9.55445C7.22114 9.53647 7.30857 9.48041 7.366 9.39842C7.39435 9.35803 7.4144 9.31243 7.42499 9.26424C7.43558 9.21605 7.4365 9.16624 7.4277 9.11769C7.4189 9.06915 7.40055 9.02283 7.37372 8.98143C7.34688 8.94002 7.3121 8.90436 7.27138 8.8765L6.03914 8.03118C5.95642 7.97483 5.85484 7.95331 5.75638 7.97129C5.65792 7.98926 5.5705 8.04528 5.51303 8.12722C5.48468 8.1676 5.46463 8.21321 5.45404 8.2614C5.44345 8.30958 5.44252 8.3594 5.45133 8.40794C5.46013 8.45649 5.47848 8.50281 5.50531 8.54421C5.53214 8.58561 5.56693 8.62128 5.60765 8.64914L6.83989 9.49446ZM6.00675 11.8852L4.55067 11.508C4.45381 11.4829 4.35099 11.4971 4.26447 11.5473C4.17796 11.5975 4.1147 11.6798 4.08839 11.7763C4.0757 11.824 4.07258 11.8737 4.07923 11.9226C4.08589 11.9715 4.10217 12.0186 4.12714 12.0612C4.15211 12.1037 4.18527 12.1409 4.22471 12.1706C4.26415 12.2003 4.30908 12.2218 4.3569 12.234L5.81298 12.6112C5.90984 12.6363 6.0127 12.6223 6.09925 12.572C6.1858 12.5218 6.24904 12.4395 6.27525 12.3429C6.28795 12.2952 6.29106 12.2455 6.28441 12.1966C6.27776 12.1477 6.26148 12.1006 6.23651 12.058C6.21154 12.0154 6.17837 11.9782 6.13893 11.9486C6.0995 11.9189 6.05457 11.8974 6.00675 11.8852ZM6.09929 15.1952L4.59504 15.3318C4.54575 15.3358 4.49775 15.3495 4.45379 15.3722C4.40983 15.3949 4.37079 15.426 4.33891 15.4638C4.30702 15.5016 4.28293 15.5453 4.26801 15.5925C4.25308 15.6396 4.24763 15.6893 4.25196 15.7385C4.25629 15.7878 4.27032 15.8357 4.29323 15.8795C4.31615 15.9234 4.34751 15.9622 4.3855 15.9939C4.42348 16.0256 4.46736 16.0494 4.51459 16.064C4.56183 16.0787 4.61149 16.0839 4.66073 16.0792L6.16499 15.9427C6.18683 15.9406 6.20845 15.9367 6.22965 15.931C6.32092 15.9073 6.3999 15.8501 6.45084 15.7707C6.50177 15.6914 6.52093 15.5957 6.50448 15.5029C6.48803 15.41 6.43719 15.3268 6.36209 15.2698C6.28699 15.2127 6.19315 15.1861 6.09929 15.1952ZM25.6115 10.0162C25.5687 9.9259 25.492 9.85614 25.398 9.82216C25.304 9.78819 25.2004 9.79274 25.1098 9.83483L23.7388 10.4687C23.653 10.5077 23.585 10.5777 23.5484 10.6647C23.5119 10.7516 23.5095 10.8492 23.5417 10.9378C23.5739 11.0265 23.6383 11.0998 23.7222 11.143C23.806 11.1862 23.9031 11.1963 23.994 11.1711C24.0151 11.1654 24.0358 11.158 24.0557 11.1489L25.4266 10.515C25.4715 10.4945 25.512 10.4652 25.5456 10.429C25.5792 10.3928 25.6054 10.3503 25.6226 10.304C25.6397 10.2577 25.6476 10.2084 25.6457 10.159C25.6438 10.1096 25.6321 10.0611 25.6115 10.0162ZM23.588 6.5514C23.517 6.48082 23.4211 6.4411 23.321 6.44087C23.2209 6.44064 23.1248 6.47992 23.0535 6.55017L21.9812 7.60485C21.9459 7.63933 21.9178 7.68046 21.8985 7.72587C21.8792 7.77128 21.869 7.82007 21.8687 7.86941C21.8684 7.91875 21.8779 7.96767 21.8966 8.01333C21.9152 8.05899 21.9428 8.1005 21.9777 8.13544C22.0486 8.20597 22.1446 8.24565 22.2446 8.24588C22.3447 8.24611 22.4408 8.20687 22.5122 8.13667L23.5845 7.08198C23.6198 7.04751 23.6479 7.00637 23.6672 6.96096C23.6865 6.91555 23.6966 6.86676 23.6969 6.81742C23.6972 6.76808 23.6878 6.71917 23.6691 6.6735C23.6504 6.62784 23.6228 6.58634 23.588 6.5514ZM19.8198 6.15355C19.8728 6.13948 19.9221 6.11408 19.9643 6.07911C20.0065 6.04414 20.0407 6.00042 20.0644 5.95098L20.7089 4.60277C20.7302 4.55828 20.7425 4.51 20.745 4.46073C20.7475 4.41147 20.7402 4.36219 20.7236 4.31576C20.7069 4.26933 20.6812 4.22666 20.648 4.19022C20.6147 4.15379 20.5746 4.12431 20.5298 4.10349C20.4391 4.06122 20.3353 4.05639 20.241 4.09007C20.1468 4.12374 20.0695 4.19319 20.0261 4.28339L19.3815 5.63159C19.3602 5.67609 19.348 5.72437 19.3455 5.77363C19.3429 5.8229 19.3502 5.87217 19.3669 5.91861C19.3835 5.96504 19.4092 6.00771 19.4425 6.04414C19.4757 6.08058 19.5159 6.11006 19.5606 6.13088C19.6416 6.16876 19.7334 6.17679 19.8198 6.15355ZM16.2747 5.28081C16.3743 5.28983 16.4735 5.25909 16.5505 5.1953C16.6276 5.1315 16.6763 5.03983 16.6861 4.94026L16.8248 3.46106C16.8293 3.41189 16.8241 3.36231 16.8093 3.31519C16.7946 3.26807 16.7707 3.22433 16.7389 3.1865C16.7072 3.14867 16.6683 3.1175 16.6244 3.09478C16.5806 3.07207 16.5327 3.05826 16.4835 3.05415C16.3839 3.04515 16.2847 3.0759 16.2077 3.13969C16.1306 3.20348 16.0819 3.29514 16.0721 3.3947L15.9334 4.8739C15.9288 4.92307 15.9341 4.97264 15.9489 5.01977C15.9636 5.06689 15.9875 5.11063 16.0193 5.14846C16.051 5.18629 16.0899 5.21746 16.1337 5.24017C16.1776 5.26289 16.2255 5.2767 16.2747 5.28081Z" fill="#F1F1F1"/>
</g>
<defs>
<filter id="filter0_d_542_62" x="4.80334" y="17.2525" width="24.541" height="15.2108" filterUnits="userSpaceOnUse" color-interpolation-filters="sRGB">
<feFlood flood-opacity="0" result="BackgroundImageFix"/>
<feColorMatrix in="SourceAlpha" type="matrix" values="0 0 0 0 0 0 0 0 0 0 0 0 0 0 0 0 0 0 127 0" result="hardAlpha"/>
<feOffset dy="4"/>
<feGaussianBlur stdDeviation="2"/>
<feComposite in2="hardAlpha" operator="out"/>
<feColorMatrix type="matrix" values="0 0 0 0 0 0 0 0 0 0 0 0 0 0 0 0 0 0 0.25 0"/>
<feBlend mode="normal" in2="BackgroundImageFix" result="effect1_dropShadow_542_62"/>
<feBlend mode="normal" in="SourceGraphic" in2="effect1_dropShadow_542_62" result="shape"/>
</filter>
<filter id="filter1_d_542_62" x="3.4873" y="6.01242" width="23.4901" height="26.2216" filterUnits="userSpaceOnUse" color-interpolation-filters="sRGB">
<feFlood flood-opacity="0" result="BackgroundImageFix"/>
<feColorMatrix in="SourceAlpha" type="matrix" values="0 0 0 0 0 0 0 0 0 0 0 0 0 0 0 0 0 0 127 0" result="hardAlpha"/>
<feOffset dy="4"/>
<feGaussianBlur stdDeviation="2"/>
<feComposite in2="hardAlpha" operator="out"/>
<feColorMatrix type="matrix" values="0 0 0 0 0 0 0 0 0 0 0 0 0 0 0 0 0 0 0.25 0"/>
<feBlend mode="normal" in2="BackgroundImageFix" result="effect1_dropShadow_542_62"/>
<feBlend mode="normal" in="SourceGraphic" in2="effect1_dropShadow_542_62" result="shape"/>
</filter>
<clipPath id="clip0_542_62">
<rect width="24" height="24" fill="white" transform="translate(0.803101 6.51471) rotate(-15)"/>
</clipPath>
</defs>
</svg>
