<svg width="16" height="16" viewBox="0 0 16 16" fill="none" xmlns="http://www.w3.org/2000/svg">
<g id="Light Bulb" clip-path="url(#clip0_451_4014)">
<path id="Vector" d="M13.2316 7.07422C13.2316 4.27625 10.9129 2 8.0628 2C5.21274 2 2.89404 4.27625 2.89404 7.07422C2.89533 8.29791 3.34366 9.47897 4.15472 10.3953L4.25155 10.5049C5.00161 11.353 5.85177 12.3143 6.01415 13.4136C6.03939 13.5765 6.12195 13.7251 6.24696 13.8326C6.37198 13.9401 6.53126 13.9995 6.69614 14H9.42899C9.59413 13.9996 9.75366 13.9401 9.87877 13.8323C10.0039 13.7245 10.0863 13.5755 10.1112 13.4122C10.2382 12.5398 10.7889 11.615 11.7947 10.585C12.716 9.64876 13.2321 8.38773 13.2316 7.07422Z" fill="#10C822"/>
<path id="Vector_2" d="M7.47843 9.40864L6.29499 8.14718C6.16198 8.0054 5.94712 8.0054 5.81411 8.14718C5.6811 8.28896 5.6811 8.51798 5.81411 8.65976L7.2397 10.1793C7.37271 10.3211 7.58757 10.3211 7.72058 10.1793L11.3289 6.33315C11.4619 6.19137 11.4619 5.96234 11.3289 5.82057C11.1959 5.67879 10.981 5.67879 10.848 5.82057L7.47843 9.40864Z" fill="#F1F1F1" fill-opacity="0.945098"/>
<g id="Light Bot W" filter="url(#filter0_d_451_4014)">
<path d="M12.6076 11.8897C12.5572 11.8459 12.4916 11.8239 12.425 11.8282C12.3584 11.8325 12.2962 11.863 12.2518 11.9129C12.23 11.9375 12.2133 11.9662 12.2027 11.9973C12.192 12.0284 12.1876 12.0613 12.1898 12.0942C12.192 12.127 12.2007 12.159 12.2153 12.1885C12.23 12.2179 12.2504 12.2442 12.2752 12.2657L13.0858 12.9705C13.1362 13.0142 13.2019 13.0363 13.2685 13.032C13.3351 13.0276 13.3973 12.9972 13.4416 12.9473C13.4634 12.9227 13.4802 12.894 13.4908 12.8629C13.5014 12.8318 13.5058 12.7989 13.5036 12.766C13.5015 12.7332 13.4928 12.7012 13.4781 12.6717C13.4635 12.6423 13.4431 12.616 13.4182 12.5945L12.6076 11.8897ZM13.3185 11.0031L12.7556 11.0915C12.6931 11.1009 12.6365 11.1336 12.5972 11.1831C12.5579 11.2326 12.5387 11.2951 12.5437 11.3581C12.5486 11.4211 12.5773 11.4799 12.6239 11.5227C12.6704 11.5654 12.7315 11.5889 12.7947 11.5884C12.808 11.5884 12.8213 11.5874 12.8344 11.5854L13.3973 11.497C13.4299 11.4921 13.4613 11.4807 13.4895 11.4636C13.5177 11.4465 13.5423 11.424 13.5618 11.3973C13.5813 11.3707 13.5953 11.3404 13.603 11.3083C13.6107 11.2762 13.612 11.2429 13.6068 11.2103C13.6016 11.1777 13.59 11.1465 13.5727 11.1184C13.5554 11.0903 13.5326 11.0659 13.5058 11.0467C13.479 11.0274 13.4487 11.0136 13.4165 11.0061C13.3844 10.9987 13.3511 10.9976 13.3185 11.0031ZM12.0946 12.5459C12.0847 12.4802 12.0492 12.421 11.9959 12.3813C11.9426 12.3416 11.8757 12.3245 11.8098 12.3339C11.744 12.3433 11.6845 12.3783 11.6444 12.4313C11.6043 12.4843 11.5867 12.5511 11.5955 12.617L11.6922 13.2856C11.701 13.3453 11.7311 13.3998 11.7768 13.4392C11.8226 13.4786 11.881 13.5002 11.9414 13.5C11.9535 13.5 11.9656 13.4992 11.9776 13.4975C12.0102 13.493 12.0416 13.4821 12.0701 13.4654C12.0985 13.4488 12.1233 13.4267 12.1432 13.4004C12.163 13.3741 12.1775 13.3441 12.1858 13.3123C12.194 13.2804 12.1959 13.2471 12.1913 13.2145L12.0946 12.5459ZM3.87434 11.9129C3.83006 11.8629 3.76783 11.8324 3.70119 11.8281C3.63455 11.8237 3.56889 11.8459 3.51849 11.8897L2.70786 12.5945C2.683 12.6161 2.66266 12.6423 2.64801 12.6717C2.63337 12.7012 2.62471 12.7332 2.62254 12.766C2.62037 12.7989 2.62473 12.8318 2.63537 12.8629C2.64601 12.894 2.66272 12.9227 2.68453 12.9473C2.72887 12.9972 2.79108 13.0276 2.8577 13.032C2.92431 13.0363 2.98995 13.0142 3.04039 12.9705L3.85101 12.2657C3.87587 12.2441 3.89621 12.2179 3.91086 12.1885C3.9255 12.159 3.93416 12.127 3.93633 12.0941C3.9385 12.0613 3.93414 12.0284 3.9235 11.9973C3.91286 11.9662 3.89615 11.9375 3.87434 11.9129ZM3.29159 11.5854C3.30475 11.5874 3.31804 11.5884 3.33135 11.5884C3.39455 11.5889 3.45558 11.5654 3.50216 11.5227C3.54873 11.48 3.57738 11.4212 3.58235 11.3582C3.58731 11.2952 3.56822 11.2326 3.52891 11.1831C3.4896 11.1337 3.433 11.1009 3.37051 11.0915L2.8077 11.0031C2.77514 10.9976 2.74182 10.9986 2.70966 11.0061C2.6775 11.0136 2.64713 11.0273 2.62031 11.0466C2.5935 11.0659 2.57076 11.0902 2.55341 11.1183C2.53607 11.1464 2.52445 11.1777 2.51925 11.2103C2.51404 11.2429 2.51533 11.2762 2.52306 11.3083C2.53079 11.3404 2.5448 11.3706 2.56428 11.3973C2.58376 11.4239 2.60833 11.4465 2.63656 11.4636C2.6648 11.4807 2.69614 11.4921 2.72878 11.497L3.29159 11.5854ZM4.31681 12.334C4.25085 12.3243 4.18373 12.3412 4.13022 12.381C4.0767 12.4207 4.04117 12.4801 4.03144 12.5461L3.93486 13.2146C3.93027 13.2473 3.93217 13.2805 3.94045 13.3124C3.94872 13.3442 3.96321 13.3742 3.98307 13.4004C4.00294 13.4267 4.0278 13.4488 4.05622 13.4655C4.08464 13.4821 4.11607 13.493 4.1487 13.4975C4.16065 13.4992 4.1727 13.5 4.18477 13.5C4.24517 13.5002 4.3036 13.4786 4.34937 13.4392C4.39515 13.3998 4.42522 13.3452 4.43408 13.2854L4.53066 12.6169C4.53524 12.5842 4.53334 12.551 4.52506 12.5192C4.51679 12.4873 4.50231 12.4573 4.48244 12.4311C4.46257 12.4048 4.43772 12.3827 4.4093 12.366C4.38087 12.3494 4.34945 12.3385 4.31681 12.334Z" fill="#F1F1F1"/>
</g>
<g id="Vector_3" filter="url(#filter1_d_451_4014)">
<path d="M13.2316 7.07422C13.2316 4.27625 10.9129 2 8.0628 2C5.21274 2 2.89404 4.27625 2.89404 7.07422C2.89533 8.29791 3.34366 9.47897 4.15472 10.3953L4.25155 10.5049C5.00161 11.353 5.85177 12.3143 6.01415 13.4136C6.03939 13.5765 6.12195 13.7251 6.24696 13.8326C6.37198 13.9401 6.53126 13.9995 6.69614 14H9.42899C9.59413 13.9996 9.75366 13.9401 9.87877 13.8323C10.0039 13.7245 10.0863 13.5755 10.1112 13.4122C10.2382 12.5398 10.7889 11.615 11.7947 10.585C12.716 9.64876 13.2321 8.38773 13.2316 7.07422ZM9.61205 13.3408C9.60556 13.3848 9.58354 13.4251 9.54996 13.4543C9.51639 13.4835 9.47348 13.4997 9.42899 13.5H6.69614C6.65171 13.4996 6.60887 13.4834 6.57532 13.4543C6.54177 13.4252 6.51972 13.385 6.51312 13.3411C6.32907 12.0957 5.42678 11.0754 4.63074 10.1752L4.53421 10.0659C3.80349 9.24053 3.39953 8.17659 3.39831 7.07422C3.39831 4.552 5.49079 2.5 8.0628 2.5C10.6349 2.5 12.7273 4.552 12.7273 7.07422C12.7277 8.25761 12.2627 9.39369 11.4325 10.2371C10.3502 11.3455 9.75487 12.3606 9.61205 13.3408Z" fill="#F1F1F1"/>
</g>
<path id="Vector_4" d="M9.32356 14.5H6.80221C6.76921 14.4998 6.73647 14.506 6.7059 14.5185C6.67532 14.5309 6.64752 14.5493 6.62408 14.5725C6.60064 14.5958 6.58204 14.6234 6.56934 14.6539C6.55665 14.6844 6.55011 14.717 6.55011 14.75C6.55011 14.7831 6.55665 14.8157 6.56934 14.8462C6.58204 14.8767 6.60064 14.9043 6.62408 14.9276C6.64752 14.9508 6.67532 14.9692 6.7059 14.9816C6.73647 14.9941 6.76921 15.0003 6.80221 15H9.32356C9.35656 15.0003 9.3893 14.9941 9.41987 14.9816C9.45045 14.9692 9.47826 14.9508 9.50169 14.9276C9.52513 14.9043 9.54373 14.8767 9.55643 14.8462C9.56912 14.8157 9.57566 14.7831 9.57566 14.75C9.57566 14.717 9.56912 14.6844 9.55643 14.6539C9.54373 14.6234 9.52513 14.5958 9.50169 14.5725C9.47826 14.5493 9.45045 14.5309 9.41987 14.5185C9.3893 14.506 9.35656 14.4998 9.32356 14.5ZM8.81929 15.5H7.30648C7.27348 15.4998 7.24074 15.506 7.21017 15.5185C7.17959 15.5309 7.15179 15.5493 7.12835 15.5725C7.10491 15.5958 7.08631 15.6234 7.07361 15.6539C7.06092 15.6844 7.05438 15.717 7.05438 15.75C7.05438 15.7831 7.06092 15.8157 7.07361 15.8462C7.08631 15.8767 7.10491 15.9043 7.12835 15.9276C7.15179 15.9508 7.17959 15.9692 7.21017 15.9816C7.24074 15.9941 7.27348 16.0003 7.30648 16H8.81929C8.85229 16.0003 8.88503 15.9941 8.9156 15.9816C8.94618 15.9692 8.97398 15.9508 8.99742 15.9276C9.02086 15.9043 9.03946 15.8767 9.05215 15.8462C9.06485 15.8157 9.07139 15.7831 9.07139 15.75C9.07139 15.717 9.06485 15.6844 9.05215 15.6539C9.03946 15.6234 9.02086 15.5958 8.99742 15.5725C8.97398 15.5493 8.94618 15.5309 8.9156 15.5185C8.88503 15.506 8.85229 15.4998 8.81929 15.5ZM7.93682 1.4882C8.0034 1.48848 8.06737 1.4623 8.11466 1.41542C8.16194 1.36853 8.18867 1.30479 8.18895 1.2382V0.250044C8.1884 0.183538 8.16159 0.119943 8.11437 0.0731104C8.06714 0.0262777 8.00333 0 7.93682 0C7.87031 0 7.80649 0.0262777 7.75927 0.0731104C7.71204 0.119943 7.68523 0.183538 7.68468 0.250044V1.2382C7.68497 1.30479 7.71169 1.36853 7.75898 1.41542C7.80626 1.4623 7.87023 1.48848 7.93682 1.4882ZM5.37423 1.72673C5.39768 1.78917 5.44487 1.8398 5.5055 1.86758C5.56613 1.89536 5.63529 1.89805 5.6979 1.87504C5.72886 1.8639 5.75732 1.84673 5.78162 1.82454C5.80592 1.80234 5.8256 1.77556 5.8395 1.74573C5.8534 1.71589 5.86127 1.68361 5.86264 1.65072C5.86401 1.61784 5.85885 1.58501 5.84748 1.55412L5.50287 0.625533C5.47944 0.563088 5.43225 0.512447 5.37161 0.484661C5.31098 0.456875 5.24181 0.4542 5.17921 0.477218C5.14825 0.488366 5.11979 0.505532 5.09549 0.527727C5.07119 0.549922 5.05152 0.576707 5.03761 0.606539C5.02371 0.63637 5.01584 0.668659 5.01448 0.701543C5.01311 0.734427 5.01826 0.767257 5.02964 0.798141L5.37423 1.72673ZM3.37316 2.96049C3.41668 3.01109 3.47838 3.0425 3.5449 3.04791C3.61142 3.05333 3.67739 3.03231 3.72852 2.98942C3.75374 2.96831 3.77452 2.9424 3.78966 2.9132C3.80479 2.884 3.81398 2.85208 3.81669 2.8193C3.8194 2.78652 3.81558 2.75353 3.80544 2.72223C3.7953 2.69094 3.77906 2.66197 3.75765 2.63701L3.11 1.88004C3.06646 1.82949 3.00476 1.79811 2.93825 1.79269C2.87175 1.78728 2.80578 1.80826 2.75464 1.85111C2.72941 1.87223 2.70863 1.89813 2.6935 1.92734C2.67836 1.95654 2.66918 1.98846 2.66647 2.02124C2.66376 2.05402 2.66758 2.08701 2.67772 2.1183C2.68785 2.14959 2.7041 2.17856 2.72551 2.20353L3.37316 2.96049ZM2.42415 4.35625L1.55159 3.8621C1.49354 3.82927 1.42489 3.82063 1.36051 3.83803C1.29613 3.85544 1.2412 3.89751 1.20761 3.95512C1.1912 3.98364 1.18062 4.01513 1.17646 4.04776C1.17231 4.0804 1.17467 4.11354 1.1834 4.14526C1.19214 4.17697 1.20708 4.20664 1.22736 4.23255C1.24763 4.25846 1.27285 4.28009 1.30154 4.29619L2.1741 4.79033C2.23213 4.82323 2.3008 4.83192 2.3652 4.8145C2.4296 4.79709 2.48453 4.75498 2.51808 4.69731C2.53448 4.66879 2.54507 4.6373 2.54922 4.60467C2.55338 4.57203 2.55102 4.5389 2.54228 4.50718C2.53355 4.47546 2.51861 4.44579 2.49833 4.41988C2.47805 4.39397 2.45284 4.37234 2.42415 4.35625ZM1.91261 6.50371L0.920383 6.33208C0.887946 6.32618 0.854662 6.32675 0.822446 6.33376C0.79023 6.34077 0.759717 6.35407 0.732663 6.37292C0.705609 6.39176 0.682546 6.41576 0.664802 6.44355C0.647058 6.47134 0.634983 6.50236 0.629271 6.53483C0.623559 6.5673 0.624322 6.60058 0.631518 6.63276C0.638714 6.66493 0.652199 6.69537 0.671199 6.72231C0.690199 6.74925 0.714338 6.77218 0.742228 6.78976C0.770118 6.80734 0.801209 6.81923 0.833713 6.82476L1.82594 6.99638C1.84036 6.9988 1.85496 7.00003 1.86959 7.00004C1.93245 7.00052 1.99318 6.97729 2.03968 6.93498C2.08617 6.89267 2.11501 6.83438 2.12044 6.77175C2.12587 6.70912 2.10749 6.64675 2.06897 6.59707C2.03045 6.54739 1.97462 6.51405 1.91261 6.50371ZM15.3711 6.53544C15.3591 6.4699 15.3218 6.41174 15.2671 6.37364C15.2125 6.33555 15.1449 6.3206 15.0793 6.33207L14.0872 6.50369C14.0251 6.51402 13.9693 6.54736 13.9307 6.59705C13.8922 6.64674 13.8738 6.70914 13.8792 6.77179C13.8847 6.83444 13.9135 6.89274 13.9601 6.93505C14.0066 6.97735 14.0674 7.00056 14.1302 7.00004C14.1449 7.00002 14.1594 6.9988 14.1738 6.99638L15.166 6.82476C15.1985 6.81927 15.2296 6.80743 15.2575 6.78991C15.2854 6.77239 15.3095 6.74954 15.3286 6.72266C15.3476 6.69579 15.3612 6.66542 15.3685 6.63329C15.3758 6.60116 15.3767 6.56791 15.3711 6.53544ZM14.6659 3.95512C14.6324 3.89743 14.5775 3.8553 14.513 3.83788C14.4486 3.82046 14.38 3.82917 14.3219 3.86211L13.4494 4.35625C13.4208 4.37236 13.3956 4.39399 13.3753 4.41991C13.355 4.44582 13.3401 4.47549 13.3314 4.50721C13.3227 4.53892 13.3203 4.57206 13.3245 4.60469C13.3286 4.63732 13.3392 4.6688 13.3556 4.69731C13.3892 4.75498 13.4441 4.79709 13.5085 4.8145C13.5729 4.83192 13.6416 4.82323 13.6996 4.79033L14.5721 4.29619C14.6008 4.28008 14.626 4.25844 14.6462 4.23253C14.6665 4.20662 14.6814 4.17694 14.6902 4.14523C14.6989 4.11351 14.7012 4.08038 14.6971 4.04775C14.6929 4.01512 14.6823 3.98363 14.6659 3.95512ZM12.3081 3.04875C12.3446 3.04883 12.3807 3.04098 12.414 3.02575C12.4472 3.01051 12.4767 2.98825 12.5005 2.96049L13.1482 2.20354C13.1696 2.17856 13.1858 2.14958 13.1959 2.11829C13.206 2.087 13.2098 2.05401 13.2071 2.02124C13.2044 1.98847 13.1952 1.95656 13.1801 1.92735C13.165 1.89815 13.1442 1.87224 13.119 1.85112C13.0679 1.80824 13.0019 1.78723 12.9353 1.79265C12.8688 1.79806 12.8071 1.82946 12.7636 1.88005L12.1159 2.63701C12.0945 2.66199 12.0783 2.69096 12.0681 2.72225C12.058 2.75354 12.0542 2.78653 12.0569 2.8193C12.0596 2.85208 12.0688 2.88399 12.0839 2.91319C12.0991 2.94239 12.1198 2.9683 12.145 2.98942C12.1907 3.0278 12.2484 3.04881 12.3081 3.04875ZM10.1757 1.87504C10.2384 1.89805 10.3075 1.89536 10.3681 1.86758C10.4288 1.8398 10.476 1.78917 10.4994 1.72673L10.844 0.798141C10.8554 0.767258 10.8606 0.734425 10.8592 0.701536C10.8578 0.668647 10.85 0.636354 10.8361 0.606519C10.8222 0.576683 10.8025 0.549897 10.7782 0.527705C10.7539 0.505513 10.7254 0.488354 10.6944 0.477218C10.6318 0.454232 10.5627 0.456923 10.502 0.484705C10.4414 0.512487 10.3942 0.563107 10.3707 0.625533L10.0262 1.55412C10.0148 1.58501 10.0096 1.61784 10.011 1.65073C10.0123 1.68362 10.0202 1.71591 10.0341 1.74575C10.048 1.77558 10.0677 1.80237 10.092 1.82456C10.1163 1.84675 10.1448 1.86391 10.1757 1.87504Z" fill="#F1F1F1"/>
</g>
<defs>
<filter id="filter0_d_451_4014" x="-1.48389" y="10.9996" width="19.0938" height="10.5004" filterUnits="userSpaceOnUse" color-interpolation-filters="sRGB">
<feFlood flood-opacity="0" result="BackgroundImageFix"/>
<feColorMatrix in="SourceAlpha" type="matrix" values="0 0 0 0 0 0 0 0 0 0 0 0 0 0 0 0 0 0 127 0" result="hardAlpha"/>
<feOffset dy="4"/>
<feGaussianBlur stdDeviation="2"/>
<feComposite in2="hardAlpha" operator="out"/>
<feColorMatrix type="matrix" values="0 0 0 0 0 0 0 0 0 0 0 0 0 0 0 0 0 0 0.25 0"/>
<feBlend mode="normal" in2="BackgroundImageFix" result="effect1_dropShadow_451_4014"/>
<feBlend mode="normal" in="SourceGraphic" in2="effect1_dropShadow_451_4014" result="shape"/>
</filter>
<filter id="filter1_d_451_4014" x="-1.10596" y="2" width="18.3374" height="20" filterUnits="userSpaceOnUse" color-interpolation-filters="sRGB">
<feFlood flood-opacity="0" result="BackgroundImageFix"/>
<feColorMatrix in="SourceAlpha" type="matrix" values="0 0 0 0 0 0 0 0 0 0 0 0 0 0 0 0 0 0 127 0" result="hardAlpha"/>
<feOffset dy="4"/>
<feGaussianBlur stdDeviation="2"/>
<feComposite in2="hardAlpha" operator="out"/>
<feColorMatrix type="matrix" values="0 0 0 0 0 0 0 0 0 0 0 0 0 0 0 0 0 0 0.25 0"/>
<feBlend mode="normal" in2="BackgroundImageFix" result="effect1_dropShadow_451_4014"/>
<feBlend mode="normal" in="SourceGraphic" in2="effect1_dropShadow_451_4014" result="shape"/>
</filter>
<clipPath id="clip0_451_4014">
<rect width="16" height="16" fill="white"/>
</clipPath>
</defs>
</svg>
