<svg width="20" height="20" viewBox="0 0 20 20" fill="none" xmlns="http://www.w3.org/2000/svg">
<g id="Light Bulb" clip-path="url(#clip0_448_2777)">
<path id="Vector" d="M16.5396 8.84277C16.5396 5.34531 13.6412 2.5 10.0786 2.5C6.51605 2.5 3.61768 5.34531 3.61768 8.84277C3.61928 10.3724 4.1797 11.8487 5.19352 12.9941L5.31456 13.1311C6.25213 14.1913 7.31483 15.3929 7.51781 16.767C7.54936 16.9706 7.65256 17.1564 7.80883 17.2907C7.9651 17.4251 8.16419 17.4993 8.37029 17.5H11.7864C11.9928 17.4994 12.1922 17.4251 12.3486 17.2903C12.505 17.1556 12.608 16.9694 12.6391 16.7653C12.7979 15.6747 13.4862 14.5187 14.7435 13.2312C15.8952 12.061 16.5403 10.4847 16.5396 8.84277Z" fill="#C4C810"/>
<g id="Light Bot W" filter="url(#filter0_d_448_2777)">
<path d="M15.7594 14.8621C15.6964 14.8074 15.6144 14.7798 15.5311 14.7852C15.4478 14.7906 15.3701 14.8286 15.3147 14.891C15.2874 14.9218 15.2665 14.9577 15.2532 14.9966C15.2399 15.0355 15.2344 15.0766 15.2372 15.1176C15.2399 15.1587 15.2507 15.1987 15.269 15.2355C15.2874 15.2723 15.3128 15.3051 15.3439 15.332L16.3572 16.2131C16.4202 16.2677 16.5022 16.2953 16.5855 16.2899C16.6687 16.2845 16.7465 16.2465 16.8019 16.1841C16.8292 16.1533 16.8501 16.1175 16.8634 16.0786C16.8767 16.0397 16.8821 15.9985 16.8794 15.9575C16.8767 15.9165 16.8659 15.8764 16.8475 15.8396C16.8292 15.8028 16.8038 15.77 16.7727 15.7431L15.7594 14.8621ZM16.648 13.7538L15.9444 13.8643C15.8663 13.876 15.7955 13.917 15.7464 13.9788C15.6972 14.0407 15.6733 14.1188 15.6795 14.1976C15.6857 14.2764 15.7215 14.3499 15.7797 14.4033C15.8379 14.4567 15.9142 14.4861 15.9932 14.4855C16.0098 14.4855 16.0265 14.4842 16.0429 14.4816L16.7465 14.3712C16.7873 14.365 16.8265 14.3508 16.8618 14.3294C16.897 14.3081 16.9277 14.2799 16.9521 14.2466C16.9765 14.2133 16.994 14.1755 17.0036 14.1353C17.0133 14.0952 17.0149 14.0536 17.0084 14.0129C17.0019 13.9721 16.9874 13.933 16.9658 13.8979C16.9441 13.8628 16.9157 13.8323 16.8822 13.8083C16.8487 13.7842 16.8107 13.767 16.7705 13.7576C16.7303 13.7483 16.6887 13.747 16.648 13.7538ZM15.1182 15.6824C15.1058 15.6002 15.0614 15.5262 14.9948 15.4765C14.9281 15.4269 14.8445 15.4056 14.7622 15.4173C14.6799 15.4291 14.6056 15.4728 14.5554 15.5391C14.5052 15.6054 14.4832 15.6888 14.4943 15.7712L14.6151 16.6069C14.6262 16.6815 14.6637 16.7497 14.7209 16.7989C14.7781 16.8482 14.8511 16.8752 14.9266 16.875C14.9417 16.875 14.9568 16.8739 14.9718 16.8718C15.0126 16.8662 15.0519 16.8526 15.0874 16.8317C15.123 16.8109 15.154 16.7833 15.1789 16.7504C15.2037 16.7176 15.2218 16.6801 15.2321 16.6403C15.2424 16.6004 15.2447 16.5589 15.239 16.5181L15.1182 15.6824ZM4.84281 14.891C4.78745 14.8286 4.70966 14.7905 4.62636 14.785C4.54306 14.7796 4.46099 14.8073 4.39799 14.8621L3.38471 15.7431C3.35363 15.77 3.3282 15.8028 3.3099 15.8396C3.29159 15.8764 3.28077 15.9165 3.27805 15.9575C3.27534 15.9985 3.28079 16.0397 3.29409 16.0786C3.3074 16.1174 3.32828 16.1533 3.35554 16.1841C3.41096 16.2465 3.48873 16.2845 3.572 16.2899C3.65527 16.2953 3.73732 16.2677 3.80036 16.2131L4.81364 15.332C4.84472 15.3051 4.87014 15.2723 4.88845 15.2355C4.90676 15.1987 4.91758 15.1586 4.92029 15.1176C4.92301 15.0766 4.91755 15.0355 4.90425 14.9966C4.89095 14.9577 4.87007 14.9218 4.84281 14.891ZM4.11436 14.4817C4.13081 14.4842 4.14743 14.4855 4.16407 14.4855C4.24307 14.4861 4.31936 14.4567 4.37757 14.4033C4.43579 14.3499 4.47161 14.2764 4.47781 14.1977C4.48402 14.1189 4.46015 14.0407 4.41102 13.9789C4.36188 13.917 4.29113 13.8761 4.21301 13.8643L3.5095 13.7538C3.4688 13.747 3.42715 13.7482 3.38695 13.7576C3.34675 13.7669 3.30879 13.7841 3.27527 13.8082C3.24175 13.8323 3.21333 13.8627 3.19165 13.8978C3.16996 13.933 3.15545 13.972 3.14893 14.0128C3.14242 14.0535 3.14405 14.0952 3.15371 14.1353C3.16337 14.1754 3.18088 14.2132 3.20523 14.2465C3.22958 14.2799 3.26029 14.308 3.29558 14.3294C3.33087 14.3508 3.37005 14.365 3.41086 14.3712L4.11436 14.4817ZM5.39589 15.4175C5.31344 15.4053 5.22955 15.4264 5.16265 15.4761C5.09576 15.5258 5.05134 15.6001 5.03917 15.6825L4.91845 16.5182C4.91272 16.559 4.9151 16.6005 4.92544 16.6404C4.93578 16.6802 4.95389 16.7177 4.97872 16.7505C5.00355 16.7833 5.03462 16.811 5.07015 16.8318C5.10568 16.8526 5.14496 16.8662 5.18575 16.8718C5.20069 16.8739 5.21575 16.875 5.23084 16.875C5.30634 16.8752 5.37938 16.8481 5.4366 16.7989C5.49382 16.7496 5.5314 16.6814 5.54247 16.6067L5.6632 15.771C5.66893 15.7302 5.66655 15.6887 5.65621 15.6489C5.64587 15.609 5.62776 15.5716 5.60293 15.5388C5.57809 15.5059 5.54702 15.4783 5.5115 15.4575C5.47597 15.4367 5.43669 15.4231 5.39589 15.4175Z" fill="#F1F1F1"/>
</g>
<g id="Light Bot R Y" filter="url(#filter1_d_448_2777)">
<path d="M15.7596 14.8621C15.6966 14.8074 15.6146 14.7798 15.5313 14.7852C15.448 14.7906 15.3703 14.8287 15.3149 14.8911C15.2876 14.9218 15.2667 14.9577 15.2534 14.9966C15.2401 15.0355 15.2346 15.0766 15.2374 15.1177C15.2401 15.1587 15.2509 15.1988 15.2692 15.2356C15.2876 15.2724 15.313 15.3052 15.3441 15.332L16.3574 16.2131C16.4204 16.2677 16.5024 16.2954 16.5857 16.2899C16.6689 16.2845 16.7467 16.2465 16.8021 16.1841C16.8294 16.1533 16.8503 16.1175 16.8636 16.0786C16.8769 16.0397 16.8823 15.9985 16.8796 15.9575C16.8769 15.9165 16.8661 15.8764 16.8477 15.8396C16.8294 15.8028 16.804 15.77 16.7729 15.7431L15.7596 14.8621ZM16.6482 13.7538L15.9446 13.8643C15.8665 13.876 15.7957 13.917 15.7466 13.9788C15.6974 14.0407 15.6735 14.1188 15.6797 14.1976C15.6859 14.2764 15.7217 14.3499 15.7799 14.4033C15.8381 14.4567 15.9144 14.4861 15.9934 14.4855C16.01 14.4855 16.0267 14.4842 16.0431 14.4817L16.7467 14.3712C16.7875 14.365 16.8267 14.3508 16.862 14.3295C16.8972 14.3081 16.9279 14.2799 16.9523 14.2466C16.9767 14.2133 16.9942 14.1755 17.0038 14.1354C17.0135 14.0952 17.0151 14.0536 17.0086 14.0129C17.0021 13.9721 16.9876 13.9331 16.966 13.8979C16.9443 13.8628 16.9159 13.8324 16.8824 13.8083C16.8489 13.7842 16.8109 13.767 16.7707 13.7576C16.7305 13.7483 16.6889 13.747 16.6482 13.7538ZM15.1184 15.6824C15.106 15.6002 15.0616 15.5262 14.995 15.4766C14.9283 15.4269 14.8447 15.4056 14.7624 15.4174C14.6801 15.4291 14.6058 15.4728 14.5556 15.5391C14.5054 15.6054 14.4834 15.6888 14.4945 15.7712L14.6153 16.6069C14.6264 16.6816 14.6639 16.7497 14.7211 16.7989C14.7783 16.8482 14.8513 16.8752 14.9268 16.875C14.9419 16.875 14.957 16.8739 14.972 16.8718C15.0128 16.8662 15.0521 16.8526 15.0876 16.8318C15.1232 16.8109 15.1542 16.7833 15.1791 16.7504C15.2039 16.7176 15.222 16.6801 15.2323 16.6403C15.2426 16.6004 15.2449 16.5589 15.2392 16.5181L15.1184 15.6824Z" fill="#C4C810"/>
</g>
<g id="Light Bot L Y" filter="url(#filter2_d_448_2777)">
<path d="M4.84281 14.8911C4.78745 14.8286 4.70966 14.7905 4.62636 14.7851C4.54306 14.7796 4.46099 14.8073 4.39799 14.8621L3.38471 15.7431C3.35363 15.77 3.3282 15.8028 3.3099 15.8396C3.29159 15.8764 3.28077 15.9165 3.27805 15.9575C3.27534 15.9985 3.28079 16.0397 3.29409 16.0786C3.3074 16.1175 3.32828 16.1533 3.35554 16.1841C3.41096 16.2465 3.48873 16.2845 3.572 16.2899C3.65527 16.2954 3.73732 16.2678 3.80036 16.2131L4.81364 15.3321C4.84472 15.3052 4.87014 15.2723 4.88845 15.2355C4.90676 15.1987 4.91758 15.1587 4.92029 15.1177C4.92301 15.0766 4.91755 15.0355 4.90425 14.9966C4.89095 14.9577 4.87007 14.9218 4.84281 14.8911ZM4.11436 14.4817C4.13081 14.4842 4.14743 14.4855 4.16407 14.4855C4.24307 14.4861 4.31936 14.4567 4.37757 14.4033C4.43579 14.3499 4.47161 14.2765 4.47781 14.1977C4.48402 14.1189 4.46015 14.0408 4.41101 13.9789C4.36188 13.917 4.29113 13.8761 4.21301 13.8643L3.5095 13.7538C3.4688 13.747 3.42715 13.7483 3.38695 13.7576C3.34675 13.7669 3.30879 13.7841 3.27527 13.8082C3.24175 13.8323 3.21333 13.8628 3.19165 13.8979C3.16996 13.933 3.15545 13.972 3.14893 14.0128C3.14242 14.0536 3.14405 14.0952 3.15371 14.1353C3.16337 14.1754 3.18088 14.2133 3.20523 14.2466C3.22958 14.2799 3.26029 14.3081 3.29558 14.3295C3.33087 14.3508 3.37005 14.365 3.41086 14.3712L4.11436 14.4817ZM5.39589 15.4175C5.31344 15.4054 5.22955 15.4265 5.16265 15.4762C5.09576 15.5259 5.05134 15.6001 5.03917 15.6826L4.91845 16.5183C4.91272 16.5591 4.9151 16.6006 4.92544 16.6404C4.93578 16.6803 4.95389 16.7177 4.97872 16.7505C5.00355 16.7834 5.03462 16.811 5.07015 16.8318C5.10568 16.8526 5.14496 16.8662 5.18575 16.8718C5.20069 16.8739 5.21575 16.875 5.23084 16.875C5.30634 16.8752 5.37937 16.8482 5.4366 16.7989C5.49382 16.7497 5.5314 16.6815 5.54247 16.6068L5.6632 15.7711C5.66893 15.7303 5.66655 15.6888 5.65621 15.6489C5.64586 15.6091 5.62776 15.5716 5.60293 15.5388C5.57809 15.506 5.54702 15.4783 5.5115 15.4575C5.47597 15.4367 5.43669 15.4231 5.39589 15.4175Z" fill="#C4C810"/>
</g>
<g id="Vector_2" filter="url(#filter3_d_448_2777)">
<path d="M16.5396 8.84277C16.5396 5.34531 13.6412 2.5 10.0786 2.5C6.51605 2.5 3.61768 5.34531 3.61768 8.84277C3.61928 10.3724 4.1797 11.8487 5.19352 12.9941L5.31456 13.1311C6.25213 14.1913 7.31483 15.3929 7.51781 16.767C7.54936 16.9706 7.65256 17.1564 7.80883 17.2907C7.9651 17.4251 8.16419 17.4993 8.37029 17.5H11.7864C11.9928 17.4994 12.1922 17.4251 12.3486 17.2903C12.505 17.1556 12.608 16.9694 12.6391 16.7653C12.7979 15.6747 13.4862 14.5187 14.7435 13.2312C15.8952 12.061 16.5403 10.4847 16.5396 8.84277ZM12.0152 16.676C12.0071 16.731 11.9795 16.7813 11.9376 16.8178C11.8956 16.8543 11.842 16.8746 11.7864 16.875H8.37029C8.31475 16.8745 8.2612 16.8543 8.21927 16.8179C8.17734 16.7814 8.14977 16.7313 8.14152 16.6763C7.91146 15.1196 6.7836 13.8443 5.78854 12.719L5.66788 12.5824C4.75448 11.5507 4.24954 10.2207 4.24801 8.84278C4.24801 5.69 6.86361 3.125 10.0786 3.125C13.2937 3.125 15.9092 5.69 15.9092 8.84277C15.9098 10.322 15.3285 11.7421 14.2908 12.7963C12.9379 14.1818 12.1937 15.4507 12.0152 16.676Z" fill="#F1F1F1"/>
</g>
<path id="Vector_3" d="M7.94721 10.3285L7.88888 10.2637C7.47436 9.80609 7.24406 9.21116 7.24246 8.59374C7.24246 7.61199 7.81447 6.78497 8.77267 6.38137C8.81064 6.36556 8.84511 6.34238 8.87408 6.31317C8.90305 6.28396 8.92595 6.24931 8.94146 6.21121C8.95697 6.1731 8.96478 6.13231 8.96445 6.09117C8.96411 6.05003 8.95563 6.00937 8.93949 5.97153C8.90633 5.89502 8.84429 5.83472 8.76687 5.80374C8.68945 5.77276 8.60293 5.77361 8.52615 5.80612C7.34557 6.3034 6.61212 7.37167 6.61212 8.59374C6.61376 9.3648 6.90099 10.1079 7.41835 10.6796L7.47714 10.7449C7.91634 11.2323 8.4141 11.7848 8.50521 12.3898C8.51666 12.4641 8.55436 12.5319 8.61148 12.5807C8.6686 12.6296 8.74135 12.6564 8.81653 12.6562C8.83223 12.6563 8.84792 12.6551 8.86347 12.6529C8.90423 12.647 8.94343 12.6332 8.97884 12.6122C9.01424 12.5911 9.04514 12.5633 9.06977 12.5303C9.09441 12.4973 9.11228 12.4598 9.12238 12.4199C9.13248 12.3799 9.1346 12.3384 9.12862 12.2977C9.00974 11.5077 8.44527 10.8813 7.94721 10.3285ZM11.6548 18.125H8.50313C8.46187 18.1246 8.42095 18.1325 8.38274 18.148C8.34452 18.1636 8.30976 18.1865 8.28046 18.2156C8.25117 18.2446 8.22791 18.2792 8.21204 18.3173C8.19618 18.3554 8.188 18.3962 8.188 18.4375C8.188 18.4788 8.19618 18.5196 8.21204 18.5577C8.22791 18.5958 8.25117 18.6303 8.28046 18.6594C8.30976 18.6884 8.34452 18.7114 8.38274 18.727C8.42095 18.7425 8.46187 18.7503 8.50313 18.75H11.6548C11.6961 18.7503 11.737 18.7425 11.7752 18.727C11.8134 18.7114 11.8482 18.6884 11.8775 18.6594C11.9068 18.6303 11.93 18.5958 11.9459 18.5577C11.9618 18.5196 11.9699 18.4788 11.9699 18.4375C11.9699 18.3962 11.9618 18.3554 11.9459 18.3173C11.93 18.2792 11.9068 18.2446 11.8775 18.2156C11.8482 18.1865 11.8134 18.1636 11.7752 18.148C11.737 18.1325 11.6961 18.1246 11.6548 18.125ZM11.0245 19.375H9.13347C9.09221 19.3746 9.05129 19.3825 9.01308 19.398C8.97486 19.4136 8.9401 19.4365 8.9108 19.4656C8.88151 19.4946 8.85825 19.5292 8.84238 19.5673C8.82652 19.6054 8.81835 19.6462 8.81835 19.6875C8.81835 19.7288 8.82652 19.7696 8.84238 19.8077C8.85825 19.8458 8.88151 19.8803 8.9108 19.9094C8.9401 19.9384 8.97486 19.9614 9.01308 19.977C9.05129 19.9925 9.09221 20.0003 9.13347 20H11.0245C11.0657 20.0003 11.1067 19.9925 11.1449 19.977C11.1831 19.9614 11.2178 19.9384 11.2471 19.9094C11.2764 19.8803 11.2997 19.8458 11.3156 19.8077C11.3314 19.7696 11.3396 19.7288 11.3396 19.6875C11.3396 19.6462 11.3314 19.6054 11.3156 19.5673C11.2997 19.5292 11.2764 19.4946 11.2471 19.4656C11.2178 19.4365 11.1831 19.4136 11.1449 19.398C11.1067 19.3825 11.0657 19.3746 11.0245 19.375ZM9.92139 1.86019C10.0046 1.86054 10.0846 1.82782 10.1437 1.76921C10.2028 1.71061 10.2362 1.63093 10.2366 1.54769V0.312494C10.2359 0.229361 10.2024 0.149868 10.1433 0.091327C10.0843 0.0327861 10.0045 -6.10352e-05 9.92139 -6.10352e-05C9.83825 -6.10352e-05 9.75848 0.0327861 9.69945 0.091327C9.64042 0.149868 9.60691 0.229361 9.60622 0.312494V1.54769C9.60658 1.63093 9.63998 1.71061 9.69909 1.76921C9.75819 1.82781 9.83815 1.86054 9.92139 1.86019ZM6.71816 2.15835C6.74747 2.2364 6.80645 2.29968 6.88224 2.33441C6.95803 2.36914 7.04448 2.3725 7.12274 2.34374C7.16145 2.32981 7.19701 2.30835 7.22739 2.28061C7.25777 2.25287 7.28236 2.21938 7.29974 2.1821C7.31712 2.14481 7.32695 2.10445 7.32866 2.06334C7.33037 2.02223 7.32393 1.9812 7.30971 1.94259L6.87896 0.781855C6.84966 0.703799 6.79068 0.640498 6.71488 0.605766C6.63909 0.571033 6.55263 0.567689 6.47438 0.596462C6.43567 0.610397 6.4001 0.631854 6.36973 0.659598C6.33935 0.687342 6.31476 0.720823 6.29738 0.758112C6.28 0.795402 6.27017 0.835762 6.26846 0.876867C6.26675 0.917973 6.27319 0.95901 6.28741 0.997615L6.71816 2.15835ZM4.21681 3.70055C4.27121 3.7638 4.34834 3.80306 4.43149 3.80983C4.51464 3.8166 4.5971 3.79033 4.66102 3.73672C4.69254 3.71033 4.71852 3.67794 4.73744 3.64144C4.75636 3.60493 4.76784 3.56504 4.77123 3.52406C4.77462 3.48309 4.76984 3.44185 4.75717 3.40273C4.7445 3.36362 4.72419 3.32741 4.69742 3.2962L3.88787 2.34999C3.83344 2.2868 3.75631 2.24757 3.67318 2.2408C3.59005 2.23403 3.5076 2.26027 3.44366 2.31383C3.41213 2.34022 3.38616 2.37261 3.36724 2.40911C3.34832 2.44562 3.33684 2.48551 3.33345 2.52649C3.33006 2.56746 3.33484 2.6087 3.34751 2.64782C3.36018 2.68693 3.38049 2.72314 3.40726 2.75435L4.21681 3.70055ZM3.03055 5.44525L1.93985 4.82757C1.86729 4.78653 1.78148 4.77572 1.70101 4.79748C1.62053 4.81924 1.55187 4.87182 1.50988 4.94384C1.48937 4.97949 1.47614 5.01885 1.47095 5.05964C1.46575 5.10044 1.4687 5.14186 1.47962 5.18151C1.49054 5.22116 1.50922 5.25824 1.53456 5.29063C1.55991 5.32301 1.59143 5.35005 1.62729 5.37017L2.71799 5.98785C2.79053 6.02898 2.87637 6.03983 2.95687 6.01807C3.03737 5.9963 3.10603 5.94366 3.14796 5.87158C3.16847 5.83593 3.1817 5.79657 3.18689 5.75577C3.19209 5.71498 3.18914 5.67356 3.17822 5.63391C3.1673 5.59426 3.14862 5.55717 3.12328 5.52479C3.09793 5.4924 3.06641 5.46537 3.03055 5.44525ZM2.39113 8.12957L1.15084 7.91504C1.1103 7.90766 1.06869 7.90838 1.02842 7.91714C0.988154 7.9259 0.950013 7.94253 0.916195 7.96608C0.882377 7.98964 0.853549 8.01964 0.831369 8.05438C0.809189 8.08911 0.794095 8.12789 0.786955 8.16848C0.779815 8.20907 0.780769 8.25067 0.789764 8.29088C0.798758 8.3311 0.815615 8.36915 0.839365 8.40283C0.863114 8.43651 0.893288 8.46516 0.928151 8.48714C0.963014 8.50911 1.00188 8.52398 1.04251 8.53089L2.28279 8.74542C2.30082 8.74844 2.31907 8.74997 2.33735 8.74999C2.41593 8.75059 2.49185 8.72155 2.54997 8.66866C2.60808 8.61577 2.64413 8.54292 2.65092 8.46463C2.6577 8.38634 2.63473 8.30837 2.58658 8.24627C2.53843 8.18417 2.46864 8.1425 2.39113 8.12957ZM19.2142 8.16924C19.1993 8.08731 19.1526 8.01462 19.0842 7.96699C19.0159 7.91937 18.9316 7.90069 18.8495 7.91503L17.6093 8.12956C17.5318 8.14246 17.4619 8.18413 17.4138 8.24625C17.3656 8.30837 17.3426 8.38636 17.3494 8.46468C17.3562 8.54299 17.3923 8.61586 17.4505 8.66875C17.5086 8.72163 17.5846 8.75064 17.6632 8.74999C17.6814 8.74997 17.6996 8.74844 17.7176 8.74542L18.9579 8.53088C18.9985 8.52403 19.0373 8.50922 19.0722 8.48733C19.1071 8.46543 19.1373 8.43686 19.1611 8.40327C19.1849 8.36967 19.2019 8.33171 19.211 8.29155C19.2201 8.25139 19.2212 8.20983 19.2142 8.16924ZM18.3327 4.94384C18.2908 4.87173 18.2222 4.81906 18.1417 4.79729C18.0612 4.77552 17.9753 4.7864 17.9028 4.82757L16.8122 5.44525C16.7763 5.46538 16.7448 5.49243 16.7195 5.52482C16.6941 5.55721 16.6755 5.5943 16.6646 5.63395C16.6537 5.67359 16.6507 5.71501 16.6559 5.7558C16.6611 5.79658 16.6744 5.83594 16.6949 5.87158C16.7368 5.94366 16.8055 5.9963 16.886 6.01807C16.9665 6.03983 17.0523 6.02898 17.1249 5.98785L18.2155 5.37017C18.2513 5.35003 18.2828 5.32299 18.3082 5.2906C18.3335 5.25821 18.3522 5.22112 18.3631 5.18147C18.374 5.14182 18.3769 5.10041 18.3717 5.05962C18.3665 5.01883 18.3533 4.97948 18.3327 4.94384ZM15.3854 3.81088C15.4311 3.81098 15.4763 3.80117 15.5178 3.78212C15.5593 3.76308 15.5962 3.73525 15.626 3.70056L16.4356 2.75436C16.4623 2.72313 16.4826 2.68692 16.4952 2.6478C16.5079 2.60869 16.5127 2.56746 16.5093 2.52649C16.5059 2.48552 16.4944 2.44563 16.4755 2.40913C16.4566 2.37263 16.4306 2.34024 16.3991 2.31384C16.3352 2.26024 16.2527 2.23398 16.1695 2.24075C16.0864 2.24752 16.0093 2.28677 15.9548 2.35L15.1452 3.2962C15.1185 3.32742 15.0982 3.36364 15.0855 3.40275C15.0729 3.44187 15.0681 3.4831 15.0715 3.52407C15.0749 3.56504 15.0864 3.60492 15.1053 3.64143C15.1242 3.67793 15.1502 3.71032 15.1817 3.73672C15.2387 3.78469 15.3109 3.81095 15.3854 3.81088ZM12.7201 2.34374C12.7983 2.3725 12.8848 2.36914 12.9605 2.33441C13.0363 2.29968 13.0953 2.2364 13.1246 2.15835L13.5554 0.997615C13.5696 0.959011 13.5761 0.91797 13.5744 0.876859C13.5727 0.835748 13.5628 0.795381 13.5454 0.758087C13.5281 0.720793 13.5035 0.68731 13.4731 0.65957C13.4427 0.63183 13.4071 0.610381 13.3684 0.596462C13.2901 0.567729 13.2037 0.571093 13.1279 0.60582C13.0521 0.640548 12.9931 0.703823 12.9638 0.781855L12.5331 1.94259C12.5188 1.9812 12.5124 2.02224 12.5141 2.06335C12.5158 2.10446 12.5256 2.14483 12.543 2.18212C12.5604 2.21941 12.585 2.2529 12.6154 2.28064C12.6457 2.30838 12.6813 2.32983 12.7201 2.34374Z" fill="#F1F1F1"/>
</g>
<defs>
<filter id="filter0_d_448_2777" x="-0.85498" y="13.7495" width="21.8672" height="11.1255" filterUnits="userSpaceOnUse" color-interpolation-filters="sRGB">
<feFlood flood-opacity="0" result="BackgroundImageFix"/>
<feColorMatrix in="SourceAlpha" type="matrix" values="0 0 0 0 0 0 0 0 0 0 0 0 0 0 0 0 0 0 127 0" result="hardAlpha"/>
<feOffset dy="4"/>
<feGaussianBlur stdDeviation="2"/>
<feComposite in2="hardAlpha" operator="out"/>
<feColorMatrix type="matrix" values="0 0 0 0 0 0 0 0 0 0 0 0 0 0 0 0 0 0 0.25 0"/>
<feBlend mode="normal" in2="BackgroundImageFix" result="effect1_dropShadow_448_2777"/>
<feBlend mode="normal" in="SourceGraphic" in2="effect1_dropShadow_448_2777" result="shape"/>
</filter>
<filter id="filter1_d_448_2777" x="10.4917" y="13.7495" width="10.521" height="11.1255" filterUnits="userSpaceOnUse" color-interpolation-filters="sRGB">
<feFlood flood-opacity="0" result="BackgroundImageFix"/>
<feColorMatrix in="SourceAlpha" type="matrix" values="0 0 0 0 0 0 0 0 0 0 0 0 0 0 0 0 0 0 127 0" result="hardAlpha"/>
<feOffset dy="4"/>
<feGaussianBlur stdDeviation="2"/>
<feComposite in2="hardAlpha" operator="out"/>
<feColorMatrix type="matrix" values="0 0 0 0 0 0 0 0 0 0 0 0 0 0 0 0 0 0 0.25 0"/>
<feBlend mode="normal" in2="BackgroundImageFix" result="effect1_dropShadow_448_2777"/>
<feBlend mode="normal" in="SourceGraphic" in2="effect1_dropShadow_448_2777" result="shape"/>
</filter>
<filter id="filter2_d_448_2777" x="-0.85498" y="13.7495" width="10.521" height="11.1255" filterUnits="userSpaceOnUse" color-interpolation-filters="sRGB">
<feFlood flood-opacity="0" result="BackgroundImageFix"/>
<feColorMatrix in="SourceAlpha" type="matrix" values="0 0 0 0 0 0 0 0 0 0 0 0 0 0 0 0 0 0 127 0" result="hardAlpha"/>
<feOffset dy="4"/>
<feGaussianBlur stdDeviation="2"/>
<feComposite in2="hardAlpha" operator="out"/>
<feColorMatrix type="matrix" values="0 0 0 0 0 0 0 0 0 0 0 0 0 0 0 0 0 0 0.25 0"/>
<feBlend mode="normal" in2="BackgroundImageFix" result="effect1_dropShadow_448_2777"/>
<feBlend mode="normal" in="SourceGraphic" in2="effect1_dropShadow_448_2777" result="shape"/>
</filter>
<filter id="filter3_d_448_2777" x="-0.382324" y="2.5" width="20.9219" height="23" filterUnits="userSpaceOnUse" color-interpolation-filters="sRGB">
<feFlood flood-opacity="0" result="BackgroundImageFix"/>
<feColorMatrix in="SourceAlpha" type="matrix" values="0 0 0 0 0 0 0 0 0 0 0 0 0 0 0 0 0 0 127 0" result="hardAlpha"/>
<feOffset dy="4"/>
<feGaussianBlur stdDeviation="2"/>
<feComposite in2="hardAlpha" operator="out"/>
<feColorMatrix type="matrix" values="0 0 0 0 0 0 0 0 0 0 0 0 0 0 0 0 0 0 0.25 0"/>
<feBlend mode="normal" in2="BackgroundImageFix" result="effect1_dropShadow_448_2777"/>
<feBlend mode="normal" in="SourceGraphic" in2="effect1_dropShadow_448_2777" result="shape"/>
</filter>
<clipPath id="clip0_448_2777">
<rect width="20" height="20" fill="white"/>
</clipPath>
</defs>
</svg>
