<svg width="30" height="30" viewBox="0 0 30 30" fill="none" xmlns="http://www.w3.org/2000/svg">
<g id="Light Bulb" clip-path="url(#clip0_448_2832)">
<g id="Light Bot W" filter="url(#filter0_d_448_2832)">
<path d="M23.236 17.7347C23.1453 17.7032 23.0457 17.7087 22.9591 17.7501C22.8724 17.7915 22.8055 17.8654 22.773 17.9558C22.757 18.0004 22.75 18.0476 22.7524 18.0949C22.7548 18.1422 22.7666 18.1885 22.787 18.2312C22.8074 18.2739 22.8362 18.3121 22.8715 18.3436C22.9068 18.3751 22.9481 18.3993 22.9928 18.4147L24.4526 18.9233C24.5434 18.9548 24.6429 18.9492 24.7295 18.9078C24.8162 18.8664 24.8831 18.7925 24.9156 18.7021C24.9316 18.6576 24.9387 18.6103 24.9362 18.563C24.9338 18.5158 24.9221 18.4694 24.9016 18.4267C24.8812 18.3841 24.8525 18.3459 24.8171 18.3144C24.7818 18.2829 24.7406 18.2587 24.6958 18.2432L23.236 17.7347ZM23.712 16.17L23.0071 16.589C22.9286 16.6349 22.8705 16.709 22.8444 16.7961C22.8183 16.8832 22.8261 16.977 22.8664 17.0586C22.9067 17.1401 22.9764 17.2034 23.0615 17.2356C23.1466 17.2678 23.2407 17.2666 23.3249 17.2321C23.3427 17.225 23.3599 17.2166 23.3764 17.2068L24.0812 16.7879C24.1222 16.7638 24.158 16.7319 24.1866 16.694C24.2152 16.656 24.236 16.6128 24.2478 16.5668C24.2595 16.5208 24.2621 16.4729 24.2553 16.4258C24.2485 16.3788 24.2324 16.3336 24.208 16.2928C24.1837 16.2521 24.1515 16.2165 24.1133 16.1882C24.0751 16.16 24.0317 16.1395 23.9856 16.1281C23.9395 16.1167 23.8916 16.1145 23.8446 16.1217C23.7976 16.1289 23.7526 16.1453 23.712 16.17ZM22.9013 18.8857C22.8529 18.8032 22.7738 18.7431 22.6813 18.7185C22.5888 18.6939 22.4904 18.7069 22.4074 18.7547C22.3245 18.8024 22.2637 18.8809 22.2384 18.9732C22.2131 19.0655 22.2253 19.1641 22.2723 19.2474L22.7588 20.0891C22.8026 20.1642 22.8719 20.221 22.9541 20.2492C23.0362 20.2773 23.1258 20.275 23.2064 20.2426C23.2226 20.2361 23.2383 20.2285 23.2534 20.2198C23.2946 20.1963 23.3308 20.165 23.3599 20.1275C23.389 20.0901 23.4103 20.0473 23.4228 20.0015C23.4353 19.9558 23.4386 19.908 23.4326 19.861C23.4266 19.814 23.4114 19.7686 23.3878 19.7275L22.9013 18.8857ZM11.5789 22.4335C11.493 22.3903 11.3935 22.3829 11.3022 22.4127C11.2108 22.4425 11.1349 22.5072 11.091 22.5927L10.3845 23.9677C10.3628 24.0098 10.3497 24.0557 10.3458 24.1029C10.342 24.1501 10.3476 24.1975 10.3622 24.2425C10.3768 24.2875 10.4003 24.3292 10.4311 24.3651C10.462 24.401 10.4996 24.4304 10.5419 24.4516C10.6278 24.4946 10.7272 24.502 10.8186 24.4722C10.9099 24.4424 10.9858 24.3778 11.0298 24.2924L11.7363 22.9173C11.758 22.8753 11.7711 22.8293 11.775 22.7822C11.7788 22.735 11.7732 22.6875 11.7586 22.6425C11.744 22.5975 11.7205 22.5559 11.6897 22.52C11.6588 22.4841 11.6212 22.4547 11.5789 22.4335ZM10.6251 22.3073C10.6438 22.303 10.6621 22.2973 10.6799 22.2901C10.7646 22.257 10.8336 22.193 10.873 22.111C10.9124 22.029 10.9193 21.9352 10.8922 21.8483C10.8652 21.7615 10.8062 21.6881 10.7273 21.643C10.6483 21.5979 10.5552 21.5844 10.4666 21.6052L9.66735 21.7879C9.62091 21.798 9.57694 21.8172 9.53795 21.8443C9.49897 21.8715 9.46575 21.9061 9.44021 21.9462C9.41467 21.9862 9.39732 22.031 9.38916 22.0778C9.38099 22.1246 9.38218 22.1725 9.39264 22.2189C9.40311 22.2652 9.42265 22.3091 9.45013 22.3478C9.47762 22.3866 9.5125 22.4195 9.55278 22.4447C9.59306 22.4699 9.63793 22.4869 9.6848 22.4947C9.73168 22.5025 9.77962 22.5009 9.82588 22.49L10.6251 22.3073ZM12.3952 22.7597C12.3019 22.782 12.2212 22.8404 12.171 22.9221C12.1207 23.0039 12.105 23.1022 12.1272 23.1956L12.3555 24.1405C12.3668 24.1866 12.3871 24.2299 12.4152 24.2681C12.4433 24.3063 12.4787 24.3386 12.5192 24.363C12.5598 24.3875 12.6049 24.4038 12.6517 24.4108C12.6986 24.4179 12.7464 24.4156 12.7924 24.4042C12.8093 24.4001 12.8259 24.3948 12.842 24.3883C12.9228 24.3562 12.9893 24.2961 13.0294 24.219C13.0695 24.1419 13.0805 24.0529 13.0604 23.9683L12.8321 23.0233C12.8208 22.9773 12.8005 22.934 12.7724 22.8958C12.7443 22.8576 12.709 22.8253 12.6684 22.8008C12.6278 22.7763 12.5828 22.7601 12.5359 22.753C12.489 22.746 12.4412 22.7483 12.3952 22.7597Z" fill="#F1F1F1"/>
</g>
<g id="Vector" filter="url(#filter1_d_448_2832)">
<path d="M21.4959 10.9666C20.0004 7.22795 15.6855 5.42571 11.8773 6.94902C8.06898 8.47233 6.18732 12.7532 7.68279 16.4919C8.33855 18.1263 9.56887 19.4648 11.1424 20.2557L11.3303 20.3504C12.7859 21.0828 14.4357 21.9129 15.2402 23.2949C15.361 23.4992 15.5507 23.6536 15.7752 23.7304C15.9997 23.8072 16.2443 23.8014 16.4649 23.714L20.1166 22.2533C20.337 22.1645 20.5184 21.9997 20.6279 21.7888C20.7375 21.5779 20.768 21.3348 20.7139 21.1034C20.4174 19.8697 20.6589 18.3396 21.4524 16.4257C22.1831 14.6823 22.1987 12.7214 21.4959 10.9666ZM20.0089 21.2747C20.0237 21.337 20.0158 21.4025 19.9865 21.4595C19.9573 21.5164 19.9086 21.561 19.8493 21.5852L16.1977 23.0459C16.1381 23.0691 16.0722 23.0704 16.0118 23.0494C15.9514 23.0284 15.9005 22.9865 15.8682 22.9313C14.9566 21.3657 13.2056 20.4846 11.6608 19.7072L11.4734 19.6128C10.0559 18.9004 8.94743 17.6947 8.3566 16.2223C7.00852 12.8521 8.70775 8.99182 12.1445 7.61713C15.5813 6.2424 19.474 7.86594 20.8221 11.2361C21.4552 12.8172 21.441 14.5838 20.7825 16.1544C19.9287 18.2139 19.6758 19.8886 20.0089 21.2747Z" fill="#F1F1F1"/>
</g>
<path id="Vector_2" d="M12.9461 16.229L12.856 16.1846C12.2173 15.8727 11.7167 15.3352 11.451 14.6759C11.0312 13.6264 11.289 12.4978 12.1407 11.6566C12.1746 11.6235 12.2015 11.584 12.22 11.5404C12.2385 11.4968 12.2481 11.4499 12.2484 11.4026C12.2487 11.3552 12.2396 11.3083 12.2217 11.2644C12.2037 11.2206 12.1773 11.1808 12.1438 11.1472C12.0757 11.0796 11.9836 11.0417 11.8876 11.0417C11.7916 11.0416 11.6994 11.0795 11.6313 11.1471C10.5819 12.1835 10.2546 13.6391 10.7772 14.9454C11.1086 15.769 11.7334 16.4405 12.5309 16.8304L12.6217 16.8751C13.2996 17.2083 14.0679 17.5861 14.424 18.1939C14.468 18.2684 14.5373 18.3247 14.6192 18.3525C14.7012 18.3803 14.7904 18.3779 14.8707 18.3455C14.8875 18.3388 14.9038 18.3309 14.9194 18.3219C14.9605 18.2982 14.9965 18.2666 15.0253 18.229C15.0542 18.1914 15.0753 18.1484 15.0875 18.1026C15.0998 18.0568 15.1028 18.009 15.0966 17.9621C15.0903 17.9151 15.0748 17.8698 15.051 17.8288C14.5861 17.0352 13.7149 16.607 12.9461 16.229ZM20.2431 22.9778L16.874 24.3255C16.8298 24.3427 16.7894 24.3686 16.7552 24.4016C16.721 24.4345 16.6936 24.4739 16.6748 24.5175C16.6559 24.5611 16.6458 24.608 16.6451 24.6555C16.6444 24.703 16.6532 24.7501 16.6708 24.7943C16.6884 24.8384 16.7146 24.8785 16.7479 24.9125C16.7811 24.9464 16.8208 24.9734 16.8645 24.9919C16.9083 25.0105 16.9552 25.0201 17.0027 25.0204C17.0502 25.0207 17.0973 25.0116 17.1413 24.9936L20.5103 23.6459C20.5546 23.6287 20.595 23.6028 20.6292 23.5698C20.6634 23.5369 20.6907 23.4975 20.7096 23.4539C20.7285 23.4103 20.7386 23.3634 20.7393 23.3159C20.7399 23.2684 20.7312 23.2213 20.7136 23.1771C20.6959 23.133 20.6697 23.0929 20.6365 23.0589C20.6032 23.025 20.5636 22.998 20.5199 22.9795C20.4761 22.9609 20.4291 22.9513 20.3816 22.951C20.3341 22.9507 20.287 22.9598 20.2431 22.9778ZM20.1038 24.5836L18.0823 25.3921C18.0381 25.4094 17.9977 25.4353 17.9635 25.4682C17.9293 25.5012 17.9019 25.5406 17.8831 25.5842C17.8642 25.6278 17.8541 25.6747 17.8534 25.7222C17.8527 25.7697 17.8615 25.8168 17.8791 25.8609C17.8967 25.905 17.9229 25.9452 17.9562 25.9791C17.9894 26.0131 18.0291 26.0401 18.0728 26.0586C18.1166 26.0771 18.1635 26.0868 18.211 26.0871C18.2585 26.0874 18.3056 26.0783 18.3496 26.0602L20.371 25.2517C20.4152 25.2344 20.4556 25.2085 20.4898 25.1756C20.5241 25.1426 20.5514 25.1032 20.5703 25.0596C20.5892 25.016 20.5993 24.9691 20.5999 24.9216C20.6006 24.8741 20.5919 24.827 20.5742 24.7829C20.5566 24.7388 20.5304 24.6986 20.4971 24.6647C20.4639 24.6307 20.4243 24.6037 20.3805 24.5852C20.3368 24.5667 20.2898 24.557 20.2423 24.5567C20.1948 24.5564 20.1477 24.5656 20.1038 24.5836ZM11.4355 6.33248C11.5246 6.29726 11.5961 6.22809 11.6342 6.14017C11.6723 6.05225 11.674 5.95279 11.6388 5.86366L11.1106 4.54327C11.0743 4.4547 11.0045 4.38406 10.9164 4.34672C10.8283 4.30938 10.7289 4.30838 10.6401 4.34392C10.5512 4.37947 10.48 4.44869 10.4419 4.53651C10.4038 4.62433 10.402 4.72364 10.4368 4.8128L10.965 6.13319C11.0009 6.22201 11.0707 6.2929 11.159 6.33027C11.2472 6.36764 11.3467 6.36844 11.4355 6.33248ZM8.13883 8.02086C8.20354 8.09175 8.29365 8.13418 8.38952 8.1389C8.48539 8.14362 8.57923 8.11024 8.65059 8.04604C8.68601 8.0146 8.71486 7.97645 8.73547 7.9338C8.75608 7.89116 8.76805 7.84485 8.77068 7.79756C8.77332 7.75027 8.76657 7.70292 8.75082 7.65825C8.73507 7.61358 8.71064 7.57246 8.67893 7.53727L7.72215 6.48067C7.65746 6.40976 7.56734 6.36731 7.47147 6.36259C7.3756 6.35787 7.28175 6.39127 7.2104 6.45548C7.17498 6.48693 7.14614 6.52508 7.12553 6.56772C7.10491 6.61037 7.09295 6.65667 7.09031 6.70397C7.08768 6.75126 7.09443 6.7986 7.11018 6.84328C7.12592 6.88795 7.15036 6.92906 7.18207 6.96425L8.13883 8.02086ZM6.1244 10.739C6.2096 10.7833 6.30884 10.7923 6.40061 10.764C6.49239 10.7357 6.56931 10.6723 6.61471 10.5877C6.63712 10.546 6.65104 10.5003 6.65566 10.4532C6.66027 10.406 6.65549 10.3585 6.64159 10.3132C6.62769 10.268 6.60495 10.2259 6.57468 10.1896C6.54441 10.1532 6.50722 10.1231 6.46526 10.1012L5.19529 9.43591C5.11008 9.39163 5.01086 9.38268 4.91911 9.41099C4.82735 9.4393 4.75043 9.5026 4.70498 9.58719C4.68257 9.62888 4.66865 9.67461 4.66403 9.72172C4.65942 9.76883 4.6642 9.81639 4.6781 9.86164C4.692 9.90689 4.71474 9.94893 4.74501 9.98532C4.77528 10.0217 4.81247 10.0517 4.85443 10.0737L6.1244 10.739ZM5.60233 13.1112L4.1723 12.9173C4.07718 12.9045 3.98084 12.9296 3.90412 12.9873C3.8274 13.0449 3.77648 13.1305 3.76239 13.2254C3.75571 13.2723 3.7584 13.3201 3.77029 13.3659C3.78218 13.4117 3.80304 13.4547 3.83167 13.4924C3.86029 13.5302 3.89611 13.5618 3.93706 13.5856C3.978 13.6094 4.02325 13.6248 4.07019 13.631L5.50023 13.8249C5.59536 13.8378 5.69176 13.8127 5.7685 13.755C5.84524 13.6974 5.89614 13.6117 5.91014 13.5167C5.91681 13.4699 5.91413 13.4221 5.90223 13.3763C5.89034 13.3305 5.86948 13.2875 5.84085 13.2497C5.81223 13.212 5.77641 13.1804 5.73547 13.1566C5.69452 13.1328 5.64927 13.1174 5.60233 13.1112ZM6.06659 16.2541L4.64904 16.5551C4.60254 16.5645 4.55837 16.5831 4.51907 16.6097C4.47977 16.6363 4.44611 16.6703 4.42003 16.71C4.39395 16.7496 4.37597 16.794 4.36711 16.8406C4.35825 16.8872 4.3587 16.9352 4.36842 16.9816C4.37814 17.028 4.39695 17.0721 4.42376 17.1112C4.45057 17.1504 4.48486 17.1838 4.52465 17.2097C4.56444 17.2355 4.60894 17.2533 4.65561 17.2619C4.70227 17.2704 4.75017 17.2697 4.79656 17.2597L6.21411 16.9587C6.23468 16.9542 6.25484 16.9481 6.27439 16.9403C6.35865 16.9073 6.42738 16.8438 6.46689 16.7624C6.5064 16.681 6.51379 16.5878 6.48756 16.5012C6.46134 16.4146 6.40345 16.3411 6.32542 16.2953C6.2474 16.2495 6.15498 16.2348 6.06659 16.2541ZM24.0669 9.10315C24.0159 9.02196 23.9349 8.96422 23.8415 8.94253C23.7481 8.92084 23.6499 8.93695 23.5683 8.98735L22.3343 9.74697C22.257 9.79392 22.2001 9.86832 22.1752 9.95532C22.1503 10.0423 22.1591 10.1355 22.1998 10.2163C22.2406 10.2971 22.3103 10.3596 22.3951 10.3913C22.4799 10.4229 22.5735 10.4215 22.6572 10.3872C22.6767 10.3793 22.6955 10.3699 22.7135 10.359L23.9475 9.59936C23.988 9.57466 24.0232 9.54223 24.0511 9.50391C24.079 9.46559 24.0991 9.42213 24.1102 9.37604C24.1213 9.32994 24.1232 9.28211 24.1157 9.23528C24.1083 9.18846 24.0917 9.14355 24.0669 9.10315ZM21.7455 6.03221C21.6699 5.97304 21.574 5.9461 21.4786 5.95725C21.3832 5.9684 21.2961 6.01674 21.2362 6.09177L20.3344 7.21838C20.3047 7.25524 20.2826 7.29762 20.2694 7.34307C20.2562 7.38853 20.2521 7.43615 20.2574 7.4832C20.2627 7.53024 20.2772 7.57577 20.3002 7.61714C20.3232 7.65852 20.3542 7.69493 20.3914 7.72426C20.467 7.78338 20.5629 7.81029 20.6583 7.79914C20.7536 7.78799 20.8408 7.73968 20.9007 7.6647L21.8025 6.53808C21.8322 6.50123 21.8543 6.45885 21.8675 6.41339C21.8807 6.36794 21.8848 6.32031 21.8795 6.27327C21.8742 6.22622 21.8596 6.1807 21.8366 6.13932C21.8136 6.09794 21.7827 6.06154 21.7455 6.03221ZM18.1105 6.08134C18.1594 6.06192 18.2034 6.03212 18.2397 5.994C18.2759 5.95589 18.3035 5.91036 18.3204 5.86056L18.7813 4.50293C18.7965 4.45812 18.8027 4.41073 18.7995 4.36351C18.7963 4.31629 18.7838 4.27018 18.7626 4.22783C18.7415 4.18549 18.7122 4.14776 18.6763 4.11683C18.6405 4.08589 18.5989 4.06237 18.554 4.04762C18.4627 4.01766 18.3633 4.02485 18.2773 4.06765C18.1913 4.11044 18.1256 4.18538 18.0945 4.27625L17.6336 5.63388C17.6184 5.67869 17.6122 5.72608 17.6154 5.7733C17.6186 5.82052 17.6311 5.86663 17.6523 5.90898C17.6734 5.95132 17.7027 5.98905 17.7386 6.01998C17.7744 6.05092 17.816 6.07444 17.861 6.08919C17.9425 6.11607 18.0308 6.11329 18.1105 6.08134ZM14.6339 5.65271C14.7299 5.64998 14.8209 5.60943 14.887 5.5399C14.9532 5.47037 14.9892 5.37749 14.9871 5.28153L14.9513 3.85657C14.95 3.80921 14.9393 3.76258 14.9199 3.71936C14.9005 3.67614 14.8728 3.6372 14.8382 3.60476C14.8037 3.57233 14.7631 3.54705 14.7188 3.53039C14.6744 3.51373 14.6272 3.50602 14.5799 3.5077C14.4839 3.51044 14.393 3.551 14.3268 3.62053C14.2606 3.69005 14.2246 3.78292 14.2267 3.87887L14.2625 5.30384C14.2638 5.35119 14.2745 5.39782 14.2939 5.44104C14.3133 5.48426 14.341 5.52321 14.3756 5.55564C14.4101 5.58808 14.4507 5.61335 14.495 5.63001C14.5394 5.64667 14.5866 5.65438 14.6339 5.65271Z" fill="#F1F1F1"/>
</g>
<defs>
<filter id="filter0_d_448_2832" x="5.38379" y="16.1176" width="23.5527" height="16.3726" filterUnits="userSpaceOnUse" color-interpolation-filters="sRGB">
<feFlood flood-opacity="0" result="BackgroundImageFix"/>
<feColorMatrix in="SourceAlpha" type="matrix" values="0 0 0 0 0 0 0 0 0 0 0 0 0 0 0 0 0 0 127 0" result="hardAlpha"/>
<feOffset dy="4"/>
<feGaussianBlur stdDeviation="2"/>
<feComposite in2="hardAlpha" operator="out"/>
<feColorMatrix type="matrix" values="0 0 0 0 0 0 0 0 0 0 0 0 0 0 0 0 0 0 0.25 0"/>
<feBlend mode="normal" in2="BackgroundImageFix" result="effect1_dropShadow_448_2832"/>
<feBlend mode="normal" in="SourceGraphic" in2="effect1_dropShadow_448_2832" result="shape"/>
</filter>
<filter id="filter1_d_448_2832" x="3.16895" y="6.40768" width="22.8428" height="25.3764" filterUnits="userSpaceOnUse" color-interpolation-filters="sRGB">
<feFlood flood-opacity="0" result="BackgroundImageFix"/>
<feColorMatrix in="SourceAlpha" type="matrix" values="0 0 0 0 0 0 0 0 0 0 0 0 0 0 0 0 0 0 127 0" result="hardAlpha"/>
<feOffset dy="4"/>
<feGaussianBlur stdDeviation="2"/>
<feComposite in2="hardAlpha" operator="out"/>
<feColorMatrix type="matrix" values="0 0 0 0 0 0 0 0 0 0 0 0 0 0 0 0 0 0 0.25 0"/>
<feBlend mode="normal" in2="BackgroundImageFix" result="effect1_dropShadow_448_2832"/>
<feBlend mode="normal" in="SourceGraphic" in2="effect1_dropShadow_448_2832" result="shape"/>
</filter>
<clipPath id="clip0_448_2832">
<rect width="23.0263" height="23.0263" fill="white" transform="translate(0.034668 8.58615) rotate(-21.8014)"/>
</clipPath>
</defs>
</svg>
