<svg width="14" height="14" viewBox="0 0 14 14" fill="none" xmlns="http://www.w3.org/2000/svg">
<g id="Light Bulb" clip-path="url(#clip0_542_918)">
<g id="Light Bot W" filter="url(#filter0_d_542_918)">
<path d="M11.0316 10.4034C10.9875 10.3652 10.9301 10.3458 10.8718 10.3496C10.8135 10.3534 10.7591 10.3801 10.7203 10.4237C10.7012 10.4453 10.6866 10.4704 10.6773 10.4976C10.6679 10.5248 10.6641 10.5536 10.666 10.5824C10.6679 10.6111 10.6755 10.6391 10.6884 10.6649C10.7012 10.6906 10.719 10.7136 10.7408 10.7324L11.45 11.3491C11.4942 11.3874 11.5516 11.4067 11.6099 11.4029C11.6681 11.3991 11.7226 11.3725 11.7613 11.3289C11.7804 11.3073 11.7951 11.2822 11.8044 11.255C11.8137 11.2278 11.8175 11.1989 11.8156 11.1702C11.8137 11.1415 11.8061 11.1135 11.7933 11.0877C11.7805 11.0619 11.7627 11.039 11.7409 11.0202L11.0316 10.4034ZM11.6536 9.62766L11.1611 9.70499C11.1064 9.71322 11.0569 9.74186 11.0225 9.78516C10.9881 9.82845 10.9713 9.88318 10.9757 9.93831C10.98 9.99345 11.0051 10.0449 11.0458 10.0823C11.0866 10.1197 11.14 10.1402 11.1953 10.1398C11.2069 10.1398 11.2185 10.1389 11.2301 10.1372L11.7226 10.0598C11.7511 10.0555 11.7785 10.0456 11.8033 10.0306C11.828 10.0156 11.8494 9.99592 11.8665 9.9726C11.8835 9.94928 11.8958 9.92282 11.9026 9.89474C11.9093 9.86666 11.9105 9.83752 11.9059 9.80899C11.9014 9.78047 11.8912 9.75313 11.8761 9.72855C11.8609 9.70397 11.841 9.68263 11.8175 9.66578C11.7941 9.64892 11.7675 9.63687 11.7394 9.63033C11.7113 9.62379 11.6821 9.62288 11.6536 9.62766ZM10.5827 10.9777C10.5741 10.9201 10.543 10.8683 10.4964 10.8336C10.4497 10.7988 10.3912 10.7839 10.3336 10.7921C10.2759 10.8003 10.2239 10.831 10.1888 10.8774C10.1537 10.9238 10.1383 10.9821 10.146 11.0398L10.2306 11.6248C10.2383 11.6771 10.2646 11.7248 10.3047 11.7592C10.3447 11.7937 10.3958 11.8126 10.4486 11.8125C10.4592 11.8125 10.4698 11.8117 10.4803 11.8103C10.5089 11.8063 10.5364 11.7968 10.5612 11.7822C10.5861 11.7676 10.6078 11.7483 10.6252 11.7253C10.6426 11.7023 10.6553 11.6761 10.6625 11.6482C10.6697 11.6203 10.6713 11.5912 10.6673 11.5627L10.5827 10.9777ZM3.38999 10.4237C3.35124 10.38 3.29679 10.3533 3.23848 10.3495C3.18017 10.3457 3.12272 10.3651 3.07862 10.4034L2.36932 11.0202C2.34757 11.039 2.32977 11.062 2.31695 11.0877C2.30414 11.1135 2.29656 11.1415 2.29466 11.1702C2.29276 11.199 2.29658 11.2278 2.30589 11.255C2.3152 11.2822 2.32982 11.3073 2.3489 11.3289C2.3877 11.3725 2.44214 11.3991 2.50042 11.4029C2.55871 11.4067 2.61615 11.3874 2.66028 11.3491L3.36958 10.7324C3.39133 10.7136 3.40913 10.6906 3.42194 10.6649C3.43475 10.6391 3.44233 10.611 3.44423 10.5823C3.44613 10.5536 3.44231 10.5248 3.433 10.4976C3.42369 10.4704 3.40907 10.4453 3.38999 10.4237ZM2.88008 10.1372C2.89159 10.1389 2.90322 10.1398 2.91487 10.1398C2.97017 10.1402 3.02358 10.1197 3.06433 10.0823C3.10508 10.0449 3.13015 9.99349 3.13449 9.93836C3.13884 9.88323 3.12213 9.82851 3.08773 9.78521C3.05334 9.7419 3.00382 9.71324 2.94913 9.70499L2.45667 9.62767C2.42818 9.62287 2.39903 9.62377 2.37089 9.6303C2.34275 9.63683 2.31618 9.64887 2.29271 9.66572C2.26925 9.68258 2.24935 9.70391 2.23418 9.72849C2.219 9.75307 2.20884 9.78041 2.20428 9.80894C2.19972 9.83746 2.20086 9.86661 2.20762 9.8947C2.21438 9.92278 2.22664 9.94925 2.24369 9.97258C2.26073 9.9959 2.28223 10.0156 2.30693 10.0306C2.33164 10.0456 2.35906 10.0555 2.38763 10.0598L2.88008 10.1372ZM3.77715 10.7922C3.71944 10.7837 3.66071 10.7985 3.61388 10.8333C3.56705 10.8681 3.53596 10.9201 3.52745 10.9778L3.44294 11.5628C3.43893 11.5913 3.44059 11.6204 3.44783 11.6483C3.45507 11.6762 3.46775 11.7024 3.48513 11.7253C3.50251 11.7483 3.52426 11.7677 3.54913 11.7822C3.574 11.7968 3.6015 11.8063 3.63005 11.8103C3.64051 11.8117 3.65105 11.8125 3.66161 11.8125C3.71446 11.8126 3.76559 11.7937 3.80564 11.7592C3.8457 11.7247 3.872 11.677 3.87976 11.6247L3.96426 11.0397C3.96827 11.0112 3.96661 10.9821 3.95937 10.9542C3.95213 10.9263 3.93946 10.9001 3.92207 10.8771C3.90469 10.8541 3.88294 10.8348 3.85807 10.8202C3.8332 10.8057 3.8057 10.7962 3.77715 10.7922Z" fill="#F1F1F1"/>
</g>
<g id="Vector" filter="url(#filter1_d_542_918)">
<path d="M11.5778 6.18994C11.5778 3.74172 9.54894 1.75 7.05514 1.75C4.56133 1.75 2.53247 3.74172 2.53247 6.18994C2.53359 7.26067 2.92588 8.29409 3.63556 9.09586L3.72029 9.19178C4.37659 9.9339 5.12048 10.775 5.26257 11.7369C5.28465 11.8795 5.35689 12.0095 5.46628 12.1035C5.57567 12.1976 5.71503 12.2495 5.8593 12.25H8.25055C8.39504 12.2496 8.53464 12.1976 8.64411 12.1032C8.75357 12.0089 8.8257 11.8786 8.84744 11.7357C8.95861 10.9723 9.44046 10.1631 10.3206 9.26184C11.1267 8.44267 11.5783 7.33926 11.5778 6.18994ZM8.41073 11.6732C8.40505 11.7117 8.38578 11.7469 8.3564 11.7725C8.32702 11.798 8.28948 11.8122 8.25055 11.8125H5.8593C5.82043 11.8122 5.78294 11.798 5.75359 11.7725C5.72423 11.747 5.70494 11.7119 5.69917 11.6734C5.53812 10.5837 4.74862 9.69101 4.05208 8.90327L3.96762 8.80768C3.32824 8.08546 2.97477 7.15452 2.97371 6.18994C2.97371 3.983 4.80463 2.1875 7.05514 2.1875C9.3057 2.1875 11.1366 3.983 11.1366 6.18994C11.137 7.22541 10.73 8.21948 10.0036 8.95743C9.05664 9.92728 8.53569 10.8155 8.41073 11.6732Z" fill="#F1F1F1"/>
</g>
<path id="Vector_2" d="M5.56285 7.22994L5.52202 7.18455C5.23186 6.86425 5.07065 6.44779 5.06953 6.0156C5.06953 5.32838 5.46994 4.74946 6.14067 4.46694C6.16725 4.45587 6.19138 4.43964 6.21166 4.4192C6.23194 4.39876 6.24797 4.3745 6.25883 4.34783C6.26969 4.32115 6.27515 4.2926 6.27492 4.2638C6.27468 4.235 6.26874 4.20654 6.25745 4.18005C6.23423 4.1265 6.1908 4.08428 6.13661 4.0626C6.08242 4.04091 6.02186 4.04151 5.96811 4.06426C5.1417 4.41236 4.62829 5.16015 4.62829 6.0156C4.62944 6.55534 4.8305 7.07551 5.19265 7.47572L5.2338 7.52143C5.54124 7.86259 5.88968 8.24936 5.95345 8.67286C5.96147 8.72487 5.98786 8.77229 6.02784 8.8065C6.06782 8.84072 6.11875 8.85947 6.17137 8.85935C6.18237 8.85936 6.19335 8.85857 6.20423 8.857C6.23276 8.85291 6.26021 8.84321 6.28499 8.82849C6.30977 8.81377 6.3314 8.7943 6.34865 8.7712C6.36589 8.7481 6.3784 8.72182 6.38547 8.69388C6.39254 8.66593 6.39403 8.63687 6.38984 8.60835C6.30662 8.05538 5.91149 7.61692 5.56285 7.22994ZM8.15817 12.6875H5.952C5.92312 12.6872 5.89447 12.6927 5.86772 12.7036C5.84097 12.7145 5.81664 12.7306 5.79613 12.7509C5.77562 12.7712 5.75934 12.7954 5.74824 12.8221C5.73713 12.8487 5.73141 12.8773 5.73141 12.9062C5.73141 12.9351 5.73713 12.9637 5.74824 12.9904C5.75934 13.017 5.77562 13.0412 5.79613 13.0616C5.81664 13.0819 5.84097 13.098 5.86772 13.1089C5.89447 13.1197 5.92312 13.1252 5.952 13.125H8.15817C8.18705 13.1252 8.2157 13.1197 8.24245 13.1089C8.2692 13.098 8.29353 13.0819 8.31404 13.0616C8.33455 13.0412 8.35083 13.017 8.36193 12.9904C8.37304 12.9637 8.37876 12.9351 8.37876 12.9062C8.37876 12.8773 8.37304 12.8487 8.36193 12.8221C8.35083 12.7954 8.33455 12.7712 8.31404 12.7509C8.29353 12.7306 8.2692 12.7145 8.24245 12.7036C8.2157 12.6927 8.18705 12.6872 8.15817 12.6875ZM7.71694 13.5625H6.39323C6.36435 13.5622 6.33571 13.5677 6.30896 13.5786C6.28221 13.5895 6.25788 13.6056 6.23737 13.6259C6.21686 13.6462 6.20058 13.6704 6.18947 13.6971C6.17837 13.7237 6.17265 13.7523 6.17265 13.7812C6.17265 13.8101 6.17837 13.8387 6.18947 13.8654C6.20058 13.892 6.21686 13.9162 6.23737 13.9366C6.25788 13.9569 6.28221 13.973 6.30896 13.9839C6.33571 13.9947 6.36435 14.0002 6.39323 14H7.71694C7.74582 14.0002 7.77446 13.9947 7.80121 13.9839C7.82796 13.973 7.8523 13.9569 7.8728 13.9366C7.89331 13.9162 7.90959 13.892 7.9207 13.8654C7.9318 13.8387 7.93752 13.8101 7.93752 13.7812C7.93752 13.7523 7.9318 13.7237 7.9207 13.6971C7.90959 13.6704 7.89331 13.6462 7.8728 13.6259C7.8523 13.6056 7.82796 13.5895 7.80121 13.5786C7.77446 13.5677 7.74582 13.5622 7.71694 13.5625ZM6.94478 1.30212C7.00304 1.30236 7.05901 1.27945 7.10039 1.23843C7.14176 1.19741 7.16514 1.14163 7.16539 1.08337V0.218728C7.16491 0.160534 7.14145 0.104889 7.10013 0.0639106C7.05881 0.0229319 7.00297 -6.10352e-05 6.94478 -6.10352e-05C6.88658 -6.10352e-05 6.83074 0.0229319 6.78942 0.0639106C6.7481 0.104889 6.72464 0.160534 6.72416 0.218728V1.08337C6.72441 1.14163 6.74779 1.19741 6.78917 1.23843C6.83054 1.27945 6.88651 1.30236 6.94478 1.30212ZM4.70251 1.51083C4.72303 1.56546 4.76432 1.60976 4.81738 1.63407C4.87043 1.65838 4.93094 1.66073 4.98572 1.6406C5.01282 1.63085 5.03771 1.61583 5.05898 1.59641C5.08025 1.57699 5.09746 1.55355 5.10962 1.52745C5.12179 1.50135 5.12867 1.47309 5.12987 1.44432C5.13107 1.41555 5.12656 1.38682 5.1166 1.3598L4.81508 0.54728C4.79457 0.492641 4.75328 0.44833 4.70022 0.424018C4.64717 0.399705 4.58665 0.397364 4.53187 0.417505C4.50478 0.427259 4.47988 0.44228 4.45861 0.4617C4.43735 0.481121 4.42014 0.504558 4.40797 0.53066C4.3958 0.556763 4.38892 0.585015 4.38773 0.613789C4.38653 0.642563 4.39104 0.671289 4.40099 0.698312L4.70251 1.51083ZM2.95157 2.59037C2.98965 2.63464 3.04364 2.66212 3.10185 2.66686C3.16005 2.6716 3.21778 2.65321 3.26252 2.61568C3.28459 2.59721 3.30277 2.57454 3.31601 2.54899C3.32925 2.52344 3.33729 2.49551 3.33966 2.46683C3.34204 2.43814 3.33869 2.40927 3.32982 2.38189C3.32095 2.35451 3.30674 2.32917 3.288 2.30732L2.72131 1.64498C2.68321 1.60074 2.62922 1.57328 2.57103 1.56854C2.51284 1.56381 2.45512 1.58217 2.41037 1.61966C2.3883 1.63814 2.37012 1.66081 2.35687 1.68636C2.34363 1.71191 2.33559 1.73984 2.33322 1.76852C2.33085 1.79721 2.3342 1.82607 2.34306 1.85345C2.35193 1.88083 2.36615 1.90618 2.38488 1.92803L2.95157 2.59037ZM2.12119 3.81165L1.3577 3.37928C1.30691 3.35055 1.24684 3.34299 1.19051 3.35822C1.13418 3.37345 1.08611 3.41026 1.05672 3.46067C1.04236 3.48562 1.0331 3.51318 1.02947 3.54173C1.02583 3.57029 1.0279 3.59928 1.03554 3.62704C1.04318 3.65479 1.05626 3.68075 1.074 3.70342C1.09174 3.72609 1.1138 3.74502 1.13891 3.7591L1.9024 4.19148C1.95318 4.22026 2.01326 4.22787 2.06961 4.21263C2.12596 4.19739 2.17403 4.16054 2.20338 4.11009C2.21773 4.08513 2.22699 4.05758 2.23063 4.02902C2.23426 4.00047 2.2322 3.97147 2.22456 3.94372C2.21691 3.91597 2.20384 3.89 2.1861 3.86733C2.16836 3.84467 2.14629 3.82574 2.12119 3.81165ZM1.67359 5.69068L0.805396 5.54051C0.777014 5.53535 0.74789 5.53585 0.719701 5.54198C0.691512 5.54811 0.664814 5.55975 0.641141 5.57624C0.617469 5.59273 0.597289 5.61373 0.581763 5.63805C0.566237 5.66236 0.555671 5.6895 0.550673 5.71792C0.545675 5.74633 0.546343 5.77545 0.552639 5.8036C0.558935 5.83175 0.570735 5.85838 0.58736 5.88196C0.603985 5.90554 0.625107 5.92559 0.649511 5.94098C0.673915 5.95636 0.701119 5.96677 0.72956 5.9716L1.59776 6.12177C1.61038 6.12389 1.62315 6.12496 1.63595 6.12498C1.69095 6.1254 1.7441 6.10507 1.78478 6.06805C1.82546 6.03102 1.8507 5.98003 1.85545 5.92522C1.8602 5.87042 1.84411 5.81584 1.81041 5.77237C1.7767 5.7289 1.72785 5.69973 1.67359 5.69068ZM13.4498 5.71845C13.4393 5.6611 13.4066 5.61021 13.3588 5.57688C13.311 5.54354 13.2519 5.53047 13.1945 5.5405L12.3263 5.69067C12.272 5.69971 12.2232 5.72887 12.1894 5.77236C12.1557 5.81584 12.1396 5.87044 12.1444 5.92526C12.1492 5.98007 12.1744 6.03108 12.2151 6.0681C12.2558 6.10512 12.309 6.12543 12.364 6.12498C12.3768 6.12496 12.3896 6.12389 12.4022 6.12177L13.2703 5.9716C13.2987 5.9668 13.3259 5.95644 13.3503 5.94111C13.3747 5.92578 13.3959 5.90579 13.4126 5.88227C13.4292 5.85875 13.4411 5.83218 13.4475 5.80407C13.4539 5.77596 13.4546 5.74686 13.4498 5.71845ZM12.8327 3.46067C12.8034 3.41019 12.7553 3.37332 12.699 3.35808C12.6426 3.34284 12.5825 3.35046 12.5318 3.37928L11.7683 3.81165C11.7432 3.82575 11.7212 3.84468 11.7034 3.86736C11.6857 3.89003 11.6726 3.91599 11.665 3.94375C11.6574 3.9715 11.6553 4.00049 11.659 4.02904C11.6626 4.05759 11.6719 4.08514 11.6862 4.11009C11.7156 4.16054 11.7636 4.19739 11.82 4.21263C11.8763 4.22787 11.9364 4.22026 11.9872 4.19148L12.7506 3.7591C12.7757 3.74501 12.7978 3.72607 12.8155 3.7034C12.8333 3.68073 12.8463 3.65476 12.8539 3.62701C12.8616 3.59926 12.8636 3.57027 12.86 3.54172C12.8564 3.51316 12.8471 3.48562 12.8327 3.46067ZM10.7696 2.6676C10.8016 2.66767 10.8332 2.6608 10.8623 2.64747C10.8913 2.63414 10.9172 2.61465 10.938 2.59037L11.5047 1.92803C11.5234 1.90618 11.5376 1.88082 11.5465 1.85344C11.5553 1.82606 11.5587 1.7972 11.5563 1.76852C11.5539 1.73985 11.5459 1.71193 11.5326 1.68637C11.5194 1.66082 11.5012 1.63815 11.4792 1.61967C11.4344 1.58215 11.3767 1.56377 11.3185 1.5685C11.2603 1.57324 11.2063 1.60072 11.1682 1.64498L10.6014 2.30732C10.5827 2.32918 10.5685 2.35453 10.5597 2.38191C10.5508 2.40929 10.5475 2.43815 10.5499 2.46683C10.5522 2.49551 10.5603 2.52343 10.5735 2.54898C10.5868 2.57453 10.6049 2.5972 10.627 2.61568C10.6669 2.64926 10.7174 2.66765 10.7696 2.6676ZM8.90384 1.6406C8.95862 1.66073 9.01913 1.65838 9.07218 1.63407C9.12524 1.60976 9.16652 1.56546 9.18704 1.51083L9.48856 0.698312C9.49853 0.671289 9.50305 0.64256 9.50185 0.613783C9.50066 0.585005 9.49378 0.556749 9.48161 0.530643C9.46945 0.504537 9.45223 0.481099 9.43096 0.461681C9.40969 0.442262 9.38478 0.427248 9.35768 0.417505C9.3029 0.397392 9.24239 0.399747 9.18934 0.424056C9.13629 0.448365 9.095 0.492658 9.07447 0.54728L8.77295 1.3598C8.76298 1.38682 8.75847 1.41555 8.75966 1.44433C8.76085 1.4731 8.76773 1.50136 8.7799 1.52747C8.79207 1.55357 8.80928 1.57701 8.83056 1.59643C8.85183 1.61585 8.87674 1.63086 8.90384 1.6406Z" fill="#F1F1F1"/>
</g>
<defs>
<filter id="filter0_d_542_918" x="-1.79846" y="9.62463" width="17.7072" height="10.1879" filterUnits="userSpaceOnUse" color-interpolation-filters="sRGB">
<feFlood flood-opacity="0" result="BackgroundImageFix"/>
<feColorMatrix in="SourceAlpha" type="matrix" values="0 0 0 0 0 0 0 0 0 0 0 0 0 0 0 0 0 0 127 0" result="hardAlpha"/>
<feOffset dy="4"/>
<feGaussianBlur stdDeviation="2"/>
<feComposite in2="hardAlpha" operator="out"/>
<feColorMatrix type="matrix" values="0 0 0 0 0 0 0 0 0 0 0 0 0 0 0 0 0 0 0.25 0"/>
<feBlend mode="normal" in2="BackgroundImageFix" result="effect1_dropShadow_542_918"/>
<feBlend mode="normal" in="SourceGraphic" in2="effect1_dropShadow_542_918" result="shape"/>
</filter>
<filter id="filter1_d_542_918" x="-1.46753" y="1.75" width="17.0453" height="18.5" filterUnits="userSpaceOnUse" color-interpolation-filters="sRGB">
<feFlood flood-opacity="0" result="BackgroundImageFix"/>
<feColorMatrix in="SourceAlpha" type="matrix" values="0 0 0 0 0 0 0 0 0 0 0 0 0 0 0 0 0 0 127 0" result="hardAlpha"/>
<feOffset dy="4"/>
<feGaussianBlur stdDeviation="2"/>
<feComposite in2="hardAlpha" operator="out"/>
<feColorMatrix type="matrix" values="0 0 0 0 0 0 0 0 0 0 0 0 0 0 0 0 0 0 0.25 0"/>
<feBlend mode="normal" in2="BackgroundImageFix" result="effect1_dropShadow_542_918"/>
<feBlend mode="normal" in="SourceGraphic" in2="effect1_dropShadow_542_918" result="shape"/>
</filter>
<clipPath id="clip0_542_918">
<rect width="14" height="14" fill="white"/>
</clipPath>
</defs>
</svg>
