<svg width="32" height="32" viewBox="0 0 32 32" fill="none" xmlns="http://www.w3.org/2000/svg">
<g id="Light Bulb" clip-path="url(#clip0_448_2842)">
<g id="Light Bot W" filter="url(#filter0_d_448_2842)">
<path d="M20.3847 23.6739C20.3373 23.5883 20.2581 23.5248 20.1642 23.4973C20.0703 23.4697 19.9694 23.4803 19.8832 23.5267C19.8408 23.5496 19.8033 23.5807 19.773 23.6182C19.7427 23.6556 19.7201 23.6988 19.7066 23.745C19.6931 23.7913 19.6889 23.8398 19.6942 23.8877C19.6996 23.9356 19.7144 23.982 19.7378 24.0241L20.4989 25.4024C20.5463 25.488 20.6255 25.5514 20.7194 25.579C20.8132 25.6065 20.9142 25.596 21.0003 25.5496C21.0427 25.5267 21.0802 25.4956 21.1105 25.4582C21.1408 25.4207 21.1634 25.3775 21.177 25.3313C21.1905 25.285 21.1947 25.2365 21.1893 25.1886C21.184 25.1407 21.1691 25.0943 21.1457 25.0522L20.3847 23.6739ZM21.8095 22.8113L20.9902 22.6496C20.8994 22.631 20.805 22.6476 20.726 22.6959C20.6469 22.7442 20.5891 22.8207 20.5642 22.9099C20.5393 22.9992 20.5492 23.0945 20.5918 23.1768C20.6344 23.2591 20.7065 23.3221 20.7938 23.3533C20.8121 23.36 20.8309 23.3653 20.8501 23.3691L21.6694 23.5308C21.7168 23.5404 21.7656 23.5406 21.8131 23.5313C21.8606 23.5219 21.9058 23.5033 21.946 23.4764C21.9862 23.4495 22.0207 23.4149 22.0475 23.3746C22.0743 23.3344 22.0929 23.2892 22.1022 23.2417C22.1114 23.1942 22.1112 23.1453 22.1014 23.0979C22.0917 23.0505 22.0727 23.0055 22.0455 22.9655C22.0183 22.9255 21.9834 22.8913 21.9429 22.8648C21.9024 22.8383 21.8571 22.8201 21.8095 22.8113ZM19.3481 24.319C19.3676 24.2235 19.3486 24.1242 19.2951 24.0427C19.2417 23.9611 19.1582 23.904 19.0628 23.8838C18.9675 23.8636 18.868 23.8818 18.7861 23.9346C18.7041 23.9874 18.6463 24.0704 18.6253 24.1656L18.4218 25.1346C18.4039 25.2212 18.4179 25.3114 18.461 25.3887C18.5042 25.4659 18.5737 25.5251 18.6569 25.5553C18.6735 25.5613 18.6906 25.5663 18.708 25.57C18.7552 25.5802 18.8039 25.5811 18.8514 25.5724C18.8989 25.5638 18.9443 25.5459 18.9848 25.5197C19.0254 25.4935 19.0604 25.4595 19.0878 25.4198C19.1152 25.38 19.1345 25.3353 19.1446 25.288L19.3481 24.319ZM8.35091 19.3095C8.3151 19.2184 8.24478 19.1452 8.15523 19.1056C8.06568 19.0661 7.96415 19.0635 7.87272 19.0985L6.40202 19.6607C6.35696 19.6778 6.31575 19.7037 6.28077 19.7368C6.24579 19.77 6.21773 19.8098 6.19823 19.8538C6.17872 19.8979 6.16816 19.9454 6.16714 19.9936C6.16613 20.0418 6.17468 20.0897 6.19231 20.1346C6.22822 20.2256 6.29856 20.2988 6.38807 20.3383C6.47758 20.3778 6.57906 20.3804 6.67051 20.3456L8.1412 19.7834C8.18626 19.7663 8.22747 19.7404 8.26245 19.7073C8.29744 19.6741 8.32549 19.6343 8.345 19.5903C8.3645 19.5462 8.37507 19.4987 8.37608 19.4505C8.3771 19.4023 8.36854 19.3544 8.35091 19.3095ZM7.71357 18.5653C7.73065 18.5748 7.74844 18.5829 7.76677 18.5896C7.85353 18.622 7.94937 18.6204 8.03498 18.5851C8.1206 18.5497 8.18964 18.4832 8.22819 18.399C8.26674 18.3147 8.27194 18.219 8.24274 18.1311C8.21354 18.0432 8.15211 17.9696 8.07083 17.9252L7.34056 17.5202C7.2985 17.4963 7.25212 17.4809 7.20409 17.475C7.15606 17.4691 7.10733 17.4727 7.06072 17.4858C7.01411 17.4988 6.97054 17.5209 6.93252 17.5508C6.8945 17.5808 6.86278 17.6179 6.8392 17.6602C6.81562 17.7024 6.80064 17.7489 6.79512 17.797C6.7896 17.8451 6.79366 17.8938 6.80706 17.9403C6.82045 17.9868 6.84293 18.0302 6.87318 18.068C6.90343 18.1057 6.94086 18.1371 6.98331 18.1604L7.71357 18.5653ZM8.748 20.112C8.6621 20.0654 8.5612 20.0549 8.46752 20.0827C8.37383 20.1105 8.29503 20.1744 8.24842 20.2602L7.77892 21.132C7.75619 21.1746 7.74209 21.2212 7.73743 21.2693C7.73277 21.3174 7.73764 21.3659 7.75176 21.412C7.76588 21.4582 7.78897 21.5011 7.81971 21.5384C7.85046 21.5756 7.88824 21.6064 7.93091 21.629C7.94651 21.6373 7.96267 21.6446 7.97927 21.6507C8.06235 21.6812 8.15366 21.6809 8.23651 21.6497C8.31937 21.6185 8.38822 21.5585 8.43049 21.4807L8.9 20.609C8.92273 20.5664 8.93683 20.5197 8.94149 20.4717C8.94615 20.4236 8.94128 20.3751 8.92716 20.329C8.91304 20.2828 8.88994 20.2399 8.8592 20.2026C8.82846 20.1654 8.79067 20.1346 8.748 20.112Z" fill="#F1F1F1"/>
</g>
<g id="Vector" filter="url(#filter1_d_448_2842)">
<path d="M23.6683 17.3593C25.0768 13.5076 23.0308 9.20696 19.1074 7.77226C15.1841 6.33756 10.8463 8.30379 9.43787 12.1554C8.82364 13.8406 8.84627 15.6921 9.5015 17.3617L9.57961 17.5614C10.1852 19.1065 10.8716 20.8578 10.5418 22.4527C10.4945 22.6897 10.5333 22.9358 10.6513 23.1467C10.7693 23.3576 10.9587 23.5195 11.1854 23.6033L14.9474 24.979C15.1749 25.0615 15.4245 25.0599 15.651 24.9745C15.8774 24.8891 16.0659 24.7255 16.1823 24.5133C16.7964 23.3762 18.02 22.3804 19.9231 21.4688C21.6627 20.6438 23.0079 19.1677 23.6683 17.3593ZM15.5312 24.1637C15.5001 24.221 15.4495 24.2653 15.3886 24.2886C15.3277 24.3119 15.2605 24.3126 15.1991 24.2907L11.4371 22.915C11.3761 22.8921 11.3253 22.8482 11.2938 22.7912C11.2623 22.7342 11.2521 22.6679 11.2651 22.6041C11.6387 20.7971 10.9102 18.9384 10.2676 17.2984L10.1897 17.0994C9.59929 15.5953 9.57879 13.9274 10.132 12.4093C11.4017 8.93723 15.3151 7.16582 18.8557 8.46055C22.3964 9.75531 24.2438 13.6334 22.9741 17.1054C22.379 18.7347 21.1669 20.0645 19.5996 20.8075C17.5518 21.7885 16.2212 22.8862 15.5312 24.1637Z" fill="#F1F1F1"/>
</g>
<path id="Vector_2" d="M13.6071 15.5351L13.5689 15.4402C13.2967 14.7693 13.2827 14.0214 13.5296 13.3408C13.9249 12.2596 14.8879 11.5792 16.1057 11.5206C16.1539 11.5185 16.2012 11.5069 16.2448 11.4864C16.2885 11.4659 16.3277 11.4369 16.3601 11.4012C16.3925 11.3655 16.4176 11.3237 16.4338 11.2783C16.4499 11.2328 16.457 11.1846 16.4545 11.1365C16.4487 11.0389 16.4047 10.9475 16.3319 10.8822C16.2591 10.8169 16.1635 10.783 16.0659 10.7878C14.5655 10.86 13.3275 11.7411 12.8354 13.087C12.5267 13.9367 12.5437 14.8708 12.8833 15.7087L12.9217 15.8043C13.2091 16.5179 13.5348 17.3269 13.3915 18.0298C13.3741 18.1163 13.3884 18.206 13.4316 18.2829C13.4748 18.3597 13.5441 18.4185 13.627 18.4486C13.6443 18.4549 13.662 18.46 13.6801 18.4638C13.7273 18.4738 13.7761 18.4743 13.8235 18.4654C13.871 18.4565 13.9162 18.4383 13.9566 18.4119C13.997 18.3855 14.0318 18.3513 14.059 18.3114C14.0862 18.2715 14.1053 18.2267 14.1151 18.1794C14.3023 17.2616 13.9329 16.3444 13.6071 15.5351ZM14.5504 25.6142L11.0795 24.3449C11.0342 24.3279 10.986 24.3201 10.9377 24.3218C10.8893 24.3235 10.8418 24.3348 10.7978 24.355C10.7539 24.3752 10.7143 24.4039 10.6815 24.4395C10.6487 24.475 10.6233 24.5167 10.6067 24.5622C10.59 24.6076 10.5826 24.6559 10.5847 24.7042C10.5869 24.7525 10.5985 24.8 10.6191 24.8438C10.6397 24.8876 10.6687 24.9269 10.7045 24.9594C10.7404 24.9919 10.7823 25.017 10.8278 25.0332L14.2987 26.3024C14.344 26.3194 14.3922 26.3273 14.4405 26.3256C14.4889 26.3238 14.5364 26.3125 14.5804 26.2923C14.6243 26.2721 14.6639 26.2434 14.6967 26.2079C14.7295 26.1723 14.7549 26.1306 14.7716 26.0852C14.7882 26.0398 14.7956 25.9915 14.7935 25.9432C14.7914 25.8948 14.7797 25.8474 14.7591 25.8036C14.7385 25.7598 14.7095 25.7205 14.6737 25.688C14.6379 25.6555 14.596 25.6304 14.5504 25.6142ZM13.3528 26.7369L11.2703 25.9754C11.225 25.9584 11.1768 25.9505 11.1285 25.9522C11.0801 25.954 11.0326 25.9653 10.9886 25.9855C10.9447 26.0057 10.9051 26.0344 10.8723 26.0699C10.8395 26.1055 10.814 26.1472 10.7974 26.1926C10.7808 26.238 10.7734 26.2863 10.7755 26.3346C10.7776 26.383 10.7893 26.4304 10.8099 26.4742C10.8305 26.518 10.8595 26.5573 10.8953 26.5898C10.9311 26.6223 10.973 26.6474 11.0186 26.6636L13.1011 27.4252C13.1464 27.4422 13.1946 27.45 13.243 27.4483C13.2913 27.4466 13.3389 27.4353 13.3828 27.4151C13.4268 27.3949 13.4663 27.3662 13.4991 27.3306C13.5319 27.2951 13.5574 27.2534 13.574 27.2079C13.5906 27.1625 13.5981 27.1142 13.5959 27.0659C13.5938 27.0176 13.5821 26.9701 13.5615 26.9263C13.541 26.8825 13.5119 26.8433 13.4761 26.8107C13.4403 26.7782 13.3984 26.7531 13.3528 26.7369ZM19.1915 7.00421C19.283 7.03812 19.3842 7.03428 19.4729 6.99354C19.5616 6.95281 19.6305 6.87851 19.6644 6.78699L20.1618 5.42671C20.1945 5.33488 20.1897 5.23384 20.1482 5.1456C20.1068 5.05736 20.0322 4.98906 19.9406 4.95558C19.8491 4.9221 19.748 4.92615 19.6594 4.96685C19.5708 5.00754 19.5019 5.08159 19.4677 5.17286L18.9702 6.53314C18.9371 6.62495 18.9418 6.72615 18.9833 6.81449C19.0248 6.90283 19.0997 6.97108 19.1915 7.00421ZM15.5438 6.04258C15.5446 6.14033 15.5841 6.23378 15.6536 6.30255C15.7231 6.37132 15.8169 6.40983 15.9147 6.40968C15.9629 6.40992 16.0107 6.40061 16.0554 6.3823C16.1 6.36398 16.1405 6.33701 16.1747 6.30294C16.2089 6.26888 16.2359 6.22839 16.2544 6.18381C16.2728 6.13923 16.2823 6.09144 16.2821 6.0432L16.2752 4.59145C16.2744 4.49369 16.2349 4.40023 16.1654 4.33145C16.096 4.26268 16.0021 4.22418 15.9043 4.22435C15.8561 4.22411 15.8083 4.23342 15.7636 4.25174C15.719 4.27006 15.6785 4.29703 15.6443 4.33109C15.6101 4.36516 15.5831 4.40565 15.5646 4.45023C15.5462 4.49481 15.5368 4.54259 15.5369 4.59083L15.5438 6.04258ZM12.1681 6.73363C12.2025 6.82519 12.2716 6.89949 12.3605 6.94043C12.4493 6.98137 12.5507 6.98565 12.6427 6.95234C12.6881 6.93598 12.7297 6.91077 12.7652 6.87819C12.8008 6.84561 12.8295 6.8063 12.8497 6.76254C12.8699 6.71877 12.8813 6.67143 12.8831 6.62326C12.8849 6.57508 12.8771 6.52702 12.8602 6.48187L12.3497 5.11383C12.3152 5.02232 12.2461 4.94806 12.1573 4.90713C12.0684 4.8662 11.9671 4.86188 11.8751 4.89512C11.8297 4.91149 11.7881 4.93669 11.7526 4.96927C11.717 5.00186 11.6883 5.04117 11.6681 5.08493C11.6478 5.12869 11.6365 5.17603 11.6347 5.22421C11.6329 5.27239 11.6407 5.32044 11.6576 5.36559L12.1681 6.73363ZM10.1591 8.17727L9.20667 7.05781C9.14329 6.98339 9.05315 6.93693 8.95576 6.92849C8.85837 6.92005 8.76158 6.9503 8.68634 7.0127C8.6494 7.0437 8.61898 7.08172 8.59683 7.12455C8.57468 7.16739 8.56125 7.21419 8.55731 7.26225C8.55336 7.31031 8.55899 7.35867 8.57387 7.40455C8.58874 7.45042 8.61256 7.49288 8.64395 7.52949L9.59635 8.64895C9.65968 8.72346 9.74984 8.76998 9.84725 8.77843C9.94467 8.78687 10.0415 8.75656 10.1167 8.69406C10.1536 8.66306 10.1841 8.62504 10.2062 8.58221C10.2283 8.53937 10.2418 8.49257 10.2457 8.44451C10.2497 8.39645 10.244 8.34809 10.2292 8.30222C10.2143 8.25634 10.1905 8.21388 10.1591 8.17727ZM8.37389 10.8759L7.0944 10.1402C7.05272 10.1157 7.00662 10.0998 6.95874 10.0932C6.91087 10.0866 6.86216 10.0896 6.81544 10.1019C6.76871 10.1142 6.72488 10.1357 6.68646 10.165C6.64805 10.1943 6.61581 10.2309 6.5916 10.2727C6.56739 10.3146 6.55169 10.3608 6.5454 10.4087C6.53911 10.4566 6.54235 10.5053 6.55494 10.5519C6.56754 10.5986 6.58923 10.6423 6.61877 10.6805C6.64831 10.7188 6.68512 10.7508 6.72709 10.7748L8.00657 11.5105C8.02521 11.5211 8.04469 11.5301 8.06481 11.5375C8.15111 11.5698 8.24641 11.5684 8.33171 11.5336C8.41702 11.4987 8.48605 11.433 8.52505 11.3495C8.56405 11.2661 8.57015 11.1709 8.54214 11.0832C8.51412 10.9954 8.45404 10.9214 8.37389 10.8759ZM26.8846 17.6945C26.9012 17.5983 26.879 17.4994 26.8229 17.4194C26.7669 17.3395 26.6815 17.2849 26.5853 17.2677L25.1332 17.0045C25.0426 16.9875 24.9489 17.0052 24.8708 17.0542C24.7928 17.1033 24.736 17.1799 24.712 17.2689C24.6879 17.3579 24.6983 17.4526 24.7411 17.5343C24.7838 17.616 24.8558 17.6785 24.9426 17.7094C24.9627 17.7168 24.9834 17.7224 25.0045 17.7263L26.4566 17.9895C26.5041 17.9983 26.5529 17.9977 26.6001 17.9876C26.6473 17.9775 26.6921 17.9582 26.7319 17.9308C26.7716 17.9034 26.8056 17.8684 26.8318 17.8279C26.858 17.7873 26.876 17.742 26.8846 17.6945ZM27.2128 13.7875C27.1957 13.6912 27.1413 13.6056 27.0614 13.5492C26.9815 13.4928 26.8826 13.4702 26.7861 13.4863L25.3363 13.7273C25.2887 13.7351 25.2431 13.7522 25.2022 13.7776C25.1612 13.8031 25.1258 13.8364 25.0978 13.8757C25.0698 13.915 25.0499 13.9594 25.0392 14.0064C25.0285 14.0534 25.0272 14.1021 25.0355 14.1496C25.0526 14.2459 25.107 14.3315 25.1869 14.3879C25.2668 14.4443 25.3657 14.4669 25.4621 14.4508L26.912 14.2098C26.9596 14.202 27.0051 14.1849 27.0461 14.1595C27.087 14.134 27.1225 14.1007 27.1505 14.0614C27.1784 14.0221 27.1984 13.9777 27.2091 13.9307C27.2197 13.8837 27.221 13.835 27.2128 13.7875ZM24.4233 11.3529C24.4735 11.3714 24.5272 11.3788 24.5806 11.3745C24.634 11.3703 24.6859 11.3545 24.7326 11.3283L26.0052 10.6123C26.0473 10.5887 26.0842 10.5569 26.1138 10.519C26.1435 10.481 26.1654 10.4375 26.1781 10.391C26.1909 10.3445 26.1943 10.296 26.1882 10.2482C26.1821 10.2004 26.1665 10.1542 26.1425 10.1125C26.0937 10.0277 26.0134 9.96556 25.9191 9.93952C25.8248 9.91349 25.724 9.92565 25.6386 9.97337L24.366 10.6893C24.324 10.713 24.287 10.7447 24.2574 10.7827C24.2277 10.8206 24.2058 10.8641 24.1931 10.9106C24.1803 10.9571 24.1769 11.0056 24.183 11.0535C24.1891 11.1013 24.2047 11.1474 24.2287 11.1892C24.2723 11.265 24.3412 11.3229 24.4233 11.3529ZM22.0788 8.66379C22.1534 8.72697 22.25 8.75809 22.3474 8.75037C22.4449 8.74264 22.5353 8.6967 22.599 8.62255L23.5408 7.51774C23.572 7.48096 23.5957 7.43836 23.6104 7.3924C23.625 7.34644 23.6305 7.29803 23.6263 7.24996C23.6222 7.20189 23.6086 7.15511 23.5863 7.11232C23.564 7.06953 23.5335 7.03158 23.4965 7.00066C23.4218 6.93751 23.3253 6.9064 23.2279 6.91412C23.1304 6.92185 23.04 6.96778 22.9762 7.0419L22.0344 8.14671C22.0032 8.18349 21.9796 8.22609 21.9649 8.27205C21.9502 8.31801 21.9448 8.36643 21.9489 8.4145C21.953 8.46257 21.9666 8.50935 21.9889 8.55213C22.0112 8.59492 22.0418 8.63287 22.0788 8.66379Z" fill="#C0C410"/>
</g>
<defs>
<filter id="filter0_d_448_2842" x="2.16699" y="17.4723" width="23.9419" height="16.1218" filterUnits="userSpaceOnUse" color-interpolation-filters="sRGB">
<feFlood flood-opacity="0" result="BackgroundImageFix"/>
<feColorMatrix in="SourceAlpha" type="matrix" values="0 0 0 0 0 0 0 0 0 0 0 0 0 0 0 0 0 0 127 0" result="hardAlpha"/>
<feOffset dy="4"/>
<feGaussianBlur stdDeviation="2"/>
<feComposite in2="hardAlpha" operator="out"/>
<feColorMatrix type="matrix" values="0 0 0 0 0 0 0 0 0 0 0 0 0 0 0 0 0 0 0.25 0"/>
<feBlend mode="normal" in2="BackgroundImageFix" result="effect1_dropShadow_448_2842"/>
<feBlend mode="normal" in="SourceGraphic" in2="effect1_dropShadow_448_2842" result="shape"/>
</filter>
<filter id="filter1_d_448_2842" x="4.99316" y="7.30301" width="23.1201" height="25.7367" filterUnits="userSpaceOnUse" color-interpolation-filters="sRGB">
<feFlood flood-opacity="0" result="BackgroundImageFix"/>
<feColorMatrix in="SourceAlpha" type="matrix" values="0 0 0 0 0 0 0 0 0 0 0 0 0 0 0 0 0 0 127 0" result="hardAlpha"/>
<feOffset dy="4"/>
<feGaussianBlur stdDeviation="2"/>
<feComposite in2="hardAlpha" operator="out"/>
<feColorMatrix type="matrix" values="0 0 0 0 0 0 0 0 0 0 0 0 0 0 0 0 0 0 0.25 0"/>
<feBlend mode="normal" in2="BackgroundImageFix" result="effect1_dropShadow_448_2842"/>
<feBlend mode="normal" in="SourceGraphic" in2="effect1_dropShadow_448_2842" result="shape"/>
</filter>
<clipPath id="clip0_448_2842">
<rect width="23.4518" height="23.4518" fill="white" transform="translate(9.01465 0.960266) rotate(20.0866)"/>
</clipPath>
</defs>
</svg>
