<svg width="33" height="33" viewBox="0 0 33 33" fill="none" xmlns="http://www.w3.org/2000/svg">
<path fill-rule="evenodd" clip-rule="evenodd" d="M32.5 16.5C32.5 25.3366 25.3366 32.5 16.5 32.5C7.66345 32.5 0.5 25.3366 0.5 16.5C0.5 7.66345 7.66345 0.5 16.5 0.5C25.3366 0.5 32.5 7.66345 32.5 16.5ZM16.5 7.92857C17.4468 7.92857 18.2143 8.69609 18.2143 9.64286V14.7857H23.3571C24.3039 14.7857 25.0714 15.5532 25.0714 16.5C25.0714 17.4468 24.3039 18.2143 23.3571 18.2143H18.2143V23.3571C18.2143 24.3039 17.4468 25.0714 16.5 25.0714C15.5532 25.0714 14.7857 24.3039 14.7857 23.3571V18.2143H9.64286C8.69609 18.2143 7.92857 17.4468 7.92857 16.5C7.92857 15.5532 8.69609 14.7857 9.64286 14.7857H14.7857V9.64286C14.7857 8.69609 15.5532 7.92857 16.5 7.92857Z" fill="url(#paint0_linear_2816_1804)"/>
<defs>
<linearGradient id="paint0_linear_2816_1804" x1="32.3926" y1="32.5069" x2="-5.50228" y2="11.1903" gradientUnits="userSpaceOnUse">
<stop stop-color="#FF51E3"/>
<stop offset="1" stop-color="#1B4DFF"/>
</linearGradient>
</defs>
</svg>
