<svg width="33" height="29" viewBox="0 0 33 29" fill="none" xmlns="http://www.w3.org/2000/svg">
<path fill-rule="evenodd" clip-rule="evenodd" d="M3.92857 0.5C2.03502 0.5 0.5 2.067 0.5 4V18C0.5 19.933 2.03502 21.5 3.92857 21.5H5.07143V11C5.07143 7.45618 7.88565 4.58333 11.3571 4.58333H25.0714V4C25.0714 2.067 23.5363 0.5 21.6429 0.5H3.92857ZM7.92857 11C7.92857 9.067 9.46359 7.5 11.3571 7.5H29.0714C30.9649 7.5 32.5 9.067 32.5 11V25C32.5 26.9329 30.9649 28.5 29.0714 28.5H11.3571C9.46359 28.5 7.92857 26.9329 7.92857 25V11ZM18.0886 13.1303C17.9124 13.0179 17.6904 13.012 17.5087 13.1148C17.327 13.2176 17.2143 13.4129 17.2143 13.625V22.375C17.2143 22.5871 17.327 22.7824 17.5087 22.8853C17.6904 22.988 17.9124 22.9821 18.0886 22.8697L24.9457 18.4947C25.1128 18.3881 25.2143 18.2011 25.2143 18C25.2143 17.7989 25.1128 17.6119 24.9457 17.5053L18.0886 13.1303Z" fill="url(#paint0_linear_2816_699)"/>
<defs>
<linearGradient id="paint0_linear_2816_699" x1="1.72971" y1="2.76333" x2="35.6936" y2="24.6416" gradientUnits="userSpaceOnUse">
<stop stop-color="#00D078"/>
<stop offset="1" stop-color="#007DF0"/>
</linearGradient>
</defs>
</svg>
