<svg width="33" height="33" viewBox="0 0 33 33" fill="none" xmlns="http://www.w3.org/2000/svg">
<g clip-path="url(#clip0_2816_1853)">
<path fill-rule="evenodd" clip-rule="evenodd" d="M10.3462 2.96154C10.3462 1.60207 9.24407 0.5 7.88462 0.5C6.52516 0.5 5.42308 1.60207 5.42308 2.96154V5.42308H4.19231C2.1531 5.42308 0.5 7.07617 0.5 9.11539V28.8077C0.5 30.8468 2.1531 32.5 4.19231 32.5H28.8077C30.8468 32.5 32.5 30.8468 32.5 28.8077V9.11539C32.5 7.07617 30.8468 5.42308 28.8077 5.42308H27.5769V2.96154C27.5769 1.60207 26.4749 0.5 25.1154 0.5C23.7559 0.5 22.6538 1.60207 22.6538 2.96154V5.42308H10.3462V2.96154ZM18.3462 12.8077C18.3462 11.7881 17.5196 10.9615 16.5 10.9615C15.4804 10.9615 14.6538 11.7881 14.6538 12.8077V17.1154H10.3462C9.32656 17.1154 8.5 17.9419 8.5 18.9615C8.5 19.9811 9.32656 20.8077 10.3462 20.8077H14.6538V25.1154C14.6538 26.135 15.4804 26.9615 16.5 26.9615C17.5196 26.9615 18.3462 26.135 18.3462 25.1154V20.8077H22.6538C23.6734 20.8077 24.5 19.9811 24.5 18.9615C24.5 17.9419 23.6734 17.1154 22.6538 17.1154H18.3462V12.8077Z" fill="url(#paint0_linear_2816_1853)"/>
</g>
<defs>
<linearGradient id="paint0_linear_2816_1853" x1="1.73077" y1="3.08708" x2="38.2009" y2="23.6409" gradientUnits="userSpaceOnUse">
<stop stop-color="#00D078"/>
<stop offset="1" stop-color="#007DF0"/>
</linearGradient>
<clipPath id="clip0_2816_1853">
<rect width="32" height="32" fill="white" transform="translate(0.5 0.5)"/>
</clipPath>
</defs>
</svg>
