<svg width="33" height="29" viewBox="0 0 33 29" fill="none" xmlns="http://www.w3.org/2000/svg">
<path d="M9.65945 0.522327C11.9032 0.691517 14.241 1.82372 16.4823 4.1097C18.7258 1.83039 21.0691 0.70505 23.3179 0.540201C25.8567 0.354113 28.0995 1.40666 29.7175 3.06682C32.9004 6.33261 33.8702 12.2348 29.8556 16.2811L29.8291 16.307L17.2573 28.1894C16.8192 28.6035 16.1426 28.6035 15.7045 28.1894L3.13266 16.307C3.12112 16.2961 3.10983 16.285 3.09874 16.2736C-0.857546 12.2125 0.10824 6.31033 3.27797 3.04446C4.89015 1.38337 7.12553 0.331228 9.65945 0.522327Z" fill="url(#paint0_linear_2816_711)"/>
<defs>
<linearGradient id="paint0_linear_2816_711" x1="1.72757" y1="2.7636" x2="35.6938" y2="24.6442" gradientUnits="userSpaceOnUse">
<stop stop-color="#00D078"/>
<stop offset="1" stop-color="#007DF0"/>
</linearGradient>
</defs>
</svg>
