<svg width="33" height="33" viewBox="0 0 33 33" fill="none" xmlns="http://www.w3.org/2000/svg">
<path fill-rule="evenodd" clip-rule="evenodd" d="M7.59583 0.5H14.9615V9.28107H1.09793L4.25929 2.61094C4.87029 1.32181 6.16924 0.5 7.59583 0.5ZM0.5 12.358V28.997C0.5 29.926 0.869061 30.817 1.52599 31.474C2.18293 32.131 3.07391 32.5 4.00297 32.5H28.997C29.926 32.5 30.817 32.131 31.474 31.474C32.131 30.817 32.5 29.926 32.5 28.997V12.358H16.5027H16.5H16.4973H0.5ZM18.0385 9.28107H31.9021L28.7407 2.61094C28.1298 1.32181 26.8308 0.5 25.4041 0.5H18.0385V9.28107ZM10.0385 22.2752C10.0385 21.4255 10.7272 20.7367 11.5769 20.7367H14.9615V17.3521C14.9615 16.5024 15.6503 15.8136 16.5 15.8136C17.3497 15.8136 18.0385 16.5024 18.0385 17.3521V20.7367H21.4231C22.2728 20.7367 22.9615 21.4255 22.9615 22.2752C22.9615 23.1248 22.2728 23.8136 21.4231 23.8136H18.0385V27.1983C18.0385 28.0478 17.3497 28.7368 16.5 28.7368C15.6503 28.7368 14.9615 28.0478 14.9615 27.1983V23.8136H11.5769C10.7272 23.8136 10.0385 23.1248 10.0385 22.2752Z" fill="url(#paint0_linear_2816_518)"/>
<defs>
<linearGradient id="paint0_linear_2816_518" x1="35.2742" y1="39.2766" x2="-7.88892" y2="8.61815" gradientUnits="userSpaceOnUse">
<stop stop-color="#FFD600"/>
<stop offset="1" stop-color="#FF007A"/>
</linearGradient>
</defs>
</svg>
