<svg width="33" height="32" viewBox="0 0 33 32" fill="none" xmlns="http://www.w3.org/2000/svg">
<path fill-rule="evenodd" clip-rule="evenodd" d="M13.1057 2.74829e-06C9.76235 2.74829e-06 6.55592 1.32815 4.19181 3.69225C1.82771 6.05637 0.499574 9.26279 0.499574 12.6061C0.491702 15.0875 1.22502 17.5147 2.60554 19.5766L0.921153 24.0841C0.735093 24.5819 1.16177 25.093 1.68491 24.9991L7.58866 23.9369C8.17499 24.2226 8.78091 24.4619 9.40075 24.653C9.18495 23.7081 9.07096 22.7245 9.07096 21.7143C9.07096 14.4557 14.9552 8.57143 22.2138 8.57143C23.2282 8.57143 24.2159 8.68638 25.1642 8.90391C24.7018 7.39835 23.9603 5.99003 22.9757 4.75355C21.7941 3.26971 20.293 2.07164 18.584 1.24859C16.8751 0.425545 15.0025 -0.00124964 13.1057 2.74829e-06ZM29.4874 14.4412C27.5583 12.5123 24.9423 11.4286 22.2142 11.4286C20.6666 11.4275 19.1386 11.7758 17.7442 12.4473C16.3499 13.1189 15.125 14.0964 14.161 15.3071C13.1969 16.5179 12.5185 17.9305 12.1763 19.4398C11.8341 20.9492 11.8368 22.5163 12.1845 24.0245C12.532 25.5326 13.2155 26.9429 14.1838 28.1499C15.1522 29.3573 16.3805 30.3305 17.7773 30.997C19.174 31.6635 20.7032 32.0064 22.2508 32C23.7985 31.9934 25.3247 31.6377 26.7157 30.9593L31.3146 31.7867C31.8378 31.8809 32.2643 31.3698 32.0783 30.8718L30.7816 27.4016C31.908 25.7193 32.5064 23.739 32.5 21.7143C32.5 18.9864 31.4163 16.3701 29.4874 14.4412Z" fill="url(#paint0_linear_2816_579)"/>
<defs>
<linearGradient id="paint0_linear_2816_579" x1="5.72923" y1="6.15314" x2="31.5761" y2="20.4731" gradientUnits="userSpaceOnUse">
<stop stop-color="#FFD600"/>
<stop offset="1" stop-color="#00D078"/>
</linearGradient>
</defs>
</svg>
