<svg width="33" height="28" viewBox="0 0 33 28" fill="none" xmlns="http://www.w3.org/2000/svg">
<path fill-rule="evenodd" clip-rule="evenodd" d="M21.0714 5.71429C21.0714 2.55838 23.6298 0 26.7857 0C29.9416 0 32.5 2.55838 32.5 5.71429C32.5 8.8702 29.9416 11.4286 26.7857 11.4286C24.9821 11.4286 23.3736 10.593 22.3264 9.28782L11.9163 13.3362C11.9244 13.4612 11.9286 13.5872 11.9286 13.7143C11.9286 13.8413 11.9244 13.9674 11.9163 14.0924L22.3264 18.1408C23.3736 16.8356 24.9821 16 26.7857 16C29.9416 16 32.5 18.5584 32.5 21.7142C32.5 24.8703 29.9416 27.4285 26.7857 27.4285C23.6298 27.4285 21.0714 24.8703 21.0714 21.7142C21.0714 21.5873 21.0756 21.4612 21.0837 21.3361L10.6736 17.2878C9.62631 18.593 8.01787 19.4286 6.21429 19.4286C3.05838 19.4286 0.5 16.8702 0.5 13.7143C0.5 10.5584 3.05838 8 6.21429 8C8.0179 8 9.62633 8.83559 10.6736 10.1408L21.0837 6.09239C21.0756 5.96741 21.0714 5.84133 21.0714 5.71429Z" fill="url(#paint0_linear_2816_85)"/>
<defs>
<linearGradient id="paint0_linear_2816_85" x1="5.72971" y1="5.27557" x2="29.556" y2="20.6744" gradientUnits="userSpaceOnUse">
<stop stop-color="#FFD600"/>
<stop offset="1" stop-color="#00D078"/>
</linearGradient>
</defs>
</svg>
