<svg width="33" height="32" viewBox="0 0 33 32" fill="none" xmlns="http://www.w3.org/2000/svg">
<path fill-rule="evenodd" clip-rule="evenodd" d="M0.500016 16C0.500016 7.16345 7.66345 0 16.5 0C25.3366 0 32.5 7.16345 32.5 16C32.5 24.8365 25.3366 31.9999 16.5 31.9999C14.0265 31.9999 11.6813 31.4379 9.58775 30.4337L1.86701 31.9777C1.45574 32.06 1.03246 31.9105 0.764251 31.588C0.49604 31.2655 0.425991 30.8221 0.581757 30.4326L2.94994 24.5121C1.3979 22.0464 0.500016 19.1266 0.500016 16ZM16.5 9.42857C15.2376 9.42857 14.2143 10.4519 14.2143 11.7143C14.2143 12.6611 13.4468 13.4286 12.5 13.4286C11.5532 13.4286 10.7857 12.6611 10.7857 11.7143C10.7857 8.55838 13.3441 6 16.5 6C19.6559 6 22.2143 8.55838 22.2143 11.7143C22.2143 14.2729 20.5326 16.4388 18.2143 17.167V17.4286C18.2143 18.3753 17.4468 19.1429 16.5 19.1429C15.5532 19.1429 14.7857 18.3753 14.7857 17.4286V15.7143C14.7857 14.7675 15.5532 14 16.5 14C17.7624 14 18.7857 12.9766 18.7857 11.7143C18.7857 10.4519 17.7624 9.42857 16.5 9.42857ZM16.5 21.4286C17.7624 21.4286 18.7857 22.4519 18.7857 23.7142C18.7857 24.9766 17.7624 25.9999 16.5 25.9999C15.2376 25.9999 14.2143 24.9766 14.2143 23.7142C14.2143 22.4519 15.2376 21.4286 16.5 21.4286Z" fill="url(#paint0_linear_2816_560)"/>
<defs>
<linearGradient id="paint0_linear_2816_560" x1="35.2726" y1="38.7773" x2="-7.89086" y2="8.11671" gradientUnits="userSpaceOnUse">
<stop stop-color="#FFD600"/>
<stop offset="1" stop-color="#FF007A"/>
</linearGradient>
</defs>
</svg>
