<svg width="33" height="32" viewBox="0 0 33 32" fill="none" xmlns="http://www.w3.org/2000/svg">
<path fill-rule="evenodd" clip-rule="evenodd" d="M16.5 0.5C16.0463 0.5 15.6021 0.630963 15.2198 0.87743C14.8424 1.12075 14.5408 1.46661 14.3498 1.87507L10.7201 9.26918C10.713 9.28371 10.7062 9.29838 10.6996 9.31322C10.698 9.31688 10.6954 9.32009 10.6922 9.32247C10.689 9.32484 10.6852 9.32634 10.6813 9.32678C10.6673 9.32833 10.6534 9.33015 10.6396 9.33223L2.64763 10.5269C2.20591 10.5703 1.78468 10.7375 1.43187 11.0102C1.06681 11.2924 0.790671 11.6753 0.636893 12.1126C0.483116 12.5499 0.458303 13.0228 0.565459 13.474C0.672201 13.9235 0.905331 14.3323 1.23677 14.6512L7.08689 20.3468L7.10022 20.3595C7.10857 20.3674 7.11483 20.3773 7.11847 20.3882C7.12208 20.3991 7.12293 20.4108 7.12091 20.4222L7.11961 20.4297L5.72559 28.6621C5.649 29.1083 5.69749 29.569 5.86624 29.9886C6.03522 30.4087 6.31772 30.7725 6.68153 31.0388C7.04538 31.305 7.47593 31.4628 7.92423 31.4942C8.37163 31.5255 8.81879 31.4298 9.21498 31.2178L9.2174 31.2166L16.418 27.3764C16.4439 27.3651 16.4718 27.3594 16.5 27.3594C16.5283 27.3594 16.5561 27.3651 16.582 27.3764L23.7825 31.2166C24.1789 31.4289 24.628 31.5255 25.0756 31.4942C25.524 31.4628 25.9545 31.305 26.3185 31.0388C26.6822 30.7725 26.9648 30.4087 27.1337 29.9886C27.3025 29.5692 27.3512 29.1104 27.2748 28.6644L27.2744 28.6621L25.8804 20.4297L25.879 20.4222C25.877 20.4108 25.8779 20.3991 25.8815 20.3882C25.8852 20.3773 25.8914 20.3674 25.8998 20.3595L25.9131 20.3468L31.7633 14.6511C32.0946 14.3322 32.3278 13.9235 32.4345 13.474C32.5418 13.0228 32.5168 12.5499 32.363 12.1126C32.2093 11.6753 31.9331 11.2924 31.568 11.0102C31.2152 10.7375 30.7941 10.5702 30.3524 10.5269L22.3604 9.33223C22.3465 9.33015 22.3326 9.32833 22.3187 9.32678C22.3147 9.32634 22.3109 9.32484 22.3077 9.32247C22.3045 9.32009 22.302 9.31688 22.3003 9.31322C22.2938 9.29838 22.287 9.28371 22.2798 9.26918L18.6502 1.87504C18.4591 1.46659 18.1576 1.12074 17.7802 0.87743C17.3978 0.630963 16.9536 0.5 16.5 0.5Z" fill="url(#paint0_linear_2816_647)"/>
<defs>
<linearGradient id="paint0_linear_2816_647" x1="5.73172" y1="6.46173" x2="31.1843" y2="21.0187" gradientUnits="userSpaceOnUse">
<stop stop-color="#FFD600"/>
<stop offset="1" stop-color="#00D078"/>
</linearGradient>
</defs>
</svg>
