<svg width="33" height="32" viewBox="0 0 33 32" fill="none" xmlns="http://www.w3.org/2000/svg">
<path fill-rule="evenodd" clip-rule="evenodd" d="M14.9615 0H7.59583C6.16924 0 4.87029 0.821814 4.25929 2.11094L1.09793 8.78107H14.9615V0ZM0.5 28.497V11.858H16.4973H16.5H16.5027H32.5V28.497C32.5 29.426 32.131 30.317 31.474 30.974C30.817 31.631 29.926 32 28.997 32H4.00297C3.07391 32 2.18293 31.631 1.52599 30.974C0.869061 30.317 0.5 29.426 0.5 28.497ZM31.9021 8.78107H18.0385V0H25.4041C26.8308 0 28.1298 0.821814 28.7407 2.11094L31.9021 8.78107ZM23.516 17.7222C24.1273 16.9062 23.9614 15.7491 23.1453 15.1378C22.3293 14.5265 21.1722 14.6925 20.5609 15.5086L15.0248 22.899L12.0684 20.6843C11.2523 20.0731 10.0953 20.239 9.48398 21.0551C8.87268 21.8711 9.03866 23.0282 9.85471 23.6394L14.2887 26.961C14.6806 27.2544 15.173 27.3804 15.6577 27.3108C16.1423 27.2414 16.5796 26.9822 16.8731 26.5903L23.516 17.7222Z" fill="url(#paint0_linear_2816_644)"/>
<defs>
<linearGradient id="paint0_linear_2816_644" x1="35.2742" y1="38.7766" x2="-7.88892" y2="8.11815" gradientUnits="userSpaceOnUse">
<stop stop-color="#FFD600"/>
<stop offset="1" stop-color="#FF007A"/>
</linearGradient>
</defs>
</svg>
