<svg width="40" height="40" viewBox="0 0 40 40" fill="none" xmlns="http://www.w3.org/2000/svg">
<g id="Angry">
<g id="gold">
<path id="face" d="M20 40C10.3793 40 0 33.7388 0 20C0 6.26118 10.3793 0 20 0C25.3448 0 30.2759 1.82469 33.931 5.15206C37.8966 8.80143 40 13.9535 40 20C40 26.0465 37.8966 31.1628 33.931 34.8122C30.2759 38.1395 25.3103 40 20 40Z" fill="url(#paint0_radial_526_25140)"/>
<path id="Vector" d="M36.514 10.7681C38.3519 13.5886 39.3106 16.947 39.3106 20.6825C39.3106 26.2251 37.2071 30.9151 33.2416 34.2603C29.5864 37.3104 24.6209 39.0158 19.3106 39.0158C13.083 39.0158 6.55195 36.6053 2.69678 31.4923C6.40712 37.2842 13.3864 39.9997 20.0002 39.9997C25.3106 39.9997 30.2761 38.2943 33.9313 35.2442C37.8968 31.899 40.0002 27.209 40.0002 21.6664C40.0002 17.4881 38.8037 13.7755 36.514 10.7681Z" fill="#EB8F00"/>
</g>
<g id="facial_expressions">
<g id="angry-face">
<path id="mouth" d="M27.0135 31.5326C26.8962 31.49 26.7893 31.4211 26.7066 31.3293C23.3514 28.0136 17.8031 27.9119 14.3169 31.103C14.2376 31.1784 14.1549 31.2539 14.079 31.3293C13.9962 31.4211 13.8893 31.49 13.7721 31.5326C13.5135 31.6245 13.2204 31.572 13.0135 31.3982C12.81 31.2276 12.7411 30.9554 12.8445 30.716C13.8721 28.2071 16.9273 26.2393 20.3928 26.2393C23.8583 26.2393 26.9135 28.2071 27.9411 30.7127C28.0445 30.9521 27.9755 31.2243 27.7721 31.3949C27.5652 31.5687 27.2721 31.6212 27.0135 31.5326Z" fill="#422B0D"/>
<g id="eyes">
<path id="eye-l" d="M18.1172 20.275C17.3448 19.3501 14.162 17.5726 13.0137 17.0544C12.5861 16.8674 12.1413 16.7166 11.6861 16.6051C11.6034 16.5821 11.5137 16.5723 11.4275 16.5723C10.9689 16.5821 10.5758 16.8937 10.4827 17.3233C10.3758 17.7693 10.6172 18.2285 11.0586 18.4122C11.5999 18.6647 12.5448 19.1435 13.5241 19.6716C12.7068 20.134 12.2068 20.9736 12.2068 21.8788V22.3576C12.2068 23.7154 13.3654 24.8173 14.793 24.8173C16.2206 24.8173 17.3792 23.7154 17.3792 22.3576V21.8788C17.3792 21.8591 17.3792 21.8427 17.3792 21.823C17.7482 21.8001 18.0792 21.5902 18.2413 21.2753C18.4103 20.9473 18.362 20.5571 18.1172 20.275Z" fill="#422B0D"/>
<path id="eye-r" d="M30.3178 17.3216C30.2212 16.8887 29.8212 16.5804 29.3557 16.5771C29.2695 16.5771 29.1798 16.587 29.0971 16.6099C28.6419 16.7182 28.1971 16.869 27.7695 17.0527C26.6212 17.5643 23.4384 19.3485 22.666 20.2668C22.4212 20.5521 22.3798 20.9457 22.5522 21.2736C22.7178 21.5918 23.0453 21.7984 23.4178 21.8213C23.4178 21.841 23.4178 21.8574 23.4178 21.8771V22.3559C23.4178 23.7137 24.5764 24.8157 26.004 24.8157C27.4315 24.8157 28.5902 23.7137 28.5902 22.3559V21.8771C28.5902 20.9752 28.0902 20.1389 27.2764 19.6764C28.2557 19.1484 29.2005 18.6696 29.7419 18.417C30.1867 18.2334 30.4315 17.7709 30.3178 17.3216Z" fill="#422B0D"/>
</g>
</g>
<g id="peepers">
<path id="Vector_2" d="M14.6629 20.1544C14.1732 19.9314 13.5835 20.1282 13.3456 20.5939C13.1629 20.9579 13.2456 21.3941 13.5525 21.6762C14.0422 21.8992 14.6318 21.7024 14.8698 21.2367C15.0525 20.8727 14.9698 20.4365 14.6629 20.1544Z" fill="#896024"/>
</g>
<g id="peepers-2">
<path id="Vector_3" d="M25.8723 20.1544C25.3827 19.9314 24.793 20.1282 24.5551 20.5939C24.3723 20.9579 24.4551 21.3941 24.762 21.6762C25.2516 21.8992 25.8413 21.7024 26.0792 21.2367C26.262 20.8727 26.1792 20.4365 25.8723 20.1544Z" fill="#896024"/>
</g>
</g>
</g>
<defs>
<radialGradient id="paint0_radial_526_25140" cx="0" cy="0" r="1" gradientUnits="userSpaceOnUse" gradientTransform="translate(20 20) scale(19.6413 20.3791)">
<stop offset="0.5" stop-color="#FDE030"/>
<stop offset="0.92" stop-color="#F7C02B"/>
<stop offset="1" stop-color="#F4A223"/>
</radialGradient>
</defs>
</svg>
