<svg width="40" height="40" viewBox="0 0 40 40" fill="none" xmlns="http://www.w3.org/2000/svg">
<g id="Clap" clip-path="url(#clip0_911_21987)">
<g id="Clap ICon">
<g id="Group">
<path id="Vector" d="M14.2883 10.469C13.7095 9.42692 12.6544 7.528 13.6301 6.25765C14.5 5.12624 15.9885 5.49014 17.1858 6.7241L17.887 7.48499C17.887 7.48499 17.295 5.30819 19.0249 4.71602C20.1858 4.31903 21.1484 4.73918 22.7063 6.60832C25.5144 9.97608 31.4715 20.2547 31.4715 20.2547C31.7493 20.7112 32.0238 21.1248 32.2256 21.0553C32.3877 20.9991 32.8276 19.3813 32.8276 19.3813C32.7945 17.1516 32.9566 14.5613 33.7339 13.1354C34.531 11.6732 35.9698 11.1439 36.9721 11.4681C37.8486 11.7526 38.3083 12.4407 38.0305 13.9691C37.7957 15.2659 37.7262 18.5642 38.0073 21.7831C38.2323 24.3668 38.3381 26.0474 38.1496 28.1216C37.789 32.0617 36.2311 35.9522 31.746 38.3142C29.2686 39.621 26.6126 39.8823 24.1418 39.4854C24.1385 39.4887 14.5133 10.8726 14.2883 10.469Z" fill="#D69513"/>
<path id="Vector_2" d="M24.3173 16.82C23.4011 14.7957 22.3559 13.2378 21.2048 11.4748C20.3846 10.2179 18.9457 8.10768 18.4992 7.04924C18.1916 6.32156 18.1982 5.73942 18.2379 5.4285C18.2478 5.36235 18.1618 5.32927 18.1221 5.3822C17.7583 5.90811 17.5665 6.76148 17.9402 7.67769C18.5124 9.06689 19.7429 10.8398 20.5764 12.1132C21.7936 13.9754 22.6437 15.3315 23.421 17.2037L24.6911 18.1629C24.6944 18.1662 24.658 17.5774 24.3173 16.82Z" fill="#FFB300"/>
</g>
<path id="Vector_3" d="M16.0116 37.9786C15.1252 37.4096 12.7999 35.6695 10.3027 32.9501C6.59811 28.9141 4.80207 24.7457 4.04793 23.1809C3.32356 21.6757 3.14495 19.8893 4.01155 19.2772C4.9873 18.5891 5.89359 19.2806 5.89359 19.2806C5.05345 17.9672 4.50769 16.6737 4.36546 15.625C4.17031 14.1627 5.06006 13.4846 5.22214 13.3952C5.98951 12.9718 6.68411 13.5143 6.68411 13.5143C6.68411 13.5143 5.7679 12.2274 5.53305 10.8512C5.38752 10.0043 5.70505 9.13095 6.42281 8.63472C7.3324 8.00947 8.19239 8.19142 9.53529 9.37576L10.081 9.79259C10.081 9.79259 9.82966 9.08794 9.82636 8.3436C9.82305 7.66541 10.1472 6.90452 10.941 6.59686C11.9631 6.19987 12.7437 6.46122 14.1461 7.91022C15.403 9.21035 19.5805 13.521 22.4582 15.8499C24.4858 17.4941 26.7349 19.1317 27.8992 19.8264C28.2697 20.0481 28.5839 19.7536 28.4814 19.2309C27.843 16.0054 27.5949 13.5176 28.2035 11.6353C28.8121 9.74959 29.9731 8.72073 31.2796 8.82329C31.8948 8.87291 32.5068 9.24012 32.7714 9.9547C33.0062 10.5965 33.0128 11.665 33.0426 12.3432C33.1484 14.9666 35.3116 22.4961 35.7548 24.5671C36.6016 28.4972 36.2708 32.745 32.6358 36.3973C27.7636 41.3066 20.0172 40.5458 16.0116 37.9786Z" fill="#FFCA28"/>
<path id="Vector_4" d="M13.0341 29.0275C12.8985 29.4872 12.6471 30.0032 12.2965 29.7088C11.8169 29.3053 11.8831 28.8919 11.3472 28.3395C9.80589 26.7485 6.94479 22.6438 6.28657 21.0032C5.83343 19.872 5.89627 19.2832 5.89627 19.2832C5.89627 19.2832 9.62397 25.0054 12.9911 28.1377C13.2888 28.4156 13.0507 28.9745 13.0341 29.0275Z" fill="#D69513"/>
<path id="Vector_5" d="M15.0343 25.2222C14.5348 25.0304 14.4323 24.2597 14.0618 23.9025C12.246 22.1627 8.34627 17.3666 7.18529 15.1439C6.7123 14.2343 6.70568 13.8109 6.67261 13.5C6.67261 13.5 12.1368 20.3402 15.0508 22.9962C15.2361 23.1649 15.8182 23.3534 15.9439 23.6313C16.1853 24.1671 15.4378 25.3744 15.0343 25.2222Z" fill="#D69513"/>
<path id="Vector_6" d="M18.9223 19.2988C15.8198 16.7056 10.0215 9.76294 10.0215 9.76294C10.0215 9.76294 10.1406 10.7387 10.8319 11.8071C12.0325 13.6692 15.5155 17.989 17.8407 20.1853C18.2872 20.6086 18.2608 21.1279 18.7338 21.1676C19.2398 21.2106 19.8551 20.612 19.8881 20.1555C19.9179 19.7652 19.4383 19.7288 18.9223 19.2988Z" fill="#D69513"/>
<path id="Vector_7" d="M0 29.8799L4.22715 29.5789" stroke="#B0BEC5" stroke-width="0.624967" stroke-miterlimit="10" stroke-linecap="round" stroke-linejoin="round"/>
<path id="Vector_8" d="M8.41129 34.6804L7.02539 38.686" stroke="#B0BEC5" stroke-width="0.624967" stroke-miterlimit="10" stroke-linecap="round" stroke-linejoin="round"/>
<path id="Vector_9" d="M0.43042 36.2885L5.94093 32.4219" stroke="#B0BEC5" stroke-width="0.624967" stroke-miterlimit="10" stroke-linecap="round" stroke-linejoin="round"/>
<path id="Vector_10" d="M38.3584 4.96167L35.0938 7.664" stroke="#B0BEC5" stroke-width="0.624967" stroke-miterlimit="10" stroke-linecap="round" stroke-linejoin="round"/>
<path id="Vector_11" d="M28.7253 5.94666L27.5247 1.88159" stroke="#B0BEC5" stroke-width="0.624967" stroke-miterlimit="10" stroke-linecap="round" stroke-linejoin="round"/>
<path id="Vector_12" d="M34.2795 0L32.0469 6.34733" stroke="#B0BEC5" stroke-width="0.624967" stroke-miterlimit="10" stroke-linecap="round" stroke-linejoin="round"/>
<path id="Vector_13" d="M34.2114 17.7529C33.8211 16.1616 33.4308 14.4215 33.3051 13.2438C33.2059 12.3142 33.143 10.8056 33.0537 10.4748C32.7395 9.28386 32.0482 9.07544 32.0482 9.07544C32.0482 9.07544 32.4848 9.53528 32.4947 10.8089C32.5047 12.1587 32.5443 14.802 33.3183 17.7264C33.8277 19.6518 34.6546 22.4241 35.0317 24.6406C35.8288 29.3085 35.1011 32.5935 32.3128 36.0539C30.6954 38.0587 27.1992 39.5375 27.1992 39.5375C27.1992 39.5375 30.0735 39.3555 32.584 36.9405C35.9181 33.7316 37.1254 29.5698 36.0537 24.581C35.6899 22.8905 34.3371 18.269 34.2114 17.7529Z" fill="#D69513"/>
</g>
</g>
<defs>
<clipPath id="clip0_911_21987">
<rect width="40" height="40" fill="white"/>
</clipPath>
</defs>
</svg>
