<svg width="16" height="16" viewBox="0 0 16 16" fill="none" xmlns="http://www.w3.org/2000/svg">
<g id="Frame" clip-path="url(#clip0_838_7880)">
<g id="Group 15">
<path id="Vector" d="M5.17316 1.47513C5.13202 1.016 5.39469 0.685616 5.85861 0.612888L5.86749 0.611575C6.1831 0.564923 6.45154 0.677844 6.69461 0.806901C6.76549 0.844449 6.83532 0.883856 6.91726 0.930066L6.94712 0.946848L6.94621 0.909923C6.944 0.820061 6.94224 0.749104 6.94459 0.675754C6.95676 0.305907 7.138 0.0850879 7.49867 0.000576503C7.62479 -0.0321585 7.75679 -0.0357024 7.88453 -0.00978991C8.01227 0.0161352 8.13235 0.0708233 8.23556 0.150082C8.39805 0.27445 8.54981 0.412126 8.68924 0.561641C9.60377 1.55126 10.4576 2.59476 11.246 3.68646C11.2906 3.74397 11.3386 3.79875 11.3898 3.85049L11.4113 3.87317L11.4247 3.83414C11.4526 3.7542 11.476 3.68684 11.5002 3.61984C11.6797 3.08848 12.0434 2.63804 12.5263 2.34906C12.6649 2.26089 12.8249 2.21142 12.9894 2.20584C13.1539 2.20026 13.3169 2.23877 13.4614 2.31733C13.6067 2.40401 13.7259 2.52793 13.8066 2.67616C13.8873 2.82437 13.9264 2.99143 13.9199 3.15981C13.9162 3.28889 13.9012 3.41741 13.8751 3.54389C13.7666 4.12842 13.7745 4.72846 13.8982 5.31009C14.06 6.0866 14.1907 6.85955 14.3327 7.71695C14.3636 7.91063 14.3596 8.10821 14.3209 8.30047C14.1618 9.14639 13.7384 9.92081 13.1111 10.5134C12.9262 10.6868 12.8794 10.8281 12.9258 11.073L12.9371 11.133C13.0049 11.489 13.0754 11.8571 13.0237 12.2083C12.7955 13.7682 11.9745 14.8917 10.5825 15.5478C10.2533 15.7056 9.90239 15.8141 9.5412 15.8699C9.03532 15.9444 8.5189 15.8988 8.03401 15.737C7.45023 15.5492 6.90207 15.2658 6.41191 14.8988C5.69082 14.3683 5.00044 13.7979 4.34398 13.1901C3.57089 12.4637 2.95255 11.8277 2.44693 11.0841C2.1987 10.7319 1.98623 10.3562 1.81236 9.96241C1.54108 9.32067 1.74928 8.74568 2.38358 8.38416C2.40166 8.37229 2.41858 8.35867 2.43414 8.34356L2.44449 8.33461C2.43453 8.31815 2.42457 8.30169 2.4147 8.28506C2.36892 8.21208 2.327 8.13683 2.28898 8.05959C2.26441 8.00771 2.23871 7.95585 2.21288 7.90393C2.12551 7.74201 2.05472 7.57179 2.0018 7.39582C1.96566 7.27583 1.95505 7.1497 1.97061 7.02548C1.98616 6.90119 2.02738 6.78156 2.09187 6.67405C2.16498 6.56426 2.2598 6.47053 2.3706 6.3986C2.4814 6.32668 2.60579 6.2781 2.73628 6.2558L2.93003 6.21553C2.91675 6.1625 2.90328 6.11048 2.88981 6.05843C2.84915 5.9014 2.81064 5.75344 2.78406 5.60099C2.70627 5.1484 2.93318 4.79076 3.37627 4.66761C3.4597 4.64784 3.54527 4.63792 3.63111 4.6381C3.67685 4.63652 3.73691 4.63358 3.79439 4.62627L3.81027 4.62392C3.9393 4.60522 3.96903 4.58927 3.97485 4.58292C4.12862 4.27604 4.6532 3.9886 4.6532 3.9886C4.6532 3.9886 4.62738 3.93714 4.6147 3.91218C4.56836 3.8256 4.52762 3.73621 4.49265 3.64451L4.45972 3.55303C4.39072 3.38186 4.33987 3.204 4.30797 3.02236C4.2424 2.55031 4.52438 2.17276 5.00968 2.08324C5.08297 2.06966 5.15661 2.05944 5.23027 2.04937L5.25594 2.04557C5.24779 1.99372 5.23951 1.94344 5.23137 1.89357C5.20789 1.74882 5.18573 1.61231 5.17316 1.47513ZM10.7323 3.95545C10.3801 3.49823 10.0157 3.02542 9.64418 2.57162C9.2278 2.06295 8.78337 1.56249 8.35354 1.0784L8.13905 0.836779C8.04602 0.728657 7.93387 0.638413 7.80815 0.570489C7.70319 0.516343 7.60874 0.50999 7.54944 0.553286C7.49241 0.594846 7.47071 0.681806 7.48988 0.791847C7.52147 0.982233 7.58444 1.16614 7.67624 1.33616C7.84687 1.64045 8.03465 1.93494 8.23865 2.2182C8.54117 2.64269 8.85163 3.06763 9.15184 3.47862L9.16439 3.49581C9.35034 3.7504 9.53589 4.00525 9.72103 4.26035L9.73828 4.28403C9.80613 4.36078 9.85207 4.4542 9.87133 4.55459C9.87222 4.61198 9.86023 4.66883 9.83622 4.721C9.81221 4.77319 9.7768 4.81938 9.73257 4.85621C9.65717 4.91338 9.47879 4.87735 9.41491 4.81001C9.24812 4.6346 9.09435 4.44739 8.95482 4.24984C8.37331 3.42361 7.64846 2.58447 6.67372 1.609C6.51664 1.46108 6.32952 1.34833 6.12502 1.27826C6.00199 1.23382 5.90497 1.23377 5.85883 1.27832C5.81522 1.32049 5.81221 1.41025 5.85035 1.52416C5.95556 1.86537 6.10437 2.19177 6.29318 2.49531C6.97222 3.51801 7.75183 4.47103 8.62044 5.34033L8.65443 5.37429C8.67938 5.39914 8.70442 5.42411 8.72798 5.45005L8.74431 5.46795C8.83195 5.56365 8.96433 5.7083 8.83815 5.89202C8.78591 5.9757 8.70475 6.03757 8.6099 6.06605C8.51505 6.09444 8.41302 6.08752 8.32292 6.04644C8.18541 5.98857 8.06401 5.89853 7.96906 5.7839C7.3258 4.98607 6.6423 4.13512 5.97953 3.27472C5.7669 2.99918 5.56235 2.83376 5.31526 2.73858C5.15073 2.67515 5.06394 2.68019 5.01582 2.75631C4.96794 2.84502 4.9568 2.94879 4.98464 3.04559C5.06493 3.26516 5.16667 3.47638 5.28832 3.67625C5.33064 3.74186 5.3964 3.78898 5.47241 3.80801C5.90082 3.87178 6.2017 4.12762 6.43947 4.36913C7.27448 5.21845 8.13284 6.10039 8.98992 6.99061C9.14735 7.15426 9.29495 7.32803 9.45214 7.51298C9.50089 7.57032 9.55066 7.62893 9.6021 7.68884L9.65192 7.46736C9.77797 6.92402 10.0739 6.43448 10.4972 6.06901C10.874 5.73006 11.2373 5.65145 11.6076 5.82906C12.0109 6.02239 12.2106 6.36174 12.201 6.83756C12.198 6.98882 12.1914 7.14224 12.1849 7.29535C12.1756 7.5138 12.166 7.7398 12.1672 7.96151C12.1696 8.39382 12.2914 8.79545 12.4207 9.22149C12.4878 9.44283 12.557 9.67131 12.609 9.90708L12.616 9.9039C12.6445 9.89404 12.6711 9.87916 12.6945 9.86012C13.1982 9.29357 13.4867 8.74454 13.5777 8.18139C13.6342 7.83154 13.5832 7.46168 13.5161 7.04915C13.4499 6.64168 13.3546 6.23147 13.2625 5.83471C13.2316 5.70136 13.2007 5.56808 13.1707 5.43459C13.0018 4.74027 12.9883 4.01758 13.1313 3.31766L13.1407 3.27448C13.1832 3.08381 13.2232 2.90364 13.0445 2.81333C12.988 2.78329 12.9234 2.77205 12.8601 2.7813C12.7555 2.79676 12.6414 2.86929 12.5209 2.99693C11.9937 3.55562 11.8647 4.07458 12.1155 4.63006C12.179 4.77067 12.229 4.94922 12.0497 5.08261C11.9597 5.14957 11.7762 5.22834 11.5578 5.00353C11.4677 4.90688 11.3838 4.80477 11.3064 4.69778C11.2785 4.66099 11.2507 4.62448 11.2229 4.5879C11.0604 4.3797 10.8987 4.17074 10.7378 3.96102L10.7323 3.95545ZM12.1906 11.2075C12.1553 11.0651 12.1153 10.9036 12.0692 10.7451C11.9387 10.2984 11.8028 9.84501 11.6714 9.40666L11.5325 8.94246C11.3538 8.33061 11.2968 7.69003 11.3647 7.05655L11.3665 7.03798C11.3867 6.88824 11.3894 6.73666 11.3746 6.58625C11.3732 6.5471 11.363 6.50866 11.3445 6.47404C11.3261 6.43941 11.2999 6.40933 11.2681 6.38625C11.2297 6.36984 11.188 6.36215 11.1462 6.3638C11.1044 6.36554 11.0635 6.37647 11.0265 6.39587C10.9608 6.42166 10.8983 6.45484 10.8402 6.49472C10.3145 6.85649 10.0792 7.76996 10.365 8.33892C10.4735 8.55485 10.5604 8.77747 10.334 8.91937C10.1604 9.02817 9.94809 8.96899 9.75147 8.75615C9.51201 8.49695 9.27389 8.23384 9.04366 7.98002C8.66886 7.56687 8.28195 7.13951 7.89035 6.72914C7.2317 6.03898 6.54774 5.36196 5.84657 4.67141C5.72863 4.55552 5.58627 4.46714 5.42986 4.41269C5.39462 4.39627 5.35554 4.38953 5.31682 4.39312C5.27809 4.3967 5.24096 4.4105 5.20941 4.43311C5.18339 4.46276 5.1656 4.4987 5.1579 4.53734C5.15013 4.57598 5.15277 4.61596 5.16543 4.65328C5.20282 4.84215 5.27334 5.02301 5.37376 5.1876C5.58278 5.51252 5.81118 5.82472 6.05769 6.12254C6.45168 6.59614 6.85968 7.07174 7.25459 7.53209C7.45026 7.76011 7.64569 7.9884 7.84078 8.21695C7.85235 8.23051 7.86499 8.24428 7.87773 8.25818C7.93928 8.31245 7.98305 8.38388 8.00334 8.46314C8.02333 8.58462 7.99766 8.70915 7.93126 8.81301C7.91241 8.8393 7.88788 8.86115 7.85948 8.87691C7.83106 8.8926 7.79945 8.90186 7.76705 8.90399C7.72295 8.90399 7.67944 8.89456 7.63926 8.87648C7.59915 8.8584 7.56331 8.83205 7.53417 8.79915C7.49949 8.76359 7.46461 8.72821 7.42959 8.69291C7.29733 8.55942 7.16072 8.42138 7.03947 8.27292C6.35518 7.43498 5.54298 6.62647 4.40557 5.65185C4.20927 5.4933 3.9798 5.38049 3.73387 5.32179C3.60935 5.28994 3.51543 5.29798 3.47586 5.34378C3.43619 5.38959 3.442 5.48374 3.49212 5.60158C3.62841 5.94534 3.80556 6.27163 4.01991 6.57346C4.73011 7.50999 5.58396 8.41002 6.70636 9.40577C6.72982 9.4266 6.7539 9.44661 6.78131 9.46939C6.81441 9.49689 6.84758 9.52444 6.87914 9.55358L6.8902 9.56373C6.99933 9.66403 7.14878 9.80136 7.02758 10.0178C6.97116 10.1062 6.88633 10.173 6.7868 10.2074C6.68734 10.2417 6.57908 10.2416 6.47969 10.2068C6.33192 10.1464 6.19779 10.0572 6.08512 9.94465C5.48697 9.33113 4.89105 8.70759 4.31369 8.0913C4.15343 7.92021 4.00455 7.73485 3.85913 7.55373C3.81629 7.50039 3.77337 7.44723 3.73033 7.39408C3.54722 7.16893 3.29614 7.00831 3.01424 6.936C2.8836 6.89972 2.77913 6.89419 2.69381 6.98536C2.61475 7.0699 2.61303 7.17206 2.68864 7.28881C2.75715 7.39459 2.82372 7.50251 2.8906 7.61099C3.06898 7.92125 3.27549 8.21474 3.50755 8.48778C3.89813 8.91809 4.32212 9.33122 4.73223 9.73077L4.73982 9.73818C4.93793 9.93123 5.14267 10.1307 5.34118 10.3298C5.53634 10.5256 5.71775 10.723 5.88056 10.9171C5.95637 11.0074 6.02803 11.1391 6.00191 11.2383C5.96427 11.3809 5.88037 11.5071 5.76314 11.5974C5.66718 11.665 5.46035 11.5332 5.39806 11.4715C5.14707 11.2229 4.8987 10.9664 4.65852 10.7183C4.50099 10.5555 4.34296 10.3932 4.18444 10.2314L4.04364 10.0879C3.83112 9.87034 3.61125 9.6453 3.37791 9.44625C3.22139 9.31828 3.04205 9.22065 2.84931 9.1585C2.81312 9.14124 2.77322 9.13253 2.73313 9.13313C2.69302 9.13365 2.65351 9.14341 2.61787 9.16165C2.56648 9.19822 2.53923 9.27548 2.53874 9.3851C2.53791 9.54856 2.57583 9.70994 2.64938 9.85618C2.82166 10.1879 3.01467 10.5086 3.22707 10.8164C3.71804 11.5258 4.29373 12.1735 4.94146 12.745L4.96876 12.7688C5.05997 12.8435 5.14394 12.9266 5.21939 13.0171C5.69638 13.6265 6.33369 14.0777 6.95014 14.514L6.96965 14.5278C7.40965 14.8322 7.90688 15.045 8.43155 15.1536C8.99775 15.2779 9.58258 15.1848 10.2193 14.8694C11.3276 14.3202 11.9947 13.4202 12.2588 12.1175L12.2624 12.0998C12.2778 12.0382 12.2856 11.9747 12.2855 11.9111C12.2793 11.7999 12.267 11.6882 12.2523 11.5591L12.2504 11.5421C12.2446 11.4898 12.2384 11.4343 12.2332 11.3802C12.2198 11.328 12.2056 11.2711 12.1908 11.2111L12.2276 11.2022L12.1906 11.2075Z" fill="#F1F1F1" fill-opacity="0.945098"/>
<path id="Vector_2" d="M0.571533 12.3351L2.18188 12.2205" stroke="#F1F1F1" stroke-width="0.624967" stroke-miterlimit="10" stroke-linecap="round" stroke-linejoin="round"/>
<path id="Vector_3" d="M3.77576 14.1638L3.2478 15.6897" stroke="#F1F1F1" stroke-width="0.624967" stroke-miterlimit="10" stroke-linecap="round" stroke-linejoin="round"/>
<path id="Vector_4" d="M0.735352 14.7765L2.83459 13.3035" stroke="#F1F1F1" stroke-width="0.624967" stroke-miterlimit="10" stroke-linecap="round" stroke-linejoin="round"/>
<path id="Vector_5" d="M15.5652 1.3186L14.3215 2.34806" stroke="#F1F1F1" stroke-width="0.624967" stroke-miterlimit="10" stroke-linecap="round" stroke-linejoin="round"/>
<path id="Vector_6" d="M11.8954 1.69386L11.438 0.145264" stroke="#F1F1F1" stroke-width="0.624967" stroke-miterlimit="10" stroke-linecap="round" stroke-linejoin="round"/>
<path id="Vector_7" d="M14.0112 -0.571533L13.1606 1.8465" stroke="#F1F1F1" stroke-width="0.624967" stroke-miterlimit="10" stroke-linecap="round" stroke-linejoin="round"/>
</g>
</g>
<defs>
<clipPath id="clip0_838_7880">
<rect width="16" height="16" fill="white"/>
</clipPath>
</defs>
</svg>
