<svg width="40" height="41" viewBox="0 0 40 41" fill="none" xmlns="http://www.w3.org/2000/svg">
<g id="Frame 263" clip-path="url(#clip0_1330_33934)">
<path id="face" d="M20 39.4075C10.3793 39.4075 0 33.3731 0 20.1317C0 6.89041 10.3793 0.855957 20 0.855957C25.3448 0.855957 30.2759 2.61457 33.931 5.82145C37.8966 9.33868 40 14.3042 40 20.1317C40 25.9593 37.8966 30.8903 33.931 34.4075C30.2759 37.6144 25.3103 39.4075 20 39.4075Z" fill="url(#paint0_radial_1330_33934)"/>
<g id="details">
<path id="Vector" d="M31.2005 13.3461C30.2824 12.9844 29.2412 13.3526 28.7522 14.2076C26.7014 17.2234 24.2248 19.9269 21.4005 22.236C18.5979 24.5714 15.4739 26.4906 12.1241 27.9325C11.1945 28.2484 10.6334 29.1983 10.8124 30.1656C10.9997 31.1217 11.8898 31.6747 12.7377 32.0854C17.4903 34.4017 23.0479 33.5491 27.6118 29.8041L27.6539 29.7694C32.2071 26.0112 34.0868 20.7029 32.7161 15.5952C32.4666 14.6817 32.1037 13.7113 31.2005 13.3461Z" fill="#422B0D"/>
<path id="Vector_2" d="M30.9815 25.2612C30.8102 25.2521 30.6429 25.253 30.4668 25.2435C28.6132 25.185 26.8043 25.824 25.3964 27.0347C23.903 28.2275 22.8727 29.901 22.4829 31.7715C22.4503 31.9356 22.4101 32.1014 22.3975 32.2845C22.3848 32.4675 22.393 32.5846 22.4015 32.7236C24.3161 32.0947 26.0973 31.1112 27.6463 29.8194L27.6884 29.7847C29.178 28.5551 30.4351 27.0706 31.3977 25.3955C31.2625 25.339 31.1237 25.2942 30.9815 25.2612Z" fill="#ED7770"/>
<path id="Vector_3" d="M28.7552 14.2075C26.7044 17.2232 24.2278 19.9268 21.4035 22.2358C18.6009 24.5712 15.4769 26.4905 12.1271 27.9324C11.1975 28.2483 10.6364 29.1982 10.8154 30.1655C10.8453 30.309 10.8901 30.449 10.9528 30.5787C11.0766 30.5517 11.2136 30.5139 11.3711 30.4635C15.8498 29.435 20.0175 27.349 23.5252 24.3829C26.9556 21.6179 29.7034 18.1064 31.5687 14.1154C31.6489 13.9607 31.7103 13.8259 31.7633 13.7025C31.601 13.5488 31.4067 13.426 31.1992 13.3407C30.2833 12.9816 29.2421 13.3499 28.7552 14.2075Z" fill="white"/>
<g id="eyes">
<path id="Vector_4" d="M24.1125 12.329C24.1125 12.329 28.7412 8.73797 33.2393 10.5394C35.1249 11.2979 37.0436 13.5543 36.1623 15.6753C35.108 18.2537 32.1401 18.256 30.6429 16.8897C26.5856 13.1797 24.1125 12.329 24.1125 12.329Z" fill="#29B6F6"/>
<path id="Vector_5" d="M35.305 13.7517C35.3886 14.2185 35.1098 14.6792 34.6552 14.8277C34.2165 14.9192 33.8171 14.6012 33.4913 14.3021L32.483 13.3726C32.0792 13.0057 30.5373 12.0086 30.8108 11.4161C31.0295 10.9475 32.1136 10.8584 32.5428 10.9677C33.5016 11.2269 35.1726 12.8334 35.305 13.7517Z" fill="#81D4FA"/>
<path id="Vector_6" d="M30.818 11.4273C31.0369 10.9586 32.1216 10.8695 32.5511 10.9788C33.4997 11.2249 35.1717 12.8318 35.3041 13.7502C35.3878 14.2171 35.1088 14.678 34.654 14.8264C34.215 14.918 33.8154 14.6 33.4893 14.3007L32.4804 13.3711" fill="#81D4FA"/>
<path id="Vector_7" d="M12.0026 22.3592C12.0026 22.3592 7.57577 26.1967 8.45704 30.9651C8.81902 32.9515 10.6573 35.2563 12.9034 34.8294C15.6363 34.301 16.2214 31.3887 15.177 29.651C12.3502 24.9534 12.0026 22.3592 12.0026 22.3592Z" fill="#29B6F6"/>
<path id="Vector_8" d="M11.212 33.6286C11.6538 33.8022 12.1608 33.6196 12.3957 33.2035C12.5718 32.7918 12.3381 32.3382 12.1084 31.9602L11.3942 30.7901C11.1133 30.3225 10.4374 28.6164 9.80216 28.7679C9.29923 28.8901 8.99888 29.9345 9.02184 30.3764C9.08796 31.3664 10.3367 33.3186 11.212 33.6286Z" fill="#81D4FA"/>
<path id="Vector_9" d="M9.13353 24.6647L11.864 21.3882L7.41437 22.7628L7.25354 22.7943C6.47768 22.9588 5.72874 22.4665 5.57672 21.6939C5.54088 21.5088 5.54179 21.3198 5.57843 21.1364C5.78216 20.2992 6.4844 19.6698 7.33933 19.5584L15.7762 18.3186C15.9433 18.2296 16.1497 18.292 16.2361 18.4574C16.3102 18.6023 16.2714 18.783 16.1417 18.8852L11.8946 26.1352C11.8649 26.1858 11.8353 26.2365 11.8013 26.2819C11.1842 27.1566 9.92909 27.4303 9.18542 26.776C8.62138 26.2762 8.63408 25.3683 9.13353 24.6647Z" fill="#422B0D"/>
<path id="Vector_10" d="M25.8814 10.7535L22.1402 12.7938L24.3588 8.69016L24.4211 8.53825C24.7345 7.80796 24.4 6.97511 23.6741 6.67393C23.5001 6.60235 23.315 6.56612 23.1285 6.56613C22.2696 6.60194 21.5159 7.16854 21.2391 7.987L18.3692 16.0363C18.2717 16.1995 18.3269 16.4082 18.4865 16.5003C18.596 16.5636 18.7319 16.5614 18.8409 16.4937L26.7689 13.7458C26.8242 13.7266 26.8796 13.7073 26.9307 13.6829C27.9075 13.2481 28.4218 12.0682 27.9279 11.2087C27.5583 10.5666 26.6677 10.4008 25.8814 10.7535Z" fill="#422B0D"/>
</g>
</g>
</g>
<defs>
<radialGradient id="paint0_radial_1330_33934" cx="0" cy="0" r="1" gradientUnits="userSpaceOnUse" gradientTransform="translate(20 20.1317) scale(19.6413 19.6412)">
<stop offset="0.5" stop-color="#FDE030"/>
<stop offset="0.92" stop-color="#F7C02B"/>
<stop offset="1" stop-color="#F4A223"/>
</radialGradient>
<clipPath id="clip0_1330_33934">
<rect width="40" height="40" fill="white" transform="translate(0 0.855957)"/>
</clipPath>
</defs>
</svg>
