<svg width="13" height="11" viewBox="0 0 13 11" fill="none" xmlns="http://www.w3.org/2000/svg">
<g id="Heart">
<path id="Vector" d="M9.49505 0C7.30404 0 6.49904 2.23717 6.49904 2.23717C6.49904 2.23717 5.70503 0 3.49902 0C1.84101 0 -0.0489981 1.31293 0.649006 4.29748C1.34701 7.28204 6.50504 11 6.50504 11C6.50504 11 11.6441 7.28204 12.3431 4.29748C13.0411 1.31293 11.2871 0 9.49505 0Z" fill="#F44336"/>
<g id="Group">
<path id="Vector_2" d="M3.16095 0.222818C4.88096 0.222818 5.73496 2.07031 6.01096 2.81869C6.04996 2.92561 6.19896 2.9286 6.24396 2.82469L6.49596 2.23617C6.14096 1.1031 5.16496 0 3.49895 0C2.80895 0 2.07994 0.227814 1.51294 0.70842C2.01394 0.379689 2.60094 0.222818 3.16095 0.222818Z" fill="#CC3333"/>
<path id="Vector_3" d="M9.4949 0C8.9659 0 8.48389 0.114906 8.10789 0.346716C8.37189 0.2448 8.69889 0.222818 9.0229 0.222818C10.6439 0.222818 12.0949 1.45081 11.4399 4.28949C10.8779 6.7265 7.59389 9.68308 6.59088 10.8112C6.52688 10.8831 6.50488 10.999 6.50488 10.999C6.50488 10.999 11.6439 7.28104 12.3429 4.29648C13.0409 1.31293 11.2899 0 9.4949 0Z" fill="#CC3333"/>
</g>
<g id="Group_2">
<g id="Group_3">
<g id="Group_4">
<path id="Vector_4" d="M1.80001 1.58381C2.17501 1.11619 2.84501 0.729508 3.41302 1.17514C3.72002 1.41595 3.58602 1.90954 3.31102 2.11737C2.91101 2.42112 2.56301 2.60397 2.31901 3.07959C2.17301 3.36535 2.08501 3.6781 2.04001 3.99683C2.02201 4.12273 1.85701 4.15371 1.79501 4.0428C1.37301 3.29541 1.25301 2.26625 1.80001 1.58381Z" fill="#FF8A80"/>
</g>
</g>
</g>
<path id="Vector_5" d="M7.81192 2.5668C7.63592 2.5668 7.51192 2.39694 7.57592 2.23307C7.69492 1.93132 7.84892 1.63956 8.03392 1.37977C8.30792 0.996084 8.82893 0.772267 9.15893 1.00508C9.49693 1.24288 9.45293 1.71849 9.21593 1.9483C8.70693 2.4409 8.06492 2.5668 7.81192 2.5668Z" fill="#FF8A80"/>
</g>
</svg>
