<svg width="16" height="15" viewBox="0 0 16 15" fill="none" xmlns="http://www.w3.org/2000/svg">
<path d="M7.03125 14.1562L6.96875 14.0625L1.5 9C0.53125 8.09375 0 6.84375 0 5.53125V5.4375C0 3.25 1.5625 1.34375 3.71875 0.9375C4.9375 0.6875 6.1875 0.96875 7.21875 1.6875C7.5 1.875 7.75 2.125 8 2.375C8.125 2.25 8.25 2.09375 8.40625 1.96875C8.53125 1.875 8.65625 1.78125 8.78125 1.6875C9.78125 0.96875 11.0312 0.6875 12.25 0.9375C14.4375 1.34375 16 3.25 16 5.4375V5.53125C16 6.84375 15.4375 8.09375 14.4688 9L9 14.0625L8.9375 14.1562C8.6875 14.375 8.34375 14.5312 8 14.5312C7.625 14.5312 7.3125 14.375 7.03125 14.1562ZM7.46875 4.03125C7.4375 4.03125 7.4375 4.03125 7.4375 4L6.875 3.375C6.15625 2.5625 5.0625 2.21875 4 2.40625C2.53125 2.6875 1.5 3.96875 1.5 5.4375V5.53125C1.5 6.4375 1.84375 7.28125 2.5 7.875L8 12.9688L13.4688 7.875C14.125 7.28125 14.5 6.4375 14.5 5.53125V5.4375C14.5 3.96875 13.4375 2.6875 11.9688 2.40625C10.9062 2.21875 9.8125 2.5625 9.09375 3.375L8.53125 4C8.53125 4.03125 8.53125 4.03125 8.5 4.0625C8.375 4.1875 8.1875 4.28125 8 4.28125C7.78125 4.28125 7.59375 4.1875 7.46875 4.0625V4.03125Z" fill="#FFF"/>
</svg>
