<svg width="40" height="40" viewBox="0 0 40 40" fill="none" xmlns="http://www.w3.org/2000/svg">
<g id="Lovely">
<path id="face" d="M19.9997 39.9997C10.3792 39.9997 0 33.7386 0 19.9998C0 6.26113 10.3792 0 19.9997 0C25.3445 0 30.2755 1.82467 33.9306 5.15202C37.8961 8.80136 39.9995 13.9534 39.9995 19.9998C39.9995 26.0463 37.8961 31.1625 33.9306 34.8119C30.2755 38.1392 25.31 39.9997 19.9997 39.9997Z" fill="url(#paint0_radial_526_25105)"/>
<path id="Vector" d="M36.5138 8.11133C38.3517 11.1882 39.3103 14.8519 39.3103 18.927C39.3103 24.9735 37.2069 30.0897 33.2415 33.739C29.5863 37.0664 24.6209 38.9268 19.3106 38.9268C13.0831 38.9268 6.55215 36.2972 2.69702 30.7194C6.40732 37.0378 13.3865 40.0002 20.0002 40.0002C25.3105 40.0002 30.276 38.1397 33.9311 34.8124C37.8966 31.163 40 26.0468 40 20.0003C40 15.4422 38.8035 11.3922 36.5138 8.11133Z" fill="#EB8F00"/>
<g id="smiling-face-with-heart-eyes">
<path id="mouth" d="M20.2757 27.3023C19.0413 27.3023 17.8171 27.0876 16.6551 26.6583C15.2241 26.1466 13.6689 26.9373 13.1758 28.4185C12.8965 29.2557 13.0103 30.1788 13.4827 30.9158C14.9654 33.2772 17.3102 34.5652 20.2757 34.5652C23.2412 34.5652 25.586 33.2772 27.0687 30.9158C27.9067 29.61 27.5618 27.8461 26.3032 26.9767C25.5929 26.4865 24.7033 26.3685 23.8964 26.6583C22.7343 27.0876 21.5102 27.3023 20.2757 27.3023Z" fill="#422B0D"/>
<g id="blush">
<path id="Vector_2" opacity="0.8" d="M9.86155 29.4146C13.1943 29.4146 15.896 26.7716 15.896 23.5113C15.896 20.2509 13.1943 17.6079 9.86155 17.6079C6.52884 17.6079 3.82715 20.2509 3.82715 23.5113C3.82715 26.7716 6.52884 29.4146 9.86155 29.4146Z" fill="url(#paint1_radial_526_25105)"/>
<path id="Vector_3" opacity="0.8" d="M30.688 29.4146C34.0207 29.4146 36.7224 26.7716 36.7224 23.5113C36.7224 20.2509 34.0207 17.6079 30.688 17.6079C27.3553 17.6079 24.6536 20.2509 24.6536 23.5113C24.6536 26.7716 27.3553 29.4146 30.688 29.4146Z" fill="url(#paint2_radial_526_25105)"/>
</g>
</g>
<path id="Vector_4" d="M35.1682 9.79245C32.3372 8.96598 30.258 11.3667 30.258 11.3667C30.258 11.3667 30.0166 8.64398 27.5959 7.78889C24.6925 6.75491 21.627 8.40069 21.4443 12.669C21.2374 17.5312 27.4373 23.914 27.4373 23.914C27.4373 23.914 35.1338 21.7673 37.6544 17.2164C39.7061 13.5134 37.3096 10.415 35.1682 9.79245Z" fill="#F44336"/>
<path id="Vector_5" d="M35.168 9.79037C34.8197 9.69377 34.4611 9.65084 34.1025 9.65799C35.1163 10.3628 35.9197 11.3467 36.4197 12.4988C36.9059 13.7116 37.0335 15.2787 36.1093 17.1499C34.1059 21.2178 27.937 23.7366 27.4888 23.9119C28.0508 23.7473 35.2438 21.6007 37.6679 17.225C39.7059 13.5113 37.3093 10.4129 35.168 9.79037Z" fill="#C62828"/>
<path id="Vector_6" d="M30.2552 11.8068C30.2345 11.4348 30.1794 11.0627 30.0966 10.6977C29.8966 9.64586 29.269 8.73352 28.3725 8.19327C27.7587 7.82118 27.0794 7.58505 26.376 7.49561C26.376 7.49561 27.4104 7.82118 28.1484 9.30597C28.5242 10.0859 28.7484 10.9374 28.8035 11.8068C28.8001 12.1253 28.8553 12.4365 28.9656 12.7335C29.0897 13.0304 29.3932 13.2058 29.7035 13.1557C30.1759 13.0304 30.2794 12.4186 30.2552 11.8068Z" fill="#C62828"/>
<path id="Vector_7" d="M23.5505 10.1007C24.1953 9.27069 25.2539 8.48 26.2677 9.20987C26.8056 9.59984 26.8125 10.7054 26.1539 11.2027C25.0436 12.0471 24.9919 12.6016 24.8677 13.0667C24.716 13.6213 24.6195 14.2832 24.1333 14.5622C23.6471 14.8413 23.2195 14.5622 22.9643 13.7644C22.5298 12.5193 22.7505 11.1311 23.5505 10.1007Z" fill="#FF847A"/>
<path id="Vector_8" d="M12.11 7.71699C9.3135 8.65795 8.86523 11.8529 8.86523 11.8529C8.86523 11.8529 7.21008 9.70624 4.72735 10.4003C1.76532 11.2089 0.0929272 14.3431 2.20669 17.996C4.65494 22.182 13.2203 23.9172 13.2203 23.9172C13.2203 23.9172 18.4789 17.7062 18.1479 12.4683C17.8755 8.20357 14.2238 7.00501 12.11 7.71699Z" fill="#F44336"/>
<path id="Vector_9" d="M12.1106 7.71701C11.7692 7.8315 11.4416 7.99608 11.1416 8.20359C12.3623 8.20717 13.5554 8.56495 14.5898 9.23757C15.645 9.95313 16.5864 11.1982 16.8208 13.2912C17.3277 17.8314 13.5347 23.4736 13.2416 23.885C13.6243 23.4271 18.4622 17.5023 18.145 12.4647C17.876 8.20359 14.2243 7.00503 12.1106 7.71701Z" fill="#C62828"/>
<path id="Vector_10" d="M9.10286 12.2289C8.88907 11.9248 8.6477 11.6457 8.37874 11.3953C7.65461 10.6296 6.65117 10.2217 5.62015 10.279C4.91326 10.3219 4.22017 10.5115 3.58569 10.8443C3.58569 10.8443 4.62016 10.5187 6.02704 11.3344C6.76151 11.7745 7.39944 12.3648 7.90978 13.0661C8.07529 13.3344 8.28908 13.5634 8.5408 13.7459C8.80287 13.9212 9.14769 13.889 9.37872 13.6707C9.68562 13.2843 9.44769 12.719 9.10286 12.2289Z" fill="#C62828"/>
<path id="Vector_11" d="M2.62021 14.6702C2.634 14.3696 2.68572 14.0727 2.77193 13.7864C2.91331 13.1854 3.32365 12.6881 3.87192 12.4483C4.3995 12.2766 5.13052 12.3983 5.41328 12.9457C5.665 13.4322 5.48224 14.019 5.34431 14.5557C5.22017 15.171 5.15121 15.8007 5.13742 16.4304C5.14087 16.9456 4.74432 17.3642 4.24777 17.3714C3.77881 17.3714 3.4133 16.9492 3.15124 16.5449C2.78572 15.9939 2.59952 15.3392 2.62021 14.6702Z" fill="#FF847A"/>
</g>
<defs>
<radialGradient id="paint0_radial_526_25105" cx="0" cy="0" r="1" gradientUnits="userSpaceOnUse" gradientTransform="translate(19.9997 19.9998) scale(19.641 20.379)">
<stop offset="0.5" stop-color="#FDE030"/>
<stop offset="0.92" stop-color="#F7C02B"/>
<stop offset="1" stop-color="#F4A223"/>
</radialGradient>
<radialGradient id="paint1_radial_526_25105" cx="0" cy="0" r="1" gradientUnits="userSpaceOnUse" gradientTransform="translate(9.86156 20.7959) scale(6.57643 6.12724)">
<stop stop-color="#ED7770"/>
<stop offset="0.9" stop-color="#ED7770" stop-opacity="0"/>
</radialGradient>
<radialGradient id="paint2_radial_526_25105" cx="0" cy="0" r="1" gradientUnits="userSpaceOnUse" gradientTransform="translate(40.5223 901.819) scale(6.71026 6.96238)">
<stop stop-color="#ED7770"/>
<stop offset="0.9" stop-color="#ED7770" stop-opacity="0"/>
</radialGradient>
</defs>
</svg>
