<svg width="40" height="40" viewBox="0 0 40 40" fill="none" xmlns="http://www.w3.org/2000/svg">
<g id="Sad">
<g id="gold">
<path id="face" d="M20 40C10.3793 40 0 33.7388 0 20C0 6.26118 10.3793 0 20 0C25.3448 0 30.2759 1.82469 33.931 5.15206C37.8966 8.80143 40 13.9535 40 20C40 26.0465 37.8966 31.1628 33.931 34.8122C30.2759 38.1395 25.3103 40 20 40Z" fill="url(#paint0_radial_526_25234)"/>
<path id="Vector" d="M36.514 10.7681C38.3519 13.5886 39.3106 16.947 39.3106 20.6825C39.3106 26.2251 37.2071 30.915 33.2416 34.2603C29.5864 37.3104 24.6209 39.0158 19.3106 39.0158C13.083 39.0158 6.55195 36.6053 2.69678 31.4923C6.40712 37.2842 13.3864 39.9997 20.0002 39.9997C25.3106 39.9997 30.2761 38.2943 33.9313 35.2442C37.8968 31.8989 40.0002 27.209 40.0002 21.6664C40.0002 17.4881 38.8037 13.7755 36.514 10.7681Z" fill="#EB8F00"/>
</g>
<g id="facial_expressions">
<g id="crying-face">
<path id="mouth" d="M20.1383 27.0806C23.8624 27.0806 26.4831 28.9172 27.2762 30.0651C27.5796 30.4291 27.6452 30.9211 27.4486 31.3441C27.2969 31.6098 27.0072 31.7738 26.69 31.7705C26.5727 31.7639 26.4555 31.741 26.3452 31.7049C24.3279 31.1572 22.2383 30.8817 20.1383 30.885C18.0486 30.8719 15.9658 31.1605 13.9658 31.7377C13.8555 31.7738 13.7383 31.7967 13.621 31.8033C13.3038 31.8131 13.0072 31.6491 12.8624 31.3769C12.6624 30.9539 12.7314 30.4586 13.0348 30.0979C13.7934 28.9172 16.4486 27.0806 20.1383 27.0806Z" fill="#422B0D"/>
</g>
<path id="Vector_2" d="M10.8283 35.3121C8.58693 35.3121 6.86279 33.2459 6.86279 31.4749C6.86279 30.2286 7.449 28.7855 8.27659 26.7849C8.38003 26.4898 8.51797 26.1946 8.6559 25.8666C9.13866 24.6794 9.69038 23.5184 10.3111 22.3902C10.4352 22.1639 10.718 22.0655 10.9662 22.1606C11.0697 22.2098 11.1559 22.2918 11.2076 22.3902C11.7249 23.4069 12.3111 24.6532 12.8973 25.9322C14.3456 29.0151 14.7593 30.2614 14.7593 31.5077C14.7938 33.2459 13.0352 35.3121 10.8283 35.3121Z" fill="url(#paint1_radial_526_25234)"/>
<path id="Vector_3" d="M13.2411 32.9479C12.7342 33.6924 11.5859 33.5514 11.5859 32.3149C11.5859 31.5245 11.7549 27.4643 12.4687 28.0317C13.6411 28.9566 13.9721 31.8951 13.2411 32.9479Z" fill="#81D4FA"/>
<path id="Vector_4" d="M8.41394 16.3563C7.9829 16.963 6.95877 16.5727 7.25877 15.8381C7.96566 14.2409 9.28635 12.9618 10.9553 12.2665C11.5657 11.991 12.2243 11.8172 12.8967 11.7483C13.2381 11.6827 13.5726 11.8926 13.6415 12.2173C13.7105 12.542 13.4898 12.8601 13.145 12.9257H13.1001C11.176 13.5325 9.52428 14.7427 8.41394 16.3563Z" fill="#422B0D"/>
<path id="Vector_5" d="M31.6177 16.3563C32.0487 16.963 33.0729 16.5727 32.7729 15.8381C32.0625 14.2376 30.7349 12.9585 29.0591 12.2665C28.4487 11.991 27.797 11.8172 27.1246 11.7483C26.7832 11.6827 26.4487 11.8926 26.3832 12.2173C26.3143 12.542 26.5349 12.8601 26.8763 12.9257H26.9212C28.8487 13.5292 30.5074 14.7394 31.6177 16.3563Z" fill="#422B0D"/>
<path id="Vector_6" d="M13.4725 16.4336C12.0277 16.4336 10.7139 17.5946 10.7139 19.523C10.7139 21.4515 12.0277 22.6092 13.4725 22.6092C14.9173 22.6092 16.2311 21.4482 16.2311 19.523C16.2311 17.5979 14.9173 16.4336 13.4725 16.4336Z" fill="#422B0D"/>
<g id="peepers">
<path id="Vector_7" d="M13.3386 17.7252C12.849 17.5022 12.2593 17.699 12.0214 18.1647C11.8386 18.5287 11.9214 18.9649 12.2283 19.247C12.7179 19.47 13.3076 19.2732 13.5455 18.8075C13.7283 18.4435 13.6455 18.0073 13.3386 17.7252Z" fill="#896024"/>
</g>
<path id="Vector_8" d="M26.6893 16.4336C25.2445 16.4336 23.9307 17.5946 23.9307 19.523C23.9307 21.4515 25.2445 22.6092 26.6893 22.6092C28.1341 22.6092 29.4479 21.4482 29.4479 19.523C29.4479 17.5979 28.141 16.4336 26.6893 16.4336Z" fill="#422B0D"/>
<g id="peepers-2">
<path id="Vector_9" d="M26.5632 17.7252C26.0736 17.5022 25.4839 17.699 25.246 18.1647C25.0632 18.5287 25.146 18.9649 25.4529 19.247C25.9426 19.47 26.5322 19.2732 26.7701 18.8075C26.9529 18.4435 26.8701 18.0073 26.5632 17.7252Z" fill="#896024"/>
</g>
</g>
</g>
<defs>
<radialGradient id="paint0_radial_526_25234" cx="0" cy="0" r="1" gradientUnits="userSpaceOnUse" gradientTransform="translate(20 20) scale(19.6413 20.3791)">
<stop offset="0.5" stop-color="#FDE030"/>
<stop offset="0.92" stop-color="#F7C02B"/>
<stop offset="1" stop-color="#F4A223"/>
</radialGradient>
<radialGradient id="paint1_radial_526_25234" cx="0" cy="0" r="1" gradientUnits="userSpaceOnUse" gradientTransform="translate(11.1111 23.7982) scale(9.11035 13.3439)">
<stop offset="0.46" stop-color="#29B6F6"/>
<stop offset="1" stop-color="#1E88E5"/>
</radialGradient>
</defs>
</svg>
