<svg width="456" height="225" viewBox="0 0 456 225" fill="none" xmlns="http://www.w3.org/2000/svg">
<g clip-path="url(#clip0_2849_14403)">
<rect width="456" height="225" rx="5" fill="#8082B1"/>
<g clip-path="url(#clip1_2849_14403)">
<path d="M280.491 116.23C283.317 116.23 285.609 113.94 285.609 111.115C285.609 108.29 283.317 106 280.491 106C277.664 106 275.372 108.29 275.372 111.115C275.372 113.94 277.664 116.23 280.491 116.23Z" fill="#FF6584"/>
<path d="M294.211 203.664L292.367 203.702L291.34 196.457L294.06 196.401L294.211 203.664Z" fill="#FFB6B6"/>
<path d="M288.393 206.765C288.403 207.219 288.779 207.58 289.234 207.572L292.899 207.495L293.503 206.177L293.777 207.477L295.16 207.449L294.675 202.801L294.193 202.783L292.227 202.705L291.593 202.681L291.62 203.999L288.735 206.08C288.515 206.238 288.388 206.494 288.393 206.765Z" fill="#2F2E41"/>
<path d="M306.617 203.664L304.773 203.702L303.746 196.457L306.466 196.401L306.617 203.664Z" fill="#FFB6B6"/>
<path d="M300.799 206.765C300.809 207.219 301.185 207.58 301.64 207.572L305.305 207.495L305.909 206.177L306.182 207.477L307.565 207.449L307.08 202.801L306.598 202.783L304.632 202.705L303.998 202.681L304.026 203.999L301.14 206.08C300.921 206.238 300.793 206.494 300.799 206.765Z" fill="#2F2E41"/>
<path d="M296.069 147.959L306.219 147.677L305.655 148.523L306.939 149.79C306.939 149.79 311.576 156.13 310.166 161.906C308.757 167.682 309.55 201.829 309.55 201.829L301.285 200.929L302.201 166.484L295.435 179.445L297.402 200.456L290.36 200.436L288.104 177.755L296.069 147.959Z" fill="#2F2E41"/>
<path d="M253.61 120.708C253.648 120.802 253.78 120.802 253.818 120.708C254.084 120.052 254.464 119.317 254.876 118.755C254.942 118.665 254.851 118.545 254.746 118.583L253.862 118.903V113.432H253.566V118.903L252.681 118.583C252.576 118.545 252.485 118.665 252.551 118.755C252.964 119.317 253.343 120.052 253.61 120.708Z" fill="#3F3D56"/>
<path d="M259.409 126.341C259.38 126.439 259.483 126.521 259.572 126.471C260.189 126.122 260.943 125.782 261.616 125.599C261.724 125.57 261.727 125.419 261.621 125.383L260.73 125.084L264.134 120.8L263.903 120.616L260.498 124.9L260.004 124.1C259.946 124.005 259.799 124.042 259.795 124.154C259.769 124.85 259.608 125.662 259.409 126.341Z" fill="#3F3D56"/>
<path d="M281.032 136.337L286.499 135.707L287.294 138.778L281.491 139.238C281.367 139.366 281.224 139.478 281.06 139.569C280.171 140.062 279.049 139.742 278.555 138.854C278.061 137.965 278.382 136.844 279.271 136.351C279.838 136.036 280.499 136.053 281.032 136.337Z" fill="#FFB6B6"/>
<path d="M307.207 129.254L305.068 126.01C304.679 126.318 304.338 126.629 304.08 126.903L303.636 127.208L302.203 128.489L298.146 132.108L296.796 133.314L295.29 133.578L291.965 134.163L286.929 135.517L283.221 135.757C283.219 135.832 283.219 135.945 283.219 136.085C283.217 136.813 283.234 138.286 283.378 139.089C283.427 139.368 283.492 139.566 283.577 139.626C283.604 139.645 286.444 138.758 286.588 138.757C287.743 138.755 289.673 139.072 293.568 138.565C295.882 138.262 297.919 137.986 298.776 137.868L298.794 137.865L299.414 137.564L306.213 134.274L308.265 133.28C308.095 131.906 307.741 130.55 307.207 129.254Z" fill="#6C63FF"/>
<path d="M189.871 110.764C187.733 110.764 186 112.496 186 114.633V180.157H186.341V137.648C186.341 122.989 198.233 111.105 212.903 111.105L280.753 111.043L280.691 110.764H189.871Z" fill="#3F3D56"/>
<path d="M207.789 121.651C208.585 121.651 209.231 120.991 209.231 120.177C209.231 119.363 208.585 118.703 207.789 118.703C206.992 118.703 206.346 119.363 206.346 120.177C206.346 120.991 206.992 121.651 207.789 121.651Z" fill="#3F3D56"/>
<path d="M212.773 121.651C213.57 121.651 214.216 120.991 214.216 120.177C214.216 119.363 213.57 118.703 212.773 118.703C211.976 118.703 211.33 119.363 211.33 120.177C211.33 120.991 211.976 121.651 212.773 121.651Z" fill="#3F3D56"/>
<path d="M217.757 121.651C218.554 121.651 219.2 120.991 219.2 120.177C219.2 119.363 218.554 118.703 217.757 118.703C216.96 118.703 216.314 119.363 216.314 120.177C216.314 120.991 216.96 121.651 217.757 121.651Z" fill="#3F3D56"/>
<path d="M242.903 137.542C240.764 137.542 239.031 139.274 239.031 141.411L239.031 169.426H239.372V164.427C239.372 149.767 251.264 137.883 265.934 137.883L290.619 137.821L290.557 137.542L242.903 137.542Z" fill="#F2F2F2"/>
<path d="M257.237 154.928C257.049 154.928 256.896 155.081 256.896 155.269V160.555C256.896 160.743 257.049 160.896 257.237 160.896C257.425 160.896 257.578 160.743 257.578 160.555V155.269C257.578 155.081 257.425 154.928 257.237 154.928Z" fill="#3F3D56"/>
<path d="M260.581 160.021C261.755 160.021 262.707 159.09 262.707 157.941C262.707 156.792 261.755 155.861 260.581 155.861C259.407 155.861 258.455 156.792 258.455 157.941C258.455 159.09 259.407 160.021 260.581 160.021Z" fill="#6C63FF"/>
<path d="M277.628 157.23L266.182 157.23C265.789 157.23 265.47 156.91 265.47 156.518C265.47 156.126 265.789 155.806 266.182 155.806L277.628 155.806C278.02 155.806 278.34 156.126 278.34 156.518C278.34 156.91 278.02 157.23 277.628 157.23Z" fill="#F2F2F2"/>
<path d="M286.56 159.638L266.182 159.638C265.789 159.638 265.47 159.319 265.47 158.927C265.47 158.534 265.789 158.215 266.182 158.215L286.56 158.215C286.953 158.215 287.272 158.534 287.272 158.927C287.272 159.319 286.953 159.638 286.56 159.638Z" fill="#F2F2F2"/>
<path d="M258.291 145.862C259.088 145.862 259.734 145.202 259.734 144.388C259.734 143.574 259.088 142.914 258.291 142.914C257.494 142.914 256.848 143.574 256.848 144.388C256.848 145.202 257.494 145.862 258.291 145.862Z" fill="#F2F2F2"/>
<path d="M263.275 145.862C264.072 145.862 264.718 145.202 264.718 144.388C264.718 143.574 264.072 142.914 263.275 142.914C262.478 142.914 261.832 143.574 261.832 144.388C261.832 145.202 262.478 145.862 263.275 145.862Z" fill="#F2F2F2"/>
<path d="M268.259 145.862C269.056 145.862 269.702 145.202 269.702 144.388C269.702 143.574 269.056 142.914 268.259 142.914C267.462 142.914 266.816 143.574 266.816 144.388C266.816 145.202 267.462 145.862 268.259 145.862Z" fill="#F2F2F2"/>
<path d="M201.416 134.883C201.228 134.883 201.075 135.036 201.075 135.224V140.51C201.075 140.698 201.228 140.851 201.416 140.851C201.604 140.851 201.757 140.698 201.757 140.51V135.224C201.757 135.036 201.604 134.883 201.416 134.883Z" fill="#3F3D56"/>
<path d="M204.76 139.976C205.935 139.976 206.887 139.045 206.887 137.896C206.887 136.747 205.935 135.816 204.76 135.816C203.586 135.816 202.634 136.747 202.634 137.896C202.634 139.045 203.586 139.976 204.76 139.976Z" fill="#6C63FF"/>
<path d="M221.807 137.185H210.361C209.968 137.185 209.649 136.865 209.649 136.473C209.649 136.081 209.968 135.761 210.361 135.761H221.807C222.199 135.761 222.519 136.081 222.519 136.473C222.519 136.865 222.199 137.185 221.807 137.185Z" fill="#F2F2F2"/>
<path d="M230.739 139.593H210.361C209.968 139.593 209.649 139.274 209.649 138.882C209.649 138.489 209.968 138.17 210.361 138.17H230.739C231.132 138.17 231.451 138.489 231.451 138.882C231.451 139.274 231.132 139.593 230.739 139.593Z" fill="#F2F2F2"/>
<path d="M201.416 149.546C201.228 149.546 201.075 149.699 201.075 149.887V155.173C201.075 155.361 201.228 155.514 201.416 155.514C201.604 155.514 201.757 155.361 201.757 155.173V149.887C201.757 149.699 201.604 149.546 201.416 149.546Z" fill="#3F3D56"/>
<path d="M204.76 154.639C205.935 154.639 206.887 153.708 206.887 152.559C206.887 151.41 205.935 150.479 204.76 150.479C203.586 150.479 202.634 151.41 202.634 152.559C202.634 153.708 203.586 154.639 204.76 154.639Z" fill="#6C63FF"/>
<path d="M221.807 151.847H210.361C209.968 151.847 209.649 151.528 209.649 151.136C209.649 150.743 209.968 150.424 210.361 150.424H221.807C222.199 150.424 222.519 150.743 222.519 151.136C222.519 151.528 222.199 151.847 221.807 151.847Z" fill="#F2F2F2"/>
<path d="M230.739 154.256H210.361C209.968 154.256 209.649 153.937 209.649 153.545C209.649 153.152 209.968 152.833 210.361 152.833H230.739C231.132 152.833 231.451 153.152 231.451 153.545C231.451 153.937 231.132 154.256 230.739 154.256Z" fill="#F2F2F2"/>
<path d="M201.416 164.209C201.228 164.209 201.075 164.362 201.075 164.55V169.836C201.075 170.024 201.228 170.177 201.416 170.177C201.604 170.177 201.757 170.024 201.757 169.836V164.55C201.757 164.362 201.604 164.209 201.416 164.209Z" fill="#3F3D56"/>
<path d="M204.76 169.302C205.935 169.302 206.887 168.371 206.887 167.222C206.887 166.073 205.935 165.142 204.76 165.142C203.586 165.142 202.634 166.073 202.634 167.222C202.634 168.371 203.586 169.302 204.76 169.302Z" fill="#6C63FF"/>
<path d="M221.807 166.51H210.361C209.968 166.51 209.649 166.191 209.649 165.799C209.649 165.406 209.968 165.087 210.361 165.087H221.807C222.199 165.087 222.519 165.406 222.519 165.799C222.519 166.191 222.199 166.51 221.807 166.51Z" fill="#F2F2F2"/>
<path d="M230.739 168.919H210.361C209.968 168.919 209.649 168.6 209.649 168.207C209.649 167.815 209.968 167.496 210.361 167.496H230.739C231.132 167.496 231.451 167.815 231.451 168.207C231.451 168.6 231.132 168.919 230.739 168.919Z" fill="#F2F2F2"/>
<path d="M308.938 153.42C308.727 155.025 297.788 151.224 296.483 150.521C294.041 149.21 296.596 150.555 296.596 150.555L296.312 142.508L296.016 137.713C296.016 137.713 295.851 136.439 295.505 134.814C295.426 134.449 295.342 134.027 295.29 133.578C295.139 132.284 295.254 130.78 296.528 129.87L300.973 123.248L303.162 123.12L305.068 126.01L307.207 129.254C307.741 130.55 308.094 131.906 308.265 133.28C308.345 133.923 308.386 134.57 308.386 135.22C308.386 136.364 308.261 137.512 308.009 138.64L306.67 142.393C306.67 142.393 306.501 143.028 307.089 143.384C308.283 144.105 305.867 146.088 307.345 148.545C307.345 148.545 307.207 149.673 307.866 149.772C308.524 149.873 309.027 152.743 308.938 153.42Z" fill="#6C63FF"/>
<path d="M287.687 157.277L290.933 152.837L293.73 154.336L290.131 158.909C290.142 159.086 290.127 159.268 290.082 159.449C289.842 160.437 288.846 161.043 287.857 160.803C286.869 160.563 286.262 159.568 286.503 158.58C286.656 157.95 287.117 157.476 287.687 157.277Z" fill="#FFB6B6"/>
<path d="M301.395 129.264C300.655 128.731 299.787 128.355 298.833 128.188C297.531 127.961 296.8 129.834 296.513 131.66C296.381 132.506 296.342 133.343 296.388 133.954L296.311 134.489L296.266 137.256L296.16 143.652L292.9 148.475L291.535 151.715L288.746 155.277C288.801 155.33 288.884 155.406 288.986 155.502C289.521 155.996 290.613 156.983 291.302 157.423C291.541 157.574 291.729 157.66 291.831 157.639C291.863 157.632 293.827 155.742 293.924 155.636C294.575 154.927 294.704 153.976 296.673 151.212C298.467 148.696 300.217 146.194 300.849 145.289L300.86 145.273L303.7 135.913L303.959 135.065C304.234 132.741 303.186 130.55 301.395 129.264Z" fill="#6C63FF"/>
<path d="M299.785 129.404C299.779 129.402 299.775 129.399 299.769 129.397C299.726 129.401 299.682 129.404 299.64 129.404H299.785Z" fill="#2F2E41"/>
<path d="M301.059 122.054C303.799 122.054 306.021 119.834 306.021 117.094C306.021 114.355 303.799 112.135 301.059 112.135C298.318 112.135 296.096 114.355 296.096 117.094C296.096 119.834 298.318 122.054 301.059 122.054Z" fill="#FFB6B6"/>
<path d="M294.339 115.716C294.004 113.312 294.981 112.576 296.509 112.358C299.533 110.788 300.226 111.183 301.185 111.353L301.537 111.277C302.618 111.045 303.01 111.144 303.972 111.507C306 112.272 307.332 114.209 307.48 116.37C307.581 117.86 307.114 118.092 307.978 119.301C308.701 120.311 308.148 121.729 306.935 121.99L305.806 123.696C305.531 123.348 305.311 122.984 305.062 122.528C304.964 122.935 304.953 123.401 305.004 123.868C303.88 124.428 302.653 124.659 301.351 124.654C301.141 124.375 300.954 124.064 300.978 123.714C300.906 124.065 300.818 124.414 300.803 124.772C299.984 124.245 299.307 124.399 298.766 125.209C297.401 124.079 297.294 121.488 298.917 120.839C300.29 120.29 298.124 116.447 296.648 116.369C296.638 116.368 296.245 117.854 296.231 117.826C296.023 117.41 296.118 117.182 295.869 116.726C295.787 117.069 295.765 117.453 295.792 117.844C295.44 117.767 295.084 117.655 294.724 117.505C294.307 116.939 294.146 116.346 294.339 115.716Z" fill="#2F2E41"/>
<path d="M312.743 205.045C313.095 205.067 313.29 204.629 313.023 204.374L312.997 204.269C313 204.26 313.004 204.252 313.007 204.243C313.364 203.394 314.572 203.4 314.925 204.251C315.239 205.006 315.638 205.762 315.737 206.56C315.781 206.912 315.761 207.271 315.683 207.617C316.418 206.013 316.805 204.261 316.805 202.499C316.805 202.056 316.78 201.613 316.731 201.172C316.69 200.811 316.634 200.452 316.561 200.096C316.168 198.173 315.316 196.342 314.087 194.812C313.497 194.49 313.004 193.985 312.706 193.381C312.6 193.163 312.516 192.928 312.476 192.689C312.543 192.698 312.73 191.675 312.679 191.612C312.773 191.47 312.94 191.399 313.042 191.261C313.551 190.571 314.252 190.692 314.618 191.629C315.4 192.023 315.408 192.677 314.928 193.306C314.623 193.706 314.581 194.247 314.313 194.676C314.341 194.711 314.369 194.745 314.397 194.78C314.902 195.428 315.339 196.124 315.707 196.855C315.603 196.042 315.757 195.063 316.019 194.432C316.317 193.713 316.876 193.108 317.369 192.486C317.96 191.739 319.173 192.065 319.277 193.012C319.278 193.021 319.279 193.03 319.28 193.039C319.207 193.08 319.135 193.124 319.065 193.17C318.666 193.434 318.804 194.053 319.277 194.126L319.287 194.127C319.261 194.39 319.216 194.651 319.15 194.908C319.781 197.349 318.418 198.238 316.471 198.278C316.428 198.3 316.386 198.322 316.343 198.343C316.54 198.898 316.698 199.467 316.815 200.044C316.919 200.554 316.992 201.069 317.033 201.587C317.083 202.24 317.079 202.896 317.024 203.548L317.027 203.525C317.167 202.807 317.557 202.136 318.124 201.672C318.968 200.979 320.16 200.724 321.07 200.167C321.508 199.899 322.07 200.246 321.993 200.753L321.989 200.778C321.854 200.833 321.722 200.896 321.594 200.968C321.521 201.009 321.449 201.053 321.379 201.099C320.98 201.363 321.118 201.981 321.591 202.054L321.602 202.056C321.609 202.057 321.616 202.058 321.624 202.059C321.391 202.611 321.067 203.123 320.662 203.565C320.267 205.695 318.571 205.898 316.756 205.277H316.755C316.557 206.141 316.267 206.984 315.894 207.788H312.82C312.809 207.754 312.799 207.719 312.789 207.684C313.073 207.702 313.36 207.686 313.64 207.634C313.412 207.354 313.184 207.072 312.955 206.792C312.95 206.787 312.946 206.781 312.941 206.776C312.825 206.633 312.709 206.491 312.593 206.348L312.593 206.347C312.586 205.908 312.638 205.47 312.743 205.045Z" fill="#F2F2F2"/>
<path d="M278.355 207.797C278.355 207.91 278.445 208 278.558 208H321.773C321.886 208 321.976 207.91 321.976 207.797C321.976 207.685 321.886 207.594 321.773 207.594H278.558C278.445 207.594 278.355 207.685 278.355 207.797Z" fill="#CCCCCC"/>
<path d="M256.639 129.992H250.886C250.528 129.992 250.238 129.702 250.238 129.345C249.477 127.123 249.492 124.946 250.238 122.811C250.238 122.454 250.528 122.163 250.886 122.163H256.639C256.996 122.163 257.287 122.454 257.287 122.811V129.345C257.287 129.702 256.996 129.992 256.639 129.992Z" fill="#E6E6E6"/>
<path d="M252.118 122.356C251.186 122.356 250.431 123.111 250.431 124.042V129.206C250.431 129.533 250.696 129.799 251.024 129.799H254.206C255.801 129.799 257.094 128.507 257.094 126.913V122.949C257.094 122.622 256.828 122.356 256.5 122.356H252.118Z" fill="white"/>
<path d="M255.102 124.255H252.408C252.34 124.255 252.285 124.2 252.285 124.132C252.285 124.064 252.34 124.009 252.408 124.009H255.102C255.17 124.009 255.225 124.064 255.225 124.132C255.225 124.2 255.17 124.255 255.102 124.255Z" fill="#E6E6E6"/>
<path d="M255.102 126.879H252.408C252.34 126.879 252.285 126.824 252.285 126.756C252.285 126.688 252.34 126.633 252.408 126.633H255.102C255.17 126.633 255.225 126.688 255.225 126.756C255.225 126.824 255.17 126.879 255.102 126.879Z" fill="#E6E6E6"/>
<path d="M256.548 125.568H250.963C250.895 125.568 250.84 125.513 250.84 125.445C250.84 125.377 250.895 125.322 250.963 125.322H256.548C256.615 125.322 256.671 125.377 256.671 125.445C256.671 125.513 256.615 125.568 256.548 125.568Z" fill="#E6E6E6"/>
<path d="M256.614 127.946H254.283C254.215 127.946 254.16 127.891 254.16 127.823C254.16 127.755 254.215 127.7 254.283 127.7H256.614C256.681 127.7 256.737 127.755 256.737 127.823C256.737 127.891 256.681 127.946 256.614 127.946Z" fill="#E6E6E6"/>
</g>
<path d="M226.395 229.741C226.395 229.741 370.586 242.231 360.279 205.206C349.973 168.181 473.713 126.95 473.713 126.95L505.791 204.13L258.472 306.92L226.395 229.741Z" fill="#D9D9D9"/>
<path d="M-14 204.5C8.33333 190.333 67.6 165.2 126 178C199 194 310.5 127.5 351.5 115.5C392.5 103.5 431 73.5 468.5 94.5C498.5 111.3 481 144.167 468.5 158.5M-14 31C20.1667 40.3333 87.1 68 81.5 104C75.9 140 235.5 53.6667 316 6" stroke="#7A7CA7"/>
</g>
<defs>
<clipPath id="clip0_2849_14403">
<rect width="456" height="225" rx="5" fill="white"/>
</clipPath>
<clipPath id="clip1_2849_14403">
<rect width="136" height="102" fill="white" transform="translate(186 106)"/>
</clipPath>
</defs>
</svg>
