<svg width="464" height="233" viewBox="0 0 464 233" fill="none" xmlns="http://www.w3.org/2000/svg">
<g clip-path="url(#clip0_2849_14472)" filter="url(#filter0_d_2849_14472)">
<rect width="456" height="225" transform="translate(4)" fill="#65AB68"/>
<path d="M-10 204.5C12.3333 190.333 71.6 165.2 130 178C203 194 314.5 127.5 355.5 115.5C396.5 103.5 435 73.5 472.5 94.5C502.5 111.3 485 144.167 472.5 158.5M-10 31C24.1667 40.3333 91.1 68 85.5 104C79.9 140 239.5 53.6667 320 6" stroke="#67A469"/>
<path d="M-4.17251 127.479C-4.17251 127.479 10.7123 235.938 49.0449 210.322C87.3774 184.705 96.8346 230.089 96.8346 230.089L8.54626 295.976L-77.0001 181.363L-4.17251 127.479Z" fill="#D9D9D9"/>
<g clip-path="url(#clip1_2849_14472)">
<path d="M41.4961 188.431C41.3771 188.251 41.2201 188.099 41.0361 187.986C40.8522 187.873 40.6457 187.802 40.4312 187.777C40.2168 187.753 39.9995 187.776 39.7949 187.844C39.5903 187.913 39.4031 188.026 39.2467 188.175L34.5845 185.765L34.8743 188.48L39.2572 190.353C39.5245 190.599 39.8729 190.739 40.2362 190.745C40.5995 190.752 40.9526 190.625 41.2286 190.388C41.5046 190.151 41.6842 189.821 41.7335 189.461C41.7828 189.1 41.6984 188.734 41.4961 188.431Z" fill="#A0616A"/>
<path d="M37.3525 189.524C37.2681 189.563 37.1766 189.584 37.0838 189.585C36.991 189.586 36.899 189.567 36.8138 189.53L32.3853 187.606C30.8711 186.948 29.647 185.762 28.9406 184.268L26.6124 179.346C26.4406 179.125 26.314 178.872 26.2398 178.602C26.1656 178.332 26.1453 178.05 26.1801 177.772C26.2148 177.494 26.304 177.226 26.4424 176.982C26.5808 176.739 26.7657 176.525 26.9867 176.353C27.2076 176.181 27.4602 176.055 27.73 175.981C27.9998 175.907 28.2816 175.887 28.5591 175.922C28.8366 175.957 29.1045 176.047 29.3474 176.186C29.5903 176.325 29.8035 176.51 29.9748 176.732L34.0671 184.336L37.8458 187.195C37.954 187.277 38.0343 187.391 38.076 187.52C38.1177 187.65 38.1186 187.789 38.0788 187.919L37.7079 189.119C37.6681 189.247 37.59 189.361 37.4842 189.444C37.4436 189.476 37.3994 189.503 37.3525 189.524Z" fill="white"/>
<path d="M26.5104 173.558C28.502 173.558 30.1165 171.941 30.1165 169.946C30.1165 167.951 28.502 166.334 26.5104 166.334C24.5188 166.334 22.9043 167.951 22.9043 169.946C22.9043 171.941 24.5188 173.558 26.5104 173.558Z" fill="#A0616A"/>
<path d="M27.9707 217.326L29.7706 217.326L30.627 210.372L27.9702 210.372L27.9707 217.326Z" fill="#A0616A"/>
<path d="M33.2422 219L27.585 219L27.5849 216.811L31.0564 216.811C31.636 216.811 32.192 217.041 32.6019 217.452C33.0119 217.862 33.2422 218.419 33.2422 219Z" fill="#2F2E41"/>
<path d="M22.0981 217.326L23.898 217.326L24.7544 210.372L22.0977 210.372L22.0981 217.326Z" fill="#A0616A"/>
<path d="M27.3696 219L21.7125 219L21.7124 216.811L25.1838 216.811C25.7635 216.811 26.3195 217.041 26.7294 217.452C27.1393 217.862 27.3696 218.419 27.3696 219Z" fill="#2F2E41"/>
<path d="M21.4693 215.335C21.4073 215.265 21.3611 215.181 21.3339 215.091C21.3067 215.001 21.299 214.906 21.3115 214.812L24.4629 191.139L32.2928 192.471L33.1284 191.968L30.9676 214.43C30.9496 214.582 30.8799 214.722 30.7704 214.829C30.6608 214.935 30.518 215 30.3661 215.013L27.9953 215.211C27.901 215.219 27.8062 215.206 27.7172 215.174C27.6281 215.142 27.547 215.091 27.4793 215.025C27.4115 214.959 27.3587 214.879 27.3245 214.791C27.2903 214.703 27.2754 214.608 27.2808 214.513L27.8946 203.816C27.8957 203.798 27.89 203.78 27.8786 203.766C27.8673 203.752 27.8511 203.742 27.8331 203.739C27.8152 203.736 27.7968 203.74 27.7815 203.75C27.7663 203.76 27.7552 203.775 27.7504 203.793L24.7137 215.072C24.6757 215.212 24.5927 215.336 24.4774 215.425C24.3621 215.513 24.221 215.561 24.0758 215.561H21.9664C21.8723 215.561 21.7792 215.541 21.6935 215.502C21.6077 215.463 21.5313 215.406 21.4693 215.335Z" fill="#2F2E41"/>
<path d="M26.892 192.796C26.8021 192.714 26.6866 192.667 26.5654 192.662C26.4443 192.657 26.3252 192.694 26.2289 192.768L24.6635 193.988C24.5783 194.054 24.4781 194.099 24.3717 194.118C24.2653 194.136 24.1559 194.129 24.0532 194.095C23.9505 194.062 23.8575 194.003 23.7825 193.925C23.7075 193.848 23.6527 193.752 23.6229 193.648C22.8551 190.955 21.1154 184.176 21.544 179.404C21.7869 176.699 24.1188 174.644 26.7422 174.816C28.5358 174.936 29.7157 175.972 30.2492 177.896C31.5593 182.62 32.999 191.284 33.2743 192.973C33.296 193.105 33.2777 193.239 33.2217 193.36C33.1657 193.48 33.0747 193.581 32.9606 193.648C32.2199 194.094 31.3737 194.332 30.5098 194.339C29.4646 194.339 28.2113 193.975 26.892 192.796Z" fill="white"/>
<path d="M27.4826 194.476C27.5001 194.261 27.4703 194.044 27.3951 193.841C27.32 193.639 27.2014 193.455 27.0477 193.303C26.8941 193.151 26.709 193.035 26.5057 192.963C26.3023 192.89 26.0855 192.863 25.8707 192.884L23.6871 188.106L22.2422 190.422L24.5372 194.604C24.5956 194.963 24.7836 195.289 25.0654 195.518C25.3473 195.748 25.7035 195.866 26.0666 195.85C26.4296 195.835 26.7743 195.686 27.0353 195.433C27.2963 195.179 27.4554 194.839 27.4826 194.476Z" fill="#A0616A"/>
<path d="M23.5488 192.775C23.4586 192.754 23.3739 192.713 23.3002 192.657C23.2266 192.6 23.1657 192.528 23.1214 192.447L20.8223 188.196C20.036 186.742 19.8036 185.052 20.1683 183.44L21.3691 178.128C21.3702 177.848 21.4264 177.571 21.5345 177.312C21.6426 177.054 21.8005 176.82 21.9991 176.622C22.1977 176.425 22.4332 176.269 22.6921 176.163C22.951 176.057 23.2282 176.003 23.5079 176.005C23.7876 176.006 24.0642 176.063 24.3221 176.171C24.5799 176.28 24.8139 176.438 25.0106 176.637C25.2073 176.836 25.3629 177.072 25.4684 177.332C25.574 177.591 25.6275 177.869 25.6259 178.149L24.1604 186.662L25.3722 191.247C25.4066 191.379 25.3999 191.518 25.353 191.645C25.306 191.773 25.221 191.883 25.1096 191.961L24.0784 192.676C23.9678 192.752 23.8365 192.793 23.702 192.793C23.6504 192.793 23.599 192.787 23.5488 192.775Z" fill="white"/>
<path opacity="0.2" d="M25.3331 181.739L24.0117 187.327L25.9204 192.033L24.599 187.474L25.3331 181.739Z" fill="black"/>
<path d="M24.4526 172.916C24.1318 172.922 23.813 172.864 23.5147 172.746C23.3834 172.695 23.2471 172.654 23.1161 172.603C21.9589 172.155 21.1966 170.921 21.1693 169.679C21.142 168.436 21.7843 167.231 22.738 166.436C23.6918 165.642 24.9271 165.234 26.1641 165.139C27.4966 165.038 28.997 165.376 29.7415 166.487C29.9397 166.783 30.0783 167.142 29.9609 167.499C29.9257 167.607 29.8629 167.704 29.7787 167.78C29.4462 168.076 29.1147 167.853 28.7757 167.834C28.3098 167.806 27.8914 168.184 27.741 168.627C27.5906 169.069 27.6568 169.556 27.7782 170.008C27.8707 170.279 27.929 170.561 27.9518 170.847C27.9616 170.991 27.9347 171.134 27.8736 171.264C27.8125 171.394 27.7192 171.507 27.6026 171.591C27.3115 171.767 26.9291 171.665 26.6378 171.489C26.3465 171.313 26.0948 171.068 25.7802 170.939C25.4655 170.809 25.0427 170.838 24.8596 171.125C24.8014 171.23 24.762 171.344 24.7432 171.462C24.579 172.211 24.6168 172.167 24.4526 172.916Z" fill="#2F2E41"/>
<path d="M131.194 147.893H42.0723C41.7328 147.893 41.4074 148.028 41.1673 148.269C40.9273 148.509 40.7923 148.835 40.792 149.175V209.661C40.7923 210.001 40.9273 210.327 41.1673 210.567C41.4074 210.808 41.7328 210.943 42.0723 210.943H131.194C131.379 210.943 131.562 210.903 131.73 210.825C131.898 210.748 132.047 210.634 132.167 210.493C132.177 210.482 132.186 210.47 132.195 210.458C132.271 210.364 132.333 210.26 132.378 210.148C132.443 209.994 132.476 209.828 132.475 209.661V172.008H132.11V209.661C132.11 209.84 132.057 210.015 131.959 210.164C131.871 210.295 131.752 210.402 131.612 210.476C131.483 210.543 131.339 210.577 131.194 210.577H42.0723C41.8298 210.577 41.5973 210.48 41.4258 210.308C41.2543 210.137 41.1578 209.904 41.1575 209.661V149.175C41.1578 148.932 41.2543 148.699 41.4258 148.528C41.5973 148.356 41.8298 148.259 42.0723 148.259H131.194C131.436 148.259 131.669 148.355 131.841 148.527C132.013 148.699 132.109 148.932 132.11 149.175V157.303H132.475V149.175C132.475 148.835 132.34 148.509 132.099 148.268C131.859 148.028 131.533 147.893 131.194 147.893Z" fill="#3F3D56"/>
<path d="M132.291 153.033H40.9741V153.399H132.291V153.033Z" fill="#3F3D56"/>
<path d="M44.0853 151.742C44.6917 151.742 45.1833 151.25 45.1833 150.643C45.1833 150.035 44.6917 149.543 44.0853 149.543C43.4789 149.543 42.9873 150.035 42.9873 150.643C42.9873 151.25 43.4789 151.742 44.0853 151.742Z" fill="white"/>
<path d="M47.242 151.742C47.8485 151.742 48.34 151.25 48.34 150.643C48.34 150.035 47.8485 149.543 47.242 149.543C46.6356 149.543 46.144 150.035 46.144 150.643C46.144 151.25 46.6356 151.742 47.242 151.742Z" fill="white"/>
<path d="M50.3988 151.742C51.0052 151.742 51.4968 151.25 51.4968 150.643C51.4968 150.035 51.0052 149.543 50.3988 149.543C49.7924 149.543 49.3008 150.035 49.3008 150.643C49.3008 151.25 49.7924 151.742 50.3988 151.742Z" fill="white"/>
<path d="M72.453 203.529C72.075 203.528 71.7034 203.432 71.3719 203.25C71.0404 203.068 70.7594 202.806 70.5543 202.488C70.3493 202.17 70.2267 201.806 70.1976 201.428C70.1685 201.051 70.2338 200.672 70.3877 200.326L73.0035 194.481C70.9434 192.656 69.2948 190.413 68.1672 187.9C67.0397 185.388 66.459 182.663 66.4639 179.909C66.4639 169.147 75.2058 160.391 85.9512 160.391C96.6966 160.391 105.438 169.147 105.438 179.909C105.438 190.671 96.6966 199.427 85.9512 199.427C84.0715 199.425 82.202 199.149 80.4016 198.608L73.7256 203.135C73.3505 203.391 72.9071 203.529 72.453 203.529ZM85.9512 163.114C82.4735 163.112 79.0814 164.194 76.245 166.209C73.4086 168.225 71.2684 171.074 70.1212 174.362C68.974 177.65 68.8765 181.214 69.8422 184.56C70.808 187.906 72.7892 190.869 75.5112 193.037L76.3352 193.695L73.5207 199.985L79.9796 195.605L80.6173 195.82C82.9212 196.595 85.3658 196.859 87.7818 196.594C90.1978 196.329 92.5273 195.541 94.6089 194.284C96.6905 193.028 98.4744 191.333 99.837 189.317C101.2 187.301 102.108 185.013 102.5 182.611C102.892 180.208 102.757 177.749 102.106 175.404C101.455 173.059 100.302 170.884 98.7277 169.029C97.1534 167.174 95.1954 165.685 92.9893 164.664C90.7831 163.642 88.3816 163.114 85.9512 163.114Z" fill="#3F3D56"/>
<path d="M85.9516 181.724C87.4533 181.724 88.6707 180.505 88.6707 179.001C88.6707 177.497 87.4533 176.277 85.9516 176.277C84.4498 176.277 83.2324 177.497 83.2324 179.001C83.2324 180.505 84.4498 181.724 85.9516 181.724Z" fill="#3F3D56"/>
<path d="M78.247 181.724C79.7487 181.724 80.9661 180.505 80.9661 179.001C80.9661 177.497 79.7487 176.277 78.247 176.277C76.7452 176.277 75.5278 177.497 75.5278 179.001C75.5278 180.505 76.7452 181.724 78.247 181.724Z" fill="#3F3D56"/>
<path d="M93.6557 181.724C95.1574 181.724 96.3748 180.505 96.3748 179.001C96.3748 177.497 95.1574 176.277 93.6557 176.277C92.1539 176.277 90.9365 177.497 90.9365 179.001C90.9365 180.505 92.1539 181.724 93.6557 181.724Z" fill="#3F3D56"/>
<path d="M154.33 168.222H128.489C128.178 168.222 127.879 168.098 127.658 167.877C127.438 167.656 127.314 167.357 127.314 167.045C127.314 166.733 127.438 166.434 127.658 166.213C127.879 165.993 128.178 165.869 128.489 165.869H154.33C154.641 165.869 154.94 165.993 155.16 166.213C155.381 166.434 155.504 166.733 155.504 167.045C155.504 167.357 155.381 167.656 155.16 167.877C154.94 168.098 154.641 168.222 154.33 168.222Z" fill="white"/>
<path d="M137.445 163.222H128.489C128.178 163.222 127.879 163.098 127.658 162.877C127.438 162.657 127.314 162.357 127.314 162.045C127.314 161.733 127.438 161.434 127.658 161.214C127.879 160.993 128.178 160.869 128.489 160.869H137.445C137.757 160.869 138.055 160.993 138.276 161.214C138.496 161.434 138.62 161.733 138.62 162.045C138.62 162.357 138.496 162.657 138.276 162.877C138.055 163.098 137.757 163.222 137.445 163.222Z" fill="#CCCCCC"/>
<path d="M116.785 169.655C119.542 169.655 121.777 167.417 121.777 164.655C121.777 161.894 119.542 159.656 116.785 159.656C114.028 159.656 111.793 161.894 111.793 164.655C111.793 167.417 114.028 169.655 116.785 169.655Z" fill="#6C63FF"/>
<path d="M156.92 157.009H110.377C109.716 157.01 109.081 157.273 108.613 157.742C108.146 158.21 107.882 158.846 107.881 159.509V169.802C107.882 170.465 108.146 171.1 108.613 171.569C109.081 172.038 109.716 172.301 110.377 172.302H156.92C157.582 172.301 158.216 172.038 158.684 171.569C159.152 171.1 159.415 170.465 159.416 169.802V159.509C159.415 158.846 159.152 158.21 158.684 157.742C158.216 157.273 157.582 157.01 156.92 157.009ZM159.122 169.802C159.122 170.387 158.889 170.948 158.477 171.361C158.064 171.775 157.504 172.007 156.92 172.008H110.377C109.793 172.007 109.234 171.775 108.821 171.361C108.408 170.948 108.176 170.387 108.175 169.802V159.509C108.176 158.924 108.408 158.363 108.821 157.95C109.234 157.536 109.793 157.303 110.377 157.303H156.92C157.504 157.303 158.064 157.536 158.477 157.95C158.889 158.363 159.122 158.924 159.122 159.509V169.802Z" fill="#3F3D56"/>
<path d="M159.122 161.126C160.987 161.126 162.499 159.612 162.499 157.744C162.499 155.876 160.987 154.362 159.122 154.362C157.257 154.362 155.745 155.876 155.745 157.744C155.745 159.612 157.257 161.126 159.122 161.126Z" fill="#6C63FF"/>
<path d="M159.019 159.646C159.005 159.632 158.994 159.616 158.987 159.598C158.979 159.58 158.976 159.561 158.976 159.542V155.799C158.976 155.76 158.991 155.722 159.019 155.695C159.046 155.667 159.083 155.652 159.122 155.652C159.161 155.652 159.199 155.667 159.226 155.695C159.254 155.722 159.269 155.76 159.269 155.799V159.542C159.269 159.571 159.261 159.6 159.244 159.624C159.228 159.648 159.205 159.667 159.179 159.678C159.152 159.689 159.122 159.692 159.094 159.686C159.065 159.681 159.039 159.667 159.019 159.646Z" fill="white"/>
<path d="M157.149 157.774C157.129 157.754 157.115 157.728 157.109 157.699C157.104 157.671 157.107 157.641 157.118 157.614C157.129 157.587 157.148 157.564 157.172 157.548C157.196 157.532 157.224 157.523 157.253 157.523H160.991C161.03 157.523 161.067 157.539 161.095 157.566C161.122 157.594 161.138 157.631 161.138 157.67C161.138 157.709 161.122 157.747 161.095 157.774C161.067 157.802 161.03 157.817 160.991 157.817H157.253C157.234 157.817 157.215 157.814 157.197 157.806C157.179 157.799 157.163 157.788 157.149 157.774Z" fill="white"/>
<path d="M163.165 202.699H156.116C156.116 202.902 148.851 203.067 148.851 203.067C148.737 203.153 148.633 203.251 148.541 203.361C148.265 203.69 148.114 204.107 148.115 204.537V204.831C148.115 205.319 148.309 205.786 148.653 206.131C148.997 206.476 149.464 206.669 149.951 206.669H163.165C163.651 206.669 164.118 206.475 164.462 206.131C164.806 205.786 164.999 205.319 165 204.831V204.537C164.999 204.05 164.806 203.583 164.462 203.238C164.118 202.894 163.651 202.7 163.165 202.699Z" fill="#3F3D56"/>
<path d="M157.585 206.596H155.676V218.949H157.585V206.596Z" fill="#3F3D56"/>
<path d="M163.017 218.882C163.017 219.088 160.125 218.962 156.557 218.962C152.989 218.962 150.097 219.088 150.097 218.882C150.097 218.675 152.989 217.037 156.557 217.037C160.125 217.037 163.017 218.675 163.017 218.882Z" fill="#3F3D56"/>
<path d="M157.243 186.145C159.513 186.145 161.354 184.302 161.354 182.028C161.354 179.754 159.513 177.911 157.243 177.911C154.972 177.911 153.132 179.754 153.132 182.028C153.132 184.302 154.972 186.145 157.243 186.145Z" fill="#2F2E41"/>
<path d="M147.012 217.257L145.212 217.257L144.355 210.303L147.012 210.303L147.012 217.257Z" fill="#FFB8B8"/>
<path d="M143.926 216.742H147.398V218.931H141.741C141.741 218.35 141.971 217.794 142.381 217.383C142.791 216.972 143.347 216.742 143.926 216.742Z" fill="#2F2E41"/>
<path d="M144.202 216.251L142.485 215.711L143.746 208.819L146.281 209.616L144.202 216.251Z" fill="#FFB8B8"/>
<path d="M141.412 214.834L144.724 215.875L144.07 217.964L138.672 216.267C138.846 215.713 139.232 215.251 139.746 214.982C140.26 214.713 140.859 214.66 141.412 214.834Z" fill="#2F2E41"/>
<path d="M158.344 201.494C158.303 201.143 158.228 200.797 158.121 200.461L157.785 200.038L156.91 198.938L156.872 198.939C156.807 198.942 156.538 198.957 156.123 198.989H156.118C155.861 199.01 155.547 199.036 155.19 199.07C155.096 199.08 154.998 199.089 154.897 199.099V200.635H156.732C156.821 200.635 156.907 200.667 156.974 200.726C157.041 200.785 157.085 200.867 157.096 200.955C157.098 200.971 157.099 200.986 157.099 201.002C157.099 201.1 157.06 201.193 156.992 201.262C156.923 201.331 156.829 201.37 156.732 201.37H146.073C145.937 201.46 145.806 201.559 145.682 201.664C145.307 201.955 145.036 202.361 144.911 202.82C144.289 205.561 143.154 210.673 142.819 212.174C142.795 212.287 142.8 212.405 142.835 212.515C142.87 212.625 142.933 212.725 143.017 212.803C143.08 212.862 143.153 212.907 143.233 212.937L144.557 213.434C144.612 213.454 144.669 213.468 144.726 213.474C144.734 213.474 144.74 213.475 144.747 213.475C144.761 213.477 144.774 213.477 144.788 213.477C144.922 213.476 145.053 213.435 145.163 213.359C145.273 213.283 145.358 213.176 145.406 213.05L146.451 210.303L148.062 206.068L148.699 204.393C149.438 204.567 155.634 205.94 157.708 203.727C157.913 203.509 158.074 203.254 158.184 202.976C158.359 202.502 158.414 201.993 158.344 201.494Z" fill="#2F2E41"/>
<path d="M160.141 201.894C160.109 201.763 160.072 201.627 160.03 201.491L158.818 199.967L158.78 199.969C158.704 199.973 158.341 199.992 157.785 200.038C157.153 200.091 156.271 200.176 155.28 200.31C155.251 200.313 155.22 200.317 155.19 200.322C155.093 200.335 154.995 200.348 154.897 200.363V200.635H156.732C156.821 200.635 156.907 200.667 156.974 200.726C157.041 200.785 157.085 200.867 157.096 200.955C157.098 200.971 157.099 200.986 157.099 201.002C157.099 201.1 157.06 201.193 156.992 201.262C156.923 201.331 156.829 201.37 156.732 201.37H150.245C149.962 201.463 149.689 201.56 149.428 201.664C148.056 202.208 147.03 202.921 146.82 203.849C146.75 204.161 146.672 204.504 146.59 204.868C146.284 206.224 145.913 207.884 145.576 209.393V209.395C145.507 209.706 145.438 210.009 145.372 210.303C145.092 211.568 144.854 212.64 144.728 213.203C144.725 213.22 144.722 213.234 144.719 213.25V213.253C144.704 213.367 144.718 213.483 144.76 213.59L144.762 213.592V213.593C144.802 213.696 144.868 213.786 144.952 213.856C145.009 213.903 145.073 213.94 145.142 213.967L146.466 214.464C146.54 214.491 146.618 214.506 146.697 214.506C146.807 214.506 146.916 214.479 147.012 214.425C147.151 214.35 147.258 214.227 147.315 214.08L150.166 206.586L150.608 205.423C151.347 205.596 157.542 206.968 159.617 204.757C160.027 204.312 160.261 203.733 160.275 203.129C160.289 202.713 160.244 202.297 160.141 201.894Z" fill="#2F2E41"/>
<path d="M159.978 188.92C159.955 188.893 159.93 188.865 159.903 188.838C159.512 188.426 159.029 188.113 158.494 187.924C157.959 187.735 157.387 187.676 156.824 187.751C156.334 187.816 155.848 187.912 155.369 188.038C154.752 188.197 154.186 188.515 153.728 188.96C153.371 189.306 153.091 189.723 152.903 190.184C152.716 190.645 152.626 191.139 152.64 191.637C152.646 191.838 152.647 192.044 152.644 192.253C152.644 192.35 152.643 192.448 152.642 192.547H154.089C154.152 192.547 154.215 192.554 154.276 192.569C154.452 192.611 154.61 192.712 154.722 192.854C154.835 192.997 154.896 193.174 154.897 193.356V200.197C154.995 200.224 155.093 200.252 155.19 200.282C155.221 200.292 155.251 200.301 155.28 200.31C155.314 200.32 155.347 200.33 155.38 200.341C155.678 200.433 155.969 200.531 156.253 200.635H156.732C156.821 200.635 156.907 200.667 156.974 200.726C157.041 200.785 157.085 200.867 157.096 200.955C157.196 200.995 157.293 201.035 157.388 201.074C157.727 201.216 158.049 201.357 158.344 201.494C158.742 201.676 159.096 201.849 159.392 202.001C159.486 202.048 159.589 202.074 159.693 202.074C159.831 202.074 159.965 202.03 160.075 201.948C160.098 201.931 160.12 201.913 160.141 201.893C160.22 201.82 160.279 201.728 160.314 201.626C160.349 201.524 160.359 201.415 160.342 201.308C160.191 200.153 160.147 198.986 160.21 197.823C160.251 196.845 160.339 195.842 160.454 194.873C160.516 194.348 160.585 193.834 160.657 193.338C160.726 192.864 160.799 192.41 160.871 191.981C160.965 191.436 160.934 190.877 160.779 190.347C160.624 189.816 160.35 189.328 159.978 188.92Z" fill="#6C63FF"/>
<path d="M153.96 189.041C153.885 189.009 153.807 188.982 153.728 188.96C153.337 188.855 152.921 188.894 152.556 189.07C152.191 189.246 151.901 189.548 151.74 189.92L150.731 192.253L150.605 192.547H154.089C154.152 192.547 154.214 192.554 154.276 192.569L154.393 192.297L154.839 191.265C155.017 190.853 155.024 190.387 154.859 189.971C154.694 189.554 154.371 189.219 153.96 189.041Z" fill="#6C63FF"/>
<path d="M157.092 186.603C159.084 186.603 160.699 184.986 160.699 182.991C160.699 180.997 159.084 179.38 157.092 179.38C155.101 179.38 153.486 180.997 153.486 182.991C153.486 184.986 155.101 186.603 157.092 186.603Z" fill="#FFB8B8"/>
<path d="M153.421 181.217C155.129 182.261 157.055 182.897 159.049 183.074L158.455 182.362C158.887 182.522 159.342 182.612 159.802 182.63C160.261 182.623 160.743 182.446 161.004 182.066C161.12 181.878 161.189 181.664 161.205 181.443C161.221 181.222 161.184 181.001 161.096 180.797C160.915 180.392 160.633 180.04 160.278 179.774C159.649 179.275 158.906 178.94 158.116 178.799C157.326 178.657 156.513 178.714 155.75 178.963C155.226 179.12 154.758 179.421 154.397 179.832C154.055 180.255 153.397 180.631 153.572 181.146L153.421 181.217Z" fill="#2F2E41"/>
<path d="M157.699 178.302C156.561 177.147 155.185 176.256 153.667 175.691C152.692 175.329 151.631 175.106 150.612 175.311C149.593 175.516 148.629 176.222 148.345 177.224C148.112 178.043 148.352 178.924 148.713 179.695C149.074 180.466 149.556 181.181 149.847 181.98C150.145 182.796 150.235 183.673 150.108 184.533C149.981 185.392 149.642 186.206 149.122 186.901C148.601 187.596 147.915 188.149 147.127 188.511C146.339 188.873 145.473 189.033 144.607 188.974C145.609 189.109 146.532 189.58 147.51 189.831C148.489 190.082 149.644 190.065 150.371 189.363C151.141 188.62 151.156 187.412 151.119 186.342C151.064 184.751 151.008 183.161 150.953 181.571C150.925 180.76 150.901 179.922 151.193 179.165C151.485 178.408 152.179 177.746 152.989 177.752C153.603 177.758 154.147 178.13 154.639 178.498C155.132 178.865 155.653 179.257 156.265 179.312C156.876 179.367 157.575 178.913 157.529 178.3L157.699 178.302Z" fill="#2F2E41"/>
<path d="M160.656 193.338L158.598 193.394L158.448 194.842L158.414 195.178L155.19 196.628L154.896 196.76V199.338L155.19 199.254L156.118 198.989H156.122L160.21 197.823L160.257 197.81C160.587 197.714 160.878 197.515 161.086 197.24C161.294 196.966 161.408 196.632 161.411 196.288L161.421 194.578L161.43 193.317L160.656 193.338Z" fill="#FFB8B8"/>
<path d="M161.326 190.473C161.298 190.026 161.095 189.607 160.759 189.31C160.423 189.013 159.984 188.861 159.537 188.889C159.09 188.916 158.672 189.121 158.375 189.457C158.079 189.793 157.927 190.233 157.955 190.681L158.179 194.351C158.186 194.448 158.213 194.542 158.259 194.627C158.306 194.712 158.37 194.785 158.448 194.842C158.572 194.935 158.725 194.98 158.88 194.97L160.454 194.873L160.931 194.844C161.018 194.839 161.103 194.818 161.181 194.779C161.259 194.741 161.329 194.688 161.386 194.622C161.399 194.608 161.41 194.593 161.421 194.578C161.515 194.453 161.56 194.298 161.55 194.142L161.326 190.473Z" fill="#6C63FF"/>
<path d="M155.38 200.341H155.19V200.322C155.094 200.335 154.995 200.348 154.897 200.363V200.635H156.253C155.969 200.532 155.677 200.434 155.38 200.341ZM155.38 200.341H155.19V200.322C155.094 200.335 154.995 200.348 154.897 200.363V200.635H156.253C155.969 200.532 155.677 200.434 155.38 200.341ZM156.732 200.341H155.19V193.356C155.19 193.116 155.112 192.884 154.968 192.693C154.824 192.502 154.623 192.363 154.393 192.297C154.295 192.267 154.192 192.252 154.089 192.253H141.022C140.73 192.253 140.45 192.369 140.244 192.576C140.037 192.783 139.921 193.063 139.921 193.356V200.561C139.921 200.854 140.037 201.134 140.244 201.341C140.45 201.548 140.73 201.664 141.022 201.664H156.732C156.895 201.664 157.052 201.604 157.173 201.495C157.294 201.386 157.37 201.236 157.388 201.074C157.391 201.051 157.393 201.026 157.393 201.002C157.393 200.827 157.323 200.659 157.199 200.535C157.075 200.411 156.907 200.341 156.732 200.341ZM157.099 201.002C157.099 201.1 157.06 201.193 156.992 201.262C156.923 201.331 156.829 201.37 156.732 201.37H141.022C140.808 201.37 140.603 201.285 140.451 201.133C140.3 200.981 140.215 200.776 140.215 200.561V193.356C140.215 193.141 140.3 192.936 140.451 192.784C140.603 192.632 140.808 192.547 141.022 192.547H154.089C154.152 192.547 154.215 192.554 154.276 192.569C154.452 192.611 154.61 192.712 154.722 192.854C154.835 192.997 154.896 193.174 154.897 193.356V200.635H156.732C156.821 200.635 156.907 200.667 156.974 200.726C157.041 200.785 157.085 200.867 157.096 200.955C157.098 200.972 157.099 200.986 157.099 201.002ZM155.38 200.341H155.19V200.322C155.094 200.335 154.995 200.348 154.897 200.363V200.635H156.253C155.969 200.532 155.677 200.434 155.38 200.341Z" fill="#3F3D56"/>
<path d="M147.555 197.841C148.042 197.841 148.436 197.446 148.436 196.959C148.436 196.471 148.042 196.076 147.555 196.076C147.069 196.076 146.674 196.471 146.674 196.959C146.674 197.446 147.069 197.841 147.555 197.841Z" fill="#6C63FF"/>
<path d="M68.8705 124.495C68.8672 124.562 68.8693 124.629 68.8766 124.696L64.266 128.572L62.8911 128.073L61.8687 130.053L64.8746 131.486L69.915 125.821C70.1695 125.867 70.4321 125.835 70.6677 125.728C70.9034 125.621 71.101 125.445 71.2342 125.223C71.3675 125.001 71.4301 124.743 71.4137 124.485C71.3973 124.226 71.3027 123.979 71.1425 123.775C70.9823 123.572 70.7641 123.422 70.5168 123.346C70.2696 123.27 70.0051 123.271 69.7584 123.349C69.5118 123.427 69.2947 123.579 69.1361 123.783C68.9775 123.988 68.8849 124.236 68.8705 124.495Z" fill="#FFB8B8"/>
<path d="M62.6867 131.003L58.2345 129.393C57.8258 129.245 57.4924 128.941 57.3077 128.547C57.123 128.153 57.1021 127.702 57.2497 127.292C57.3972 126.883 57.7011 126.549 58.0944 126.364C58.4877 126.179 58.9383 126.158 59.3471 126.306L63.7993 127.916C63.8667 127.94 63.9288 127.977 63.9818 128.026C64.0348 128.074 64.0777 128.133 64.1082 128.198C64.1387 128.263 64.1561 128.333 64.1594 128.405C64.1627 128.476 64.1519 128.548 64.1275 128.616L63.3859 130.674C63.3365 130.81 63.2352 130.921 63.1042 130.983C62.9731 131.045 62.823 131.052 62.6867 131.003Z" fill="white"/>
<path d="M59.4261 146.683L60.914 146.683L61.6218 140.934L59.4258 140.935L59.4261 146.683Z" fill="#FFB8B8"/>
<path d="M63.7837 148.066L59.1073 148.067L59.1072 146.257L61.9768 146.257C62.456 146.257 62.9156 146.448 63.2544 146.787C63.5933 147.126 63.7837 147.586 63.7837 148.066Z" fill="#2F2E41"/>
<path d="M55.749 144.758L56.9662 145.615L60.8464 141.32L59.05 140.055L55.749 144.758Z" fill="#FFB8B8"/>
<path d="M58.3721 148.106L54.5466 145.412L55.5858 143.932L57.9332 145.585C58.3252 145.861 58.5917 146.281 58.674 146.754C58.7563 147.227 58.6477 147.713 58.3721 148.106Z" fill="#2F2E41"/>
<path d="M62.682 136.328C62.682 136.328 66.3952 135.889 65.7287 138.303C65.0622 140.716 57.6357 142.8 57.6357 142.8L62.682 136.328Z" fill="#FFB8B8"/>
<path d="M60.1264 124.014C61.7728 124.014 63.1074 122.677 63.1074 121.028C63.1074 119.379 61.7728 118.043 60.1264 118.043C58.4801 118.043 57.1455 119.379 57.1455 121.028C57.1455 122.677 58.4801 124.014 60.1264 124.014Z" fill="#FFB8B8"/>
<path d="M50.6198 142.306C48.9236 140.328 48.33 137.292 51.035 134.767C51.7031 134.158 52.4595 133.655 53.2784 133.275L55.4586 127.168C55.685 126.53 56.1002 125.977 56.6487 125.582C57.1973 125.187 57.8531 124.968 58.5288 124.956C59.1847 124.928 59.8334 125.104 60.3857 125.459C60.9379 125.815 61.3666 126.333 61.613 126.943C61.8793 127.563 61.9097 128.259 61.6986 128.9C61.0497 130.925 60.1974 132.878 59.1549 134.73L59.2676 135.633L64.7782 136.123L64.7267 136.207C64.6999 136.251 62.003 140.366 58.5529 143.098C57.3732 144.032 56.1533 144.419 55.002 144.419C53.2561 144.419 51.6682 143.529 50.6198 142.306Z" fill="white"/>
<path d="M50.0999 121.965C50.6273 121.335 50.8535 120.512 51.0355 119.711C51.3234 118.443 51.5462 117.132 52.1859 116.001C52.8255 114.87 54.001 113.932 55.2971 114.004C56.5858 114.075 57.6277 115.113 58.1807 116.295C58.3146 116.243 58.458 116.219 58.6015 116.226C58.745 116.233 58.8855 116.27 59.0138 116.335C59.4124 116.554 59.5614 117.175 59.2296 117.486C59.5785 117.32 59.9586 117.229 60.3449 117.219C60.7313 117.209 61.1154 117.281 61.4722 117.43C61.931 117.626 62.327 117.944 62.6167 118.351C62.9064 118.757 63.0786 119.236 63.1142 119.734C63.1281 119.936 63.1004 120.139 63.0328 120.33C62.9652 120.521 62.8592 120.696 62.7212 120.845C62.1493 121.434 61.3404 121.231 60.6211 121.081C59.9417 120.939 59.1143 120.901 58.7316 121.549C58.5807 121.819 58.5385 122.137 58.6135 122.437C58.7601 123.084 59.2385 123.535 59.7027 123.966L59.7786 124.108C58.1398 124.428 56.3503 123.307 55.9204 121.691C55.4905 120.075 56.4859 118.211 58.0664 117.672C57.9612 117.675 57.8571 117.65 57.7647 117.6C57.6723 117.549 57.5951 117.475 57.541 117.384C57.4869 117.294 57.4579 117.191 57.457 117.085C57.4561 116.98 57.4833 116.876 57.5358 116.785C57.0983 116.539 56.6032 116.416 56.1018 116.426C55.2854 116.48 54.5789 117.062 54.1541 117.762C53.7292 118.463 53.5368 119.276 53.3419 120.071C53.147 120.867 52.9361 121.678 52.4818 122.36C52.1671 122.832 51.7467 123.224 51.254 123.504C50.7613 123.784 50.21 123.946 49.6441 123.975C49.0781 124.004 48.5133 123.9 47.9945 123.671C47.4757 123.443 47.0175 123.096 46.6562 122.659C47.2271 122.936 47.8729 123.019 48.4949 122.893C49.1168 122.768 49.6806 122.442 50.0999 121.965Z" fill="#2F2E41"/>
<path d="M71.9941 130.101C74.3872 130.101 76.3271 128.158 76.3271 125.762C76.3271 123.365 74.3872 121.422 71.9941 121.422C69.6011 121.422 67.6611 123.365 67.6611 125.762C67.6611 128.158 69.6011 130.101 71.9941 130.101Z" fill="#6C63FF"/>
<path d="M71.8608 128.202C71.8433 128.185 71.8294 128.164 71.8199 128.141C71.8105 128.118 71.8056 128.094 71.8057 128.069V123.266C71.8057 123.216 71.8255 123.168 71.8608 123.132C71.8962 123.097 71.9441 123.077 71.994 123.077C72.044 123.077 72.0919 123.097 72.1272 123.132C72.1626 123.168 72.1824 123.216 72.1824 123.266V128.069C72.1824 128.106 72.1714 128.143 72.1507 128.174C72.13 128.205 72.1005 128.229 72.0661 128.243C72.0317 128.257 71.9938 128.261 71.9573 128.254C71.9207 128.247 71.8872 128.229 71.8608 128.202Z" fill="white"/>
<path d="M69.4629 125.801C69.4365 125.774 69.4186 125.741 69.4113 125.704C69.4041 125.667 69.4078 125.63 69.4221 125.595C69.4363 125.561 69.4605 125.531 69.4914 125.51C69.5224 125.49 69.5588 125.479 69.5961 125.479H74.3917C74.4417 125.479 74.4896 125.498 74.525 125.534C74.5603 125.569 74.5801 125.617 74.5801 125.667C74.5801 125.717 74.5603 125.765 74.525 125.801C74.4896 125.836 74.4417 125.856 74.3917 125.856H69.5961C69.5713 125.856 69.5468 125.851 69.524 125.842C69.5011 125.832 69.4803 125.818 69.4629 125.801Z" fill="white"/>
<path d="M69.0198 128.664C68.9884 128.724 68.9616 128.786 68.9399 128.849L63.1219 130.394L62.089 129.358L60.3232 130.715L62.436 133.292L69.4025 130.309C69.6133 130.46 69.8647 130.542 70.1234 130.546C70.382 130.549 70.6356 130.474 70.8505 130.33C71.0653 130.185 71.2312 129.979 71.3261 129.738C71.421 129.497 71.4404 129.233 71.3817 128.98C71.323 128.728 71.189 128.5 70.9975 128.325C70.8061 128.151 70.5662 128.04 70.3098 128.005C70.0534 127.971 69.7926 128.016 69.5622 128.133C69.3318 128.251 69.1426 128.436 69.0198 128.664Z" fill="#FFB8B8"/>
<path d="M60.6609 131.923L57.3139 128.57C57.1613 128.418 57.0402 128.237 56.9576 128.038C56.8749 127.839 56.8322 127.625 56.832 127.409C56.8318 127.194 56.8741 126.98 56.9565 126.781C57.0388 126.581 57.1596 126.4 57.3119 126.248C57.4642 126.095 57.6451 125.974 57.8441 125.892C58.0432 125.809 58.2565 125.767 58.4719 125.767C58.6873 125.767 58.9005 125.81 59.0994 125.893C59.2983 125.976 59.479 126.097 59.631 126.25L62.978 129.602C63.0287 129.653 63.069 129.713 63.0964 129.779C63.1239 129.846 63.138 129.917 63.138 129.989C63.138 130.06 63.1239 130.132 63.0964 130.198C63.069 130.264 63.0287 130.325 62.978 130.375L61.4333 131.923C61.3308 132.025 61.1919 132.083 61.0471 132.083C60.9023 132.083 60.7634 132.025 60.6609 131.923Z" fill="white"/>
</g>
</g>
<defs>
<filter id="filter0_d_2849_14472" x="0" y="0" width="464" height="233" filterUnits="userSpaceOnUse" color-interpolation-filters="sRGB">
<feFlood flood-opacity="0" result="BackgroundImageFix"/>
<feColorMatrix in="SourceAlpha" type="matrix" values="0 0 0 0 0 0 0 0 0 0 0 0 0 0 0 0 0 0 127 0" result="hardAlpha"/>
<feOffset dy="4"/>
<feGaussianBlur stdDeviation="2"/>
<feComposite in2="hardAlpha" operator="out"/>
<feColorMatrix type="matrix" values="0 0 0 0 0 0 0 0 0 0 0 0 0 0 0 0 0 0 0.25 0"/>
<feBlend mode="normal" in2="BackgroundImageFix" result="effect1_dropShadow_2849_14472"/>
<feBlend mode="normal" in="SourceGraphic" in2="effect1_dropShadow_2849_14472" result="shape"/>
</filter>
<clipPath id="clip0_2849_14472">
<rect width="456" height="225" fill="white" transform="translate(4)"/>
</clipPath>
<clipPath id="clip1_2849_14472">
<rect width="145" height="105" fill="white" transform="translate(20 114)"/>
</clipPath>
</defs>
</svg>
