<svg width="464" height="233" viewBox="0 0 464 233" fill="none" xmlns="http://www.w3.org/2000/svg">
<g clip-path="url(#clip0_2849_14542)" filter="url(#filter0_d_2849_14542)">
<rect width="456" height="225" transform="translate(4)" fill="#CEC46A"/>
<path d="M-10 204.5C12.3333 190.333 71.6 165.2 130 178C203 194 314.5 127.5 355.5 115.5C396.5 103.5 435 73.5 472.5 94.5C502.5 111.3 485 144.167 472.5 158.5M-10 31C24.1667 40.3333 91.1 68 85.5 104C79.9 140 239.5 53.6667 320 6" stroke="#DFD682"/>
<path d="M461.679 32.0001C461.679 32.0001 153 -6.49998 146 32C139 70.5 3.6708 56.6588 3.6708 56.6588L1.99969 -35.1236L461.5 -43.5001L461.679 32.0001Z" fill="#D9D9D9"/>
<g clip-path="url(#clip1_2849_14542)">
<path d="M278.523 210.643C278.596 213.358 279.051 216.05 279.876 218.638C279.894 218.698 279.914 218.757 279.934 218.817H284.981C284.976 218.764 284.97 218.703 284.965 218.638C284.629 214.773 286.551 191.531 288.871 187.509C288.667 187.835 278.132 198.363 278.523 210.643Z" fill="#F1F1F1"/>
<path d="M278.902 218.638C278.944 218.698 278.988 218.758 279.033 218.817H282.82C282.791 218.766 282.758 218.706 282.719 218.638C282.094 217.51 280.242 214.139 278.524 210.643C276.678 206.887 274.983 202.988 275.126 201.577C275.081 201.895 273.803 211.597 278.902 218.638Z" fill="#F1F1F1"/>
<path d="M389.039 134.017C389.183 134.374 389.404 134.694 389.686 134.957C389.968 135.219 390.304 135.417 390.671 135.535C391.038 135.654 391.426 135.69 391.808 135.643C392.191 135.595 392.558 135.464 392.884 135.26L400.192 141.115L400.644 136.273L393.635 131.455C393.255 130.93 392.695 130.563 392.061 130.423C391.428 130.283 390.765 130.38 390.198 130.696C389.631 131.012 389.2 131.524 388.987 132.136C388.773 132.748 388.791 133.417 389.039 134.017Z" fill="#9F616A"/>
<path d="M400.354 135.819L397.627 133.894L394.534 137.464L398.132 139.595L400.354 135.819Z" fill="#6C63FF"/>
<path d="M399.757 134.513L408.949 138.046L417.796 132.258C418.711 131.66 419.812 131.415 420.894 131.568C421.976 131.722 422.965 132.263 423.677 133.092C424.389 133.921 424.774 134.98 424.761 136.072C424.749 137.163 424.339 138.213 423.608 139.025L423.529 139.113L409.92 146.402L395.056 139.618L399.757 134.513Z" fill="#3F3D56"/>
<path d="M397.166 218.452H301.393L304.866 150.71H319.853L333.673 160.387H400.639L397.166 218.452Z" fill="#E5E5E5"/>
<path d="M373.722 197.794L318.366 175.019C318.173 174.94 318.019 174.786 317.938 174.593C317.858 174.4 317.857 174.183 317.937 173.989L343.019 113.143C343.099 112.95 343.253 112.796 343.446 112.716C343.639 112.635 343.857 112.635 344.05 112.714L399.406 135.489C399.599 135.569 399.753 135.722 399.834 135.915C399.914 136.108 399.915 136.325 399.835 136.519L374.753 197.365C374.673 197.558 374.519 197.712 374.326 197.793C374.133 197.873 373.915 197.874 373.722 197.794Z" fill="white"/>
<path d="M373.722 197.794L318.366 175.019C318.173 174.94 318.019 174.786 317.938 174.593C317.858 174.4 317.857 174.183 317.937 173.989L343.019 113.143C343.099 112.95 343.253 112.796 343.446 112.716C343.639 112.635 343.857 112.635 344.05 112.714L399.406 135.489C399.599 135.569 399.753 135.722 399.834 135.915C399.914 136.108 399.915 136.325 399.835 136.519L374.753 197.365C374.673 197.558 374.519 197.712 374.326 197.793C374.133 197.873 373.915 197.874 373.722 197.794ZM343.93 113.006C343.814 112.959 343.683 112.959 343.567 113.007C343.451 113.055 343.359 113.148 343.311 113.264L318.229 174.11C318.181 174.226 318.181 174.356 318.23 174.472C318.278 174.588 318.37 174.68 318.487 174.728L373.842 197.502C373.958 197.55 374.089 197.55 374.205 197.501C374.321 197.453 374.413 197.361 374.461 197.245L399.543 136.399C399.591 136.283 399.591 136.152 399.542 136.037C399.494 135.921 399.402 135.829 399.286 135.781L343.93 113.006Z" fill="#3F3D56"/>
<path d="M359.564 142.834L345.835 137.185C345.641 137.106 345.488 136.952 345.407 136.759C345.326 136.566 345.326 136.349 345.405 136.155L351.06 122.44C351.14 122.246 351.293 122.092 351.486 122.012C351.68 121.932 351.897 121.931 352.091 122.01L365.82 127.659C366.013 127.739 366.167 127.892 366.248 128.085C366.328 128.278 366.329 128.495 366.249 128.689L360.595 142.405C360.515 142.598 360.362 142.752 360.169 142.832C359.975 142.913 359.758 142.913 359.564 142.834ZM351.97 122.302C351.854 122.255 351.724 122.255 351.608 122.303C351.492 122.351 351.4 122.444 351.352 122.56L345.698 136.276C345.65 136.392 345.65 136.522 345.698 136.638C345.747 136.754 345.839 136.846 345.955 136.894L359.685 142.542C359.801 142.59 359.931 142.59 360.047 142.541C360.163 142.493 360.255 142.401 360.303 142.285L365.957 128.569C366.005 128.453 366.005 128.322 365.956 128.207C365.908 128.091 365.816 127.999 365.7 127.951L351.97 122.302Z" fill="#F2F2F2"/>
<path d="M354.929 142.89L341.2 137.241C341.026 137.169 340.887 137.031 340.815 136.857C340.743 136.683 340.742 136.488 340.814 136.314L346.468 122.598C346.54 122.424 346.678 122.286 346.852 122.213C347.026 122.141 347.221 122.14 347.396 122.212L361.125 127.86C361.299 127.932 361.438 128.07 361.51 128.244C361.583 128.418 361.583 128.613 361.512 128.787L355.857 142.503C355.785 142.677 355.647 142.816 355.473 142.888C355.299 142.961 355.104 142.961 354.929 142.89Z" fill="#BFC389"/>
<path d="M381.374 161.62L338.433 143.953C338.346 143.917 338.268 143.865 338.202 143.8C338.136 143.734 338.083 143.656 338.047 143.569C338.011 143.483 337.993 143.391 337.993 143.298C337.992 143.205 338.011 143.112 338.046 143.026C338.082 142.94 338.134 142.861 338.2 142.795C338.266 142.729 338.344 142.677 338.43 142.641C338.516 142.605 338.609 142.586 338.702 142.586C338.795 142.586 338.888 142.604 338.974 142.64L381.915 160.307C382.089 160.378 382.228 160.516 382.3 160.69C382.373 160.864 382.373 161.059 382.301 161.234C382.23 161.408 382.092 161.546 381.918 161.619C381.744 161.691 381.548 161.692 381.374 161.62Z" fill="#CCCCCC"/>
<path d="M369.139 161.877L336.569 148.476C336.482 148.441 336.404 148.389 336.338 148.323C336.271 148.257 336.219 148.179 336.183 148.093C336.147 148.007 336.129 147.914 336.128 147.821C336.128 147.728 336.146 147.636 336.182 147.549C336.218 147.463 336.27 147.385 336.336 147.319C336.401 147.253 336.48 147.2 336.566 147.164C336.652 147.128 336.744 147.11 336.838 147.11C336.931 147.109 337.024 147.128 337.11 147.163L369.681 160.563C369.855 160.635 369.994 160.773 370.066 160.947C370.139 161.121 370.139 161.316 370.067 161.49C369.995 161.665 369.857 161.803 369.683 161.876C369.509 161.948 369.314 161.948 369.139 161.877Z" fill="#CCCCCC"/>
<path d="M388.085 144.926L369.097 137.114C369.011 137.078 368.933 137.026 368.866 136.96C368.8 136.894 368.748 136.816 368.712 136.73C368.676 136.644 368.657 136.552 368.657 136.459C368.657 136.365 368.675 136.273 368.711 136.187C368.746 136.1 368.799 136.022 368.864 135.956C368.93 135.89 369.009 135.837 369.095 135.802C369.181 135.766 369.273 135.747 369.367 135.747C369.46 135.747 369.552 135.765 369.639 135.801L388.626 143.612C388.8 143.684 388.939 143.822 389.012 143.996C389.084 144.17 389.084 144.365 389.013 144.539C388.941 144.714 388.803 144.852 388.629 144.924C388.455 144.997 388.259 144.997 388.085 144.926Z" fill="#CCCCCC"/>
<path d="M381.481 147.499L367.233 141.637C367.058 141.565 366.92 141.427 366.847 141.254C366.775 141.08 366.774 140.884 366.846 140.71C366.918 140.536 367.056 140.397 367.23 140.325C367.404 140.253 367.6 140.252 367.774 140.324L382.023 146.186C382.197 146.258 382.336 146.396 382.408 146.57C382.481 146.743 382.481 146.939 382.409 147.113C382.338 147.287 382.199 147.426 382.025 147.498C381.851 147.571 381.656 147.571 381.481 147.499Z" fill="#CCCCCC"/>
<path d="M377.645 170.666L334.704 153C334.617 152.964 334.539 152.912 334.473 152.846C334.407 152.78 334.354 152.702 334.318 152.616C334.282 152.53 334.264 152.438 334.264 152.344C334.263 152.251 334.282 152.159 334.317 152.073C334.353 151.986 334.405 151.908 334.471 151.842C334.537 151.776 334.615 151.723 334.701 151.688C334.787 151.652 334.88 151.633 334.973 151.633C335.066 151.633 335.159 151.651 335.245 151.686L378.186 169.353C378.36 169.425 378.499 169.563 378.571 169.737C378.644 169.911 378.644 170.106 378.572 170.28C378.501 170.454 378.363 170.593 378.189 170.665C378.015 170.738 377.819 170.738 377.645 170.666Z" fill="#CCCCCC"/>
<path d="M365.41 170.923L332.839 157.523C332.753 157.487 332.674 157.435 332.608 157.37C332.542 157.304 332.489 157.226 332.454 157.139C332.418 157.053 332.399 156.961 332.399 156.868C332.399 156.775 332.417 156.682 332.452 156.596C332.488 156.51 332.54 156.431 332.606 156.365C332.672 156.299 332.75 156.247 332.836 156.211C332.923 156.175 333.015 156.156 333.108 156.156C333.202 156.156 333.294 156.174 333.38 156.21L365.951 169.61C366.037 169.646 366.116 169.698 366.182 169.764C366.248 169.829 366.301 169.908 366.337 169.994C366.372 170.08 366.391 170.172 366.391 170.265C366.391 170.359 366.373 170.451 366.338 170.537C366.302 170.623 366.25 170.702 366.184 170.768C366.118 170.834 366.04 170.886 365.954 170.922C365.868 170.958 365.775 170.977 365.682 170.977C365.589 170.977 365.496 170.959 365.41 170.923Z" fill="#CCCCCC"/>
<path d="M373.915 179.713L330.974 162.046C330.8 161.975 330.661 161.837 330.589 161.663C330.516 161.489 330.516 161.293 330.588 161.119C330.66 160.945 330.798 160.807 330.972 160.734C331.146 160.662 331.341 160.661 331.516 160.733L374.456 178.4C374.631 178.472 374.769 178.61 374.842 178.783C374.914 178.957 374.915 179.153 374.843 179.327C374.771 179.501 374.633 179.64 374.459 179.712C374.285 179.784 374.089 179.785 373.915 179.713Z" fill="#CCCCCC"/>
<path d="M372.05 184.236L329.11 166.57C328.935 166.498 328.797 166.36 328.724 166.186C328.652 166.012 328.651 165.817 328.723 165.643C328.795 165.468 328.933 165.33 329.107 165.257C329.281 165.185 329.477 165.185 329.651 165.256L372.592 182.923C372.678 182.959 372.756 183.011 372.823 183.077C372.889 183.142 372.941 183.221 372.977 183.307C373.013 183.393 373.032 183.485 373.032 183.578C373.032 183.672 373.014 183.764 372.978 183.85C372.943 183.936 372.89 184.015 372.825 184.081C372.759 184.147 372.68 184.199 372.594 184.235C372.508 184.271 372.416 184.29 372.322 184.29C372.229 184.29 372.137 184.272 372.05 184.236Z" fill="#CCCCCC"/>
<path d="M351.102 183.9C351.961 183.946 352.823 183.92 353.678 183.822C354.448 183.732 355.25 183.608 355.925 183.204C356.217 183.037 356.465 182.805 356.65 182.524C356.835 182.244 356.951 181.924 356.989 181.591C357.019 181.273 356.947 180.955 356.783 180.681C356.62 180.407 356.373 180.193 356.08 180.068C355.782 179.943 355.455 179.9 355.135 179.945C354.815 179.99 354.513 180.121 354.261 180.323C353.991 180.556 353.778 180.848 353.638 181.175C353.497 181.502 353.432 181.857 353.447 182.213C353.483 183.675 354.64 185.118 355.926 185.726C357.373 186.411 359.35 185.829 359.721 184.143C359.798 183.792 359.32 183.67 359.12 183.895C358.847 184.196 358.7 184.589 358.707 184.995C358.715 185.401 358.877 185.788 359.161 186.078C359.445 186.369 359.829 186.539 360.235 186.556C360.641 186.573 361.038 186.434 361.345 186.168L360.807 185.947C360.963 186.602 361.289 187.204 361.753 187.692C362.216 188.181 362.8 188.539 363.446 188.731C363.764 188.827 364.095 188.877 364.427 188.881C364.832 188.882 365.247 189.084 365.634 189.21L368.42 190.117C368.83 190.251 369.09 189.629 368.677 189.495L366.153 188.673C365.733 188.536 365.313 188.396 364.891 188.263C364.59 188.167 364.26 188.219 363.945 188.163C363.357 188.052 362.812 187.775 362.375 187.367C361.937 186.958 361.625 186.433 361.475 185.854C361.465 185.796 361.441 185.742 361.405 185.696C361.369 185.65 361.322 185.615 361.268 185.593C361.214 185.57 361.155 185.562 361.097 185.569C361.039 185.576 360.984 185.598 360.936 185.633C360.76 185.8 360.525 185.891 360.281 185.886C360.038 185.881 359.807 185.781 359.637 185.606C359.468 185.431 359.375 185.197 359.378 184.954C359.381 184.711 359.48 184.479 359.653 184.308L359.052 184.061C358.813 185.149 357.485 185.557 356.527 185.242C355.457 184.89 354.536 183.867 354.217 182.795C354.132 182.537 354.1 182.265 354.125 181.994C354.15 181.724 354.23 181.462 354.361 181.224C354.478 181.007 354.659 180.832 354.881 180.724C355.102 180.615 355.352 180.579 355.595 180.62C355.812 180.651 356.008 180.764 356.143 180.937C356.278 181.11 356.34 181.328 356.317 181.546C356.281 181.791 356.186 182.023 356.039 182.223C355.892 182.422 355.699 182.583 355.475 182.69C354.873 183.013 354.151 183.093 353.482 183.167C352.719 183.25 351.95 183.271 351.184 183.232C350.754 183.21 350.667 183.879 351.102 183.9Z" fill="#6C63FF"/>
<path d="M397.166 164.952V218.452H301.393V155.275H316.38L330.2 164.952H397.166Z" fill="white"/>
<path d="M346.355 208.41H307.242V211.514H346.355V208.41Z" fill="#BFC389"/>
<path d="M326.798 202.384H307.242V205.488H326.798V202.384Z" fill="#BFC389"/>
<path d="M397.349 218.635H301.21V155.092H316.438L330.259 164.77H397.349V218.635ZM301.576 218.27H396.984V165.135H330.143L316.323 155.457H301.576V218.27Z" fill="#3F3D56"/>
<path d="M436.167 212.178L432.926 213.334L426.917 201.398L431.7 199.69L436.167 212.178Z" fill="#9F616A"/>
<path d="M427.667 218.751L427.62 218.619C427.236 217.542 427.295 216.356 427.785 215.322C428.275 214.288 429.156 213.49 430.233 213.104L436.615 210.825L438.116 215.021L427.667 218.751Z" fill="#2F2E41"/>
<path d="M415.094 215.38H411.653L410.016 202.118L415.095 202.119L415.094 215.38Z" fill="#9F616A"/>
<path d="M415.972 218.712L404.875 218.712V218.572C404.875 218.005 404.987 217.444 405.204 216.92C405.421 216.397 405.739 215.921 406.14 215.521C406.541 215.12 407.017 214.802 407.541 214.585C408.065 214.368 408.627 214.257 409.194 214.257H409.194L415.972 214.257L415.972 218.712Z" fill="#2F2E41"/>
<path d="M422.937 130.659L421.44 127.704C421.44 127.704 415.865 129.1 415.358 132.328L422.937 130.659Z" fill="#6C63FF"/>
<path d="M429.112 164.441L425.042 187.131L435.849 206.225L429.393 208.749L418.446 190.24L417.042 185.193L416.2 211.553L410.377 211.377L407.708 186.762L411.989 163.88L429.112 164.441Z" fill="#2F2E41"/>
<path d="M428.27 154.189L428.129 140.883C428.129 135.244 424.414 131.088 423.899 130.703C423.657 129.931 423.222 129.397 422.608 129.117C421.369 128.556 419.855 129.229 419.791 129.26L415.247 130.961L415.226 131.024C415.177 131.166 410.593 146.195 409.442 149.967C409.278 150.508 409.184 150.818 409.184 150.818C409.184 150.818 409.201 151.69 409.233 153.046C409.335 157.71 409.576 168.099 409.672 168.535C409.672 168.535 418.064 169.806 421.387 169.806C427.365 169.806 431.162 168.663 431.248 168.643L431.385 168.615L428.27 154.189Z" fill="#3F3D56"/>
<path d="M419.738 126.022C422.715 124.396 423.809 120.668 422.182 117.694C420.555 114.72 416.822 113.627 413.845 115.253C410.869 116.878 409.775 120.607 411.402 123.581C413.029 126.555 416.761 127.648 419.738 126.022Z" fill="#9F616A"/>
<path opacity="0.2" d="M417.473 151.373L409.233 153.046C409.201 151.69 409.184 150.818 409.184 150.818C409.184 150.818 409.278 150.508 409.442 149.967L417.473 151.373Z" fill="black"/>
<path d="M393.074 149.619C393.367 149.87 393.711 150.053 394.082 150.157C394.453 150.26 394.842 150.281 395.223 150.218C395.603 150.155 395.964 150.009 396.282 149.791C396.6 149.573 396.866 149.288 397.061 148.956L406.245 150.8L404.418 146.292L395.977 145.233C395.397 144.941 394.731 144.873 394.104 145.04C393.477 145.206 392.933 145.597 392.575 146.138C392.217 146.679 392.071 147.332 392.162 147.973C392.254 148.615 392.579 149.201 393.074 149.619Z" fill="#9F616A"/>
<path d="M403.952 146.021L400.644 145.564L399.541 150.156L403.717 150.395L403.952 146.021Z" fill="#6C63FF"/>
<path d="M402.821 145.136L412.609 144.051L417.802 134.847C418.338 133.896 419.203 133.172 420.235 132.811C421.266 132.451 422.394 132.477 423.407 132.886C424.421 133.295 425.251 134.058 425.742 135.034C426.233 136.009 426.352 137.13 426.077 138.187L426.047 138.301L417.318 151.025L400.996 151.829L402.821 145.136Z" fill="#3F3D56"/>
<path d="M422.024 125.965L416.925 126.148C416.615 126.159 415.771 122.809 415.661 122.113C415.574 121.661 415.324 121.256 414.96 120.973C414.595 120.691 414.14 120.551 413.68 120.579C413.298 120.615 412.336 119.902 411.343 119.059C409.457 117.458 409.555 114.45 411.627 113.097C411.683 113.06 411.739 113.026 411.793 112.996C413.1 112.265 414.628 112.02 416.125 112.001C417.483 111.984 418.878 112.155 420.074 112.797C422.218 113.947 423.359 116.461 423.459 118.89C423.559 121.319 422.78 123.695 421.895 125.959" fill="#2F2E41"/>
<path d="M443.817 219H270.183C270.134 219 270.088 218.981 270.054 218.947C270.019 218.912 270 218.866 270 218.817C270 218.769 270.019 218.723 270.054 218.688C270.088 218.654 270.134 218.635 270.183 218.635H443.817C443.866 218.635 443.912 218.654 443.946 218.688C443.981 218.723 444 218.769 444 218.817C444 218.866 443.981 218.912 443.946 218.947C443.912 218.981 443.866 219 443.817 219Z" fill="#CBCBCB"/>
</g>
</g>
<defs>
<filter id="filter0_d_2849_14542" x="0" y="0" width="464" height="233" filterUnits="userSpaceOnUse" color-interpolation-filters="sRGB">
<feFlood flood-opacity="0" result="BackgroundImageFix"/>
<feColorMatrix in="SourceAlpha" type="matrix" values="0 0 0 0 0 0 0 0 0 0 0 0 0 0 0 0 0 0 127 0" result="hardAlpha"/>
<feOffset dy="4"/>
<feGaussianBlur stdDeviation="2"/>
<feComposite in2="hardAlpha" operator="out"/>
<feColorMatrix type="matrix" values="0 0 0 0 0 0 0 0 0 0 0 0 0 0 0 0 0 0 0.25 0"/>
<feBlend mode="normal" in2="BackgroundImageFix" result="effect1_dropShadow_2849_14542"/>
<feBlend mode="normal" in="SourceGraphic" in2="effect1_dropShadow_2849_14542" result="shape"/>
</filter>
<clipPath id="clip0_2849_14542">
<rect width="456" height="225" fill="white" transform="translate(4)"/>
</clipPath>
<clipPath id="clip1_2849_14542">
<rect width="174" height="107" fill="white" transform="translate(270 112)"/>
</clipPath>
</defs>
</svg>
