<svg xmlns="http://www.w3.org/2000/svg" width="23" height="23" viewBox="0 0 23 23" fill="none">
  <path fill-rule="evenodd" clip-rule="evenodd" d="M15.667 8.10506C14.4492 8.18713 13.4426 7.16882 13.5387 5.95211L13.9461 0.793514C13.9493 0.752705 13.9995 0.735102 14.0275 0.764932H2.75C1.64543 0.764932 0.75 1.66036 0.75 2.76493V18.5262C0.75 19.6308 1.64543 20.5262 2.75 20.5262H18.5113C19.6159 20.5262 20.5113 19.6308 20.5113 18.5262V7.66426C20.5516 7.70719 20.5239 7.77769 20.4652 7.78165L15.667 8.10506ZM20.5113 7.66426L16.0085 7.605C14.9154 7.59061 14.0364 6.70132 14.0348 5.60819L14.0275 0.764932L20.5113 7.66426Z" fill="#707070" fill-opacity="0.6"/>
  <circle cx="16.5764" cy="16.576" r="5.67361" fill="#E63030"/>
  <path d="M17.1903 16.4997L19.1576 14.5353C19.2164 14.4765 19.2495 14.3968 19.2495 14.3136C19.2495 14.2304 19.2164 14.1507 19.1576 14.0918C19.0988 14.033 19.0191 14 18.9359 14C18.8528 14 18.773 14.033 18.7142 14.0918L16.75 16.0594L14.7858 14.0918C14.727 14.033 14.6472 14 14.5641 14C14.4809 14 14.4012 14.033 14.3424 14.0918C14.2836 14.1507 14.2505 14.2304 14.2505 14.3136C14.2505 14.3968 14.2836 14.4765 14.3424 14.5353L16.3097 16.4997L14.3424 18.4641C14.3131 18.4932 14.2899 18.5277 14.274 18.5658C14.2582 18.6038 14.25 18.6447 14.25 18.6859C14.25 18.7271 14.2582 18.7679 14.274 18.806C14.2899 18.844 14.3131 18.8786 14.3424 18.9076C14.3714 18.9369 14.4059 18.9601 14.444 18.976C14.482 18.9918 14.5229 19 14.5641 19C14.6053 19 14.6461 18.9918 14.6842 18.976C14.7222 18.9601 14.7568 18.9369 14.7858 18.9076L16.75 16.9401L18.7142 18.9076C18.7432 18.9369 18.7778 18.9601 18.8158 18.976C18.8539 18.9918 18.8947 19 18.9359 19C18.9771 19 19.018 18.9918 19.056 18.976C19.0941 18.9601 19.1286 18.9369 19.1576 18.9076C19.1869 18.8786 19.2101 18.844 19.226 18.806C19.2418 18.7679 19.25 18.7271 19.25 18.6859C19.25 18.6447 19.2418 18.6038 19.226 18.5658C19.2101 18.5277 19.1869 18.4932 19.1576 18.4641L17.1903 16.4997Z" fill="#D9D9D9" stroke="#D9D9D9" stroke-width="0.5"/>
</svg>