<?xml version="1.0" encoding="utf-8"?>
<!-- Generator: Adobe Illustrator 27.2.0, SVG Export Plug-In . SVG Version: 6.00 Build 0)  -->
<svg version="1.1" id="Livello_1" xmlns="http://www.w3.org/2000/svg" xmlns:xlink="http://www.w3.org/1999/xlink" x="0px" y="0px"
	 viewBox="0 0 335 335" style="enable-background:new 0 0 335 335;" xml:space="preserve">
<style type="text/css">
	.st0{fill:#FFDC85;}
	.st1{fill:#5A4419;}
	.st2{fill:url(#Terzo_Foglio_Libro_00000005985032645591178740000000679311334711603900_);}
	.st3{fill:url(#Secondo_foglio_Libro_00000123423960801131941150000011874474691546440377_);}
	.st4{fill:url(#Lettera__x22_A_x22__Iniziale_00000014600546197527420200000009175113984077713796_);}
	.st5{fill:url(#Primo_Foglio__x2B__Testa_uccello_00000090290668084677456460000001117226788400579755_);}
</style>
<g>
	<g>
		<g id="logo_aladia_00000063619070839722475190000005670561581759694224_">
			<g id="_x22_A_x22__di_Aladia_sottofondo_00000154425172590864904600000000129455211711303591_">
				<path id="Terzo_Foglio_Libro_00000032634761299375164810000011473484462379359924_" class="st0" d="M269.6,65.07
					c-24.19,3.46-38.02,20.87-38.02,20.87s0.55,93.89,36.69,145.27c-29.87,0.74-71.96,16.4-71.96,16.4
					c55.73-12.59,93.59-7.5,93.59-7.5S249.64,148.9,269.6,65.07z"/>
				<path id="Secondo_foglio_Libro_00000048490978360773352000000017652763291075920804_" class="st0" d="M222.77,51.73
					c0,0-17.46,2.7-28.77,13.68c-5.05,29.72,13.64,122.48,32.27,154.6c-41.8,9.78-54.9,36.88-54.9,36.88
					c16.15-16.1,50.95-27.48,83.4-35.1C215.47,164.06,222.77,51.73,222.77,51.73z"/>
				<path id="Lettera__x22_A_x22__Iniziale_00000106144696817939030810000000623069156925252279_" class="st0" d="M175.66,219.54
					l12.53-21.2L72.37,217.82l-30.42,51.66h-4.39l55.55-167.93l61.74-7.92l41.21,113.14L175.66,219.54z M141.34,97.61l-49.09,79.11
					l90.54,13.42L141.34,97.61z"/>
				<path id="Primo_Foglio__x2B__Testa_uccello_00000080912604903718965310000018390111639052694451_" class="st0" d="
					M161.79,257.24c16.89-32.09,46.42-43.52,46.42-43.52s-36.46-102.17-15.78-190.5c-35.68,5.76-71.06,68.04-71.06,68.04
					L97.41,68.34L75.07,80.29c0,0,1.16,7.02-1.58,9.32c-2.75,2.3-7.39,15.69-7.39,15.69s13.3-11.57,18.74-10.25
					c5.44,1.32,32.11,33.34,33.1,63.58c1,30.24,19.71,125.71,43.07,154.94c-3.25-11.45-2.28-22.69-2.28-22.69l9.9,8.4
					C168.63,299.29,160.59,281.92,161.79,257.24z"/>
			</g>
			<g id="_x22_A_x22__di_Aladia_00000032649265262175237350000005814933114528172169_">
				<path id="Terzo_Foglio_Libro_00000143601477010529764760000012884581092214199682_" class="st1" d="M269.6,73.32
					c-24.19,3.46-38.02,20.87-38.02,20.87s0.55,93.89,36.69,145.27c-29.87,0.74-71.96,16.4-71.96,16.4
					c55.73-12.59,93.59-7.5,93.59-7.5S249.64,157.15,269.6,73.32z"/>
				<path id="Secondo_foglio_Libro_00000075871411743324459240000014078059810845946529_" class="st1" d="M222.77,59.98
					c0,0-17.46,2.7-28.77,13.68c-5.05,29.72,13.64,122.48,32.27,154.6c-41.8,9.78-54.9,36.88-54.9,36.88
					c16.15-16.1,50.95-27.48,83.4-35.1C215.47,172.31,222.77,59.98,222.77,59.98z"/>
				<path id="Lettera__x22_A_x22__Iniziale_00000134968316216007269850000016629628674295660220_" class="st1" d="M175.66,227.79
					l12.53-21.2L72.37,226.07l-30.42,51.66h-4.39l55.55-167.93l61.74-7.92l41.21,113.14L175.66,227.79z M141.34,105.86l-49.09,79.11
					l90.54,13.42L141.34,105.86z"/>
				<path id="Primo_Foglio__x2B__Testa_uccello_00000121254371386936540900000001575412377704045464_" class="st1" d="
					M161.79,265.49c16.89-32.09,46.42-43.52,46.42-43.52s-36.46-102.17-15.78-190.5c-35.68,5.76-71.06,68.04-71.06,68.04
					L97.41,76.58L75.07,88.54c0,0,1.16,7.02-1.58,9.32c-2.75,2.3-7.39,15.69-7.39,15.69s13.3-11.57,18.74-10.25
					c5.44,1.32,32.11,33.34,33.1,63.58c1,30.24,19.71,125.71,43.07,154.94c-3.25-11.45-2.28-22.69-2.28-22.69l9.9,8.4
					C168.63,307.54,160.59,290.17,161.79,265.49z"/>
			</g>
			<g id="_x22_A_x22__di_Aladia_00000070082153423401559050000015532077416773724292_">
				
					<linearGradient id="Terzo_Foglio_Libro_00000130633863867503278150000006588192795681419700_" gradientUnits="userSpaceOnUse" x1="259.8606" y1="65.6552" x2="243.4549" y2="253.1726">
					<stop  offset="0.0354" style="stop-color:#C09657"/>
					<stop  offset="0.1213" style="stop-color:#D0B07B"/>
					<stop  offset="0.2936" style="stop-color:#F0E5C6"/>
					<stop  offset="0.3735" style="stop-color:#FEFBE6"/>
					<stop  offset="0.3858" style="stop-color:#D0B98E"/>
					<stop  offset="0.3967" style="stop-color:#AE8A52"/>
					<stop  offset="0.406" style="stop-color:#986D2E"/>
					<stop  offset="0.4131" style="stop-color:#8B5D1B"/>
					<stop  offset="0.4174" style="stop-color:#865715"/>
					<stop  offset="0.4589" style="stop-color:#8A5A17"/>
					<stop  offset="0.5028" style="stop-color:#94631C"/>
					<stop  offset="0.5476" style="stop-color:#A77426"/>
					<stop  offset="0.5909" style="stop-color:#C08B35"/>
					<stop  offset="0.5979" style="stop-color:#C5913A"/>
					<stop  offset="0.6428" style="stop-color:#E4B85D"/>
					<stop  offset="0.6791" style="stop-color:#F8D275"/>
					<stop  offset="0.702" style="stop-color:#FFDC7E"/>
					<stop  offset="0.8786" style="stop-color:#CB9A41"/>
					<stop  offset="0.9192" style="stop-color:#C08B35"/>
				</linearGradient>
				
					<path id="Terzo_Foglio_Libro_00000145748493586811380930000018051237292123465391_" style="fill:url(#Terzo_Foglio_Libro_00000130633863867503278150000006588192795681419700_);" d="
					M270.64,66.6c-24.19,3.46-38.02,20.87-38.02,20.87s0.55,93.89,36.69,145.27c-29.87,0.74-71.96,16.4-71.96,16.4
					c55.73-12.59,93.59-7.5,93.59-7.5S250.68,150.42,270.64,66.6z"/>
				
					<linearGradient id="Secondo_foglio_Libro_00000047028494254523661180000016966225261662991789_" gradientUnits="userSpaceOnUse" x1="230.4634" y1="53.8336" x2="212.2605" y2="261.8934">
					<stop  offset="0.0354" style="stop-color:#C09657"/>
					<stop  offset="0.1235" style="stop-color:#D0B07B"/>
					<stop  offset="0.3002" style="stop-color:#F0E5C6"/>
					<stop  offset="0.3822" style="stop-color:#FEFBE6"/>
					<stop  offset="0.3936" style="stop-color:#D0B98E"/>
					<stop  offset="0.4037" style="stop-color:#AE8A52"/>
					<stop  offset="0.4123" style="stop-color:#986D2E"/>
					<stop  offset="0.4189" style="stop-color:#8B5D1B"/>
					<stop  offset="0.4229" style="stop-color:#865715"/>
					<stop  offset="0.4631" style="stop-color:#8A5A17"/>
					<stop  offset="0.5056" style="stop-color:#94631C"/>
					<stop  offset="0.549" style="stop-color:#A77426"/>
					<stop  offset="0.5909" style="stop-color:#C08B35"/>
					<stop  offset="0.5979" style="stop-color:#C5913A"/>
					<stop  offset="0.6428" style="stop-color:#E4B85D"/>
					<stop  offset="0.6791" style="stop-color:#F8D275"/>
					<stop  offset="0.702" style="stop-color:#FFDC7E"/>
					<stop  offset="0.8786" style="stop-color:#CB9A41"/>
					<stop  offset="0.9192" style="stop-color:#C08B35"/>
				</linearGradient>
				
					<path id="Secondo_foglio_Libro_00000010273819797546063990000008362644084587122111_" style="fill:url(#Secondo_foglio_Libro_00000047028494254523661180000016966225261662991789_);" d="
					M223.81,53.25c0,0-17.46,2.7-28.77,13.68c-5.05,29.72,13.64,122.48,32.27,154.6c-41.8,9.78-54.9,36.88-54.9,36.88
					c16.15-16.1,50.95-27.48,83.4-35.1C216.51,165.58,223.81,53.25,223.81,53.25z"/>
				
					<linearGradient id="Lettera__x22_A_x22__Iniziale_00000015341666325642409660000010785999733190251964_" gradientUnits="userSpaceOnUse" x1="130.6847" y1="92.9602" x2="114.5264" y2="277.65">
					<stop  offset="0.0354" style="stop-color:#C09657"/>
					<stop  offset="0.0714" style="stop-color:#D0B07B"/>
					<stop  offset="0.1435" style="stop-color:#F0E5C6"/>
					<stop  offset="0.177" style="stop-color:#FEFBE6"/>
					<stop  offset="0.1895" style="stop-color:#D0B98E"/>
					<stop  offset="0.2005" style="stop-color:#AE8A52"/>
					<stop  offset="0.2098" style="stop-color:#986D2E"/>
					<stop  offset="0.2171" style="stop-color:#8B5D1B"/>
					<stop  offset="0.2214" style="stop-color:#865715"/>
					<stop  offset="0.3097" style="stop-color:#8A5A17"/>
					<stop  offset="0.4032" style="stop-color:#94631C"/>
					<stop  offset="0.4987" style="stop-color:#A77426"/>
					<stop  offset="0.5909" style="stop-color:#C08B35"/>
					<stop  offset="0.5979" style="stop-color:#C5913A"/>
					<stop  offset="0.6428" style="stop-color:#E4B85D"/>
					<stop  offset="0.6791" style="stop-color:#F8D275"/>
					<stop  offset="0.702" style="stop-color:#FFDC7E"/>
					<stop  offset="0.8786" style="stop-color:#CB9A41"/>
					<stop  offset="0.9192" style="stop-color:#C08B35"/>
				</linearGradient>
				
					<path id="Lettera__x22_A_x22__Iniziale_00000036243246751190672930000001588590416784090266_" style="fill:url(#Lettera__x22_A_x22__Iniziale_00000015341666325642409660000010785999733190251964_);" d="
					M176.7,221.06l12.53-21.2L73.4,219.34l-30.42,51.66H38.6l55.55-167.93l61.74-7.92l41.21,113.14L176.7,221.06z M142.38,99.13
					l-49.09,79.11l90.54,13.42L142.38,99.13z"/>
				
					<linearGradient id="Primo_Foglio__x2B__Testa_uccello_00000011019587579914787130000009219567694009915049_" gradientUnits="userSpaceOnUse" x1="150.4451" y1="20.9849" x2="124.9967" y2="311.8611">
					<stop  offset="0.0354" style="stop-color:#C09657"/>
					<stop  offset="0.1188" style="stop-color:#D0B07B"/>
					<stop  offset="0.2861" style="stop-color:#F0E5C6"/>
					<stop  offset="0.3636" style="stop-color:#FEFBE6"/>
					<stop  offset="0.3642" style="stop-color:#F9F7E2"/>
					<stop  offset="0.3744" style="stop-color:#B1AEA3"/>
					<stop  offset="0.3831" style="stop-color:#83817C"/>
					<stop  offset="0.3899" style="stop-color:#6A6967"/>
					<stop  offset="0.3939" style="stop-color:#616160"/>
					<stop  offset="0.4318" style="stop-color:#656260"/>
					<stop  offset="0.4718" style="stop-color:#71685D"/>
					<stop  offset="0.5128" style="stop-color:#847157"/>
					<stop  offset="0.5542" style="stop-color:#A07D4B"/>
					<stop  offset="0.5909" style="stop-color:#C08B35"/>
					<stop  offset="0.5979" style="stop-color:#C5913A"/>
					<stop  offset="0.6428" style="stop-color:#E4B85D"/>
					<stop  offset="0.6791" style="stop-color:#F8D275"/>
					<stop  offset="0.702" style="stop-color:#FFDC7E"/>
					<stop  offset="0.8786" style="stop-color:#CB9A41"/>
					<stop  offset="0.9192" style="stop-color:#C08B35"/>
				</linearGradient>
				
					<path id="Primo_Foglio__x2B__Testa_uccello_00000139272300714662996100000010808076903784332458_" style="fill:url(#Primo_Foglio__x2B__Testa_uccello_00000011019587579914787130000009219567694009915049_);" d="
					M162.82,258.76c16.89-32.09,46.42-43.52,46.42-43.52s-36.46-102.17-15.78-190.5c-35.68,5.76-71.06,68.04-71.06,68.04
					L98.45,69.86L76.11,81.82c0,0,1.16,7.02-1.58,9.32c-2.75,2.3-7.39,15.69-7.39,15.69s13.3-11.57,18.74-10.25
					c5.44,1.32,32.11,33.34,33.1,63.58c1,30.24,19.71,125.71,43.07,154.94c-3.25-11.45-2.28-22.69-2.28-22.69l9.9,8.4
					C169.67,300.81,161.63,283.44,162.82,258.76z"/>
			</g>
		</g>
	</g>
</g>
</svg>
