<svg width="22" height="22" viewBox="0 0 22 22" fill="none" xmlns="http://www.w3.org/2000/svg">
<g id="Category" clip-path="url(#clip0_378_12826)">
<path id="Vector" fill-rule="evenodd" clip-rule="evenodd" d="M22 14.1429C22 13.5174 21.7517 12.9179 21.3094 12.4764C21.0906 12.2573 20.8309 12.0836 20.5449 11.9651C20.2589 11.8466 19.9524 11.7856 19.6429 11.7857H14.1429C13.5174 11.7857 12.9179 12.034 12.4764 12.4764C12.2573 12.6951 12.0836 12.9549 11.9651 13.2408C11.8466 13.5268 11.7856 13.8333 11.7857 14.1429V19.6429C11.7857 20.2683 12.034 20.8678 12.4764 21.3094C12.6951 21.5284 12.9549 21.7021 13.2408 21.8207C13.5268 21.9392 13.8333 22.0001 14.1429 22H19.6429C20.2683 22 20.8678 21.7517 21.3094 21.3094C21.5284 21.0906 21.7021 20.8309 21.8207 20.5449C21.9392 20.2589 22.0001 19.9524 22 19.6429V14.1429ZM10.2143 14.1429C10.2143 13.5174 9.966 12.9179 9.52364 12.4764C9.30492 12.2573 9.04514 12.0836 8.75918 11.9651C8.47321 11.8466 8.16669 11.7856 7.85714 11.7857H2.35714C1.73171 11.7857 1.13221 12.034 0.690643 12.4764C0.471608 12.6951 0.297862 12.9549 0.179352 13.2408C0.0608419 13.5268 -0.000104945 13.8333 1.35648e-07 14.1429V19.6429C1.35648e-07 20.2683 0.248286 20.8678 0.690643 21.3094C0.90937 21.5284 1.16915 21.7021 1.45511 21.8207C1.74107 21.9392 2.0476 22.0001 2.35714 22H7.85714C8.48257 22 9.08207 21.7517 9.52364 21.3094C9.74268 21.0906 9.91642 20.8309 10.0349 20.5449C10.1534 20.2589 10.2144 19.9524 10.2143 19.6429V14.1429ZM10.2143 2.35714C10.2143 1.73171 9.966 1.13221 9.52364 0.690643C9.30492 0.471608 9.04514 0.297862 8.75918 0.179352C8.47321 0.0608419 8.16669 -0.000104945 7.85714 1.35648e-07H2.35714C1.73171 1.35648e-07 1.13221 0.248286 0.690643 0.690643C0.471608 0.90937 0.297862 1.16915 0.179352 1.45511C0.0608419 1.74107 -0.000104945 2.0476 1.35648e-07 2.35714V7.85714C1.35648e-07 8.48257 0.248286 9.08207 0.690643 9.52364C0.90937 9.74268 1.16915 9.91642 1.45511 10.0349C1.74107 10.1534 2.0476 10.2144 2.35714 10.2143H7.85714C8.48257 10.2143 9.08207 9.966 9.52364 9.52364C9.74268 9.30492 9.91642 9.04514 10.0349 8.75918C10.1534 8.47321 10.2144 8.16669 10.2143 7.85714V2.35714ZM22 2.35714C22 1.73171 21.7517 1.13221 21.3094 0.690643C21.0906 0.471608 20.8309 0.297862 20.5449 0.179352C20.2589 0.0608419 19.9524 -0.000104945 19.6429 1.35648e-07H14.1429C13.5174 1.35648e-07 12.9179 0.248286 12.4764 0.690643C12.2573 0.90937 12.0836 1.16915 11.9651 1.45511C11.8466 1.74107 11.7856 2.0476 11.7857 2.35714V7.85714C11.7857 8.48257 12.034 9.08207 12.4764 9.52364C12.6951 9.74268 12.9549 9.91642 13.2408 10.0349C13.5268 10.1534 13.8333 10.2144 14.1429 10.2143H19.6429C20.2683 10.2143 20.8678 9.966 21.3094 9.52364C21.5284 9.30492 21.7021 9.04514 21.8207 8.75918C21.9392 8.47321 22.0001 8.16669 22 7.85714V2.35714Z" fill="#F1F1F1"/>
</g>
<defs>
<clipPath id="clip0_378_12826">
<rect width="22" height="22" fill="white"/>
</clipPath>
</defs>
</svg>
