<svg width="107" height="95" viewBox="0 0 107 95" fill="none" xmlns="http://www.w3.org/2000/svg">
<rect width="12.0467" height="5.78243" transform="matrix(0.705863 0.708348 -0.705863 0.708348 68.3242 52.6982)" fill="#A6A9AD"/>
<rect width="3.37308" height="5.78243" transform="matrix(0.705863 0.708348 -0.705863 0.708348 68.3242 52.6982)" fill="#74767C"/>
<path d="M73.7639 57.4783C74.1402 57.1006 74.7504 57.1006 75.1268 57.4783L103.352 85.8028C104.857 87.3135 104.857 89.7629 103.352 91.2737L102.681 91.9467C101.176 93.4575 98.7349 93.4575 97.2295 91.9467L69.0044 63.6223C68.628 63.2446 68.628 62.6322 69.0044 62.2545L73.7639 57.4783Z" fill="#707070"/>
<path d="M73.424 59.8675C73.8004 59.4898 74.4106 59.4898 74.7869 59.8675L102.166 87.3434C102.636 87.8147 102.636 88.5788 102.166 89.0501C101.697 89.5213 100.935 89.5213 100.466 89.0501L73.0863 61.5741C72.7099 61.1964 72.7099 60.5841 73.0863 60.2064L73.424 59.8675Z" fill="white" fill-opacity="0.1"/>
<path fill-rule="evenodd" clip-rule="evenodd" d="M67.8125 55.941C55.1326 68.6655 34.5744 68.6655 21.8945 55.941C18.7428 52.7782 16.3744 49.1269 14.7895 45.23H21.6869C22.8799 47.4857 24.423 49.6038 26.3162 51.5037C36.5541 61.7776 53.1529 61.7776 63.3907 51.5037C73.6286 41.2298 73.6286 24.5725 63.3907 14.2986C53.1529 4.02469 36.5541 4.02469 26.3162 14.2986C24.0121 16.6108 22.2265 19.2464 20.9595 22.0597H14.2266C15.7888 17.6053 18.3448 13.4235 21.8945 9.86129C34.5744 -2.86327 55.1326 -2.86327 67.8125 9.86129C80.4924 22.5858 80.4924 43.2164 67.8125 55.941Z" fill="#A6A9AD"/>
<path d="M27.0748 22.0596H3.27295C1.93997 22.0596 0.859375 23.1402 0.859375 24.4731V42.8163C0.859375 44.1493 1.93997 45.2299 3.27295 45.2299H32.1255M40.3029 22.0596H62.9026C64.2356 22.0596 65.3162 23.1402 65.3162 24.4731V42.8163C65.3162 44.1493 64.2356 45.2299 62.9026 45.2299H57.6196" stroke="#A6A9AD" stroke-width="1.44814" stroke-linecap="round"/>
<path d="M50.8845 26.8867L56.1758 32.1966M56.1758 26.8867L50.8845 32.1966" stroke="#BD1313" stroke-width="2.41357" stroke-linecap="round"/>
<path d="M34.0508 28.335H6.63257" stroke="#CECFD2" stroke-width="2.41357" stroke-linecap="round"/>
<path d="M41.2656 34.1274L6.6321 34.1274" stroke="#CECFD2" stroke-width="2.41357" stroke-linecap="round"/>
<path d="M50.8867 39.9199L6.63277 39.9199" stroke="#CECFD2" stroke-width="2.41357" stroke-linecap="round"/>
</svg>
