<svg xmlns="http://www.w3.org/2000/svg" width="12.2" height="11.976" viewBox="0 0 12.2 11.976">
  <g id="Following_Icon" data-name="Following Icon" transform="translate(0.2)">
    <path id="Tracciato_3916" data-name="Tracciato 3916" d="M9.988,13.116H6.283a.436.436,0,0,1-.428-.445v-.445A4.005,4.005,0,0,1,8.231,8.534c1.437-.619,2.4-.206,3.5.937a.416.416,0,0,0,.58-.023.458.458,0,0,0,.022-.6c.056-.194-.9-.81-1.324-1.15.752-.255,1.695-2.188,1.3-3.485a2.96,2.96,0,0,0-5.711,0A3.179,3.179,0,0,0,7.749,7.694,4.653,4.653,0,0,0,5,12.227v.445a1.309,1.309,0,0,0,1.283,1.334H9.988a.445.445,0,0,0,0-.889ZM7.321,5.138a2.139,2.139,0,1,1,4.275,0,2.139,2.139,0,1,1-4.275,0Z" transform="translate(-2.126 -2.029)" fill="#f1f1f1"/>
    <path id="Tracciato_3917" data-name="Tracciato 3917" d="M22.664,20.493a1.282,1.282,0,0,0-.908-.5A1.233,1.233,0,0,0,21,20.19,1.217,1.217,0,0,0,20.253,20a1.282,1.282,0,0,0-.908.493,1.7,1.7,0,0,0,.06,2.109l1.124,1.314a.621.621,0,0,0,.964,0L22.6,22.6A1.7,1.7,0,0,0,22.664,20.493Zm-.652,1.575L21,23.224,20,22.068a.853.853,0,0,1-.04-1.028.5.5,0,0,1,.348-.2h.032a.471.471,0,0,1,.32.137.5.5,0,0,0,.692,0,.458.458,0,0,1,.352-.133.5.5,0,0,1,.348.2A.853.853,0,0,1,22.012,22.068Z" transform="translate(-10.998 -12.237)" fill="#e62020"/>
    <path id="Tracciato_3918" data-name="Tracciato 3918" d="M7.877,7.347H5.617a.21.21,0,0,1-.206-.214V6.919A1.925,1.925,0,0,1,6.553,5.144a1.8,1.8,0,0,1,2.015.416.2.2,0,0,0,.279-.011.22.22,0,0,0,.011-.29,2.255,2.255,0,0,0-.775-.53,1.528,1.528,0,0,0,.551-1.676,1.423,1.423,0,0,0-2.745,0,1.528,1.528,0,0,0,.551,1.676A2.351,2.351,0,0,0,5,6.919v.214a.629.629,0,0,0,.617.641H7.877a.214.214,0,0,0,0-.427ZM6.233,3.5a1.028,1.028,0,1,1,2.055,0,1.028,1.028,0,1,1-2.055,0Z" transform="translate(-5 1.975)" fill="#f1f1f1" stroke="#f1f1f1" stroke-width="0.4"/>
  </g>
</svg>
