<svg xmlns="http://www.w3.org/2000/svg" width="13.092" height="11.976" viewBox="0 0 13.092 11.976">
  <g id="Followers_Icon" data-name="Followers Icon" transform="translate(0.2)">
    <g id="Layer_2" data-name="Layer 2">
      <path id="Tracciato_3916" data-name="Tracciato 3916" d="M9.988,13.116H6.283a.436.436,0,0,1-.428-.445v-.445A4.005,4.005,0,0,1,8.231,8.534c1.437-.619,2.4-.206,3.5.937a.416.416,0,0,0,.58-.023.458.458,0,0,0,.022-.6c.056-.194-.9-.81-1.324-1.15.752-.255,1.695-2.188,1.3-3.485a2.96,2.96,0,0,0-5.711,0A3.179,3.179,0,0,0,7.749,7.694,4.653,4.653,0,0,0,5,12.227v.445a1.309,1.309,0,0,0,1.283,1.334H9.988a.445.445,0,0,0,0-.889ZM7.321,5.138a2.139,2.139,0,1,1,4.275,0,2.139,2.139,0,1,1-4.275,0Z" transform="translate(-2.126 -2.029)" fill="#f1f1f1"/>
      <path id="Tracciato_3918" data-name="Tracciato 3918" d="M7.877,7.347H5.617a.21.21,0,0,1-.206-.214V6.919A1.925,1.925,0,0,1,6.553,5.144a1.8,1.8,0,0,1,2.015.416.2.2,0,0,0,.279-.011.22.22,0,0,0,.011-.29,2.255,2.255,0,0,0-.775-.53,1.528,1.528,0,0,0,.551-1.676,1.423,1.423,0,0,0-2.745,0,1.528,1.528,0,0,0,.551,1.676A2.351,2.351,0,0,0,5,6.919v.214a.629.629,0,0,0,.617.641H7.877a.214.214,0,0,0,0-.427ZM6.233,3.5a1.028,1.028,0,1,1,2.055,0,1.028,1.028,0,1,1-2.055,0Z" transform="translate(-5 1.975)" fill="#f1f1f1" stroke="#f1f1f1" stroke-width="0.4"/>
      <path id="Tracciato_3921" data-name="Tracciato 3921" d="M20.755,9.261a.6.6,0,0,0-.5-.175.817.817,0,0,0-.587.251l-1.726,2.111-.821-1.13a.812.812,0,0,0-1.175,0c-.321.331-.07.8.251,1.13l1.109,1.139a.812.812,0,0,0,1.167,0l2.209-2.269a.86.86,0,0,0,.274-.609A.447.447,0,0,0,20.755,9.261Z" transform="translate(-8.067 -1.331)" fill="#2cb410"/>
    </g>
  </g>
</svg>
