<svg width="40" height="38" viewBox="0 0 40 38" fill="none" xmlns="http://www.w3.org/2000/svg">
<g id="Heart">
<path id="Vector" d="M29.9837 0.532715C22.6803 0.532715 19.9969 7.98587 19.9969 7.98587C19.9969 7.98587 17.3502 0.532715 9.99681 0.532715C4.47007 0.532715 -1.83001 4.90674 0.496689 14.8498C2.82339 24.7929 20.0169 37.1793 20.0169 37.1793C20.0169 37.1793 37.1472 24.7929 39.4772 14.8498C41.8039 4.90674 35.9572 0.532715 29.9837 0.532715Z" fill="#F44336"/>
<g id="Group">
<path id="Vector_2" d="M8.86841 1.27503C14.6018 1.27503 17.4485 7.42996 18.3685 9.92322C18.4985 10.2794 18.9952 10.2894 19.1452 9.94319L19.9852 7.98254C18.8019 4.2077 15.5485 0.532715 9.99509 0.532715C7.69506 0.532715 5.26502 1.29168 3.375 2.89282C5.04502 1.79765 7.00171 1.27503 8.86841 1.27503Z" fill="#CC3333"/>
<path id="Vector_3" d="M29.9813 0.532715C28.218 0.532715 26.6113 0.915525 25.3579 1.6878C26.2379 1.34827 27.328 1.27503 28.408 1.27503C33.8114 1.27503 38.6481 5.36611 36.4647 14.8232C34.5914 22.9421 23.6446 32.792 20.3012 36.5502C20.0879 36.7899 20.0145 37.176 20.0145 37.176C20.0145 37.176 37.1448 24.7896 39.4748 14.8465C41.8015 4.90674 35.9647 0.532715 29.9813 0.532715Z" fill="#CC3333"/>
</g>
<g id="Group_2">
<g id="Group_3">
<g id="Group_4">
<path id="Vector_4" d="M4.33321 5.80788C5.58322 4.25001 7.81658 2.96177 9.70994 4.44641C10.7333 5.24865 10.2866 6.89307 9.36994 7.58545C8.03659 8.5974 6.87657 9.20657 6.06323 10.7911C5.57656 11.7431 5.28322 12.785 5.13322 13.8469C5.07322 14.2663 4.52321 14.3695 4.31654 14C2.90986 11.5101 2.50985 8.08144 4.33321 5.80788Z" fill="#FF8A80"/>
</g>
</g>
</g>
<path id="Vector_5" d="M24.3732 9.08337C23.7865 9.08337 23.3731 8.51748 23.5865 7.97156C23.9832 6.96626 24.4965 5.99426 25.1132 5.12877C26.0265 3.85052 27.7632 3.10487 28.8632 3.88048C29.9899 4.67273 29.8432 6.25723 29.0532 7.02285C27.3565 8.66395 25.2165 9.08337 24.3732 9.08337Z" fill="#FF8A80"/>
</g>
</svg>
