<svg width="18" height="7" viewBox="0 0 18 7" fill="none" xmlns="http://www.w3.org/2000/svg">
<g id="Icons" clip-path="url(#clip0_1118_43951)">
<path id="Vector" d="M15.1234 5.92049C14.9726 5.92049 14.8437 5.86942 14.7367 5.76728C14.6346 5.66027 14.5835 5.53138 14.5835 5.38059C14.5835 5.22981 14.637 5.10335 14.744 5.00121C14.851 4.8942 14.9799 4.8407 15.1307 4.8407C15.2766 4.8407 15.4006 4.8942 15.5028 5.00121C15.6098 5.10821 15.6633 5.23468 15.6633 5.38059C15.6633 5.52651 15.6098 5.65297 15.5028 5.75998C15.3958 5.86699 15.2693 5.92049 15.1234 5.92049Z" fill="#44AD1F"/>
<path id="Vector_2" d="M13.7987 5.92049C13.6479 5.92049 13.519 5.86942 13.412 5.76728C13.3099 5.66027 13.2588 5.53138 13.2588 5.38059C13.2588 5.22981 13.3123 5.10335 13.4193 5.00121C13.5263 4.8942 13.6552 4.8407 13.806 4.8407C13.9519 4.8407 14.0759 4.8942 14.1781 5.00121C14.2851 5.10821 14.3386 5.23468 14.3386 5.38059C14.3386 5.52651 14.2851 5.65297 14.1781 5.75998C14.0711 5.86699 13.9446 5.92049 13.7987 5.92049Z" fill="#44AD1F"/>
<path id="Vector_3" d="M12.473 5.92061C12.3222 5.92061 12.1933 5.86954 12.0863 5.7674C11.9842 5.66039 11.9331 5.5315 11.9331 5.38072C11.9331 5.22993 11.9866 5.10347 12.0936 5.00133C12.2006 4.89432 12.3295 4.84082 12.4803 4.84082C12.6262 4.84082 12.7502 4.89432 12.8524 5.00133C12.9594 5.10834 13.0129 5.2348 13.0129 5.38072C13.0129 5.52663 12.9594 5.6531 12.8524 5.7601C12.7454 5.86711 12.6189 5.92061 12.473 5.92061Z" fill="#44AD1F"/>
<path id="Vector_4" d="M9.46386 6.18323C9.25471 6.18323 9.05772 6.15162 8.8729 6.08839C8.68807 6.02516 8.52026 5.91815 8.36948 5.76737C8.25274 5.65063 8.15303 5.51931 8.07035 5.37339C7.99252 5.22747 7.95361 5.06939 7.95361 4.89916C7.95361 4.66082 8.07764 4.54166 8.3257 4.54166C8.42785 4.54166 8.50324 4.57814 8.55188 4.6511C8.60538 4.72406 8.64915 4.81404 8.6832 4.92104C8.71725 5.02805 8.76103 5.13749 8.81453 5.24936C8.86803 5.35637 8.94585 5.44635 9.048 5.51931C9.15014 5.59227 9.29362 5.62875 9.47845 5.62875C9.68274 5.62875 9.85298 5.57524 9.98917 5.46824C10.1254 5.36123 10.2275 5.22504 10.2956 5.05967C10.3637 4.88943 10.3977 4.71433 10.3977 4.53436C10.3977 4.23766 10.3418 4.01392 10.2299 3.86314C10.1229 3.71236 9.96971 3.61022 9.77029 3.55671C9.57573 3.50321 9.34713 3.47646 9.08448 3.47646C8.9872 3.47646 8.91667 3.44971 8.8729 3.3962C8.82912 3.33784 8.80723 3.26245 8.80723 3.17003C8.80723 2.97061 8.90208 2.8709 9.09177 2.8709C9.155 2.8709 9.21823 2.87333 9.28147 2.8782C9.3447 2.88306 9.40793 2.88549 9.47116 2.88549C9.77759 2.89036 9.99403 2.80037 10.1205 2.61554C10.2518 2.43071 10.3175 2.19725 10.3175 1.91514C10.3175 1.65735 10.264 1.44334 10.157 1.2731C10.05 1.10286 9.85298 1.01774 9.566 1.01774C9.3909 1.01774 9.25958 1.05422 9.17203 1.12718C9.08448 1.19528 9.01881 1.2804 8.97504 1.38254C8.93126 1.48468 8.89235 1.58682 8.8583 1.68897C8.82912 1.79111 8.78778 1.87866 8.73427 1.95162C8.68077 2.01971 8.59565 2.05376 8.47892 2.05376C8.2649 2.05376 8.1579 1.94919 8.1579 1.74004C8.1579 1.47739 8.22599 1.25121 8.36218 1.06152C8.49837 0.871827 8.67347 0.725909 8.88749 0.623766C9.10636 0.51676 9.3374 0.463257 9.5806 0.463257C10.0038 0.463257 10.3467 0.587287 10.6093 0.835347C10.8768 1.08341 11.0106 1.42388 11.0106 1.85677C11.0106 2.18265 10.9376 2.45747 10.7917 2.68121C10.6507 2.90495 10.4245 3.07519 10.1132 3.19192C10.765 3.4108 11.0908 3.87287 11.0908 4.57814C11.0908 5.07426 10.9425 5.4658 10.6458 5.75278C10.3491 6.03975 9.95512 6.18323 9.46386 6.18323Z" fill="#44AD1F"/>
<path id="Vector_5" d="M4.60891 6.08106C4.463 6.08106 4.34383 6.04945 4.25141 5.98622C4.159 5.92299 4.11279 5.81355 4.11279 5.6579C4.11279 5.57035 4.16873 5.45118 4.2806 5.3004C4.39247 5.14962 4.53595 4.97452 4.71106 4.7751C4.88616 4.57081 5.07099 4.35194 5.26554 4.11847C5.4601 3.88014 5.64493 3.63694 5.82003 3.38888C5.99513 3.13596 6.13862 2.88303 6.25049 2.63011C6.36236 2.37718 6.41829 2.13399 6.41829 1.90052C6.41829 1.7546 6.39154 1.61841 6.33804 1.49195C6.28454 1.36062 6.20428 1.25362 6.09727 1.17093C5.99027 1.08824 5.85651 1.0469 5.696 1.0469C5.49658 1.0469 5.34823 1.08824 5.25095 1.17093C5.15367 1.24875 5.08315 1.34846 5.03937 1.47006C5.00046 1.5868 4.96641 1.70596 4.93723 1.82756C4.91291 1.94916 4.87157 2.0513 4.8132 2.13399C4.7597 2.21181 4.66971 2.25072 4.54325 2.25072C4.30492 2.25072 4.18575 2.13156 4.18575 1.89322C4.18575 1.79594 4.20034 1.69867 4.22953 1.60139C4.26357 1.50411 4.30005 1.41169 4.33897 1.32414C4.47516 1.03231 4.65998 0.815863 4.89345 0.674809C5.13179 0.528892 5.40903 0.455933 5.72518 0.455933C5.9927 0.455933 6.23346 0.511868 6.44748 0.623738C6.66635 0.735608 6.83902 0.893686 6.96549 1.09797C7.09681 1.29739 7.16247 1.53572 7.16247 1.81297C7.16247 2.05616 7.10654 2.31395 6.99467 2.58633C6.88766 2.85385 6.74661 3.12623 6.57151 3.40347C6.39641 3.67585 6.20671 3.94094 6.00243 4.19872C5.79814 4.45651 5.59872 4.69728 5.40417 4.92102C5.21447 5.13989 5.0491 5.33202 4.90804 5.49739H6.80498C6.90712 5.49739 6.99224 5.51928 7.06033 5.56306C7.12843 5.60197 7.16247 5.67736 7.16247 5.78923C7.16247 5.9011 7.12843 5.97892 7.06033 6.0227C6.99224 6.06161 6.90712 6.08106 6.80498 6.08106H4.60891Z" fill="#44AD1F"/>
<path id="Vector_6" d="M2.04422 6.18323C1.91289 6.18323 1.82048 6.14189 1.76697 6.0592C1.71833 5.97652 1.69401 5.87437 1.69401 5.75278V1.49927C1.65024 1.54791 1.5943 1.60628 1.52621 1.67437C1.46298 1.74247 1.39245 1.80327 1.31463 1.85677C1.24167 1.90541 1.16628 1.92973 1.08846 1.92973C0.850123 1.92973 0.730957 1.813 0.730957 1.57953C0.730957 1.49684 0.757709 1.42875 0.811212 1.37524C0.864715 1.32174 0.923082 1.27553 0.986313 1.23662C1.1225 1.15393 1.24897 1.05422 1.3657 0.93749C1.48243 0.815891 1.5943 0.699157 1.70131 0.587287C1.784 0.5046 1.87884 0.463257 1.98585 0.463257C2.26309 0.463257 2.40172 0.604311 2.40172 0.886418V5.75278C2.40172 5.87437 2.37496 5.97652 2.32146 6.0592C2.27282 6.14189 2.18041 6.18323 2.04422 6.18323Z" fill="#44AD1F"/>
</g>
<defs>
<clipPath id="clip0_1118_43951">
<rect width="16.9491" height="5.72727" fill="white" transform="translate(0.730957 0.455933)"/>
</clipPath>
</defs>
</svg>
