<svg xmlns="http://www.w3.org/2000/svg" width="12" height="12" viewBox="0 0 12 12">
  <path id="Attachment_Icon" data-name="Attachment Icon" d="M7.384,3.146,3.872,6.694a1.819,1.819,0,0,0,0,2.551,1.775,1.775,0,0,0,2.526,0L9.39,6.224a.585.585,0,0,0,0-.821.571.571,0,0,0-.813,0L5.585,8.424a.633.633,0,0,1-.9,0,.648.648,0,0,1,0-.909L8.2,3.968a1.837,1.837,0,0,1,2.613,0,1.88,1.88,0,0,1,0,2.64l-3.94,3.98a3.039,3.039,0,0,1-4.327,0,3.115,3.115,0,0,1,0-4.37L7.071,1.644a.585.585,0,0,0,0-.821.571.571,0,0,0-.813,0L1.731,5.4a4.285,4.285,0,0,0,0,6.012,4.179,4.179,0,0,0,5.952,0l3.94-3.98a3.052,3.052,0,0,0,0-4.282,2.98,2.98,0,0,0-4.239,0Z" transform="translate(-0.5 -0.653)" fill="#f1f1f1"/>
</svg>
