<svg xmlns="http://www.w3.org/2000/svg" width="12" height="12" viewBox="0 0 12 12">
  <defs>
    <style>
      .cls-1 {
        fill: #f1f1f1;
      }
    </style>
  </defs>
  <path id="Replies_Icon" data-name="Replies Icon" class="cls-1" d="M48.654-1055a1.249,1.249,0,0,1-1.249-1.25,1.249,1.249,0,0,1,1.249-1.25h6.095a1.25,1.25,0,0,1,1.25,1.25,1.25,1.25,0,0,1-1.25,1.25Zm-.75-1.25a.751.751,0,0,0,.75.75h6.095a.751.751,0,0,0,.751-.75.751.751,0,0,0-.751-.75H48.654A.75.75,0,0,0,47.9-1056.25Zm-3.154-1.425,0-.031v-5.6a.25.25,0,0,1,.25-.25.25.25,0,0,1,.25.25v1.121A1.33,1.33,0,0,0,46.5-1061a.25.25,0,0,1,.25.25.25.25,0,0,1-.25.25,1.61,1.61,0,0,1-1.249-.547v3.326c.021.147.225,1.318,1.249,1.318a.25.25,0,0,1,.25.25.25.25,0,0,1-.25.25A1.883,1.883,0,0,1,44.75-1057.675Zm3.9-1.825a1.249,1.249,0,0,1-1.249-1.25,1.249,1.249,0,0,1,1.249-1.25h6.095a1.25,1.25,0,0,1,1.25,1.25,1.25,1.25,0,0,1-1.25,1.25Zm-.75-1.25a.751.751,0,0,0,.75.75h6.095a.751.751,0,0,0,.751-.75.751.751,0,0,0-.751-.75H48.654A.75.75,0,0,0,47.9-1060.75Zm-2.655-3.75a1.25,1.25,0,0,1-1.25-1.25,1.25,1.25,0,0,1,1.25-1.25h9.5a1.25,1.25,0,0,1,1.25,1.25,1.25,1.25,0,0,1-1.25,1.25Zm-.751-1.25a.751.751,0,0,0,.751.751h9.5a.751.751,0,0,0,.751-.751.751.751,0,0,0-.751-.75h-9.5A.751.751,0,0,0,44.5-1065.75Z" transform="translate(-43.999 1067)"/>
</svg>
