<svg width="24" height="24" viewBox="0 0 24 24" fill="none" xmlns="http://www.w3.org/2000/svg">
<path d="M6.00399 0.602027C5.89119 0.661639 5.84028 0.79848 5.89013 0.918691C5.94295 1.04608 5.97222 1.18596 5.97222 1.33333V2.22222C5.97222 2.36029 6.08415 2.47222 6.22222 2.47222V3.75C6.08415 3.75 5.97222 3.86193 5.97222 4V4.88889C5.97222 5.03626 5.94295 5.17615 5.89013 5.30353C5.84028 5.42374 5.89119 5.56058 6.00399 5.6202C5.90368 5.77286 5.77286 5.90368 5.6202 6.00399C5.56058 5.89119 5.42374 5.84028 5.30353 5.89013C5.17615 5.94295 5.03626 5.97222 4.88889 5.97222H4C3.86193 5.97222 3.75 6.08415 3.75 6.22222H2.47222C2.47222 6.08415 2.36029 5.97222 2.22222 5.97222H1.33333C1.18596 5.97222 1.04608 5.94295 0.918691 5.89013C0.79848 5.84028 0.661639 5.89119 0.602027 6.00399C0.449367 5.90368 0.318547 5.77286 0.218233 5.6202C0.331037 5.56058 0.381937 5.42374 0.332095 5.30353C0.279277 5.17615 0.25 5.03626 0.25 4.88889V4C0.25 3.86193 0.138071 3.75 0 3.75V2.47222C0.138071 2.47222 0.25 2.36029 0.25 2.22222V1.33333C0.25 1.18596 0.279277 1.04608 0.332095 0.918691C0.381937 0.79848 0.331037 0.661639 0.218233 0.602027C0.318547 0.449367 0.449367 0.318547 0.602027 0.218233C0.661639 0.331037 0.79848 0.381937 0.918691 0.332095C1.04608 0.279277 1.18596 0.25 1.33333 0.25H2.22222C2.36029 0.25 2.47222 0.138071 2.47222 0H3.75C3.75 0.138071 3.86193 0.25 4 0.25H4.88889C5.03626 0.25 5.17615 0.279277 5.30353 0.332095C5.42374 0.381937 5.56058 0.331037 5.6202 0.218233C5.77286 0.318547 5.90368 0.449367 6.00399 0.602027Z" stroke="#505050" stroke-width="0.5" stroke-linecap="round" stroke-dasharray="2 2"/>
<path d="M6.00399 9.4907C5.89119 9.55031 5.84028 9.68715 5.89013 9.80736C5.94295 9.93475 5.97222 10.0746 5.97222 10.222V11.1109C5.97222 11.249 6.08415 11.3609 6.22222 11.3609V12.6387C6.08415 12.6387 5.97222 12.7506 5.97222 12.8887V13.7776C5.97222 13.9249 5.94295 14.0648 5.89013 14.1922C5.84028 14.3124 5.89119 14.4493 6.00399 14.5089C5.90368 14.6615 5.77286 14.7923 5.6202 14.8927C5.56058 14.7799 5.42374 14.729 5.30353 14.7788C5.17615 14.8316 5.03626 14.8609 4.88889 14.8609H4C3.86193 14.8609 3.75 14.9728 3.75 15.1109H2.47222C2.47222 14.9728 2.36029 14.8609 2.22222 14.8609H1.33333C1.18596 14.8609 1.04608 14.8316 0.918691 14.7788C0.79848 14.729 0.661639 14.7799 0.602027 14.8927C0.449367 14.7923 0.318547 14.6615 0.218233 14.5089C0.331037 14.4493 0.381937 14.3124 0.332095 14.1922C0.279277 14.0648 0.25 13.9249 0.25 13.7776V12.8887C0.25 12.7506 0.138071 12.6387 0 12.6387V11.3609C0.138071 11.3609 0.25 11.249 0.25 11.1109V10.222C0.25 10.0746 0.279277 9.93475 0.332095 9.80736C0.381937 9.68715 0.331037 9.55031 0.218233 9.4907C0.318547 9.33804 0.449367 9.20722 0.602027 9.10691C0.661639 9.21971 0.79848 9.27061 0.918691 9.22077C1.04608 9.16795 1.18596 9.13867 1.33333 9.13867H2.22222C2.36029 9.13867 2.47222 9.02674 2.47222 8.88867H3.75C3.75 9.02674 3.86193 9.13867 4 9.13867H4.88889C5.03626 9.13867 5.17615 9.16795 5.30353 9.22077C5.42374 9.27061 5.56058 9.21971 5.6202 9.10691C5.77286 9.20722 5.90368 9.33804 6.00399 9.4907Z" stroke="#505050" stroke-width="0.5" stroke-linecap="round" stroke-dasharray="2 2"/>
<path d="M6.00399 18.3794C5.89119 18.439 5.84028 18.5758 5.89013 18.696C5.94295 18.8234 5.97222 18.9633 5.97222 19.1107V19.9996C5.97222 20.1376 6.08415 20.2496 6.22222 20.2496V21.5273C6.08415 21.5273 5.97222 21.6393 5.97222 21.7773V22.6662C5.97222 22.8136 5.94295 22.9535 5.89013 23.0809C5.84028 23.2011 5.89119 23.3379 6.00399 23.3975C5.90368 23.5502 5.77286 23.681 5.6202 23.7813C5.56058 23.6685 5.42374 23.6176 5.30353 23.6675C5.17615 23.7203 5.03626 23.7496 4.88889 23.7496H4C3.86193 23.7496 3.75 23.8615 3.75 23.9996H2.47222C2.47222 23.8615 2.36029 23.7496 2.22222 23.7496H1.33333C1.18596 23.7496 1.04608 23.7203 0.918691 23.6675C0.79848 23.6176 0.661639 23.6685 0.602027 23.7813C0.449367 23.681 0.318547 23.5502 0.218233 23.3975C0.331037 23.3379 0.381937 23.2011 0.332095 23.0809C0.279277 22.9535 0.25 22.8136 0.25 22.6662V21.7773C0.25 21.6393 0.138071 21.5273 0 21.5273V20.2496C0.138071 20.2496 0.25 20.1376 0.25 19.9996V19.1107C0.25 18.9633 0.279277 18.8234 0.332095 18.696C0.381937 18.5758 0.331037 18.439 0.218233 18.3794C0.318547 18.2267 0.449367 18.0959 0.602027 17.9956C0.661639 18.1084 0.79848 18.1593 0.918691 18.1094C1.04608 18.0566 1.18596 18.0273 1.33333 18.0273H2.22222C2.36029 18.0273 2.47222 17.9154 2.47222 17.7773H3.75C3.75 17.9154 3.86193 18.0273 4 18.0273H4.88889C5.03626 18.0273 5.17615 18.0566 5.30353 18.1094C5.42374 18.1593 5.56058 18.1084 5.6202 17.9956C5.77286 18.0959 5.90368 18.2267 6.00399 18.3794Z" stroke="#505050" stroke-width="0.5" stroke-linecap="round" stroke-dasharray="2 2"/>
<path d="M14.8927 0.602027C14.7799 0.661639 14.729 0.79848 14.7788 0.918691C14.8316 1.04608 14.8609 1.18596 14.8609 1.33333V2.22222C14.8609 2.36029 14.9728 2.47222 15.1109 2.47222V3.75C14.9728 3.75 14.8609 3.86193 14.8609 4V4.88889C14.8609 5.03626 14.8316 5.17615 14.7788 5.30353C14.729 5.42374 14.7799 5.56058 14.8927 5.6202C14.7923 5.77286 14.6615 5.90368 14.5089 6.00399C14.4493 5.89119 14.3124 5.84028 14.1922 5.89013C14.0648 5.94295 13.9249 5.97222 13.7776 5.97222H12.8887C12.7506 5.97222 12.6387 6.08415 12.6387 6.22222H11.3609C11.3609 6.08415 11.249 5.97222 11.1109 5.97222H10.222C10.0746 5.97222 9.93475 5.94295 9.80736 5.89013C9.68715 5.84028 9.55031 5.89119 9.4907 6.00399C9.33804 5.90368 9.20722 5.77286 9.10691 5.6202C9.21971 5.56058 9.27061 5.42374 9.22077 5.30353C9.16795 5.17615 9.13867 5.03626 9.13867 4.88889V4C9.13867 3.86193 9.02674 3.75 8.88867 3.75V2.47222C9.02674 2.47222 9.13867 2.36029 9.13867 2.22222V1.33333C9.13867 1.18596 9.16795 1.04608 9.22077 0.918691C9.27061 0.79848 9.21971 0.661639 9.10691 0.602027C9.20722 0.449367 9.33804 0.318547 9.4907 0.218233C9.55031 0.331037 9.68715 0.381937 9.80736 0.332095C9.93475 0.279277 10.0746 0.25 10.222 0.25H11.1109C11.249 0.25 11.3609 0.138071 11.3609 0H12.6387C12.6387 0.138071 12.7506 0.25 12.8887 0.25H13.7776C13.9249 0.25 14.0648 0.279277 14.1922 0.332095C14.3124 0.381937 14.4493 0.331037 14.5089 0.218233C14.6615 0.318547 14.7923 0.449367 14.8927 0.602027Z" stroke="#505050" stroke-width="0.5" stroke-linecap="round" stroke-dasharray="2 2"/>
<path d="M14.8927 9.4907C14.7799 9.55031 14.729 9.68715 14.7788 9.80736C14.8316 9.93475 14.8609 10.0746 14.8609 10.222V11.1109C14.8609 11.249 14.9728 11.3609 15.1109 11.3609V12.6387C14.9728 12.6387 14.8609 12.7506 14.8609 12.8887V13.7776C14.8609 13.9249 14.8316 14.0648 14.7788 14.1922C14.729 14.3124 14.7799 14.4493 14.8927 14.5089C14.7923 14.6615 14.6615 14.7923 14.5089 14.8927C14.4493 14.7799 14.3124 14.729 14.1922 14.7788C14.0648 14.8316 13.9249 14.8609 13.7776 14.8609H12.8887C12.7506 14.8609 12.6387 14.9728 12.6387 15.1109H11.3609C11.3609 14.9728 11.249 14.8609 11.1109 14.8609H10.222C10.0746 14.8609 9.93475 14.8316 9.80736 14.7788C9.68715 14.729 9.55031 14.7799 9.4907 14.8927C9.33804 14.7923 9.20722 14.6615 9.10691 14.5089C9.21971 14.4493 9.27061 14.3124 9.22077 14.1922C9.16795 14.0648 9.13867 13.9249 9.13867 13.7776V12.8887C9.13867 12.7506 9.02674 12.6387 8.88867 12.6387V11.3609C9.02674 11.3609 9.13867 11.249 9.13867 11.1109V10.222C9.13867 10.0746 9.16795 9.93475 9.22077 9.80736C9.27061 9.68715 9.21971 9.55031 9.10691 9.4907C9.20722 9.33804 9.33804 9.20722 9.4907 9.10691C9.55031 9.21971 9.68715 9.27061 9.80736 9.22077C9.93475 9.16795 10.0746 9.13867 10.222 9.13867H11.1109C11.249 9.13867 11.3609 9.02674 11.3609 8.88867H12.6387C12.6387 9.02674 12.7506 9.13867 12.8887 9.13867H13.7776C13.9249 9.13867 14.0648 9.16795 14.1922 9.22077C14.3124 9.27061 14.4493 9.21971 14.5089 9.10691C14.6615 9.20722 14.7923 9.33804 14.8927 9.4907Z" stroke="#505050" stroke-width="0.5" stroke-linecap="round" stroke-dasharray="2 2"/>
<path d="M14.8927 18.3794C14.7799 18.439 14.729 18.5758 14.7788 18.696C14.8316 18.8234 14.8609 18.9633 14.8609 19.1107V19.9996C14.8609 20.1376 14.9728 20.2496 15.1109 20.2496V21.5273C14.9728 21.5273 14.8609 21.6393 14.8609 21.7773V22.6662C14.8609 22.8136 14.8316 22.9535 14.7788 23.0809C14.729 23.2011 14.7799 23.3379 14.8927 23.3975C14.7923 23.5502 14.6615 23.681 14.5089 23.7813C14.4493 23.6685 14.3124 23.6176 14.1922 23.6675C14.0648 23.7203 13.9249 23.7496 13.7776 23.7496H12.8887C12.7506 23.7496 12.6387 23.8615 12.6387 23.9996H11.3609C11.3609 23.8615 11.249 23.7496 11.1109 23.7496H10.222C10.0746 23.7496 9.93475 23.7203 9.80736 23.6675C9.68715 23.6176 9.55031 23.6685 9.4907 23.7813C9.33804 23.681 9.20722 23.5502 9.10691 23.3975C9.21971 23.3379 9.27061 23.2011 9.22077 23.0809C9.16795 22.9535 9.13867 22.8136 9.13867 22.6662V21.7773C9.13867 21.6393 9.02674 21.5273 8.88867 21.5273V20.2496C9.02674 20.2496 9.13867 20.1376 9.13867 19.9996V19.1107C9.13867 18.9633 9.16795 18.8234 9.22077 18.696C9.27061 18.5758 9.21971 18.439 9.10691 18.3794C9.20722 18.2267 9.33804 18.0959 9.4907 17.9956C9.55031 18.1084 9.68715 18.1593 9.80736 18.1094C9.93475 18.0566 10.0746 18.0273 10.222 18.0273H11.1109C11.249 18.0273 11.3609 17.9154 11.3609 17.7773H12.6387C12.6387 17.9154 12.7506 18.0273 12.8887 18.0273H13.7776C13.9249 18.0273 14.0648 18.0566 14.1922 18.1094C14.3124 18.1593 14.4493 18.1084 14.5089 17.9956C14.6615 18.0959 14.7923 18.2267 14.8927 18.3794Z" stroke="#505050" stroke-width="0.5" stroke-linecap="round" stroke-dasharray="2 2"/>
<path d="M23.7813 0.602027C23.6685 0.661639 23.6176 0.79848 23.6675 0.918691C23.7203 1.04608 23.7496 1.18596 23.7496 1.33333V2.22222C23.7496 2.36029 23.8615 2.47222 23.9996 2.47222V3.75C23.8615 3.75 23.7496 3.86193 23.7496 4V4.88889C23.7496 5.03626 23.7203 5.17615 23.6675 5.30353C23.6176 5.42374 23.6685 5.56058 23.7813 5.6202C23.681 5.77286 23.5502 5.90368 23.3975 6.00399C23.3379 5.89119 23.2011 5.84028 23.0809 5.89013C22.9535 5.94295 22.8136 5.97222 22.6662 5.97222H21.7773C21.6393 5.97222 21.5273 6.08415 21.5273 6.22222H20.2496C20.2496 6.08415 20.1376 5.97222 19.9996 5.97222H19.1107C18.9633 5.97222 18.8234 5.94295 18.696 5.89013C18.5758 5.84028 18.439 5.89119 18.3794 6.00399C18.2267 5.90368 18.0959 5.77286 17.9956 5.6202C18.1084 5.56058 18.1593 5.42374 18.1094 5.30353C18.0566 5.17615 18.0273 5.03626 18.0273 4.88889V4C18.0273 3.86193 17.9154 3.75 17.7773 3.75V2.47222C17.9154 2.47222 18.0273 2.36029 18.0273 2.22222V1.33333C18.0273 1.18596 18.0566 1.04608 18.1094 0.918691C18.1593 0.79848 18.1084 0.661639 17.9956 0.602027C18.0959 0.449367 18.2267 0.318547 18.3794 0.218233C18.439 0.331037 18.5758 0.381937 18.696 0.332095C18.8234 0.279277 18.9633 0.25 19.1107 0.25H19.9996C20.1376 0.25 20.2496 0.138071 20.2496 0H21.5273C21.5273 0.138071 21.6393 0.25 21.7773 0.25H22.6662C22.8136 0.25 22.9535 0.279277 23.0809 0.332095C23.2011 0.381937 23.3379 0.331037 23.3975 0.218233C23.5502 0.318547 23.681 0.449367 23.7813 0.602027Z" stroke="#505050" stroke-width="0.5" stroke-linecap="round" stroke-dasharray="2 2"/>
<path d="M23.7813 9.4907C23.6685 9.55031 23.6176 9.68715 23.6675 9.80736C23.7203 9.93475 23.7496 10.0746 23.7496 10.222V11.1109C23.7496 11.249 23.8615 11.3609 23.9996 11.3609V12.6387C23.8615 12.6387 23.7496 12.7506 23.7496 12.8887V13.7776C23.7496 13.9249 23.7203 14.0648 23.6675 14.1922C23.6176 14.3124 23.6685 14.4493 23.7813 14.5089C23.681 14.6615 23.5502 14.7923 23.3975 14.8927C23.3379 14.7799 23.2011 14.729 23.0809 14.7788C22.9535 14.8316 22.8136 14.8609 22.6662 14.8609H21.7773C21.6393 14.8609 21.5273 14.9728 21.5273 15.1109H20.2496C20.2496 14.9728 20.1376 14.8609 19.9996 14.8609H19.1107C18.9633 14.8609 18.8234 14.8316 18.696 14.7788C18.5758 14.729 18.439 14.7799 18.3794 14.8927C18.2267 14.7923 18.0959 14.6615 17.9956 14.5089C18.1084 14.4493 18.1593 14.3124 18.1094 14.1922C18.0566 14.0648 18.0273 13.9249 18.0273 13.7776V12.8887C18.0273 12.7506 17.9154 12.6387 17.7773 12.6387V11.3609C17.9154 11.3609 18.0273 11.249 18.0273 11.1109V10.222C18.0273 10.0746 18.0566 9.93475 18.1094 9.80736C18.1593 9.68715 18.1084 9.55031 17.9956 9.4907C18.0959 9.33804 18.2267 9.20722 18.3794 9.10691C18.439 9.21971 18.5758 9.27061 18.696 9.22077C18.8234 9.16795 18.9633 9.13867 19.1107 9.13867H19.9996C20.1376 9.13867 20.2496 9.02674 20.2496 8.88867H21.5273C21.5273 9.02674 21.6393 9.13867 21.7773 9.13867H22.6662C22.8136 9.13867 22.9535 9.16795 23.0809 9.22077C23.2011 9.27061 23.3379 9.21971 23.3975 9.10691C23.5502 9.20722 23.681 9.33804 23.7813 9.4907Z" stroke="#505050" stroke-width="0.5" stroke-linecap="round" stroke-dasharray="2 2"/>
<path d="M23.7813 18.3794C23.6685 18.439 23.6176 18.5758 23.6675 18.696C23.7203 18.8234 23.7496 18.9633 23.7496 19.1107V19.9996C23.7496 20.1376 23.8615 20.2496 23.9996 20.2496V21.5273C23.8615 21.5273 23.7496 21.6393 23.7496 21.7773V22.6662C23.7496 22.8136 23.7203 22.9535 23.6675 23.0809C23.6176 23.2011 23.6685 23.3379 23.7813 23.3975C23.681 23.5502 23.5502 23.681 23.3975 23.7813C23.3379 23.6685 23.2011 23.6176 23.0809 23.6675C22.9535 23.7203 22.8136 23.7496 22.6662 23.7496H21.7773C21.6393 23.7496 21.5273 23.8615 21.5273 23.9996H20.2496C20.2496 23.8615 20.1376 23.7496 19.9996 23.7496H19.1107C18.9633 23.7496 18.8234 23.7203 18.696 23.6675C18.5758 23.6176 18.439 23.6685 18.3794 23.7813C18.2267 23.681 18.0959 23.5502 17.9956 23.3975C18.1084 23.3379 18.1593 23.2011 18.1094 23.0809C18.0566 22.9535 18.0273 22.8136 18.0273 22.6662V21.7773C18.0273 21.6393 17.9154 21.5273 17.7773 21.5273V20.2496C17.9154 20.2496 18.0273 20.1376 18.0273 19.9996V19.1107C18.0273 18.9633 18.0566 18.8234 18.1094 18.696C18.1593 18.5758 18.1084 18.439 17.9956 18.3794C18.0959 18.2267 18.2267 18.0959 18.3794 17.9956C18.439 18.1084 18.5758 18.1593 18.696 18.1094C18.8234 18.0566 18.9633 18.0273 19.1107 18.0273H19.9996C20.1376 18.0273 20.2496 17.9154 20.2496 17.7773H21.5273C21.5273 17.9154 21.6393 18.0273 21.7773 18.0273H22.6662C22.8136 18.0273 22.9535 18.0566 23.0809 18.1094C23.2011 18.1593 23.3379 18.1084 23.3975 17.9956C23.5502 18.0959 23.681 18.2267 23.7813 18.3794Z" stroke="#505050" stroke-width="0.5" stroke-linecap="round" stroke-dasharray="2 2"/>
</svg>
