<svg xmlns="http://www.w3.org/2000/svg" width="14.999" height="14.998" viewBox="0 0 14.999 14.998">
  <path id="Solution_Icon" data-name="Solution Icon" d="M-6885,14774.992v0l0-13.5a1.5,1.5,0,0,1,1.495-1.5h12a1.512,1.512,0,0,1,.224.017l-6.869,6.865-2.692-2.692a.768.768,0,0,0-.545-.225.77.77,0,0,0-.545.225.773.773,0,0,0-.228.552.761.761,0,0,0,.228.542l3.237,3.241a.764.764,0,0,0,.545.226.768.768,0,0,0,.549-.226l7.516-7.516a1.492,1.492,0,0,1,.083.489v9a1.5,1.5,0,0,1-1.5,1.5H-6882l-3,3Z" transform="translate(6884.998 -14759.994)" fill="#f1f1f1" opacity="0.5"/>
</svg>
