<svg xmlns="http://www.w3.org/2000/svg" width="14" height="8" viewBox="0 0 14 8" fill="none">
  <path d="M4.08074 0.727295C5.39474 0.727295 6.41185 1.65767 7.35347 2.73419C8.2951 1.65767 9.3122 0.727295 10.6262 0.727295C11.4942 0.727295 12.3266 1.0721 12.9404 1.68585C13.5541 2.29961 13.8989 3.13204 13.8989 4.00002C13.8989 4.868 13.5541 5.70043 12.9404 6.31419C12.3266 6.92795 11.4942 7.27275 10.6262 7.27275C9.3122 7.27275 8.2951 6.34237 7.35347 5.26585C6.41185 6.34237 5.39474 7.27275 4.08074 7.27275C3.21276 7.27275 2.38033 6.92795 1.76658 6.31419C1.15282 5.70043 0.808016 4.868 0.808016 4.00002C0.808016 3.13204 1.15282 2.29961 1.76658 1.68585C2.38033 1.0721 3.21276 0.727295 4.08074 0.727295ZM10.6262 5.63639C11.0602 5.63639 11.4764 5.46398 11.7833 5.15711C12.0902 4.85023 12.2626 4.43401 12.2626 4.00002C12.2626 3.56603 12.0902 3.14982 11.7833 2.84294C11.4764 2.53606 11.0602 2.36366 10.6262 2.36366C9.92154 2.36366 9.16718 3.12917 8.42232 4.00002C9.16718 4.87087 9.92154 5.63639 10.6262 5.63639ZM4.08074 5.63639C4.7854 5.63639 5.53977 4.87087 6.28462 4.00002C5.53977 3.12917 4.7854 2.36366 4.08074 2.36366C3.64675 2.36366 3.23054 2.53606 2.92366 2.84294C2.61678 3.14982 2.44438 3.56603 2.44438 4.00002C2.44438 4.43401 2.61678 4.85023 2.92366 5.15711C3.23054 5.46398 3.64675 5.63639 4.08074 5.63639Z" fill="#654C84"/>
</svg>