<svg width="16" height="14" viewBox="0 0 16 14" fill="none" xmlns="http://www.w3.org/2000/svg">
<path d="M1.67188 6.62109L3.73438 4.55859C3.80469 4.48828 3.93359 4.48828 4.00391 4.55859C4.07422 4.62891 4.07422 4.75781 4.00391 4.82812L2.25781 6.5625H6.6875C6.78125 6.5625 6.875 6.65625 6.875 6.75C6.875 6.85547 6.78125 6.9375 6.6875 6.9375H2.25781L4.00391 8.68359C4.07422 8.75391 4.07422 8.88281 4.00391 8.95312C3.93359 9.02344 3.80469 9.02344 3.73438 8.95312L1.67188 6.89062C1.60156 6.82031 1.60156 6.69141 1.67188 6.62109Z" fill="#FAFAFA"/>
<line x1="7.5" y1="2" x2="7.5" y2="12" stroke="white" stroke-width="0.5"/>
<line x1="8.5" y1="2" x2="8.5" y2="12" stroke="white" stroke-width="0.5"/>
<path d="M14.3164 6.89062L12.2539 8.95312C12.1836 9.02344 12.0547 9.02344 11.9844 8.95312C11.9141 8.88281 11.9141 8.75391 11.9844 8.68359L13.7305 6.9375H9.3125C9.20703 6.9375 9.125 6.85547 9.125 6.75C9.125 6.65625 9.20703 6.5625 9.3125 6.5625H13.7305L11.9844 4.82812C11.9141 4.75781 11.9141 4.62891 11.9844 4.55859C12.0547 4.48828 12.1836 4.48828 12.2539 4.55859L14.3164 6.62109C14.3867 6.69141 14.3867 6.82031 14.3164 6.89062Z" fill="#FAFAFA"/>
</svg>
